<svg id="图层_1" data-name="图层 1" xmlns="http://www.w3.org/2000/svg" viewBox="0 0 200 32.5"><defs><style>.cls-1{fill:#1b2245;}.cls-1,.cls-2{fill-rule:evenodd;}.cls-2{fill:#2ea7df;}</style></defs><title>未标题-1</title><path class="cls-1" d="M293.51,390.33v.41l.82.2v-.82l1.24-.2v-.41h4.73l.21.41.82.2-.2.62h.61v7h-.41v.61l-1,.21v.41h-5.14v-.41l-.83-.21c-.15-.56-.06-.45-.62-.61v-.62c-.61-.4-.19-.58-1-.82v-.41l-.83-.2v-.21H289a4.22,4.22,0,0,0-.41,2.46H289v.41l.82.21v.41l1,.2v.41c.8.08.86.32,1.65.42v.41l1.23.2V401l1,.21.42.61,1.23.21v.41a14.64,14.64,0,0,1,2.06,1v.41h.62v.21c.23.23.08,0,.2.41.7.2.4.25.83.61v.21h.41v.61h.2c.24.24,0,.08.42.21.07.34.13.68.2,1h.41l.21,1.23h.41v.82s-.42,0-.2.21h.41c0,1.61.49,3.56,0,5.13h-.21v1l-.41.21-.21,1h-.2a1.92,1.92,0,0,0-.41.82h-.42c-.12.93-.18.52-.61,1h-.21V419c-.57.15-.46.06-.62.61l-.82.21v.41l-1.44.41v.41a5.46,5.46,0,0,0-1.85.41H290v-.21h-.83v-.2h-.82l-.2-.41a4.14,4.14,0,0,0-1.65-.41v-.41l-.62-.21v1h-.62v.41a35.32,35.32,0,0,1-6.17,0l-.21-.82h-.41v-8.2h.41l.21-1a37.76,37.76,0,0,1,6.38,0c.15.57.06.46.62.62v.61h.41v.62c.62.4.19.58,1,.82l.2.61h.62v.41h1v.21l2.06-.21v-.41l.62-.2c.07-.41.13-.82.2-1.23h-.2v-.82h-.41c-.15-.57-.06-.46-.62-.62V411l-1.44-.41v-.41l-1.24-.21v-.41l-1.23-.2V409c-.8-.08-.86-.32-1.65-.41v-.41c-1.15-.11-1.43-.78-2.47-1v-.41l-.83-.2v-.41c-.91-.24-.73-.77-1.64-1,0-.4,0-.62-.21-.82h-.41c-.21-.2.21-.2.21-.2.23-.32-.33-.19-.42-.21-.06-.46,0-.54-.2-.82h-.21v-.41h-.2v-.41h-.21v-1l-.41-.21v-1h-.21l.21-4.11.41-.2v-1h.21v-.41h.2v-.41h.21c.18-.28.14-.36.2-.82h.42a2.64,2.64,0,0,1,1.64-1.64v-.41l.83-.2v-.41a12.29,12.29,0,0,0,1.64-.41l.21-.41h1a7.4,7.4,0,0,1,3.5-.41v.2h1.44v.21h1l.21.41Z" transform="translate(-212.93 -389)"/><path class="cls-2" d="M214,389.51h26.56v.41l1,.2c.21,1.95.21,4.51.21,6.77,0,1.23.12,2.18-.62,2.66-.85.87-6.39.43-7.41,0l-.21-.41s.45,0,.21-.2h-.41V397.5h-6.18v4.31a31.3,31.3,0,0,1,5.15.21v.41h.41V403h.41v4.51h-.41v.62h-.41v.41c-1.46.13-3.39.2-5.15.2v4.31h6.18v-1h.41l-.21-.62H234V411a42.34,42.34,0,0,1,7.21,0v.41h.41a39,39,0,0,1,0,9.23h-.41v.41c-4.2.39-9.25.2-13.79.2s-9.74.19-14-.2l-.21-.82H213v-1.44a30.72,30.72,0,0,1,.21-4.92c.37-.19.32-.28.82-.41v-.41h1.24V397.5H214v-.41h-.61v-.2h-.21c-.15-1.33-.65-5.92.21-6.77v-.2H214Z" transform="translate(-212.93 -389)"/><path class="cls-2" d="M259.54,400.58H258.3c.2.69.25.39.62.82h.2v.41c.7.2.4.25.83.62v.2h.41c.15.57.06.46.62.62v.2h.2v-.2l.62-.21v-.61h.41c.24-.84.14-.22.62-.62v-.2H263v-.41h.2l.41-.62a3.08,3.08,0,0,1-1.23-.2,2,2,0,0,0-.21-1H262v-3.28c.38-.25.44-.58.82-.82.57-.57,2-.41,3.09-.41,2.75,0,5.79.06,8.23.2l.21.82.41.21v4.31h-.41V401h-.21v.21h-.61v.2h-2.27l-.2.41h-.42c-.18.7-.42.53-.61,1.23h-.42c-.34.58-.83.7-1,1.44-.57.15-.47,0-.62.61h-.41c-.34.58-.83.7-1,1.44h-.42c-.16.27-.14.24-.41.41.18.23,0,0,.21.2.23.36.13.28.62.41.15.57,0,.46.61.62v.41c.58.34.7.83,1.45,1,.14.57,0,.46.61.62.14.6.23.67.83.82.15.57,0,.46.61.62v.41c.58.33.7.82,1.45,1,.14.57,0,.46.61.62l.21.61c1.33,0,1.44.4,2.47.62,0,.65-.4.38.21.61v4.31h-.42l.21.41h-.21c-.87,1-2.44.82-4.32.82H261.8l-.21-.41-1-.21.2-.61h-.41v-3.49h.41l-.2-.61h.61v-.62h1.24v-.2c-.7-.2-.4-.25-.83-.62v-.2h-.41v-.41l-1.23-1-.21-.61h-.41l-.21-.62c-.23.17,0,0-.2.21s-.08,0-.21.41h-.41v.61c-.6.14-.67.23-.82.82h-.41v.62h-.42c-.21.49-.23.66-.82.82v.2h1.24c.14.57.05.46.61.62v.61h.41v3.49h-.41v.61l-.82.21-.21.41h-10.5v-.41l-1-.21v-.41h.21c.15-.12-.6-.37-.62-.41v-3.89h.21a1.62,1.62,0,0,0,.2-.82l.83-.21.2-.41h1.65v-.2c.23-.24.08,0,.21-.41.56-.15.46-.06.61-.62H249c.33-.57.82-.7,1-1.43h.42l1.23-1.44.62-.21v-.41c.56-.13.47-.26,1-.41.15-.56.06-.45.62-.61l.2-.62H254c-.2-.69-.25-.39-.62-.82h-.21v-.41c-.57-.15-.46-.05-.61-.61-.57-.15-.47-.06-.62-.62-.57-.13-.47-.27-1-.41-.13-.56-.27-.46-.41-1-.57-.15-.46-.06-.62-.62-.57-.13-.47-.27-1-.41-.13-.56-.27-.47-.41-1l-.62-.21v-.2h-.41v-.21h-1v-.2l-1-.21a22.82,22.82,0,0,1,0-5.54h.41V395c2.67-.26,6.06-.2,9.06-.2a14.61,14.61,0,0,1,4.74.41,9.57,9.57,0,0,1,.41,4.3h-.21C259.67,399.9,259.6,400.24,259.54,400.58Z" transform="translate(-212.93 -389)"/><path class="cls-1" d="M317.8,395l.21.82h.41v4.52H318l-.21,1H317v3.69h4.94V401.4h-.82V401h-.41a22.33,22.33,0,0,1,0-5.54h.41V395a99.32,99.32,0,0,1,12.56,0l.2.82.42.21v4.31h-.42V401h-.2c-.24.23,0,.08-.41.21v.2h-1v13.33a4.27,4.27,0,0,1,1.64.41v.62h.42v4.51h-.42l-.2.82a75.25,75.25,0,0,1-12.56,0v-.41h-.41a22.33,22.33,0,0,1,0-5.54h.41v-.41h.82a13.09,13.09,0,0,1,.21-3.89H317v3.89h.82l.21,1h.41v4.51H318l-.21.82c-3.35.32-8.83.6-12.14,0-.2-.37-.29-.32-.42-.82h-.41v-4.51h.41v-.62h.21c.24-.23,0-.08.41-.2v-.21h.83V401.4h-1c-.25-.4-1.09-.55-.62-1h-.41c-.05-1.78-.14-3.53.41-4.72l-.21-.21h.41c.55-.79,2-.61,3.3-.61C311.6,394.84,315.07,394.77,317.8,395Z" transform="translate(-212.93 -389)"/><path class="cls-1" d="M360,403l-1,.21v.2c-1,.32-4.75,0-5.14-.41-.24-.23-.09,0-.21-.41h-.41V401.4h-4.94v3.69h3.5v.21h.61v.2l.62.21v.2h-.2c-.39.18.41.21.41.21a38.9,38.9,0,0,1-.21,4.1h-.41v.41c-1.22.11-2.82.2-4.32.21v3.48h4.94v-1c.56-.33.37-.51,1.23-.62v-.41H359c.25.38.58.44.83.82.7.68.41,4.1.41,5.54v1.64H360c-.25.49.08.3-.41.61-.84.83-4,.41-5.56.41H342.51c-2,0-4.53.18-6-.41l-.21-.61-.41-.21v-4.3h.41v-.62a7.65,7.65,0,0,1,1.65-.41V401.4a4.37,4.37,0,0,1-1.65-.41v-.61h-.41v-4.31c.39-.25.44-.58.83-.82.84-.83,4-.41,5.56-.41h11.53c2,0,4.53-.17,6,.41C360.61,397.05,360.22,400.9,360,403Z" transform="translate(-212.93 -389)"/><path class="cls-1" d="M376.69,395v.41h.41v.21h-.2c-.39.17.41.2.41.2v4.52h-.41l.2.61-2.26.62a15,15,0,0,1,.2,4.1v8.61h5.15v-2.87h.41v-.61h.21v-.21h.62v-.41h4.11v.41l.83.21v.61h.41v8.61c-.55.37-.47.82-1.24,1-.52.46-4.45.2-5.56.2H368.66c-2,0-4.37.16-5.76-.41l-.21-.61-.41-.21V416c.39-.26.34-.21.41-.82a9.73,9.73,0,0,1,2.06-.41V401.4a7.74,7.74,0,0,1-2.06-.41v-.61h-.41v-4.31c.38-.25.44-.58.82-.82.64-.64,2.46-.41,3.71-.41C370.07,394.84,373.76,394.75,376.69,395Z" transform="translate(-212.93 -389)"/><path class="cls-1" d="M403.46,395.45c.12,1.4.2,3.24.2,4.93h-.41l.21.61-2.27.62a13.09,13.09,0,0,1,.21,3.69v5.95a10.54,10.54,0,0,1-.21,3.07h5.36v-2.87H407v-.61l.82-.21v-.41h4.12v.41h.62v.21h.2c.19,2,.21,4.5.21,6.76v2.67h-.21l-.2.82c-4.34.4-9.54.2-14.21.2-2.87,0-6.33.25-8.85-.2-.2-.37-.29-.32-.42-.82-.57-.63-.09-4.31,0-5.13a9.86,9.86,0,0,1,2.06-.41V401.4A6.3,6.3,0,0,1,389,401c-.16-1.43-.75-5,.42-5.74.63-.64,2.46-.41,3.7-.41h9.06v.2h.62v.21Z" transform="translate(-212.93 -389)"/></svg>