<?xml version="1.0" encoding="utf-8"?>
<!-- Generator: Adobe Illustrator 22.1.0, SVG Export Plug-In . SVG Version: 6.00 Build 0)  -->
<svg version="1.1" id="图层_1" xmlns="http://www.w3.org/2000/svg" xmlns:xlink="http://www.w3.org/1999/xlink" x="0px" y="0px"
	 viewBox="0 0 89 24" style="enable-background:new 0 0 89 24;" xml:space="preserve">
<style type="text/css">
	.st0{fill:#FFFFFF;}
	.st1{fill:none;stroke:#FFFFFF;stroke-width:0.7221;}
</style>
<title>Group 4 Copy</title>
<desc>Created with Sketch.</desc>
<g id="logo_1_" transform="translate(272.000000, 34.000000)">
	<path id="newton_1_" class="st0" d="M-241.3-18l3.5-6.1l2.4-0.1c-0.8,1.1-1.6,2.3-2.4,3.5l0,0c0.3-0.4,0.6-0.8,1-1.2
		s0.7-0.8,1.2-1.2c0.4-0.4,0.8-0.7,1.2-0.9c0.4-0.3,0.9-0.4,1.3-0.4c0.4,0,0.8,0.1,1.1,0.3c0.3,0.2,0.4,0.6,0.4,1
		c0,0.4-0.1,0.8-0.3,1.2c-0.2,0.4-0.5,0.8-0.8,1.2s-0.5,0.8-0.8,1.1c-0.2,0.3-0.3,0.7-0.3,0.9c0,0.1,0,0.2,0.1,0.3
		c0.1,0.1,0.2,0.1,0.3,0.1c0.3,0,0.5-0.1,0.9-0.4c0.3-0.2,0.6-0.5,1-0.9c0.3-0.3,0.5-0.5,0.8-0.9c0.3-0.3,0.5-0.6,0.7-0.9
		c0.2-0.3,0.4-0.5,0.6-0.8c0.2-0.2,0.3-0.4,0.4-0.6l0.2,0.1c-0.4,0.5-0.8,1-1.2,1.6c-0.4,0.5-0.9,1.1-1.3,1.5
		c-0.5,0.5-0.9,0.9-1.4,1.1c-0.4,0.3-0.9,0.4-1.3,0.4c-0.5,0-0.9-0.1-1.2-0.4c-0.3-0.3-0.4-0.7-0.4-1.2c0-0.4,0.1-0.8,0.3-1.2
		c0.2-0.4,0.5-0.7,0.7-1c0.3-0.3,0.5-0.6,0.7-0.9c0.2-0.3,0.3-0.5,0.3-0.8c0-0.3-0.2-0.5-0.5-0.5c-0.2,0-0.5,0.1-0.8,0.3
		s-0.6,0.5-1,0.8c-0.3,0.3-0.7,0.7-1,1.2c-0.4,0.4-0.7,0.8-1,1.3c-0.3,0.4-0.6,0.8-0.8,1.2c-0.2,0.4-0.4,0.7-0.5,0.9L-241.3-18z
		 M-221.4-22.5c-0.3,0.4-0.6,0.8-0.9,1.1c-0.3,0.4-0.7,0.8-1.1,1.2c-0.8,0.8-1.5,1.3-2.3,1.7c-0.7,0.4-1.6,0.6-2.5,0.6
		c-0.8,0-1.4-0.2-1.8-0.5c-0.4-0.4-0.6-0.9-0.6-1.6c0-0.6,0.2-1.2,0.5-1.7c0.3-0.5,0.8-1,1.3-1.4c0.5-0.4,1.1-0.7,1.7-1
		c0.6-0.2,1.2-0.4,1.7-0.4c0.5,0,1,0.1,1.4,0.3c0.4,0.2,0.5,0.5,0.5,0.9c0,0.4-0.2,0.7-0.6,1c-0.4,0.3-0.8,0.6-1.4,0.8
		c-0.5,0.2-1.1,0.4-1.6,0.5c-0.5,0.1-1,0.2-1.3,0.3c0,0.1,0,0.2-0.1,0.3c0,0.1,0,0.2,0,0.3c0,0.2,0,0.4,0.1,0.6
		c0,0.2,0.1,0.4,0.2,0.5c0.1,0.1,0.3,0.3,0.4,0.4c0.2,0.1,0.4,0.1,0.7,0.1c0.5,0,1.1-0.2,1.7-0.6c0.6-0.4,1.2-0.9,1.9-1.5
		c0.4-0.4,0.7-0.8,1-1.1c0.3-0.4,0.6-0.7,0.8-1L-221.4-22.5z M-225.2-23.8c0-0.3-0.2-0.5-0.5-0.5c-0.3,0-0.5,0.1-0.8,0.4
		c-0.3,0.3-0.6,0.6-0.8,0.9c-0.2,0.4-0.5,0.7-0.6,1.1c-0.2,0.4-0.3,0.7-0.3,0.9c0.5-0.1,0.9-0.3,1.3-0.5c0.4-0.2,0.7-0.5,1-0.7
		c0.3-0.3,0.5-0.5,0.6-0.8C-225.3-23.2-225.2-23.5-225.2-23.8z M-214.3-24.3c-0.1,0.2-0.2,0.4-0.4,0.7c-0.2,0.3-0.4,0.6-0.6,0.9
		c-0.2,0.3-0.5,0.7-0.7,1.1c-0.2,0.4-0.5,0.8-0.7,1.1c-0.2,0.4-0.4,0.7-0.5,1c-0.1,0.3-0.2,0.6-0.2,0.8c0,0.4,0.2,0.6,0.7,0.6
		c0.3,0,0.6-0.1,0.9-0.3c0.3-0.2,0.6-0.4,0.9-0.7c0.3-0.3,0.5-0.6,0.7-1c0.2-0.4,0.4-0.7,0.6-1c0.2-0.3,0.3-0.6,0.4-0.9
		c0.1-0.3,0.2-0.5,0.2-0.6c0-0.1,0-0.2-0.1-0.3c0-0.1-0.1-0.3-0.1-0.4c0-0.3,0.1-0.5,0.3-0.8c0.2-0.2,0.4-0.4,0.7-0.4
		c0.4,0,0.8,0.1,1,0.4c0.2,0.3,0.3,0.6,0.3,1c0,0.2,0,0.3,0,0.5c0,0.1-0.1,0.3-0.1,0.5c0.4,0.3,0.8,0.5,1.2,0.5c0.2,0,0.4,0,0.5-0.1
		c0.2-0.1,0.3-0.1,0.4-0.2c0.1-0.1,0.2-0.2,0.3-0.3c0.1-0.1,0.2-0.2,0.3-0.3l0.1,0.2c-0.2,0.2-0.4,0.4-0.7,0.6
		c-0.3,0.2-0.6,0.3-1,0.3c-0.3,0-0.5,0-0.7-0.1c-0.2-0.1-0.4-0.2-0.6-0.3c-0.2,0.5-0.5,1.1-0.9,1.6s-0.9,0.9-1.4,1.3
		c-0.5,0.4-1.1,0.7-1.7,0.9c-0.6,0.2-1.2,0.3-1.7,0.3c-0.7,0-1.2-0.1-1.6-0.4c-0.4-0.2-0.6-0.7-0.6-1.3c0-0.1,0-0.2,0-0.4
		s0.1-0.2,0.1-0.3l0,0c-0.2,0.3-0.4,0.5-0.6,0.8c-0.2,0.3-0.5,0.5-0.7,0.8c-0.3,0.2-0.6,0.4-0.9,0.6c-0.3,0.2-0.7,0.2-1,0.2
		c-0.5,0-0.9-0.2-1.1-0.5c-0.3-0.3-0.4-0.7-0.4-1.2c0-0.3,0-0.5,0.1-0.8s0.2-0.6,0.4-1c0.2-0.4,0.4-0.8,0.7-1.2l1-1.6l2.4-0.1
		c-0.1,0.2-0.2,0.4-0.4,0.7c-0.2,0.3-0.4,0.6-0.6,0.9c-0.2,0.3-0.4,0.7-0.7,1c-0.2,0.4-0.4,0.7-0.6,1.1c-0.2,0.3-0.3,0.7-0.5,1
		c-0.1,0.3-0.2,0.5-0.2,0.7c0,0.3,0.2,0.5,0.5,0.5c0.3,0,0.7-0.2,1.1-0.5c0.4-0.3,0.8-0.8,1.1-1.3c0.3-0.4,0.5-0.8,0.8-1.2
		c0.3-0.4,0.5-0.8,0.7-1.2c0.2-0.4,0.4-0.7,0.6-1c0.2-0.3,0.3-0.5,0.4-0.7L-214.3-24.3z M-209.4-23.9l0.1-0.3l1.4,0l1.4-2.5l2.4-0.1
		l-1.5,2.6l2.3,0l-0.1,0.3l-2.4,0c-0.2,0.3-0.4,0.6-0.7,1.1c-0.3,0.4-0.6,0.9-0.8,1.4c-0.3,0.5-0.5,0.9-0.7,1.4
		c-0.2,0.4-0.3,0.8-0.3,1.1c0,0.2,0.1,0.3,0.2,0.4c0.1,0.1,0.3,0.1,0.5,0.1c0.3,0,0.6-0.1,0.9-0.3c0.3-0.2,0.7-0.4,1-0.6
		c0.3-0.3,0.7-0.6,1-0.9c0.3-0.3,0.6-0.7,0.9-1c0.3-0.3,0.5-0.6,0.8-0.9c0.2-0.3,0.4-0.5,0.5-0.7l0.1,0.1c-0.4,0.5-0.8,1-1.2,1.5
		c-0.4,0.5-0.9,1.1-1.4,1.5c-0.5,0.5-1,0.9-1.6,1.2c-0.6,0.3-1.2,0.5-1.9,0.5c-0.5,0-0.9-0.1-1.2-0.4c-0.3-0.3-0.4-0.6-0.4-1.1
		c0-0.2,0-0.5,0.1-0.7c0.1-0.2,0.2-0.5,0.3-0.8c0.2-0.3,0.4-0.7,0.6-1.2c0.3-0.5,0.6-1.1,1-1.8L-209.4-23.9L-209.4-23.9L-209.4-23.9
		z M-193.2-22.6c0,0-0.1,0.1-0.2,0.2c-0.1,0.1-0.2,0.2-0.4,0.3c-0.2,0.1-0.3,0.2-0.5,0.3c-0.2,0.1-0.4,0.1-0.6,0.1
		c-0.3,0-0.6-0.1-0.8-0.2c-0.2-0.1-0.4-0.3-0.6-0.6l0,0c0,0.6-0.1,1.2-0.4,1.7c-0.3,0.5-0.6,1-1.1,1.4c-0.5,0.4-1,0.7-1.6,1
		c-0.6,0.2-1.2,0.4-1.8,0.4c-0.4,0-0.7,0-1.1-0.1c-0.4-0.1-0.7-0.2-0.9-0.4c-0.3-0.2-0.5-0.4-0.7-0.7c-0.2-0.3-0.3-0.7-0.3-1.1
		c0-0.7,0.1-1.2,0.5-1.8c0.3-0.5,0.7-1,1.2-1.3c0.5-0.4,1-0.7,1.6-0.9c0.6-0.2,1.2-0.3,1.8-0.3c0.5,0,0.9,0.1,1.2,0.2
		c0.3,0.1,0.6,0.3,0.8,0.5c0.2,0.2,0.4,0.4,0.6,0.7s0.3,0.5,0.5,0.7c0.2,0.2,0.3,0.4,0.5,0.5c0.2,0.1,0.4,0.2,0.7,0.2
		c0.3,0,0.5-0.1,0.8-0.2c0.3-0.2,0.5-0.4,0.8-0.7L-193.2-22.6z M-199-24.3c-0.3,0-0.6,0.1-0.8,0.3c-0.3,0.2-0.5,0.4-0.8,0.7
		c-0.3,0.3-0.5,0.6-0.7,1c-0.2,0.4-0.4,0.8-0.6,1.2c-0.2,0.4-0.3,0.8-0.4,1.1c-0.1,0.4-0.1,0.7-0.1,1c0,0.3,0.1,0.5,0.2,0.6
		s0.3,0.2,0.5,0.2c0.3,0,0.6-0.1,0.8-0.3c0.3-0.2,0.5-0.4,0.8-0.7c0.3-0.3,0.5-0.6,0.7-1c0.2-0.4,0.4-0.8,0.6-1.2
		c0.2-0.4,0.3-0.8,0.4-1.1c0.1-0.4,0.1-0.7,0.1-1c0-0.3-0.1-0.5-0.2-0.6C-198.6-24.3-198.8-24.3-199-24.3z M-196.5-18.2l3.5-6.1
		l2.4-0.1c-0.8,1.1-1.6,2.3-2.4,3.5l0,0c0.3-0.4,0.6-0.8,1-1.2s0.7-0.8,1.2-1.2c0.4-0.4,0.8-0.7,1.2-0.9c0.4-0.3,0.9-0.4,1.3-0.4
		c0.4,0,0.8,0.1,1.1,0.3c0.3,0.2,0.4,0.6,0.4,1c0,0.4-0.1,0.8-0.3,1.2s-0.5,0.8-0.8,1.2c-0.3,0.4-0.5,0.8-0.8,1.1
		c-0.2,0.3-0.3,0.7-0.3,0.9c0,0.1,0,0.2,0.1,0.3c0.1,0.1,0.2,0.1,0.3,0.1c0.3,0,0.5-0.1,0.9-0.4c0.3-0.2,0.6-0.5,1-0.9
		c0.3-0.3,0.5-0.5,0.8-0.9c0.3-0.3,0.5-0.6,0.7-0.9c0.2-0.3,0.4-0.5,0.6-0.8c0.2-0.2,0.3-0.4,0.4-0.6l0.2,0.1
		c-0.4,0.5-0.8,1-1.2,1.6c-0.4,0.5-0.9,1.1-1.3,1.5c-0.5,0.5-0.9,0.9-1.4,1.1c-0.4,0.3-0.9,0.4-1.3,0.4c-0.5,0-0.9-0.1-1.2-0.4
		c-0.3-0.3-0.4-0.7-0.4-1.2c0-0.4,0.1-0.8,0.3-1.2c0.2-0.4,0.5-0.7,0.7-1c0.3-0.3,0.5-0.6,0.7-0.9c0.2-0.3,0.3-0.5,0.3-0.8
		c0-0.3-0.2-0.5-0.5-0.5c-0.2,0-0.5,0.1-0.8,0.3c-0.3,0.2-0.6,0.5-1,0.8c-0.3,0.3-0.7,0.7-1,1.2c-0.4,0.4-0.7,0.8-1,1.3
		c-0.3,0.4-0.6,0.8-0.8,1.2c-0.2,0.4-0.4,0.7-0.5,0.9L-196.5-18.2z"/>
	<g id="Page-1_2_" transform="translate(0.749311, 0.000000)">
		<path id="Stroke-1_1_" class="st1" d="M-244.3-21c0.4,0.3,0.3,0.5-0.4,0.6c-0.3,0.1-0.3,0.1-0.3,0.3c0,0.3,0,0.5-0.8,0.6
			c-0.3,0-0.5,0.1-0.4,0.2c0.1,0.3-0.3,0.5-1.2,0.5c-0.3,0-0.5,0.1-0.6,0.2c-0.1,0.3-0.6,0.4-1.5,0.4c-0.3,0-0.6,0.1-0.7,0.2
			c-0.3,0.3-0.9,0.4-1.7,0.3c-0.3,0-0.6,0-0.8,0.1c-0.5,0.2-1.1,0.3-1.9,0.2c-0.3,0-0.6,0-0.9,0.1c-0.6,0.2-1.3,0.2-2,0.1
			c-0.3-0.1-0.6-0.1-0.9,0c-0.7,0.2-1.4,0.1-2-0.1c-0.2-0.1-0.6-0.1-0.9-0.1c-0.8,0.1-1.4,0-1.9-0.2c-0.2-0.1-0.5-0.1-0.8-0.1
			c-0.8,0.1-1.4-0.1-1.7-0.3c-0.1-0.1-0.4-0.2-0.7-0.2c-0.9,0-1.4-0.2-1.5-0.4c0-0.1-0.3-0.2-0.6-0.2c-0.8-0.1-1.2-0.2-1.2-0.5
			c0-0.1-0.1-0.2-0.4-0.2c-0.8-0.1-1-0.3-0.8-0.6c0.1-0.1,0-0.2-0.3-0.3c-0.7-0.2-0.8-0.4-0.4-0.6c0.2-0.1,0.1-0.2-0.1-0.3
			c-0.6-0.2-0.6-0.4,0-0.7c0.2-0.1,0.2-0.2,0.1-0.3c-0.4-0.3-0.3-0.5,0.4-0.6c0.3-0.1,0.4-0.2,0.3-0.3c-0.2-0.3,0-0.5,0.8-0.6
			c0.3,0,0.5-0.1,0.4-0.2c-0.1-0.3,0.3-0.5,1.2-0.5c0.3,0,0.5-0.1,0.6-0.2c0.1-0.3,0.6-0.4,1.5-0.4c0.3,0,0.6-0.1,0.7-0.2
			c0.3-0.3,0.9-0.4,1.7-0.3c0.3,0,0.6,0,0.8-0.1c0.5-0.2,1.1-0.3,1.9-0.2c0.3,0,0.6,0,0.9-0.1c0.6-0.2,1.3-0.2,2-0.1
			c0.3,0.1,0.6,0.1,0.9,0c0.7-0.2,1.4-0.1,2,0.1c0.2,0.1,0.6,0.1,0.9,0.1c0.8-0.1,1.4,0,1.9,0.2c0.2,0.1,0.5,0.1,0.8,0.1
			c0.8-0.1,1.4,0.1,1.7,0.3c0.1,0.1,0.4,0.2,0.7,0.2c0.9,0,1.4,0.2,1.5,0.4c0,0.1,0.3,0.2,0.6,0.2c0.6,0,1,0.2,1.2,0.5
			c0.1,0.1,0.1,0.3,0.4,0.2c0.6,0,1,0.3,0.8,0.6c-0.1,0.1,0,0.3,0.3,0.3c0.5,0,0.8,0.4,0.4,0.6c-0.1,0.1-0.1,0.2,0.1,0.3
			c0.6,0.2,0.6,0.4,0,0.7C-244.4-21.2-244.4-21.1-244.3-21z"/>
		<path id="Fill-3_1_" class="st0" d="M-258.8-31c0.5-0.2,0.9-0.6,0.9-1.3c0-0.6-0.7-0.8-1.6-0.6c-1.7,0.6-2.2,2.4-2.5,4.2
			c-0.1,0.5-0.1,1-0.2,1.5c-0.5,3.8-0.9,8.3-0.7,11.6c0,0.7,0.3,1.5-0.3,2.2c-1,0.1-0.7-0.5-1.6-0.2c-1.4,0.5-1.1,2.2,0,2.2
			c0.3,0,0.6-0.1,1-0.3c1.8-0.9,2-3.1,2.3-5.3c0.5-4.1,0.8-8.1,0.8-12c0,0,0,0,0,0c0-0.7-0.1-1.9,0.4-2.2
			C-259.9-31.3-259.5-30.8-258.8-31"/>
		<g id="Group-7_1_" transform="translate(14.049148, 0.230943)">
			<path id="Fill-5_1_" class="st0" d="M-266.1-33c-1.7,0.6-2.2,2.4-2.5,4.2c-0.1,0.5-0.1,1-0.2,1.5c-0.5,3.8-0.9,8.3-0.7,11.6
				c0,0.7,0.3,1.5-0.3,2.2c-1,0.1-0.7-0.5-1.6-0.2c-1.4,0.5-1.1,2.2,0,2.2c0.3,0,0.6-0.1,1-0.3c1.8-0.9,2-3.1,2.3-5.3
				c0.5-4.1,0.8-8.1,0.8-12c0,0,0,0,0,0c0-0.7-0.1-1.9,0.4-2.2c0.5-0.3,0.9,0.3,1.6,0.1c0.5-0.2,0.9-0.6,0.9-1.3
				C-264.5-33.1-265.3-33.3-266.1-33"/>
		</g>
	</g>
</g>
</svg>
