<svg id="图层_1" data-name="图层 1" xmlns="http://www.w3.org/2000/svg" viewBox="0 0 89 24"><defs><style>.cls-1{fill:none;stroke:#000;}</style></defs><title>logo</title><g id="logo"><path id="newton" d="M36.09,16l3.1-5.35,2.14-.1q-1.08,1.52-2.07,3.09l0,0q.39-.51.87-1.08a12.87,12.87,0,0,1,1-1.07,7.29,7.29,0,0,1,1.1-.82,2.23,2.23,0,0,1,1.12-.34,1.54,1.54,0,0,1,1,.29,1.06,1.06,0,0,1,.39.9,2.05,2.05,0,0,1-.3,1,11.71,11.71,0,0,1-.69,1c-.25.34-.47.66-.68,1a1.45,1.45,0,0,0-.3.81.4.4,0,0,0,.08.26.32.32,0,0,0,.26.11,1.3,1.3,0,0,0,.76-.31,7.29,7.29,0,0,0,.87-.77c.23-.23.46-.48.69-.74s.44-.53.64-.78.38-.47.54-.68L47,12l.14.08c-.34.45-.71.92-1.09,1.4s-.78.93-1.17,1.34a6.69,6.69,0,0,1-1.19,1,2.22,2.22,0,0,1-1.18.36,1.24,1.24,0,0,1-1-.4,1.51,1.51,0,0,1-.35-1,2,2,0,0,1,.29-1,7.78,7.78,0,0,1,.66-.93c.24-.28.45-.55.65-.79A1.14,1.14,0,0,0,43,11.3a.37.37,0,0,0-.41-.42,1.19,1.19,0,0,0-.66.28,7.25,7.25,0,0,0-.84.73c-.3.31-.61.65-.92,1s-.6.74-.88,1.12-.51.72-.72,1.06-.35.6-.45.81Zm17.45-3.94a11.34,11.34,0,0,1-.78,1,13,13,0,0,1-1,1,9.16,9.16,0,0,1-2,1.52,4.78,4.78,0,0,1-2.19.52A2.31,2.31,0,0,1,46,15.66a1.79,1.79,0,0,1-.55-1.4,2.77,2.77,0,0,1,.45-1.51A4.93,4.93,0,0,1,47,11.51a6.11,6.11,0,0,1,1.49-.85,4.24,4.24,0,0,1,1.53-.32,2.48,2.48,0,0,1,1.19.23.77.77,0,0,1,.47.76,1.1,1.1,0,0,1-.51.92,4.81,4.81,0,0,1-1.21.67,10.09,10.09,0,0,1-1.41.46l-1.11.27c0,.1,0,.2,0,.3s0,.2,0,.3a2.48,2.48,0,0,0,.06.54,1.21,1.21,0,0,0,.21.46,1,1,0,0,0,.38.31,1.25,1.25,0,0,0,.58.12,2.85,2.85,0,0,0,1.52-.53,10.93,10.93,0,0,0,1.64-1.31,10.35,10.35,0,0,0,.92-1c.27-.32.49-.61.67-.87Zm-3.33-1.12a.37.37,0,0,0-.42-.42,1.13,1.13,0,0,0-.72.34,4.37,4.37,0,0,0-.7.82,7.35,7.35,0,0,0-.56,1,3.4,3.4,0,0,0-.3.83,4.07,4.07,0,0,0,1.14-.42,3.73,3.73,0,0,0,.85-.62,2.5,2.5,0,0,0,.54-.75A1.77,1.77,0,0,0,50.21,10.94Zm9.58-.46c-.09.14-.22.34-.39.58s-.36.52-.56.83-.42.62-.63,1-.4.66-.57,1a7,7,0,0,0-.43.88,1.83,1.83,0,0,0-.16.66.5.5,0,0,0,.57.56,1.57,1.57,0,0,0,.82-.25,3.34,3.34,0,0,0,.75-.62,5.51,5.51,0,0,0,.65-.84c.19-.32.37-.62.52-.91a7.26,7.26,0,0,0,.35-.8,3.65,3.65,0,0,0,.15-.55,1.88,1.88,0,0,0-.06-.29,1,1,0,0,1-.06-.37A1.11,1.11,0,0,1,61,10.6a.8.8,0,0,1,.65-.31,1.06,1.06,0,0,1,.85.33,1.28,1.28,0,0,1,.28.87,2.85,2.85,0,0,1,0,.44,3.38,3.38,0,0,1-.09.41,1.77,1.77,0,0,0,1.06.42,1.3,1.3,0,0,0,.46-.08,1.43,1.43,0,0,0,.37-.19,1.41,1.41,0,0,0,.29-.25l.24-.26.09.14a2.43,2.43,0,0,1-.59.55,1.4,1.4,0,0,1-.84.27,1.52,1.52,0,0,1-.62-.12,2.69,2.69,0,0,1-.5-.28,4.21,4.21,0,0,1-.77,1.36A6.36,6.36,0,0,1,60.6,15a5.74,5.74,0,0,1-1.47.77,4.43,4.43,0,0,1-1.51.29,2.83,2.83,0,0,1-1.41-.31,1.19,1.19,0,0,1-.55-1.13,1.82,1.82,0,0,1,0-.32c0-.11.05-.2.07-.28l0,0-.53.7a5.07,5.07,0,0,1-.65.66,3.68,3.68,0,0,1-.77.51,1.91,1.91,0,0,1-.89.21,1.28,1.28,0,0,1-1-.41,1.62,1.62,0,0,1-.37-1.05,2.26,2.26,0,0,1,.13-.7,4.7,4.7,0,0,1,.39-.85c.17-.32.39-.68.64-1.09l.9-1.42,2.12-.1c-.09.16-.22.36-.39.62l-.55.81-.59.92q-.3.47-.54.93a9,9,0,0,0-.41.83,1.7,1.7,0,0,0-.15.66c0,.3.13.45.4.45a1.48,1.48,0,0,0,1-.45,6.92,6.92,0,0,0,1-1.11c.24-.32.48-.66.71-1s.44-.71.64-1,.36-.63.51-.91.27-.47.36-.62Zm4.33.35.1-.25h1.25l1.28-2.19,2.09-.09-1.35,2.27h2.07l-.12.25H67.36c-.14.25-.33.56-.58,1s-.48.8-.72,1.22-.45.83-.63,1.22a2.51,2.51,0,0,0-.27,1,.49.49,0,0,0,.14.38.62.62,0,0,0,.4.12,1.8,1.8,0,0,0,.83-.23,4.78,4.78,0,0,0,.88-.56,10.44,10.44,0,0,0,.86-.78c.27-.29.54-.58.78-.86s.47-.55.67-.79l.48-.6.12.06c-.34.4-.7.85-1.08,1.33A13.24,13.24,0,0,1,68,14.61a7.15,7.15,0,0,1-1.43,1,3.42,3.42,0,0,1-1.67.42,1.22,1.22,0,0,1-1.38-1.32,2.06,2.06,0,0,1,.08-.6,4.3,4.3,0,0,1,.29-.72c.14-.29.32-.64.55-1l.89-1.56ZM78.36,12l-.2.21a2.67,2.67,0,0,1-.34.29,2.4,2.4,0,0,1-.45.25,1.34,1.34,0,0,1-.56.12,1.27,1.27,0,0,1-.7-.19,2.05,2.05,0,0,1-.57-.5h0a3.13,3.13,0,0,1-.37,1.49,4.05,4.05,0,0,1-1,1.25,4.81,4.81,0,0,1-1.39.85,4.34,4.34,0,0,1-1.63.32,5.23,5.23,0,0,1-1-.1,2.56,2.56,0,0,1-.83-.35,1.85,1.85,0,0,1-.58-.63,1.89,1.89,0,0,1-.22-1,3,3,0,0,1,.4-1.56,4.23,4.23,0,0,1,1-1.19,5.11,5.11,0,0,1,1.45-.75A5.29,5.29,0,0,1,73,10.25a2.75,2.75,0,0,1,1.07.18,2.57,2.57,0,0,1,.72.44,2.74,2.74,0,0,1,.5.58,6.6,6.6,0,0,0,.41.58,2.34,2.34,0,0,0,.45.44,1.07,1.07,0,0,0,.63.18,1.41,1.41,0,0,0,.71-.21,2.45,2.45,0,0,0,.72-.6Zm-5.09-1.53a1.26,1.26,0,0,0-.73.25,3.88,3.88,0,0,0-.71.65,6.41,6.41,0,0,0-.65.91,9.81,9.81,0,0,0-.52,1,6,6,0,0,0-.35,1,3.13,3.13,0,0,0-.13.84,1,1,0,0,0,.16.56.54.54,0,0,0,.45.21,1.36,1.36,0,0,0,.73-.25,3.92,3.92,0,0,0,.71-.66,6.3,6.3,0,0,0,.65-.9,9.81,9.81,0,0,0,.52-1,6.07,6.07,0,0,0,.35-1,3.6,3.6,0,0,0,.13-.83,1,1,0,0,0-.16-.56A.54.54,0,0,0,73.27,10.43Zm2.19,5.42,3.1-5.35,2.14-.1q-1.08,1.51-2.07,3.09l0,0c.26-.34.56-.7.88-1.08a11.39,11.39,0,0,1,1-1.07,6.41,6.41,0,0,1,1.1-.82,2.21,2.21,0,0,1,1.12-.34,1.59,1.59,0,0,1,1,.29,1.12,1.12,0,0,1,.39.9,2,2,0,0,1-.31,1,9.76,9.76,0,0,1-.68,1c-.25.34-.48.66-.68,1a1.48,1.48,0,0,0-.31.81.47.47,0,0,0,.08.26.34.34,0,0,0,.27.11,1.3,1.3,0,0,0,.75-.31,7.29,7.29,0,0,0,.87-.77c.23-.23.46-.48.69-.74l.65-.78c.2-.24.38-.47.54-.68s.28-.37.37-.49l.14.08c-.34.45-.7.92-1.09,1.4a17.48,17.48,0,0,1-1.16,1.34,6.4,6.4,0,0,1-1.2,1,2.2,2.2,0,0,1-1.18.36,1.26,1.26,0,0,1-1-.4,1.51,1.51,0,0,1-.34-1,1.91,1.91,0,0,1,.29-1,6.73,6.73,0,0,1,.65-.93c.24-.28.46-.55.65-.79a1,1,0,0,0,.29-.68c0-.28-.13-.42-.4-.42a1.19,1.19,0,0,0-.67.28,7.25,7.25,0,0,0-.84.73c-.3.31-.6.65-.91,1s-.61.74-.88,1.12A11.09,11.09,0,0,0,78,14.94a7.82,7.82,0,0,0-.46.81Z"/><g id="Page-1"><path id="Stroke-1" class="cls-1" d="M32.33,13.33q.54.33-.36.57c-.22.06-.24.13-.23.24,0,.29,0,.42-.71.53-.25,0-.4.13-.38.22.05.25-.29.41-1,.47-.28,0-.48.1-.52.19-.1.25-.53.39-1.29.4a1,1,0,0,0-.62.15,2.16,2.16,0,0,1-1.5.29,1.48,1.48,0,0,0-.7.11,2.77,2.77,0,0,1-1.66.18,1.79,1.79,0,0,0-.75.06,3.14,3.14,0,0,1-1.73.07,2,2,0,0,0-.77,0,3.24,3.24,0,0,1-1.73,0,1.67,1.67,0,0,0-.75-.05A2.82,2.82,0,0,1,16,16.53a1.55,1.55,0,0,0-.7-.1,2.14,2.14,0,0,1-1.51-.28,1.12,1.12,0,0,0-.62-.15c-.76,0-1.19-.13-1.3-.38,0-.09-.24-.16-.51-.19-.74,0-1.08-.21-1-.46s-.13-.18-.38-.22c-.69-.11-.92-.28-.71-.53.07-.09,0-.18-.24-.24-.6-.15-.72-.34-.36-.56.13-.08.1-.18-.08-.25-.5-.19-.5-.39,0-.58.18-.07.22-.17.08-.25Q8,12,8.94,11.77c.23-.06.31-.15.24-.24-.22-.24,0-.42.7-.54.26,0,.41-.12.39-.21q-.09-.39,1-.48c.27,0,.47-.1.51-.19q.15-.37,1.29-.39a1.07,1.07,0,0,0,.62-.15,2.12,2.12,0,0,1,1.51-.3,1.42,1.42,0,0,0,.7-.1A2.74,2.74,0,0,1,17.58,9a1.83,1.83,0,0,0,.75-.05,3,3,0,0,1,1.73-.07,2,2,0,0,0,.77,0,3.06,3.06,0,0,1,1.73.05,1.67,1.67,0,0,0,.75.05A2.78,2.78,0,0,1,25,9.13a1.42,1.42,0,0,0,.7.1,2.14,2.14,0,0,1,1.51.29,1.08,1.08,0,0,0,.62.14q1.14,0,1.29.39c0,.09.27.17.52.18a1.14,1.14,0,0,1,1,.47.38.38,0,0,0,.39.21c.5,0,.92.29.71.53-.08.09,0,.23.23.24.47,0,.73.34.37.57-.13.08-.1.18.08.25.49.19.49.38,0,.58C32.23,13.15,32.2,13.25,32.33,13.33Z"/><path id="Fill-3" d="M19.57,4.53a1.18,1.18,0,0,0,.81-1.12c0-.56-.66-.75-1.41-.5C17.44,3.4,17,5,16.8,6.61c-.06.47-.11.93-.17,1.36A65.36,65.36,0,0,0,16,18.22a2.56,2.56,0,0,1-.26,1.93c-.87.09-.63-.42-1.43-.16-1.25.42-1,2,0,1.93a2.27,2.27,0,0,0,.85-.25c1.58-.76,1.78-2.7,2-4.65a73,73,0,0,0,.67-10.6v0c0-.63-.13-1.67.32-1.9s.77.29,1.44,0"/><g id="Group-7"><path id="Fill-5" d="M25.47,3c-1.53.49-1.94,2.11-2.17,3.71-.06.46-.11.92-.17,1.35A64.13,64.13,0,0,0,22.5,18.3c0,.62.23,1.29-.27,1.93-.87.1-.63-.42-1.43-.15-1.24.41-1,2,0,1.92a2.1,2.1,0,0,0,.85-.25c1.58-.76,1.78-2.7,2-4.65a73,73,0,0,0,.67-10.6v0c0-.63-.13-1.67.32-1.9s.77.29,1.44.05a1.17,1.17,0,0,0,.81-1.12c0-.56-.66-.75-1.41-.5"/></g></g></g></svg>