<?xml version="1.0" encoding="utf-8"?>
<!-- Generator: Adobe Illustrator 22.1.0, SVG Export Plug-In . SVG Version: 6.00 Build 0)  -->
<svg version="1.1" id="图层_1" xmlns="http://www.w3.org/2000/svg" xmlns:xlink="http://www.w3.org/1999/xlink" x="0px" y="0px"
	 viewBox="0 0 512 512" style="enable-background:new 0 0 512 512;" xml:space="preserve">
<style type="text/css">
	.st0{fill:none;stroke:#000000;stroke-width:10;}
</style>
<g id="Page-1_1_" transform="translate(0.749311, 0.000000)">
	<path id="Stroke-1_1_" class="st0" d="M494.1,271.6c7.1,4.7,4.7,8.7-7.1,12c-4.4,1.2-4.7,2.7-4.6,5.1c0.2,6.1-0.5,8.9-13.9,11.3
		c-5,0.9-7.9,2.7-7.5,4.7c1.1,5.3-5.6,8.7-20.2,10c-5.4,0.5-9.3,2.1-10.1,4c-2,5.3-10.6,8.1-25.5,8.3c-5.6,0.1-10.3,1.3-12.2,3.2
		c-5.1,5-15,7.1-29.8,6.3c-5.5-0.3-10.9,0.5-13.8,2.3c-7.9,4.5-18.8,5.8-32.7,3.9c-5.2-0.7-10.9-0.3-14.8,1.2
		c-10.4,3.9-21.8,4.4-34.2,1.4c-4.6-1.1-10.5-1.1-15.1,0.1c-12.4,3-23.8,2.6-34.2-1.2c-3.9-1.4-9.6-1.8-14.8-1
		c-13.9,2-24.8,0.8-32.7-3.7c-3-1.7-8.3-2.5-13.8-2.1c-14.7,1-24.7-1-29.8-6c-1.9-1.9-6.7-3-12.2-3.1c-15-0.1-23.5-2.8-25.6-8.1
		c-0.8-2-4.7-3.5-10.1-4c-14.5-1.2-21.3-4.5-20.2-9.8c0.4-2-2.5-3.8-7.6-4.6c-13.5-2.3-18.2-6-14-11.2c1.5-1.9-0.3-3.9-4.7-5.1
		c-11.8-3.2-14.2-7.2-7.2-12c2.6-1.8,2-3.8-1.6-5.3c-9.7-4.1-9.7-8.1,0-12.3c3.6-1.5,4.2-3.6,1.5-5.3c-7.1-4.7-4.7-8.7,7.1-12
		c4.4-1.2,6.2-3.2,4.6-5.1c-4.2-5.1,0.5-8.9,13.9-11.3c5-0.9,7.9-2.7,7.5-4.7c-1.1-5.3,5.6-8.7,20.2-10c5.4-0.5,9.3-2.1,10.1-4
		c2.1-5.3,10.6-8.1,25.6-8.3c5.6-0.1,10.3-1.3,12.2-3.2c5.1-5,15-7.1,29.8-6.3c5.5,0.3,10.9-0.5,13.8-2.2c7.9-4.6,18.8-5.9,32.7-3.9
		c5.2,0.7,10.9,0.3,14.8-1.2c10.4-3.9,21.8-4.3,34.2-1.4c4.6,1.1,10.5,1.1,15.1-0.1c12.4-3,23.8-2.7,34.2,1.1
		c3.9,1.4,9.6,1.8,14.8,1c13.9-2,24.8-0.8,32.7,3.7c3,1.7,8.3,2.5,13.8,2.1c14.7-1,24.7,1,29.8,6c1.9,1.8,6.6,3,12.2,3.1
		c15,0.1,23.5,2.8,25.6,8.1c0.8,1.9,5.3,3.7,10.1,3.9c10.8,0.6,17.1,3.9,20.2,9.9c1,1.8,2.5,4.7,7.6,4.6c9.9-0.2,18.2,6,14,11.2
		c-1.6,1.9,0.1,4.9,4.7,5.1c9.1,0.4,14.2,7.2,7.2,12c-2.6,1.8-2,3.8,1.6,5.3c9.7,4.1,9.7,8.1,0,12.3
		C492.1,267.8,491.5,269.9,494.1,271.6z"/>
	<path id="Fill-3_1_" d="M242.2,85.3c8.4-3.2,16.5-11.8,16-23.8c-0.6-11.9-13-15.8-27.7-10.7c-30.2,10.5-38.3,44.7-42.8,78.5
		c-1.3,9.8-2.2,19.5-3.4,28.6c-8.5,70.2-15.2,153.9-12.6,217.2c0.5,13,4.6,27.2-5.2,40.8c-17.2,2-12.5-8.9-28.2-3.3
		c-24.6,8.9-19.1,41.9-0.8,40.7c5.7-0.4,10.4-2,16.8-5.3c31-16.1,35-57.2,40-98.4c9.4-77.1,14.2-152,13.2-224.6c0-0.3,0-0.5,0-0.8
		c-0.3-13.3-2.5-35.4,6.3-40.3C222.4,79.4,229.1,90.3,242.2,85.3"/>
	<g id="Group-7_1_" transform="translate(14.049148, 0.230943)">
		<path id="Fill-5_1_" d="M344.7,52.4c-30.2,10.5-38.4,44.7-42.8,78.6c-1.3,9.8-2.3,19.5-3.4,28.6c-8.5,70.2-15.2,153.9-12.6,217.2
			c0.5,13,4.6,27.2-5.2,40.8c-17.2,2-12.5-8.9-28.2-3.3c-24.6,8.9-19.1,41.9-0.8,40.7c5.7-0.4,10.4-2,16.8-5.3
			c31-16.1,35-57.2,40-98.4c9.4-77.1,14.2-152,13.2-224.6c0-0.3,0-0.5,0-0.8c-0.3-13.3-2.5-35.4,6.3-40.3c8.6-4.7,15.2,6.2,28.4,1.2
			c8.5-3.2,16.5-11.8,16-23.7C371.8,51.1,359.4,47.2,344.7,52.4"/>
	</g>
</g>
</svg>
