<?xml version="1.0" encoding="UTF-8"?>
<svg width="235px" height="165px" viewBox="0 0 235 165" version="1.1" xmlns="http://www.w3.org/2000/svg" xmlns:xlink="http://www.w3.org/1999/xlink">
    <!-- Generator: sketchtool 49 (51002) - http://www.bohemiancoding.com/sketch -->
    <title>59A6A08B-8442-419C-896D-A15BC6AE73EA</title>
    <desc>Created with sketchtool.</desc>
    <defs></defs>
    <g id="Page-1" stroke="none" stroke-width="1" fill="none" fill-rule="evenodd">
        <g id="牛顿BLOG下载" transform="translate(-881.000000, -340.000000)">
            <g id="Page-1" transform="translate(881.000000, 339.000000)">
                <path d="M227.837884,88.544106 C231.167959,90.6368931 230.045669,92.405576 224.471012,93.8594148 C222.392015,94.3965017 222.244829,95.0632304 222.272426,96.1096239 C222.33682,98.8043188 222.033249,100.035915 215.676669,101.082308 C213.3033,101.461973 211.932634,102.249083 212.107417,103.128795 C212.613367,105.490125 209.430478,106.953224 202.577145,107.518092 C200.019795,107.740334 198.170775,108.416323 197.802811,109.286774 C196.827706,111.629585 192.807698,112.84266 185.751985,112.916741 C183.111842,112.953782 180.885659,113.490869 179.984147,114.31502 C177.564783,116.528188 172.882439,117.44494 165.937116,117.028235 C163.324571,116.880073 160.813215,117.250478 159.424151,118.000547 C155.670917,119.991473 150.528618,120.55634 143.988055,119.676629 C141.531894,119.343265 138.836557,119.537727 137.005935,120.167415 C132.102813,121.862017 126.730537,122.05648 120.870708,120.741543 C118.69052,120.241496 115.92159,120.241496 113.741403,120.741543 C107.881574,122.05648 102.500098,121.862017 97.5969758,120.167415 C95.7755533,119.537727 93.0710169,119.343265 90.6240553,119.676629 C84.0742936,120.55634 78.9319947,119.991473 75.1879596,118.000547 C73.798895,117.250478 71.2691415,116.880073 68.6749943,117.028235 C61.720472,117.44494 57.0381283,116.528188 54.6279632,114.31502 C53.726451,113.490869 51.4910689,112.953782 48.8601252,112.916741 C41.7952137,112.84266 37.7844046,111.629585 36.8001005,109.286774 C36.4321363,108.416323 34.5831165,107.740334 32.0257657,107.518092 C25.1724336,106.953224 21.9987429,105.490125 22.4954945,103.128795 C22.6794765,102.249083 21.3088101,101.461973 18.9354414,101.082308 C12.5788609,100.035915 10.371076,98.3876134 12.3396842,96.1096239 C13.0572142,95.2762131 12.2200958,94.3965017 10.1410984,93.8594148 C4.56644166,92.405576 3.43495193,90.6368931 6.77422652,88.544106 C8.00690639,87.7755161 7.71253508,86.8587642 6.02909913,86.1920356 C1.46634377,84.3770521 1.46634377,82.5713287 6.02909913,80.7563452 C7.71253508,80.0896166 8.00690639,79.1821249 6.76502741,78.4042748 C3.42575282,76.3207478 4.56644166,74.5428048 10.1410984,73.088966 C12.2200958,72.551879 13.0572142,71.6814278 12.3396842,70.8387569 C10.371076,68.5700275 12.5788609,66.9124661 18.9354414,65.8753326 C21.3088101,65.4956677 22.6794765,64.6992974 22.4954945,63.8288462 C21.9987429,61.4675156 25.1724336,59.9951565 32.0257657,59.4302892 C34.5831165,59.2173065 36.4321363,58.5320576 36.7909014,57.6708665 C37.7844046,55.3280561 41.7952137,54.1149804 48.8601252,54.0316394 C51.4910689,54.003859 53.726451,53.4575119 54.6279632,52.6426214 C57.0381283,50.4201926 61.720472,49.5127009 68.6749943,49.9201462 C71.2691415,50.0775682 73.798895,49.7071634 75.1879596,48.9570937 C78.9319947,46.9569078 84.0742936,46.3920405 90.6240553,47.2717519 C93.0710169,47.6051162 95.7755533,47.4199138 97.5969758,46.7809655 C102.500098,45.0863636 107.881574,44.9011612 113.741403,46.2160982 C115.92159,46.7068846 118.681321,46.7068846 120.870708,46.2160982 C126.721338,44.9011612 132.102813,45.0863636 137.005935,46.7809655 C138.836557,47.4199138 141.531894,47.6051162 143.988055,47.2717519 C150.537817,46.3920405 155.670917,46.9569078 159.424151,48.9570937 C160.813215,49.7071634 163.324571,50.0775682 165.937116,49.9201462 C172.882439,49.5127009 177.564783,50.4201926 179.984147,52.6426214 C180.885659,53.4575119 183.111842,54.003859 185.751985,54.0316394 C192.807698,54.1149804 196.827706,55.3280561 197.802811,57.6708665 C198.170775,58.5320576 200.27737,59.3006476 202.577145,59.4302892 C207.66425,59.7080928 210.63556,61.1804519 212.107417,63.8288462 C212.558173,64.6252165 213.257305,65.9216332 215.66747,65.8753326 C220.340614,65.8012517 224.222636,68.5700275 222.272426,70.8387569 C221.536498,71.6814278 222.300023,72.9963648 224.471012,73.088966 C228.776192,73.2741684 231.167959,76.3207478 227.837884,78.4042748 C226.605204,79.1821249 226.890376,80.0896166 228.583011,80.7563452 C233.136567,82.5713287 233.145767,84.3770521 228.583011,86.1920356 C226.890376,86.8587642 226.605204,87.7755161 227.837884,88.544106 Z" id="Stroke-1" stroke="#000000" stroke-width="5.14685315"></path>
                <path d="M124.201,17.8004945 C128.395791,17.3189683 132.958546,14.4575912 133.896855,9.26266399 C134.816765,4.05847664 129.508882,1.05819781 122.223192,1.69714608 C107.293047,3.00282298 100.172941,16.8559623 94.7730675,30.9869051 C93.218419,35.0613579 91.8109561,39.1543308 90.3942942,42.9787603 C79.5485511,72.3518605 68.1600609,107.725518 63.0913549,135.274375 C62.0518562,140.941568 62.4934131,147.497733 56.6795797,152.303735 C48.5935677,151.322162 51.8132539,147.108808 44.0308123,147.868138 C31.8420001,149.053433 31.0968727,163.897405 39.6428399,165.341984 C42.2921818,165.78647 44.619555,165.601267 47.8852367,164.860458 C63.7444912,161.239751 69.6411166,143.960367 76.0344936,126.718024 C87.9841291,94.4650266 97.6155905,62.7213358 104.312538,31.3017492 C104.340135,31.1906278 104.358533,31.0702462 104.386131,30.9591248 C105.572815,25.2085904 106.731902,15.4113836 111.26706,14.2631287 C115.68263,13.1519143 117.678835,18.5598243 124.201,17.8004945" id="Fill-3" fill="#000000"></path>
                <g id="Group-7" transform="translate(99.080304, 0.606413)" fill="#000000">
                    <path d="M89.7839541,0.852748095 C74.853809,2.15842499 67.7337029,16.0115643 62.3338291,30.1517673 C60.7791806,34.22622 59.3625186,38.3099328 57.9550558,42.1343623 C47.1001136,71.5074625 35.7208225,106.88112 30.6521165,134.429977 C29.6126178,140.09717 30.0541747,146.662595 24.2403413,151.459337 C16.1543293,150.487025 19.3740155,146.26441 11.5915739,147.02374 C-0.59723827,148.218295 -1.34236566,163.053007 7.19440243,164.497586 C9.85294336,164.942072 12.1803166,164.766129 15.4459983,164.02532 C31.3052528,160.395353 37.2018782,143.115969 43.5952552,125.873626 C55.5448907,93.6298888 65.1763521,61.8769378 71.8732995,30.4573512 C71.9008968,30.3462298 71.919295,30.2258482 71.9468923,30.1147268 C73.1243775,24.3641924 74.2834646,14.5669856 78.8370209,13.4187307 C83.2433914,12.3075163 85.2303978,17.7154263 91.7617613,16.9560965 C95.9657517,16.4745703 100.519308,13.6131932 101.457616,8.42752612 C102.377527,3.21407865 97.0696441,0.223059946 89.7839541,0.852748095" id="Fill-5"></path>
                </g>
            </g>
        </g>
    </g>
</svg>