<?xml version="1.0" encoding="utf-8"?>
<!-- Generator: Adobe Illustrator 22.1.0, SVG Export Plug-In . SVG Version: 6.00 Build 0)  -->
<svg version="1.1" id="图层_1" xmlns="http://www.w3.org/2000/svg" xmlns:xlink="http://www.w3.org/1999/xlink" x="0px" y="0px"
	 viewBox="0 0 64 64" style="enable-background:new 0 0 64 64;" xml:space="preserve">
<style type="text/css">
	.st0{fill:none;stroke:#000000;stroke-width:1.5;}
</style>
<g id="Page-1_1_" transform="translate(0.749311, 0.000000)">
	<path id="Stroke-1_1_" class="st0" d="M61.1,34.8c0.9,0.6,0.6,1.1-0.9,1.5c-0.6,0.2-0.6,0.3-0.6,0.6c0,0.8-0.1,1.1-1.8,1.4
		c-0.6,0.1-1,0.3-1,0.6c0.1,0.7-0.7,1.1-2.5,1.3c-0.7,0.1-1.2,0.3-1.3,0.5c-0.3,0.7-1.3,1-3.2,1c-0.7,0-1.3,0.2-1.5,0.4
		c-0.6,0.6-1.9,0.9-3.8,0.8c-0.7,0-1.4,0.1-1.7,0.3c-1,0.6-2.4,0.7-4.1,0.5c-0.7-0.1-1.4,0-1.9,0.1c-1.3,0.5-2.7,0.5-4.3,0.2
		c-0.6-0.1-1.3-0.1-1.9,0c-1.6,0.4-3,0.3-4.3-0.1c-0.5-0.2-1.2-0.2-1.9-0.1c-1.8,0.3-3.1,0.1-4.1-0.5c-0.4-0.2-1-0.3-1.7-0.3
		c-1.9,0.1-3.1-0.1-3.8-0.8C14.6,42.1,14,42,13.3,42c-1.9,0-3-0.4-3.2-1c-0.1-0.2-0.6-0.4-1.3-0.5c-1.8-0.2-2.7-0.6-2.6-1.2
		c0-0.3-0.3-0.5-1-0.6c-1.7-0.3-2.3-0.8-1.8-1.4c0.2-0.2,0-0.5-0.6-0.6c-1.5-0.4-1.8-0.9-0.9-1.5c0.3-0.2,0.2-0.5-0.2-0.7
		c-1.2-0.5-1.2-1,0-1.5c0.4-0.2,0.5-0.5,0.2-0.7c-0.9-0.6-0.6-1.1,0.9-1.5c0.6-0.2,0.8-0.4,0.6-0.6c-0.5-0.6,0.1-1.1,1.8-1.4
		c0.6-0.1,1-0.3,1-0.6c-0.1-0.7,0.7-1.1,2.5-1.3c0.7-0.1,1.2-0.3,1.3-0.5c0.3-0.7,1.3-1,3.2-1.1c0.7,0,1.3-0.2,1.5-0.4
		c0.6-0.6,1.9-0.9,3.8-0.8c0.7,0,1.4-0.1,1.7-0.3c1-0.6,2.4-0.7,4.1-0.5c0.7,0.1,1.4,0,1.9-0.1c1.3-0.5,2.7-0.5,4.3-0.2
		c0.6,0.1,1.3,0.1,1.9,0c1.6-0.4,3-0.3,4.3,0.1c0.5,0.2,1.2,0.2,1.9,0.1c1.8-0.3,3.1-0.1,4.1,0.5c0.4,0.2,1,0.3,1.7,0.3
		c1.9-0.1,3.1,0.1,3.8,0.8c0.2,0.2,0.8,0.4,1.5,0.4c1.9,0,3,0.4,3.2,1c0.1,0.2,0.7,0.5,1.3,0.5c1.4,0.1,2.2,0.5,2.6,1.2
		c0.1,0.2,0.3,0.6,1,0.6c1.3,0,2.3,0.8,1.8,1.4c-0.2,0.2,0,0.6,0.6,0.6c1.2,0,1.8,0.9,0.9,1.5c-0.3,0.2-0.3,0.5,0.2,0.7
		c1.2,0.5,1.2,1,0,1.5C60.9,34.3,60.8,34.6,61.1,34.8z"/>
	<path id="Fill-3_1_" d="M29.4,11.3c1.1-0.4,2.1-1.5,2-3c-0.1-1.5-1.6-2-3.5-1.3c-3.8,1.3-4.8,5.6-5.4,9.9c-0.2,1.2-0.3,2.5-0.4,3.6
		c-1.1,8.9-1.9,19.4-1.6,27.4c0.1,1.6,0.6,3.4-0.7,5.1c-2.2,0.2-1.6-1.1-3.6-0.4c-3.1,1.1-2.4,5.3-0.1,5.1c0.7,0,1.3-0.2,2.1-0.7
		c3.9-2,4.4-7.2,5.1-12.4c1.2-9.7,1.8-19.2,1.7-28.3c0,0,0-0.1,0-0.1c0-1.7-0.3-4.5,0.8-5.1C26.9,10.6,27.7,12,29.4,11.3"/>
	<g id="Group-7_1_" transform="translate(14.049148, 0.230943)">
		<path id="Fill-5_1_" d="M30,7c-3.8,1.3-4.8,5.6-5.4,9.9c-0.2,1.2-0.3,2.5-0.4,3.6c-1.1,8.9-1.9,19.4-1.6,27.4
			c0.1,1.6,0.6,3.4-0.7,5.1c-2.2,0.3-1.6-1.1-3.6-0.4c-3.1,1.1-2.4,5.3-0.1,5.1c0.7,0,1.3-0.2,2.1-0.7c3.9-2,4.4-7.2,5.1-12.4
			c1.2-9.7,1.8-19.2,1.7-28.3c0,0,0-0.1,0-0.1c0-1.7-0.3-4.5,0.8-5.1c1.1-0.6,1.9,0.8,3.6,0.1c1.1-0.4,2.1-1.5,2-3
			C33.4,6.8,31.9,6.3,30,7"/>
	</g>
</g>
</svg>
