<?xml version="1.0" encoding="UTF-8"?>
<svg width="319px" height="350px" viewBox="0 0 319 350" version="1.1" xmlns="http://www.w3.org/2000/svg" xmlns:xlink="http://www.w3.org/1999/xlink">
    <!-- Generator: sketchtool 49 (51002) - http://www.bohemiancoding.com/sketch -->
    <title>DAFF1A4B-4898-423B-BF57-5C43478327BC</title>
    <desc>Created with sketchtool.</desc>
    <defs>
        <linearGradient x1="-1.11022302e-14%" y1="50%" x2="100%" y2="50%" id="linearGradient-1">
            <stop stop-color="#4C4C4C" offset="0%"></stop>
            <stop stop-color="#242424" offset="100%"></stop>
        </linearGradient>
        <path d="M236.735752,63.4451816 C236.735752,68.1798966 230.817358,71.3363733 226.477203,71.3363733 L10.2585493,71.3363733 C5.9183938,71.3363733 0,68.1798966 0,63.4451816 L0,7.81227982 C0,3.07756478 5.9183938,0.31564767 10.2585493,0.31564767 L226.477203,0.31564767 C231.211918,0.31564767 236.735752,3.07756478 236.735752,7.81227982 L236.735752,63.4451816 Z" id="path-2"></path>
        <filter x="-0.2%" y="-0.7%" width="100.8%" height="102.8%" filterUnits="objectBoundingBox" id="filter-3">
            <feOffset dx="1" dy="1" in="SourceAlpha" result="shadowOffsetOuter1"></feOffset>
            <feColorMatrix values="0 0 0 0 0   0 0 0 0 0   0 0 0 0 0  0 0 0 1 0" type="matrix" in="shadowOffsetOuter1"></feColorMatrix>
        </filter>
        <filter x="-0.2%" y="-0.7%" width="100.8%" height="102.8%" filterUnits="objectBoundingBox" id="filter-4">
            <feOffset dx="1" dy="1" in="SourceAlpha" result="shadowOffsetInner1"></feOffset>
            <feComposite in="shadowOffsetInner1" in2="SourceAlpha" operator="arithmetic" k2="-1" k3="1" result="shadowInnerInner1"></feComposite>
            <feColorMatrix values="0 0 0 0 1   0 0 0 0 1   0 0 0 0 1  0 0 0 0.621320199 0" type="matrix" in="shadowInnerInner1"></feColorMatrix>
        </filter>
        <path d="M3.94559587,26.1395726 C3.94559587,26.9286918 2.76191711,27.717811 1.97279793,27.717811 C1.18367876,28.1123706 0,27.3232514 0,26.1395726 L0,1.67687824 C0,0.887759071 1.18367876,0.0986398967 1.97279793,0.0986398967 C2.76191711,0.0986398967 3.94559587,0.887759071 3.94559587,1.67687824 L3.94559587,26.1395726 Z" id="path-5"></path>
        <filter x="-12.7%" y="-1.8%" width="125.3%" height="103.6%" filterUnits="objectBoundingBox" id="filter-6">
            <feOffset dx="1" dy="1" in="SourceAlpha" result="shadowOffsetInner1"></feOffset>
            <feComposite in="shadowOffsetInner1" in2="SourceAlpha" operator="arithmetic" k2="-1" k3="1" result="shadowInnerInner1"></feComposite>
            <feColorMatrix values="0 0 0 0 0.881988733   0 0 0 0 0.881988733   0 0 0 0 0.881988733  0 0 0 0.5 0" type="matrix" in="shadowInnerInner1"></feColorMatrix>
        </filter>
        <path d="M15.7823835,26.1395726 C15.7823835,26.9286918 14.5987047,27.717811 13.8095855,27.717811 C13.0204664,27.717811 11.8367876,26.9286918 11.8367876,26.1395726 L11.8367876,1.67687824 C11.8367876,0.887759071 13.0204664,0.0986398967 13.8095855,0.0986398967 C14.5987047,0.0986398967 15.7823835,0.887759071 15.7823835,1.67687824 L15.7823835,26.1395726 Z" id="path-7"></path>
        <filter x="-12.7%" y="-1.8%" width="125.3%" height="103.6%" filterUnits="objectBoundingBox" id="filter-8">
            <feOffset dx="1" dy="1" in="SourceAlpha" result="shadowOffsetInner1"></feOffset>
            <feComposite in="shadowOffsetInner1" in2="SourceAlpha" operator="arithmetic" k2="-1" k3="1" result="shadowInnerInner1"></feComposite>
            <feColorMatrix values="0 0 0 0 0.881988733   0 0 0 0 0.881988733   0 0 0 0 0.881988733  0 0 0 0.5 0" type="matrix" in="shadowInnerInner1"></feColorMatrix>
        </filter>
        <path d="M27.6191711,26.1395726 C27.6191711,26.9286918 26.4354923,27.717811 25.6463732,27.717811 C24.857254,27.717811 23.6735752,26.9286918 23.6735752,26.1395726 L23.6735752,1.67687824 C23.6735752,0.887759071 24.857254,0.0986398967 25.6463732,0.0986398967 C26.4354923,0.0986398967 27.6191711,0.887759071 27.6191711,1.67687824 L27.6191711,26.1395726 Z" id="path-9"></path>
        <filter x="-12.7%" y="-1.8%" width="125.3%" height="103.6%" filterUnits="objectBoundingBox" id="filter-10">
            <feOffset dx="1" dy="1" in="SourceAlpha" result="shadowOffsetInner1"></feOffset>
            <feComposite in="shadowOffsetInner1" in2="SourceAlpha" operator="arithmetic" k2="-1" k3="1" result="shadowInnerInner1"></feComposite>
            <feColorMatrix values="0 0 0 0 0.881988733   0 0 0 0 0.881988733   0 0 0 0 0.881988733  0 0 0 0.5 0" type="matrix" in="shadowInnerInner1"></feColorMatrix>
        </filter>
        <radialGradient cx="50%" cy="0%" fx="50%" fy="0%" r="98.3968569%" id="radialGradient-11">
            <stop stop-color="#6BFF7D" offset="0%"></stop>
            <stop stop-color="#3AE82A" offset="100%"></stop>
        </radialGradient>
        <radialGradient cx="50%" cy="0%" fx="50%" fy="0%" r="97.65625%" id="radialGradient-12">
            <stop stop-color="#F3E03B" offset="0%"></stop>
            <stop stop-color="#F68832" offset="100%"></stop>
        </radialGradient>
        <linearGradient x1="50%" y1="0%" x2="50%" y2="100%" id="linearGradient-13">
            <stop stop-color="#70E2F2" offset="0%"></stop>
            <stop stop-color="#5298FB" offset="100%"></stop>
        </linearGradient>
        <path d="M87.8168383,302.084555 C86.8949588,292.540108 78.8982723,285.051546 69.0533529,285.051546 C61.4355436,285.051546 54.9124515,289.544496 51.9063944,295.991309 C51.0012335,295.706771 50.0581614,295.510214 49.0583401,295.510214 C43.8275276,295.510214 39.5861756,299.727049 39.5861756,304.922922 C39.5861756,305.956246 39.7945698,306.933178 40.1039822,307.859801 C36.0352323,310.217306 33.2714777,314.547161 33.2714777,319.563091 C33.2714777,327.072478 39.3968547,333.159406 46.9536763,333.159406 L46.9536763,333.161512 L84.8404509,333.161512 L84.8404509,333.159406 C93.5612189,333.159406 100.62543,326.137432 100.62543,317.471404 C100.62543,309.821854 95.1104003,303.469341 87.8168383,302.084555 Z" id="path-14"></path>
        <filter x="-0.7%" y="-1.0%" width="101.5%" height="102.1%" filterUnits="objectBoundingBox" id="filter-15">
            <feOffset dx="0" dy="1" in="SourceAlpha" result="shadowOffsetInner1"></feOffset>
            <feComposite in="shadowOffsetInner1" in2="SourceAlpha" operator="arithmetic" k2="-1" k3="1" result="shadowInnerInner1"></feComposite>
            <feColorMatrix values="0 0 0 0 1   0 0 0 0 1   0 0 0 0 1  0 0 0 1 0" type="matrix" in="shadowInnerInner1"></feColorMatrix>
        </filter>
        <path d="M179.225773,302.084555 C178.303893,292.540108 170.307207,285.051546 160.462288,285.051546 C152.844478,285.051546 146.321386,289.544496 143.315329,295.991309 C142.410168,295.706771 141.467096,295.510214 140.467275,295.510214 C135.236462,295.510214 130.99511,299.727049 130.99511,304.922922 C130.99511,305.956246 131.203504,306.933178 131.512917,307.859801 C127.444167,310.217306 124.680412,314.547161 124.680412,319.563091 C124.680412,327.072478 130.805789,333.159406 138.362611,333.159406 L138.362611,333.161512 L176.249386,333.161512 L176.249386,333.159406 C184.970154,333.159406 192.034364,326.137432 192.034364,317.471404 C192.034364,309.821854 186.519335,303.469341 179.225773,302.084555 Z" id="path-16"></path>
        <filter x="-0.7%" y="-1.0%" width="101.5%" height="102.1%" filterUnits="objectBoundingBox" id="filter-17">
            <feOffset dx="0" dy="1" in="SourceAlpha" result="shadowOffsetInner1"></feOffset>
            <feComposite in="shadowOffsetInner1" in2="SourceAlpha" operator="arithmetic" k2="-1" k3="1" result="shadowInnerInner1"></feComposite>
            <feColorMatrix values="0 0 0 0 1   0 0 0 0 1   0 0 0 0 1  0 0 0 1 0" type="matrix" in="shadowInnerInner1"></feColorMatrix>
        </filter>
        <path d="M271.837457,302.084555 C270.915577,292.540108 262.918891,285.051546 253.073971,285.051546 C245.456162,285.051546 238.93307,289.544496 235.927013,295.991309 C235.021852,295.706771 234.07878,295.510214 233.078959,295.510214 C227.848146,295.510214 223.606794,299.727049 223.606794,304.922922 C223.606794,305.956246 223.815188,306.933178 224.124601,307.859801 C220.055851,310.217306 217.292096,314.547161 217.292096,319.563091 C217.292096,327.072478 223.417473,333.159406 230.974295,333.159406 L230.974295,333.161512 L268.861069,333.161512 L268.861069,333.159406 C277.581837,333.159406 284.646048,326.137432 284.646048,317.471404 C284.646048,309.821854 279.131019,303.469341 271.837457,302.084555 Z" id="path-18"></path>
        <filter x="-0.7%" y="-1.0%" width="101.5%" height="102.1%" filterUnits="objectBoundingBox" id="filter-19">
            <feOffset dx="0" dy="1" in="SourceAlpha" result="shadowOffsetInner1"></feOffset>
            <feComposite in="shadowOffsetInner1" in2="SourceAlpha" operator="arithmetic" k2="-1" k3="1" result="shadowInnerInner1"></feComposite>
            <feColorMatrix values="0 0 0 0 1   0 0 0 0 1   0 0 0 0 1  0 0 0 1 0" type="matrix" in="shadowInnerInner1"></feColorMatrix>
        </filter>
        <linearGradient x1="50%" y1="0%" x2="50%" y2="100%" id="linearGradient-20">
            <stop stop-color="#60C3F6" offset="0%"></stop>
            <stop stop-color="#3B77EB" offset="100%"></stop>
        </linearGradient>
        <circle id="path-21" cx="36.0824742" cy="36.0824742" r="36.0824742"></circle>
        <circle id="path-22" cx="18.0412371" cy="18.0412371" r="18.0412371"></circle>
        <linearGradient x1="11.4661734%" y1="15.1461538%" x2="88.5357401%" y2="84.8555769%" id="linearGradient-23">
            <stop stop-color="#E68CBC" offset="0%"></stop>
            <stop stop-color="#8366B3" offset="100%"></stop>
        </linearGradient>
        <circle id="path-24" cx="21.04811" cy="21.04811" r="21.04811"></circle>
        <circle id="path-25" cx="12.0274914" cy="12.0274914" r="12.0274914"></circle>
        <linearGradient x1="5.74650823%" y1="50%" x2="94.1212548%" y2="50%" id="linearGradient-26">
            <stop stop-color="#F5AB4E" offset="0%"></stop>
            <stop stop-color="#EF9021" offset="100%"></stop>
        </linearGradient>
        <linearGradient x1="2.99629697%" y1="50%" x2="98.3025228%" y2="50%" id="linearGradient-27">
            <stop stop-color="#FEDC7A" offset="0%"></stop>
            <stop stop-color="#EFAC21" offset="100%"></stop>
        </linearGradient>
        <linearGradient x1="-1.11022302e-14%" y1="50%" x2="100%" y2="50%" id="linearGradient-28">
            <stop stop-color="#FFFFFF" offset="0%"></stop>
            <stop stop-color="#F4F4F4" offset="100%"></stop>
        </linearGradient>
    </defs>
    <g id="Page-1" stroke="none" stroke-width="1" fill="none" fill-rule="evenodd">
        <g id="牛顿超级协议" transform="translate(-1061.000000, -3343.000000)">
            <rect id="Rectangle-17-Copy-2" fill="#FFFFFF" x="0" y="3273" width="1920" height="500"></rect>
            <g id="Group-4" transform="translate(1061.000000, 3341.000000)">
                <path d="M16,271.821306 L303.120275,271.821306 C310.852261,271.821306 317.120275,278.089319 317.120275,285.821306 L317.120275,336 C317.120275,343.731986 310.852261,350 303.120275,350 L16,350 C8.2680135,350 2,343.731986 2,336 L2,285.821306 C2,278.089319 8.2680135,271.821306 16,271.821306 Z" id="Rectangle-3" stroke="#DBDBDB" stroke-width="2.40549828" stroke-linecap="round" stroke-linejoin="round" stroke-dasharray="3.608247422680412,4.810996563573883"></path>
                <g id="server-(3)" transform="translate(40.487973, 156.357388)" fill-rule="nonzero">
                    <g id="Shape">
                        <use fill="black" fill-opacity="1" filter="url(#filter-3)" xlink:href="#path-2"></use>
                        <use fill="url(#linearGradient-1)" fill-rule="evenodd" xlink:href="#path-2"></use>
                        <use fill="black" fill-opacity="1" filter="url(#filter-4)" xlink:href="#path-2"></use>
                    </g>
                    <g id="Group" transform="translate(19.727979, 21.523225)">
                        <g id="Shape">
                            <use fill="#000000" fill-rule="evenodd" xlink:href="#path-5"></use>
                            <use fill="black" fill-opacity="1" filter="url(#filter-6)" xlink:href="#path-5"></use>
                        </g>
                        <g id="Shape">
                            <use fill="#000000" fill-rule="evenodd" xlink:href="#path-7"></use>
                            <use fill="black" fill-opacity="1" filter="url(#filter-8)" xlink:href="#path-7"></use>
                        </g>
                        <g id="Shape">
                            <use fill="#000000" fill-rule="evenodd" xlink:href="#path-9"></use>
                            <use fill="black" fill-opacity="1" filter="url(#filter-10)" xlink:href="#path-9"></use>
                        </g>
                    </g>
                    <g id="Group" transform="translate(172.853925, 25.408322)" fill="#1F1F1F">
                        <circle id="Oval" cx="10.2598645" cy="10.0231287" r="9.32311424"></circle>
                    </g>
                    <circle id="Oval" fill="url(#radialGradient-11)" cx="183.113789" cy="35.4314509" r="5.9183938"></circle>
                    <path d="M216.613213,35.4314509 C216.613213,38.5879276 213.851296,41.3498447 210.694819,41.3498447 C207.538343,41.3498447 204.776426,38.5879276 204.776426,35.4314509 C204.776426,32.2749742 207.538343,29.5130571 210.694819,29.5130571 C213.851296,29.5130571 216.613213,32.2749742 216.613213,35.4314509 Z" id="Shape" fill="url(#radialGradient-12)"></path>
                </g>
                <g id="Shape-Copy-2" fill-rule="nonzero">
                    <use fill="black" fill-opacity="1" filter="url(#filter-15)" xlink:href="#path-14"></use>
                    <path stroke="url(#linearGradient-13)" stroke-width="2.75446262" d="M48.3309076,331.784281 L83.4632196,331.784281 L83.4632196,331.782175 L84.8404509,331.782175 C92.8020685,331.782175 99.2481982,325.375319 99.2481982,317.471404 C99.2481982,310.583829 94.3040969,304.718088 87.5599408,303.437614 L86.5452795,303.244967 L86.4459866,302.216963 C85.5835242,293.287675 78.09847,286.428778 69.0533529,286.428778 C62.1605435,286.428778 56.0171871,290.434204 53.1546003,296.57333 L52.6446162,297.667046 L51.4933852,297.305154 C50.6098636,297.027418 49.8267854,296.887446 49.0583401,296.887446 C44.586996,296.887446 40.9634069,300.488846 40.9634069,304.922922 C40.9634069,305.723241 41.1145681,306.537914 41.4103107,307.423599 L41.7659168,308.488562 L40.7944448,309.05145 C37.0116688,311.243257 34.648709,315.19122 34.648709,319.563091 C34.648709,326.309906 40.155544,331.782175 46.9536763,331.782175 L48.3309076,331.782175 L48.3309076,331.784281 Z"></path>
                </g>
                <g id="Shape-Copy-3" fill-rule="nonzero">
                    <use fill="black" fill-opacity="1" filter="url(#filter-17)" xlink:href="#path-16"></use>
                    <path stroke="url(#linearGradient-13)" stroke-width="2.75446262" d="M139.739842,331.784281 L174.872154,331.784281 L174.872154,331.782175 L176.249386,331.782175 C184.211003,331.782175 190.657133,325.375319 190.657133,317.471404 C190.657133,310.583829 185.713032,304.718088 178.968876,303.437614 L177.954214,303.244967 L177.854921,302.216963 C176.992459,293.287675 169.507405,286.428778 160.462288,286.428778 C153.569478,286.428778 147.426122,290.434204 144.563535,296.57333 L144.053551,297.667046 L142.90232,297.305154 C142.018798,297.027418 141.23572,296.887446 140.467275,296.887446 C135.995931,296.887446 132.372342,300.488846 132.372342,304.922922 C132.372342,305.723241 132.523503,306.537914 132.819245,307.423599 L133.174852,308.488562 L132.203379,309.05145 C128.420603,311.243257 126.057644,315.19122 126.057644,319.563091 C126.057644,326.309906 131.564479,331.782175 138.362611,331.782175 L139.739842,331.782175 L139.739842,331.784281 Z"></path>
                </g>
                <g id="Shape-Copy-3" fill-rule="nonzero">
                    <use fill="black" fill-opacity="1" filter="url(#filter-19)" xlink:href="#path-18"></use>
                    <path stroke="url(#linearGradient-13)" stroke-width="2.75446262" d="M232.351526,331.784281 L267.483838,331.784281 L267.483838,331.782175 L268.861069,331.782175 C276.822687,331.782175 283.268817,325.375319 283.268817,317.471404 C283.268817,310.583829 278.324715,304.718088 271.580559,303.437614 L270.565898,303.244967 L270.466605,302.216963 C269.604143,293.287675 262.119089,286.428778 253.073971,286.428778 C246.181162,286.428778 240.037806,290.434204 237.175219,296.57333 L236.665235,297.667046 L235.514004,297.305154 C234.630482,297.027418 233.847404,296.887446 233.078959,296.887446 C228.607615,296.887446 224.984025,300.488846 224.984025,304.922922 C224.984025,305.723241 225.135187,306.537914 225.430929,307.423599 L225.786535,308.488562 L224.815063,309.05145 C221.032287,311.243257 218.669328,315.19122 218.669328,319.563091 C218.669328,326.309906 224.176163,331.782175 230.974295,331.782175 L232.351526,331.782175 L232.351526,331.784281 Z"></path>
                </g>
                <polygon id="Shape-Copy-9" fill="#DADADA" fill-rule="nonzero" transform="translate(250.909277, 256.125771) scale(-1, 1) rotate(-45.000000) translate(-250.909277, -256.125771) " points="244.752622 244.262453 244.752622 247.864918 256.647446 247.864918 239.043941 265.468465 241.567129 267.98909 259.168071 250.389534 259.168071 262.283014 262.774612 262.283014 262.774612 244.262453"></polygon>
                <polygon id="Shape-Copy-9" fill="#DADADA" fill-rule="nonzero" transform="translate(158.297593, 256.125771) scale(-1, 1) rotate(-45.000000) translate(-158.297593, -256.125771) " points="152.140938 244.262453 152.140938 247.864918 164.035762 247.864918 146.432257 265.468465 148.955445 267.98909 166.556387 250.389534 166.556387 262.283014 170.162928 262.283014 170.162928 244.262453"></polygon>
                <polygon id="Shape-Copy-9" fill="#DADADA" fill-rule="nonzero" transform="translate(66.888658, 256.125771) scale(-1, 1) rotate(-45.000000) translate(-66.888658, -256.125771) " points="60.7320033 244.262453 60.7320033 247.864918 72.6268278 247.864918 55.0233224 265.468465 57.5465103 267.98909 75.1474526 250.389534 75.1474526 262.283014 78.7539935 262.283014 78.7539935 244.262453"></polygon>
                <g id="Group-3-Copy" transform="translate(81.582913, 54.109054) rotate(-15.000000) translate(-81.582913, -54.109054) translate(45.082913, 17.609054)">
                    <g id="Oval-2">
                        <use fill="url(#linearGradient-20)" fill-rule="evenodd" xlink:href="#path-21"></use>
                        <circle stroke="#D1D1D1" stroke-width="1.28865979" cx="36.0824742" cy="36.0824742" r="36.7268041"></circle>
                        <circle stroke="#FFFFFF" stroke-width="3.43642612" cx="36.0824742" cy="36.0824742" r="34.3642612"></circle>
                    </g>
                    <text id="DAPP" font-family="SFProDisplay-Semibold, SF Pro Display" font-size="17.1821306" font-weight="500" fill="#FFFFFF">
                        <tspan x="14.604811" y="41.7731959">DAPP</tspan>
                    </text>
                </g>
                <g id="Group-3-Copy-4" opacity="0.200000003" transform="translate(169.743998, 70.083845) rotate(-15.000000) translate(-169.743998, -70.083845) translate(151.243998, 51.583845)">
                    <g id="Oval-2">
                        <use fill="url(#linearGradient-20)" fill-rule="evenodd" xlink:href="#path-22"></use>
                        <circle stroke="#D1D1D1" stroke-width="0.644329897" cx="18.0412371" cy="18.0412371" r="18.3634021"></circle>
                        <circle stroke="#FFFFFF" stroke-width="1.71821306" cx="18.0412371" cy="18.0412371" r="17.1821306"></circle>
                    </g>
                    <text id="DAPP" font-family="SFProDisplay-Semibold, SF Pro Display" font-size="8.59106529" font-weight="500" fill="#FFFFFF">
                        <tspan x="7.3024055" y="21.0865624">DAPP</tspan>
                    </text>
                </g>
                <g id="Group-3-Copy-2" transform="translate(195.340406, 115.800781) rotate(-315.000000) translate(-195.340406, -115.800781) translate(173.840406, 94.300781)">
                    <g id="Oval-2">
                        <use fill="url(#linearGradient-23)" fill-rule="evenodd" xlink:href="#path-24"></use>
                        <circle stroke="#D1D1D1" stroke-width="1.8943299" cx="21.04811" cy="21.04811" r="21.9952749"></circle>
                        <use stroke="#FFFFFF" stroke-width="2.104811" xlink:href="#path-24"></use>
                    </g>
                    <text id="SDK" font-family="SFProDisplay-Semibold, SF Pro Display" font-size="10.524055" font-weight="500" fill="#FFFFFF">
                        <tspan x="11.4961253" y="23.9819588">SDK</tspan>
                    </text>
                </g>
                <g id="Group-3-Copy-3" opacity="0.300000012" transform="translate(53.889167, 111.492103) rotate(-315.000000) translate(-53.889167, -111.492103) translate(41.389167, 98.992103)">
                    <g id="Oval-2">
                        <use fill="url(#linearGradient-23)" fill-rule="evenodd" xlink:href="#path-25"></use>
                        <circle stroke="#D1D1D1" stroke-width="1.08247423" cx="12.0274914" cy="12.0274914" r="12.5687285"></circle>
                        <use stroke="#FFFFFF" stroke-width="1.20274914" xlink:href="#path-25"></use>
                    </g>
                    <text id="SDK" font-family="SFProDisplay-Semibold, SF Pro Display" font-size="6.0137457" font-weight="500" fill="#FFFFFF">
                        <tspan x="6.56921448" y="13.9896907">SDK</tspan>
                    </text>
                </g>
                <g id="folder" transform="translate(249.947499, 41.074647) rotate(-330.000000) translate(-249.947499, -41.074647) translate(219.878771, 11.005918)" fill-rule="nonzero">
                    <path d="M56.3378958,8.77168303 L56.3378958,23.9178167 L3.76470065,23.9178167 L3.76470065,2.51295505 C3.76470065,1.13602292 4.8912597,0.00946386276 6.26819184,0.00946386276 L21.4143255,0.00946386276 C22.7912576,0.00946386276 23.9178167,1.13602292 23.9178167,2.51295505 L23.9178167,6.26819184 L53.8345244,6.26819184 C55.2113368,6.26819184 56.3378958,7.39475089 56.3378958,8.77168303 Z" id="Shape" fill="url(#linearGradient-26)"></path>
                    <path d="M57.5896414,23.9178167 L2.51295505,23.9178167 C1.01083638,23.9178167 -0.115722676,25.1695623 0.00946386276,26.671681 L3.63951411,57.7149478 C3.76470065,59.0918799 4.76607316,60.0932524 6.1430053,60.0932524 L53.9595912,60.0932524 C55.3365233,60.0932524 56.3378958,59.0918799 56.4630824,57.7149478 L60.0931326,26.671681 C60.2183192,25.2947488 59.0917601,23.9178167 57.5896414,23.9178167 Z" id="Shape" fill="url(#linearGradient-27)"></path>
                    <rect id="Rectangle-path" fill="#F2F2F2" x="6.89412453" y="10.0234286" width="46.3144672" height="13.8943881"></rect>
                    <g id="Group" transform="translate(9.943046, 12.818143)" fill="#D5D5D5">
                        <rect id="Rectangle-path" x="0.0803829356" y="0.0843361947" width="40.0557392" height="3.12930409"></rect>
                        <rect id="Rectangle-path" x="0.0803829356" y="5.84231801" width="40.0557392" height="3.12930409"></rect>
                    </g>
                    <path d="M38.4044609,49.4865461 L34.0691176,47.3188744 C33.5090449,47.0388381 33.1550282,46.4660572 33.1550282,45.8397199 L33.1550282,44.1386241 C33.2766647,44.0001945 33.4164559,43.8218245 33.5653245,43.61123 C34.1562601,42.7770213 34.6028658,41.8588472 34.9128574,40.8952863 C35.4688452,40.7241782 35.8782338,40.2104001 35.8782338,39.5999481 L35.8782338,37.7844777 C35.8782338,37.3850742 35.7007716,37.0278804 35.4243662,36.7782533 L35.4243662,34.1535369 C35.4243662,34.1535369 35.963107,30.0687285 30.4318226,30.0687285 C24.9000843,30.0687285 25.439279,34.1535369 25.439279,34.1535369 L25.439279,36.7782533 C25.1628736,37.0278804 24.9854114,37.3850742 24.9854114,37.7844777 L24.9854114,39.5999481 C24.9854114,40.0783246 25.236854,40.4990598 25.6131103,40.7423329 C26.066524,42.7175647 27.2547494,44.1386241 27.2547494,44.1386241 L27.2547494,45.7975102 C27.2547494,46.4025157 26.9243338,46.9594113 26.3928548,47.2489788 L22.343902,49.4579524 C21.1742852,50.0956364 20.4467354,51.3215328 20.4467354,52.6536342 L20.4467354,54.1237113 L40.4169098,54.1237113 L40.4169098,52.7425922 C40.4169098,51.3637425 39.6376191,50.1033521 38.4044609,49.4865461 Z" id="Shape" fill="url(#linearGradient-28)"></path>
                </g>
                <g id="folder-copy" opacity="0.400000006" transform="translate(118.666667, 120.274914) rotate(-15.000000) translate(-118.666667, -120.274914) translate(100.625430, 102.233677)" fill-rule="nonzero">
                    <path d="M33.8027375,5.26300982 L33.8027375,14.35069 L2.25882039,14.35069 L2.25882039,1.50777303 C2.25882039,0.681613751 2.93475582,0.00567831766 3.7609151,0.00567831766 L12.8485953,0.00567831766 C13.6747546,0.00567831766 14.35069,0.681613751 14.35069,1.50777303 L14.35069,3.7609151 L32.3007147,3.7609151 C33.1268021,3.7609151 33.8027375,4.43685054 33.8027375,5.26300982 Z" id="Shape" fill="url(#linearGradient-26)"></path>
                    <path d="M34.5537849,14.35069 L1.50777303,14.35069 C0.606501828,14.35069 -0.0694336058,15.1017374 0.00567831766,16.0030086 L2.18370847,34.6289687 C2.25882039,35.4551279 2.8596439,36.0559515 3.68580318,36.0559515 L32.3757547,36.0559515 C33.201914,36.0559515 33.8027375,35.4551279 33.8778494,34.6289687 L36.0558796,16.0030086 C36.1309915,15.1768493 35.4550561,14.35069 34.5537849,14.35069 Z" id="Shape" fill="url(#linearGradient-27)"></path>
                    <rect id="Rectangle-path" fill="#F2F2F2" x="4.13647472" y="6.01405717" width="27.7886803" height="8.33663285"></rect>
                    <g id="Group" transform="translate(5.965827, 7.690886)" fill="#D5D5D5">
                        <rect id="Rectangle-path" x="0.0482297614" y="0.0506017168" width="24.0334435" height="1.87758245"></rect>
                        <rect id="Rectangle-path" x="0.0482297614" y="3.50539081" width="24.0334435" height="1.87758245"></rect>
                    </g>
                </g>
                <text id="NNIO" font-family="SFProDisplay-Regular, SF Pro Display" font-size="24.0549828" font-weight="normal" line-spacing="31.2714777" fill="#FFFFFF">
                    <tspan x="104.233677" y="199.804124">NNIO</tspan>
                </text>
            </g>
        </g>
    </g>
</svg>