<?xml version="1.0" encoding="utf-8"?>
<!-- Generator: Adobe Illustrator 22.1.0, SVG Export Plug-In . SVG Version: 6.00 Build 0)  -->
<svg version="1.1" id="图层_1" xmlns="http://www.w3.org/2000/svg" xmlns:xlink="http://www.w3.org/1999/xlink" x="0px" y="0px"
	 viewBox="0 0 86.7 86.7" style="enable-background:new 0 0 86.7 86.7;" xml:space="preserve">
<g>
	<g>
		<polygon points="41.6,63.1 26.3,47.8 29.1,44.9 41,56.8 41,21.2 45,21.2 45,56.8 56.9,44.9 59.7,47.8 44.4,63.1 43,64.4 		"/>
		<path d="M43,84.6C19.9,84.6,1.1,66,1.1,43.1S19.9,1.6,43,1.6s41.9,18.6,41.9,41.5S66.1,84.6,43,84.6z M43,5.6
			C22.1,5.6,5.1,22.4,5.1,43c0,20.7,17,37.5,37.9,37.5s37.9-16.7,37.9-37.4S63.9,5.6,43,5.6z"/>
	</g>
</g>
</svg>
