<?xml version="1.0" encoding="utf-8"?>
<!-- Generator: Adobe Illustrator 16.0.0, SVG Export Plug-In . SVG Version: 6.00 Build 0)  -->
<!DOCTYPE svg PUBLIC "-//W3C//DTD SVG 1.1//EN" "http://www.w3.org/Graphics/SVG/1.1/DTD/svg11.dtd">
<svg version="1.1" id="层_1" xmlns="http://www.w3.org/2000/svg" xmlns:xlink="http://www.w3.org/1999/xlink" x="0px" y="0px"
	 width="627.45px" height="319.05px" viewBox="0 0 627.45 319.05" enable-background="new 0 0 627.45 319.05" xml:space="preserve">
<g>
	
		<line fill-rule="evenodd" clip-rule="evenodd" fill="none" stroke="#E8E9EA" stroke-linecap="square" stroke-miterlimit="10" x1="0" y1="169.75" x2="313.72" y2="309.8"/>
	
		<line fill-rule="evenodd" clip-rule="evenodd" fill="none" stroke="#E8E9EA" stroke-linecap="square" stroke-miterlimit="10" x1="16.22" y1="126.66" x2="393.72" y2="303.1"/>
	
		<line fill-rule="evenodd" clip-rule="evenodd" fill="none" stroke="#E8E9EA" stroke-linecap="square" stroke-miterlimit="10" x1="61.27" y1="100.87" x2="438.77" y2="277.31"/>
	
		<line fill-rule="evenodd" clip-rule="evenodd" fill="none" stroke="#E8E9EA" stroke-linecap="square" stroke-miterlimit="10" x1="103.48" y1="74.51" x2="482.97" y2="252.57"/>
	
		<line fill-rule="evenodd" clip-rule="evenodd" fill="none" stroke="#E8E9EA" stroke-linecap="square" stroke-miterlimit="10" x1="145.68" y1="49.29" x2="525.14" y2="227.24"/>
	
		<line fill-rule="evenodd" clip-rule="evenodd" fill="none" stroke="#E8E9EA" stroke-linecap="square" stroke-miterlimit="10" x1="187.72" y1="25.11" x2="568.2" y2="203.51"/>
	
		<line fill-rule="evenodd" clip-rule="evenodd" fill="none" stroke="#E8E9EA" stroke-linecap="square" stroke-miterlimit="10" x1="228.95" y1="0" x2="610.56" y2="178.84"/>
	
		<line fill-rule="evenodd" clip-rule="evenodd" fill="none" stroke="#E8E9EA" stroke-linecap="square" stroke-miterlimit="10" x1="627.45" y1="163.67" x2="285.78" y2="319.05"/>
	
		<line fill-rule="evenodd" clip-rule="evenodd" fill="none" stroke="#E8E9EA" stroke-linecap="square" stroke-miterlimit="10" x1="582.12" y1="138.66" x2="205.93" y2="312.17"/>
	
		<line fill-rule="evenodd" clip-rule="evenodd" fill="none" stroke="#E8E9EA" stroke-linecap="square" stroke-miterlimit="10" x1="537.06" y1="112.87" x2="161.45" y2="286.96"/>
	
		<line fill-rule="evenodd" clip-rule="evenodd" fill="none" stroke="#E8E9EA" stroke-linecap="square" stroke-miterlimit="10" x1="494.86" y1="86.51" x2="116.37" y2="262.57"/>
	
		<line fill-rule="evenodd" clip-rule="evenodd" fill="none" stroke="#E8E9EA" stroke-linecap="square" stroke-miterlimit="10" x1="452.66" y1="61.86" x2="74.17" y2="237.2"/>
	
		<line fill-rule="evenodd" clip-rule="evenodd" fill="none" stroke="#E8E9EA" stroke-linecap="square" stroke-miterlimit="10" x1="411.23" y1="36.6" x2="31.76" y2="212.93"/>
	
		<line fill-rule="evenodd" clip-rule="evenodd" fill="none" stroke="#E8E9EA" stroke-linecap="square" stroke-miterlimit="10" x1="368.53" y1="11.8" x2="18.56" y2="171.67"/>
</g>
<polygon fill-rule="evenodd" clip-rule="evenodd" fill="none" stroke="#4969B5" stroke-linecap="round" stroke-linejoin="round" stroke-miterlimit="10" points="
	28.32,150.94 63.56,167.9 100.76,150.29 62.89,130.2 "/>
<g>
	<polygon fill-rule="evenodd" clip-rule="evenodd" fill="#CCD3EB" points="38.56,125.515 63.54,139.084 89.56,125.084 
		63.38,113.084 	"/>
	<polygon fill-rule="evenodd" clip-rule="evenodd" fill="#B1C3F6" points="38.56,125.23 63.56,139.23 63.56,159.8 38.56,145.97 	"/>
	<polygon fill-rule="evenodd" clip-rule="evenodd" fill="#96B2F9" points="89.56,124.8 63.56,138.79 63.56,159.8 89.56,145.81 	"/>
	
		<line opacity="0.5" fill-rule="evenodd" clip-rule="evenodd" fill="none" stroke="#FFFFFF" stroke-linecap="round" stroke-linejoin="round" stroke-miterlimit="10" x1="38.955" y1="125.594" x2="62.985" y2="138.944"/>
	
		<line opacity="0.5" fill-rule="evenodd" clip-rule="evenodd" fill="none" stroke="#FFFFFF" stroke-linecap="square" stroke-linejoin="round" stroke-miterlimit="10" x1="89.282" y1="124.95" x2="63.54" y2="138.8"/>
	
		<line opacity="0.5" fill-rule="evenodd" clip-rule="evenodd" fill="none" stroke="#E4E8F6" stroke-linecap="square" stroke-linejoin="round" stroke-miterlimit="10" x1="63.54" y1="139.126" x2="63.54" y2="159.281"/>
</g>
<g>
	
		<line fill-rule="evenodd" clip-rule="evenodd" fill="none" stroke="#17B599" stroke-linecap="round" stroke-linejoin="round" stroke-miterlimit="10" x1="41.37" y1="88.07" x2="64.06" y2="98.44"/>
	
		<line fill-rule="evenodd" clip-rule="evenodd" fill="none" stroke="#17B599" stroke-linecap="round" stroke-linejoin="round" stroke-miterlimit="10" x1="64.06" y1="98.44" x2="86.75" y2="87.53"/>
	
		<line fill-rule="evenodd" clip-rule="evenodd" fill="none" stroke="#17B599" stroke-linecap="round" stroke-linejoin="round" stroke-miterlimit="10" x1="41.37" y1="92.44" x2="64.06" y2="102.8"/>
	
		<line fill-rule="evenodd" clip-rule="evenodd" fill="none" stroke="#17B599" stroke-linecap="round" stroke-linejoin="round" stroke-miterlimit="10" x1="64.06" y1="102.8" x2="86.75" y2="91.89"/>
	<path fill-rule="evenodd" clip-rule="evenodd" fill="#19C5A6" d="M65.47,70.34L86.92,81.5c0.85,0.86,0.85,1.5,0,2.36l-21.5,10.53
		c-1.1,0.61-2.01,0.72-3.08,0L41.23,84.23c-0.85-0.86-0.91-2.25-0.07-3.11l21.23-10.78C63.47,69.61,64.57,69.63,65.47,70.34z"/>
	<path fill-rule="evenodd" clip-rule="evenodd" fill="#FFFFFF" d="M71.54,77.44l-11.22,5.71h-1.07l-2.67-1.96h-0.35v0.89
		c0,0,1.72,5.13,2.49,5.17c0.77,0.05,13.71-8.39,13.71-8.39L71.54,77.44z"/>
</g>
<g display="none">
	<polygon display="inline" opacity="0.2" fill-rule="evenodd" clip-rule="evenodd" fill="#002CAE" points="62.56,96.8 26.56,115.26 
		26.56,149.88 62.56,166.8 	"/>
	<polygon display="inline" opacity="0.3" fill-rule="evenodd" clip-rule="evenodd" fill="#002CAE" points="62.56,96.8 99.56,115.26 
		99.56,149.88 62.56,166.8 	"/>
</g>
<polygon fill-rule="evenodd" clip-rule="evenodd" fill="none" stroke="#7E94CA" stroke-width="2" stroke-linecap="round" stroke-linejoin="round" stroke-miterlimit="10" points="
	163.56,194.8 258.02,242.15 360.13,195.06 262.46,150.19 "/>
<g>
	
		<polyline fill-rule="evenodd" clip-rule="evenodd" fill="none" stroke="#7E94CA" stroke-width="2" stroke-linecap="round" stroke-linejoin="round" stroke-miterlimit="10" points="
		309.81,218.25 359.19,241 505.74,174.56 455.31,151 	"/>
	<polygon fill-rule="evenodd" clip-rule="evenodd" fill="#7E94CA" points="448.83,146.46 459.68,158.41 471.01,151.73 	"/>
</g>
<g>
	
		<polyline fill-rule="evenodd" clip-rule="evenodd" fill="none" stroke="#4969B5" stroke-width="2" stroke-linecap="round" stroke-linejoin="round" stroke-miterlimit="10" points="
		210.79,169.69 168.12,150.54 118.34,173.28 85.37,157.79 	"/>
	<polygon fill-rule="evenodd" clip-rule="evenodd" fill="#7E94CA" points="197.79,165.04 187.44,154.15 176.12,160.83 	"/>
</g>
<g>
	<polygon fill-rule="evenodd" clip-rule="evenodd" fill="#F4F4F4" points="191.6,158.42 258.01,191.1 324.52,161.02 255.69,128.96 	
		"/>
	<polygon fill-rule="evenodd" clip-rule="evenodd" fill="#D2D2D2" points="191.63,158.17 257.56,190.26 257.56,225.8 191.63,192.71 
			"/>
	<polygon fill-rule="evenodd" clip-rule="evenodd" fill="#A1A1A1" points="324.47,160.55 257.56,191.26 257.56,225.8 324.47,195.08 
			"/>
	
		<line fill-rule="evenodd" clip-rule="evenodd" fill="none" stroke="#FFFFFF" stroke-linecap="square" stroke-linejoin="round" stroke-miterlimit="10" x1="191.87" y1="158.37" x2="257.88" y2="190.35"/>
	
		<line fill-rule="evenodd" clip-rule="evenodd" fill="none" stroke="#FFFFFF" stroke-linecap="square" stroke-linejoin="round" stroke-miterlimit="10" x1="323.71" y1="161.08" x2="257.91" y2="190.38"/>
	
		<line fill-rule="evenodd" clip-rule="evenodd" fill="none" stroke="#EBEBEC" stroke-linecap="square" stroke-linejoin="round" stroke-miterlimit="10" x1="258.09" y1="191.36" x2="258.09" y2="225.14"/>
	<path fill-rule="evenodd" clip-rule="evenodd" fill="#D2D2D2" d="M265.48,144.11l28.57,12.32c3.91,2.04,3.17,5.72-1.66,8.22
		l-25.44,11.57c-8.97,4.62-8.86,4.62-15.85,0.84l-29.03-13.4c-3.91-2.03-3.17-5.71,1.66-8.21l25.9-10.5
		C254.46,142.45,261.56,142.08,265.48,144.11z"/>
</g>
<g>
	<path fill-rule="evenodd" clip-rule="evenodd" fill="#DFE0F0" d="M261.02,19.01l-46.81,17.98c0,0-2.83,35.87,3.33,57.98
		c8.89,31.92,43.48,38.83,43.48,38.83V19.01z"/>
	<path fill-rule="evenodd" clip-rule="evenodd" fill="#C6C7E5" d="M261.1,18.8l46.81,17.98c0,0,2.83,35.87-3.33,57.98
		c-8.89,31.92-43.48,38.83-43.48,38.83V18.8z"/>
	<path fill-rule="evenodd" clip-rule="evenodd" fill="#9FAFEB" d="M260.99,27.94l-37.27,14.12c0,0-2.56,30.51,1.71,49.49
		c6.12,27.3,35.56,33.29,35.56,33.29V27.94z"/>
	<path fill-rule="evenodd" clip-rule="evenodd" fill="#788EE3" d="M261.05,27.76l37.7,15.58c0,0,1.07,30.93-3.41,49.71
		c-6.48,27.21-34.29,31.61-34.29,31.61V27.76z"/>
	
		<polygon fill-rule="evenodd" clip-rule="evenodd" fill="none" stroke="#FFFFFF" stroke-width="2" stroke-linecap="round" stroke-linejoin="round" stroke-miterlimit="10" points="
		245.56,73.44 260.78,85.8 282.56,66.21 275.66,60.8 259.97,74.88 251.59,67.9 	"/>
</g>
<g>
	
		<polygon fill-rule="evenodd" clip-rule="evenodd" fill="none" stroke="#A6B4D9" stroke-linecap="round" stroke-linejoin="round" stroke-miterlimit="10" points="
		394.32,137.94 429.56,154.9 466.76,137.29 430.34,120.61 	"/>
	<g>
		<polygon fill-rule="evenodd" clip-rule="evenodd" fill="#CCD3EB" points="405.56,96.8 430.54,110.8 456.56,96.8 430.56,84.8 		"/>
		<polygon fill-rule="evenodd" clip-rule="evenodd" fill="#B1C3F6" points="405.56,96.8 430.56,110.23 430.56,140.8 405.56,126.97 
					"/>
		<polygon fill-rule="evenodd" clip-rule="evenodd" fill="#96B2F9" points="456.56,96.8 430.56,110.79 430.56,140.8 456.56,126.81 
					"/>
		
			<line opacity="0.5" fill-rule="evenodd" clip-rule="evenodd" fill="none" stroke="#FFFFFF" stroke-linecap="round" stroke-linejoin="round" stroke-miterlimit="10" x1="406.045" y1="97.17" x2="430.075" y2="110.52"/>
		
			<line opacity="0.5" fill-rule="evenodd" clip-rule="evenodd" fill="none" stroke="#FFFFFF" stroke-linecap="square" stroke-linejoin="round" stroke-miterlimit="10" x1="456.174" y1="97.008" x2="430.56" y2="110.23"/>
		
			<line opacity="0.5" fill-rule="evenodd" clip-rule="evenodd" fill="none" stroke="#E4E8F6" stroke-linecap="square" stroke-linejoin="round" stroke-miterlimit="10" x1="430.3" y1="110.327" x2="430.3" y2="139.24"/>
	</g>
	<g>
		<polygon opacity="0.2" fill-rule="evenodd" clip-rule="evenodd" fill="#002CAE" points="430.56,74.8 394.56,93.26 394.56,137.88 
			430.56,154.8 		"/>
		<polygon opacity="0.3" fill-rule="evenodd" clip-rule="evenodd" fill="#002CAE" points="430.56,74.8 467.56,93.26 467.56,137.88 
			430.56,154.8 		"/>
	</g>
</g>
<g>
	<path fill-rule="evenodd" clip-rule="evenodd" fill="#336290" d="M440.24,46.53c-0.66-2.65-1.04-5.43,0.29-6.51
		c0.42-0.35,1.83-0.15,2.4-0.21c2.35-0.22,4.97,2.42,5.84,5.9c0.87,3.49-0.06,6.03-2.19,6.83c-1.73,0.64-2.56,0.52-3.06,0.33
		C441.65,52.17,440.93,49.28,440.24,46.53z"/>
	<path fill-rule="evenodd" clip-rule="evenodd" fill="#336290" d="M436.45,63.8v-8.61c0,0-0.43-2.32,1.1-3.04
		c1.53-0.73,3.33,0.16,3.33,0.16l7.68,3.65c0,0,1.91,1.54,2.75,2.65c0.96,1.26,1.25,3.66,1.25,3.66v9.22l-1.92,0.3L436.45,63.8z"/>
	<path fill-rule="evenodd" clip-rule="evenodd" fill="#5F82A5" d="M438.35,46.84c-0.87-3.49,0.33-6.49,2.68-6.72
		c2.36-0.22,4.97,2.42,5.85,5.9c0.87,3.48-0.33,6.49-2.69,6.72C441.84,52.96,439.22,50.32,438.35,46.84z"/>
	<path fill-rule="evenodd" clip-rule="evenodd" fill="#577A9D" d="M434.56,64.11V55.5c0,0,0.28-2.04,1.81-2.77
		c1.53-0.72,2.61-0.11,2.61-0.11l7.69,3.65c0,0,1.9,1.54,2.75,2.65c0.96,1.26,1.07,3.7,1.07,3.7v9.22L434.56,64.11z"/>
</g>
<g>
	<path fill-rule="evenodd" clip-rule="evenodd" fill="#CA9800" d="M427.24,49.53c-0.66-2.65-1.04-5.43,0.29-6.51
		c0.42-0.35,1.83-0.15,2.4-0.21c2.35-0.22,4.97,2.42,5.84,5.9c0.87,3.49-0.06,6.03-2.19,6.83c-1.73,0.64-2.56,0.52-3.06,0.33
		C428.65,55.17,427.93,52.28,427.24,49.53z"/>
	<path fill-rule="evenodd" clip-rule="evenodd" fill="#CA9800" d="M423.45,66.8v-8.61c0,0-0.43-2.32,1.1-3.04
		c1.53-0.73,3.33,0.16,3.33,0.16l7.68,3.65c0,0,1.91,1.54,2.75,2.65c0.96,1.26,1.25,3.66,1.25,3.66v9.22l-1.92,0.3L423.45,66.8z"/>
	<path fill-rule="evenodd" clip-rule="evenodd" fill="#F2B600" d="M425.35,49.84c-0.87-3.49,0.33-6.49,2.68-6.72
		c2.36-0.22,4.97,2.42,5.85,5.9c0.87,3.48-0.33,6.49-2.69,6.72C428.84,55.96,426.22,53.32,425.35,49.84z"/>
	<path fill-rule="evenodd" clip-rule="evenodd" fill="#F2B600" d="M421.56,67.11V58.5c0,0,0.28-2.04,1.81-2.77
		c1.53-0.72,2.61-0.11,2.61-0.11l7.69,3.65c0,0,1.9,1.54,2.75,2.65c0.96,1.26,1.08,3.61,1.08,3.61v9.23L421.56,67.11z"/>
</g>
<g>
	<path fill-rule="evenodd" clip-rule="evenodd" fill="#5D5FCE" d="M413.24,46.53c-0.66-2.65-1.04-5.43,0.29-6.51
		c0.42-0.35,1.83-0.15,2.4-0.21c2.35-0.22,4.97,2.42,5.84,5.9c0.87,3.49-0.06,6.03-2.19,6.83c-1.73,0.64-2.56,0.52-3.06,0.33
		C414.65,52.17,413.93,49.28,413.24,46.53z"/>
	<path fill-rule="evenodd" clip-rule="evenodd" fill="#5D5FCE" d="M409.45,63.8v-8.61c0,0-0.43-2.32,1.1-3.04
		c1.53-0.73,3.33,0.16,3.33,0.16l7.68,3.65c0,0,1.91,1.54,2.75,2.65c0.96,1.26,1.25,3.66,1.25,3.66v9.22l-1.92,0.3L409.45,63.8z"/>
	<path fill-rule="evenodd" clip-rule="evenodd" fill="#BABDEA" d="M411.35,46.84c-0.87-3.49,0.33-6.49,2.68-6.72
		c2.36-0.22,4.97,2.42,5.85,5.9c0.87,3.48-0.33,6.49-2.69,6.72C414.84,52.96,412.22,50.32,411.35,46.84z"/>
	<path fill-rule="evenodd" clip-rule="evenodd" fill="#BABDEA" d="M407.56,64.11V55.5c0,0,0.28-2.04,1.81-2.77
		c1.53-0.72,2.61-0.11,2.61-0.11l7.69,3.65c0,0,1.9,1.54,2.75,2.65c0.96,1.26,1.13,3.57,1.13,3.57v9.23L407.56,64.11z"/>
</g>
<g>
	<linearGradient id="SVGID_1_" gradientUnits="userSpaceOnUse" x1="445.0103" y1="106.7998" x2="445.0103" y2="50.0898">
		<stop  offset="0" style="stop-color:#007FFF;stop-opacity:0.4"/>
		<stop  offset="1" style="stop-color:#BFFFFF;stop-opacity:0"/>
	</linearGradient>
	<polygon fill-rule="evenodd" clip-rule="evenodd" fill="url(#SVGID_1_)" points="424.43,50.09 465.59,60.65 446.03,98.82 
		429.84,106.8 	"/>
	<linearGradient id="SVGID_2_" gradientUnits="userSpaceOnUse" x1="433.5601" y1="98.8198" x2="433.5601" y2="44.7998">
		<stop  offset="0" style="stop-color:#007FFF;stop-opacity:0.4"/>
		<stop  offset="1" style="stop-color:#BFFFFF;stop-opacity:0"/>
	</linearGradient>
	<polygon fill-rule="evenodd" clip-rule="evenodd" fill="url(#SVGID_2_)" points="397.56,44.8 469.56,48.84 446.03,98.82 
		413.68,98.25 	"/>
	<linearGradient id="SVGID_3_" gradientUnits="userSpaceOnUse" x1="414.1753" y1="106.7397" x2="414.1753" y2="52.0498">
		<stop  offset="0" style="stop-color:#007FFF;stop-opacity:0.4"/>
		<stop  offset="1" style="stop-color:#BFFFFF;stop-opacity:0"/>
	</linearGradient>
	<polygon fill-rule="evenodd" clip-rule="evenodd" fill="url(#SVGID_3_)" points="398.57,52.05 424.98,58.91 429.78,106.74 
		413.5,98.54 	"/>
</g>
<g>
	<linearGradient id="SVGID_4_" gradientUnits="userSpaceOnUse" x1="78.9297" y1="133.7998" x2="78.9297" y2="77.0898">
		<stop  offset="0" style="stop-color:#007FFF;stop-opacity:0.4"/>
		<stop  offset="1" style="stop-color:#BFFFFF;stop-opacity:0"/>
	</linearGradient>
	<polygon fill-rule="evenodd" clip-rule="evenodd" fill="url(#SVGID_4_)" points="58.35,77.09 99.509,87.65 79.95,125.82 
		63.76,133.8 	"/>
	<linearGradient id="SVGID_5_" gradientUnits="userSpaceOnUse" x1="67.48" y1="125.8198" x2="67.48" y2="71.7998">
		<stop  offset="0" style="stop-color:#007FFF;stop-opacity:0.4"/>
		<stop  offset="1" style="stop-color:#BFFFFF;stop-opacity:0"/>
	</linearGradient>
	<polygon fill-rule="evenodd" clip-rule="evenodd" fill="url(#SVGID_5_)" points="31.48,71.8 103.48,75.84 79.95,125.82 
		47.6,125.25 	"/>
	<linearGradient id="SVGID_6_" gradientUnits="userSpaceOnUse" x1="48.0947" y1="133.7397" x2="48.0947" y2="79.0498">
		<stop  offset="0" style="stop-color:#007FFF;stop-opacity:0.4"/>
		<stop  offset="1" style="stop-color:#BFFFFF;stop-opacity:0"/>
	</linearGradient>
	<polygon fill-rule="evenodd" clip-rule="evenodd" fill="url(#SVGID_6_)" points="32.49,79.05 58.9,85.91 63.7,133.74 47.42,125.54 
			"/>
</g>
<g>
	<linearGradient id="SVGID_7_" gradientUnits="userSpaceOnUse" x1="290.7388" y1="181.0527" x2="290.7388" y2="61.6909">
		<stop  offset="0" style="stop-color:#CAE4F3;stop-opacity:0.6"/>
		<stop  offset="1" style="stop-color:#BFFFFF;stop-opacity:0"/>
	</linearGradient>
	<polygon fill-rule="evenodd" clip-rule="evenodd" fill="url(#SVGID_7_)" points="250.576,61.691 330.901,72.637 295.453,163.064 
		258.788,181.053 	"/>
	<linearGradient id="SVGID_8_" gradientUnits="userSpaceOnUse" x1="260.7495" y1="161.9102" x2="260.7495" y2="49.29">
		<stop  offset="0" style="stop-color:#CAE4F3;stop-opacity:0.6"/>
		<stop  offset="1" style="stop-color:#BFFFFF;stop-opacity:0"/>
	</linearGradient>
	<polygon fill-rule="evenodd" clip-rule="evenodd" fill="url(#SVGID_8_)" points="177.511,49.29 343.988,49.409 295.797,161.91 
		219.474,159.914 	"/>
	<linearGradient id="SVGID_9_" gradientUnits="userSpaceOnUse" x1="225.6528" y1="180.936" x2="225.6528" y2="53.0083">
		<stop  offset="0" style="stop-color:#CAE4F3;stop-opacity:0.6"/>
		<stop  offset="1" style="stop-color:#BFFFFF;stop-opacity:0"/>
	</linearGradient>
	<polygon fill-rule="evenodd" clip-rule="evenodd" fill="url(#SVGID_9_)" points="192.607,53.008 251.418,80.247 258.698,180.936 
		220.09,162.755 	"/>
</g>
</svg>
