<?xml version="1.0" encoding="utf-8"?>
<!-- Generator: Adobe Illustrator 16.0.0, SVG Export Plug-In . SVG Version: 6.00 Build 0)  -->
<!DOCTYPE svg PUBLIC "-//W3C//DTD SVG 1.1//EN" "http://www.w3.org/Graphics/SVG/1.1/DTD/svg11.dtd">
<svg version="1.1" id="层_1" xmlns="http://www.w3.org/2000/svg" xmlns:xlink="http://www.w3.org/1999/xlink" x="0px" y="0px"
	 width="627.45px" height="403.25px" viewBox="0 0 627.45 403.25" enable-background="new 0 0 627.45 403.25" xml:space="preserve">
<g>
	
		<line fill-rule="evenodd" clip-rule="evenodd" fill="none" stroke="#E8E9EA" stroke-linecap="square" stroke-miterlimit="10" x1="0" y1="253.95" x2="313.72" y2="394"/>
	
		<line fill-rule="evenodd" clip-rule="evenodd" fill="none" stroke="#E8E9EA" stroke-linecap="square" stroke-miterlimit="10" x1="16.22" y1="210.86" x2="393.72" y2="387.3"/>
	
		<line fill-rule="evenodd" clip-rule="evenodd" fill="none" stroke="#E8E9EA" stroke-linecap="square" stroke-miterlimit="10" x1="61.27" y1="185.07" x2="438.77" y2="361.51"/>
	
		<line fill-rule="evenodd" clip-rule="evenodd" fill="none" stroke="#E8E9EA" stroke-linecap="square" stroke-miterlimit="10" x1="103.48" y1="158.71" x2="482.97" y2="336.77"/>
	
		<line fill-rule="evenodd" clip-rule="evenodd" fill="none" stroke="#E8E9EA" stroke-linecap="square" stroke-miterlimit="10" x1="145.68" y1="133.49" x2="525.14" y2="311.44"/>
	
		<line fill-rule="evenodd" clip-rule="evenodd" fill="none" stroke="#E8E9EA" stroke-linecap="square" stroke-miterlimit="10" x1="187.72" y1="109.31" x2="568.2" y2="287.71"/>
	
		<line fill-rule="evenodd" clip-rule="evenodd" fill="none" stroke="#E8E9EA" stroke-linecap="square" stroke-miterlimit="10" x1="228.95" y1="84.2" x2="610.56" y2="263.04"/>
	
		<line fill-rule="evenodd" clip-rule="evenodd" fill="none" stroke="#E8E9EA" stroke-linecap="square" stroke-miterlimit="10" x1="627.45" y1="247.87" x2="285.78" y2="403.25"/>
	
		<line fill-rule="evenodd" clip-rule="evenodd" fill="none" stroke="#E8E9EA" stroke-linecap="square" stroke-miterlimit="10" x1="582.12" y1="222.86" x2="205.93" y2="396.37"/>
	
		<line fill-rule="evenodd" clip-rule="evenodd" fill="none" stroke="#E8E9EA" stroke-linecap="square" stroke-miterlimit="10" x1="537.06" y1="197.07" x2="161.45" y2="371.16"/>
	
		<line fill-rule="evenodd" clip-rule="evenodd" fill="none" stroke="#E8E9EA" stroke-linecap="square" stroke-miterlimit="10" x1="494.86" y1="170.71" x2="116.37" y2="346.77"/>
	
		<line fill-rule="evenodd" clip-rule="evenodd" fill="none" stroke="#E8E9EA" stroke-linecap="square" stroke-miterlimit="10" x1="452.66" y1="146.06" x2="74.17" y2="321.4"/>
	
		<line fill-rule="evenodd" clip-rule="evenodd" fill="none" stroke="#E8E9EA" stroke-linecap="square" stroke-miterlimit="10" x1="411.23" y1="120.8" x2="31.76" y2="297.13"/>
	
		<line fill-rule="evenodd" clip-rule="evenodd" fill="none" stroke="#E8E9EA" stroke-linecap="square" stroke-miterlimit="10" x1="368.53" y1="96" x2="18.56" y2="255.87"/>
</g>
<g>
	
		<line fill-rule="evenodd" clip-rule="evenodd" fill="none" stroke="#7E94CA" stroke-width="2" stroke-linecap="round" stroke-linejoin="round" stroke-miterlimit="10" x1="488.79" y1="252.65" x2="365.01" y2="192.98"/>
	<polygon fill-rule="evenodd" clip-rule="evenodd" fill="#7E94CA" points="356.79,187.61 367.68,200.61 379.01,193.93 	"/>
</g>
<g>
	
		<line fill-rule="evenodd" clip-rule="evenodd" fill="none" stroke="#7E94CA" stroke-width="2" stroke-linecap="round" stroke-linejoin="round" stroke-miterlimit="10" x1="135.41" y1="266.67" x2="274.87" y2="330.71"/>
	<polygon fill-rule="evenodd" clip-rule="evenodd" fill="#7E94CA" points="283.01,336.61 272.11,323.61 260.79,330.29 	"/>
</g>
<polygon fill-rule="evenodd" clip-rule="evenodd" fill="none" stroke="#7E94CA" stroke-width="2" stroke-linecap="round" stroke-linejoin="round" stroke-miterlimit="10" points="
	214.56,164 309.02,211.35 407.56,166 313.46,119.39 "/>
<g>
	<path fill-rule="evenodd" clip-rule="evenodd" fill="#222222" d="M270.2,11h11.13l14.23,41.15h35.49c2.01,0,3.51,1.24,3.51,3.23
		c0,2-1.63,3.62-3.64,3.62H290.7l-13.77-41.04h-6.71c-2.01,0-3.66-1.35-3.66-3.34C266.56,12.62,268.19,11,270.2,11z"/>
	<path fill-rule="evenodd" clip-rule="evenodd" fill="#222222" d="M291.89,68.13c0-3.25,2.63-5.88,5.88-5.88
		c3.24,0,5.87,2.63,5.87,5.88c0,3.24-2.63,5.87-5.87,5.87C294.52,74,291.89,71.37,291.89,68.13z"/>
	<path fill-rule="evenodd" clip-rule="evenodd" fill="#222222" d="M317.34,68.13c0-3.25,2.62-5.88,5.87-5.88
		c3.24,0,5.87,2.63,5.87,5.88c0,3.24-2.63,5.87-5.87,5.87C319.96,74,317.34,71.37,317.34,68.13z"/>
	<path fill-rule="evenodd" clip-rule="evenodd" fill="#222222" d="M296.45,24h33.93c2.53,0,6.76-0.16,4.57,4.67l-3.91,14
		c-0.99,2.95-2.05,5.33-4.57,5.33h-24.8c-2.52,0-3.03-2.98-3.91-5.2l-5.87-14.13C290.48,23.77,293.93,24,296.45,24z"/>
	
		<polygon fill-rule="evenodd" clip-rule="evenodd" fill="none" stroke="#FFFFFF" stroke-width="2" stroke-linecap="round" stroke-linejoin="round" stroke-miterlimit="10" points="
		302.34,36.54 312.89,44.95 327.98,31.62 323.2,27.94 312.33,37.52 306.52,32.77 	"/>
</g>
<polygon fill-rule="evenodd" clip-rule="evenodd" fill="none" stroke="#7E94CA" stroke-width="2" stroke-linecap="round" stroke-linejoin="round" stroke-miterlimit="10" points="
	255.56,349.47 311.02,376 369.56,348.43 314.46,322.65 "/>
<g>
	
		<line fill-rule="evenodd" clip-rule="evenodd" fill="none" stroke="#7E94CA" stroke-width="2" stroke-linecap="round" stroke-linejoin="round" stroke-miterlimit="10" x1="465.89" y1="277" x2="340.5" y2="334.68"/>
	<polygon fill-rule="evenodd" clip-rule="evenodd" fill="#7E94CA" points="483.29,268.85 471.11,280.61 459.79,273.93 	"/>
</g>
<g>
	<path fill-rule="evenodd" clip-rule="evenodd" fill="#DDDDDD" d="M90.21,155h51.7c2.02,0,3.65,1.61,3.65,3.6v28.8
		c0,1.99-1.63,3.6-3.65,3.6h-51.7c-2.02,0-3.65-1.61-3.65-3.6v-28.8C86.56,156.61,88.19,155,90.21,155z"/>
	<rect x="92.09" y="160.09" fill-rule="evenodd" clip-rule="evenodd" width="2.95" height="25.82"/>
	<rect x="100.2" y="160.09" fill-rule="evenodd" clip-rule="evenodd" width="2.95" height="25.82"/>
	<rect x="120.49" y="160.09" fill-rule="evenodd" clip-rule="evenodd" width="2.95" height="25.82"/>
	<rect x="125.65" y="160.09" fill-rule="evenodd" clip-rule="evenodd" width="2.21" height="25.82"/>
	<rect x="96.88" y="160.09" fill-rule="evenodd" clip-rule="evenodd" width="0.74" height="25.82"/>
	<rect x="112.37" y="160.09" fill-rule="evenodd" clip-rule="evenodd" width="2.95" height="25.82"/>
	<rect x="117.17" y="160.09" fill-rule="evenodd" clip-rule="evenodd" width="0.73" height="25.82"/>
	<rect x="133.02" y="160.09" fill-rule="evenodd" clip-rule="evenodd" width="2.95" height="25.82"/>
	<rect x="137.82" y="160.09" fill-rule="evenodd" clip-rule="evenodd" width="2.21" height="25.82"/>
	<rect x="129.7" y="160.09" fill-rule="evenodd" clip-rule="evenodd" width="0.74" height="25.82"/>
	<rect x="109.42" y="160.09" fill-rule="evenodd" clip-rule="evenodd" width="0.74" height="25.82"/>
	<rect x="105.74" y="160.09" fill-rule="evenodd" clip-rule="evenodd" width="1.47" height="25.82"/>
</g>
<g>
	
		<path fill-rule="evenodd" clip-rule="evenodd" fill="#666666" stroke="#FFFFFF" stroke-linecap="round" stroke-linejoin="round" stroke-miterlimit="10" d="
		M281.81,234h34.5c2.9,0,5.25,2.35,5.25,5.25l0.02,29.72h-45l-0.02-29.72C276.56,236.35,278.91,234,281.81,234z"/>
	<path fill-rule="evenodd" clip-rule="evenodd" fill="#4B5E8D" d="M331.56,245h-9v25h-44v11h65c0,0,2.96-0.45,2.96-2.51
		c0-2.16-2.96-2.49-2.96-2.49v-19L331.56,245z M324.56,251h6l8,8v1h-14V251z"/>
	
		<circle fill-rule="evenodd" clip-rule="evenodd" fill="#FFFFFF" stroke="#222222" stroke-width="5" stroke-linecap="round" stroke-linejoin="round" stroke-miterlimit="10" cx="293.56" cy="282" r="8"/>
	
		<circle fill-rule="evenodd" clip-rule="evenodd" fill="#FFFFFF" stroke="#222222" stroke-width="5" stroke-linecap="round" stroke-linejoin="round" stroke-miterlimit="10" cx="328.56" cy="282" r="8"/>
	<polygon fill-rule="evenodd" clip-rule="evenodd" fill="#FFBF00" points="298.56,234 311.53,234 311.54,249.97 308.53,246.02 
		305.21,249.99 301.6,246.02 298.56,250 	"/>
</g>
<g>
	
		<polygon opacity="0.5" fill-rule="evenodd" clip-rule="evenodd" fill="none" stroke="#4969B5" stroke-width="2" stroke-linecap="round" stroke-linejoin="round" stroke-miterlimit="10" points="
		469.82,262.43 505.06,279.39 542.26,261.78 504.39,241.689 	"/>
	<g>
		<polygon fill-rule="evenodd" clip-rule="evenodd" fill="#CCD3EB" points="480.06,237.29 505.04,250.29 531.06,236.29 
			504.88,224.29 		"/>
		<polygon fill-rule="evenodd" clip-rule="evenodd" fill="#B1C3F6" points="480.06,237.29 505.04,250.29 505.06,271.29 
			480.06,257.459 		"/>
		<polygon fill-rule="evenodd" clip-rule="evenodd" fill="#96B2F9" points="531.06,236.29 505.06,250.28 505.06,271.29 
			531.06,257.299 		"/>
		
			<line opacity="0.5" fill-rule="evenodd" clip-rule="evenodd" fill="none" stroke="#FFFFFF" stroke-linecap="round" stroke-linejoin="round" stroke-miterlimit="10" x1="480.359" y1="237.445" x2="504.502" y2="250.01"/>
		
			<line opacity="0.5" fill-rule="evenodd" clip-rule="evenodd" fill="none" stroke="#FFFFFF" stroke-linecap="square" stroke-linejoin="round" stroke-miterlimit="10" x1="530.765" y1="236.449" x2="504.73" y2="250.02"/>
		
			<line fill-rule="evenodd" clip-rule="evenodd" fill="none" stroke="#E4E8F6" stroke-linecap="square" stroke-linejoin="round" stroke-miterlimit="10" x1="504.8" y1="250.35" x2="504.8" y2="270.729"/>
		<polygon fill-rule="evenodd" clip-rule="evenodd" fill="#FFD24D" points="487.06,241.29 500.04,248.29 500.06,264.29 
			497.05,258.709 493.72,260.89 490.1,254.97 487.06,257.31 		"/>
	</g>
	<g>
		<polygon opacity="0.2" fill-rule="evenodd" clip-rule="evenodd" fill="#002CAE" points="505.06,210.29 469.06,228.75 
			469.06,263.37 505.06,280.29 		"/>
		<polygon opacity="0.3" fill-rule="evenodd" clip-rule="evenodd" fill="#002CAE" points="505.06,210.29 542.06,228.75 
			542.06,263.37 505.06,280.29 		"/>
	</g>
</g>
<g>
	<g>
		<polygon fill-rule="evenodd" clip-rule="evenodd" fill="#CCD3EB" points="480.54,193.04 505.52,206.04 531.54,192.04 
			505.36,180.04 		"/>
		<polygon fill-rule="evenodd" clip-rule="evenodd" fill="#B1C3F6" points="480.54,193.04 505.52,206.04 505.54,227.04 
			480.54,213.209 		"/>
		<polygon fill-rule="evenodd" clip-rule="evenodd" fill="#96B2F9" points="531.54,192.04 505.54,206.03 505.54,227.04 
			531.54,213.049 		"/>
		
			<line opacity="0.5" fill-rule="evenodd" clip-rule="evenodd" fill="none" stroke="#FFFFFF" stroke-linecap="round" stroke-linejoin="round" stroke-miterlimit="10" x1="480.839" y1="193.195" x2="504.982" y2="205.76"/>
		
			<line opacity="0.5" fill-rule="evenodd" clip-rule="evenodd" fill="none" stroke="#FFFFFF" stroke-linecap="square" stroke-linejoin="round" stroke-miterlimit="10" x1="531.244" y1="192.199" x2="505.209" y2="205.77"/>
		
			<line fill-rule="evenodd" clip-rule="evenodd" fill="none" stroke="#E4E8F6" stroke-linecap="square" stroke-linejoin="round" stroke-miterlimit="10" x1="505.28" y1="206.1" x2="505.28" y2="226.479"/>
		<polygon fill-rule="evenodd" clip-rule="evenodd" fill="#FFD24D" points="487.54,197.04 500.52,204.04 500.54,220.04 
			497.53,214.459 494.2,216.64 490.58,210.72 487.54,213.06 		"/>
	</g>
	<g>
		<polygon opacity="0.2" fill-rule="evenodd" clip-rule="evenodd" fill="#002CAE" points="505.54,166.04 469.54,184.5 
			469.54,219.12 505.54,236.04 		"/>
		<polygon opacity="0.3" fill-rule="evenodd" clip-rule="evenodd" fill="#002CAE" points="505.54,166.04 542.54,184.5 
			542.54,219.12 505.54,236.04 		"/>
	</g>
</g>
<g>
	<g>
		<polygon fill-rule="evenodd" clip-rule="evenodd" fill="#CCD3EB" points="480.54,146.604 505.521,159.604 531.541,145.604 
			505.36,133.604 		"/>
		<polygon fill-rule="evenodd" clip-rule="evenodd" fill="#B1C3F6" points="480.54,146.604 505.521,159.604 505.54,180.604 
			480.54,166.774 		"/>
		<polygon fill-rule="evenodd" clip-rule="evenodd" fill="#96B2F9" points="531.541,145.604 505.54,159.595 505.54,180.604 
			531.541,166.614 		"/>
		
			<line opacity="0.5" fill-rule="evenodd" clip-rule="evenodd" fill="none" stroke="#FFFFFF" stroke-linecap="round" stroke-linejoin="round" stroke-miterlimit="10" x1="480.84" y1="146.76" x2="504.982" y2="159.325"/>
		
			<line opacity="0.5" fill-rule="evenodd" clip-rule="evenodd" fill="none" stroke="#FFFFFF" stroke-linecap="square" stroke-linejoin="round" stroke-miterlimit="10" x1="531.245" y1="145.764" x2="505.21" y2="159.334"/>
		
			<line fill-rule="evenodd" clip-rule="evenodd" fill="none" stroke="#E4E8F6" stroke-linecap="square" stroke-linejoin="round" stroke-miterlimit="10" x1="505.28" y1="159.665" x2="505.28" y2="180.044"/>
		<polygon fill-rule="evenodd" clip-rule="evenodd" fill="#FFD24D" points="487.54,150.604 500.521,157.604 500.54,173.604 
			497.53,168.024 494.2,170.205 490.58,164.285 487.54,166.625 		"/>
	</g>
	<g>
		<polygon opacity="0.2" fill-rule="evenodd" clip-rule="evenodd" fill="#002CAE" points="505.54,119.604 469.54,138.064 
			469.54,172.685 505.54,189.604 		"/>
		<polygon opacity="0.3" fill-rule="evenodd" clip-rule="evenodd" fill="#002CAE" points="505.54,119.604 542.541,138.064 
			542.541,172.685 505.54,189.604 		"/>
	</g>
</g>
<g>
	<g>
		<polygon fill-rule="evenodd" clip-rule="evenodd" fill="#CCD3EB" points="286.141,317.312 311.121,331.312 337.141,317.312 
			311.141,305.312 		"/>
		<polygon fill-rule="evenodd" clip-rule="evenodd" fill="#B1C3F6" points="286.141,317.312 311.141,330.742 311.141,361.312 
			286.141,347.482 		"/>
		<polygon fill-rule="evenodd" clip-rule="evenodd" fill="#96B2F9" points="337.141,317.312 311.141,331.302 311.141,361.312 
			337.141,347.322 		"/>
		
			<line opacity="0.5" fill-rule="evenodd" clip-rule="evenodd" fill="none" stroke="#FFFFFF" stroke-linecap="round" stroke-linejoin="round" stroke-miterlimit="10" x1="286.625" y1="317.682" x2="310.656" y2="331.032"/>
		
			<line opacity="0.5" fill-rule="evenodd" clip-rule="evenodd" fill="none" stroke="#FFFFFF" stroke-linecap="square" stroke-linejoin="round" stroke-miterlimit="10" x1="336.754" y1="317.52" x2="311.141" y2="330.742"/>
		
			<line opacity="0.5" fill-rule="evenodd" clip-rule="evenodd" fill="none" stroke="#E4E8F6" stroke-linecap="square" stroke-linejoin="round" stroke-miterlimit="10" x1="310.881" y1="330.839" x2="310.881" y2="359.752"/>
	</g>
	<g>
		<polygon opacity="0.2" fill-rule="evenodd" clip-rule="evenodd" fill="#002CAE" points="311.141,295.312 275.141,313.772 
			275.141,358.392 311.141,375.312 		"/>
		<polygon opacity="0.3" fill-rule="evenodd" clip-rule="evenodd" fill="#002CAE" points="311.141,295.312 348.141,313.772 
			348.141,358.392 311.141,375.312 		"/>
	</g>
</g>
<g>
	
		<polygon fill-rule="evenodd" clip-rule="evenodd" fill="none" stroke="#A6B4D9" stroke-width="2" stroke-linecap="round" stroke-linejoin="round" stroke-miterlimit="10" points="
		79.225,259.14 114.465,276.1 151.665,258.49 115.245,241.81 	"/>
	<g>
		<polygon fill-rule="evenodd" clip-rule="evenodd" fill="#CCD3EB" points="90.465,218 115.445,232 141.465,218 115.465,206 		"/>
		<polygon fill-rule="evenodd" clip-rule="evenodd" fill="#B1C3F6" points="90.465,218 115.465,231.43 115.465,262 90.465,248.17 		
			"/>
		<polygon fill-rule="evenodd" clip-rule="evenodd" fill="#96B2F9" points="141.465,218 115.465,231.99 115.465,262 141.465,248.01 
					"/>
		
			<line opacity="0.5" fill-rule="evenodd" clip-rule="evenodd" fill="none" stroke="#FFFFFF" stroke-linecap="round" stroke-linejoin="round" stroke-miterlimit="10" x1="90.95" y1="218.37" x2="114.98" y2="231.72"/>
		
			<line opacity="0.5" fill-rule="evenodd" clip-rule="evenodd" fill="none" stroke="#FFFFFF" stroke-linecap="square" stroke-linejoin="round" stroke-miterlimit="10" x1="141.079" y1="218.208" x2="115.465" y2="231.43"/>
		
			<line opacity="0.5" fill-rule="evenodd" clip-rule="evenodd" fill="none" stroke="#E4E8F6" stroke-linecap="square" stroke-linejoin="round" stroke-miterlimit="10" x1="115.205" y1="231.527" x2="115.205" y2="260.44"/>
	</g>
	<g>
		<polygon opacity="0.2" fill-rule="evenodd" clip-rule="evenodd" fill="#002CAE" points="115.465,196 79.465,214.46 79.465,259.08 
			115.465,276 		"/>
		<polygon opacity="0.3" fill-rule="evenodd" clip-rule="evenodd" fill="#002CAE" points="115.465,196 152.465,214.46 
			152.465,259.08 115.465,276 		"/>
	</g>
</g>
<g>
	<polygon fill-rule="evenodd" clip-rule="evenodd" fill="#DAEAFC" points="241.726,106.148 308.136,140.828 374.646,105.749 
		307.695,74.348 	"/>
	<polygon fill-rule="evenodd" clip-rule="evenodd" fill="#B1D2F8" points="241.755,105.898 307.686,139.988 307.686,195.528 
		241.755,160.438 	"/>
	<polygon fill-rule="evenodd" clip-rule="evenodd" fill="#81B7F3" points="374.596,105.278 307.686,140.988 307.686,195.528 
		374.596,159.808 	"/>
	
		<line opacity="0.5" fill-rule="evenodd" clip-rule="evenodd" fill="none" stroke="#FFFFFF" stroke-linecap="square" stroke-linejoin="round" stroke-miterlimit="10" x1="242.996" y1="106.098" x2="308.005" y2="140.078"/>
	
		<line opacity="0.5" fill-rule="evenodd" clip-rule="evenodd" fill="none" stroke="#FFFFFF" stroke-linecap="square" stroke-linejoin="round" stroke-miterlimit="10" x1="373.835" y1="105.808" x2="308.036" y2="140.108"/>
	
		<line fill-rule="evenodd" clip-rule="evenodd" fill="none" stroke="#CBE1FA" stroke-linecap="square" stroke-linejoin="round" stroke-miterlimit="10" x1="308.215" y1="141.088" x2="308.215" y2="194.868"/>
	<path fill-rule="evenodd" clip-rule="evenodd" fill="#90A8CE" d="M315.605,88.968l28.57,13.5c3.91,2.24,3.17,6.27-1.66,9.01
		l-25.44,12.69c-8.863,4.455-9.39,4.571-15.85,0.92l-29.03-14.68c-3.91-2.24-3.17-6.27,1.66-9.01l25.9-11.51
		C304.585,87.148,311.686,86.738,315.605,88.968z"/>
</g>
<g>
	<linearGradient id="SVGID_1_" gradientUnits="userSpaceOnUse" x1="344.2056" y1="128.6235" x2="344.2056" y2="10.4106">
		<stop  offset="0" style="stop-color:#CAE4F3;stop-opacity:0.6"/>
		<stop  offset="1" style="stop-color:#BFFFFF;stop-opacity:0"/>
	</linearGradient>
	<polygon fill-rule="evenodd" clip-rule="evenodd" fill="url(#SVGID_1_)" points="310.656,10.411 380.808,19.818 345.359,110.245 
		307.604,128.624 	"/>
	<linearGradient id="SVGID_2_" gradientUnits="userSpaceOnUse" x1="310.6558" y1="109.0913" x2="310.6558" y2="-3.5288">
		<stop  offset="0" style="stop-color:#CAE4F3;stop-opacity:0.6"/>
		<stop  offset="1" style="stop-color:#BFFFFF;stop-opacity:0"/>
	</linearGradient>
	<polygon fill-rule="evenodd" clip-rule="evenodd" fill="url(#SVGID_2_)" points="227.417,-3.529 393.895,-3.41 345.704,109.091 
		269.38,107.095 	"/>
	<linearGradient id="SVGID_3_" gradientUnits="userSpaceOnUse" x1="276.5845" y1="128.1172" x2="276.5845" y2="0.1895">
		<stop  offset="0" style="stop-color:#CAE4F3;stop-opacity:0.6"/>
		<stop  offset="1" style="stop-color:#BFFFFF;stop-opacity:0"/>
	</linearGradient>
	<polygon fill-rule="evenodd" clip-rule="evenodd" fill="url(#SVGID_3_)" points="241.514,0.189 311.656,8.872 307.604,128.117 
		269.492,109.091 	"/>
</g>
<g>
	<linearGradient id="SVGID_4_" gradientUnits="userSpaceOnUse" x1="133.874" y1="227.9272" x2="133.874" y2="156.3872">
		<stop  offset="0" style="stop-color:#007FFF;stop-opacity:0.4"/>
		<stop  offset="1" style="stop-color:#BFFFFF;stop-opacity:0"/>
	</linearGradient>
	<polygon fill-rule="evenodd" clip-rule="evenodd" fill="url(#SVGID_4_)" points="107.912,156.387 159.836,169.708 135.161,217.86 
		114.737,227.927 	"/>
	<linearGradient id="SVGID_5_" gradientUnits="userSpaceOnUse" x1="117.0601" y1="217.8604" x2="117.0601" y2="149.7134">
		<stop  offset="0" style="stop-color:#007FFF;stop-opacity:0.4"/>
		<stop  offset="1" style="stop-color:#BFFFFF;stop-opacity:0"/>
	</linearGradient>
	<polygon fill-rule="evenodd" clip-rule="evenodd" fill="url(#SVGID_5_)" points="66.825,149.915 167.295,149.713 135.161,217.86 
		94.351,217.142 	"/>
	<linearGradient id="SVGID_6_" gradientUnits="userSpaceOnUse" x1="94.9751" y1="227.8516" x2="94.9751" y2="158.8594">
		<stop  offset="0" style="stop-color:#007FFF;stop-opacity:0.4"/>
		<stop  offset="1" style="stop-color:#BFFFFF;stop-opacity:0"/>
	</linearGradient>
	<polygon fill-rule="evenodd" clip-rule="evenodd" fill="url(#SVGID_6_)" points="75.289,158.859 108.606,167.513 114.661,227.852 
		94.124,217.508 	"/>
</g>
<g>
	<linearGradient id="SVGID_7_" gradientUnits="userSpaceOnUse" x1="329.374" y1="326.8169" x2="329.374" y2="255.2769">
		<stop  offset="0" style="stop-color:#007FFF;stop-opacity:0.4"/>
		<stop  offset="1" style="stop-color:#BFFFFF;stop-opacity:0"/>
	</linearGradient>
	<polygon fill-rule="evenodd" clip-rule="evenodd" fill="url(#SVGID_7_)" points="303.412,255.277 355.336,268.598 330.661,316.75 
		310.237,326.817 	"/>
	<linearGradient id="SVGID_8_" gradientUnits="userSpaceOnUse" x1="312.5601" y1="316.75" x2="312.5601" y2="248.603">
		<stop  offset="0" style="stop-color:#007FFF;stop-opacity:0.4"/>
		<stop  offset="1" style="stop-color:#BFFFFF;stop-opacity:0"/>
	</linearGradient>
	<polygon fill-rule="evenodd" clip-rule="evenodd" fill="url(#SVGID_8_)" points="262.325,248.805 362.795,248.603 330.661,316.75 
		289.851,316.031 	"/>
	<linearGradient id="SVGID_9_" gradientUnits="userSpaceOnUse" x1="290.4751" y1="326.7412" x2="290.4751" y2="257.749">
		<stop  offset="0" style="stop-color:#007FFF;stop-opacity:0.4"/>
		<stop  offset="1" style="stop-color:#BFFFFF;stop-opacity:0"/>
	</linearGradient>
	<polygon fill-rule="evenodd" clip-rule="evenodd" fill="url(#SVGID_9_)" points="270.789,257.749 304.106,266.403 310.161,326.741 
		289.624,316.397 	"/>
</g>
</svg>
