<?xml version="1.0" encoding="utf-8"?>
<!-- Generator: Adobe Illustrator 16.0.0, SVG Export Plug-In . SVG Version: 6.00 Build 0)  -->
<!DOCTYPE svg PUBLIC "-//W3C//DTD SVG 1.1//EN" "http://www.w3.org/Graphics/SVG/1.1/DTD/svg11.dtd">
<svg version="1.1" id="层_1" xmlns="http://www.w3.org/2000/svg" xmlns:xlink="http://www.w3.org/1999/xlink" x="0px" y="0px"
	 width="627.45px" height="337.25px" viewBox="0 0 627.45 337.25" enable-background="new 0 0 627.45 337.25" xml:space="preserve">
<g>
	
		<line fill-rule="evenodd" clip-rule="evenodd" fill="none" stroke="#EDEDED" stroke-linecap="square" stroke-miterlimit="10" x1="0" y1="187.95" x2="313.72" y2="328"/>
	
		<line fill-rule="evenodd" clip-rule="evenodd" fill="none" stroke="#EDEDED" stroke-linecap="square" stroke-miterlimit="10" x1="16.22" y1="144.86" x2="393.72" y2="321.3"/>
	
		<line fill-rule="evenodd" clip-rule="evenodd" fill="none" stroke="#EDEDED" stroke-linecap="square" stroke-miterlimit="10" x1="61.27" y1="119.07" x2="438.77" y2="295.51"/>
	
		<line fill-rule="evenodd" clip-rule="evenodd" fill="none" stroke="#EDEDED" stroke-linecap="square" stroke-miterlimit="10" x1="103.48" y1="92.71" x2="482.97" y2="270.77"/>
	
		<line fill-rule="evenodd" clip-rule="evenodd" fill="none" stroke="#EDEDED" stroke-linecap="square" stroke-miterlimit="10" x1="145.68" y1="67.49" x2="525.14" y2="245.44"/>
	
		<line fill-rule="evenodd" clip-rule="evenodd" fill="none" stroke="#EDEDED" stroke-linecap="square" stroke-miterlimit="10" x1="187.72" y1="43.31" x2="568.2" y2="221.71"/>
	
		<line fill-rule="evenodd" clip-rule="evenodd" fill="none" stroke="#EDEDED" stroke-linecap="square" stroke-miterlimit="10" x1="228.95" y1="18.2" x2="610.56" y2="197.04"/>
	
		<line fill-rule="evenodd" clip-rule="evenodd" fill="none" stroke="#EDEDED" stroke-linecap="square" stroke-miterlimit="10" x1="627.45" y1="181.87" x2="285.78" y2="337.25"/>
	
		<line fill-rule="evenodd" clip-rule="evenodd" fill="none" stroke="#EDEDED" stroke-linecap="square" stroke-miterlimit="10" x1="582.12" y1="156.86" x2="205.93" y2="330.37"/>
	
		<line fill-rule="evenodd" clip-rule="evenodd" fill="none" stroke="#EDEDED" stroke-linecap="square" stroke-miterlimit="10" x1="537.06" y1="131.07" x2="161.45" y2="305.16"/>
	
		<line fill-rule="evenodd" clip-rule="evenodd" fill="none" stroke="#EDEDED" stroke-linecap="square" stroke-miterlimit="10" x1="494.86" y1="104.71" x2="116.37" y2="280.77"/>
	
		<line fill-rule="evenodd" clip-rule="evenodd" fill="none" stroke="#EDEDED" stroke-linecap="square" stroke-miterlimit="10" x1="452.66" y1="80.06" x2="74.17" y2="255.4"/>
	
		<line fill-rule="evenodd" clip-rule="evenodd" fill="none" stroke="#EDEDED" stroke-linecap="square" stroke-miterlimit="10" x1="411.23" y1="54.8" x2="31.76" y2="231.13"/>
	
		<line fill-rule="evenodd" clip-rule="evenodd" fill="none" stroke="#EDEDED" stroke-linecap="square" stroke-miterlimit="10" x1="368.53" y1="30" x2="18.56" y2="189.87"/>
</g>
<polyline fill-rule="evenodd" clip-rule="evenodd" fill="none" stroke="#A7B7DC" stroke-width="2" stroke-linecap="round" stroke-linejoin="round" stroke-miterlimit="10" points="
	116.43,235.93 163.69,214.53 118.78,192.71 161.4,172.33 "/>
<g>
	
		<polygon opacity="0.5" fill-rule="evenodd" clip-rule="evenodd" fill="none" stroke="#4969B5" stroke-linecap="round" stroke-linejoin="round" stroke-miterlimit="10" points="
		387.32,92.14 422.56,109.1 459.76,91.49 421.89,71.4 	"/>
	<g>
		<polygon fill-rule="evenodd" clip-rule="evenodd" fill="#CCD3EB" points="397.56,67 422.54,80 448.56,66 422.38,54 		"/>
		<polygon fill-rule="evenodd" clip-rule="evenodd" fill="#B1C3F6" points="397.56,67 422.54,80 422.56,101 397.56,87.17 		"/>
		<polygon fill-rule="evenodd" clip-rule="evenodd" fill="#96B2F9" points="448.56,66 422.56,79.99 422.56,101 448.56,87.01 		"/>
		
			<line opacity="0.5" fill-rule="evenodd" clip-rule="evenodd" fill="none" stroke="#FFFFFF" stroke-linecap="round" stroke-linejoin="round" stroke-miterlimit="10" x1="397.859" y1="67.156" x2="422.002" y2="79.72"/>
		
			<line opacity="0.5" fill-rule="evenodd" clip-rule="evenodd" fill="none" stroke="#FFFFFF" stroke-linecap="square" stroke-linejoin="round" stroke-miterlimit="10" x1="448.265" y1="66.159" x2="422.23" y2="79.73"/>
		
			<line fill-rule="evenodd" clip-rule="evenodd" fill="none" stroke="#E4E8F6" stroke-linecap="square" stroke-linejoin="round" stroke-miterlimit="10" x1="422.3" y1="80.06" x2="422.3" y2="100.44"/>
		<polygon fill-rule="evenodd" clip-rule="evenodd" fill="#FFD24D" points="404.56,71 417.54,78 417.56,94 414.55,88.42 
			411.22,90.6 407.6,84.68 404.56,87.02 		"/>
	</g>
	<g>
		<polygon opacity="0.2" fill-rule="evenodd" clip-rule="evenodd" fill="#002CAE" points="422.56,40 386.56,58.46 386.56,93.08 
			422.56,110 		"/>
		<polygon opacity="0.3" fill-rule="evenodd" clip-rule="evenodd" fill="#002CAE" points="422.56,40 459.56,58.46 459.56,93.08 
			422.56,110 		"/>
	</g>
</g>
<polygon fill-rule="evenodd" clip-rule="evenodd" fill="none" stroke="#A7B7DC" stroke-width="2" stroke-linecap="round" stroke-linejoin="round" stroke-miterlimit="10" points="
	201.53,196.18 323.02,255.35 444.65,196.56 323.52,138.13 "/>
<g>
	
		<line fill-rule="evenodd" clip-rule="evenodd" fill="none" stroke="#A7B7DC" stroke-width="2" stroke-linecap="round" stroke-linejoin="round" stroke-miterlimit="10" x1="385.93" y1="224.58" x2="438.95" y2="248.83"/>
	<polygon fill-rule="evenodd" clip-rule="evenodd" fill="#7E94CA" points="454.41,257.05 443.11,244.61 432.34,252.09 	"/>
</g>
<g>
	
		<line fill-rule="evenodd" clip-rule="evenodd" fill="none" stroke="#A7B7DC" stroke-width="2" stroke-linecap="round" stroke-linejoin="round" stroke-miterlimit="10" x1="407.23" y1="102.51" x2="358.9" y2="125.51"/>
</g>
<polyline fill-rule="evenodd" clip-rule="evenodd" fill="none" stroke="#A7B7DC" stroke-width="2" stroke-linecap="round" stroke-linejoin="round" stroke-miterlimit="10" points="
	241.665,89.304 287.98,111.46 216.04,145.88 261.39,167.21 "/>
<polyline fill-rule="evenodd" clip-rule="evenodd" fill="none" stroke="#A7B7DC" stroke-width="2" stroke-linecap="round" stroke-linejoin="round" stroke-miterlimit="10" points="
	110.79,148.57 162.62,171.85 216.04,145.88 261.39,167.21 "/>
<polygon fill-rule="evenodd" clip-rule="evenodd" fill="#7E94CA" points="263.79,168.24 253.44,157.35 242.12,164.03 "/>
<circle fill-rule="evenodd" clip-rule="evenodd" fill="#7E94CA" cx="216.56" cy="146" r="4"/>
<circle fill-rule="evenodd" clip-rule="evenodd" fill="#7E94CA" cx="161.56" cy="172" r="4"/>
<g>
	<polygon fill-rule="evenodd" clip-rule="evenodd" fill="#DAEAFC" points="238.56,183.84 324.03,223.03 409.56,181.34 323.32,142 	
		"/>
	<polygon fill-rule="evenodd" clip-rule="evenodd" fill="#B1D2F8" points="238.56,184 323.56,221.89 323.56,242 238.56,202.82 	"/>
	<polygon fill-rule="evenodd" clip-rule="evenodd" fill="#81B7F3" points="409.56,182 323.56,223.32 323.56,242 409.56,200.68 	"/>
	
		<line opacity="0.5" fill-rule="evenodd" clip-rule="evenodd" fill="none" stroke="#FFFFFF" stroke-linecap="square" stroke-linejoin="round" stroke-miterlimit="10" x1="239.39" y1="183.48" x2="323.86" y2="222.05"/>
	
		<line opacity="0.5" fill-rule="evenodd" clip-rule="evenodd" fill="none" stroke="#FFFFFF" stroke-linecap="square" stroke-linejoin="round" stroke-miterlimit="10" x1="409.1" y1="181.26" x2="323.9" y2="222.09"/>
	
		<line opacity="0.5" fill-rule="evenodd" clip-rule="evenodd" fill="none" stroke="#CBE1FA" stroke-linecap="square" stroke-linejoin="round" stroke-miterlimit="10" x1="324.13" y1="223.36" x2="324.13" y2="241.14"/>
</g>
<g>
	<g>
		<linearGradient id="SVGID_1_" gradientUnits="userSpaceOnUse" x1="335.772" y1="184.3408" x2="335.772" y2="24.8286">
			<stop  offset="0" style="stop-color:#CAE4F3;stop-opacity:0.6"/>
			<stop  offset="1" style="stop-color:#BFFFFF;stop-opacity:0"/>
		</linearGradient>
		<polygon fill-rule="evenodd" clip-rule="evenodd" fill="url(#SVGID_1_)" points="191.65,24.829 479.893,24.829 409.56,182 
			239.837,184.341 		"/>
		<g>
			<polygon fill-rule="evenodd" clip-rule="evenodd" fill="#E5BF93" points="260.12,96.14 326.01,127.3 384.15,101.03 316.08,70.94 
							"/>
			<polygon fill-rule="evenodd" clip-rule="evenodd" fill="#C7A570" points="259.63,96.37 325.56,126.46 325.56,210.75 
				259.63,179.66 			"/>
			<polygon fill-rule="evenodd" clip-rule="evenodd" fill="#AD8756" points="384.47,100.75 325.56,127.46 325.56,211 384.47,184.28 
							"/>
			<polygon fill-rule="evenodd" clip-rule="evenodd" fill="#F2D3BA" points="343.83,83.04 357.95,89.27 296.55,114.16 296.56,137 
				293.55,131.42 290.22,133.6 286.6,127.68 283.56,130.02 283.56,107.81 			"/>
			
				<line fill-rule="evenodd" clip-rule="evenodd" fill="none" stroke="#FAEEE4" stroke-linecap="square" stroke-linejoin="round" stroke-miterlimit="10" x1="260.43" y1="96.66" x2="325.88" y2="126.55"/>
			
				<line fill-rule="evenodd" clip-rule="evenodd" fill="none" stroke="#FAEEE4" stroke-linecap="square" stroke-linejoin="round" stroke-miterlimit="10" x1="384.15" y1="100.41" x2="325.91" y2="126.58"/>
			
				<line fill-rule="evenodd" clip-rule="evenodd" fill="none" stroke="#D9C1A4" stroke-linecap="square" stroke-linejoin="round" stroke-miterlimit="10" x1="326.09" y1="127.56" x2="326.09" y2="210.438"/>
		</g>
		<g>
			
				<polyline fill-rule="evenodd" clip-rule="evenodd" fill="none" stroke="#F2D3BA" stroke-linecap="square" stroke-linejoin="round" stroke-miterlimit="10" points="
				339.56,121 339.56,131 343.56,135 343.56,153 347.56,156 			"/>
			
				<polyline fill-rule="evenodd" clip-rule="evenodd" fill="none" stroke="#F2D3BA" stroke-linecap="square" stroke-linejoin="round" stroke-miterlimit="10" points="
				357.56,113 357.56,138 361.56,142 361.56,154.08 369.2,160.55 369.18,177.68 			"/>
			
				<polyline fill-rule="evenodd" clip-rule="evenodd" fill="none" stroke="#F2D3BA" stroke-linecap="square" stroke-linejoin="round" stroke-miterlimit="10" points="
				353.56,115 353.56,139 358.56,144 358.56,164 			"/>
			
				<polyline fill-rule="evenodd" clip-rule="evenodd" fill="none" stroke="#F2D3BA" stroke-linecap="square" stroke-linejoin="round" stroke-miterlimit="10" points="
				370.56,107 370.56,148 374.56,153 374.56,165 			"/>
			
				<polyline fill-rule="evenodd" clip-rule="evenodd" fill="none" stroke="#F2D3BA" stroke-linecap="square" stroke-linejoin="round" stroke-miterlimit="10" points="
				373.56,106 373.56,146 377.56,151 377.56,163 			"/>
			
				<polyline fill-rule="evenodd" clip-rule="evenodd" fill="none" stroke="#F2D3BA" stroke-linecap="square" stroke-linejoin="round" stroke-miterlimit="10" points="
				349.56,117 349.56,141 354.56,146 354.56,165 			"/>
			
				<polyline fill-rule="evenodd" clip-rule="evenodd" fill="none" stroke="#F2D3BA" stroke-linecap="square" stroke-linejoin="round" stroke-miterlimit="10" points="
				345.56,118 345.56,142 350.56,147 350.56,163 			"/>
			
				<line fill-rule="evenodd" clip-rule="evenodd" fill="none" stroke="#F2D3BA" stroke-linecap="square" stroke-linejoin="round" stroke-miterlimit="10" x1="365.06" y1="157.5" x2="365.06" y2="180.5"/>
			
				<line fill-rule="evenodd" clip-rule="evenodd" fill="none" stroke="#F2D3BA" stroke-linecap="square" stroke-linejoin="round" stroke-miterlimit="10" x1="361.06" y1="112.5" x2="361.06" y2="129.5"/>
			
				<line fill-rule="evenodd" clip-rule="evenodd" fill="none" stroke="#F2D3BA" stroke-linecap="square" stroke-linejoin="round" stroke-miterlimit="10" x1="377.06" y1="104.5" x2="377.06" y2="143.5"/>
			
				<line fill-rule="evenodd" clip-rule="evenodd" fill="none" stroke="#F2D3BA" stroke-linecap="square" stroke-linejoin="round" stroke-miterlimit="10" x1="364.06" y1="110.5" x2="364.06" y2="125.5"/>
			
				<line fill-rule="evenodd" clip-rule="evenodd" fill="none" stroke="#F2D3BA" stroke-linecap="square" stroke-linejoin="round" stroke-miterlimit="10" x1="367.06" y1="109.5" x2="367.06" y2="120.5"/>
			
				<line fill-rule="evenodd" clip-rule="evenodd" fill="none" stroke="#F2D3BA" stroke-linecap="square" stroke-linejoin="round" stroke-miterlimit="10" x1="326.82" y1="206.77" x2="341.47" y2="199.55"/>
			
				<line fill-rule="evenodd" clip-rule="evenodd" fill="none" stroke="#F2D3BA" stroke-linecap="square" stroke-linejoin="round" stroke-miterlimit="10" x1="326.88" y1="201.78" x2="344.25" y2="192.59"/>
			
				<polyline fill-rule="evenodd" clip-rule="evenodd" fill="none" stroke="#F2D3BA" stroke-linecap="square" stroke-linejoin="round" stroke-miterlimit="10" points="
				326.75,196.4 335.56,192 339.72,184.79 353.56,178 			"/>
			
				<polyline fill-rule="evenodd" clip-rule="evenodd" fill="none" stroke="#F2D3BA" stroke-linecap="square" stroke-linejoin="round" stroke-miterlimit="10" points="
				326.75,189.65 333.57,186.37 336.85,179.94 345.56,175 			"/>
			
				<polyline fill-rule="evenodd" clip-rule="evenodd" fill="none" stroke="#F2D3BA" stroke-linecap="square" stroke-linejoin="round" stroke-miterlimit="10" points="
				326.56,184 330.16,182.43 332.37,177.5 340.56,173 			"/>
			
				<line fill-rule="evenodd" clip-rule="evenodd" fill="none" stroke="#F2D3BA" stroke-linecap="square" stroke-linejoin="round" stroke-miterlimit="10" x1="329.06" y1="144.5" x2="327.06" y2="145.5"/>
			
				<line fill-rule="evenodd" clip-rule="evenodd" fill="none" stroke="#F2D3BA" stroke-linecap="square" stroke-linejoin="round" stroke-miterlimit="10" x1="334.06" y1="146.5" x2="327.01" y2="149.57"/>
			
				<line fill-rule="evenodd" clip-rule="evenodd" fill="none" stroke="#F2D3BA" stroke-linecap="square" stroke-linejoin="round" stroke-miterlimit="10" x1="334.06" y1="151.5" x2="326.75" y2="156.13"/>
			
				<line fill-rule="evenodd" clip-rule="evenodd" fill="none" stroke="#F2D3BA" stroke-linecap="square" stroke-linejoin="round" stroke-miterlimit="10" x1="334.06" y1="158.5" x2="327.01" y2="161.57"/>
		</g>
		<g>
			<circle fill-rule="evenodd" clip-rule="evenodd" fill="#F2D3BA" cx="331.06" cy="143.5" r="1.5"/>
			<circle fill-rule="evenodd" clip-rule="evenodd" fill="#F2D3BA" cx="336.06" cy="145.5" r="1.5"/>
			<circle fill-rule="evenodd" clip-rule="evenodd" fill="#F2D3BA" cx="336.06" cy="150.5" r="1.5"/>
			<circle fill-rule="evenodd" clip-rule="evenodd" fill="#F2D3BA" cx="336.06" cy="157.5" r="1.5"/>
			<circle fill-rule="evenodd" clip-rule="evenodd" fill="#F2D3BA" cx="342.06" cy="172.5" r="1.5"/>
			<circle fill-rule="evenodd" clip-rule="evenodd" fill="#F2D3BA" cx="347.06" cy="174.5" r="1.5"/>
			<circle fill-rule="evenodd" clip-rule="evenodd" fill="#F2D3BA" cx="355.06" cy="177.5" r="1.5"/>
			<circle fill-rule="evenodd" clip-rule="evenodd" fill="#F2D3BA" cx="345.06" cy="191.5" r="1.5"/>
			<circle fill-rule="evenodd" clip-rule="evenodd" fill="#F2D3BA" cx="342.06" cy="198.5" r="1.5"/>
			<circle fill-rule="evenodd" clip-rule="evenodd" fill="#F2D3BA" cx="348.06" cy="156.5" r="1.5"/>
			<circle fill-rule="evenodd" clip-rule="evenodd" fill="#F2D3BA" cx="351.06" cy="162.5" r="1.5"/>
			<circle fill-rule="evenodd" clip-rule="evenodd" fill="#F2D3BA" cx="355.06" cy="164.5" r="1.5"/>
			<circle fill-rule="evenodd" clip-rule="evenodd" fill="#F2D3BA" cx="359.06" cy="166.5" r="1.5"/>
			<circle fill-rule="evenodd" clip-rule="evenodd" fill="#F2D3BA" cx="369.06" cy="177.5" r="1.5"/>
			<circle fill-rule="evenodd" clip-rule="evenodd" fill="#F2D3BA" cx="365.06" cy="181.5" r="1.5"/>
			<circle fill-rule="evenodd" clip-rule="evenodd" fill="#F2D3BA" cx="375.06" cy="165.5" r="1.5"/>
			<circle fill-rule="evenodd" clip-rule="evenodd" fill="#F2D3BA" cx="378.06" cy="162.5" r="1.5"/>
			<circle fill-rule="evenodd" clip-rule="evenodd" fill="#F2D3BA" cx="377.06" cy="143.5" r="1.5"/>
			<circle fill-rule="evenodd" clip-rule="evenodd" fill="#F2D3BA" cx="367.06" cy="120.5" r="1.5"/>
			<circle fill-rule="evenodd" clip-rule="evenodd" fill="#F2D3BA" cx="364.06" cy="126.5" r="1.5"/>
			<circle fill-rule="evenodd" clip-rule="evenodd" fill="#F2D3BA" cx="361.06" cy="130.5" r="1.5"/>
		</g>
	</g>
	<g>
		<linearGradient id="SVGID_2_" gradientUnits="userSpaceOnUse" x1="387.2866" y1="221.8901" x2="387.2866" y2="50.7148">
			<stop  offset="0" style="stop-color:#CAE4F3;stop-opacity:0.6"/>
			<stop  offset="1" style="stop-color:#BFFFFF;stop-opacity:0"/>
		</linearGradient>
		<polygon fill-rule="evenodd" clip-rule="evenodd" fill="url(#SVGID_2_)" points="307.181,50.715 467.393,66.414 409.56,182 
			323.56,221.89 		"/>
		<linearGradient id="SVGID_3_" gradientUnits="userSpaceOnUse" x1="257.4717" y1="221.958" x2="257.4717" y2="37.0547">
			<stop  offset="0" style="stop-color:#CAE4F3;stop-opacity:0.6"/>
			<stop  offset="1" style="stop-color:#BFFFFF;stop-opacity:0"/>
		</linearGradient>
		<polygon fill-rule="evenodd" clip-rule="evenodd" fill="url(#SVGID_3_)" points="191.043,37.055 309.267,76.424 323.9,221.958 
			239.39,183.48 		"/>
	</g>
</g>
<g>
	
		<polygon opacity="0.5" fill-rule="evenodd" clip-rule="evenodd" fill="none" stroke="#4969B5" stroke-linecap="round" stroke-linejoin="round" stroke-miterlimit="10" points="
		184.268,80.926 219.508,97.886 256.708,80.276 218.838,60.186 	"/>
	<g>
		<polygon fill-rule="evenodd" clip-rule="evenodd" fill="#CCD3EB" points="194.508,55.786 219.488,68.786 245.508,54.786 
			219.328,42.786 		"/>
		<polygon fill-rule="evenodd" clip-rule="evenodd" fill="#B1C3F6" points="194.508,55.786 219.488,68.786 219.508,89.786 
			194.508,75.956 		"/>
		<polygon fill-rule="evenodd" clip-rule="evenodd" fill="#96B2F9" points="245.508,54.786 219.508,68.776 219.508,89.786 
			245.508,75.795 		"/>
		
			<line opacity="0.5" fill-rule="evenodd" clip-rule="evenodd" fill="none" stroke="#FFFFFF" stroke-linecap="round" stroke-linejoin="round" stroke-miterlimit="10" x1="194.808" y1="55.941" x2="218.951" y2="68.506"/>
		
			<line opacity="0.5" fill-rule="evenodd" clip-rule="evenodd" fill="none" stroke="#FFFFFF" stroke-linecap="square" stroke-linejoin="round" stroke-miterlimit="10" x1="245.213" y1="54.945" x2="219.178" y2="68.516"/>
		
			<line fill-rule="evenodd" clip-rule="evenodd" fill="none" stroke="#E4E8F6" stroke-linecap="square" stroke-linejoin="round" stroke-miterlimit="10" x1="219.249" y1="68.846" x2="219.249" y2="89.226"/>
		<polygon fill-rule="evenodd" clip-rule="evenodd" fill="#FFD24D" points="201.508,59.786 214.488,66.786 214.508,82.786 
			211.499,77.206 208.168,79.386 204.548,73.466 201.508,75.806 		"/>
	</g>
	<g>
		<polygon opacity="0.2" fill-rule="evenodd" clip-rule="evenodd" fill="#002CAE" points="219.508,28.786 183.508,47.246 
			183.508,81.866 219.508,98.786 		"/>
		<polygon opacity="0.3" fill-rule="evenodd" clip-rule="evenodd" fill="#002CAE" points="219.508,28.786 256.508,47.246 
			256.508,81.866 219.508,98.786 		"/>
	</g>
</g>
<g>
	
		<polygon opacity="0.5" fill-rule="evenodd" clip-rule="evenodd" fill="none" stroke="#4969B5" stroke-linecap="round" stroke-linejoin="round" stroke-miterlimit="10" points="
		56.248,138.176 91.488,155.136 128.688,137.526 90.818,117.436 	"/>
	<g>
		<polygon fill-rule="evenodd" clip-rule="evenodd" fill="#CCD3EB" points="66.488,113.036 91.468,126.036 117.488,112.036 
			91.308,100.036 		"/>
		<polygon fill-rule="evenodd" clip-rule="evenodd" fill="#B1C3F6" points="66.488,113.036 91.468,126.036 91.488,147.036 
			66.488,133.206 		"/>
		<polygon fill-rule="evenodd" clip-rule="evenodd" fill="#96B2F9" points="117.488,112.036 91.488,126.026 91.488,147.036 
			117.488,133.045 		"/>
		
			<line opacity="0.5" fill-rule="evenodd" clip-rule="evenodd" fill="none" stroke="#FFFFFF" stroke-linecap="round" stroke-linejoin="round" stroke-miterlimit="10" x1="66.787" y1="113.191" x2="90.93" y2="125.756"/>
		
			<line opacity="0.5" fill-rule="evenodd" clip-rule="evenodd" fill="none" stroke="#FFFFFF" stroke-linecap="square" stroke-linejoin="round" stroke-miterlimit="10" x1="117.192" y1="112.195" x2="91.158" y2="125.766"/>
		
			<line fill-rule="evenodd" clip-rule="evenodd" fill="none" stroke="#E4E8F6" stroke-linecap="square" stroke-linejoin="round" stroke-miterlimit="10" x1="91.228" y1="126.096" x2="91.228" y2="146.476"/>
		<polygon fill-rule="evenodd" clip-rule="evenodd" fill="#FFD24D" points="73.488,117.036 86.468,124.036 86.488,140.036 
			83.478,134.456 80.148,136.636 76.528,130.716 73.488,133.056 		"/>
	</g>
	<g>
		<polygon opacity="0.2" fill-rule="evenodd" clip-rule="evenodd" fill="#002CAE" points="91.488,86.036 55.488,104.496 
			55.488,139.116 91.488,156.036 		"/>
		<polygon opacity="0.3" fill-rule="evenodd" clip-rule="evenodd" fill="#002CAE" points="91.488,86.036 128.488,104.496 
			128.488,139.116 91.488,156.036 		"/>
	</g>
</g>
<g>
	
		<polygon opacity="0.5" fill-rule="evenodd" clip-rule="evenodd" fill="none" stroke="#4969B5" stroke-linecap="round" stroke-linejoin="round" stroke-miterlimit="10" points="
		64.729,250.22 99.97,267.18 137.17,249.57 99.3,229.479 	"/>
	<g>
		<polygon fill-rule="evenodd" clip-rule="evenodd" fill="#CCD3EB" points="74.97,225.08 99.95,238.08 125.97,224.08 99.79,212.08 
					"/>
		<polygon fill-rule="evenodd" clip-rule="evenodd" fill="#B1C3F6" points="74.97,225.08 99.95,238.08 99.97,259.08 74.97,245.25 		
			"/>
		<polygon fill-rule="evenodd" clip-rule="evenodd" fill="#96B2F9" points="125.97,224.08 99.97,238.07 99.97,259.08 
			125.97,245.089 		"/>
		
			<line opacity="0.5" fill-rule="evenodd" clip-rule="evenodd" fill="none" stroke="#FFFFFF" stroke-linecap="round" stroke-linejoin="round" stroke-miterlimit="10" x1="75.269" y1="225.235" x2="99.412" y2="237.8"/>
		
			<line opacity="0.5" fill-rule="evenodd" clip-rule="evenodd" fill="none" stroke="#FFFFFF" stroke-linecap="square" stroke-linejoin="round" stroke-miterlimit="10" x1="125.674" y1="224.239" x2="99.64" y2="237.81"/>
		
			<line fill-rule="evenodd" clip-rule="evenodd" fill="none" stroke="#E4E8F6" stroke-linecap="square" stroke-linejoin="round" stroke-miterlimit="10" x1="99.71" y1="238.14" x2="99.71" y2="258.52"/>
		<polygon fill-rule="evenodd" clip-rule="evenodd" fill="#FFD24D" points="81.97,229.08 94.95,236.08 94.97,252.08 91.96,246.5 
			88.63,248.68 85.01,242.76 81.97,245.1 		"/>
	</g>
	<g>
		<polygon opacity="0.2" fill-rule="evenodd" clip-rule="evenodd" fill="#002CAE" points="99.97,198.08 63.97,216.54 63.97,251.16 
			99.97,268.08 		"/>
		<polygon opacity="0.3" fill-rule="evenodd" clip-rule="evenodd" fill="#002CAE" points="99.97,198.08 136.97,216.54 
			136.97,251.16 99.97,268.08 		"/>
	</g>
</g>
<g>
	<g>
		<polygon fill-rule="evenodd" clip-rule="evenodd" fill="#CCD3EB" points="66.968,74.786 91.948,87.786 117.968,73.786 
			91.788,61.786 		"/>
		<polygon fill-rule="evenodd" clip-rule="evenodd" fill="#B1C3F6" points="66.968,74.786 91.948,87.786 91.967,108.786 
			66.968,94.956 		"/>
		<polygon fill-rule="evenodd" clip-rule="evenodd" fill="#96B2F9" points="117.968,73.786 91.967,87.776 91.967,108.786 
			117.968,94.795 		"/>
		
			<line opacity="0.5" fill-rule="evenodd" clip-rule="evenodd" fill="none" stroke="#FFFFFF" stroke-linecap="round" stroke-linejoin="round" stroke-miterlimit="10" x1="67.267" y1="74.941" x2="91.41" y2="87.506"/>
		
			<line opacity="0.5" fill-rule="evenodd" clip-rule="evenodd" fill="none" stroke="#FFFFFF" stroke-linecap="square" stroke-linejoin="round" stroke-miterlimit="10" x1="117.672" y1="73.945" x2="91.637" y2="87.516"/>
		
			<line fill-rule="evenodd" clip-rule="evenodd" fill="none" stroke="#E4E8F6" stroke-linecap="square" stroke-linejoin="round" stroke-miterlimit="10" x1="91.708" y1="87.846" x2="91.708" y2="108.226"/>
		<polygon fill-rule="evenodd" clip-rule="evenodd" fill="#FFD24D" points="73.968,78.786 86.948,85.786 86.968,101.786 
			83.958,96.206 80.628,98.386 77.008,92.466 73.968,94.806 		"/>
	</g>
	<g>
		<polygon opacity="0.2" fill-rule="evenodd" clip-rule="evenodd" fill="#002CAE" points="91.967,47.786 55.968,66.246 
			55.968,100.866 91.967,117.786 		"/>
		<polygon opacity="0.3" fill-rule="evenodd" clip-rule="evenodd" fill="#002CAE" points="91.967,47.786 128.968,66.246 
			128.968,100.866 91.967,117.786 		"/>
	</g>
</g>
<g>
	<g>
		<polygon fill-rule="evenodd" clip-rule="evenodd" fill="#CCD3EB" points="398.04,26.786 423.02,39.786 449.04,25.786 
			422.86,13.786 		"/>
		<polygon fill-rule="evenodd" clip-rule="evenodd" fill="#B1C3F6" points="398.04,26.786 423.02,39.786 423.04,60.786 
			398.04,46.956 		"/>
		<polygon fill-rule="evenodd" clip-rule="evenodd" fill="#96B2F9" points="449.04,25.786 423.04,39.776 423.04,60.786 
			449.04,46.795 		"/>
		
			<line opacity="0.5" fill-rule="evenodd" clip-rule="evenodd" fill="none" stroke="#FFFFFF" stroke-linecap="round" stroke-linejoin="round" stroke-miterlimit="10" x1="398.339" y1="26.941" x2="422.482" y2="39.506"/>
		
			<line opacity="0.5" fill-rule="evenodd" clip-rule="evenodd" fill="none" stroke="#FFFFFF" stroke-linecap="square" stroke-linejoin="round" stroke-miterlimit="10" x1="448.744" y1="25.945" x2="422.709" y2="39.516"/>
		
			<line fill-rule="evenodd" clip-rule="evenodd" fill="none" stroke="#E4E8F6" stroke-linecap="square" stroke-linejoin="round" stroke-miterlimit="10" x1="422.78" y1="39.846" x2="422.78" y2="60.226"/>
		<polygon fill-rule="evenodd" clip-rule="evenodd" fill="#FFD24D" points="405.04,30.786 418.02,37.786 418.04,53.786 
			415.03,48.206 411.7,50.386 408.08,44.466 405.04,46.806 		"/>
	</g>
	<g>
		<polygon opacity="0.2" fill-rule="evenodd" clip-rule="evenodd" fill="#002CAE" points="423.04,-0.214 387.04,18.246 
			387.04,52.866 423.04,69.786 		"/>
		<polygon opacity="0.3" fill-rule="evenodd" clip-rule="evenodd" fill="#002CAE" points="423.04,-0.214 460.04,18.246 
			460.04,52.866 423.04,69.786 		"/>
	</g>
</g>
</svg>
