<?xml version="1.0" encoding="utf-8"?>
<!-- Generator: Adobe Illustrator 16.0.0, SVG Export Plug-In . SVG Version: 6.00 Build 0)  -->
<!DOCTYPE svg PUBLIC "-//W3C//DTD SVG 1.1//EN" "http://www.w3.org/Graphics/SVG/1.1/DTD/svg11.dtd">
<svg version="1.1" id="层_1" xmlns="http://www.w3.org/2000/svg" xmlns:xlink="http://www.w3.org/1999/xlink" x="0px" y="0px"
	 width="627.45px" height="364.25px" viewBox="0 0 627.45 364.25" enable-background="new 0 0 627.45 364.25" xml:space="preserve">
<g>
	
		<line fill-rule="evenodd" clip-rule="evenodd" fill="none" stroke="#F2F2F2" stroke-linecap="square" stroke-miterlimit="10" x1="0" y1="214.95" x2="313.72" y2="355"/>
	
		<line fill-rule="evenodd" clip-rule="evenodd" fill="none" stroke="#F2F2F2" stroke-linecap="square" stroke-miterlimit="10" x1="16.22" y1="171.86" x2="393.72" y2="348.3"/>
	
		<line fill-rule="evenodd" clip-rule="evenodd" fill="none" stroke="#F2F2F2" stroke-linecap="square" stroke-miterlimit="10" x1="61.27" y1="146.07" x2="438.77" y2="322.51"/>
	
		<line fill-rule="evenodd" clip-rule="evenodd" fill="none" stroke="#F2F2F2" stroke-linecap="square" stroke-miterlimit="10" x1="103.48" y1="119.71" x2="482.97" y2="297.77"/>
	
		<line fill-rule="evenodd" clip-rule="evenodd" fill="none" stroke="#F2F2F2" stroke-linecap="square" stroke-miterlimit="10" x1="145.68" y1="94.49" x2="525.14" y2="272.44"/>
	
		<line fill-rule="evenodd" clip-rule="evenodd" fill="none" stroke="#F2F2F2" stroke-linecap="square" stroke-miterlimit="10" x1="187.72" y1="70.31" x2="568.2" y2="248.71"/>
	
		<line fill-rule="evenodd" clip-rule="evenodd" fill="none" stroke="#F2F2F2" stroke-linecap="square" stroke-miterlimit="10" x1="228.95" y1="45.2" x2="610.56" y2="224.04"/>
	
		<line fill-rule="evenodd" clip-rule="evenodd" fill="none" stroke="#F2F2F2" stroke-linecap="square" stroke-miterlimit="10" x1="627.45" y1="208.87" x2="285.78" y2="364.25"/>
	
		<line fill-rule="evenodd" clip-rule="evenodd" fill="none" stroke="#F2F2F2" stroke-linecap="square" stroke-miterlimit="10" x1="582.12" y1="183.86" x2="205.93" y2="357.37"/>
	
		<line fill-rule="evenodd" clip-rule="evenodd" fill="none" stroke="#F2F2F2" stroke-linecap="square" stroke-miterlimit="10" x1="537.06" y1="158.07" x2="161.45" y2="332.16"/>
	
		<line fill-rule="evenodd" clip-rule="evenodd" fill="none" stroke="#F2F2F2" stroke-linecap="square" stroke-miterlimit="10" x1="494.86" y1="131.71" x2="116.37" y2="307.77"/>
	
		<line fill-rule="evenodd" clip-rule="evenodd" fill="none" stroke="#F2F2F2" stroke-linecap="square" stroke-miterlimit="10" x1="452.66" y1="107.06" x2="74.17" y2="282.4"/>
	
		<line fill-rule="evenodd" clip-rule="evenodd" fill="none" stroke="#F2F2F2" stroke-linecap="square" stroke-miterlimit="10" x1="411.23" y1="81.8" x2="31.76" y2="258.13"/>
	
		<line fill-rule="evenodd" clip-rule="evenodd" fill="none" stroke="#F2F2F2" stroke-linecap="square" stroke-miterlimit="10" x1="368.53" y1="57" x2="18.56" y2="216.87"/>
</g>
<polygon fill-rule="evenodd" clip-rule="evenodd" fill="none" stroke="#7E94CA" stroke-width="2" stroke-linecap="round" stroke-linejoin="round" stroke-miterlimit="10" points="
	359.56,195 454.02,242.35 552.56,197 458.46,150.39 "/>
<g>
	
		<line fill-rule="evenodd" clip-rule="evenodd" fill="none" stroke="#7E94CA" stroke-width="2" stroke-linecap="round" stroke-linejoin="round" stroke-miterlimit="10" x1="299.1" y1="121.21" x2="373.95" y2="155.83"/>
	<polygon fill-rule="evenodd" clip-rule="evenodd" fill="#7E94CA" points="389.01,164.61 378.11,151.61 366.79,158.29 	"/>
	<circle fill-rule="evenodd" clip-rule="evenodd" fill="#7E94CA" cx="342.56" cy="141" r="4"/>
</g>
<g>
	<polygon fill-rule="evenodd" clip-rule="evenodd" fill="#DAEAFC" points="386.63,139.62 453.04,174.3 519.55,139.22 452.6,107.82 	
		"/>
	<polygon fill-rule="evenodd" clip-rule="evenodd" fill="#B1D2F8" points="386.66,139.37 452.59,173.46 452.59,229 386.66,193.91 	
		"/>
	<polygon fill-rule="evenodd" clip-rule="evenodd" fill="#81B7F3" points="519.5,138.75 452.59,174.46 452.59,229 519.5,193.28 	"/>
	
		<line opacity="0.5" fill-rule="evenodd" clip-rule="evenodd" fill="none" stroke="#FFFFFF" stroke-linecap="square" stroke-linejoin="round" stroke-miterlimit="10" x1="387.9" y1="139.57" x2="452.91" y2="173.55"/>
	
		<line opacity="0.5" fill-rule="evenodd" clip-rule="evenodd" fill="none" stroke="#FFFFFF" stroke-linecap="square" stroke-linejoin="round" stroke-miterlimit="10" x1="518.74" y1="139.28" x2="452.94" y2="173.58"/>
	
		<line fill-rule="evenodd" clip-rule="evenodd" fill="none" stroke="#CBE1FA" stroke-linecap="square" stroke-linejoin="round" stroke-miterlimit="10" x1="453.12" y1="174.56" x2="453.12" y2="228.34"/>
	<path fill-rule="evenodd" clip-rule="evenodd" fill="#90A8CE" d="M460.51,122.44l28.57,13.5c3.91,2.24,3.17,6.27-1.66,9.01
		l-25.44,12.69c-8.863,4.455-9.39,4.571-15.85,0.92l-29.03-14.68c-3.91-2.24-3.17-6.27,1.66-9.01l25.9-11.51
		C449.49,120.62,456.59,120.21,460.51,122.44z"/>
</g>
<g>
	<rect x="430.56" y="112" fill-rule="evenodd" clip-rule="evenodd" fill="#002040" width="50" height="4"/>
	<rect x="420.56" y="116" fill-rule="evenodd" clip-rule="evenodd" fill="#002040" width="70" height="4"/>
	<path fill-rule="evenodd" clip-rule="evenodd" fill="#002040" d="M411.24,46h87.64c3.69,0,6.68,2.95,6.68,6.6v52.8
		c0,3.65-2.99,6.6-6.68,6.6h-87.64c-3.69,0-6.68-2.95-6.68-6.6V52.6C404.56,48.95,407.55,46,411.24,46z"/>
	<path fill-rule="evenodd" clip-rule="evenodd" fill="#FFFFFF" d="M413.64,49h82.84c3.36,0,6.08,2.69,6.08,6v48
		c0,3.31-2.72,6-6.08,6h-82.84c-3.36,0-6.08-2.69-6.08-6V55C407.56,51.69,410.28,49,413.64,49z"/>
	<g>
		<rect x="432.56" y="70" fill-rule="evenodd" clip-rule="evenodd" fill="#90A8CE" width="4" height="34"/>
		<rect x="448.56" y="72" fill-rule="evenodd" clip-rule="evenodd" fill="#90A8CE" width="4" height="32"/>
		<rect x="464.56" y="80" fill-rule="evenodd" clip-rule="evenodd" fill="#BECCE2" width="4" height="24"/>
		<rect x="456.56" y="64" fill-rule="evenodd" clip-rule="evenodd" fill="#BECCE2" width="4" height="40"/>
		<rect x="472.56" y="60" fill-rule="evenodd" clip-rule="evenodd" fill="#BECCE2" width="4" height="44"/>
		<rect x="480.56" y="62" fill-rule="evenodd" clip-rule="evenodd" fill="#90A8CE" width="4" height="42"/>
		<rect x="440.56" y="78" fill-rule="evenodd" clip-rule="evenodd" fill="#BECCE2" width="4" height="26"/>
		<rect x="424.56" y="74" fill-rule="evenodd" clip-rule="evenodd" fill="#BECCE2" width="4" height="30"/>
	</g>
</g>
<g>
	
		<line fill-rule="evenodd" clip-rule="evenodd" fill="none" stroke="#4969B5" stroke-width="2" stroke-linecap="round" stroke-linejoin="round" stroke-miterlimit="10" x1="239.21" y1="129.94" x2="126.92" y2="182.81"/>
	<polygon fill-rule="evenodd" clip-rule="evenodd" fill="#7E94CA" points="256.29,121.85 244.11,133.61 232.79,126.93 	"/>
</g>
<g>
	
		<polygon fill-rule="evenodd" clip-rule="evenodd" fill="none" stroke="#A6B4D9" stroke-linecap="round" stroke-linejoin="round" stroke-miterlimit="10" points="
		64.92,192.7 100.16,209.66 137.36,192.05 100.94,175.37 	"/>
	<g>
		<polygon fill-rule="evenodd" clip-rule="evenodd" fill="#CCD3EB" points="76.16,151.56 101.14,165.56 127.16,151.56 
			101.16,139.56 		"/>
		<polygon fill-rule="evenodd" clip-rule="evenodd" fill="#B1C3F6" points="76.16,151.56 101.16,164.99 101.16,195.56 
			76.16,181.729 		"/>
		<polygon fill-rule="evenodd" clip-rule="evenodd" fill="#96B2F9" points="127.16,151.56 101.16,165.55 101.16,195.56 
			127.16,181.569 		"/>
		
			<line opacity="0.5" fill-rule="evenodd" clip-rule="evenodd" fill="none" stroke="#FFFFFF" stroke-linecap="round" stroke-linejoin="round" stroke-miterlimit="10" x1="76.645" y1="151.93" x2="100.675" y2="165.28"/>
		
			<line opacity="0.5" fill-rule="evenodd" clip-rule="evenodd" fill="none" stroke="#FFFFFF" stroke-linecap="square" stroke-linejoin="round" stroke-miterlimit="10" x1="126.774" y1="151.768" x2="101.16" y2="164.99"/>
		
			<line opacity="0.5" fill-rule="evenodd" clip-rule="evenodd" fill="none" stroke="#E4E8F6" stroke-linecap="square" stroke-linejoin="round" stroke-miterlimit="10" x1="100.9" y1="165.087" x2="100.9" y2="194"/>
	</g>
	<g>
		<polygon opacity="0.2" fill-rule="evenodd" clip-rule="evenodd" fill="#002CAE" points="101.16,129.56 65.16,148.02 65.16,192.64 
			101.16,209.56 		"/>
		<polygon opacity="0.3" fill-rule="evenodd" clip-rule="evenodd" fill="#002CAE" points="101.16,129.56 138.16,148.02 
			138.16,192.64 101.16,209.56 		"/>
	</g>
</g>
<g>
	
		<polygon fill-rule="evenodd" clip-rule="evenodd" fill="none" stroke="#A6B4D9" stroke-linecap="round" stroke-linejoin="round" stroke-miterlimit="10" points="
		239.94,113.09 275.18,130.05 312.38,112.44 275.96,95.76 	"/>
	<g>
		<polygon fill-rule="evenodd" clip-rule="evenodd" fill="#CCD3EB" points="251.18,71.95 276.16,85.95 302.18,71.95 276.18,59.95 		
			"/>
		<polygon fill-rule="evenodd" clip-rule="evenodd" fill="#B1C3F6" points="251.18,71.95 276.18,85.38 276.18,115.95 251.18,102.12 
					"/>
		<polygon fill-rule="evenodd" clip-rule="evenodd" fill="#96B2F9" points="302.18,71.95 276.18,85.94 276.18,115.95 
			302.18,101.959 		"/>
		
			<line opacity="0.5" fill-rule="evenodd" clip-rule="evenodd" fill="none" stroke="#FFFFFF" stroke-linecap="round" stroke-linejoin="round" stroke-miterlimit="10" x1="251.665" y1="72.32" x2="275.695" y2="85.67"/>
		
			<line opacity="0.5" fill-rule="evenodd" clip-rule="evenodd" fill="none" stroke="#FFFFFF" stroke-linecap="square" stroke-linejoin="round" stroke-miterlimit="10" x1="301.794" y1="72.158" x2="276.18" y2="85.38"/>
		
			<line opacity="0.5" fill-rule="evenodd" clip-rule="evenodd" fill="none" stroke="#E4E8F6" stroke-linecap="square" stroke-linejoin="round" stroke-miterlimit="10" x1="275.92" y1="85.477" x2="275.92" y2="114.39"/>
	</g>
	<g>
		<polygon opacity="0.2" fill-rule="evenodd" clip-rule="evenodd" fill="#002CAE" points="276.18,49.95 240.18,68.41 240.18,113.03 
			276.18,129.95 		"/>
		<polygon opacity="0.3" fill-rule="evenodd" clip-rule="evenodd" fill="#002CAE" points="276.18,49.95 313.18,68.41 313.18,113.03 
			276.18,129.95 		"/>
	</g>
</g>
<g>
	
		<polygon fill-rule="evenodd" clip-rule="evenodd" fill="none" stroke="#A6B4D9" stroke-linecap="round" stroke-linejoin="round" stroke-miterlimit="10" points="
		254.92,299.09 290.16,316.05 327.36,298.44 290.94,281.76 	"/>
	<g>
		<polygon fill-rule="evenodd" clip-rule="evenodd" fill="#CCD3EB" points="266.16,257.95 291.14,271.95 317.16,257.95 
			291.16,245.95 		"/>
		<polygon fill-rule="evenodd" clip-rule="evenodd" fill="#B1C3F6" points="266.16,257.95 291.16,271.38 291.16,301.95 
			266.16,288.12 		"/>
		<polygon fill-rule="evenodd" clip-rule="evenodd" fill="#96B2F9" points="317.16,257.95 291.16,271.94 291.16,301.95 
			317.16,287.96 		"/>
		
			<line opacity="0.5" fill-rule="evenodd" clip-rule="evenodd" fill="none" stroke="#FFFFFF" stroke-linecap="round" stroke-linejoin="round" stroke-miterlimit="10" x1="266.645" y1="258.32" x2="290.675" y2="271.67"/>
		
			<line opacity="0.5" fill-rule="evenodd" clip-rule="evenodd" fill="none" stroke="#FFFFFF" stroke-linecap="square" stroke-linejoin="round" stroke-miterlimit="10" x1="316.774" y1="258.158" x2="291.16" y2="271.38"/>
		
			<line opacity="0.5" fill-rule="evenodd" clip-rule="evenodd" fill="none" stroke="#E4E8F6" stroke-linecap="square" stroke-linejoin="round" stroke-miterlimit="10" x1="290.9" y1="271.478" x2="290.9" y2="300.39"/>
	</g>
	<g>
		<polygon opacity="0.2" fill-rule="evenodd" clip-rule="evenodd" fill="#002CAE" points="291.16,235.95 255.16,254.41 
			255.16,299.03 291.16,315.95 		"/>
		<polygon opacity="0.3" fill-rule="evenodd" clip-rule="evenodd" fill="#002CAE" points="291.16,235.95 328.16,254.41 
			328.16,299.03 291.16,315.95 		"/>
	</g>
</g>
<g>
	
		<path fill-rule="evenodd" clip-rule="evenodd" fill="#333333" stroke="#000000" stroke-width="2" stroke-linecap="round" stroke-linejoin="round" stroke-miterlimit="10" d="
		M259.06,33h35c1.38,0,2.5,1.12,2.5,2.5v5c0,1.38-1.12,2.5-2.5,2.5h-35c-1.38,0-2.5-1.12-2.5-2.5v-5
		C256.56,34.12,257.68,33,259.06,33z"/>
	
		<path fill-rule="evenodd" clip-rule="evenodd" fill="#333333" stroke="#000000" stroke-width="2" stroke-linecap="round" stroke-linejoin="round" stroke-miterlimit="10" d="
		M259.06,46h35c1.38,0,2.5,1.12,2.5,2.5v5c0,1.38-1.12,2.5-2.5,2.5h-35c-1.38,0-2.5-1.12-2.5-2.5v-5
		C256.56,47.12,257.68,46,259.06,46z"/>
	
		<path fill-rule="evenodd" clip-rule="evenodd" fill="#FFFFFF" stroke="#00FF00" stroke-width="2" stroke-linecap="round" stroke-linejoin="round" stroke-miterlimit="10" d="
		M286.56,38c0-1.1,0.9-2,2-2s2,0.9,2,2s-0.9,2-2,2S286.56,39.1,286.56,38z"/>
	
		<path fill-rule="evenodd" clip-rule="evenodd" fill="#FFFFFF" stroke="#00FF00" stroke-width="2" stroke-linecap="round" stroke-linejoin="round" stroke-miterlimit="10" d="
		M286.56,51c0-1.1,0.9-2,2-2s2,0.9,2,2s-0.9,2-2,2S286.56,52.1,286.56,51z"/>
</g>
<g>
	<path fill-rule="evenodd" clip-rule="evenodd" fill="#314F93" d="M277.56,215c0-3.31,2.69-6,6-6s6,2.69,6,6s-2.69,6-6,6
		S277.56,218.31,277.56,215z"/>
	<path fill-rule="evenodd" clip-rule="evenodd" fill="#314F93" d="M293.56,215c0-3.31,2.69-6,6-6s6,2.69,6,6s-2.69,6-6,6
		S293.56,218.31,293.56,215z"/>
	<path fill-rule="evenodd" clip-rule="evenodd" fill="#314F93" d="M297.61,225.03c0,0,8.07-0.02,10.95,1.97s5,4,5,4v6h-12v-7
		L297.61,225.03z"/>
	<path fill-rule="evenodd" clip-rule="evenodd" fill="#314F93" d="M269.56,231v6h28v-6c0,0-1.2-2.38-4-4s-6-2-6-2h-9
		c0,0-4.17,1.42-6,3S269.56,231,269.56,231z"/>
</g>
<g>
	
		<path fill-rule="evenodd" clip-rule="evenodd" fill="#FFFFFF" stroke="#F58A1E" stroke-width="2" stroke-linecap="round" stroke-linejoin="round" stroke-miterlimit="10" d="
		M325.06,115.5c0-9.67,7.83-17.5,17.5-17.5s17.5,7.83,17.5,17.5s-7.83,17.5-17.5,17.5S325.06,125.17,325.06,115.5z"/>
	<circle fill-rule="evenodd" clip-rule="evenodd" fill="#FF9A45" cx="342.56" cy="115.5" r="14.5"/>
	
		<path fill-rule="evenodd" clip-rule="evenodd" fill="none" stroke="#FFFFFF" stroke-linecap="round" stroke-linejoin="round" stroke-miterlimit="10" d="
		M331.06,115.5c0-1.93,5.15-3.5,11.5-3.5s11.5,1.57,11.5,3.5s-5.15,3.5-11.5,3.5S331.06,117.43,331.06,115.5z"/>
	<path fill="#FFFFFF" stroke="#FFFFFF" stroke-linecap="round" stroke-linejoin="round" stroke-miterlimit="10" d="M341.73,108.68
		c0.39-0.16,0.75-0.56,0.72-1.1c-0.04-0.55-0.63-0.72-1.31-0.47c-1.4,0.52-1.74,2.09-1.91,3.64c-0.04,0.45-0.08,0.89-0.12,1.31
		c-0.32,3.23-0.54,5.41-0.35,8.31c0.04,0.59,0.24,1.24-0.19,1.87c-0.8,0.1-0.6-0.4-1.32-0.13c-1.14,0.43-0.85,1.94,0,1.87
		c0.27-0.03,0.49-0.11,0.78-0.26c1.43-0.77,1.57-2.65,1.76-4.54c0.35-3.54,0.5-5.32,0.36-8.64v-0.04c-0.02-0.61-0.16-1.62,0.25-1.85
		C340.8,108.43,341.12,108.92,341.73,108.68z"/>
	<path fill="#FFFFFF" stroke="#FFFFFF" stroke-linecap="round" stroke-linejoin="round" stroke-miterlimit="10" d="M346.68,107.12
		c-1.4,0.51-1.74,2.08-1.91,3.63c-0.05,0.45-0.09,0.89-0.12,1.32c-0.32,3.22-0.55,5.42-0.35,8.32c0.04,0.59,0.24,1.24-0.2,1.87
		c-0.8,0.1-0.59-0.4-1.32-0.13c-1.14,0.43-0.84,1.94,0.01,1.87c0.26-0.03,0.48-0.1,0.78-0.26c1.43-0.77,1.57-2.65,1.76-4.54
		c0.35-3.54,0.49-5.34,0.36-8.66v-0.04c-0.03-0.6-0.16-1.62,0.25-1.84c0.39-0.23,0.72,0.26,1.32,0.02c0.39-0.16,0.76-0.56,0.72-1.1
		C347.94,107.03,347.36,106.87,346.68,107.12z"/>
</g>
<g>
	
		<path fill-rule="evenodd" clip-rule="evenodd" fill="#FFFFFF" stroke="#F58A1E" stroke-width="2" stroke-linecap="round" stroke-linejoin="round" stroke-miterlimit="10" d="
		M413.06,251.5c0-9.67,7.83-17.5,17.5-17.5s17.5,7.83,17.5,17.5s-7.83,17.5-17.5,17.5S413.06,261.17,413.06,251.5z"/>
	<circle fill-rule="evenodd" clip-rule="evenodd" fill="#FF9A45" cx="430.56" cy="251.5" r="14.5"/>
	
		<path fill-rule="evenodd" clip-rule="evenodd" fill="none" stroke="#FFFFFF" stroke-linecap="round" stroke-linejoin="round" stroke-miterlimit="10" d="
		M419.06,251.5c0-1.93,5.15-3.5,11.5-3.5s11.5,1.57,11.5,3.5s-5.15,3.5-11.5,3.5S419.06,253.43,419.06,251.5z"/>
	<path fill="#FFFFFF" stroke="#FFFFFF" stroke-linecap="round" stroke-linejoin="round" stroke-miterlimit="10" d="M429.73,244.68
		c0.39-0.16,0.75-0.56,0.72-1.1c-0.04-0.55-0.63-0.72-1.31-0.47c-1.4,0.52-1.74,2.09-1.91,3.64c-0.04,0.45-0.08,0.89-0.12,1.31
		c-0.32,3.23-0.54,5.41-0.35,8.31c0.04,0.59,0.24,1.24-0.19,1.87c-0.8,0.1-0.6-0.4-1.32-0.13c-1.14,0.43-0.85,1.94,0,1.87
		c0.27-0.03,0.49-0.11,0.78-0.26c1.43-0.77,1.57-2.65,1.76-4.54c0.35-3.54,0.5-5.32,0.36-8.64v-0.04c-0.02-0.61-0.16-1.62,0.25-1.85
		C428.8,244.43,429.12,244.92,429.73,244.68z"/>
	<path fill="#FFFFFF" stroke="#FFFFFF" stroke-linecap="round" stroke-linejoin="round" stroke-miterlimit="10" d="M434.68,243.12
		c-1.4,0.51-1.74,2.08-1.91,3.63c-0.05,0.45-0.09,0.89-0.12,1.32c-0.32,3.22-0.55,5.42-0.35,8.32c0.04,0.59,0.24,1.24-0.2,1.87
		c-0.8,0.1-0.59-0.4-1.32-0.13c-1.14,0.43-0.84,1.94,0.01,1.87c0.26-0.03,0.48-0.1,0.78-0.26c1.43-0.77,1.57-2.65,1.76-4.54
		c0.35-3.54,0.49-5.34,0.36-8.66v-0.04c-0.03-0.6-0.16-1.62,0.25-1.84c0.39-0.23,0.72,0.26,1.32,0.02c0.39-0.16,0.76-0.56,0.72-1.1
		C435.94,243.03,435.36,242.87,434.68,243.12z"/>
</g>
<g>
	<path fill-rule="evenodd" clip-rule="evenodd" fill="#4969B5" d="M105.289,99.443l21.67,9.77c1.49,0.67,1.49,1.77,0,2.44
		l-21.67,9.77c-1.5,0.68-3.92,0.68-5.42,0l-21.67-9.77c-1.49-0.67-1.49-1.77,0-2.44l21.67-9.77
		C101.369,98.763,103.789,98.763,105.289,99.443z"/>
	
		<path fill-rule="evenodd" clip-rule="evenodd" fill="none" stroke="#5C83C8" stroke-width="2" stroke-linecap="round" stroke-linejoin="round" stroke-miterlimit="10" d="
		M126.958,115.213c1.49,0.67,1.49,1.77,0,2.44l-21.67,9.77c-1.5,0.68-3.92,0.68-5.42,0l-21.67-9.77c-1.49-0.67-1.49-1.77,0-2.44"/>
	
		<path fill-rule="evenodd" clip-rule="evenodd" fill="none" stroke="#5C83C8" stroke-width="2" stroke-linecap="round" stroke-linejoin="round" stroke-miterlimit="10" d="
		M126.958,122.213c1.49,0.67,1.49,1.77,0,2.44l-21.67,9.77c-1.5,0.68-3.92,0.68-5.42,0l-21.67-9.77c-1.49-0.67-1.49-1.77,0-2.44"/>
</g>
<g>
	
		<polyline fill-rule="evenodd" clip-rule="evenodd" fill="none" stroke="#8297CB" stroke-width="2" stroke-linecap="round" stroke-linejoin="round" stroke-miterlimit="10" points="
		505.56,219 529.79,230.61 339.06,322 317.55,312.09 	"/>
	<polygon fill-rule="evenodd" clip-rule="evenodd" fill="#7E94CA" points="310.34,308.76 320.68,319.65 332.01,312.97 	"/>
	<circle fill-rule="evenodd" clip-rule="evenodd" fill="#7E94CA" cx="435.56" cy="275" r="4"/>
</g>
<g>
	<linearGradient id="SVGID_1_" gradientUnits="userSpaceOnUse" x1="115.8081" y1="159.5103" x2="115.8081" y2="102.8003">
		<stop  offset="0" style="stop-color:#007FFF;stop-opacity:0.4"/>
		<stop  offset="1" style="stop-color:#BFFFFF;stop-opacity:0"/>
	</linearGradient>
	<polygon fill-rule="evenodd" clip-rule="evenodd" fill="url(#SVGID_1_)" points="95.229,102.8 136.388,113.36 116.829,151.53 
		100.638,159.51 	"/>
	<linearGradient id="SVGID_2_" gradientUnits="userSpaceOnUse" x1="102.48" y1="151.5303" x2="102.48" y2="97.5103">
		<stop  offset="0" style="stop-color:#007FFF;stop-opacity:0.4"/>
		<stop  offset="1" style="stop-color:#BFFFFF;stop-opacity:0"/>
	</linearGradient>
	<polygon fill-rule="evenodd" clip-rule="evenodd" fill="url(#SVGID_2_)" points="62.659,97.67 142.301,97.51 116.829,151.53 
		84.479,150.96 	"/>
	<linearGradient id="SVGID_3_" gradientUnits="userSpaceOnUse" x1="84.9734" y1="159.4502" x2="84.9734" y2="104.7603">
		<stop  offset="0" style="stop-color:#007FFF;stop-opacity:0.4"/>
		<stop  offset="1" style="stop-color:#BFFFFF;stop-opacity:0"/>
	</linearGradient>
	<polygon fill-rule="evenodd" clip-rule="evenodd" fill="url(#SVGID_3_)" points="69.368,104.76 95.778,111.62 100.579,159.45 
		84.298,151.25 	"/>
</g>
<g>
	<linearGradient id="SVGID_4_" gradientUnits="userSpaceOnUse" x1="291.4673" y1="80" x2="291.4673" y2="23.29">
		<stop  offset="0" style="stop-color:#007FFF;stop-opacity:0.4"/>
		<stop  offset="1" style="stop-color:#BFFFFF;stop-opacity:0"/>
	</linearGradient>
	<polygon fill-rule="evenodd" clip-rule="evenodd" fill="url(#SVGID_4_)" points="270.888,23.29 312.047,33.85 292.488,72.02 
		276.297,80 	"/>
	<linearGradient id="SVGID_5_" gradientUnits="userSpaceOnUse" x1="278.1392" y1="72.02" x2="278.1392" y2="18">
		<stop  offset="0" style="stop-color:#007FFF;stop-opacity:0.4"/>
		<stop  offset="1" style="stop-color:#BFFFFF;stop-opacity:0"/>
	</linearGradient>
	<polygon fill-rule="evenodd" clip-rule="evenodd" fill="url(#SVGID_5_)" points="238.318,18.16 317.96,18 292.488,72.02 
		260.138,71.45 	"/>
	<linearGradient id="SVGID_6_" gradientUnits="userSpaceOnUse" x1="260.6323" y1="79.9399" x2="260.6323" y2="25.25">
		<stop  offset="0" style="stop-color:#007FFF;stop-opacity:0.4"/>
		<stop  offset="1" style="stop-color:#BFFFFF;stop-opacity:0"/>
	</linearGradient>
	<polygon fill-rule="evenodd" clip-rule="evenodd" fill="url(#SVGID_6_)" points="245.027,25.25 271.438,32.11 276.238,79.94 
		259.958,71.74 	"/>
</g>
<g>
	<linearGradient id="SVGID_7_" gradientUnits="userSpaceOnUse" x1="306.5532" y1="265" x2="306.5532" y2="208.29">
		<stop  offset="0" style="stop-color:#007FFF;stop-opacity:0.4"/>
		<stop  offset="1" style="stop-color:#BFFFFF;stop-opacity:0"/>
	</linearGradient>
	<polygon fill-rule="evenodd" clip-rule="evenodd" fill="url(#SVGID_7_)" points="285.974,208.29 327.133,218.85 307.574,257.02 
		291.383,265 	"/>
	<linearGradient id="SVGID_8_" gradientUnits="userSpaceOnUse" x1="293.2251" y1="257.02" x2="293.2251" y2="203">
		<stop  offset="0" style="stop-color:#007FFF;stop-opacity:0.4"/>
		<stop  offset="1" style="stop-color:#BFFFFF;stop-opacity:0"/>
	</linearGradient>
	<polygon fill-rule="evenodd" clip-rule="evenodd" fill="url(#SVGID_8_)" points="253.404,203.16 333.046,203 307.574,257.02 
		275.224,256.45 	"/>
	<linearGradient id="SVGID_9_" gradientUnits="userSpaceOnUse" x1="275.7183" y1="264.9399" x2="275.7183" y2="210.25">
		<stop  offset="0" style="stop-color:#007FFF;stop-opacity:0.4"/>
		<stop  offset="1" style="stop-color:#BFFFFF;stop-opacity:0"/>
	</linearGradient>
	<polygon fill-rule="evenodd" clip-rule="evenodd" fill="url(#SVGID_9_)" points="260.113,210.25 286.523,217.11 291.324,264.94 
		275.043,256.74 	"/>
</g>
<g>
	<linearGradient id="SVGID_10_" gradientUnits="userSpaceOnUse" x1="489.1099" y1="162.0952" x2="489.1099" y2="43.8823">
		<stop  offset="0" style="stop-color:#CAE4F3;stop-opacity:0.6"/>
		<stop  offset="1" style="stop-color:#BFFFFF;stop-opacity:0"/>
	</linearGradient>
	<polygon fill-rule="evenodd" clip-rule="evenodd" fill="url(#SVGID_10_)" points="455.56,43.882 525.712,53.29 490.264,143.717 
		452.508,162.095 	"/>
	<linearGradient id="SVGID_11_" gradientUnits="userSpaceOnUse" x1="455.5601" y1="142.563" x2="455.5601" y2="29.9429">
		<stop  offset="0" style="stop-color:#CAE4F3;stop-opacity:0.6"/>
		<stop  offset="1" style="stop-color:#BFFFFF;stop-opacity:0"/>
	</linearGradient>
	<polygon fill-rule="evenodd" clip-rule="evenodd" fill="url(#SVGID_11_)" points="372.321,29.943 538.799,30.062 490.608,142.563 
		414.285,140.567 	"/>
	<linearGradient id="SVGID_12_" gradientUnits="userSpaceOnUse" x1="421.4888" y1="161.5889" x2="421.4888" y2="33.6611">
		<stop  offset="0" style="stop-color:#CAE4F3;stop-opacity:0.6"/>
		<stop  offset="1" style="stop-color:#BFFFFF;stop-opacity:0"/>
	</linearGradient>
	<polygon fill-rule="evenodd" clip-rule="evenodd" fill="url(#SVGID_12_)" points="386.418,33.661 456.56,42.344 452.508,161.589 
		414.396,142.563 	"/>
</g>
</svg>
