<?xml version="1.0" encoding="utf-8"?>
<!-- Generator: Adobe Illustrator 16.0.0, SVG Export Plug-In . SVG Version: 6.00 Build 0)  -->
<!DOCTYPE svg PUBLIC "-//W3C//DTD SVG 1.1//EN" "http://www.w3.org/Graphics/SVG/1.1/DTD/svg11.dtd">
<svg version="1.1" id="层_1" xmlns="http://www.w3.org/2000/svg" xmlns:xlink="http://www.w3.org/1999/xlink" x="0px" y="0px"
	 width="627.45px" height="334.25px" viewBox="0 0 627.45 334.25" enable-background="new 0 0 627.45 334.25" xml:space="preserve">
<g>
	
		<line fill-rule="evenodd" clip-rule="evenodd" fill="none" stroke="#EEEFF0" stroke-linecap="square" stroke-miterlimit="10" x1="0" y1="184.95" x2="313.72" y2="325"/>
	
		<line fill-rule="evenodd" clip-rule="evenodd" fill="none" stroke="#EEEFF0" stroke-linecap="square" stroke-miterlimit="10" x1="16.22" y1="141.86" x2="393.72" y2="318.3"/>
	
		<line fill-rule="evenodd" clip-rule="evenodd" fill="none" stroke="#EEEFF0" stroke-linecap="square" stroke-miterlimit="10" x1="61.27" y1="116.07" x2="438.77" y2="292.51"/>
	
		<line fill-rule="evenodd" clip-rule="evenodd" fill="none" stroke="#EEEFF0" stroke-linecap="square" stroke-miterlimit="10" x1="103.48" y1="89.71" x2="482.97" y2="267.77"/>
	
		<line fill-rule="evenodd" clip-rule="evenodd" fill="none" stroke="#EEEFF0" stroke-linecap="square" stroke-miterlimit="10" x1="145.68" y1="64.49" x2="525.14" y2="242.44"/>
	
		<line fill-rule="evenodd" clip-rule="evenodd" fill="none" stroke="#EEEFF0" stroke-linecap="square" stroke-miterlimit="10" x1="187.72" y1="40.31" x2="568.2" y2="218.71"/>
	
		<line fill-rule="evenodd" clip-rule="evenodd" fill="none" stroke="#EEEFF0" stroke-linecap="square" stroke-miterlimit="10" x1="228.95" y1="15.2" x2="610.56" y2="194.04"/>
	
		<line fill-rule="evenodd" clip-rule="evenodd" fill="none" stroke="#EEEFF0" stroke-linecap="square" stroke-miterlimit="10" x1="627.45" y1="178.87" x2="285.78" y2="334.25"/>
	
		<line fill-rule="evenodd" clip-rule="evenodd" fill="none" stroke="#EEEFF0" stroke-linecap="square" stroke-miterlimit="10" x1="582.12" y1="153.86" x2="205.93" y2="327.37"/>
	
		<line fill-rule="evenodd" clip-rule="evenodd" fill="none" stroke="#EEEFF0" stroke-linecap="square" stroke-miterlimit="10" x1="537.06" y1="128.07" x2="161.45" y2="302.16"/>
	
		<line fill-rule="evenodd" clip-rule="evenodd" fill="none" stroke="#EEEFF0" stroke-linecap="square" stroke-miterlimit="10" x1="494.86" y1="101.71" x2="116.37" y2="277.77"/>
	
		<line fill-rule="evenodd" clip-rule="evenodd" fill="none" stroke="#EEEFF0" stroke-linecap="square" stroke-miterlimit="10" x1="452.66" y1="77.06" x2="74.17" y2="252.4"/>
	
		<line fill-rule="evenodd" clip-rule="evenodd" fill="none" stroke="#EEEFF0" stroke-linecap="square" stroke-miterlimit="10" x1="411.23" y1="51.8" x2="31.76" y2="228.13"/>
	
		<line fill-rule="evenodd" clip-rule="evenodd" fill="none" stroke="#EEEFF0" stroke-linecap="square" stroke-miterlimit="10" x1="368.53" y1="27" x2="18.56" y2="186.87"/>
</g>
<polygon fill-rule="evenodd" clip-rule="evenodd" fill="none" stroke="#A3B2D8" stroke-width="2" stroke-linecap="round" stroke-linejoin="round" stroke-miterlimit="10" points="
	71.22,188.81 311.74,299.16 549.56,185 309.56,83 "/>
<polyline fill-rule="evenodd" clip-rule="evenodd" fill="none" stroke="#A2B2D8" stroke-width="2" stroke-linecap="round" stroke-linejoin="round" stroke-miterlimit="10" points="
	188.44,244.07 168.23,253 34.56,189 110.56,153 "/>
<line fill-rule="evenodd" clip-rule="evenodd" fill="none" stroke="#A8B6DA" stroke-width="2" stroke-linecap="round" stroke-linejoin="round" stroke-miterlimit="10" x1="429.58" y1="132.9" x2="462.88" y2="117.25"/>
<line fill-rule="evenodd" clip-rule="evenodd" fill="none" stroke="#A5B3D9" stroke-width="2" stroke-linecap="round" stroke-linejoin="round" stroke-miterlimit="10" x1="431.06" y1="242.5" x2="500.06" y2="278.5"/>
<g>
	<polygon fill-rule="evenodd" clip-rule="evenodd" fill="#D8DDEC" points="136.487,197.84 309.567,278.48 482.007,197.331 
		309.137,116.931 	"/>
	
		<polygon opacity="0.6" fill-rule="evenodd" clip-rule="evenodd" fill="none" stroke="#4969B5" stroke-linecap="round" stroke-linejoin="round" stroke-miterlimit="10" points="
		137.487,176.84 310.567,257.48 483.857,178.53 310.567,97.931 	"/>
	
		<polygon opacity="0.5" fill-rule="evenodd" clip-rule="evenodd" fill="none" stroke="#4969B5" stroke-linecap="round" stroke-linejoin="round" stroke-miterlimit="10" points="
		137.487,184.84 310.567,265.48 483.857,186.53 310.567,105.931 	"/>
	
		<polygon opacity="0.4" fill-rule="evenodd" clip-rule="evenodd" fill="none" stroke="#4969B5" stroke-linecap="round" stroke-linejoin="round" stroke-miterlimit="10" points="
		137.487,193.84 310.567,274.48 483.857,195.53 310.567,114.931 	"/>
	<polygon opacity="0.4" fill-rule="evenodd" clip-rule="evenodd" fill="#50A7D6" points="137.487,169.84 310.567,250.48 
		483.627,169.55 310.567,90.36 	"/>
	<polygon opacity="0.2" fill-rule="evenodd" clip-rule="evenodd" fill="#00468C" points="137.087,169.48 309.978,250.081 
		309.978,278.621 137.087,198.021 	"/>
	<polygon opacity="0.2" fill-rule="evenodd" clip-rule="evenodd" fill="#00468C" points="484.007,169.601 310.087,251 
		310.087,279.541 484.047,196.391 	"/>
</g>
<g>
	<polygon fill-rule="evenodd" clip-rule="evenodd" fill="#DAEAFC" points="243.6,127.62 310.01,162.3 376.52,127.22 309.57,95.82 	
		"/>
	<polygon fill-rule="evenodd" clip-rule="evenodd" fill="#B1D2F8" points="243.63,127.37 309.56,161.46 309.56,217 243.63,181.91 	
		"/>
	<polygon fill-rule="evenodd" clip-rule="evenodd" fill="#81B7F3" points="376.47,126.75 309.56,162.46 309.56,217 376.47,181.28 	
		"/>
	
		<line opacity="0.5" fill-rule="evenodd" clip-rule="evenodd" fill="none" stroke="#FFFFFF" stroke-linecap="square" stroke-linejoin="round" stroke-miterlimit="10" x1="244.87" y1="127.57" x2="309.88" y2="161.55"/>
	
		<line opacity="0.5" fill-rule="evenodd" clip-rule="evenodd" fill="none" stroke="#FFFFFF" stroke-linecap="square" stroke-linejoin="round" stroke-miterlimit="10" x1="375.71" y1="127.28" x2="309.91" y2="161.58"/>
	
		<line fill-rule="evenodd" clip-rule="evenodd" fill="none" stroke="#CBE1FA" stroke-linecap="square" stroke-linejoin="round" stroke-miterlimit="10" x1="310.09" y1="162.56" x2="310.09" y2="216.34"/>
	<path fill-rule="evenodd" clip-rule="evenodd" fill="#90A8CE" d="M317.48,110.44l28.57,13.5c3.91,2.24,3.17,6.27-1.66,9.01
		l-25.44,12.69c-8.863,4.455-9.39,4.571-15.85,0.92l-29.03-14.68c-3.91-2.24-3.17-6.27,1.66-9.01l25.9-11.51
		C306.46,108.62,313.56,108.21,317.48,110.44z"/>
</g>
<g>
	
		<path fill-rule="evenodd" clip-rule="evenodd" fill="#5175B7" stroke="#5175B7" stroke-width="2" stroke-linecap="round" stroke-linejoin="round" stroke-miterlimit="10" d="
		M110.535,68h8.4c1.55,0,2.8,1.25,2.8,2.8v8.4c0,1.55-1.25,2.8-2.8,2.8h-8.4c-1.55,0-2.8-1.25-2.8-2.8v-8.4
		C107.735,69.25,108.985,68,110.535,68z"/>
	
		<path fill-rule="evenodd" clip-rule="evenodd" fill="#5175B7" stroke="#5175B7" stroke-width="2" stroke-linecap="round" stroke-linejoin="round" stroke-miterlimit="10" d="
		M110.535,89h8.4c1.55,0,2.8,1.25,2.8,2.8v8.4c0,1.55-1.25,2.8-2.8,2.8h-8.4c-1.55,0-2.8-1.25-2.8-2.8v-8.4
		C107.735,90.25,108.985,89,110.535,89z"/>
	
		<path fill-rule="evenodd" clip-rule="evenodd" fill="#5175B7" stroke="#5175B7" stroke-width="2" stroke-linecap="round" stroke-linejoin="round" stroke-miterlimit="10" d="
		M130.535,89h8.4c1.55,0,2.8,1.25,2.8,2.8v8.4c0,1.55-1.25,2.8-2.8,2.8h-8.4c-1.55,0-2.8-1.25-2.8-2.8v-8.4
		C127.735,90.25,128.985,89,130.535,89z"/>
	
		<line fill-rule="evenodd" clip-rule="evenodd" fill="none" stroke="#5175B7" stroke-width="2" stroke-linecap="round" stroke-linejoin="round" stroke-miterlimit="10" x1="127.305" y1="74.42" x2="133.235" y2="67.5"/>
	
		<line fill-rule="evenodd" clip-rule="evenodd" fill="none" stroke="#5175B7" stroke-width="2" stroke-linecap="round" stroke-linejoin="round" stroke-miterlimit="10" x1="135.235" y1="67.5" x2="141.715" y2="73.68"/>
	
		<line fill-rule="evenodd" clip-rule="evenodd" fill="none" stroke="#5175B7" stroke-width="2" stroke-linecap="round" stroke-linejoin="round" stroke-miterlimit="10" x1="134.735" y1="68" x2="134.735" y2="82"/>
</g>
<g>
	<path fill-rule="evenodd" clip-rule="evenodd" fill="#5175B7" d="M507.66,227.14c0,0,6.66,4.73,9.9,4.86s19-7,19-7s0.37-0.8,0-1.95
		c-0.47-1.47-4.05-0.96-4.05-0.96s-9.27,3.23-11.95,2.91s1.39-1.95,1.39-1.95s3.3-3.18-2.39-3.05c-2.71,0.06-8.16,0.01-8.16,0.01
		s-0.62-0.96-3.71-0.92C506.41,219.1,507.66,227.14,507.66,227.14z"/>
	<path fill-rule="evenodd" clip-rule="evenodd" fill="#5175B7" d="M503.96,217h1.2c1.33,0,2.4,1.07,2.4,2.4v7.2
		c0,1.33-1.07,2.4-2.4,2.4h-1.2c-1.33,0-2.4-1.07-2.4-2.4v-7.2C501.56,218.07,502.63,217,503.96,217z"/>
	<path fill-rule="evenodd" clip-rule="evenodd" fill="#FF4000" d="M520.56,217c0,0,11.04-8.04,10.99-13.05
		c-0.04-4.97-2.99-6.97-5.99-6.95s-5,3-5,3s-2.33-3.37-5-3s-5.98,1.95-5.98,6.85C509.58,206.99,520.56,217,520.56,217z"/>
</g>
<g>
	
		<ellipse fill-rule="evenodd" clip-rule="evenodd" fill="#FFFFFF" stroke="#F58A1E" stroke-width="5" stroke-linecap="round" stroke-linejoin="round" stroke-miterlimit="10" cx="310.56" cy="55.5" rx="43" ry="42.5"/>
	<path fill-rule="evenodd" clip-rule="evenodd" fill="#FF9A45" d="M274.93,55.5c0-19.45,15.95-35.21,35.63-35.21
		s35.63,15.76,35.63,35.21s-15.95,35.21-35.63,35.21S274.93,74.95,274.93,55.5z"/>
	
		<path fill-rule="evenodd" clip-rule="evenodd" fill="none" stroke="#FFFFFF" stroke-width="3" stroke-linecap="round" stroke-linejoin="round" stroke-miterlimit="10" d="
		M282.3,55.5c0-4.69,12.65-8.5,28.26-8.5s28.26,3.81,28.26,8.5S326.17,64,310.56,64S282.3,60.19,282.3,55.5z"/>
	
		<path fill="#FFFFFF" stroke="#FFFFFF" stroke-width="3" stroke-linecap="round" stroke-linejoin="round" stroke-miterlimit="10" d="
		M308.51,38.93c0.96-0.37,1.86-1.35,1.77-2.67c-0.1-1.33-1.53-1.73-3.2-1.13c-3.44,1.25-4.28,5.06-4.69,8.83
		c-0.12,1.09-0.21,2.18-0.31,3.19c-0.78,7.83-1.33,13.15-0.86,20.17c0.1,1.44,0.6,3.01-0.47,4.54c-1.97,0.26-1.46-0.96-3.25-0.3
		c-2.8,1.05-2.07,4.7,0.02,4.53c0.65-0.06,1.19-0.25,1.91-0.63c3.51-1.86,3.86-6.44,4.32-11.03c0.86-8.59,1.23-12.91,0.9-20.98
		v-0.09c-0.07-1.47-0.39-3.93,0.61-4.49C306.23,38.33,307.03,39.52,308.51,38.93z"/>
	
		<path fill="#FFFFFF" stroke="#FFFFFF" stroke-width="3" stroke-linecap="round" stroke-linejoin="round" stroke-miterlimit="10" d="
		M320.68,35.14c-3.44,1.24-4.28,5.05-4.69,8.83c-0.12,1.09-0.21,2.17-0.31,3.19c-0.78,7.82-1.33,13.18-0.86,20.21
		c0.1,1.44,0.61,3.01-0.47,4.54c-1.96,0.26-1.46-0.96-3.25-0.3c-2.79,1.05-2.08,4.7,0.03,4.53c0.64-0.06,1.18-0.25,1.91-0.63
		c3.51-1.87,3.85-6.44,4.32-11.03c0.86-8.59,1.21-12.96,0.89-21.03v-0.09c-0.07-1.47-0.39-3.93,0.61-4.48
		c0.97-0.55,1.77,0.65,3.26,0.05c0.96-0.37,1.86-1.35,1.76-2.67C323.79,34.94,322.36,34.53,320.68,35.14z"/>
</g>
<g>
	
		<path fill-rule="evenodd" clip-rule="evenodd" fill="#5175B7" stroke="#5175B7" stroke-width="2" stroke-linecap="round" stroke-linejoin="round" stroke-miterlimit="10" d="
		M456.406,39h8c1.1,0,2,0.9,2,2v4c0,1.1-0.9,2-2,2h-8c-1.1,0-2-0.9-2-2v-4C454.406,39.9,455.306,39,456.406,39z"/>
	
		<path fill-rule="evenodd" clip-rule="evenodd" fill="#5175B7" stroke="#5175B7" stroke-width="2" stroke-linecap="round" stroke-linejoin="round" stroke-miterlimit="10" d="
		M480.406,48h8c1.1,0,2,0.9,2,2v4c0,1.1-0.9,2-2,2h-8c-1.1,0-2-0.9-2-2v-4C478.406,48.9,479.306,48,480.406,48z"/>
	
		<path fill-rule="evenodd" clip-rule="evenodd" fill="#5175B7" stroke="#5175B7" stroke-width="2" stroke-linecap="round" stroke-linejoin="round" stroke-miterlimit="10" d="
		M480.406,65h8c1.1,0,2,0.9,2,2v4c0,1.1-0.9,2-2,2h-8c-1.1,0-2-0.9-2-2v-4C478.406,65.9,479.306,65,480.406,65z"/>
	
		<path fill-rule="evenodd" clip-rule="evenodd" fill="none" stroke="#5175B7" stroke-width="2" stroke-linecap="round" stroke-linejoin="round" stroke-miterlimit="10" d="
		M479.666,69h-16.56c-1.49,0-2.7-1.21-2.7-2.7V46.7"/>
</g>
<g>
	<polygon fill-rule="evenodd" clip-rule="evenodd" fill="#B5C2E0" points="528.57,168.006 545.06,176.726 561.57,167.906 
		544.95,160.016 	"/>
	<polygon fill-rule="evenodd" clip-rule="evenodd" fill="#B1C3F6" points="528.58,167.946 544.95,176.516 544.95,196.016 
		528.58,187.196 	"/>
	<polygon fill-rule="evenodd" clip-rule="evenodd" fill="#96B2F9" points="561.56,167.786 544.95,176.766 544.95,196.016 
		561.56,187.036 	"/>
	
		<line opacity="0.5" fill-rule="evenodd" clip-rule="evenodd" fill="none" stroke="#FFFFFF" stroke-linecap="square" stroke-linejoin="round" stroke-miterlimit="10" x1="528.89" y1="167.996" x2="545.02" y2="176.536"/>
	
		<line opacity="0.5" fill-rule="evenodd" clip-rule="evenodd" fill="none" stroke="#FFFFFF" stroke-linecap="square" stroke-linejoin="round" stroke-miterlimit="10" x1="561.37" y1="167.926" x2="545.03" y2="176.546"/>
	
		<line fill-rule="evenodd" clip-rule="evenodd" fill="none" stroke="#BBC9F0" stroke-linecap="square" stroke-linejoin="round" stroke-miterlimit="10" x1="545.08" y1="177.065" x2="545.02" y2="194.865"/>
</g>
<g>
	<path fill-rule="evenodd" clip-rule="evenodd" fill="#64977D" d="M536.56,168c0-2.76,3.81-5,8.5-5s8.5,2.24,8.5,5s-3.81,5-8.5,5
		S536.56,170.76,536.56,168z"/>
	<polygon fill-rule="evenodd" clip-rule="evenodd" fill="#64977D" points="544.56,146 553.56,168 536.56,168 	"/>
</g>
<g>
	<polygon fill-rule="evenodd" clip-rule="evenodd" fill="#B5C2E0" points="59.56,169.99 76.05,178.71 92.56,169.89 75.94,162 	"/>
	<polygon fill-rule="evenodd" clip-rule="evenodd" fill="#B1C3F6" points="59.57,169.93 75.94,178.5 75.94,198 59.57,189.18 	"/>
	<polygon fill-rule="evenodd" clip-rule="evenodd" fill="#96B2F9" points="92.55,169.77 75.94,178.75 75.94,198 92.55,189.02 	"/>
	
		<line opacity="0.5" fill-rule="evenodd" clip-rule="evenodd" fill="none" stroke="#FFFFFF" stroke-linecap="square" stroke-linejoin="round" stroke-miterlimit="10" x1="59.88" y1="169.98" x2="76.01" y2="178.52"/>
	
		<line opacity="0.5" fill-rule="evenodd" clip-rule="evenodd" fill="none" stroke="#FFFFFF" stroke-linecap="square" stroke-linejoin="round" stroke-miterlimit="10" x1="92.36" y1="169.91" x2="76.02" y2="178.53"/>
	
		<line fill-rule="evenodd" clip-rule="evenodd" fill="none" stroke="#BBC9F0" stroke-linecap="square" stroke-linejoin="round" stroke-miterlimit="10" x1="76.07" y1="179.049" x2="76.01" y2="197.849"/>
</g>
<g>
	<path fill-rule="evenodd" clip-rule="evenodd" fill="#82A1D7" d="M69.39,165.52l13.78,6.47c0,0,3.69,1.64,4.3-1.97
		c0.78-4.58-3.97-8.2-3.97-8.2s-1.81-7.71-5.95-9.84c-6.11-3.14-6.62,2.29-6.62,2.29s-3.57-0.57-4.04,1.06
		C65.6,159.84,69.39,165.52,69.39,165.52z"/>
	<path fill-rule="evenodd" clip-rule="evenodd" fill="#3C6CC1" d="M66.8,167.65l14.06,5.98c0,0,3.69,1.64,4.3-1.97
		c0.77-4.58-3.97-8.2-3.97-8.2s-1.81-7.71-5.96-9.84c-6.11-3.14-6.62,2.29-6.62,2.29s-4.19,0.22-4.86,2.96
		C62.63,163.43,66.8,167.65,66.8,167.65z"/>
</g>
<g>
	<polygon fill-rule="evenodd" clip-rule="evenodd" fill="#B5C2E0" points="295.172,278.096 311.663,286.816 328.172,277.996 
		311.552,270.106 	"/>
	<polygon fill-rule="evenodd" clip-rule="evenodd" fill="#B1C3F6" points="295.182,278.036 311.552,286.606 311.552,306.106 
		295.182,297.286 	"/>
	<polygon fill-rule="evenodd" clip-rule="evenodd" fill="#96B2F9" points="328.163,277.876 311.552,286.856 311.552,306.106 
		328.163,297.126 	"/>
	
		<line opacity="0.5" fill-rule="evenodd" clip-rule="evenodd" fill="none" stroke="#FFFFFF" stroke-linecap="square" stroke-linejoin="round" stroke-miterlimit="10" x1="295.493" y1="278.086" x2="311.623" y2="286.626"/>
	
		<line opacity="0.5" fill-rule="evenodd" clip-rule="evenodd" fill="none" stroke="#FFFFFF" stroke-linecap="square" stroke-linejoin="round" stroke-miterlimit="10" x1="327.972" y1="278.016" x2="311.632" y2="286.636"/>
	
		<line fill-rule="evenodd" clip-rule="evenodd" fill="none" stroke="#BBC9F0" stroke-linecap="square" stroke-linejoin="round" stroke-miterlimit="10" x1="311.682" y1="287.155" x2="311.623" y2="304.955"/>
</g>
<g>
	<path fill-rule="evenodd" clip-rule="evenodd" fill="#C59554" d="M306.56,278c0-1.66,2.46-3,5.5-3s5.5,1.34,5.5,3s-2.46,3-5.5,3
		S306.56,279.66,306.56,278z"/>
	<rect x="306.56" y="261" fill-rule="evenodd" clip-rule="evenodd" fill="#C59554" width="11" height="17"/>
	<path fill-rule="evenodd" clip-rule="evenodd" fill="#FFDC73" d="M306.56,261c0-1.66,2.46-3,5.5-3s5.5,1.34,5.5,3s-2.46,3-5.5,3
		S306.56,262.66,306.56,261z"/>
</g>
<g>
	
		<polygon fill-rule="evenodd" clip-rule="evenodd" fill="none" stroke="#A6B4D9" stroke-linecap="round" stroke-linejoin="round" stroke-miterlimit="10" points="
		482.127,290.141 517.368,307.101 554.568,289.491 518.147,272.811 	"/>
	<g>
		<polygon fill-rule="evenodd" clip-rule="evenodd" fill="#CCD3EB" points="493.368,249 518.348,263 544.368,249 518.368,237 		"/>
		<polygon fill-rule="evenodd" clip-rule="evenodd" fill="#B1C3F6" points="493.368,249 518.368,262.431 518.368,293 
			493.368,279.17 		"/>
		<polygon fill-rule="evenodd" clip-rule="evenodd" fill="#96B2F9" points="544.368,249 518.368,262.991 518.368,293 
			544.368,279.01 		"/>
		
			<line opacity="0.5" fill-rule="evenodd" clip-rule="evenodd" fill="none" stroke="#FFFFFF" stroke-linecap="round" stroke-linejoin="round" stroke-miterlimit="10" x1="493.853" y1="249.371" x2="517.883" y2="262.721"/>
		
			<line opacity="0.5" fill-rule="evenodd" clip-rule="evenodd" fill="none" stroke="#FFFFFF" stroke-linecap="square" stroke-linejoin="round" stroke-miterlimit="10" x1="543.981" y1="249.208" x2="518.368" y2="262.431"/>
		
			<line opacity="0.5" fill-rule="evenodd" clip-rule="evenodd" fill="none" stroke="#E4E8F6" stroke-linecap="square" stroke-linejoin="round" stroke-miterlimit="10" x1="518.108" y1="262.528" x2="518.108" y2="291.44"/>
	</g>
	<g>
		<polygon opacity="0.2" fill-rule="evenodd" clip-rule="evenodd" fill="#002CAE" points="518.368,227 482.368,245.46 
			482.368,290.081 518.368,307 		"/>
		<polygon opacity="0.3" fill-rule="evenodd" clip-rule="evenodd" fill="#002CAE" points="518.368,227 555.368,245.46 
			555.368,290.081 518.368,307 		"/>
	</g>
</g>
<g>
	<linearGradient id="SVGID_1_" gradientUnits="userSpaceOnUse" x1="533.3687" y1="256.5454" x2="533.3687" y2="199.8354">
		<stop  offset="0" style="stop-color:#007FFF;stop-opacity:0.4"/>
		<stop  offset="1" style="stop-color:#BFFFFF;stop-opacity:0"/>
	</linearGradient>
	<polygon fill-rule="evenodd" clip-rule="evenodd" fill="url(#SVGID_1_)" points="512.789,199.835 553.949,210.396 534.389,248.565 
		518.199,256.545 	"/>
	<linearGradient id="SVGID_2_" gradientUnits="userSpaceOnUse" x1="520.0405" y1="248.5654" x2="520.0405" y2="194.5454">
		<stop  offset="0" style="stop-color:#007FFF;stop-opacity:0.4"/>
		<stop  offset="1" style="stop-color:#BFFFFF;stop-opacity:0"/>
	</linearGradient>
	<polygon fill-rule="evenodd" clip-rule="evenodd" fill="url(#SVGID_2_)" points="480.219,194.706 559.862,194.545 534.389,248.565 
		502.039,247.996 	"/>
	<linearGradient id="SVGID_3_" gradientUnits="userSpaceOnUse" x1="502.5337" y1="256.4854" x2="502.5337" y2="201.7954">
		<stop  offset="0" style="stop-color:#007FFF;stop-opacity:0.4"/>
		<stop  offset="1" style="stop-color:#BFFFFF;stop-opacity:0"/>
	</linearGradient>
	<polygon fill-rule="evenodd" clip-rule="evenodd" fill="url(#SVGID_3_)" points="486.929,201.795 513.339,208.655 518.139,256.485 
		501.859,248.286 	"/>
</g>
<g>
	
		<polygon fill-rule="evenodd" clip-rule="evenodd" fill="none" stroke="#A6B4D9" stroke-linecap="round" stroke-linejoin="round" stroke-miterlimit="10" points="
		451.844,110.704 474.286,121.504 497.976,110.29 474.782,99.667 	"/>
	<g>
		<polygon fill-rule="evenodd" clip-rule="evenodd" fill="#CCD3EB" points="459.002,84.505 474.909,93.42 491.479,84.505 
			474.922,76.863 		"/>
		<polygon fill-rule="evenodd" clip-rule="evenodd" fill="#B1C3F6" points="459.002,84.505 474.922,93.058 474.922,112.525 
			459.002,103.718 		"/>
		<polygon fill-rule="evenodd" clip-rule="evenodd" fill="#96B2F9" points="491.479,84.505 474.922,93.414 474.922,112.525 
			491.479,103.616 		"/>
		
			<line opacity="0.5" fill-rule="evenodd" clip-rule="evenodd" fill="none" stroke="#FFFFFF" stroke-linecap="round" stroke-linejoin="round" stroke-miterlimit="10" x1="459.311" y1="84.741" x2="474.614" y2="93.243"/>
		
			<line opacity="0.5" fill-rule="evenodd" clip-rule="evenodd" fill="none" stroke="#FFFFFF" stroke-linecap="square" stroke-linejoin="round" stroke-miterlimit="10" x1="491.233" y1="84.638" x2="474.922" y2="93.058"/>
		
			<line opacity="0.5" fill-rule="evenodd" clip-rule="evenodd" fill="none" stroke="#E4E8F6" stroke-linecap="square" stroke-linejoin="round" stroke-miterlimit="10" x1="474.757" y1="93.12" x2="474.757" y2="111.532"/>
	</g>
	<g>
		<polygon opacity="0.2" fill-rule="evenodd" clip-rule="evenodd" fill="#002CAE" points="474.922,70.495 451.997,82.251 
			451.997,110.666 474.922,121.441 		"/>
		<polygon opacity="0.3" fill-rule="evenodd" clip-rule="evenodd" fill="#002CAE" points="474.922,70.495 498.485,82.251 
			498.485,110.666 474.922,121.441 		"/>
	</g>
</g>
<g>
	<linearGradient id="SVGID_4_" gradientUnits="userSpaceOnUse" x1="486.7251" y1="91.1196" x2="486.7251" y2="47.0142">
		<stop  offset="0" style="stop-color:#007FFF;stop-opacity:0.4"/>
		<stop  offset="1" style="stop-color:#BFFFFF;stop-opacity:0"/>
	</linearGradient>
	<polygon fill-rule="evenodd" clip-rule="evenodd" fill="url(#SVGID_4_)" points="470.719,47.014 502.73,55.227 487.519,84.914 
		474.927,91.12 	"/>
	<linearGradient id="SVGID_5_" gradientUnits="userSpaceOnUse" x1="475.9463" y1="84.9136" x2="475.9463" y2="42.8999">
		<stop  offset="0" style="stop-color:#007FFF;stop-opacity:0.4"/>
		<stop  offset="1" style="stop-color:#BFFFFF;stop-opacity:0"/>
	</linearGradient>
	<polygon fill-rule="evenodd" clip-rule="evenodd" fill="url(#SVGID_5_)" points="445.021,42.9 506.872,42.9 487.519,84.914 
		462.358,84.471 	"/>
	<linearGradient id="SVGID_6_" gradientUnits="userSpaceOnUse" x1="462.7432" y1="91.0732" x2="462.7432" y2="48.5381">
		<stop  offset="0" style="stop-color:#007FFF;stop-opacity:0.4"/>
		<stop  offset="1" style="stop-color:#BFFFFF;stop-opacity:0"/>
	</linearGradient>
	<polygon fill-rule="evenodd" clip-rule="evenodd" fill="url(#SVGID_6_)" points="450.606,48.538 471.147,53.874 474.88,91.073 
		462.218,84.696 	"/>
</g>
<g>
	
		<polygon fill-rule="evenodd" clip-rule="evenodd" fill="none" stroke="#A6B4D9" stroke-linecap="round" stroke-linejoin="round" stroke-miterlimit="10" points="
		101.239,147.604 123.681,158.405 147.371,147.19 124.178,136.568 	"/>
	<g>
		<polygon fill-rule="evenodd" clip-rule="evenodd" fill="#CCD3EB" points="108.397,121.405 124.305,130.321 140.875,121.405 
			124.318,113.764 		"/>
		<polygon fill-rule="evenodd" clip-rule="evenodd" fill="#B1C3F6" points="108.397,121.405 124.318,129.958 124.318,149.426 
			108.397,140.619 		"/>
		<polygon fill-rule="evenodd" clip-rule="evenodd" fill="#96B2F9" points="140.875,121.405 124.318,130.314 124.318,149.426 
			140.875,140.516 		"/>
		
			<line opacity="0.5" fill-rule="evenodd" clip-rule="evenodd" fill="none" stroke="#FFFFFF" stroke-linecap="round" stroke-linejoin="round" stroke-miterlimit="10" x1="108.706" y1="121.641" x2="124.009" y2="130.143"/>
		
			<line opacity="0.5" fill-rule="evenodd" clip-rule="evenodd" fill="none" stroke="#FFFFFF" stroke-linecap="square" stroke-linejoin="round" stroke-miterlimit="10" x1="140.629" y1="121.538" x2="124.318" y2="129.958"/>
		
			<line opacity="0.5" fill-rule="evenodd" clip-rule="evenodd" fill="none" stroke="#E4E8F6" stroke-linecap="square" stroke-linejoin="round" stroke-miterlimit="10" x1="124.152" y1="130.02" x2="124.152" y2="148.432"/>
	</g>
	<g>
		<polygon opacity="0.2" fill-rule="evenodd" clip-rule="evenodd" fill="#002CAE" points="124.318,107.396 101.392,119.151 
			101.392,147.566 124.318,158.341 		"/>
		<polygon opacity="0.3" fill-rule="evenodd" clip-rule="evenodd" fill="#002CAE" points="124.318,107.396 147.88,119.151 
			147.88,147.566 124.318,158.341 		"/>
	</g>
</g>
<g>
	<linearGradient id="SVGID_7_" gradientUnits="userSpaceOnUse" x1="136.5142" y1="127.4355" x2="136.5142" y2="83.3301">
		<stop  offset="0" style="stop-color:#007FFF;stop-opacity:0.4"/>
		<stop  offset="1" style="stop-color:#BFFFFF;stop-opacity:0"/>
	</linearGradient>
	<polygon fill-rule="evenodd" clip-rule="evenodd" fill="url(#SVGID_7_)" points="120.508,83.33 152.52,91.543 137.308,121.229 
		124.716,127.436 	"/>
	<linearGradient id="SVGID_8_" gradientUnits="userSpaceOnUse" x1="125.7354" y1="121.2295" x2="125.7354" y2="79.2158">
		<stop  offset="0" style="stop-color:#007FFF;stop-opacity:0.4"/>
		<stop  offset="1" style="stop-color:#BFFFFF;stop-opacity:0"/>
	</linearGradient>
	<polygon fill-rule="evenodd" clip-rule="evenodd" fill="url(#SVGID_8_)" points="94.81,79.216 156.661,79.216 137.308,121.229 
		112.147,120.787 	"/>
	<linearGradient id="SVGID_9_" gradientUnits="userSpaceOnUse" x1="112.5322" y1="127.3892" x2="112.5322" y2="84.854">
		<stop  offset="0" style="stop-color:#007FFF;stop-opacity:0.4"/>
		<stop  offset="1" style="stop-color:#BFFFFF;stop-opacity:0"/>
	</linearGradient>
	<polygon fill-rule="evenodd" clip-rule="evenodd" fill="url(#SVGID_9_)" points="100.396,84.854 120.936,90.189 124.669,127.389 
		112.007,121.012 	"/>
</g>
<g>
	<linearGradient id="SVGID_10_" gradientUnits="userSpaceOnUse" x1="346.2749" y1="150.6011" x2="346.2749" y2="32.3882">
		<stop  offset="0" style="stop-color:#CAE4F3;stop-opacity:0.6"/>
		<stop  offset="1" style="stop-color:#BFFFFF;stop-opacity:0"/>
	</linearGradient>
	<polygon fill-rule="evenodd" clip-rule="evenodd" fill="url(#SVGID_10_)" points="312.725,32.388 382.877,41.796 347.429,132.223 
		309.673,150.601 	"/>
	<linearGradient id="SVGID_11_" gradientUnits="userSpaceOnUse" x1="312.7251" y1="131.0688" x2="312.7251" y2="18.4487">
		<stop  offset="0" style="stop-color:#CAE4F3;stop-opacity:0.6"/>
		<stop  offset="1" style="stop-color:#BFFFFF;stop-opacity:0"/>
	</linearGradient>
	<polygon fill-rule="evenodd" clip-rule="evenodd" fill="url(#SVGID_11_)" points="229.486,18.449 395.964,18.568 347.773,131.069 
		271.45,129.073 	"/>
	<linearGradient id="SVGID_12_" gradientUnits="userSpaceOnUse" x1="278.6538" y1="150.0947" x2="278.6538" y2="22.167">
		<stop  offset="0" style="stop-color:#CAE4F3;stop-opacity:0.6"/>
		<stop  offset="1" style="stop-color:#BFFFFF;stop-opacity:0"/>
	</linearGradient>
	<polygon fill-rule="evenodd" clip-rule="evenodd" fill="url(#SVGID_12_)" points="243.583,22.167 313.725,30.85 309.673,150.095 
		271.561,131.069 	"/>
</g>
</svg>
