<?xml version="1.0" encoding="utf-8"?>
<!-- Generator: Adobe Illustrator 16.0.0, SVG Export Plug-In . SVG Version: 6.00 Build 0)  -->
<!DOCTYPE svg PUBLIC "-//W3C//DTD SVG 1.1//EN" "http://www.w3.org/Graphics/SVG/1.1/DTD/svg11.dtd">
<svg version="1.1" id="层_1" xmlns="http://www.w3.org/2000/svg" xmlns:xlink="http://www.w3.org/1999/xlink" x="0px" y="0px"
	 width="632.89px" height="410.17px" viewBox="0 0 632.89 410.17" enable-background="new 0 0 632.89 410.17" xml:space="preserve">
<line fill-rule="evenodd" clip-rule="evenodd" fill="none" stroke="#ECECEC" stroke-linecap="square" stroke-miterlimit="10" x1="11.15" y1="257.13" x2="319.16" y2="400.92"/>
<line fill-rule="evenodd" clip-rule="evenodd" fill="none" stroke="#ECECEC" stroke-linecap="square" stroke-miterlimit="10" x1="21.66" y1="217.78" x2="399.16" y2="394.22"/>
<line fill-rule="evenodd" clip-rule="evenodd" fill="none" stroke="#ECECEC" stroke-linecap="square" stroke-miterlimit="10" x1="66.71" y1="191.99" x2="444.21" y2="368.43"/>
<line fill-rule="evenodd" clip-rule="evenodd" fill="none" stroke="#ECECEC" stroke-linecap="square" stroke-miterlimit="10" x1="108.92" y1="165.63" x2="488.41" y2="343.69"/>
<line fill-rule="evenodd" clip-rule="evenodd" fill="none" stroke="#ECECEC" stroke-linecap="square" stroke-miterlimit="10" x1="151.12" y1="140.41" x2="530.58" y2="318.36"/>
<line fill-rule="evenodd" clip-rule="evenodd" fill="none" stroke="#ECECEC" stroke-linecap="square" stroke-miterlimit="10" x1="193.16" y1="116.23" x2="573.64" y2="294.63"/>
<line fill-rule="evenodd" clip-rule="evenodd" fill="none" stroke="#ECECEC" stroke-linecap="square" stroke-miterlimit="10" x1="234.39" y1="91.12" x2="616" y2="269.96"/>
<line fill-rule="evenodd" clip-rule="evenodd" fill="none" stroke="#ECECEC" stroke-linecap="square" stroke-miterlimit="10" x1="632.89" y1="254.79" x2="291.22" y2="410.17"/>
<line fill-rule="evenodd" clip-rule="evenodd" fill="none" stroke="#ECECEC" stroke-linecap="square" stroke-miterlimit="10" x1="587.56" y1="229.78" x2="211.37" y2="403.29"/>
<line fill-rule="evenodd" clip-rule="evenodd" fill="none" stroke="#ECECEC" stroke-linecap="square" stroke-miterlimit="10" x1="542.5" y1="203.99" x2="166.89" y2="378.08"/>
<line fill-rule="evenodd" clip-rule="evenodd" fill="none" stroke="#ECECEC" stroke-linecap="square" stroke-miterlimit="10" x1="500.3" y1="177.63" x2="121.81" y2="353.69"/>
<line fill-rule="evenodd" clip-rule="evenodd" fill="none" stroke="#ECECEC" stroke-linecap="square" stroke-miterlimit="10" x1="458.1" y1="152.98" x2="79.61" y2="328.32"/>
<line fill-rule="evenodd" clip-rule="evenodd" fill="none" stroke="#ECECEC" stroke-linecap="square" stroke-miterlimit="10" x1="416.67" y1="127.72" x2="37.2" y2="304.05"/>
<line fill-rule="evenodd" clip-rule="evenodd" fill="none" stroke="#ECECEC" stroke-linecap="square" stroke-miterlimit="10" x1="373.97" y1="102.92" x2="24" y2="262.79"/>
<path fill-rule="evenodd" clip-rule="evenodd" fill="#C0D6E9" d="M527,214.92l40,24c0,0,11.15,5,13-6c2.35-13.97-12-25-12-25
	s-5.03-21.04-17.56-27.54c-18.46-9.57-24.94,5.57-24.94,5.57s-11.06,0.4-12.58,5.36C508.65,205.26,527,214.92,527,214.92z"/>
<path fill-rule="evenodd" clip-rule="evenodd" fill="#79A7D0" d="M517.97,223.89L560,243.92c0,0,11.15,5,13-6
	c2.35-13.97-12-25-12-25s-3.01-22.92-16.33-27.59c-18.77-6.58-23,7.53-23,7.53s-10.79-2.58-12.46,5.46
	C505.91,214.19,517.97,223.89,517.97,223.89z"/>
<path fill-rule="evenodd" clip-rule="evenodd" fill="#C0D6E9" d="M443,174.92l40,24c0,0,11.15,5,13-6c2.35-13.97-12-25-12-25
	s-5.03-21.04-17.56-27.54c-18.46-9.57-24.94,5.57-24.94,5.57s-11.06,0.4-12.58,5.36C424.65,165.26,443,174.92,443,174.92z"/>
<path fill-rule="evenodd" clip-rule="evenodd" fill="#79A7D0" d="M433.97,183.89L476,203.92c0,0,11.15,5,13-6
	c2.35-13.97-12-25-12-25s-3.01-22.92-16.33-27.59c-18.77-6.58-23,7.53-23,7.53s-10.79-2.58-12.46,5.46
	C421.91,174.19,433.97,183.89,433.97,183.89z"/>
<path fill-rule="evenodd" clip-rule="evenodd" fill="#C0D6E9" d="M359,135.92l40,24c0,0,11.15,5,13-6c2.35-13.97-12-25-12-25
	s-5.03-21.04-17.56-27.54c-18.46-9.57-24.94,5.57-24.94,5.57s-11.06,0.4-12.58,5.36C340.65,126.26,359,135.92,359,135.92z"/>
<path fill-rule="evenodd" clip-rule="evenodd" fill="#79A7D0" d="M349.97,144.89L392,164.92c0,0,11.15,5,13-6
	c2.35-13.97-12-25-12-25s-3.01-22.92-16.33-27.59c-18.77-6.58-23,7.53-23,7.53s-10.79-2.58-12.46,5.46
	C337.91,135.19,349.97,144.89,349.97,144.89z"/>
<polygon fill-rule="evenodd" clip-rule="evenodd" fill="none" stroke="#A3B2D8" stroke-width="2" stroke-linecap="round" stroke-linejoin="round" stroke-miterlimit="10" points="
	53.02,277.08 284.18,386.08 515.98,275.35 286.22,168.02 "/>
<polygon fill-rule="evenodd" clip-rule="evenodd" fill="#D8DDEC" points="108.4,281.28 281.48,361.92 453.92,280.77 281.05,200.37 
	"/>
<polygon opacity="0.6" fill-rule="evenodd" clip-rule="evenodd" fill="none" stroke="#4969B5" stroke-linecap="round" stroke-linejoin="round" stroke-miterlimit="10" points="
	109.4,260.28 282.48,340.92 455.77,261.97 282.48,181.37 "/>
<polygon opacity="0.5" fill-rule="evenodd" clip-rule="evenodd" fill="none" stroke="#4969B5" stroke-linecap="round" stroke-linejoin="round" stroke-miterlimit="10" points="
	109.4,268.28 282.48,348.92 455.77,269.97 282.48,189.37 "/>
<polygon opacity="0.4" fill-rule="evenodd" clip-rule="evenodd" fill="none" stroke="#4969B5" stroke-linecap="round" stroke-linejoin="round" stroke-miterlimit="10" points="
	109.4,277.28 282.48,357.92 455.77,278.97 282.48,198.37 "/>
<polygon opacity="0.4" fill-rule="evenodd" clip-rule="evenodd" fill="#50A7D6" points="109.4,253.28 282.48,333.92 455.54,252.99 
	282.48,173.8 "/>
<polygon opacity="0.2" fill-rule="evenodd" clip-rule="evenodd" fill="#00468C" points="109,252.92 281.89,333.52 281.89,362.06 
	109,281.46 "/>
<polygon opacity="0.2" fill-rule="evenodd" clip-rule="evenodd" fill="#00468C" points="455.92,253.04 282,334.44 282,362.98 
	455.96,279.83 "/>
<line fill-rule="evenodd" clip-rule="evenodd" fill="none" stroke="#7E94CA" stroke-width="2" stroke-linecap="round" stroke-linejoin="round" stroke-miterlimit="10" x1="496.69" y1="251.64" x2="535.67" y2="233.22"/>
<polygon fill-rule="evenodd" clip-rule="evenodd" fill="#7E94CA" points="481.27,259.78 492.12,247.84 503.45,254.52 "/>
<line fill-rule="evenodd" clip-rule="evenodd" fill="none" stroke="#4969B5" stroke-width="2" stroke-linecap="round" stroke-linejoin="round" stroke-miterlimit="10" x1="406.56" y1="217.81" x2="456.17" y2="194.55"/>
<polygon fill-rule="evenodd" clip-rule="evenodd" fill="#7E94CA" points="399.56,222.16 409.9,211.27 421.23,217.95 "/>
<line fill-rule="evenodd" clip-rule="evenodd" fill="none" stroke="#4969B5" stroke-width="2" stroke-linecap="round" stroke-linejoin="round" stroke-miterlimit="10" x1="321.56" y1="178.81" x2="371.18" y2="155.38"/>
<polygon fill-rule="evenodd" clip-rule="evenodd" fill="#7E94CA" points="314.56,183.16 324.9,172.27 336.23,178.95 "/>
<polygon fill-rule="evenodd" clip-rule="evenodd" fill="#888888" points="218.04,230.54 284.45,263.22 350.96,233.14 282.13,201.08 
	"/>
<polygon fill-rule="evenodd" clip-rule="evenodd" fill="#333333" points="218.07,230.29 284,262.38 284,297.92 218.07,264.83 "/>
<polygon fill-rule="evenodd" clip-rule="evenodd" points="350.91,232.67 284,263.38 284,297.92 350.91,267.2 "/>
<line fill-rule="evenodd" clip-rule="evenodd" fill="none" stroke="#BBBBBB" stroke-linecap="square" stroke-linejoin="round" stroke-miterlimit="10" x1="218.31" y1="230.49" x2="284.32" y2="262.47"/>
<line fill-rule="evenodd" clip-rule="evenodd" fill="none" stroke="#BBBBBB" stroke-linecap="square" stroke-linejoin="round" stroke-miterlimit="10" x1="350.15" y1="233.2" x2="284.35" y2="262.5"/>
<line fill-rule="evenodd" clip-rule="evenodd" fill="none" stroke="#555555" stroke-linecap="square" stroke-linejoin="round" stroke-miterlimit="10" x1="284.53" y1="263.48" x2="284.53" y2="297.26"/>
<path fill-rule="evenodd" clip-rule="evenodd" fill="#FFFFFF" stroke="#00FF00" stroke-width="2" stroke-linecap="round" stroke-linejoin="round" stroke-miterlimit="10" d="
	M269.5,266.42c0.28-0.83,1.17-1.28,2-1s1.28,1.17,1,2s-1.17,1.28-2,1S269.22,267.25,269.5,266.42z"/>
<polygon fill-rule="evenodd" clip-rule="evenodd" fill="#FFFFFF" points="270.83,218.12 255.54,225.79 257.33,226.68 269.09,220.78 
	263.03,229.54 264.96,230.51 280.26,222.84 278.47,221.94 266.34,228.03 272.78,219.09 "/>
<polygon fill-rule="evenodd" clip-rule="evenodd" fill="#FFFFFF" points="283.56,224.49 268.27,232.16 270.06,233.06 281.82,227.16 
	275.76,235.91 277.69,236.88 292.99,229.21 291.2,228.32 279.07,234.4 285.51,225.47 "/>
<polygon fill-rule="evenodd" clip-rule="evenodd" fill="#FFFFFF" points="296.29,230.87 281,238.54 282.79,239.43 298.08,231.76 "/>
<path fill-rule="evenodd" clip-rule="evenodd" fill="#FFFFFF" d="M295.05,237.6c1.95-0.98,3.82-1.56,5.64-1.73
	c1.8-0.17,3.37,0.07,4.7,0.73c1.3,0.65,1.77,1.42,1.47,2.32c-0.34,0.9-1.42,1.82-3.26,2.74c-1.97,0.98-3.86,1.56-5.68,1.74
	c-1.81,0.18-3.36-0.06-4.66-0.71c-1.3-0.65-1.79-1.43-1.47-2.34C292.12,239.44,293.22,238.52,295.05,237.6z M292.72,236.91
	c-2.32,1.16-3.61,2.34-3.89,3.54c-0.28,1.21,0.52,2.27,2.36,3.19c1.95,0.98,4.18,1.36,6.72,1.14c2.54-0.23,4.92-0.89,7.15-2.01
	c2.3-1.15,3.57-2.33,3.86-3.55c0.25-1.22-0.51-2.29-2.33-3.2c-1.87-0.93-4.04-1.32-6.52-1.16
	C297.58,235.01,295.13,235.7,292.72,236.91z"/>
<polygon fill-rule="evenodd" clip-rule="evenodd" fill="#888888" points="224,241.92 227,243.72 227,260.14 224,258.34 "/>
<polygon fill-rule="evenodd" clip-rule="evenodd" points="225,242.52 228,244.31 228,260.74 225,258.94 "/>
<polygon fill-rule="evenodd" clip-rule="evenodd" fill="#888888" points="230,245.51 233,247.31 233,263.73 230,261.93 "/>
<polygon fill-rule="evenodd" clip-rule="evenodd" points="231,246.11 234,247.91 234,264.33 231,262.53 "/>
<polygon fill-rule="evenodd" clip-rule="evenodd" fill="#888888" points="236,249.1 239,250.9 239,267.32 236,265.52 "/>
<polygon fill-rule="evenodd" clip-rule="evenodd" points="237,249.7 240,251.5 240,267.92 237,266.12 "/>
<path fill-rule="evenodd" clip-rule="evenodd" fill="#FFFFFF" stroke="#FFC926" stroke-width="2" stroke-linecap="round" stroke-linejoin="round" stroke-miterlimit="10" d="
	M275.5,268.42c0.28-0.83,1.17-1.28,2-1s1.28,1.17,1,2s-1.17,1.28-2,1S275.22,269.25,275.5,268.42z"/>
<path fill-rule="evenodd" clip-rule="evenodd" fill="#7E90AE" d="M255.06,39.96c0-9.52,7.63-17.23,17.04-17.23
	c9.41,0,17.04,7.71,17.04,17.23c0,9.51-7.63,17.22-17.04,17.22C262.69,57.18,255.06,49.47,255.06,39.96z"/>
<path fill-rule="evenodd" clip-rule="evenodd" fill="#85DAC7" d="M214,113.37c0-15.06,12.08-27.27,26.98-27.27
	s26.98,12.21,26.98,27.27c0,15.07-12.08,27.28-26.98,27.28S214,128.44,214,113.37z"/>
<path fill-rule="evenodd" clip-rule="evenodd" fill="#DD9895" d="M290.3,144.25c0-16.38,13.14-29.66,29.35-29.66
	S349,127.87,349,144.25c0,16.39-13.14,29.67-29.35,29.67S290.3,160.64,290.3,144.25z"/>
<line fill-rule="evenodd" clip-rule="evenodd" fill="none" stroke="#12C8F7" stroke-width="2" stroke-linecap="round" stroke-linejoin="round" stroke-miterlimit="10" x1="313.97" y1="73.22" x2="313.97" y2="87.57"/>
<line fill-rule="evenodd" clip-rule="evenodd" fill="none" stroke="#12C8F7" stroke-linecap="round" stroke-linejoin="round" stroke-miterlimit="10" x1="255.46" y1="64.92" x2="255.46" y2="72.1"/>
<line fill-rule="evenodd" clip-rule="evenodd" fill="none" stroke="#9798FF" stroke-width="2" stroke-linecap="round" stroke-linejoin="round" stroke-miterlimit="10" x1="289.79" y1="61.88" x2="289.79" y2="75.75"/>
<line fill-rule="evenodd" clip-rule="evenodd" fill="none" stroke="#A5A5A5" stroke-width="2" stroke-linecap="round" stroke-linejoin="round" stroke-miterlimit="10" x1="324.99" y1="26.13" x2="324.99" y2="40.01"/>
<line fill-rule="evenodd" clip-rule="evenodd" fill="none" stroke="#D6D6D6" stroke-width="2" stroke-linecap="round" stroke-linejoin="round" stroke-miterlimit="10" x1="248.08" y1="0" x2="248.08" y2="13.88"/>
<line fill-rule="evenodd" clip-rule="evenodd" fill="none" stroke="#D6D6D6" stroke-width="2" stroke-linecap="round" stroke-linejoin="round" stroke-miterlimit="10" x1="283.67" y1="104.42" x2="283.67" y2="118.3"/>
<linearGradient id="SVGID_1_" gradientUnits="userSpaceOnUse" x1="335.9246" y1="263.1401" x2="335.9246" y2="129.79">
	<stop  offset="0" style="stop-color:#CAE4F3;stop-opacity:0.6"/>
	<stop  offset="1" style="stop-color:#BFFFFF;stop-opacity:0"/>
</linearGradient>
<polygon fill-rule="evenodd" clip-rule="evenodd" fill="url(#SVGID_1_)" points="273.52,129.79 398.33,142.02 350.99,233.03 
	286.28,263.14 "/>
<linearGradient id="SVGID_2_" gradientUnits="userSpaceOnUse" x1="293.4695" y1="233.0298" x2="293.4695" y2="105.1099">
	<stop  offset="0" style="stop-color:#CAE4F3;stop-opacity:0.6"/>
	<stop  offset="1" style="stop-color:#BFFFFF;stop-opacity:0"/>
</linearGradient>
<polygon fill-rule="evenodd" clip-rule="evenodd" fill="url(#SVGID_2_)" points="181.65,105.11 405.29,115.52 349.87,233.03 
	219.62,230.8 "/>
<linearGradient id="SVGID_3_" gradientUnits="userSpaceOnUse" x1="234.7947" y1="263.0098" x2="234.7947" y2="120.0898">
	<stop  offset="0" style="stop-color:#CAE4F3;stop-opacity:0.6"/>
	<stop  offset="1" style="stop-color:#BFFFFF;stop-opacity:0"/>
</linearGradient>
<polygon fill-rule="evenodd" clip-rule="evenodd" fill="url(#SVGID_3_)" points="183.45,120.09 274.83,150.52 286.14,263.01 
	219.62,230.8 "/>
<path fill-rule="evenodd" clip-rule="evenodd" fill="#FFFFFF" d="M302,139.92h2.19c0.95,0,1.65,0.37,2.12,1.09
	c0.46,0.72,0.69,1.83,0.69,3.33c0,1.41-0.23,2.53-0.7,3.35c-0.47,0.82-1.11,1.23-1.91,1.23H302V139.92z M300,150.92h1.11h3.39
	c1.41,0,2.52-0.59,3.31-1.78c0.78-1.19,1.19-2.85,1.19-4.97c0-2.03-0.39-3.59-1.14-4.66c-0.75-1.06-1.86-1.59-3.31-1.59h-3.44H300
	V150.92z"/>
<path fill-rule="evenodd" clip-rule="evenodd" fill="#FFFFFF" d="M314.89,140.84h0.75l1.45,5.08h-3.65L314.89,140.84z M310,150.92h1
	h0.98l0.88-3h4.83l0.86,3h1h0.98l-3.76-13h-1.5h-1.5L310,150.92z"/>
<path fill-rule="evenodd" clip-rule="evenodd" fill="#FFFFFF" d="M324,139.92h2.27c0.59,0,1.03,0.17,1.31,0.5
	c0.28,0.33,0.42,0.83,0.42,1.5c0,0.69-0.14,1.19-0.39,1.52c-0.27,0.32-0.67,0.48-1.22,0.48H324V139.92z M322,150.92h1h1v-5h2.58
	c1.05,0,1.87-0.36,2.5-1.08c0.61-0.72,0.92-1.69,0.92-2.92c0-1.3-0.3-2.28-0.87-2.97c-0.6-0.69-1.44-1.03-2.55-1.03h-3.49H322
	V150.92z"/>
<path fill-rule="evenodd" clip-rule="evenodd" fill="#FFFFFF" d="M334,139.92h2.27c0.59,0,1.03,0.17,1.31,0.5
	c0.28,0.33,0.42,0.83,0.42,1.5c0,0.69-0.14,1.19-0.39,1.52c-0.27,0.32-0.67,0.48-1.22,0.48H334V139.92z M332,150.92h1h1v-5h2.58
	c1.05,0,1.87-0.36,2.5-1.08c0.61-0.72,0.92-1.69,0.92-2.92c0-1.3-0.3-2.28-0.87-2.97c-0.6-0.69-1.44-1.03-2.55-1.03h-3.49H332
	V150.92z"/>
<path fill-rule="evenodd" clip-rule="evenodd" fill="#FFFFFF" d="M265.91,36.92c-0.07-1.28-0.39-2.27-1-2.95
	c-0.61-0.69-1.46-1.05-2.53-1.05c-1.07,0-1.9,0.31-2.49,0.94c-0.59,0.62-0.89,1.5-0.89,2.61c0,0.98,0.23,1.72,0.7,2.2
	c0.39,0.5,1.11,0.91,2.18,1.22c0.78,0.25,1.32,0.47,1.6,0.69c0.35,0.23,0.52,0.54,0.52,0.92c0,0.44-0.14,0.79-0.39,1.04
	s-0.59,0.38-1.02,0.38c-0.48,0-0.86-0.17-1.11-0.52c-0.25-0.34-0.39-0.82-0.39-1.48h-2c0.02,1.28,0.33,2.28,0.94,2.97
	c0.61,0.69,1.47,1.03,2.58,1.03c1.06,0,1.89-0.31,2.48-0.97c0.6-0.64,0.91-1.55,0.91-2.7c0-0.97-0.27-1.72-0.8-2.22
	c-0.45-0.5-1.26-0.94-2.45-1.31c-0.66-0.19-1.11-0.39-1.33-0.58c-0.28-0.19-0.42-0.45-0.42-0.8c0-0.44,0.13-0.78,0.38-1.03
	s0.6-0.39,1.04-0.39c0.42,0,0.77,0.19,1.05,0.55c0.26,0.36,0.41,0.84,0.44,1.45H265.91z"/>
<path fill-rule="evenodd" clip-rule="evenodd" fill="#FFFFFF" d="M270,34.92h1.31c0.57,0,0.99,0.33,1.27,0.97
	c0.28,0.64,0.42,1.62,0.42,2.95c0,1.25-0.14,2.25-0.42,2.99c-0.28,0.73-0.67,1.09-1.14,1.09H270V34.92z M268,44.92h0.86h2.64
	c1.09,0,1.94-0.55,2.56-1.64c0.63-1.09,0.94-2.63,0.94-4.59c0-1.88-0.3-3.3-0.89-4.29c-0.59-0.98-1.45-1.48-2.58-1.48h-2.67H268
	V44.92z"/>
<polygon fill-rule="evenodd" clip-rule="evenodd" fill="#FFFFFF" points="277,44.92 278,44.92 279,44.92 279,41.12 279.06,41.03 
	282,44.92 283,44.92 284,44.92 279.94,39.56 283.84,32.92 282.84,32.92 281.84,32.92 279,37.73 279,32.92 278,32.92 277,32.92 "/>
<line fill-rule="evenodd" clip-rule="evenodd" fill="none" stroke="#A5A5A5" stroke-width="2" stroke-linecap="round" stroke-linejoin="round" stroke-miterlimit="10" x1="268.99" y1="87.13" x2="268.99" y2="101.01"/>
<line fill-rule="evenodd" clip-rule="evenodd" fill="none" stroke="#D6D6D6" stroke-width="2" stroke-linecap="round" stroke-linejoin="round" stroke-miterlimit="10" x1="217.08" y1="69" x2="217.08" y2="82.88"/>
<line fill-rule="evenodd" clip-rule="evenodd" fill="none" stroke="#D6D6D6" stroke-width="2" stroke-linecap="round" stroke-linejoin="round" stroke-miterlimit="10" x1="228.67" y1="150.42" x2="228.67" y2="164.3"/>
<line fill-rule="evenodd" clip-rule="evenodd" fill="none" stroke="#D6D6D6" stroke-width="2" stroke-linecap="round" stroke-linejoin="round" stroke-miterlimit="10" x1="343.67" y1="55.42" x2="343.67" y2="69.3"/>
</svg>
