<?xml version="1.0" encoding="utf-8"?>
<!-- Generator: Adobe Illustrator 16.0.0, SVG Export Plug-In . SVG Version: 6.00 Build 0)  -->
<!DOCTYPE svg PUBLIC "-//W3C//DTD SVG 1.1//EN" "http://www.w3.org/Graphics/SVG/1.1/DTD/svg11.dtd">
<svg version="1.1" id="层_1" xmlns="http://www.w3.org/2000/svg" xmlns:xlink="http://www.w3.org/1999/xlink" x="0px" y="0px"
	 width="632.89px" height="358.25px" viewBox="0 0 632.89 358.25" enable-background="new 0 0 632.89 358.25" xml:space="preserve">
<g>
	
		<line fill-rule="evenodd" clip-rule="evenodd" fill="none" stroke="#D6D6D6" stroke-linecap="square" stroke-miterlimit="10" x1="5.44" y1="208.95" x2="319.16" y2="349"/>
	
		<line fill-rule="evenodd" clip-rule="evenodd" fill="none" stroke="#D6D6D6" stroke-linecap="square" stroke-miterlimit="10" x1="21.66" y1="165.86" x2="399.16" y2="342.3"/>
	
		<line fill-rule="evenodd" clip-rule="evenodd" fill="none" stroke="#D6D6D6" stroke-linecap="square" stroke-miterlimit="10" x1="66.71" y1="140.07" x2="444.21" y2="316.51"/>
	
		<line fill-rule="evenodd" clip-rule="evenodd" fill="none" stroke="#D6D6D6" stroke-linecap="square" stroke-miterlimit="10" x1="108.92" y1="113.71" x2="488.41" y2="291.77"/>
	
		<line fill-rule="evenodd" clip-rule="evenodd" fill="none" stroke="#D6D6D6" stroke-linecap="square" stroke-miterlimit="10" x1="151.12" y1="88.49" x2="530.58" y2="266.44"/>
	
		<line fill-rule="evenodd" clip-rule="evenodd" fill="none" stroke="#D6D6D6" stroke-linecap="square" stroke-miterlimit="10" x1="193.16" y1="64.31" x2="573.64" y2="242.71"/>
	
		<line fill-rule="evenodd" clip-rule="evenodd" fill="none" stroke="#D6D6D6" stroke-linecap="square" stroke-miterlimit="10" x1="234.39" y1="39.2" x2="616" y2="218.04"/>
	
		<line fill-rule="evenodd" clip-rule="evenodd" fill="none" stroke="#D6D6D6" stroke-linecap="square" stroke-miterlimit="10" x1="632.89" y1="202.87" x2="291.22" y2="358.25"/>
	
		<line fill-rule="evenodd" clip-rule="evenodd" fill="none" stroke="#D6D6D6" stroke-linecap="square" stroke-miterlimit="10" x1="587.56" y1="177.86" x2="211.37" y2="351.37"/>
	
		<line fill-rule="evenodd" clip-rule="evenodd" fill="none" stroke="#D6D6D6" stroke-linecap="square" stroke-miterlimit="10" x1="542.5" y1="152.07" x2="166.89" y2="326.16"/>
	
		<line fill-rule="evenodd" clip-rule="evenodd" fill="none" stroke="#D6D6D6" stroke-linecap="square" stroke-miterlimit="10" x1="500.3" y1="125.71" x2="121.81" y2="301.77"/>
	
		<line fill-rule="evenodd" clip-rule="evenodd" fill="none" stroke="#D6D6D6" stroke-linecap="square" stroke-miterlimit="10" x1="458.1" y1="101.06" x2="79.61" y2="276.4"/>
	
		<line fill-rule="evenodd" clip-rule="evenodd" fill="none" stroke="#D6D6D6" stroke-linecap="square" stroke-miterlimit="10" x1="416.67" y1="75.8" x2="37.2" y2="252.13"/>
	
		<line fill-rule="evenodd" clip-rule="evenodd" fill="none" stroke="#D6D6D6" stroke-linecap="square" stroke-miterlimit="10" x1="373.97" y1="51" x2="24" y2="210.87"/>
</g>
<g>
	
		<line fill-rule="evenodd" clip-rule="evenodd" fill="none" stroke="#EDEDED" stroke-linecap="square" stroke-miterlimit="10" x1="5.44" y1="208.95" x2="319.16" y2="349"/>
	
		<line fill-rule="evenodd" clip-rule="evenodd" fill="none" stroke="#EDEDED" stroke-linecap="square" stroke-miterlimit="10" x1="21.66" y1="165.86" x2="399.16" y2="342.3"/>
	
		<line fill-rule="evenodd" clip-rule="evenodd" fill="none" stroke="#EDEDED" stroke-linecap="square" stroke-miterlimit="10" x1="66.71" y1="140.07" x2="444.21" y2="316.51"/>
	
		<line fill-rule="evenodd" clip-rule="evenodd" fill="none" stroke="#EDEDED" stroke-linecap="square" stroke-miterlimit="10" x1="108.92" y1="113.71" x2="488.41" y2="291.77"/>
	
		<line fill-rule="evenodd" clip-rule="evenodd" fill="none" stroke="#EDEDED" stroke-linecap="square" stroke-miterlimit="10" x1="151.12" y1="88.49" x2="530.58" y2="266.44"/>
	
		<line fill-rule="evenodd" clip-rule="evenodd" fill="none" stroke="#EDEDED" stroke-linecap="square" stroke-miterlimit="10" x1="193.16" y1="64.31" x2="573.64" y2="242.71"/>
	
		<line fill-rule="evenodd" clip-rule="evenodd" fill="none" stroke="#EDEDED" stroke-linecap="square" stroke-miterlimit="10" x1="234.39" y1="39.2" x2="616" y2="218.04"/>
	
		<line fill-rule="evenodd" clip-rule="evenodd" fill="none" stroke="#EDEDED" stroke-linecap="square" stroke-miterlimit="10" x1="632.89" y1="202.87" x2="291.22" y2="358.25"/>
	
		<line fill-rule="evenodd" clip-rule="evenodd" fill="none" stroke="#EDEDED" stroke-linecap="square" stroke-miterlimit="10" x1="587.56" y1="177.86" x2="211.37" y2="351.37"/>
	
		<line fill-rule="evenodd" clip-rule="evenodd" fill="none" stroke="#EDEDED" stroke-linecap="square" stroke-miterlimit="10" x1="542.5" y1="152.07" x2="166.89" y2="326.16"/>
	
		<line fill-rule="evenodd" clip-rule="evenodd" fill="none" stroke="#EDEDED" stroke-linecap="square" stroke-miterlimit="10" x1="500.3" y1="125.71" x2="121.81" y2="301.77"/>
	
		<line fill-rule="evenodd" clip-rule="evenodd" fill="none" stroke="#EDEDED" stroke-linecap="square" stroke-miterlimit="10" x1="458.1" y1="101.06" x2="79.61" y2="276.4"/>
	
		<line fill-rule="evenodd" clip-rule="evenodd" fill="none" stroke="#EDEDED" stroke-linecap="square" stroke-miterlimit="10" x1="416.67" y1="75.8" x2="37.2" y2="252.13"/>
	
		<line fill-rule="evenodd" clip-rule="evenodd" fill="none" stroke="#EDEDED" stroke-linecap="square" stroke-miterlimit="10" x1="373.97" y1="51" x2="24" y2="210.87"/>
</g>
<polygon fill-rule="evenodd" clip-rule="evenodd" fill="none" stroke="#8DA0CE" stroke-width="2" stroke-linecap="round" stroke-linejoin="round" stroke-miterlimit="10" points="
	76.66,212.81 317.18,323.16 555,209 315,107 "/>
<polyline fill-rule="evenodd" clip-rule="evenodd" fill="none" stroke="#9FAFD6" stroke-width="2" stroke-linecap="round" stroke-linejoin="round" stroke-miterlimit="10" points="
	193.88,268.07 173.67,277 40,213 117.46,176.33 "/>
<line fill-rule="evenodd" clip-rule="evenodd" fill="none" stroke="#8EA1CE" stroke-width="2" stroke-linecap="round" stroke-linejoin="round" stroke-miterlimit="10" x1="435.02" y1="156.9" x2="468.32" y2="141.25"/>
<line fill-rule="evenodd" clip-rule="evenodd" fill="none" stroke="#90A3CF" stroke-width="2" stroke-linecap="round" stroke-linejoin="round" stroke-miterlimit="10" x1="436.5" y1="266.5" x2="505.5" y2="302.5"/>
<g>
	<polygon fill-rule="evenodd" clip-rule="evenodd" fill="#D8DDEC" points="142.399,222.28 315.479,302.92 487.92,221.77 
		315.05,141.37 	"/>
	
		<polygon opacity="0.6" fill-rule="evenodd" clip-rule="evenodd" fill="none" stroke="#4969B5" stroke-linecap="round" stroke-linejoin="round" stroke-miterlimit="10" points="
		143.399,201.28 316.479,281.92 489.77,202.97 316.479,122.37 	"/>
	
		<polygon opacity="0.5" fill-rule="evenodd" clip-rule="evenodd" fill="none" stroke="#4969B5" stroke-linecap="round" stroke-linejoin="round" stroke-miterlimit="10" points="
		143.399,209.28 316.479,289.92 489.77,210.97 316.479,130.37 	"/>
	
		<polygon opacity="0.4" fill-rule="evenodd" clip-rule="evenodd" fill="none" stroke="#4969B5" stroke-linecap="round" stroke-linejoin="round" stroke-miterlimit="10" points="
		143.399,218.28 316.479,298.92 489.77,219.97 316.479,139.37 	"/>
	<polygon opacity="0.4" fill-rule="evenodd" clip-rule="evenodd" fill="#50A7D6" points="143.399,194.28 316.479,274.92 
		489.54,193.99 316.479,114.8 	"/>
	<polygon opacity="0.2" fill-rule="evenodd" clip-rule="evenodd" fill="#00468C" points="143,193.92 315.89,274.52 315.89,303.06 
		143,222.46 	"/>
	<polygon opacity="0.2" fill-rule="evenodd" clip-rule="evenodd" fill="#00468C" points="489.92,194.04 316,275.44 316,303.98 
		489.96,220.83 	"/>
</g>
<g>
	<polygon fill-rule="evenodd" clip-rule="evenodd" fill="#DAEAFC" points="249.04,151.62 315.45,186.3 381.96,151.22 315.01,119.82 
			"/>
	<polygon fill-rule="evenodd" clip-rule="evenodd" fill="#B1D2F8" points="249.07,151.37 315,185.46 315,241 249.07,205.91 	"/>
	<polygon fill-rule="evenodd" clip-rule="evenodd" fill="#81B7F3" points="381.91,150.75 315,186.46 315,241 381.91,205.28 	"/>
	
		<line opacity="0.5" fill-rule="evenodd" clip-rule="evenodd" fill="none" stroke="#FFFFFF" stroke-linecap="square" stroke-linejoin="round" stroke-miterlimit="10" x1="250.31" y1="151.57" x2="315.32" y2="185.55"/>
	
		<line opacity="0.5" fill-rule="evenodd" clip-rule="evenodd" fill="none" stroke="#FFFFFF" stroke-linecap="square" stroke-linejoin="round" stroke-miterlimit="10" x1="381.15" y1="151.28" x2="315.35" y2="185.58"/>
	
		<line opacity="0.5" fill-rule="evenodd" clip-rule="evenodd" fill="none" stroke="#CBE1FA" stroke-linecap="square" stroke-linejoin="round" stroke-miterlimit="10" x1="315.53" y1="186.56" x2="315.53" y2="240.34"/>
	<path fill-rule="evenodd" clip-rule="evenodd" fill="#90A8CE" d="M322.92,134.44l28.57,13.5c3.91,2.24,3.17,6.27-1.66,9.01
		l-25.44,12.69c-8.97,5.07-8.86,5.07-15.85,0.92l-29.03-14.68c-3.91-2.24-3.17-6.27,1.66-9.01l25.9-11.51
		C311.9,132.62,319,132.21,322.92,134.44z"/>
</g>
<g>
	<g>
		
			<path fill-rule="evenodd" clip-rule="evenodd" fill="#FFFFFF" stroke="#FFFFFF" stroke-width="2" stroke-linecap="round" stroke-linejoin="round" stroke-miterlimit="10" d="
			M341.63,196.48l19.8-9.41c1.36-0.65,2.46,0.36,2.46,2.24v15.88c0,1.88-1.1,3.99-2.46,4.71l-19.8,10.53
			c-1.51,0.81-2.74-0.16-2.74-2.15V201.4C338.89,199.4,340.12,197.2,341.63,196.48z"/>
		
			<path fill-rule="evenodd" clip-rule="evenodd" fill="none" stroke="#FFFFFF" stroke-width="2" stroke-linecap="round" stroke-linejoin="round" stroke-miterlimit="10" d="
			M343.01,195.8v-11.82c0,0,1.84-5.81,8.89-7.71c5.26-1.42,8.12,3.33,8.12,3.33v9.1"/>
	</g>
	<g>
		<path fill="none" stroke="#81B7F3" stroke-width="2" stroke-linecap="round" stroke-linejoin="round" stroke-miterlimit="10" d="
			M360.66,199.79c0.27,0.04,0.18,0.24-0.29,0.59c-0.17,0.14-0.18,0.2-0.18,0.29c0.01,0.22-0.02,0.34-0.54,0.69
			c-0.2,0.14-0.31,0.26-0.3,0.33c0.04,0.18-0.22,0.44-0.79,0.77c-0.21,0.13-0.36,0.26-0.39,0.35c-0.08,0.24-0.42,0.51-1,0.81
			c-0.22,0.12-0.4,0.25-0.48,0.36c-0.2,0.29-0.59,0.57-1.16,0.82c-0.22,0.1-0.43,0.24-0.54,0.36c-0.31,0.33-0.74,0.59-1.28,0.79
			c-0.2,0.07-0.43,0.2-0.58,0.33c-0.4,0.35-0.85,0.59-1.33,0.73c-0.18,0.05-0.42,0.16-0.6,0.3c-0.48,0.35-0.93,0.56-1.33,0.63
			c-0.15,0.02-0.38,0.12-0.58,0.25c-0.54,0.34-0.97,0.51-1.28,0.5c-0.11,0-0.32,0.07-0.54,0.19c-0.57,0.33-0.96,0.45-1.16,0.36
			c-0.08-0.03-0.26,0.02-0.48,0.12c-0.58,0.29-0.91,0.36-1,0.2c-0.03-0.06-0.18-0.04-0.39,0.05c-0.57,0.24-0.83,0.25-0.79,0.03
			c0.01-0.08-0.1-0.09-0.3-0.03c-0.52,0.18-0.71,0.14-0.54-0.14c0.06-0.1-0.01-0.14-0.18-0.1c-0.47,0.11-0.56,0.01-0.28-0.31
			c0.1-0.12,0.07-0.18-0.07-0.17c-0.37,0.04-0.37-0.11,0-0.46c0.14-0.13,0.17-0.21,0.07-0.23c-0.28-0.03-0.19-0.23,0.28-0.59
			c0.17-0.13,0.24-0.24,0.18-0.28c-0.17-0.11,0.02-0.35,0.54-0.7c0.2-0.13,0.31-0.26,0.3-0.32c-0.04-0.18,0.22-0.44,0.79-0.78
			c0.21-0.12,0.36-0.26,0.39-0.34c0.09-0.25,0.42-0.52,1-0.82c0.22-0.11,0.4-0.25,0.48-0.36c0.2-0.29,0.59-0.56,1.16-0.82
			c0.22-0.09,0.43-0.23,0.54-0.35c0.31-0.33,0.74-0.59,1.28-0.79c0.2-0.08,0.43-0.21,0.58-0.34c0.4-0.35,0.85-0.59,1.33-0.72
			c0.18-0.05,0.41-0.17,0.6-0.3c0.48-0.36,0.93-0.57,1.33-0.63c0.15-0.02,0.38-0.12,0.58-0.25c0.54-0.35,0.97-0.52,1.28-0.51
			c0.11,0.01,0.32-0.06,0.54-0.19c0.57-0.32,0.96-0.44,1.16-0.36c0.08,0.04,0.26-0.01,0.48-0.12c0.58-0.29,0.92-0.36,1-0.2
			c0.03,0.06,0.2,0.04,0.39-0.05c0.42-0.19,0.67-0.19,0.79-0.02c0.04,0.04,0.1,0.12,0.3,0.02c0.38-0.2,0.7-0.13,0.54,0.14
			c-0.06,0.11,0,0.19,0.18,0.1c0.36-0.16,0.56,0,0.29,0.31c-0.11,0.12-0.08,0.18,0.06,0.17c0.37-0.04,0.37,0.12,0,0.46
			C360.58,199.69,360.55,199.78,360.66,199.79z"/>
		<path fill="#81B7F3" stroke="#81B7F3" stroke-linecap="round" stroke-linejoin="round" stroke-miterlimit="10" d="M351.37,196.39
			c0.48-0.41,0.92-1.1,0.88-1.71c-0.05-0.62-0.76-0.46-1.59,0.24c-1.7,1.42-2.12,3.46-2.33,5.37c-0.06,0.55-0.1,1.09-0.15,1.6
			c-0.38,3.94-0.66,6.63-0.42,9.88c0.04,0.67,0.29,1.3-0.24,2.29c-0.97,0.6-0.72-0.11-1.61,0.65c-1.39,1.18-1.03,2.75,0.01,2.16
			c0.32-0.18,0.59-0.4,0.95-0.76c1.74-1.75,1.91-4.02,2.14-6.34c0.43-4.33,0.61-6.49,0.45-10.28v-0.04c-0.04-0.69-0.2-1.79,0.3-2.3
			C350.24,196.65,350.64,197.03,351.37,196.39z"/>
		<path fill="#81B7F3" stroke="#81B7F3" stroke-linecap="round" stroke-linejoin="round" stroke-miterlimit="10" d="M357.41,191.62
			c-1.71,1.43-2.12,3.46-2.33,5.37c-0.06,0.55-0.1,1.09-0.15,1.61c-0.39,3.94-0.66,6.64-0.43,9.9c0.05,0.66,0.3,1.3-0.23,2.29
			c-0.98,0.6-0.73-0.11-1.61,0.64c-1.39,1.18-1.03,2.76,0.01,2.17c0.32-0.19,0.59-0.41,0.95-0.77c1.74-1.74,1.91-4.02,2.14-6.33
			c0.43-4.33,0.6-6.51,0.44-10.3v-0.05c-0.03-0.68-0.19-1.79,0.3-2.3c0.49-0.49,0.88-0.11,1.62-0.76c0.48-0.41,0.92-1.1,0.88-1.71
			C358.95,190.77,358.24,190.92,357.41,191.62z"/>
	</g>
</g>
<g>
	<path fill-rule="evenodd" clip-rule="evenodd" fill="#CA9800" d="M307.21,57.24c-1.66-6.78-2.62-13.91,0.7-16.69
		c1.05-0.88,4.6-0.38,6.01-0.52c5.89-0.57,12.43,6.2,14.61,15.12c2.18,8.93-0.16,15.45-5.49,17.49c-4.32,1.65-6.38,1.35-7.64,0.86
		C310.72,71.69,308.93,64.28,307.21,57.24z"/>
	<path fill-rule="evenodd" clip-rule="evenodd" fill="#CA9800" d="M297.74,101.51V79.44c0,0-1.09-5.95,2.73-7.8
		c3.83-1.86,8.32,0.42,8.32,0.42l19.22,9.36c0,0,4.75,3.94,6.87,6.79c2.41,3.22,3.12,9.36,3.12,9.36v23.64l-4.79,0.77L297.74,101.51
		z"/>
	<path fill-rule="evenodd" clip-rule="evenodd" fill="#F2B600" d="M302.47,58.03c-2.18-8.93,0.83-16.63,6.71-17.21
		c5.89-0.57,12.43,6.2,14.61,15.12c2.18,8.93-0.82,16.63-6.71,17.21C311.19,73.72,304.65,66.95,302.47,58.03z"/>
	<path fill-rule="evenodd" clip-rule="evenodd" fill="#F2B600" d="M293,102.3V80.23c0,0,0.69-5.24,4.52-7.09
		c3.82-1.86,6.53-0.29,6.53-0.29l19.22,9.36c0,0,4.76,3.94,6.88,6.78c2.4,3.23,3.11,9.37,3.11,9.37V122L293,102.3z"/>
</g>
<g>
	<linearGradient id="SVGID_1_" gradientUnits="userSpaceOnUse" x1="351.3486" y1="174.6821" x2="351.3486" y2="56.4692">
		<stop  offset="0" style="stop-color:#CAE4F3;stop-opacity:0.6"/>
		<stop  offset="1" style="stop-color:#BFFFFF;stop-opacity:0"/>
	</linearGradient>
	<polygon fill-rule="evenodd" clip-rule="evenodd" fill="url(#SVGID_1_)" points="317.798,56.469 387.95,65.877 352.502,156.304 
		314.747,174.682 	"/>
	<linearGradient id="SVGID_2_" gradientUnits="userSpaceOnUse" x1="317.7983" y1="155.1499" x2="317.7983" y2="42.5298">
		<stop  offset="0" style="stop-color:#CAE4F3;stop-opacity:0.6"/>
		<stop  offset="1" style="stop-color:#BFFFFF;stop-opacity:0"/>
	</linearGradient>
	<polygon fill-rule="evenodd" clip-rule="evenodd" fill="url(#SVGID_2_)" points="234.56,42.53 401.037,42.649 352.846,155.15 
		276.523,153.154 	"/>
	<linearGradient id="SVGID_3_" gradientUnits="userSpaceOnUse" x1="283.2275" y1="174.1758" x2="283.2275" y2="46.248">
		<stop  offset="0" style="stop-color:#CAE4F3;stop-opacity:0.6"/>
		<stop  offset="1" style="stop-color:#BFFFFF;stop-opacity:0"/>
	</linearGradient>
	<polygon fill-rule="evenodd" clip-rule="evenodd" fill="url(#SVGID_3_)" points="248.656,46.248 317.798,55.198 314.747,174.176 
		276.634,155.15 	"/>
</g>
<g>
	
		<polygon fill-rule="evenodd" clip-rule="evenodd" fill="none" stroke="#A6B4D9" stroke-width="2" stroke-linecap="round" stroke-linejoin="round" stroke-miterlimit="10" points="
		104.679,170.116 127.502,181.1 151.594,169.695 128.007,158.893 	"/>
	<g>
		<polygon fill-rule="evenodd" clip-rule="evenodd" fill="#CCD3EB" points="111.959,143.473 128.137,152.54 144.988,143.473 
			128.15,135.701 		"/>
		<polygon fill-rule="evenodd" clip-rule="evenodd" fill="#B1C3F6" points="111.959,143.473 128.15,152.171 128.15,171.969 
			111.959,163.012 		"/>
		<polygon fill-rule="evenodd" clip-rule="evenodd" fill="#96B2F9" points="144.988,143.473 128.15,152.533 128.15,171.969 
			144.988,162.908 		"/>
		
			<line opacity="0.5" fill-rule="evenodd" clip-rule="evenodd" fill="none" stroke="#FFFFFF" stroke-linecap="round" stroke-linejoin="round" stroke-miterlimit="10" x1="112.273" y1="143.712" x2="127.835" y2="152.358"/>
		
			<line opacity="0.5" fill-rule="evenodd" clip-rule="evenodd" fill="none" stroke="#FFFFFF" stroke-linecap="square" stroke-linejoin="round" stroke-miterlimit="10" x1="144.738" y1="143.608" x2="128.15" y2="152.171"/>
		
			<line opacity="0.5" fill-rule="evenodd" clip-rule="evenodd" fill="none" stroke="#E4E8F6" stroke-linecap="square" stroke-linejoin="round" stroke-miterlimit="10" x1="127.981" y1="152.233" x2="127.981" y2="170.958"/>
	</g>
	<g>
		<polygon opacity="0.2" fill-rule="evenodd" clip-rule="evenodd" fill="#002CAE" points="127.83,128.717 103.752,141.063 
			103.752,170.905 127.83,182.221 		"/>
		<polygon opacity="0.3" fill-rule="evenodd" clip-rule="evenodd" fill="#002CAE" points="127.83,128.717 152.576,141.063 
			152.576,170.905 127.83,182.221 		"/>
	</g>
</g>
<g>
	
		<polygon fill-rule="evenodd" clip-rule="evenodd" fill="none" stroke="#A6B4D9" stroke-width="2" stroke-linecap="round" stroke-linejoin="round" stroke-miterlimit="10" points="
		455.705,135.647 478.528,146.631 502.62,135.227 479.033,124.424 	"/>
	<g>
		<polygon fill-rule="evenodd" clip-rule="evenodd" fill="#CCD3EB" points="462.985,109.004 479.163,118.071 496.014,109.004 
			479.176,101.232 		"/>
		<polygon fill-rule="evenodd" clip-rule="evenodd" fill="#B1C3F6" points="462.985,109.004 479.176,117.702 479.176,137.5 
			462.985,128.543 		"/>
		<polygon fill-rule="evenodd" clip-rule="evenodd" fill="#96B2F9" points="496.014,109.004 479.176,118.064 479.176,137.5 
			496.014,128.439 		"/>
		
			<line opacity="0.5" fill-rule="evenodd" clip-rule="evenodd" fill="none" stroke="#FFFFFF" stroke-linecap="round" stroke-linejoin="round" stroke-miterlimit="10" x1="463.299" y1="109.244" x2="478.861" y2="117.89"/>
		
			<line opacity="0.5" fill-rule="evenodd" clip-rule="evenodd" fill="none" stroke="#FFFFFF" stroke-linecap="square" stroke-linejoin="round" stroke-miterlimit="10" x1="495.764" y1="109.139" x2="479.176" y2="117.702"/>
		
			<line opacity="0.5" fill-rule="evenodd" clip-rule="evenodd" fill="none" stroke="#E4E8F6" stroke-linecap="square" stroke-linejoin="round" stroke-miterlimit="10" x1="479.007" y1="117.765" x2="479.007" y2="136.489"/>
	</g>
	<g>
		<polygon opacity="0.2" fill-rule="evenodd" clip-rule="evenodd" fill="#002CAE" points="478.856,94.248 454.778,106.594 
			454.778,136.437 478.856,147.752 		"/>
		<polygon opacity="0.3" fill-rule="evenodd" clip-rule="evenodd" fill="#002CAE" points="478.856,94.248 503.602,106.594 
			503.602,136.437 478.856,147.752 		"/>
	</g>
</g>
<g>
	
		<polygon fill-rule="evenodd" clip-rule="evenodd" fill="none" stroke="#A6B4D9" stroke-width="2" stroke-linecap="round" stroke-linejoin="round" stroke-miterlimit="10" points="
		485.812,311.947 520.008,328.404 556.105,311.316 520.765,295.131 	"/>
	<g>
		<polygon fill-rule="evenodd" clip-rule="evenodd" fill="#CCD3EB" points="496.719,272.025 520.959,285.611 546.208,272.025 
			520.979,260.381 		"/>
		<polygon fill-rule="evenodd" clip-rule="evenodd" fill="#B1C3F6" points="496.719,272.025 520.979,285.059 520.979,314.723 
			496.719,301.302 		"/>
		<polygon fill-rule="evenodd" clip-rule="evenodd" fill="#96B2F9" points="546.208,272.025 520.979,285.602 520.979,314.723 
			546.208,301.146 		"/>
		
			<line opacity="0.5" fill-rule="evenodd" clip-rule="evenodd" fill="none" stroke="#FFFFFF" stroke-linecap="round" stroke-linejoin="round" stroke-miterlimit="10" x1="497.189" y1="272.385" x2="520.508" y2="285.339"/>
		
			<line opacity="0.5" fill-rule="evenodd" clip-rule="evenodd" fill="none" stroke="#FFFFFF" stroke-linecap="square" stroke-linejoin="round" stroke-miterlimit="10" x1="545.833" y1="272.229" x2="520.979" y2="285.059"/>
		
			<line opacity="0.5" fill-rule="evenodd" clip-rule="evenodd" fill="none" stroke="#E4E8F6" stroke-linecap="square" stroke-linejoin="round" stroke-miterlimit="10" x1="520.727" y1="285.152" x2="520.727" y2="313.208"/>
	</g>
	<g>
		<polygon opacity="0.2" fill-rule="evenodd" clip-rule="evenodd" fill="#002CAE" points="520.5,249.917 484.423,268.415 
			484.423,313.129 520.5,330.084 		"/>
		<polygon opacity="0.3" fill-rule="evenodd" clip-rule="evenodd" fill="#002CAE" points="520.5,249.917 557.577,268.415 
			557.577,313.129 520.5,330.084 		"/>
	</g>
</g>
</svg>
