<?xml version="1.0" encoding="UTF-8"?>
<svg width="14px" height="14px" viewBox="0 0 14 14" version="1.1" xmlns="http://www.w3.org/2000/svg" xmlns:xlink="http://www.w3.org/1999/xlink">
    <!-- Generator: sketchtool 49 (51002) - http://www.bohemiancoding.com/sketch -->
    <title>B20AE757-8229-4F63-845F-DDA2D5B0A560</title>
    <desc>Created with sketchtool.</desc>
    <defs></defs>
    <g id="Page-1" stroke="none" stroke-width="1" fill="none" fill-rule="evenodd">
        <g id="牛顿PC改" transform="translate(-1308.000000, -5833.000000)" fill="#595959">
            <g id="Group-20" transform="translate(532.000000, 5679.000000)">
                <g id="Group-22" transform="translate(772.000000, 0.000000)">
                    <g id="arroba" transform="translate(4.000000, 154.000000)">
                        <path d="M11.140625,9.890625 C10.3487109,9.890625 9.6503125,9.49371094 9.22589844,8.89078125 C8.68867188,9.49886719 7.91226562,9.890625 7.0390625,9.890625 C5.42371094,9.890625 4.109375,8.57628906 4.109375,6.9609375 C4.109375,5.34558594 5.42371094,4.03125 7.0390625,4.03125 C7.70109375,4.03125 8.30570313,4.26035156 8.796875,4.63214844 L8.796875,4.6171875 C8.796875,4.29332031 9.05894531,4.03125 9.3828125,4.03125 C9.70667969,4.03125 9.96875,4.29332031 9.96875,4.6171875 C9.96875,5.9203125 9.96875,6.24316406 9.96875,7.546875 C9.96875,8.19289063 10.4946094,8.71875 11.140625,8.71875 C11.7866406,8.71875 12.3125,8.19289063 12.3125,7.546875 C12.3125,3.62535156 9.7175,1.6875 7.0390625,1.6875 C4.13113281,1.6875 1.765625,4.05300781 1.765625,6.9609375 C1.765625,9.86886719 4.13113281,12.234375 7.0390625,12.234375 C8.2109375,12.234375 9.31929688,11.8590234 10.2445703,11.1483203 C10.8626172,10.6765234 11.5703516,11.6078906 10.9586719,12.0775781 C9.82628906,12.9467578 8.47128906,13.40625 7.0390625,13.40625 C3.48511719,13.40625 0.59375,10.5148828 0.59375,6.9609375 C0.59375,3.40699219 3.48511719,0.515625 7.0390625,0.515625 C10.2772266,0.515625 13.484375,2.90371094 13.484375,7.546875 C13.484375,8.83949219 12.4332422,9.890625 11.140625,9.890625 Z M7.0390625,5.203125 C6.06976563,5.203125 5.28125,5.99164063 5.28125,6.9609375 C5.28125,7.93023438 6.06976563,8.71875 7.0390625,8.71875 C8.00835938,8.71875 8.796875,7.93023438 8.796875,6.9609375 C8.796875,5.99164063 8.00835938,5.203125 7.0390625,5.203125 Z" id="Combined-Shape"></path>
                    </g>
                </g>
            </g>
        </g>
    </g>
</svg>