<?xml version="1.0" encoding="UTF-8"?>
<svg width="14px" height="13px" viewBox="0 0 14 13" version="1.1" xmlns="http://www.w3.org/2000/svg" xmlns:xlink="http://www.w3.org/1999/xlink">
    <!-- Generator: sketchtool 49 (51002) - http://www.bohemiancoding.com/sketch -->
    <title>58D70058-F422-4D31-9FF1-A90DDA83D305</title>
    <desc>Created with sketchtool.</desc>
    <defs></defs>
    <g id="Page-1" stroke="none" stroke-width="1" fill="none" fill-rule="evenodd">
        <g id="牛顿PC改" transform="translate(-1362.000000, -6331.000000)" fill="#595959">
            <g id="Group-31" transform="translate(0.000000, 6199.000000)">
                <g id="Group-20" transform="translate(468.000000, 63.000000)">
                    <g id="chat" transform="translate(894.000000, 69.000000)">
                        <path d="M10.8418686,11.5625 C10.7826783,9.47469719 9.33360013,7.75226261 7.44982519,7.41836612 C7.68295144,7.36946673 7.9244794,7.34375 8.171875,7.34375 L9.578125,7.34375 C11.5173437,7.34375 13.09375,8.9215625 13.09375,10.859375 C13.09375,11.2475 12.77875,11.5625 12.390625,11.5625 L10.8418686,11.5625 Z M8.2971754,5.87785591 C8.89357771,5.264428 9.26506642,4.40346842 9.26506642,3.4514398 C9.26506642,2.2236035 8.64715453,1.14724594 7.72576632,0.55801355 C8.07679112,0.400284366 8.46581552,0.3125 8.875,0.3125 C10.4260938,0.3125 11.6875,1.57390625 11.6875,3.125 C11.6875,4.67609375 10.4260938,5.9375 8.875,5.9375 C8.67699744,5.9375 8.48371546,5.91694486 8.2971754,5.87785591 Z" id="Combined-Shape"></path>
                        <path d="M5.25,0.3125 C6.93896875,0.3125 8.3125,1.68603125 8.3125,3.375 C8.3125,5.06396875 6.93896875,6.4375 5.25,6.4375 C3.56103125,6.4375 2.1875,5.06396875 2.1875,3.375 C2.1875,1.68603125 3.56103125,0.3125 5.25,0.3125 Z M9.078125,12.5625 L1.421875,12.5625 C0.99925,12.5625 0.65625,12.2195 0.65625,11.796875 C0.65625,9.6868125 2.3743125,7.96875 4.484375,7.96875 L6.015625,7.96875 C8.12721875,7.96875 9.84375,9.6868125 9.84375,11.796875 C9.84375,12.2195 9.50075,12.5625 9.078125,12.5625 Z" id="Combined-Shape"></path>
                    </g>
                </g>
            </g>
        </g>
    </g>
</svg>