<?xml version="1.0" encoding="UTF-8"?>
<svg width="13px" height="10px" viewBox="0 0 13 10" version="1.1" xmlns="http://www.w3.org/2000/svg" xmlns:xlink="http://www.w3.org/1999/xlink">
    <!-- Generator: sketchtool 49 (51002) - http://www.bohemiancoding.com/sketch -->
    <title>0FB42F0B-46E9-4AAC-BBEF-FA39C1B2D629</title>
    <desc>Created with sketchtool.</desc>
    <defs></defs>
    <g id="Page-1" stroke="none" stroke-width="1" fill="none" fill-rule="evenodd">
        <g id="牛顿PC首页4-4" transform="translate(-1363.000000, -6173.000000)" fill="#595959" fill-rule="nonzero">
            <g id="Group-24" transform="translate(0.000000, 5826.000000)">
                <g id="Group-20" transform="translate(468.000000, 189.000000)">
                    <g id="medium-size" transform="translate(895.000000, 158.000000)">
                        <path d="M13,1.40667259 L12.2826706,1.40667259 C12.0958893,1.40667259 11.6071467,1.60957426 11.6071467,1.78230397 L11.6071467,8.05492622 C11.6071467,8.22808581 12.0958893,8.37005249 12.2826706,8.37005249 L13,8.37005249 L13,9.76271773 L8.35711983,9.76271773 L8.35711983,8.37005249 L9.28592155,8.37005249 L9.28592155,1.87067044 L9.12428802,1.87067044 L6.88930682,9.76269086 L5.15889307,9.76269086 L2.95282106,1.87067044 L2.78573348,1.87067044 L2.78573348,8.37002563 L3.71413219,8.37002563 L3.71413219,9.76269086 L0,9.76271773 L0,8.37002563 L0.515126276,8.37002563 C0.71735626,8.37002563 0.928425578,8.22808581 0.928425578,8.05489935 L0.928425578,1.78230397 C0.928425578,1.60954739 0.717383127,1.40667259 0.515126276,1.40667259 L0,1.40667259 L0,0.0138461538 L4.81340677,0.0138461538 L6.38503493,5.58456082 L6.42732402,5.58456082 L8.01445459,0.0138461538 L13,0.0138461538 L13,1.40667259 Z" id="Shape"></path>
                    </g>
                </g>
            </g>
        </g>
    </g>
</svg>