<?xml version="1.0" encoding="UTF-8"?>
<svg width="14px" height="13px" viewBox="0 0 14 13" version="1.1" xmlns="http://www.w3.org/2000/svg" xmlns:xlink="http://www.w3.org/1999/xlink">
    <!-- Generator: sketchtool 49 (51002) - http://www.bohemiancoding.com/sketch -->
    <title>BA017E61-BC6C-4982-98C3-8191E571EF54</title>
    <desc>Created with sketchtool.</desc>
    <defs></defs>
    <g id="Page-1" stroke="none" stroke-width="1" fill="none" fill-rule="evenodd">
        <g id="牛顿PC改" transform="translate(-1362.000000, -6387.000000)" fill="#595959" fill-rule="nonzero">
            <g id="Group-31" transform="translate(0.000000, 6199.000000)">
                <g id="Group-20" transform="translate(468.000000, 63.000000)">
                    <g id="reddit" transform="translate(894.000000, 125.000000)">
                        <path d="M9.42024546,10.3384271 C9.55639339,10.474575 9.55639339,10.6063662 9.42024546,10.7338007 C8.89308068,11.2609655 8.04624055,11.5245479 6.87972509,11.5245479 C5.71320962,11.5245479 4.8663695,11.2609655 4.33920471,10.7338007 C4.20305678,10.6063662 4.20305678,10.474575 4.33920471,10.3384271 C4.39039633,10.2872355 4.45411356,10.2616397 4.5303564,10.2616397 C4.60659924,10.2616397 4.67031647,10.2872355 4.72150808,10.3384271 C5.12995187,10.7555844 5.84881293,10.964163 6.87809129,10.964163 C7.89865617,10.964163 8.61751723,10.7555844 9.03467449,10.3384271 C9.0858661,10.2872355 9.14958333,10.2616397 9.22582617,10.2616397 C9.30206901,10.2616397 9.36578624,10.2872355 9.41697786,10.3384271 L9.42024546,10.3384271 Z M5.50081886,8.02826903 C5.50081886,8.34304305 5.39026674,8.61098218 5.1691625,8.83208642 C4.94805827,9.05319066 4.68011914,9.16374277 4.36534512,9.16374277 C4.0505711,9.16374277 3.78045361,9.05319066 3.55499264,8.83208642 C3.32953168,8.61098218 3.21680119,8.34304305 3.21680119,8.02826903 C3.21680119,7.70478154 3.32953168,7.43248568 3.55499264,7.21138144 C3.78045361,6.99027721 4.0505711,6.87972509 4.36534512,6.87972509 C4.68011914,6.87972509 4.94805827,6.99245557 5.1691625,7.21791653 C5.39026674,7.4433775 5.50081886,7.71349499 5.50081886,8.02826901 Z M10.542649,8.02826903 C10.542649,8.34304305 10.4299185,8.61098218 10.2044576,8.83208642 C9.97899659,9.05319066 9.70887909,9.16374277 9.39410508,9.16374277 C9.07933106,9.16374277 8.81139193,9.05319066 8.59028769,8.83208642 C8.36918345,8.61098218 8.25863133,8.34304305 8.25863133,8.02826903 C8.25863133,7.71349501 8.36918345,7.44337752 8.59028769,7.21791656 C8.81139193,6.99245559 9.07933106,6.87972511 9.39410508,6.87972511 C9.70887909,6.87972511 9.97899659,6.99027723 10.2044576,7.21138147 C10.4299185,7.4324857 10.542649,7.70478157 10.542649,8.02826905 Z M13.7464821,6.49742169 C13.7464821,6.08026444 13.5978086,5.72301227 13.3004615,5.42566519 C13.0031144,5.12831811 12.6415055,4.97964457 12.2156348,4.97964457 C11.789764,4.97964457 11.4237984,5.13267485 11.1177379,5.4387354 C10.0111275,4.67303943 8.68776961,4.26459564 7.14766422,4.21340402 L7.95148161,0.601127148 L10.5050722,1.17621601 C10.5050722,1.49099003 10.6156243,1.75892916 10.8367285,1.9800334 C11.0578328,2.20113763 11.3257719,2.31168975 11.6405459,2.31168975 C11.9553199,2.31168975 12.2254374,2.19895927 12.4508984,1.9734983 C12.6763594,1.74803734 12.7890899,1.47791985 12.7890899,1.16314583 C12.7890899,0.84837181 12.6763594,0.578254318 12.4508984,0.352793352 C12.2254374,0.127332387 11.9553199,0.0146019038 11.6405459,0.0146019038 C11.1809105,0.0146019038 10.8405407,0.227537265 10.6194364,0.653407988 L7.79790675,0.0276721082 C7.6367076,-0.0148060395 7.53051222,0.0532679244 7.4793206,0.231894 L6.59871579,4.21503785 C5.06732388,4.27494293 3.75267947,4.68774346 2.65478256,5.45343942 C2.35743548,5.1386654 1.98711311,4.9812784 1.54381545,4.9812784 C1.11794472,4.9812784 0.756335823,5.12995193 0.458988744,5.42729901 C0.161641665,5.72464609 0.0129681254,6.08189826 0.0129681254,6.49905551 C0.0129681254,6.79640259 0.0919339227,7.06869845 0.249865517,7.3159431 C0.407797112,7.56318775 0.618554109,7.7505273 0.88213651,7.87796176 C0.830944893,8.10777947 0.805349084,8.34631064 0.805349084,8.59355527 C0.805349084,9.80145971 1.40113243,10.8350948 2.59269912,11.6944605 C3.7842658,12.5538263 5.2181758,12.9835091 6.89442911,12.9835091 C8.57939589,12.9835091 10.0176626,12.5538263 11.2092293,11.6944605 C12.400796,10.8350948 12.9965793,9.80145971 12.9965793,8.59355527 C12.9965793,8.32125941 12.9666268,8.0789161 12.9067217,7.86652533 C13.1615906,7.73909088 13.3658125,7.55392969 13.5193874,7.31104179 C13.6729622,7.06815388 13.7497497,6.79803639 13.7497497,6.50068931 L13.7464821,6.49742169 Z" id="Shape"></path>
                    </g>
                </g>
            </g>
        </g>
    </g>
</svg>