<?xml version="1.0" encoding="UTF-8"?>
<svg width="13px" height="12px" viewBox="0 0 13 12" version="1.1" xmlns="http://www.w3.org/2000/svg" xmlns:xlink="http://www.w3.org/1999/xlink">
    <!-- Generator: sketchtool 49 (51002) - http://www.bohemiancoding.com/sketch -->
    <title>783F5974-2C69-4AE6-B4BD-1C38291250BD</title>
    <desc>Created with sketchtool.</desc>
    <defs></defs>
    <g id="Page-1" stroke="none" stroke-width="1" fill="none" fill-rule="evenodd">
        <g id="牛顿PC改" transform="translate(-1308.000000, -5806.000000)" fill="#595959" fill-rule="nonzero">
            <g id="Group-20" transform="translate(532.000000, 5679.000000)">
                <g id="Group-22" transform="translate(772.000000, 0.000000)">
                    <g id="Group-23" transform="translate(4.000000, 127.000000)">
                        <g id="telegram-(2)">
                            <path d="M10.1820106,11.4243386 C10.2490259,11.4243386 10.3084614,11.4127466 10.3629227,11.3886308 C10.5381766,11.3101317 10.665441,11.1134273 10.7313247,10.7715276 L12.5462306,1.56918625 C12.6557822,1.09231448 12.5506206,0.820205584 12.3662347,0.674539607 C12.2150871,0.554510645 12.0045245,0.538237657 11.7759754,0.646900189 L1.14176719,5.06696721 C0.703619218,5.25742553 0.573294776,5.44871915 0.583695819,5.6216992 C0.591779625,5.76867748 0.72896082,5.9072282 1.01161195,5.99489095 L3.73779834,6.92647239 L8.44407243,3.72012223 C8.58177982,3.62630319 8.76700243,3.64507642 8.88308463,3.76461829 C9.01499848,3.90046366 9.01181136,4.1175254 8.87596599,4.24943926 L5.28509731,7.73638426 L5.09886484,10.768249 C5.32225625,10.7675652 5.4340503,10.6965117 5.6483155,10.4655313 L6.97562173,9.07945135 L9.75311249,11.2878214 C9.90199133,11.3743357 10.0508447,11.4243386 10.1820106,11.4243386 Z" id="Shape"></path>
                        </g>
                    </g>
                </g>
            </g>
        </g>
    </g>
</svg>