<?xml version="1.0" encoding="UTF-8"?>
<svg width="15px" height="10px" viewBox="0 0 15 10" version="1.1" xmlns="http://www.w3.org/2000/svg" xmlns:xlink="http://www.w3.org/1999/xlink">
    <!-- Generator: sketchtool 49 (51002) - http://www.bohemiancoding.com/sketch -->
    <title>BEE0C488-5E61-463B-9F7E-880C7BA6977D</title>
    <desc>Created with sketchtool.</desc>
    <defs></defs>
    <g id="Page-1" stroke="none" stroke-width="1" fill="none" fill-rule="evenodd">
        <g id="牛顿PC改" transform="translate(-1362.000000, -6360.000000)" fill="#595959" fill-rule="nonzero">
            <g id="Group-31" transform="translate(0.000000, 6199.000000)">
                <g id="Group-20" transform="translate(468.000000, 63.000000)">
                    <g id="youtube-(1)" transform="translate(894.000000, 98.000000)">
                        <path d="M13.5416818,0.892954545 C13.0330455,0.288318182 12.0939545,0.0416818182 10.3005,0.0416818182 L3.79027273,0.0416818182 C1.95577273,0.0416818182 1.00077273,0.304227273 0.494045455,0.947954545 C0,1.57559091 0,2.50036364 0,3.78027273 L0,6.21977273 C0,8.69936364 0.586181818,9.95831818 3.79027273,9.95831818 L10.3005455,9.95831818 C11.8558182,9.95831818 12.7176364,9.74068182 13.2751818,9.20709091 C13.8469545,8.65990909 14.0909091,7.7665 14.0909091,6.21977273 L14.0909091,3.78027273 C14.0909091,2.4305 14.0526818,1.50027273 13.5416818,0.892954545 Z M9.04640909,5.33681818 L6.09013636,6.88186364 C6.02404545,6.91640909 5.95177273,6.93354545 5.87959091,6.93354545 C5.79786364,6.93354545 5.71631818,6.91154545 5.64409091,6.86781818 C5.50809091,6.78540909 5.42504545,6.638 5.42504545,6.479 L5.42504545,3.39881818 C5.42504545,3.24009091 5.50786364,3.09281818 5.64359091,3.01036364 C5.77936364,2.92790909 5.94822727,2.92227273 6.08909091,2.99545455 L9.04536364,4.53054545 C9.19577273,4.60863636 9.29022727,4.76390909 9.29045455,4.93331818 C9.29063636,5.10286364 9.19659091,5.25836364 9.04640909,5.33681818 Z" id="XMLID_823_"></path>
                    </g>
                </g>
            </g>
        </g>
    </g>
</svg>