<?xml version="1.0" encoding="UTF-8"?>
<svg width="73px" height="73px" viewBox="0 0 73 73" version="1.1" xmlns="http://www.w3.org/2000/svg" xmlns:xlink="http://www.w3.org/1999/xlink">
    <!-- Generator: sketchtool 49 (51002) - http://www.bohemiancoding.com/sketch -->
    <title>DDC61DB3-6246-4711-9773-8D8681283FC2</title>
    <desc>Created with sketchtool.</desc>
    <defs></defs>
    <g id="Page-1" stroke="none" stroke-width="1" fill="none" fill-rule="evenodd">
        <g id="牛顿PC改2" transform="translate(-1275.000000, -1004.000000)">
            <g id="Group-17" transform="translate(1257.000000, 986.000000)">
                <g id="Group-3" transform="translate(18.000000, 18.000000)">
                    <circle id="Oval-2" stroke="#666666" stroke-width="2" cx="16" cy="16" r="11"></circle>
                    <path d="M16,12.3571429 L18.6666667,12.3571429 C19.4026667,12.3571429 20,11.8131429 20,11.1428571 C20,10.4725714 19.4026667,9.92857143 18.6666667,9.92857143 L17.3333333,9.92857143 L17.3333333,8.71428571 C17.3333333,8.044 16.736,7.5 16,7.5 C15.264,7.5 14.6666667,8.044 14.6666667,8.71428571 L14.6666667,10.152 C13.1173333,10.6547143 12,11.9904286 12,13.5714286 C12,15.5798571 13.7946667,17.2142857 16,17.2142857 C16.736,17.2142857 17.3333333,17.7582857 17.3333333,18.4285714 C17.3333333,19.0988571 16.736,19.6428571 16,19.6428571 L13.3333333,19.6428571 C12.5973333,19.6428571 12,20.1868571 12,20.8571429 C12,21.5274286 12.5973333,22.0714286 13.3333333,22.0714286 L14.6666667,22.0714286 L14.6666667,23.2857143 C14.6666667,23.956 15.264,24.5 16,24.5 C16.736,24.5 17.3333333,23.956 17.3333333,23.2857143 L17.3333333,21.848 C18.8826667,21.3452857 20,20.0095714 20,18.4285714 C20,16.4201429 18.2053333,14.7857143 16,14.7857143 C15.264,14.7857143 14.6666667,14.2417143 14.6666667,13.5714286 C14.6666667,12.9011429 15.264,12.3571429 16,12.3571429 Z" id="Shape" fill="#666666"></path>
                    <circle id="Oval-2" stroke="#666666" stroke-width="2" cx="16" cy="16" r="15"></circle>
                    <circle id="Oval-2-Copy" stroke="#666666" stroke-width="2" cx="62" cy="16" r="10"></circle>
                    <circle id="Oval-2-Copy-2" stroke="#666666" stroke-width="2" cx="16" cy="63" r="9"></circle>
                    <circle id="Oval-2-Copy-2" stroke="#666666" stroke-width="2" cx="16" cy="63" r="9"></circle>
                    <circle id="Oval-2-Copy-2" stroke="#666666" stroke-width="2" cx="16" cy="63" r="5.5"></circle>
                    <circle id="Oval-2-Copy-2" stroke="#666666" stroke-width="2" cx="47" cy="47" r="9"></circle>
                    <rect id="Rectangle-8" fill="#666666" x="15" y="31" width="2" height="22"></rect>
                    <rect id="Rectangle-8-Copy-2" fill="#666666" transform="translate(42.000000, 16.000000) rotate(-270.000000) translate(-42.000000, -16.000000) " x="41" y="5" width="2" height="22"></rect>
                    <rect id="Rectangle-8-Copy" fill="#666666" transform="translate(33.778175, 33.778175) rotate(-45.000000) translate(-33.778175, -33.778175) " x="32.7781746" y="23.7781746" width="2" height="20"></rect>
                    <circle id="Oval-2-Copy-2" stroke="#666666" stroke-width="2" cx="47" cy="47" r="5.5"></circle>
                    <circle id="Oval-2-Copy" stroke="#666666" stroke-width="2" cx="62" cy="16" r="6"></circle>
                    <path d="M26,62.2134601 L43.4215668,62.2134601 C45.6307058,62.2134601 47.4215668,60.4225991 47.4215668,58.2134601 L47.4215668,56" id="Path-2" stroke="#666666" stroke-width="2"></path>
                    <path d="M55.7495103,47.2794155 L58.4215668,47.2794155 C60.6307058,47.2794155 62.4215668,45.4885545 62.4215668,43.2794155 L62.4215668,26" id="Path-2-Copy" stroke="#666666" stroke-width="2" stroke-linecap="round" stroke-linejoin="round" stroke-dasharray="2.5,3.5"></path>
                </g>
            </g>
        </g>
    </g>
</svg>