<?xml version="1.0" encoding="UTF-8"?>
<svg width="64px" height="64px" viewBox="0 0 64 64" version="1.1" xmlns="http://www.w3.org/2000/svg" xmlns:xlink="http://www.w3.org/1999/xlink">
    <!-- Generator: sketchtool 49 (51002) - http://www.bohemiancoding.com/sketch -->
    <title>B63534FA-978E-4413-B4E0-47A8A60B590C</title>
    <desc>Created with sketchtool.</desc>
    <defs>
        <linearGradient x1="50%" y1="0%" x2="50%" y2="100%" id="linearGradient-1">
            <stop stop-color="#60C3F6" offset="0%"></stop>
            <stop stop-color="#3B77EB" offset="100%"></stop>
        </linearGradient>
        <linearGradient x1="50%" y1="0%" x2="50%" y2="100%" id="linearGradient-2">
            <stop stop-color="#4087D0" offset="0%"></stop>
            <stop stop-color="#2C65D2" offset="100%"></stop>
        </linearGradient>
        <linearGradient x1="2.99629697%" y1="50%" x2="98.3025228%" y2="50%" id="linearGradient-3">
            <stop stop-color="#FEDC7A" offset="0%"></stop>
            <stop stop-color="#EFAC21" offset="100%"></stop>
        </linearGradient>
        <linearGradient x1="2.99629697%" y1="50%" x2="98.3025228%" y2="50%" id="linearGradient-4">
            <stop stop-color="#FED47A" offset="0%"></stop>
            <stop stop-color="#DB9B49" offset="100%"></stop>
        </linearGradient>
    </defs>
    <g id="Page-1" stroke="none" stroke-width="1" fill="none" fill-rule="evenodd">
        <g id="牛顿PC首页" transform="translate(-1279.000000, -1013.000000)">
            <g id="cogwheels" transform="translate(1279.000000, 1013.000000)">
                <path d="M57.1299992,20.4593568 L54.865733,20.4593568 C54.7763105,19.2988008 54.5555142,18.1768932 54.2055521,17.1090934 L56.2920772,16.2444736 L55.4464273,14.2038385 L53.3532784,15.071771 C52.8321991,14.0492449 52.1963057,13.0984945 51.4566381,12.234979 L53.0596193,10.6316228 L51.4985894,9.07022781 L49.8956082,10.673584 C49.0322947,9.93263907 48.0817666,9.2977012 47.0594797,8.77650003 L47.9261052,6.68286141 L45.8859473,5.83701375 L45.0215298,7.92402692 C43.9561876,7.57508715 42.8345424,7.35313496 41.6742578,7.26479578 L41.6742578,5 L39.4662947,5 L39.4662947,7.25485762 C38.9091521,7.29681873 38.0870538,7.43153598 37,7.65900937 L38.3302977,9.62897313 C39.3187292,9.48763044 40.0653887,9.41695909 40.5702763,9.41695909 C47.2659242,9.41695909 52.7140731,14.8663824 52.7140731,21.5635966 C52.7140731,22.3696916 52.546201,23.3897311 52.3905396,24.1748456 L54.5334346,24.8199997 C54.6979279,24.1132862 54.7939742,23.3922177 54.8535893,22.6678364 L57.1299992,22.6678364 L57.1299992,20.4593568 Z" id="Shape" fill="" fill-rule="nonzero"></path>
                <path d="M64,47.2258065 L59.0002419,47.2258065 C58.6710484,48.2941129 58.2443548,49.3278226 57.7243548,50.3112097 L61.2574194,53.8442742 L53.8442742,61.2574194 L50.3112097,57.7243548 C49.3278226,58.2443548 48.2951613,58.6720968 47.2258065,59.0002419 L47.2258065,64 L36.7419355,64 L36.7419355,59.0002419 C35.673629,58.6710484 34.6399194,58.2443548 33.6565323,57.7243548 L30.1234677,61.2574194 L22.7103226,53.8442742 L26.2433871,50.3112097 C25.7233871,49.3278226 25.2956452,48.2951613 24.9675,47.2258065 L19.9677419,47.2258065 L20.0180645,41.9335484 C20.3514516,41.9492742 20.6795968,41.983871 21.016129,41.983871 C23.7118817,41.983871 27.3599194,40.9568011 31.9602419,38.9026613 C32.8850371,38.3033158 35.1764618,36.0122405 38.8345161,32.0294355 C40.8191129,28.8255645 41.983871,25.0618548 41.983871,21.016129 C41.983871,20.6795968 41.9492742,20.3514516 41.983871,19.9677419 L47.2258065,19.9677419 L47.2258065,24.9675 C48.2941129,25.2966935 49.3278226,25.7233871 50.3112097,26.2433871 L53.8442742,22.7103226 L61.2574194,30.1234677 L57.7243548,33.6565323 C58.2443548,34.6399194 58.6720968,35.6725806 59.0002419,36.7419355 L64,36.7419355 L64,47.2258065 Z M42.3427419,51.7177419 C47.5204115,51.7177419 51.7177419,47.5204115 51.7177419,42.3427419 C51.7177419,37.1650724 47.5204115,32.9677419 42.3427419,32.9677419 C37.1650724,32.9677419 32.9677419,37.1650724 32.9677419,42.3427419 C32.9677419,47.5204115 37.1650724,51.7177419 42.3427419,51.7177419 Z" id="Shape" fill="url(#linearGradient-1)" fill-rule="nonzero"></path>
                <g id="Group">
                    <path d="M42,51.875 C36.5461881,51.875 32.125,47.4538119 32.125,42 C32.125,36.5461881 36.5461881,32.125 42,32.125 C47.4538119,32.125 51.875,36.5461881 51.875,42 C51.875,47.4538119 47.4538119,51.875 42,51.875 Z M42,50.497093 C46.6928149,50.497093 50.497093,46.6928149 50.497093,42 C50.497093,37.3071851 46.6928149,33.502907 42,33.502907 C37.3071851,33.502907 33.502907,37.3071851 33.502907,42 C33.502907,46.6928149 37.3071851,50.497093 42,50.497093 Z" id="Combined-Shape" fill="url(#linearGradient-2)"></path>
                    <path d="M21,40.5 C31.7695526,40.5 40.5,31.7695526 40.5,21 C40.5,10.2304474 31.7695526,1.5 21,1.5 C10.2304474,1.5 1.5,10.2304474 1.5,21 C1.5,31.7695526 10.2304474,40.5 21,40.5 Z M21,42 C9.40202025,42 0,32.5979797 0,21 C0,9.40202025 9.40202025,0 21,0 C32.5979797,0 42,9.40202025 42,21 C42,32.5979797 32.5979797,42 21,42 Z" id="Oval-2" fill="url(#linearGradient-3)" fill-rule="nonzero"></path>
                    <path d="M21.016129,3.19354839 C11.1885484,3.19354839 3.19354839,11.1885484 3.19354839,21.016129 C3.19354839,30.8437097 11.1885484,38.8387097 21.016129,38.8387097 C30.8437097,38.8387097 38.8387097,30.8437097 38.8387097,21.016129 C38.8387097,11.1885484 30.8437097,3.19354839 21.016129,3.19354839 Z M32.7664516,10.6004032 L26.1668548,14.4112903 C25.5587903,13.936371 24.8867742,13.5421774 24.1623387,13.2475806 L24.1623387,5.60693548 C27.5580645,6.29991935 30.5470161,8.1 32.7664516,10.6004032 Z M36.7419355,21.016129 C36.7419355,22.7554032 36.4462903,24.4244355 35.9231452,25.9896774 L29.3141129,22.1735484 C29.3665323,21.7950806 29.4032258,21.4103226 29.4032258,21.016129 C29.4032258,20.6219355 29.3665323,20.2371774 29.3130645,19.8576613 L35.9220968,16.0415323 C36.4462903,17.6078226 36.7419355,19.2768548 36.7419355,21.016129 Z M21.016129,27.3064516 C17.5470161,27.3064516 14.7258065,24.4852419 14.7258065,21.016129 C14.7258065,17.5470161 17.5470161,14.7258065 21.016129,14.7258065 C24.4852419,14.7258065 27.3064516,17.5470161 27.3064516,21.016129 C27.3064516,24.4852419 24.4852419,27.3064516 21.016129,27.3064516 Z M5.29032258,21.016129 C5.29032258,19.2768548 5.58596774,17.6078226 6.1091129,16.0425806 L12.7181452,19.8587097 C12.6657258,20.2371774 12.6290323,20.6219355 12.6290323,21.016129 C12.6290323,21.4103226 12.6657258,21.7950806 12.7191935,22.1745968 L6.11016129,25.9907258 C5.58596774,24.4244355 5.29032258,22.7554032 5.29032258,21.016129 Z M13.286371,17.7640323 L6.92056452,14.0883871 C7.2308871,13.4583065 7.56951613,12.845 7.95846774,12.2662903 L14.3462903,15.9545161 C13.9227419,16.5091129 13.5610484,17.1129839 13.286371,17.7640323 Z M13.286371,24.2682258 C13.5610484,24.9192742 13.9227419,25.5231452 14.3452419,26.0777419 L7.95741935,29.7659677 C7.56846774,29.1872581 7.2308871,28.5729032 6.91951613,27.943871 L13.286371,24.2682258 Z M28.7458871,24.2682258 L35.1116935,27.943871 C34.801371,28.5739516 34.4627419,29.1872581 34.0737903,29.7659677 L27.6859677,26.0777419 C28.1095161,25.5231452 28.4712097,24.9192742 28.7458871,24.2682258 Z M28.7458871,17.7640323 C28.4712097,17.1129839 28.1095161,16.5091129 27.6870161,15.9545161 L34.0748387,12.2662903 C34.4637903,12.845 34.801371,13.4593548 35.1127419,14.0883871 L28.7458871,17.7640323 Z M22.0645161,5.34379032 L22.0645161,12.7024194 C21.7206452,12.6583871 21.3715323,12.6290323 21.016129,12.6290323 C20.6607258,12.6290323 20.3116129,12.6583871 19.9677419,12.701371 L19.9677419,5.34379032 C20.3158065,5.32072581 20.6617742,5.29032258 21.016129,5.29032258 C21.3704839,5.29032258 21.7164516,5.32072581 22.0645161,5.34379032 Z M17.8709677,5.60693548 L17.8709677,13.2465323 C17.1465323,13.541129 16.4745161,13.9353226 15.8664516,14.4102419 L9.26685484,10.5993548 C11.4852419,8.1 14.4741935,6.29991935 17.8709677,5.60693548 Z M9.26580645,31.4318548 L15.8654032,27.6209677 C16.4734677,28.0958871 17.1454839,28.4900806 17.8699194,28.7846774 L17.8699194,36.4242742 C14.4741935,35.7323387 11.4852419,33.9322581 9.26580645,31.4318548 Z M19.9677419,36.6884677 L19.9677419,29.3298387 C20.3116129,29.373871 20.6607258,29.4032258 21.016129,29.4032258 C21.3715323,29.4032258 21.7206452,29.373871 22.0645161,29.3308871 L22.0645161,36.6895161 C21.7164516,36.7115323 21.3704839,36.7419355 21.016129,36.7419355 C20.6617742,36.7419355 20.3158065,36.7115323 19.9677419,36.6884677 Z M24.1612903,36.4253226 L24.1612903,28.7857258 C24.8857258,28.491129 25.5577419,28.0969355 26.1658065,27.6220161 L32.7654032,31.4329032 C30.5470161,33.9322581 27.5580645,35.7323387 24.1612903,36.4253226 Z" id="Shape" fill="url(#linearGradient-3)" fill-rule="nonzero"></path>
                    <path d="M21.1935484,17 C18.8808065,17 17,18.8808065 17,21.1935484 C17,23.5062903 18.8808065,25.3870968 21.1935484,25.3870968 C23.5062903,25.3870968 25.3870968,23.5062903 25.3870968,21.1935484 C25.3870968,18.8808065 23.5062903,17 21.1935484,17 Z M21.1935484,23.2903226 C20.0371774,23.2903226 19.0967742,22.3499194 19.0967742,21.1935484 C19.0967742,20.0371774 20.0371774,19.0967742 21.1935484,19.0967742 C22.3499194,19.0967742 23.2903226,20.0371774 23.2903226,21.1935484 C23.2903226,22.3499194 22.3499194,23.2903226 21.1935484,23.2903226 Z" id="Shape" fill="url(#linearGradient-4)" fill-rule="nonzero"></path>
                    <path d="M41.9435484,35.6935484 C38.4966734,35.6935484 35.6935484,38.4966734 35.6935484,41.9435484 C35.6935484,45.3904234 38.4966734,48.1935484 41.9435484,48.1935484 C45.3904234,48.1935484 48.1935484,45.3904234 48.1935484,41.9435484 C48.1935484,38.4966734 45.3904234,35.6935484 41.9435484,35.6935484 Z M41.9435484,45.0685484 C40.2201109,45.0685484 38.8185484,43.6669859 38.8185484,41.9435484 C38.8185484,40.2201109 40.2201109,38.8185484 41.9435484,38.8185484 C43.6669859,38.8185484 45.0685484,40.2201109 45.0685484,41.9435484 C45.0685484,43.6669859 43.6669859,45.0685484 41.9435484,45.0685484 Z" id="Shape-Copy" fill="url(#linearGradient-2)" fill-rule="nonzero"></path>
                </g>
            </g>
        </g>
    </g>
</svg>