<?xml version="1.0" encoding="UTF-8"?>
<svg width="71px" height="66px" viewBox="0 0 71 66" version="1.1" xmlns="http://www.w3.org/2000/svg" xmlns:xlink="http://www.w3.org/1999/xlink">
    <!-- Generator: sketchtool 49 (51002) - http://www.bohemiancoding.com/sketch -->
    <title>B5541572-C0DB-451E-93FB-079B4BCB6A3E</title>
    <desc>Created with sketchtool.</desc>
    <defs>
        <linearGradient x1="50%" y1="0%" x2="50%" y2="100%" id="linearGradient-1">
            <stop stop-color="#FFDCB4" offset="0%"></stop>
            <stop stop-color="#FFBB64" offset="100%"></stop>
        </linearGradient>
        <linearGradient x1="50%" y1="0%" x2="50%" y2="100%" id="linearGradient-2">
            <stop stop-color="#60C3F6" offset="0%"></stop>
            <stop stop-color="#3B77EB" offset="100%"></stop>
        </linearGradient>
        <linearGradient x1="11.4661734%" y1="15.1461538%" x2="88.5357401%" y2="84.8555769%" id="linearGradient-3">
            <stop stop-color="#E68CBC" offset="0%"></stop>
            <stop stop-color="#8366B3" offset="100%"></stop>
        </linearGradient>
        <linearGradient x1="50%" y1="-2.48949813e-15%" x2="50%" y2="100%" id="linearGradient-4">
            <stop stop-color="#FFEFD5" offset="0%"></stop>
            <stop stop-color="#FFD69E" offset="100%"></stop>
        </linearGradient>
        <radialGradient cx="50%" cy="12.0606486%" fx="50%" fy="12.0606486%" r="249.970411%" gradientTransform="translate(0.500000,0.120606),scale(1.000000,0.400047),rotate(90.000000),translate(-0.500000,-0.120606)" id="radialGradient-5">
            <stop stop-color="#FAA8A1" offset="0%"></stop>
            <stop stop-color="#DD5598" offset="100%"></stop>
        </radialGradient>
        <radialGradient cx="50%" cy="12.0606486%" fx="50%" fy="12.0606486%" r="100%" gradientTransform="translate(0.500000,0.120606),scale(0.999882,1.000000),rotate(90.000000),translate(-0.500000,-0.120606)" id="radialGradient-6">
            <stop stop-color="#FAA8A1" offset="0%"></stop>
            <stop stop-color="#DD5598" offset="100%"></stop>
        </radialGradient>
    </defs>
    <g id="Page-1" stroke="none" stroke-width="1" fill="none" fill-rule="evenodd">
        <g id="牛顿PC首页" transform="translate(-1276.000000, -1331.000000)">
            <g id="handshake" transform="translate(1276.000000, 1331.000000)">
                <path d="M46.5245527,39.2810924 L35.4583984,29.1315126 L37.0808594,29.1315126 C38.7450605,29.1315126 40.3256426,28.4658277 41.490625,27.3012605 L43.8203125,24.9718487 L44.4444746,24.3477605 C45.734123,23.0582647 44.81875,20.8121849 42.9466797,20.8121849 L31.3398437,20.8121849 L25.5988281,20.8121849 C23.2505586,20.8121849 21.1021152,22.1331555 20.0425234,24.2285168 L18.1521484,27.9666681 C17.7909082,28.681021 17.0583047,29.1315126 16.257752,29.1315126 L8.45898438,29.1315126 L8.45898438,58.2491597 L22.1457598,58.2491597 L28.0533203,64.1557437 C29.259627,65.3619076 30.8404863,65.9859958 32.4630859,65.9859958 C33.0869707,65.9859958 33.7111328,65.9026639 34.3350176,65.6948193 L52.140625,58.2491597 L46.5245527,39.2810924 Z" id="Shape" fill="url(#linearGradient-1)" fill-rule="nonzero"></path>
                <path d="M12.6191406,58.2491597 L2.08007812,58.2491597 C0.931320312,58.2491597 0,57.3179496 0,56.1693277 L0,31.2113445 C0,30.0627227 0.931320313,29.1315126 2.08007812,29.1315126 L12.6191406,29.1315126 L12.6191406,58.2491597 Z" id="Shape" fill="url(#linearGradient-2)" fill-rule="nonzero"></path>
                <path d="M68.9199219,58.2491597 L54.2207031,58.2491597 L50.0616563,54.0894958 L50.0616563,33.2911765 L54.2207031,29.1315126 L68.9199219,29.1315126 C70.0686797,29.1315126 71,30.0627227 71,31.2113445 L71,56.1693277 C71,57.3179496 70.0686797,58.2491597 68.9199219,58.2491597 Z" id="Shape" fill="url(#linearGradient-3)" fill-rule="nonzero"></path>
                <path d="M29.7513574,29.1315126 C28.1752129,29.1315126 26.7344121,30.0218193 26.0296816,31.4313908 L19.6963984,44.0965966 C21.0369395,44.6808908 22.4712227,44.9030168 23.9300508,44.7467521 C26.8851484,44.4299244 29.3744473,42.3646513 30.7036172,39.7066261 L31.8315742,37.4508403 L37.9377129,37.4508403 C39.032666,37.4508403 40.1051543,37.8956471 40.879082,38.6694832 L50.0605469,57.0522857 C50.4030664,57.7827227 51.333832,58.2491597 52.140625,58.2491597 L58.3808594,58.2491597 L58.3808594,29.1315126 L29.7513574,29.1315126 Z" id="Shape" fill="url(#linearGradient-4)" fill-rule="nonzero"></path>
                <g id="Group" transform="translate(16.779297, 8.000000)"></g>
                <g id="Group" transform="translate(16.500000, 0.000000)" fill-rule="nonzero" opacity="0.600000024">
                    <path d="M21.0800781,2.09369748 L21.0800781,8.33319328 C21.0800781,9.4977605 20.1649824,10.4130252 19,10.4130252 C17.8350176,10.4130252 16.9199219,9.4977605 16.9199219,8.33319328 L16.9199219,2.09369748 C16.9199219,0.928852941 17.8350176,0.0138655462 19,0.0138655462 C20.1649824,0.0138655462 21.0800781,0.928852941 21.0800781,2.09369748 Z" id="Shape" fill="url(#radialGradient-5)"></path>
                    <path d="M5.04891602,16.0432689 L0.888759766,11.883605 C0.07628125,11.0712227 0.07628125,9.75496639 0.888759766,8.94258403 C1.70123828,8.13020168 3.01765039,8.13020168 3.83012891,8.94258403 L7.99028516,13.1022479 C8.80276367,13.9146303 8.80276367,15.2308866 7.99028516,16.0432689 C7.17766797,16.8556513 5.86139453,16.8556513 5.04891602,16.0432689 Z" id="Shape" fill="url(#radialGradient-6)"></path>
                    <path d="M30.0098535,16.0432689 C29.197375,15.2308866 29.197375,13.9146303 30.0098535,13.1022479 L34.1700098,8.94258403 C34.9824883,8.13020168 36.2989004,8.13020168 37.1113789,8.94258403 C37.9238574,9.75496639 37.9238574,11.0712227 37.1113789,11.883605 L32.9512227,16.0432689 C32.1386055,16.8556513 30.822332,16.8556513 30.0098535,16.0432689 Z" id="Shape" fill="url(#radialGradient-6)"></path>
                </g>
            </g>
        </g>
    </g>
</svg>