<?xml version="1.0" encoding="UTF-8" standalone="no"?>
<svg
   xmlns:dc="http://purl.org/dc/elements/1.1/"
   xmlns:cc="http://creativecommons.org/ns#"
   xmlns:rdf="http://www.w3.org/1999/02/22-rdf-syntax-ns#"
   xmlns:svg="http://www.w3.org/2000/svg"
   xmlns="http://www.w3.org/2000/svg"
   xmlns:sodipodi="http://sodipodi.sourceforge.net/DTD/sodipodi-0.dtd"
   xmlns:inkscape="http://www.inkscape.org/namespaces/inkscape"
   version="1.1"
   x="0px"
   y="0px"
   viewBox="0 0 73 92"
   enable-background="new 0 0 100 100"
   xml:space="preserve"
   id="svg8"
   sodipodi:docname="secure_data.svg"
   inkscape:version="0.92.4 5da689c313, 2019-01-14"
   width="73"
   height="92"><metadata
     id="metadata14"><rdf:RDF><cc:Work
         rdf:about=""><dc:format>image/svg+xml</dc:format><dc:type
           rdf:resource="http://purl.org/dc/dcmitype/StillImage" /><dc:title></dc:title></cc:Work></rdf:RDF></metadata><defs
     id="defs12" /><sodipodi:namedview
     pagecolor="#ffffff"
     bordercolor="#666666"
     borderopacity="1"
     objecttolerance="10"
     gridtolerance="10"
     guidetolerance="10"
     inkscape:pageopacity="0"
     inkscape:pageshadow="2"
     inkscape:window-width="1920"
     inkscape:window-height="1042"
     id="namedview10"
     showgrid="false"
     inkscape:zoom="1.888"
     inkscape:cx="49.470339"
     inkscape:cy="62.5"
     inkscape:window-x="0"
     inkscape:window-y="37"
     inkscape:window-maximized="1"
     inkscape:current-layer="svg8" /><path
     d="m 68.15,62.95 c -8.8,-7.3 -18.4,-12.1 -20.3,-13 -0.6,-0.3 -1,-1 -1,-1.7 v -13.9 c 0,-0.4 0.2,-0.8 0.5,-1 1.5,-1 2.4,-2.6 2.4,-4.4 v -14.4 c 0,-6.5000001 -5.3,-11.8000001 -11.7,-11.8000001 h -3.1 c -6.5,0 -11.8,5.3 -11.8,11.8000001 v 14.4 c 0,1.8 0.9,3.4 2.4,4.4 0.3,0.2 0.5,0.6 0.5,1 v 13.9 c 0,0.7 -0.4,1.4 -1,1.7 -1.8,0.9 -11.4,5.7 -20.3000002,13 -1.3,1.1 -2.1,2.7 -2.1,4.5 v 9.9 c 0,0.7 -0.5,1.2 -1.2,1.2 -0.7,0 -1.2,-0.5 -1.2,-1.2 v -9.9 c 0,-2.5 1.1,-4.8 3,-6.3 C 11.85,54.05 21.15,49.25 23.65,47.95 v -13 c -1.8,-1.5 -2.9,-3.7 -2.9,-6 v -14.4 c 0,-7.8000001 6.4,-14.20000002 14.2,-14.20000002 h 3.1 c 7.8,0 14.2,6.39999992 14.2,14.20000002 v 14.4 c 0,2.4 -1.1,4.6 -2.9,6 v 12.9 c 2.5,1.2 11.8,6.1 20.4,13.2 1.9,1.6 3,3.9 3,6.3 v 9.9 c 0,0.7 -0.5,1.2 -1.2,1.2 -0.7,0 -1.2,-0.5 -1.2,-1.2 v -9.9 c -0.1,-1.7 -0.8,-3.3 -2.2,-4.4 z m -23.5,8 v 4.2 h 2.8 c 0.7,0 1.2,0.5 1.2,1.2 v 14.1 c 0,0.7 -0.5,1.2 -1.2,1.2 h -21.9 c -0.7,0 -1.2,-0.5 -1.2,-1.2 v -14 c 0,-0.7 0.5,-1.2 1.2,-1.2 h 2.8 v -4.2 c 0,-4.5 3.7,-8.2 8.2,-8.2 4.5,0 8.1,3.6 8.1,8.1 z m -13.9,4.2 h 11.4 v -4.2 c 0,-3.1 -2.6,-5.7 -5.7,-5.7 -3.1,0 -5.7,2.6 -5.7,5.7 z m 15.4,2.5 h -19.4 v 11.7 h 19.4 z"
     id="path2"
     inkscape:connector-curvature="0" /></svg>