<?xml version="1.0" encoding="UTF-8"?>
<svg width="13px" height="13px" viewBox="0 0 13 13" version="1.1" xmlns="http://www.w3.org/2000/svg" xmlns:xlink="http://www.w3.org/1999/xlink">
    <!-- Generator: Sketch 49 (51002) - http://www.bohemiancoding.com/sketch -->
    <title>slack-symbol</title>
    <desc>Created with Sketch.</desc>
    <defs></defs>
    <g id="Page-1" stroke="none" stroke-width="1" fill="none" fill-rule="evenodd">
        <g id="牛顿PC改" transform="translate(-1245.000000, -6420.000000)" fill="#595959" fill-rule="nonzero">
            <g id="Group-31" transform="translate(0.000000, 6199.000000)">
                <g id="Group-20" transform="translate(468.000000, 62.000000)">
                    <g id="Group-22" transform="translate(772.000000, 0.000000)">
                        <g id="slack-symbol" transform="translate(5.000000, 159.000000)">
                            <path d="M12.6758125,6.64990625 C12.4239375,6.08603125 11.7621563,5.8329375 11.1982813,6.0848125 L10.66,6.326125 L9.280375,3.24228125 L9.81865625,3.00178125 C10.3825313,2.74909375 10.6352188,2.08771875 10.3829375,1.52425 C10.1310625,0.95996875 9.4696875,0.706875 8.90540625,0.9595625 L8.36753125,1.20046875 L8.126625,0.66178125 C7.87434375,0.09790625 7.21296875,-0.154375 6.64909375,0.09790625 C6.08521875,0.34978125 5.8329375,1.01075 6.0848125,1.5754375 L6.32571875,2.11371875 L3.241875,3.4929375 L3.001375,2.95465625 C2.74909375,2.38996875 2.08771875,2.1385 1.52384375,2.38996875 C0.95996875,2.64225 0.7076875,3.303625 0.9595625,3.8675 L1.2000625,4.405375 L0.6621875,4.6466875 C0.0983125,4.89896875 -0.154375,5.55953125 0.09790625,6.1238125 C0.34978125,6.6876875 1.0115625,6.940375 1.5754375,6.6885 L2.11371875,6.4471875 L3.49253125,9.5314375 L2.95425,9.7719375 C2.390375,10.0242188 2.13809375,10.686 2.38996875,11.2494688 C2.64225,11.81375 3.303625,12.0664375 3.8675,11.8145625 L4.405375,11.5736563 L4.64628125,12.1119375 C4.8985625,12.6762188 5.5599375,12.9285 6.1238125,12.6762188 C6.68728125,12.4243438 6.93996875,11.7629688 6.6876875,11.1990938 L6.44759375,10.6604063 L9.5314375,9.28159375 L9.7719375,9.81825 C10.0242188,10.3833438 10.6851875,10.6360313 11.2494688,10.38375 C11.8133437,10.1322813 12.0660312,9.4705 11.81375,8.90621875 L11.57325,8.36834375 L12.1107188,8.12703125 C12.6754062,7.87475 12.9280938,7.21378125 12.6758125,6.64990625 Z M5.53434375,8.61859375 L4.155125,5.5339375 L7.23896875,4.155125 L8.6181875,7.23896875 L5.53434375,8.61859375 Z" id="Shape"></path>
                        </g>
                    </g>
                </g>
            </g>
        </g>
    </g>
</svg>