<?xml version="1.0" encoding="UTF-8"?>
<svg width="14px" height="11px" viewBox="0 0 14 11" version="1.1" xmlns="http://www.w3.org/2000/svg" xmlns:xlink="http://www.w3.org/1999/xlink">
    <!-- Generator: sketchtool 49 (51002) - http://www.bohemiancoding.com/sketch -->
    <title>02C972BC-6A1C-4B6E-AC66-40CDDD1E421F</title>
    <desc>Created with sketchtool.</desc>
    <defs></defs>
    <g id="Page-1" stroke="none" stroke-width="1" fill="none" fill-rule="evenodd">
        <g id="牛顿PC改" transform="translate(-1308.000000, -5750.000000)" fill="#595959" fill-rule="nonzero">
            <g id="Group-20" transform="translate(532.000000, 5679.000000)">
                <g id="Group-22" transform="translate(772.000000, 0.000000)">
                    <g id="twitter" transform="translate(4.000000, 71.000000)">
                        <path d="M13.2118761,1.24913274 C12.7438407,1.45667257 12.2403717,1.59704425 11.7123717,1.65973451 C12.251469,1.33674336 12.6651858,0.825681416 12.8604602,0.215716814 C12.3560177,0.514955752 11.7970619,0.732035398 11.2026726,0.849044248 C10.7264602,0.341876106 10.0479646,0.024920354 9.29665487,0.024920354 C7.85516814,0.024920354 6.6860531,1.1940354 6.6860531,2.63552212 C6.6860531,2.84014159 6.70922124,3.03930973 6.754,3.23049558 C4.58437168,3.12166372 2.66063717,2.08240708 1.37295575,0.502495575 C1.14828319,0.887982301 1.01939823,1.33674336 1.01939823,1.81509735 C1.01939823,2.72060177 1.48061947,3.52 2.18072566,3.9880354 C1.75299115,3.97460177 1.35017699,3.85720354 0.998371681,3.66115044 C0.998176991,3.67224779 0.998176991,3.68334513 0.998176991,3.69424779 C0.998176991,4.95915044 1.89842478,6.01417699 3.09246018,6.25384071 C2.87362832,6.31380531 2.64253097,6.34553982 2.40481416,6.34553982 C2.23621239,6.34553982 2.07286726,6.32938053 1.91361062,6.29900885 C2.24575221,7.3359292 3.20966372,8.09074336 4.35230088,8.1119646 C3.45867257,8.81226549 2.33316814,9.22948673 1.10973451,9.22948673 C0.899469027,9.22948673 0.691150442,9.21722124 0.487309735,9.19288496 C1.6420177,9.93387611 3.01458407,10.3658938 4.48877876,10.3658938 C9.29061947,10.3658938 11.9166018,6.3879823 11.9166018,2.93787611 C11.9166018,2.82476106 11.9140708,2.7120354 11.9090088,2.60028319 C12.4194867,2.23231858 12.8620177,1.77265487 13.2118761,1.24913274 Z" id="Shape"></path>
                    </g>
                </g>
            </g>
        </g>
    </g>
</svg>