<?xml version="1.0" encoding="UTF-8"?>
<svg width="14px" height="12px" viewBox="0 0 14 12" version="1.1" xmlns="http://www.w3.org/2000/svg" xmlns:xlink="http://www.w3.org/1999/xlink">
    <!-- Generator: sketchtool 49 (51002) - http://www.bohemiancoding.com/sketch -->
    <title>8B60E453-982C-4E23-B41F-8328BCF33B11</title>
    <desc>Created with sketchtool.</desc>
    <defs></defs>
    <g id="Page-1" stroke="none" stroke-width="1" fill="none" fill-rule="evenodd">
        <g id="牛顿PC改" transform="translate(-1308.000000, -5719.000000)" fill="#595959" fill-rule="nonzero">
            <g id="Group-20" transform="translate(532.000000, 5679.000000)">
                <g id="Group-22" transform="translate(772.000000, 0.000000)">
                    <g id="Group-21" transform="translate(4.000000, 40.000000)">
                        <g id="wechat">
                            <path d="M5.14285714,0 C2.30228571,0 0,1.91914286 0,4.28571429 C0,5.65028571 0.769714286,6.86057143 1.96371429,7.644 L1.28571429,9 L3.13285714,8.20885714 C3.52885714,8.34942857 3.94028571,8.46514286 4.38,8.51914286 C4.32,8.25771429 4.28571429,7.98942857 4.28571429,7.71428571 C4.28571429,5.35114286 6.59228571,3.42857143 9.42857143,3.42857143 C9.68828571,3.42857143 9.942,3.45 10.1922857,3.48085714 C9.73971429,1.49914286 7.65257143,0 5.14285714,0 Z M3.42857143,3.21428571 C3.07371429,3.21428571 2.78571429,2.92628571 2.78571429,2.57142857 C2.78571429,2.21657143 3.07371429,1.92857143 3.42857143,1.92857143 C3.78342857,1.92857143 4.07142857,2.21657143 4.07142857,2.57142857 C4.07142857,2.92628571 3.78342857,3.21428571 3.42857143,3.21428571 Z M6.85714286,3.21428571 C6.50228571,3.21428571 6.21428571,2.92628571 6.21428571,2.57142857 C6.21428571,2.21657143 6.50228571,1.92857143 6.85714286,1.92857143 C7.212,1.92857143 7.5,2.21657143 7.5,2.57142857 C7.5,2.92628571 7.212,3.21428571 6.85714286,3.21428571 Z" id="Shape"></path>
                            <path d="M13.7142857,7.71428571 C13.7142857,5.82085714 11.7951429,4.28571429 9.42857143,4.28571429 C7.062,4.28571429 5.14285714,5.82085714 5.14285714,7.71428571 C5.14285714,9.60771429 7.062,11.1428571 9.42857143,11.1428571 C9.81771429,11.1428571 10.188,11.088 10.5471429,11.01 L12.8571429,12 L12.0582857,10.4031429 C13.0594286,9.77571429 13.7142857,8.81057143 13.7142857,7.71428571 Z M8.14285714,7.5 C7.788,7.5 7.5,7.212 7.5,6.85714286 C7.5,6.50228571 7.788,6.21428571 8.14285714,6.21428571 C8.49771429,6.21428571 8.78571429,6.50228571 8.78571429,6.85714286 C8.78571429,7.212 8.49771429,7.5 8.14285714,7.5 Z M10.7142857,7.5 C10.3594286,7.5 10.0714286,7.212 10.0714286,6.85714286 C10.0714286,6.50228571 10.3594286,6.21428571 10.7142857,6.21428571 C11.0691429,6.21428571 11.3571429,6.50228571 11.3571429,6.85714286 C11.3571429,7.212 11.0691429,7.5 10.7142857,7.5 Z" id="Shape"></path>
                        </g>
                    </g>
                </g>
            </g>
        </g>
    </g>
</svg>