<?xml version="1.0" encoding="UTF-8"?>
<svg width="245px" height="204px" viewBox="0 0 245 204" version="1.1" xmlns="http://www.w3.org/2000/svg" xmlns:xlink="http://www.w3.org/1999/xlink">
    <!-- Generator: sketchtool 49 (51002) - http://www.bohemiancoding.com/sketch -->
    <title>69098836-9E76-4D47-ADF7-F84459229DEF</title>
    <desc>Created with sketchtool.</desc>
    <defs></defs>
    <g id="Page-1" stroke="none" stroke-width="1" fill="none" fill-rule="evenodd">
        <g id="牛顿博客" transform="translate(-430.000000, -106.000000)" fill="#515769" fill-rule="nonzero">
            <g id="Bitmap" transform="translate(0.000000, 50.000000)">
                <g id="paper" transform="translate(430.000000, 56.000000)">
                    <circle id="Oval" cx="130" cy="69.5703125" r="7.6171875"></circle>
                    <circle id="Oval" cx="191.445312" cy="191.445312" r="7.6171875"></circle>
                    <path d="M252.382812,214.296875 L244.765625,214.296875 L244.765625,38.0859375 C244.765625,33.8792187 241.355156,30.46875 237.148438,30.46875 L214.296875,30.46875 L214.296875,7.6171875 C214.296875,3.41046875 210.886406,0 206.679688,0 L7.6171875,0 C3.41046875,0 0,3.41046875 0,7.6171875 L0,221.914062 C0,226.120781 3.41046875,229.53125 7.6171875,229.53125 L30.46875,229.53125 C30.46875,246.331719 44.1370312,260 60.9375,260 L229.53125,260 C246.331719,260 260,246.331719 260,229.53125 L260,221.914062 C260,217.707344 256.589531,214.296875 252.382812,214.296875 Z M38.0859375,30.46875 C33.8792187,30.46875 30.46875,33.8792187 30.46875,38.0859375 C30.46875,41.7101953 30.46875,210.498437 30.46875,214.296875 L15.234375,214.296875 L15.234375,15.234375 L199.0625,15.234375 L199.0625,30.46875 L38.0859375,30.46875 Z M80.8239453,214.895586 C78.0903906,216.051875 76.171875,218.759023 76.171875,221.914062 L76.171875,229.53125 C76.171875,237.931484 69.3377344,244.765625 60.9375,244.765625 C52.5372656,244.765625 45.703125,237.931484 45.703125,229.53125 C45.703125,228.081953 45.703125,50.8228906 45.703125,45.703125 L229.53125,45.703125 L229.53125,214.296875 L83.7890625,214.296875 C82.7373828,214.296875 81.7354687,214.510156 80.8239453,214.895586 Z M229.53125,244.765625 L87.3071875,244.765625 C89.9087109,240.280117 91.40625,235.02832 91.40625,229.480469 L244.765625,229.480469 C244.765625,237.880703 237.931484,244.765625 229.53125,244.765625 Z" id="Shape"></path>
                    <path d="M99.53125,61.953125 L68.5546875,61.953125 C64.3479687,61.953125 60.9375,65.3635937 60.9375,69.5703125 C60.9375,73.7770312 64.3479687,77.1875 68.5546875,77.1875 L99.53125,77.1875 C103.737969,77.1875 107.148438,73.7770312 107.148438,69.5703125 C107.148438,65.3635937 103.737969,61.953125 99.53125,61.953125 Z" id="Shape"></path>
                    <path d="M206.679688,92.421875 L68.5546875,92.421875 C64.3479687,92.421875 60.9375,95.8323438 60.9375,100.039062 C60.9375,104.245781 64.3479687,107.65625 68.5546875,107.65625 L206.679688,107.65625 C210.886406,107.65625 214.296875,104.245781 214.296875,100.039062 C214.296875,95.8323438 210.886406,92.421875 206.679688,92.421875 Z" id="Shape"></path>
                    <path d="M206.679688,122.890625 L68.5546875,122.890625 C64.3479687,122.890625 60.9375,126.301094 60.9375,130.507812 C60.9375,134.714531 64.3479687,138.125 68.5546875,138.125 L206.679688,138.125 C210.886406,138.125 214.296875,134.714531 214.296875,130.507812 C214.296875,126.301094 210.886406,122.890625 206.679688,122.890625 Z" id="Shape"></path>
                    <path d="M206.679688,153.359375 L68.5546875,153.359375 C64.3479687,153.359375 60.9375,156.769844 60.9375,160.976562 C60.9375,165.183281 64.3479687,168.59375 68.5546875,168.59375 L206.679688,168.59375 C210.886406,168.59375 214.296875,165.183281 214.296875,160.976562 C214.296875,156.769844 210.886406,153.359375 206.679688,153.359375 Z" id="Shape"></path>
                    <path d="M160.976562,183.828125 L68.5546875,183.828125 C64.3479687,183.828125 60.9375,187.238594 60.9375,191.445312 C60.9375,195.652031 64.3479687,199.0625 68.5546875,199.0625 L160.976562,199.0625 C165.183281,199.0625 168.59375,195.652031 168.59375,191.445312 C168.59375,187.238594 165.183281,183.828125 160.976562,183.828125 Z" id="Shape"></path>
                </g>
            </g>
        </g>
    </g>
</svg>