<?xml version="1.0" encoding="UTF-8"?>
<svg width="250px" height="228px" viewBox="0 0 250 228" version="1.1" xmlns="http://www.w3.org/2000/svg" xmlns:xlink="http://www.w3.org/1999/xlink">
    <!-- Generator: sketchtool 49 (51002) - http://www.bohemiancoding.com/sketch -->
    <title>6060976B-5A41-4F81-B00D-C481A013240A</title>
    <desc>Created with sketchtool.</desc>
    <defs></defs>
    <g id="Page-1" stroke="none" stroke-width="1" fill="none" fill-rule="evenodd">
        <g id="牛顿版权" transform="translate(-405.000000, -83.000000)" fill="#6C6C6C" fill-rule="nonzero">
            <g id="Bitmap" transform="translate(0.000000, 50.000000)">
                <g id="copyright" transform="translate(405.000000, 33.000000)">
                    <g id="Group" transform="translate(125.000000, 126.423002) scale(-1, 1) rotate(-180.000000) translate(-125.000000, -126.423002) translate(0.000000, 0.423002)">
                        <g>
                            <g>
                                <path d="M125,250.589669 C55.9644063,250.589669 0,194.625262 0,125.589669 C0,56.5540749 55.9644063,0.589668616 125,0.589668616 C194.035594,0.589668616 250,56.5540749 250,125.589669 C250,194.625262 194.035594,250.589669 125,250.589669 Z M125.5,229.589669 C182.661472,229.589669 229,183.25114 229,126.089669 C229,68.928197 182.661472,22.5896686 125.5,22.5896686 C68.3385284,22.5896686 22,68.928197 22,126.089669 C22,183.25114 68.3385284,229.589669 125.5,229.589669 Z" id="Oval-2"></path>
                                <path d="M129.7673,205.178484 C145.451998,205.178484 175.968567,200.02193 175.968567,181.107456 C175.968567,173.37232 170.590278,166.711745 162.647417,166.711745 C153.831019,166.711745 147.822247,174.231847 129.7673,174.231847 C103.11769,174.231847 89.3670809,151.664839 89.3670809,125.451998 C89.3670809,99.8836501 103.332724,77.9611355 129.7673,77.9611355 C147.822247,77.9611355 155.120614,86.9779483 163.929703,86.9779483 C173.612329,86.9779483 178.117081,77.3160331 178.117081,72.3745127 C178.117081,51.7409844 145.666423,47.0144981 129.7673,47.0144981 C86.1440058,47.0144981 55.8424708,81.6136696 55.8424708,126.095882 C55.8424708,170.794347 85.9295809,205.178484 129.7673,205.178484" id="Shape"></path>
                            </g>
                        </g>
                    </g>
                </g>
            </g>
        </g>
    </g>
</svg>