<svg id="图层_1" data-name="图层 1" xmlns="http://www.w3.org/2000/svg" viewBox="0 0 250 250"><defs><style>.cls-1{fill:#3e92dd;}</style></defs><title>画板 5</title><path class="cls-1" d="M124,244.33a121,121,0,1,1,121-121,121,121,0,0,1-121,121ZM124,225A101.64,101.64,0,1,0,22.36,123.33,101.64,101.64,0,0,0,124,225ZM75.6,113.65l-11.38,6L66.4,107l-9.21-9,12.72-1.85L75.6,84.61l5.69,11.53L94,98l-9.2,9L87,119.64ZM124,79.77l-11.38,6,2.17-12.67-9.2-9,12.72-1.85L124,50.73l5.69,11.53,12.72,1.85-9.2,9,2.17,12.67Zm48.4,14.52-11.38,6,2.17-12.68-9.2-9,12.72-1.85,5.69-11.53,5.69,11.53,12.72,1.85-9.2,9,2.17,12.68Zm-9.68,24.2a9.68,9.68,0,0,1,19.36,0v62.92a9.68,9.68,0,1,1-19.36,0ZM114.32,104a9.68,9.68,0,0,1,19.36,0v77.44a9.68,9.68,0,1,1-19.36,0Zm-48.4,38.72a9.68,9.68,0,0,1,19.36,0v38.72a9.68,9.68,0,1,1-19.36,0Zm0,0"/></svg>