<?xml version="1.0" encoding="utf-8"?>
<!-- Generator: Adobe Illustrator 16.0.0, SVG Export Plug-In . SVG Version: 6.00 Build 0)  -->
<!DOCTYPE svg PUBLIC "-//W3C//DTD SVG 1.1//EN" "http://www.w3.org/Graphics/SVG/1.1/DTD/svg11.dtd">
<svg version="1.1" id="层_1" xmlns="http://www.w3.org/2000/svg" xmlns:xlink="http://www.w3.org/1999/xlink" x="0px" y="0px"
	 width="165.53px" height="163.739px" viewBox="0 0 165.53 163.739" enable-background="new 0 0 165.53 163.739"
	 xml:space="preserve">
<line fill-rule="evenodd" clip-rule="evenodd" fill="none" stroke="#646AB0" stroke-width="5" stroke-linecap="square" stroke-miterlimit="10" x1="32.742" y1="37.736" x2="57.442" y2="65.576"/>
<line fill-rule="evenodd" clip-rule="evenodd" fill="none" stroke="#646AB0" stroke-width="5" stroke-linecap="square" stroke-miterlimit="10" x1="56.777" y1="98.213" x2="16.987" y2="144.853"/>
<line fill-rule="evenodd" clip-rule="evenodd" fill="none" stroke="#646AB0" stroke-width="5" stroke-linecap="square" stroke-miterlimit="10" x1="122.99" y1="80.896" x2="100.157" y2="80.896"/>
<path fill-rule="evenodd" clip-rule="evenodd" fill="#646AB0" d="M38.397,80.896c0-17.31,13.83-31.33,30.88-31.33
	s30.88,14.02,30.88,31.33c0,17.3-13.83,31.32-30.88,31.32S38.397,98.196,38.397,80.896z"/>
<path fill-rule="evenodd" clip-rule="evenodd" fill="#646AB0" d="M0,142.64c0-11.662,9.31-21.106,20.803-21.106
	c11.486,0,20.796,9.445,20.796,21.106c0,11.654-9.311,21.099-20.796,21.099C9.31,163.739,0,154.294,0,142.64z"/>
<path fill-rule="evenodd" clip-rule="evenodd" fill="#646AB0" d="M2.552,21.58C2.552,9.66,12.072,0,23.822,0
	c11.74,0,21.27,9.66,21.27,21.58c0,11.91-9.53,21.58-21.27,21.58C12.072,43.16,2.552,33.49,2.552,21.58z"/>
<g>
	<path fill-rule="evenodd" clip-rule="evenodd" fill="#646AB0" d="M122.99,80.891c0-11.92,9.52-21.58,21.27-21.58
		s21.27,9.66,21.27,21.58s-9.52,21.58-21.27,21.58S122.99,92.811,122.99,80.891z"/>
</g>
</svg>
