<?xml version="1.0" encoding="utf-8"?>
<!-- Generator: Adobe Illustrator 22.1.0, SVG Export Plug-In . SVG Version: 6.00 Build 0)  -->
<svg version="1.1" id="图层_1" xmlns="http://www.w3.org/2000/svg" xmlns:xlink="http://www.w3.org/1999/xlink" x="0px" y="0px"
	 viewBox="0 0 283 199" style="enable-background:new 0 0 283 199;" xml:space="preserve">
<style type="text/css">
	.st0{fill:none;stroke:#484848;stroke-width:7;stroke-miterlimit:10;}
	.st1{fill:#484848;}
</style>
<g id="Page-1_2_" transform="translate(0.749311, 0.000000)">
	<path id="Stroke-1_1_" class="st0" d="M256.6,110.3c3.4,2.6,2.6,4.3-3.4,5.2c-2.6,0.9-2.6,0.9-2.6,2.6c0,2.6,0,4.3-6.9,5.2
		c-2.6,0-4.3,0.9-3.4,1.7c0.9,2.6-2.6,4.3-10.3,4.3c-2.6,0-4.3,0.9-5.2,1.7c-0.9,2.6-5.2,3.4-12.9,3.4c-2.6,0-5.2,0.9-6,1.7
		c-2.6,2.6-7.7,3.4-14.6,2.6c-2.6,0-5.2,0-6.9,0.9c-4.3,1.7-9.5,2.6-16.3,1.7c-2.6,0-5.2,0-7.7,0.9c-5.2,1.7-11.2,1.7-17.2,0.9
		c-2.6-0.9-5.2-0.9-7.7,0c-6,1.7-12,0.9-17.2-0.9c-1.7-0.9-5.2-0.9-7.7-0.9c-6.9,0.9-12,0-16.3-1.7c-1.7-0.9-4.3-0.9-6.9-0.9
		c-6.9,0.9-12-0.9-14.6-2.6c-0.9-0.9-3.4-1.7-6-1.7c-7.7,0-12-1.7-12.9-3.4c0-0.9-2.6-1.7-5.2-1.7c-6.9-0.9-10.3-1.7-10.3-4.3
		c0-0.9-0.9-1.7-3.4-1.7c-6.9-0.9-8.6-2.6-6.9-5.2c0.9-0.9,0-1.7-2.6-2.6c-6-1.7-6.9-3.4-3.4-5.2c1.7-0.9,0.9-1.7-0.9-2.6
		c-5.2-1.7-5.2-3.4,0-6c1.7-0.9,1.7-1.7,0.9-2.6c-3.4-2.6-2.6-4.3,3.4-5.2c2.6-0.9,3.4-1.7,2.6-2.6c-1.7-2.6,0-4.3,6.9-5.2
		c2.6,0,4.3-0.9,3.4-1.7c-0.9-2.6,2.6-4.3,10.3-4.3c2.6,0,4.3-0.9,5.2-1.7c0.9-2.6,5.2-3.4,12.9-3.4c2.6,0,5.2-0.9,6-1.7
		c2.6-2.6,7.7-3.4,14.6-2.6c2.6,0,5.2,0,6.9-0.9c4.3-1.7,9.5-2.6,16.3-1.7c2.6,0,5.2,0,7.7-0.9c5.2-1.7,11.2-1.7,17.2-0.9
		c2.6,0.9,5.2,0.9,7.7,0c6-1.7,12-0.9,17.2,0.9c1.7,0.9,5.2,0.9,7.7,0.9c6.9-0.9,12,0,16.3,1.7c1.7,0.9,4.3,0.9,6.9,0.9
		c6.9-0.9,12,0.9,14.6,2.6c0.9,0.9,3.4,1.7,6,1.7c7.7,0,12,1.7,12.9,3.4c0,0.9,2.6,1.7,5.2,1.7c5.2,0,8.6,1.7,10.3,4.3
		c0.9,0.9,0.9,2.6,3.4,1.7c5.2,0,8.6,2.6,6.9,5.2c-0.9,0.9,0,2.6,2.6,2.6c4.3,0,6.9,3.4,3.4,5.2c-0.9,0.9-0.9,1.7,0.9,2.6
		c5.2,1.7,5.2,3.4,0,6C255.8,108.5,255.8,109.4,256.6,110.3z"/>
	<path id="Fill-3_1_" class="st1" d="M131.9,24.2c4.3-1.7,7.7-5.2,7.7-11.2c0-5.2-6-6.9-13.8-5.2C111.2,13,106.9,28.5,104.3,44
		c-0.9,4.3-0.9,8.6-1.7,12.9c-4.3,32.7-7.7,71.4-6,99.8c0,6,2.6,12.9-2.6,18.9c-8.6,0.9-6-4.3-13.8-1.7c-12,4.3-9.5,18.9,0,18.9
		c2.6,0,5.2-0.9,8.6-2.6c15.5-7.7,17.2-26.7,19.8-45.6c4.3-35.3,6.9-69.7,6.9-103.3l0,0c0-6-0.9-16.3,3.4-18.9
		C122.4,20.8,125.8,25.9,131.9,24.2"/>
	<g id="Group-7_1_" transform="translate(14.049148, 0.230943)">
		<path id="Fill-5_1_" class="st1" d="M175.9,8.8c-14.6,5.2-18.9,20.7-21.5,36.1c-0.9,4.3-0.9,8.6-1.7,12.9
			c-4.3,32.7-7.7,71.4-6,99.8c0,6,2.6,12.9-2.6,18.9c-8.6,0.9-6-4.3-13.8-1.7c-12,4.3-9.5,18.9,0,18.9c2.6,0,5.2-0.9,8.6-2.6
			c15.5-7.7,17.2-26.7,19.8-45.6c4.3-35.3,6.9-69.7,6.9-103.3l0,0c0-6-0.9-16.3,3.4-18.9c4.3-2.6,7.7,2.6,13.8,0.9
			c4.3-1.7,7.7-5.2,7.7-11.2C189.6,7.9,182.8,6.2,175.9,8.8"/>
	</g>
</g>
</svg>
