<?xml version="1.0" encoding="UTF-8"?>
<svg width="351px" height="209px" viewBox="0 0 351 209" version="1.1" xmlns="http://www.w3.org/2000/svg" xmlns:xlink="http://www.w3.org/1999/xlink">
    <!-- Generator: sketchtool 49 (51002) - http://www.bohemiancoding.com/sketch -->
    <title>5629C832-EA6C-4FF8-A407-C3459CF72BD6</title>
    <desc>Created with sketchtool.</desc>
    <defs></defs>
    <g id="Page-1" stroke="none" stroke-width="1" fill="none" fill-rule="evenodd">
        <g id="牛顿合作伙伴" transform="translate(-389.000000, -101.000000)" fill="#4D4946" fill-rule="nonzero">
            <g id="Bitmap" transform="translate(0.000000, 50.000000)">
                <g id="handshake-(1)" transform="translate(389.000000, 51.000000)">
                    <path d="M349.314554,137.557798 L283.600268,6.12922619 C280.884077,0.71875 274.334554,-1.44982143 268.902173,1.22255952 L225.092649,23.1273214 C222.464077,24.4416071 220.492649,26.7416071 219.572649,29.5235119 C218.652649,32.3054167 218.915506,35.3501786 220.273601,37.9568452 L223.340268,43.8930357 L197.142173,43.8930357 C194.228839,43.8930357 191.446935,45.0539881 189.387887,47.091131 L179.180268,57.3206548 L158.874554,45.4044643 C157.209792,44.41875 155.282173,43.8930357 153.332649,43.8930357 L127.134554,43.8930357 L130.20122,37.97875 C131.537411,35.3720833 131.800268,32.3273214 130.902173,29.5454167 C129.982173,26.7635119 127.988839,24.4635119 125.382173,23.1492262 L81.5726488,1.24446429 C76.1621726,-1.44982143 69.5688393,0.71875 66.8745536,6.12922619 L1.16026786,137.557798 C-1.5121131,142.880655 0.590744048,149.364464 5.8478869,152.146369 L47.3793155,174.051131 C48.9564583,174.883512 50.7088393,175.321607 52.483125,175.321607 C53.5783631,175.321607 54.695506,175.146369 55.7469345,174.817798 C58.5288393,173.941607 60.850744,171.992083 62.2088393,169.407321 L65.735506,162.59494 L142.226935,219.196845 C151.930744,226.337798 163.496458,229.908274 175.040268,229.908274 C186.759315,229.908274 198.478363,226.228274 208.182173,218.824464 L283.775506,160.776845 L288.244077,169.407321 C289.602173,171.992083 291.902173,173.941607 294.705982,174.817798 C295.779315,175.146369 296.896458,175.321607 297.991696,175.321607 C299.765982,175.321607 301.518363,174.883512 303.095506,174.051131 L344.626935,152.146369 C349.884077,149.364464 351.96503,142.880655 349.314554,137.557798 Z M47.8393155,149.539702 L25.5402679,137.776845 L81.5726488,25.7339881 L105.645982,37.7816071 L99.0964583,50.4206548 C99.0526488,50.5082738 99.0088393,50.5739881 98.9650298,50.6616071 L47.8393155,149.539702 Z M194.907887,201.432083 C183.385982,210.193988 167.066935,210.281607 155.260268,201.563512 L75.943125,142.880655 L115.809792,65.7977976 L150.353601,65.7977976 L163.167887,73.3330357 L123.673601,112.805417 C119.686935,116.813988 119.380268,123.210179 122.994554,127.547321 L131.559315,137.864464 C141.504077,149.824464 158.567887,153.219702 171.995506,146.056845 L195.915506,133.571131 L238.870744,167.676845 L194.907887,201.432083 Z M256.766935,153.920655 L203.954554,111.973036 C200.559315,109.300655 195.915506,108.86256 192.082173,110.855893 L161.744077,126.671131 C157.428839,128.993036 151.667887,127.766369 148.404077,123.867321 L146.235506,121.23875 L201.676458,65.7977976 L234.66503,65.7977976 L273.567887,141.01875 L256.766935,153.920655 Z M302.635506,149.539702 L251.487887,50.6616071 C251.444077,50.5739881 251.400268,50.5082738 251.356458,50.4206548 L244.806935,37.7816071 L268.902173,25.7339881 L324.934554,137.776845 L302.635506,149.539702 Z" id="Shape"></path>
                </g>
            </g>
        </g>
    </g>
</svg>