<?xml version="1.0" encoding="UTF-8"?>
<svg width="254px" height="232px" viewBox="0 0 254 232" version="1.1" xmlns="http://www.w3.org/2000/svg" xmlns:xlink="http://www.w3.org/1999/xlink">
    <!-- Generator: sketchtool 49 (51002) - http://www.bohemiancoding.com/sketch -->
    <title>CF0B2C46-7AFD-40A5-831D-0F991B58EE43</title>
    <desc>Created with sketchtool.</desc>
    <defs></defs>
    <g id="Page-1" stroke="none" stroke-width="1" fill="none" fill-rule="evenodd">
        <g id="牛顿技术头" transform="translate(-431.000000, -78.000000)">
            <g id="Group-3-Copy-15" transform="translate(0.000000, 50.000000)">
                <g id="Group-3-Copy-35" transform="translate(431.000000, 28.000000)">
                    <rect id="Rectangle-2" fill="#85739B" x="120.578652" y="15" width="14.2696629" height="196.428571"></rect>
                    <rect id="Rectangle-2" fill="#85739B" x="58.4239848" y="119.240932" width="14.4329293" height="140.089564"></rect>
                    <rect id="Rectangle-2" fill="#85739B" x="180.081101" y="115.303964" width="14.4164496" height="144.392073"></rect>
                    <path d="M134.856309,156.943414 L134.856309,278.323882 L239.575708,216.481717 L239.575708,94.1391876 L136.886665,153.426734 L134.856309,156.943414 Z M20.1607925,80.1305855 L127.575764,142.146648 L234.408463,80.4667601 L127,17.0365653 L20.1607925,80.1305855 Z M14.424292,93.474353 L14.424292,216.481717 L120.432017,279.084705 L120.432017,154.677942 L14.424292,93.474353 Z M127,0 L254,75 L254,225 L127,300 L0,225 L0,75 L127,0 Z" id="Combined-Shape" fill="#7B6891" fill-rule="nonzero"></path>
                </g>
            </g>
        </g>
    </g>
</svg>