<svg id="图层_1" data-name="图层 1" xmlns="http://www.w3.org/2000/svg" viewBox="0 0 588 594"><defs><style>.cls-1{fill:#161616;}</style></defs><title>未标题-1</title><path class="cls-1" d="M470.82,21c-28,0-53.63,10.36-71.3,28L67.41,384.19,26.58,567,209.4,526.17,542.11,188.58c17.68-17.68,28-43.27,28-71.3,0-53-43.27-96.28-99.33-96.28Zm-284,480.19L100.32,521.3V490.83H69.85L90,404.3h96.28v96.89ZM209.4,486V392.11c0-7.92-4.88-12.8-12.8-12.8H105.19L371.49,112.4,478.13,216.61Zm315-315-28,28L392.21,94.73l28-28s20.11-23.16,53.62-23.16a73.61,73.61,0,0,1,73.74,73.74c-3.05,23.15-10.36,40.83-23.16,53.62Zm0,0"/></svg>