<?xml version="1.0" encoding="UTF-8"?>
<svg width="423px" height="253px" viewBox="0 0 423 253" version="1.1" xmlns="http://www.w3.org/2000/svg" xmlns:xlink="http://www.w3.org/1999/xlink">
    <!-- Generator: sketchtool 49 (51002) - http://www.bohemiancoding.com/sketch -->
    <title>4031072F-CDE9-4AD3-AA3A-EC95BA50672B</title>
    <desc>Created with sketchtool.</desc>
    <defs>
        <linearGradient x1="11.4661734%" y1="15.1461538%" x2="88.5357401%" y2="84.8555769%" id="linearGradient-1">
            <stop stop-color="#E68CBC" offset="0%"></stop>
            <stop stop-color="#8366B3" offset="100%"></stop>
        </linearGradient>
        <linearGradient x1="84.8556683%" y1="11.466082%" x2="15.1462452%" y2="88.5356487%" id="linearGradient-2">
            <stop stop-color="#E68CBC" offset="0%"></stop>
            <stop stop-color="#8366B3" offset="100%"></stop>
        </linearGradient>
        <linearGradient x1="50%" y1="0%" x2="50%" y2="100%" id="linearGradient-3">
            <stop stop-color="#F0F1F3" offset="0%"></stop>
            <stop stop-color="#E0E0E0" offset="100%"></stop>
        </linearGradient>
        <path d="M63.0259649,22.2368421 L5.11438596,22.2368421 C2.84280702,22.2368421 1,20.3940351 1,18.1224561 L1,4.6845614 C1,2.41298246 2.84280702,0.570175439 5.11438596,0.570175439 L63.0248246,0.570175439 C65.2975439,0.570175439 67.1403509,2.41298246 67.1403509,4.6845614 L67.1403509,18.1213158 C67.1403509,20.3940351 65.2975439,22.2368421 63.0259649,22.2368421 Z" id="path-4"></path>
        <filter x="-0.8%" y="-2.3%" width="101.5%" height="104.6%" filterUnits="objectBoundingBox" id="filter-5">
            <feOffset dx="1" dy="1" in="SourceAlpha" result="shadowOffsetInner1"></feOffset>
            <feComposite in="shadowOffsetInner1" in2="SourceAlpha" operator="arithmetic" k2="-1" k3="1" result="shadowInnerInner1"></feComposite>
            <feColorMatrix values="0 0 0 0 1   0 0 0 0 1   0 0 0 0 1  0 0 0 0.5 0" type="matrix" in="shadowInnerInner1"></feColorMatrix>
        </filter>
        <path d="M63.0259649,43.9035088 L5.11438596,43.9035088 C2.84280702,43.9035088 1,42.0607018 1,39.7891228 L1,26.3512281 C1,24.0796491 2.84280702,22.2368421 5.11438596,22.2368421 L63.0248246,22.2368421 C65.2975439,22.2368421 67.1392105,24.0796491 67.1392105,26.3512281 L67.1392105,39.7879825 C67.1403509,42.0607018 65.2975439,43.9035088 63.0259649,43.9035088 Z" id="path-6"></path>
        <filter x="-0.8%" y="-2.3%" width="101.5%" height="104.6%" filterUnits="objectBoundingBox" id="filter-7">
            <feOffset dx="1" dy="1" in="SourceAlpha" result="shadowOffsetInner1"></feOffset>
            <feComposite in="shadowOffsetInner1" in2="SourceAlpha" operator="arithmetic" k2="-1" k3="1" result="shadowInnerInner1"></feComposite>
            <feColorMatrix values="0 0 0 0 1   0 0 0 0 1   0 0 0 0 1  0 0 0 0.5 0" type="matrix" in="shadowInnerInner1"></feColorMatrix>
        </filter>
        <linearGradient x1="50%" y1="0%" x2="50%" y2="100%" id="linearGradient-8">
            <stop stop-color="#484848" offset="0%"></stop>
            <stop stop-color="#1A1A1A" offset="100%"></stop>
        </linearGradient>
        <path d="M1,60.8684211 C0.44771525,60.8684211 0,60.4207058 0,59.8684211 C0,59.3161363 0.44771525,58.8684211 1,58.8684211 L29.5087719,58.8684211 C30.0610567,58.8684211 30.5087719,59.3161363 30.5087719,59.8684211 C30.5087719,60.4207058 30.0610567,60.8684211 29.5087719,60.8684211 L1,60.8684211 Z" id="path-9"></path>
        <filter x="-0.5%" y="-7.5%" width="101.0%" height="115.0%" filterUnits="objectBoundingBox" id="filter-10">
            <feOffset dx="0.2" dy="0.3" in="SourceAlpha" result="shadowOffsetInner1"></feOffset>
            <feComposite in="shadowOffsetInner1" in2="SourceAlpha" operator="arithmetic" k2="-1" k3="1" result="shadowInnerInner1"></feComposite>
            <feColorMatrix values="0 0 0 0 1   0 0 0 0 1   0 0 0 0 1  0 0 0 0.740206069 0" type="matrix" in="shadowInnerInner1"></feColorMatrix>
        </filter>
        <path d="M38.6315789,60.8684211 C38.0792942,60.8684211 37.6315789,60.4207058 37.6315789,59.8684211 C37.6315789,59.3161363 38.0792942,58.8684211 38.6315789,58.8684211 L67.1403509,58.8684211 C67.6926356,58.8684211 68.1403509,59.3161363 68.1403509,59.8684211 C68.1403509,60.4207058 67.6926356,60.8684211 67.1403509,60.8684211 L38.6315789,60.8684211 Z" id="path-11"></path>
        <filter x="-0.5%" y="-7.5%" width="101.0%" height="115.0%" filterUnits="objectBoundingBox" id="filter-12">
            <feOffset dx="0.2" dy="0.3" in="SourceAlpha" result="shadowOffsetInner1"></feOffset>
            <feComposite in="shadowOffsetInner1" in2="SourceAlpha" operator="arithmetic" k2="-1" k3="1" result="shadowInnerInner1"></feComposite>
            <feColorMatrix values="0 0 0 0 1   0 0 0 0 1   0 0 0 0 1  0 0 0 0.740206069 0" type="matrix" in="shadowInnerInner1"></feColorMatrix>
        </filter>
        <polygon id="path-13" points="35.0701754 55.3070175 33.0701754 55.3070175 33.0701754 43.9035088 35.0701754 43.9035088"></polygon>
        <filter x="-7.5%" y="-1.3%" width="115.0%" height="102.6%" filterUnits="objectBoundingBox" id="filter-14">
            <feOffset dx="0.2" dy="0.3" in="SourceAlpha" result="shadowOffsetInner1"></feOffset>
            <feComposite in="shadowOffsetInner1" in2="SourceAlpha" operator="arithmetic" k2="-1" k3="1" result="shadowInnerInner1"></feComposite>
            <feColorMatrix values="0 0 0 0 1   0 0 0 0 1   0 0 0 0 1  0 0 0 0.740206069 0" type="matrix" in="shadowInnerInner1"></feColorMatrix>
        </filter>
        <path d="M34.0701754,65.4298246 C30.9986971,65.4298246 28.5087719,62.9398994 28.5087719,59.8684211 C28.5087719,56.7969427 30.9986971,54.3070175 34.0701754,54.3070175 C37.1416538,54.3070175 39.6315789,56.7969427 39.6315789,59.8684211 C39.6315789,62.9398994 37.1416538,65.4298246 34.0701754,65.4298246 Z M34.0701754,63.4298246 C36.0370843,63.4298246 37.6315789,61.8353299 37.6315789,59.8684211 C37.6315789,57.9015122 36.0370843,56.3070175 34.0701754,56.3070175 C32.1032666,56.3070175 30.5087719,57.9015122 30.5087719,59.8684211 C30.5087719,61.8353299 32.1032666,63.4298246 34.0701754,63.4298246 Z" id="path-15"></path>
        <filter x="-1.3%" y="-1.3%" width="102.7%" height="102.7%" filterUnits="objectBoundingBox" id="filter-16">
            <feOffset dx="0.2" dy="0.3" in="SourceAlpha" result="shadowOffsetInner1"></feOffset>
            <feComposite in="shadowOffsetInner1" in2="SourceAlpha" operator="arithmetic" k2="-1" k3="1" result="shadowInnerInner1"></feComposite>
            <feColorMatrix values="0 0 0 0 1   0 0 0 0 1   0 0 0 0 1  0 0 0 0.740206069 0" type="matrix" in="shadowInnerInner1"></feColorMatrix>
        </filter>
        <linearGradient x1="50%" y1="0%" x2="50%" y2="100%" id="linearGradient-17">
            <stop stop-color="#486CF4" offset="0%"></stop>
            <stop stop-color="#7810E5" offset="100%"></stop>
        </linearGradient>
        <linearGradient x1="50%" y1="0%" x2="50%" y2="100%" id="linearGradient-18">
            <stop stop-color="#7D7D7D" offset="1.9011922%"></stop>
            <stop stop-color="#222222" offset="96.5408237%"></stop>
        </linearGradient>
        <path d="M9.53002475,0 L100.469975,0 C105.732996,0 110,4.26662171 110,9.53002475 L110,100.469975 C110,105.732996 105.733378,110 100.469975,110 L9.53002475,110 C4.26700406,110 0,105.733378 0,100.469975 L0,9.53002475 C0,4.26700406 4.26662171,0 9.53002475,0 Z" id="path-19"></path>
        <filter x="-0.5%" y="-0.5%" width="100.9%" height="100.9%" filterUnits="objectBoundingBox" id="filter-20">
            <feOffset dx="1" dy="1" in="SourceAlpha" result="shadowOffsetInner1"></feOffset>
            <feComposite in="shadowOffsetInner1" in2="SourceAlpha" operator="arithmetic" k2="-1" k3="1" result="shadowInnerInner1"></feComposite>
            <feColorMatrix values="0 0 0 0 1   0 0 0 0 1   0 0 0 0 1  0 0 0 0.740206069 0" type="matrix" in="shadowInnerInner1"></feColorMatrix>
        </filter>
        <linearGradient x1="8.607221%" y1="19.1611359%" x2="100%" y2="91.4237695%" id="linearGradient-21">
            <stop stop-color="#FFFFFF" stop-opacity="0.142040308" offset="0%"></stop>
            <stop stop-color="#FFFFFF" stop-opacity="0" offset="100%"></stop>
        </linearGradient>
        <linearGradient x1="50%" y1="0%" x2="50%" y2="100%" id="linearGradient-22">
            <stop stop-color="#F7F7F7" offset="0%"></stop>
            <stop stop-color="#EDEDED" offset="100%"></stop>
        </linearGradient>
        <linearGradient x1="11.4661734%" y1="15.1461538%" x2="88.5357401%" y2="84.8555769%" id="linearGradient-23">
            <stop stop-color="#8A92B2" offset="0%"></stop>
            <stop stop-color="#62688F" offset="100%"></stop>
        </linearGradient>
    </defs>
    <g id="Page-1" stroke="none" stroke-width="1" fill="none" fill-rule="evenodd">
        <g id="牛顿技术" transform="translate(-458.000000, -3102.000000)">
            <rect id="Rectangle-17-Copy-4" fill="none" x="1" y="2843" width="1920" height="660"></rect>
            <g id="Group-12" transform="translate(458.000000, 3102.000000)">
                <polygon id="Shape-Copy-4" fill="#DADADA" fill-rule="nonzero" transform="translate(307.986499, 147.984822) rotate(-180.000000) translate(-307.986499, -147.984822) " points="304.989001 136 304.989001 138.995193 314.878698 138.995193 296 157.873925 298.09785 159.969645 316.974417 141.094231 316.974417 150.98281 319.972999 150.98281 319.972999 136"></polygon>
                <polygon id="Shape-Copy-5" fill="#DADADA" fill-rule="nonzero" transform="translate(217.950284, 147.950284) rotate(-45.000000) translate(-217.950284, -147.950284) " points="214.952786 135.965462 214.952786 138.960654 224.842483 138.960654 205.963785 157.839387 208.061635 159.935107 226.938202 141.059693 226.938202 150.948271 229.936784 150.948271 229.936784 135.965462"></polygon>
                <polygon id="Shape-Copy-6" fill="#DADADA" fill-rule="nonzero" transform="translate(116.950284, 55.950284) rotate(-315.000000) translate(-116.950284, -55.950284) " points="113.952786 43.9654617 113.952786 46.9606543 123.842483 46.9606543 104.963785 65.8393872 107.061635 67.9351067 125.938202 49.0596925 125.938202 58.9482715 128.936784 58.9482715 128.936784 43.9654617"></polygon>
                <g id="Group-3-Copy-19" transform="translate(0.000000, 13.000000)">
                    <rect id="Rectangle-2" fill="url(#linearGradient-1)" opacity="0.400000006" x="32.7925234" y="3.93442623" width="3.85794393" height="52.4590164"></rect>
                    <rect id="Rectangle-2" fill="url(#linearGradient-1)" opacity="0.400000006" x="16.1399406" y="31.7340811" width="3.85794393" height="37.2553508"></rect>
                    <rect id="Rectangle-2" fill="url(#linearGradient-2)" opacity="0.400000006" x="48.7859911" y="30.7859957" width="3.85794393" height="38.4247416"></rect>
                    <path d="M36.6504673,41.7670216 L36.6504673,74.2197019 L64.6588833,57.728458 L64.6588833,25.086654 L37.0918814,41.00247 L36.6504673,41.7670216 Z M6.00046963,21.3524668 L34.7056335,37.9254009 L63.252835,21.4436664 L34.5492065,4.54308409 L6.00046963,21.3524668 Z M4.43952973,24.9060277 L4.43952973,57.728458 L32.7925234,74.4225879 L32.7925234,41.2756362 L4.43952973,24.9060277 Z M34.5492065,0 L68.5168272,20 L68.5168272,60 L34.5492065,80 L0.581585803,60 L0.581585803,20 L34.5492065,0 Z" id="Combined-Shape" fill="url(#linearGradient-1)" fill-rule="nonzero"></path>
                </g>
                <g id="server-(2)" transform="translate(354.000000, 23.000000)" fill-rule="nonzero">
                    <g id="Shape">
                        <use fill="url(#linearGradient-3)" fill-rule="evenodd" xlink:href="#path-4"></use>
                        <use fill="black" fill-opacity="1" filter="url(#filter-5)" xlink:href="#path-4"></use>
                    </g>
                    <g id="Shape">
                        <use fill="url(#linearGradient-3)" fill-rule="evenodd" xlink:href="#path-6"></use>
                        <use fill="black" fill-opacity="1" filter="url(#filter-7)" xlink:href="#path-6"></use>
                    </g>
                    <g id="Shape">
                        <use fill="url(#linearGradient-8)" fill-rule="evenodd" xlink:href="#path-9"></use>
                        <use fill="black" fill-opacity="1" filter="url(#filter-10)" xlink:href="#path-9"></use>
                    </g>
                    <g id="Shape">
                        <use fill="url(#linearGradient-8)" fill-rule="evenodd" xlink:href="#path-11"></use>
                        <use fill="black" fill-opacity="1" filter="url(#filter-12)" xlink:href="#path-11"></use>
                    </g>
                    <g id="Shape">
                        <use fill="url(#linearGradient-8)" fill-rule="evenodd" xlink:href="#path-13"></use>
                        <use fill="black" fill-opacity="1" filter="url(#filter-14)" xlink:href="#path-13"></use>
                    </g>
                    <g id="Oval">
                        <use fill="url(#linearGradient-8)" fill-rule="evenodd" xlink:href="#path-15"></use>
                        <use fill="black" fill-opacity="1" filter="url(#filter-16)" xlink:href="#path-15"></use>
                    </g>
                    <circle id="Oval" fill="url(#linearGradient-17)" cx="11.8333333" cy="11.4035088" r="3.99122807"></circle>
                    <circle id="Oval" fill="url(#linearGradient-17)" cx="11.8333333" cy="33.0701754" r="3.99122807"></circle>
                    <g id="Group" transform="translate(37.491228, 7.982456)" fill="url(#linearGradient-18)">
                        <circle id="Oval" cx="19.3859649" cy="1.71052632" r="1.14035088"></circle>
                        <circle id="Oval" cx="14.8245614" cy="1.71052632" r="1.14035088"></circle>
                        <circle id="Oval" cx="21.6666667" cy="5.13157895" r="1.14035088"></circle>
                        <circle id="Oval" cx="17.1052632" cy="5.13157895" r="1.14035088"></circle>
                        <circle id="Oval" cx="10.2631579" cy="1.71052632" r="1.14035088"></circle>
                        <circle id="Oval" cx="12.5438596" cy="5.13157895" r="1.14035088"></circle>
                        <circle id="Oval" cx="5.70175439" cy="1.71052632" r="1.14035088"></circle>
                        <circle id="Oval" cx="7.98245614" cy="5.13157895" r="1.14035088"></circle>
                        <circle id="Oval" cx="1.14035088" cy="1.71052632" r="1.14035088"></circle>
                        <circle id="Oval" cx="3.42105263" cy="5.13157895" r="1.14035088"></circle>
                        <circle id="Oval" cx="19.3859649" cy="23.377193" r="1.14035088"></circle>
                        <circle id="Oval" cx="14.8245614" cy="23.377193" r="1.14035088"></circle>
                        <circle id="Oval" cx="21.6666667" cy="26.7982456" r="1.14035088"></circle>
                        <circle id="Oval" cx="17.1052632" cy="26.7982456" r="1.14035088"></circle>
                        <circle id="Oval" cx="10.2631579" cy="23.377193" r="1.14035088"></circle>
                        <circle id="Oval" cx="12.5438596" cy="26.7982456" r="1.14035088"></circle>
                        <circle id="Oval" cx="5.70175439" cy="23.377193" r="1.14035088"></circle>
                        <circle id="Oval" cx="7.98245614" cy="26.7982456" r="1.14035088"></circle>
                        <circle id="Oval" cx="1.14035088" cy="23.377193" r="1.14035088"></circle>
                        <circle id="Oval" cx="3.42105263" cy="26.7982456" r="1.14035088"></circle>
                    </g>
                </g>
                <text id="Chain-Copy" font-family="SFProDisplay-Regular, SF Pro Display" font-size="14" font-weight="normal" line-spacing="24" fill="#393939">
                    <tspan x="15" y="117">Chain</tspan>
                </text>
                <text id="NS-torage" font-family="SFProDisplay-Regular, SF Pro Display" font-size="14" font-weight="normal" line-spacing="24" fill="#393939">
                    <tspan x="358" y="117">NStorage</tspan>
                </text>
                <g id="Group-4" transform="translate(162.000000, 0.000000)" fill-rule="nonzero">
                    <g id="Shape">
                        <use fill="url(#linearGradient-8)" fill-rule="evenodd" xlink:href="#path-19"></use>
                        <use fill="black" fill-opacity="1" filter="url(#filter-20)" xlink:href="#path-19"></use>
                    </g>
                    <path d="M9.53002475,0 L100.469975,0 C105.732996,0 110,4.26662171 110,9.53002475 L110,100.469975 C110,105.732996 105.733378,110 100.469975,110 L9.53002475,110 C4.26700406,110 0,105.733378 0,100.469975 L0,9.53002475 C0,4.26700406 4.26662171,0 9.53002475,0 Z" id="Shape" fill="url(#linearGradient-21)"></path>
                    <path d="M57.9600253,80.1428571 L54.4272147,68.5451234 L36.6640267,68.5451234 L33.1312161,80.1428571 L22,80.1428571 L39.1970053,31.2184136 L51.8279694,31.2184136 L69.0912414,80.1428571 L57.9600253,80.1428571 Z M51.961033,59.880089 C48.6948796,49.3712498 46.8563761,43.4279215 46.4455226,42.0501042 C46.0341389,40.672817 45.7399147,39.5839225 45.5623199,38.7839508 C44.8291451,41.6281178 42.7292857,48.6603406 39.263272,59.880089 L51.961033,59.880089 Z M84.5886382,80.1428571 L74.4238557,80.1428571 L74.4238557,31.2184136 L84.5886382,31.2184136 L84.5886382,80.1428571 Z" id="Combined-Shape" fill="url(#linearGradient-22)"></path>
                </g>
                <g id="package-copy" transform="translate(182.000000, 183.000000)" fill="url(#linearGradient-23)" fill-rule="nonzero">
                    <path d="M69.5250391,13.7547266 C69.5227148,13.7469336 69.5201172,13.7394141 69.5176563,13.7318945 C69.229043,12.8243555 68.814375,11.9561914 68.2777539,11.1513281 L62.6699609,2.73957031 C61.5263086,1.02416016 59.6126563,0 57.5509375,0 L12.4490625,0 C10.3873437,0 8.47369141,1.02416016 7.33003906,2.73970703 L1.72224609,11.1511914 C1.185625,11.9560547 0.770957031,12.8243555 0.48234375,13.7318945 C0.479882812,13.7394141 0.477421875,13.7469336 0.475097656,13.7544531 C0.162285156,14.7456641 0,15.7834961 0,16.8392383 L0,63.8476562 C0,67.2400586 2.75994141,70 6.15234375,70 L63.8476562,70 C67.2400586,70 70,67.2400586 70,63.8476562 L70,16.8392383 C70,15.7836328 69.8377148,14.7456641 69.5250391,13.7547266 Z M37.0507812,4.1015625 L57.5509375,4.1015625 C58.2382227,4.1015625 58.8761523,4.44294922 59.2574609,5.01470703 L64.1172656,12.3046875 L37.0507812,12.3046875 L37.0507812,4.1015625 Z M10.7425391,5.01484375 C11.1238477,4.44294922 11.7617773,4.1015625 12.4490625,4.1015625 L32.9492188,4.1015625 L32.9492188,12.3046875 L5.88273437,12.3046875 L10.7425391,5.01484375 Z M65.8984375,63.8476562 C65.8984375,64.978457 64.978457,65.8984375 63.8476562,65.8984375 L6.15234375,65.8984375 C5.02154297,65.8984375 4.1015625,64.978457 4.1015625,63.8476562 C4.1015625,13.8747656 4.09363281,16.7398437 4.11701172,16.40625 L65.8828516,16.40625 C65.9062305,16.7371094 65.8984375,13.8244531 65.8984375,63.8476562 Z" id="Shape"></path>
                </g>
                <text id="Docker" font-family="SFProDisplay-Regular, SF Pro Display" font-size="14" font-weight="normal" fill="#7B82A5">
                    <tspan x="196" y="228">Docker</tspan>
                </text>
            </g>
        </g>
    </g>
</svg>