<?xml version="1.0" encoding="UTF-8"?>
<svg width="410px" height="250px" viewBox="0 0 410 250" version="1.1" xmlns="http://www.w3.org/2000/svg" xmlns:xlink="http://www.w3.org/1999/xlink">
    <!-- Generator: sketchtool 49 (51002) - http://www.bohemiancoding.com/sketch -->
    <title>F0954AA1-95E9-4B2F-BADB-DDE0AF228006</title>
    <desc>Created with sketchtool.</desc>
    <defs>
        <linearGradient x1="50%" y1="0%" x2="50%" y2="100%" id="linearGradient-1">
            <stop stop-color="#EEEEEE" offset="0%"></stop>
            <stop stop-color="#D9D9D9" offset="100%"></stop>
        </linearGradient>
        <linearGradient x1="50%" y1="0%" x2="50%" y2="98.0242955%" id="linearGradient-2">
            <stop stop-color="#E2E2E2" offset="0%"></stop>
            <stop stop-color="#A6A6A6" offset="100%"></stop>
        </linearGradient>
        <linearGradient x1="50%" y1="0%" x2="50%" y2="97.2453035%" id="linearGradient-3">
            <stop stop-color="#949494" offset="0%"></stop>
            <stop stop-color="#313131" offset="100%"></stop>
        </linearGradient>
        <linearGradient x1="50%" y1="0%" x2="50%" y2="100%" id="linearGradient-4">
            <stop stop-color="#ECEFF1" offset="0%"></stop>
            <stop stop-color="#DEDEDE" offset="100%"></stop>
        </linearGradient>
        <polygon id="path-5" points="6.40709677 5.0333871 6.40709677 18.5595161 10.6785484 18.5595161 10.6785484 22.1190323 15.6618548 22.1190323 15.6618548 24.9666129 25.6284677 24.9666129 25.6284677 22.1190323 30.6117742 22.1190323 30.6117742 18.5595161 34.8832258 18.5595161 34.8832258 5.0333871"></polygon>
        <filter x="-1.8%" y="-2.5%" width="103.5%" height="105.0%" filterUnits="objectBoundingBox" id="filter-6">
            <feOffset dx="-1" dy="-1" in="SourceAlpha" result="shadowOffsetInner1"></feOffset>
            <feComposite in="shadowOffsetInner1" in2="SourceAlpha" operator="arithmetic" k2="-1" k3="1" result="shadowInnerInner1"></feComposite>
            <feColorMatrix values="0 0 0 0 0.833227041   0 0 0 0 0.833227041   0 0 0 0 0.833227041  0 0 0 0.5 0" type="matrix" in="shadowInnerInner1"></feColorMatrix>
        </filter>
        <linearGradient x1="50%" y1="0%" x2="50%" y2="97.6336705%" id="linearGradient-7">
            <stop stop-color="#FFB064" offset="0%"></stop>
            <stop stop-color="#F5E65F" offset="100%"></stop>
        </linearGradient>
        <linearGradient x1="50%" y1="0%" x2="50%" y2="98.1462247%" id="linearGradient-8">
            <stop stop-color="#F0F0F0" offset="0%"></stop>
            <stop stop-color="#E3E3E3" offset="100%"></stop>
        </linearGradient>
        <linearGradient x1="50%" y1="0%" x2="50%" y2="100%" id="linearGradient-9">
            <stop stop-color="#545454" offset="0%"></stop>
            <stop stop-color="#9A9A9A" offset="100%"></stop>
        </linearGradient>
        <linearGradient x1="2.6779263%" y1="50%" x2="97.5591582%" y2="50%" id="linearGradient-10">
            <stop stop-color="#EDEDED" offset="0%"></stop>
            <stop stop-color="#C7C7C7" offset="100%"></stop>
        </linearGradient>
        <linearGradient x1="50%" y1="0%" x2="50%" y2="100%" id="linearGradient-11">
            <stop stop-color="#545454" offset="0%"></stop>
            <stop stop-color="#1A1A1A" offset="100%"></stop>
        </linearGradient>
        <path d="M10.6002254,7.79177465 L37.3997746,7.79177465 C38.9507606,7.79177465 40.2082254,9.04912676 40.2082254,10.6002254 L40.2082254,37.3997746 C40.2082254,38.9507606 38.9508732,40.2082254 37.3997746,40.2082254 L10.6002254,40.2082254 C9.04923944,40.2082254 7.79177465,38.9508732 7.79177465,37.3997746 L7.79177465,10.6002254 C7.79177465,9.04923944 9.04912676,7.79177465 10.6002254,7.79177465 Z" id="path-12"></path>
        <filter x="-0.8%" y="-0.8%" width="101.5%" height="101.5%" filterUnits="objectBoundingBox" id="filter-13">
            <feOffset dx="0.5" dy="0.5" in="SourceAlpha" result="shadowOffsetInner1"></feOffset>
            <feComposite in="shadowOffsetInner1" in2="SourceAlpha" operator="arithmetic" k2="-1" k3="1" result="shadowInnerInner1"></feComposite>
            <feColorMatrix values="0 0 0 0 1   0 0 0 0 1   0 0 0 0 1  0 0 0 0.687358469 0" type="matrix" in="shadowInnerInner1"></feColorMatrix>
        </filter>
        <linearGradient x1="50%" y1="0%" x2="50%" y2="97.2407876%" id="linearGradient-14">
            <stop stop-color="#E6E6E6" offset="0%"></stop>
            <stop stop-color="#DBDBDB" offset="100%"></stop>
        </linearGradient>
        <linearGradient x1="50%" y1="0%" x2="50%" y2="100%" id="linearGradient-15">
            <stop stop-color="#E8E8E8" offset="0%"></stop>
            <stop stop-color="#CCCCCC" offset="100%"></stop>
        </linearGradient>
        <linearGradient x1="100%" y1="50%" x2="0%" y2="50%" id="linearGradient-16">
            <stop stop-color="#4E4E4E" offset="0%"></stop>
            <stop stop-color="#1D1D1D" offset="100%"></stop>
        </linearGradient>
        <linearGradient x1="50%" y1="0%" x2="50%" y2="100%" id="linearGradient-17">
            <stop stop-color="#E9E9E9" offset="0%"></stop>
            <stop stop-color="#A6A6A6" offset="100%"></stop>
        </linearGradient>
        <linearGradient x1="50%" y1="0%" x2="50%" y2="100%" id="linearGradient-18">
            <stop stop-color="#646464" offset="0%"></stop>
            <stop stop-color="#292929" offset="100%"></stop>
        </linearGradient>
        <linearGradient x1="1.68894509%" y1="50%" x2="97.6381864%" y2="50%" id="linearGradient-19">
            <stop stop-color="#858585" offset="0%"></stop>
            <stop stop-color="#222222" offset="100%"></stop>
        </linearGradient>
        <linearGradient x1="50%" y1="1.0634935%" x2="50%" y2="100%" id="linearGradient-20">
            <stop stop-color="#FFFFFF" offset="0%"></stop>
            <stop stop-color="#EAEAEA" offset="100%"></stop>
        </linearGradient>
        <linearGradient x1="50%" y1="2.86985188%" x2="50%" y2="94.8925217%" id="linearGradient-21">
            <stop stop-color="#4B4B4B" offset="0%"></stop>
            <stop stop-color="#5B5B5B" offset="100%"></stop>
        </linearGradient>
        <linearGradient x1="50%" y1="0%" x2="50%" y2="100%" id="linearGradient-22">
            <stop stop-color="#BDBDBD" offset="0%"></stop>
            <stop stop-color="#A4A4A4" offset="68.4804532%"></stop>
            <stop stop-color="#999999" offset="100%"></stop>
        </linearGradient>
        <radialGradient cx="50%" cy="0%" fx="50%" fy="0%" r="100%" id="radialGradient-23">
            <stop stop-color="#F0F0F0" offset="0%"></stop>
            <stop stop-color="#C0C0C0" offset="100%"></stop>
        </radialGradient>
        <linearGradient x1="-1.11022302e-14%" y1="50%" x2="96.9269328%" y2="50%" id="linearGradient-24">
            <stop stop-color="#DCDCDC" offset="0%"></stop>
            <stop stop-color="#D5D5D5" offset="100%"></stop>
        </linearGradient>
        <linearGradient x1="50%" y1="0%" x2="50%" y2="100%" id="linearGradient-25">
            <stop stop-color="#777777" offset="0%"></stop>
            <stop stop-color="#818181" offset="95.8476337%"></stop>
        </linearGradient>
        <linearGradient x1="50%" y1="0%" x2="50%" y2="100%" id="linearGradient-26">
            <stop stop-color="#565656" offset="0%"></stop>
            <stop stop-color="#7C7C7C" offset="100%"></stop>
        </linearGradient>
        <linearGradient x1="11.4661734%" y1="15.1461538%" x2="88.5357401%" y2="84.8555769%" id="linearGradient-27">
            <stop stop-color="#E68CBC" offset="0%"></stop>
            <stop stop-color="#8366B3" offset="100%"></stop>
        </linearGradient>
        <linearGradient x1="84.8556683%" y1="11.466082%" x2="15.1462452%" y2="88.5356487%" id="linearGradient-28">
            <stop stop-color="#E68CBC" offset="0%"></stop>
            <stop stop-color="#8366B3" offset="100%"></stop>
        </linearGradient>
        <linearGradient x1="0%" y1="0%" x2="100%" y2="82.2714986%" id="linearGradient-29">
            <stop stop-color="#306EBD" offset="0%"></stop>
            <stop stop-color="#4ABBEC" offset="100%"></stop>
        </linearGradient>
        <linearGradient x1="0%" y1="0%" x2="95.9582731%" y2="78.9463094%" id="linearGradient-30">
            <stop stop-color="#8DDF6D" offset="0%"></stop>
            <stop stop-color="#75CDB1" offset="100%"></stop>
        </linearGradient>
        <linearGradient x1="50%" y1="0%" x2="50%" y2="100%" id="linearGradient-31">
            <stop stop-color="#E15F99" offset="0%"></stop>
            <stop stop-color="#FBB0A3" offset="100%"></stop>
        </linearGradient>
    </defs>
    <g id="Page-1" stroke="none" stroke-width="1" fill="none" fill-rule="evenodd">
        <g id="牛顿技术" transform="translate(-1034.000000, -2488.000000)">
            <g id="Group-11" transform="translate(1034.000000, 2488.000000)">
                <g id="vacuum-cleaner" transform="translate(359.000000, 14.000000)" fill-rule="nonzero">
                    <path d="M13.1363095,0.0410714286 L11.65625,0.0410714286 C5.22886905,0.0410714286 0,5.26994048 0,11.7019841 C0,14.815377 1.21230159,17.7424603 3.4139881,19.9438492 L5.89077381,17.4670635 C4.35099206,15.9272817 3.50297619,13.8799603 3.50297619,11.6973214 C3.50297619,7.20138889 7.16031746,3.54404762 11.65625,3.54404762 L13.1363095,3.54404762 C27.1402778,3.54404762 38.5331349,14.9369048 38.5331349,28.940873 L38.5331349,31.5681548 L42.0361111,31.5681548 L42.0361111,28.940873 C42.0361111,13.0054563 29.0717262,0.0410714286 13.1363095,0.0410714286 Z" id="Shape" fill="#464655"></path>
                    <path d="M2.32162698,19.3384921 L5.27152778,24.4868056 L10.6185516,19.1397817 L5.4702381,16.189881 C5.29871032,16.0915675 5.0827381,16.1204365 4.94295635,16.260119 L2.39186508,18.8112103 C2.25218254,18.9509921 2.2234127,19.1669643 2.32162698,19.3384921 Z" id="Shape" fill="#707487"></path>
                    <path d="M17.5150794,49.0832341 L4.37876984,49.0832341 C2.92777778,49.0832341 1.7514881,47.9069444 1.7514881,46.4559524 L1.7514881,31.5681548 C1.7514881,23.3458333 8.41696429,16.6803571 16.6392857,16.6803571 L21.0180556,16.6803571 C22.4690476,16.6803571 23.6453373,17.8566468 23.6453373,19.3076389 L23.6453373,42.9529762 C23.6453373,46.3385913 20.9006944,49.0832341 17.5150794,49.0832341 Z" id="Shape" fill="url(#linearGradient-1)"></path>
                    <path d="M5.25456349,46.4559524 L5.25456349,38.5742063 L1.7515873,38.5742063 L1.7515873,46.4559524 C1.7515873,47.9069444 2.92787698,49.0832341 4.37886905,49.0832341 L7.88184524,49.0832341 C6.43075397,49.0832341 5.25456349,47.9069444 5.25456349,46.4559524 Z" id="Shape" fill="#62CBE9"></path>
                    <path d="M14.012004,47.3316468 L5.41547619,47.3316468 C5.77738095,48.3497024 6.73958333,49.0831349 7.88184524,49.0831349 L14.0121032,49.0831349 L14.0121032,47.3316468 L14.012004,47.3316468 Z" id="Shape" fill="#959CB3"></path>
                    <path d="M42.0361111,44.7044643 L38.5331349,44.7044643 C38.049504,44.7044643 37.6573413,45.096627 37.6573413,45.5802579 L37.6573413,47.331746 L42.9119048,47.331746 L42.9119048,45.5802579 C42.9119048,45.0965278 42.5197421,44.7044643 42.0361111,44.7044643 Z" id="Shape" fill="#464655"></path>
                    <path d="M21.0180556,16.6803571 L20.1422619,16.6803571 L20.1422619,39.4499008 L23.6452381,39.4499008 L23.6452381,19.3076389 C23.6453373,17.8565476 22.4690476,16.6803571 21.0180556,16.6803571 Z" id="Shape" fill="#D2D2D2"></path>
                    <circle id="Oval" fill="#3E3E3E" cx="16.6392857" cy="42.0771825" r="7.88174603"></circle>
                    <circle id="Oval" fill="url(#linearGradient-2)" cx="16.6392857" cy="42.0771825" r="5.25456349"></circle>
                    <rect id="Rectangle-path" fill="#D7DEED" x="38.5331349" y="30.6923611" width="3.50297619" height="14.012004"></rect>
                    <path d="M6.30863095,26.1353175 C7.34186508,24.0006944 9.0718254,22.2708333 11.2063492,21.2375992 C12.1426587,20.7844246 13.1529762,20.4611111 14.215873,20.3 C15.0940476,20.1668651 15.7633929,19.4505952 15.7633929,18.5623016 L15.7633929,16.7066468 C7.94890873,17.1602183 1.7514881,23.6399802 1.7514881,31.5681548 L1.7514881,40.3256944 L3.50297619,40.3256944 C4.4702381,40.3256944 5.25446429,39.5414683 5.25446429,38.5742063 L5.25446429,30.6924603 C5.25456349,29.0582341 5.64027778,27.5161706 6.30863095,26.1353175 Z" id="Shape" fill="#8FDFF1"></path>
                    <g id="Group" transform="translate(1.884921, 46.428571)" fill="#707487">
                        <path d="M35.7724206,0.0273809524 L46.2814484,0.0273809524 C47.7324405,0.0273809524 48.9087302,1.20367063 48.9087302,2.6546627 C48.9087302,3.13829365 48.5165675,3.53045635 48.0329365,3.53045635 L35.7724206,3.53045635 C35.2887897,3.53045635 34.896627,3.13829365 34.896627,2.6546627 L34.896627,0.903174603 C34.8967262,0.419444444 35.2887897,0.0273809524 35.7724206,0.0273809524 Z" id="Shape"></path>
                        <path d="M3.53055556,0.903075397 L0.0275793651,0.903075397 C0.389484127,1.92113095 1.35168651,2.65456349 2.49394841,2.65456349 L5.9969246,2.65456349 C4.85456349,2.6546627 3.89246032,1.92123016 3.53055556,0.903075397 Z" id="Shape"></path>
                    </g>
                </g>
                <rect id="Rectangle-5" stroke="url(#linearGradient-3)" stroke-width="2" opacity="0.300000012" x="89" y="1" width="198" height="248" rx="30"></rect>
                <g id="ethernet" transform="translate(6.709677, 113.000000)" fill-rule="nonzero">
                    <path d="M39.8665323,29.9499194 L1.42379032,29.9499194 C0.637903226,29.9499194 0,29.3120968 0,28.526129 L0,1.47387097 C0,0.687903226 0.637903226,0.0500806452 1.42379032,0.0500806452 L39.8665323,0.0500806452 C40.6525,0.0500806452 41.2903226,0.687983871 41.2903226,1.47387097 L41.2903226,28.526129 C41.2903226,29.3120968 40.6524194,29.9499194 39.8665323,29.9499194" id="Shape" fill="url(#linearGradient-4)"></path>
                    <g id="Shape">
                        <use fill="#272727" fill-rule="evenodd" xlink:href="#path-5"></use>
                        <use fill="black" fill-opacity="1" filter="url(#filter-6)" xlink:href="#path-5"></use>
                    </g>
                    <g id="Group" transform="translate(8.467742, 5.000000)" fill="#A4A4A4">
                        <path d="M23.5678226,2.88096774 C23.9608065,2.88096774 24.2797581,2.56274194 24.2797581,2.16903226 L24.2797581,0.0333064516 L22.8559677,0.0333064516 L22.8559677,2.16903226 C22.8559677,2.56274194 23.1749194,2.88096774 23.5678226,2.88096774" id="Shape"></path>
                        <path d="M20.7202419,2.88096774 C21.1132258,2.88096774 21.4321774,2.56274194 21.4321774,2.16903226 L21.4321774,0.0333064516 L20.0083871,0.0333064516 L20.0083871,2.16903226 C20.0083065,2.56274194 20.3272581,2.88096774 20.7202419,2.88096774" id="Shape"></path>
                        <path d="M17.8726613,2.88096774 C18.2656452,2.88096774 18.5845968,2.56274194 18.5845968,2.16903226 L18.5845968,0.0333064516 L17.1608064,0.0333064516 L17.1608065,2.16903226 C17.1607258,2.56274194 17.4796774,2.88096774 17.8726613,2.88096774" id="Shape"></path>
                        <path d="M15.025,2.88096774 C15.4179839,2.88096774 15.7369355,2.56274194 15.7369355,2.16903226 L15.7369355,0.0333064516 L14.3131452,0.0333064516 L14.3131452,2.16903226 C14.3131452,2.56274194 14.6320968,2.88096774 15.025,2.88096774" id="Shape"></path>
                        <path d="M12.1774194,2.88096774 C12.5704032,2.88096774 12.8893548,2.56274194 12.8893548,2.16903226 L12.8893548,0.0333064516 L11.4655645,0.0333064516 L11.4655645,2.16903226 C11.4654839,2.56274194 11.7844355,2.88096774 12.1774194,2.88096774" id="Shape"></path>
                        <path d="M9.32983871,2.88096774 C9.72282258,2.88096774 10.0417742,2.56274194 10.0417742,2.16903226 L10.0417742,0.0333064516 L8.61798386,0.0333064516 L8.61798387,2.16903226 C8.61790323,2.56274194 8.93685484,2.88096774 9.32983871,2.88096774" id="Shape"></path>
                        <path d="M6.48217742,2.88096774 C6.87516129,2.88096774 7.1941129,2.56274194 7.1941129,2.16903226 L7.1941129,0.0333064516 L5.77032258,0.0333064516 L5.77032258,2.16903226 C5.77032258,2.56274194 6.08919355,2.88096774 6.48217742,2.88096774" id="Shape"></path>
                        <path d="M3.63459677,2.88096774 C4.02758065,2.88096774 4.34653226,2.56274194 4.34653226,2.16903226 L4.34653226,0.0333064516 L2.92274192,0.0333064516 L2.92274194,2.16903226 C2.92266129,2.56274194 3.2416129,2.88096774 3.63459677,2.88096774" id="Shape"></path>
                        <path d="M0.787016129,2.88096774 C1.18,2.88096774 1.49895161,2.56274194 1.49895161,2.16903226 L1.49895161,0.0333064516 L0.075161275,0.0333064516 L0.0751612903,2.16903226 C0.0750806452,2.56274194 0.394032258,2.88096774 0.787016129,2.88096774" id="Shape"></path>
                    </g>
                </g>
                <g id="闪电" opacity="0.699999988" transform="translate(316.000000, 32.000000)" fill="url(#linearGradient-7)" fill-rule="nonzero">
                    <path d="M7.11451535,27.5565012 L8.30070922,16.6265721 C8.30070922,16.6265721 8.30070922,16.541844 8.30070922,16.541844 C8.30070922,16.0334752 7.9617967,15.6945627 7.45342791,15.6945627 L0.166808511,15.6945627 L5.80889527,0.0171684856 L12.5024177,0.0171684856 L8.89380613,9.50940901 C8.89380613,9.59413713 8.80907801,9.67886529 8.80907801,9.76359341 C8.80907801,10.2719622 9.14799053,10.6108747 9.65635932,10.6108747 L16.1804255,10.6108747 L7.11451535,27.5565012 Z" id="Shape"></path>
                </g>
                <g id="闪电" opacity="0.699999988" transform="translate(316.000000, 121.000000)" fill="url(#linearGradient-7)" fill-rule="nonzero">
                    <path d="M7.11451535,27.5565012 L8.30070922,16.6265721 C8.30070922,16.6265721 8.30070922,16.541844 8.30070922,16.541844 C8.30070922,16.0334752 7.9617967,15.6945627 7.45342791,15.6945627 L0.166808511,15.6945627 L5.80889527,0.0171684856 L12.5024177,0.0171684856 L8.89380613,9.50940901 C8.89380613,9.59413713 8.80907801,9.67886529 8.80907801,9.76359341 C8.80907801,10.2719622 9.14799053,10.6108747 9.65635932,10.6108747 L16.1804255,10.6108747 L7.11451535,27.5565012 Z" id="Shape"></path>
                </g>
                <g id="闪电" opacity="0.699999988" transform="translate(316.000000, 203.000000)" fill="url(#linearGradient-7)" fill-rule="nonzero">
                    <path d="M7.11451535,27.5565012 L8.30070922,16.6265721 C8.30070922,16.6265721 8.30070922,16.541844 8.30070922,16.541844 C8.30070922,16.0334752 7.9617967,15.6945627 7.45342791,15.6945627 L0.166808511,15.6945627 L5.80889527,0.0171684856 L12.5024177,0.0171684856 L8.89380613,9.50940901 C8.89380613,9.59413713 8.80907801,9.67886529 8.80907801,9.76359341 C8.80907801,10.2719622 9.14799053,10.6108747 9.65635932,10.6108747 L16.1804255,10.6108747 L7.11451535,27.5565012 Z" id="Shape"></path>
                </g>
                <g id="modem" transform="translate(2.649485, 187.000000)" fill-rule="nonzero">
                    <path d="M48.2776289,18.9837113 L48.2776289,29.9265979 L0,29.9265979 L0,18.9837113 C0,17.9172165 0.864536082,17.0525773 1.93113402,17.0525773 L46.3464948,17.0525773 C47.4129897,17.0525773 48.2776289,17.9172165 48.2776289,18.9837113 Z" id="Shape" fill="url(#linearGradient-8)"></path>
                    <path d="M42.5808247,22.73 L42.5808247,29.9265979 L5.69030928,29.9265979 L5.69030928,22.73 C5.69030928,22.0189691 6.26670103,21.4425773 6.97773196,21.4425773 L41.2934021,21.4425773 C42.004433,21.4426804 42.5808247,22.0190722 42.5808247,22.73 Z" id="Shape" fill="url(#linearGradient-9)"></path>
                    <circle id="Oval" fill="#EE6161" cx="11.2126804" cy="25.684433" r="2.25298969"></circle>
                    <circle id="Oval" fill="#3BD268" cx="17.0059794" cy="25.684433" r="1.60927835"></circle>
                    <circle id="Oval" fill="#3BD268" cx="22.155567" cy="25.684433" r="1.60927835"></circle>
                    <g id="Group" transform="translate(5.670103, 0.000000)" fill="url(#linearGradient-10)">
                        <path d="M1.37989691,0.593917526 L0.0905154639,17.0525773 L3.95268041,17.0525773 L2.66340206,0.593917526 C2.60134021,-0.197319588 1.44185567,-0.197319588 1.37989691,0.593917526 Z" id="Shape"></path>
                        <path d="M34.2740206,0.593917526 L32.9846392,17.0525773 L36.8468041,17.0525773 L35.5575258,0.593917526 C35.495567,-0.197319588 34.3360825,-0.197319588 34.2740206,0.593917526 Z" id="Shape"></path>
                    </g>
                    <g id="Group" transform="translate(12.783505, 0.000000)" fill="#333333">
                        <path d="M21.6779381,4.42371134 C15.7803093,-1.47391753 6.18257732,-1.47391753 0.284948454,4.42371134 C-0.0922680412,4.80051546 -0.0922680412,5.41185567 0.284948454,5.78907216 C0.662164948,6.16628866 1.27309278,6.16628866 1.65030928,5.78907216 C6.79618557,0.644536082 15.1668041,0.644536082 20.3125773,5.78907216 C20.501134,5.97762887 20.7482474,6.07195876 20.9952577,6.07195876 C21.242268,6.07195876 21.4893814,5.97762887 21.6779381,5.78907216 C22.0550515,5.41185567 22.0550515,4.80061856 21.6779381,4.42371134 Z" id="Shape"></path>
                        <path d="M10.9814433,5.14690722 C8.3142268,5.14690722 5.8085567,6.18319588 3.92649485,8.06494845 C3.54927835,8.44185567 3.54927835,9.05309278 3.92649485,9.43030928 C4.30371134,9.80752577 4.91463918,9.80752577 5.29185567,9.43030928 C6.80938144,7.91350515 8.82969072,7.07804124 10.9814433,7.07804124 C13.1338144,7.07804124 15.1542268,7.91350515 16.6710309,9.43030928 C16.8595876,9.61886598 17.106701,9.71319588 17.3537113,9.71319588 C17.6007216,9.71319588 17.8478351,9.61886598 18.0363918,9.43030928 C18.4136082,9.05340206 18.4136082,8.44216495 18.0363918,8.06494845 C16.1549485,6.18319588 13.6492784,5.14690722 10.9814433,5.14690722 Z" id="Shape"></path>
                        <path d="M7.56804124,11.7061856 C7.19082474,12.0829897 7.19082474,12.6946392 7.56804124,13.0715464 C7.94525773,13.4487629 8.55618557,13.4487629 8.93340206,13.0715464 C10.0623711,11.9425773 11.901134,11.942268 13.0301031,13.0718557 C13.2186598,13.2601031 13.4657732,13.354433 13.7127835,13.354433 C13.9597938,13.354433 14.2069072,13.2601031 14.3954639,13.0715464 C14.7726804,12.6943299 14.7726804,12.0830928 14.3954639,11.7058763 C12.5120619,9.82443299 9.45010309,9.82412371 7.56804124,11.7061856 Z" id="Shape"></path>
                    </g>
                </g>
                <g id="cpu-(2)" transform="translate(2.000000, 21.000000)" fill-rule="nonzero">
                    <g id="Shape">
                        <use fill="url(#linearGradient-11)" fill-rule="evenodd" xlink:href="#path-12"></use>
                        <use fill="black" fill-opacity="1" filter="url(#filter-13)" xlink:href="#path-12"></use>
                    </g>
                    <g id="Group" fill="url(#linearGradient-14)">
                        <path d="M13.5479437,11.0393239 C12.9256338,11.0393239 12.4211831,10.5348732 12.4211831,9.91256338 L12.4211831,1.12676056 C12.4211831,0.504450704 12.9256338,0 13.5479437,0 C14.1702535,0 14.6747042,0.504450704 14.6747042,1.12676056 L14.6747042,9.91256338 C14.6747042,10.5348732 14.1702535,11.0393239 13.5479437,11.0393239 Z" id="Shape"></path>
                        <path d="M18.7739718,11.0393239 C18.151662,11.0393239 17.6472113,10.5348732 17.6472113,9.91256338 L17.6472113,1.12676056 C17.6472113,0.504450704 18.151662,0 18.7739718,0 C19.3962817,0 19.9007324,0.504450704 19.9007324,1.12676056 L19.9007324,9.91256338 C19.9007324,10.5348732 19.3962817,11.0393239 18.7739718,11.0393239 Z" id="Shape"></path>
                        <path d="M24,11.0393239 C23.3776901,11.0393239 22.8732394,10.5348732 22.8732394,9.91256338 L22.8732394,1.12676056 C22.8732394,0.504450704 23.3776901,0 24,0 C24.6223099,0 25.1267606,0.504450704 25.1267606,1.12676056 L25.1267606,9.91256338 C25.1267606,10.5348732 24.6223099,11.0393239 24,11.0393239 Z" id="Shape"></path>
                        <path d="M29.2259155,11.0393239 C28.6036056,11.0393239 28.0991549,10.5348732 28.0991549,9.91256338 L28.0991549,1.12676056 C28.0991549,0.504450704 28.6036056,0 29.2259155,0 C29.8482254,0 30.3526761,0.504450704 30.3526761,1.12676056 L30.3526761,9.91256338 C30.3526761,10.5348732 29.8482254,11.0393239 29.2259155,11.0393239 Z" id="Shape"></path>
                        <path d="M34.4519437,11.0393239 C33.8296338,11.0393239 33.3251831,10.5348732 33.3251831,9.91256338 L33.3251831,1.12676056 C33.3251831,0.504450704 33.8296338,0 34.4519437,0 C35.0742535,0 35.5787042,0.504450704 35.5787042,1.12676056 L35.5787042,9.91256338 C35.5787042,10.5348732 35.0742535,11.0393239 34.4519437,11.0393239 Z" id="Shape"></path>
                        <path d="M13.5479437,48 C12.9256338,48 12.4211831,47.4955493 12.4211831,46.8732394 L12.4211831,38.0875493 C12.4211831,37.4652394 12.9256338,36.9607887 13.5479437,36.9607887 C14.1702535,36.9607887 14.6747042,37.4652394 14.6747042,38.0875493 L14.6747042,46.8732394 C14.6747042,47.4955493 14.1702535,48 13.5479437,48 Z" id="Shape"></path>
                        <path d="M18.7739718,48 C18.151662,48 17.6472113,47.4955493 17.6472113,46.8732394 L17.6472113,38.0875493 C17.6472113,37.4652394 18.151662,36.9607887 18.7739718,36.9607887 C19.3962817,36.9607887 19.9007324,37.4652394 19.9007324,38.0875493 L19.9007324,46.8732394 C19.9007324,47.4955493 19.3962817,48 18.7739718,48 Z" id="Shape"></path>
                        <path d="M24,48 C23.3776901,48 22.8732394,47.4955493 22.8732394,46.8732394 L22.8732394,38.0875493 C22.8732394,37.4652394 23.3776901,36.9607887 24,36.9607887 C24.6223099,36.9607887 25.1267606,37.4652394 25.1267606,38.0875493 L25.1267606,46.8732394 C25.1267606,47.4955493 24.6223099,48 24,48 Z" id="Shape"></path>
                        <path d="M29.2259155,48 C28.6036056,48 28.0991549,47.4955493 28.0991549,46.8732394 L28.0991549,38.0875493 C28.0991549,37.4652394 28.6036056,36.9607887 29.2259155,36.9607887 C29.8482254,36.9607887 30.3526761,37.4652394 30.3526761,38.0875493 L30.3526761,46.8732394 C30.3526761,47.4955493 29.8482254,48 29.2259155,48 Z" id="Shape"></path>
                        <path d="M34.4519437,48 C33.8296338,48 33.3251831,47.4955493 33.3251831,46.8732394 L33.3251831,38.0875493 C33.3251831,37.4652394 33.8296338,36.9607887 34.4519437,36.9607887 C35.0742535,36.9607887 35.5787042,37.4652394 35.5787042,38.0875493 L35.5787042,46.8732394 C35.5787042,47.4955493 35.0742535,48 34.4519437,48 Z" id="Shape"></path>
                        <path d="M46.8732394,14.6748169 L38.0874366,14.6748169 C37.4651268,14.6748169 36.9606761,14.1703662 36.9606761,13.5480563 C36.9606761,12.9257465 37.4651268,12.4212958 38.0874366,12.4212958 L46.8732394,12.4212958 C47.4955493,12.4212958 48,12.9257465 48,13.5480563 C48,14.1703662 47.4955493,14.6748169 46.8732394,14.6748169 Z" id="Shape"></path>
                        <path d="M46.8732394,19.9007324 L38.0874366,19.9007324 C37.4651268,19.9007324 36.9606761,19.3962817 36.9606761,18.7739718 C36.9606761,18.151662 37.4651268,17.6472113 38.0874366,17.6472113 L46.8732394,17.6472113 C47.4955493,17.6472113 48,18.151662 48,18.7739718 C48,19.3962817 47.4955493,19.9007324 46.8732394,19.9007324 Z" id="Shape"></path>
                        <path d="M46.8732394,25.1267606 L38.0874366,25.1267606 C37.4651268,25.1267606 36.9606761,24.6223099 36.9606761,24 C36.9606761,23.3776901 37.4651268,22.8732394 38.0874366,22.8732394 L46.8732394,22.8732394 C47.4955493,22.8732394 48,23.3776901 48,24 C48,24.6223099 47.4955493,25.1267606 46.8732394,25.1267606 Z" id="Shape"></path>
                        <path d="M46.8732394,30.3527887 L38.0874366,30.3527887 C37.4651268,30.3527887 36.9606761,29.848338 36.9606761,29.2260282 C36.9606761,28.6037183 37.4651268,28.0992676 38.0874366,28.0992676 L46.8732394,28.0992676 C47.4955493,28.0992676 48,28.6037183 48,29.2260282 C48,29.848338 47.4955493,30.3527887 46.8732394,30.3527887 Z" id="Shape"></path>
                        <path d="M46.8732394,35.5788169 L38.0874366,35.5788169 C37.4651268,35.5788169 36.9606761,35.0743662 36.9606761,34.4520563 C36.9606761,33.8297465 37.4651268,33.3252958 38.0874366,33.3252958 L46.8732394,33.3252958 C47.4955493,33.3252958 48,33.8297465 48,34.4520563 C48,35.0743662 47.4955493,35.5788169 46.8732394,35.5788169 Z" id="Shape"></path>
                        <path d="M9.9124507,14.6748169 L1.12676056,14.6748169 C0.504450704,14.6748169 0,14.1703662 0,13.5480563 C0,12.9257465 0.504450704,12.4212958 1.12676056,12.4212958 L9.9124507,12.4212958 C10.5347606,12.4212958 11.0392113,12.9257465 11.0392113,13.5480563 C11.0392113,14.1703662 10.5347606,14.6748169 9.9124507,14.6748169 Z" id="Shape"></path>
                        <path d="M9.9124507,19.9007324 L1.12676056,19.9007324 C0.504450704,19.9007324 0,19.3962817 0,18.7739718 C0,18.151662 0.504450704,17.6472113 1.12676056,17.6472113 L9.9124507,17.6472113 C10.5347606,17.6472113 11.0392113,18.151662 11.0392113,18.7739718 C11.0392113,19.3962817 10.5347606,19.9007324 9.9124507,19.9007324 Z" id="Shape"></path>
                        <path d="M9.9124507,25.1267606 L1.12676056,25.1267606 C0.504450704,25.1267606 0,24.6223099 0,24 C0,23.3776901 0.504450704,22.8732394 1.12676056,22.8732394 L9.9124507,22.8732394 C10.5347606,22.8732394 11.0392113,23.3776901 11.0392113,24 C11.0392113,24.6223099 10.5347606,25.1267606 9.9124507,25.1267606 Z" id="Shape"></path>
                        <path d="M9.9124507,30.3527887 L1.12676056,30.3527887 C0.504450704,30.3527887 0,29.848338 0,29.2260282 C0,28.6037183 0.504450704,28.0992676 1.12676056,28.0992676 L9.9124507,28.0992676 C10.5347606,28.0992676 11.0392113,28.6037183 11.0392113,29.2260282 C11.0392113,29.848338 10.5347606,30.3527887 9.9124507,30.3527887 Z" id="Shape"></path>
                        <path d="M9.9124507,35.5788169 L1.12676056,35.5788169 C0.504450704,35.5788169 0,35.0743662 0,34.4520563 C0,33.8297465 0.504450704,33.3252958 1.12676056,33.3252958 L9.9124507,33.3252958 C10.5347606,33.3252958 11.0392113,33.8297465 11.0392113,34.4520563 C11.0392113,35.0743662 10.5347606,35.5788169 9.9124507,35.5788169 Z" id="Shape"></path>
                    </g>
                    <rect id="Rectangle-path" fill="url(#linearGradient-15)" x="17.9408451" y="17.9408451" width="12.1183099" height="12.1183099"></rect>
                </g>
                <g id="hairdryer" transform="translate(357.000000, 187.000000)" fill-rule="nonzero">
                    <path d="M13.6228395,45.320679 L13.6228395,48.1587449 C13.6228395,49.1619342 14.4360082,49.9751029 15.4391975,49.9751029 C16.4423868,49.9751029 17.2555556,49.1619342 17.2555556,48.1587449 L17.2555556,45.320679 L13.6228395,45.320679 Z" id="Shape" fill="#464655"></path>
                    <path d="M20.8882716,18.1884774 L9.99002058,18.1884774 L11.7469136,21.1164609 C12.3665638,22.149177 12.5505144,23.3856996 12.2584362,24.5541152 L12.2402263,24.6266461 C11.9520576,25.7792181 11.8063786,26.9628601 11.8063786,28.150823 L11.8063786,44.525823 C11.8063786,45.5289095 12.6196502,46.3421811 13.6227366,46.3421811 L17.2554527,46.3421811 C18.2585391,46.3421811 19.0718107,45.5289095 19.0718107,44.525823 L19.0718107,28.1510288 C19.0718107,26.962963 18.9260288,25.7794239 18.637963,24.6268519 L18.6197531,24.554321 C18.3276749,23.3859053 18.5117284,22.1494856 19.1312757,21.1166667 L20.8882716,18.1884774 Z" id="Shape" fill="url(#linearGradient-16)"></path>
                    <path d="M0,10.46893 C0,14.2307613 1.62644033,17.2803498 3.63271605,17.2803498 L3.63271605,3.65761317 C1.62644033,3.65761317 0,6.70699588 0,10.46893 Z" id="Shape" fill="#464655"></path>
                    <path d="M42.2307613,4.56574074 L39.1234568,4.56574074 L24.3312757,2.23004115 C22.6968107,1.97201646 21.0283951,1.84125514 19.3734568,1.84125514 L5.44917695,1.84125514 C3.9468107,1.84125514 2.72458848,3.06347737 2.72458848,4.56584362 L2.72458848,16.3723251 C2.72458848,17.8746914 3.9468107,19.0969136 5.44917695,19.0969136 L19.3734568,19.0969136 C21.0279835,19.0969136 22.6958848,18.9661523 24.3312757,18.7080247 L39.1234568,16.372428 L42.2306584,16.372428 C45.4855967,16.372428 48.1338477,13.724177 48.1338477,10.4692387 C48.1338477,7.21430041 45.4856996,4.56574074 42.2307613,4.56574074 Z" id="Shape" fill="url(#linearGradient-17)"></path>
                    <path d="M52.3582305,0.24382716 C52.1573045,0.0717078189 51.8943416,-0.0049382716 51.6292181,0.0353909465 C44.9052469,1.06378601 42.0737654,4.77407407 41.9561728,4.93158436 C41.8396091,5.08816872 41.7765432,5.27839506 41.7765432,5.47397119 L41.7765432,15.4639918 C41.7765432,15.6595679 41.8395062,15.8497942 41.9561728,16.0062757 C42.0736626,16.1636831 44.905144,19.8739712 51.6292181,20.9024691 C51.6753086,20.9096708 51.7210905,20.9131687 51.7666667,20.9131687 C51.9820988,20.9131687 52.1923868,20.8364198 52.3582305,20.6940329 C52.5591564,20.5215021 52.6748971,20.2696502 52.6748971,20.0049383 L52.6748971,0.933024691 C52.6748971,0.668312757 52.5590535,0.416358025 52.3582305,0.24382716 Z" id="Shape" fill="#464655"></path>
                    <path d="M14.9850823,11.8312757 L7.71954733,11.8312757 C6.96718107,11.8312757 6.35730453,11.2212963 6.35730453,10.4690329 C6.35730453,9.71666667 6.96728395,9.10679012 7.71954733,9.10679012 L14.9850823,9.10679012 C15.7374486,9.10679012 16.3473251,9.71676955 16.3473251,10.4690329 C16.347428,11.2212963 15.7374486,11.8312757 14.9850823,11.8312757 Z" id="Shape" fill="url(#linearGradient-18)"></path>
                    <path d="M15.4391975,31.8114198 C14.4360082,31.8114198 13.6228395,30.998251 13.6228395,29.9950617 L13.6228395,28.1787037 C13.6228395,27.1755144 14.4360082,26.3623457 15.4391975,26.3623457 C16.4423868,26.3623457 17.2555556,27.1755144 17.2555556,28.1787037 L17.2555556,29.9950617 C17.2555556,30.998251 16.4423868,31.8114198 15.4391975,31.8114198 Z" id="Shape" fill="#B2B2B2"></path>
                    <path d="M15.4391975,26.3622428 C14.4361111,26.3622428 13.6228395,27.1754115 13.6228395,28.1786008 L13.6228395,29.0868313 L17.2555556,29.0868313 L17.2555556,28.1786008 C17.2555556,27.1755144 16.442284,26.3622428 15.4391975,26.3622428 Z" id="Shape" fill="#D7D7D7"></path>
                    <polygon id="Shape" fill="#646464" points="19.2534979 20.9131687 20.3433128 19.0968107 10.5350823 19.0968107 11.6248971 20.9131687"></polygon>
                    <path d="M42.2307613,12.7394033 L39.1234568,12.7394033 L24.3312757,15.0751029 C22.6958848,15.3332305 21.0279835,15.4639918 19.3734568,15.4639918 L5.44917695,15.4639918 C3.9468107,15.4639918 2.72458848,14.2417695 2.72458848,12.7394033 L2.72458848,16.3720165 C2.72458848,17.8743827 3.9468107,19.0966049 5.44917695,19.0966049 L19.3734568,19.0966049 C21.0279835,19.0966049 22.6958848,18.9658436 24.3312757,18.707716 L39.1234568,16.3721193 L42.2306584,16.3721193 C45.4855967,16.3721193 48.1338477,13.7238683 48.1338477,10.46893 C48.1338477,9.83497942 48.0307613,9.22541152 47.8449588,8.65257202 C47.0768519,11.0210905 44.851749,12.7394033 42.2307613,12.7394033 Z" id="Shape" fill="#969696"></path>
                    <path d="M42.2307613,4.56574074 L39.1234568,4.56574074 L39.0520576,4.55442387 L39.0520576,16.3833333 L39.1234568,16.3721193 L42.2306584,16.3721193 C45.4855967,16.3721193 48.1338477,13.7238683 48.1338477,10.46893 C48.1338477,7.21399177 45.4856996,4.56574074 42.2307613,4.56574074 Z" id="Shape" fill="#707487"></path>
                    <path d="M48.0658436,9.62088477 C48.0585391,9.57047325 48.0512346,9.51995885 48.0426955,9.46985597 C47.9942387,9.1909465 47.9308642,8.91697531 47.8450617,8.65257202 C47.076749,11.0209877 44.851749,12.7394033 42.2307613,12.7394033 L39.1234568,12.7394033 L39.0520576,12.7507202 L39.0520576,16.3833333 L39.1234568,16.3721193 L42.2306584,16.3721193 C45.4855967,16.3721193 48.1338477,13.7238683 48.1338477,10.46893 C48.1339506,10.180144 48.1066872,9.89825103 48.0658436,9.62088477 Z" id="Shape" fill="#5B5D6E"></path>
                </g>
                <g id="washing-machine" transform="translate(363.000000, 106.000000)" fill-rule="nonzero">
                    <g id="Group" transform="translate(0.878906, 47.363281)" fill="url(#linearGradient-19)">
                        <path d="M2.62998047,2.63671875 L0.905859375,2.63671875 C0.429785156,2.63671875 0.04375,2.25068359 0.04375,1.77460938 L0.04375,0.0504882813 L3.49199221,0.0504882813 L3.49199219,1.77460938 C3.49208984,2.25068359 3.10605469,2.63671875 2.62998047,2.63671875 Z" id="Shape"></path>
                        <path d="M33.6644531,2.63671875 L31.940332,2.63671875 C31.4642578,2.63671875 31.0782227,2.25068359 31.0782227,1.77460938 L31.0782227,0.0504882813 L34.5264649,0.0504882813 L34.5264648,1.77460938 C34.5265625,2.25068359 34.1405273,2.63671875 33.6644531,2.63671875 Z" id="Shape"></path>
                    </g>
                    <path d="M34.5433594,48.2758789 L1.78476562,48.2758789 C0.832519531,48.2758789 0.0606445312,47.5040039 0.0606445312,46.5517578 L0.0606445312,1.72412109 C0.0606445312,0.771875 0.832519531,0 1.78476562,0 L34.5433594,0 C35.4956055,0 36.2674805,0.771875 36.2674805,1.72412109 L36.2674805,46.5517578 C36.2674805,47.5040039 35.4956055,48.2758789 34.5433594,48.2758789 Z" id="Shape" fill="url(#linearGradient-20)"></path>
                    <path d="M0.0606445312,1.72412109 L0.0606445312,10.3448242 L36.2675781,10.3448242 L36.2675781,1.72412109 C36.2674805,0.771875 35.4955078,0 34.5433594,0 L1.78476562,0 C0.832617187,0 0.0606445312,0.771875 0.0606445312,1.72412109 Z" id="Shape" fill="url(#linearGradient-21)"></path>
                    <path d="M14.7158203,0 L14.7158203,5.17246094 C14.7158203,7.07685547 16.259668,8.62070313 18.1640625,8.62070313 C20.068457,8.62070313 21.6123047,7.07685547 21.6123047,5.17246094 L21.6123047,0 L14.7158203,0 Z" id="Shape" fill="url(#linearGradient-22)"></path>
                    <circle id="Oval" fill="url(#radialGradient-23)" cx="18.1640625" cy="25.8621094" r="12.9310547"></circle>
                    <circle id="Oval" fill="#707487" cx="18.1640625" cy="5.17246094" r="1.72412109"></circle>
                    <path d="M25.0606445,6.89658203 C24.5845703,6.89658203 24.1985352,6.51054687 24.1985352,6.03447266 L24.1985352,4.31035156 C24.1985352,3.83427734 24.5845703,3.44824219 25.0606445,3.44824219 C25.5367187,3.44824219 25.9227539,3.83427734 25.9227539,4.31035156 L25.9227539,6.03447266 C25.9226562,6.51054688 25.5367187,6.89658203 25.0606445,6.89658203 Z" id="Shape" fill="#7A7A7A"></path>
                    <path d="M28.5088867,6.89658203 C28.0328125,6.89658203 27.6467773,6.51054687 27.6467773,6.03447266 L27.6467773,4.31035156 C27.6467773,3.83427734 28.0328125,3.44824219 28.5088867,3.44824219 C28.9849609,3.44824219 29.3709961,3.83427734 29.3709961,4.31035156 L29.3709961,6.03447266 C29.3709961,6.51054688 28.9849609,6.89658203 28.5088867,6.89658203 Z" id="Shape" fill="#B1B1B1"></path>
                    <path d="M31.9571289,6.89658203 C31.4810547,6.89658203 31.0950195,6.51054687 31.0950195,6.03447266 L31.0950195,4.31035156 C31.0950195,3.83427734 31.4810547,3.44824219 31.9571289,3.44824219 C32.4332031,3.44824219 32.8192383,3.83427734 32.8192383,4.31035156 L32.8192383,6.03447266 C32.8192383,6.51054688 32.4332031,6.89658203 31.9571289,6.89658203 Z" id="Shape" fill="#EBEBEB"></path>
                    <circle id="Oval" fill="#8FDFF1" cx="18.1640625" cy="25.8621094" r="8.62070313"></circle>
                    <path d="M18.1640625,19.8275391 C22.4844727,19.8275391 26.0519531,23.009082 26.6774414,27.1550781 C26.7412109,26.7322266 26.7847656,26.3026367 26.7847656,25.8620117 C26.7847656,21.1008789 22.9251953,17.2413086 18.1640625,17.2413086 C13.4029297,17.2413086 9.54335937,21.1008789 9.54335937,25.8620117 C9.54335937,26.3026367 9.58691406,26.7322266 9.65068359,27.1550781 C10.2761719,23.0091797 13.8436523,19.8275391 18.1640625,19.8275391 Z" id="Shape" fill="#62CBE9"></path>
                    <path d="M25.0606445,39.6551758 L33.6813477,39.6551758 C34.1574219,39.6551758 34.543457,40.0412109 34.543457,40.5172852 L34.543457,45.6897461 C34.543457,46.1658203 34.1574219,46.5518555 33.6813477,46.5518555 L25.0606445,46.5518555 C24.5845703,46.5518555 24.1985352,46.1658203 24.1985352,45.6897461 L24.1985352,40.5172852 C24.1985352,40.0412109 24.5845703,39.6551758 25.0606445,39.6551758 Z" id="Shape" fill="url(#linearGradient-24)"></path>
                    <path d="M11.2674805,8.62070313 L2.64677734,8.62070313 C2.17070312,8.62070313 1.78466797,8.23466797 1.78466797,7.75859375 L1.78466797,2.58623047 C1.78466797,2.11015625 2.17070312,1.72412109 2.64677734,1.72412109 L11.2674805,1.72412109 C11.7435547,1.72412109 12.1295898,2.11015625 12.1295898,2.58623047 L12.1295898,7.75869141 C12.1295898,8.23466797 11.7435547,8.62070313 11.2674805,8.62070313 Z" id="Shape" fill="url(#linearGradient-25)"></path>
                    <path d="M8.68134766,6.89658203 L5.23310547,6.89658203 C4.75703125,6.89658203 4.37099609,7.28261719 4.37099609,7.75869141 L4.37099609,8.62080078 L9.54345703,8.62080078 L9.54345703,7.75869141 C9.54335937,7.28251953 9.15742188,6.89658203 8.68134766,6.89658203 Z" id="Shape" fill="#4C4C4C"></path>
                    <path d="M22.4748047,29.2228516 C22.6924805,29.2228516 22.9100586,29.3044922 23.0780273,29.469043 C23.4180664,29.8020508 23.4240234,30.3479492 23.090625,30.6880859 C22.5189453,31.271875 21.8560547,31.7451172 21.1198242,32.0944336 C20.6916992,32.2994141 20.1756836,32.1150391 19.971582,31.6852539 C19.7673828,31.2550781 19.9505859,30.7411133 20.3807617,30.5370117 C20.9326172,30.2751953 21.4296875,29.9199219 21.859082,29.4817383 C22.0277344,29.3094727 22.2513672,29.2228516 22.4748047,29.2228516 Z" id="Shape" fill="#C3F1F5"></path>
                    <path d="M12.9899414,28.1085938 C13.2825195,28.1085938 13.5673828,28.2572266 13.7291016,28.5256836 C14.5364258,29.8663086 15.8833984,30.7617188 17.4245117,30.9822266 C17.8959961,31.0496094 18.2234375,31.4861328 18.1556641,31.9575195 C18.0882812,32.4290039 17.647168,32.7551758 17.1803711,32.6886719 C15.1241211,32.3948242 13.3280273,31.2014648 12.2525391,29.4155273 C12.0067383,29.0076172 12.1383789,28.4777344 12.5459961,28.2323242 C12.6851562,28.1481445 12.8383789,28.1085938 12.9899414,28.1085938 Z" id="Shape" fill="#DEF9FD"></path>
                    <path d="M18.1640625,15.5172852 C12.4507813,15.5172852 7.81923828,20.1488281 7.81923828,25.8621094 C7.81923828,31.5753906 12.4507813,36.2069336 18.1640625,36.2069336 C23.8773438,36.2069336 28.5088867,31.5753906 28.5088867,25.8621094 C28.5088867,20.1488281 23.8773438,15.5172852 18.1640625,15.5172852 Z M18.1640625,34.4827148 C13.4029297,34.4827148 9.54335938,30.6231445 9.54335938,25.8620117 C9.54335938,21.1008789 13.4029297,17.2413086 18.1640625,17.2413086 C22.0401367,17.2413086 25.3182617,19.7996094 26.4032227,23.3195312 C25.6348633,23.493457 25.0606445,24.1790039 25.0606445,24.9999023 L25.0606445,26.7240234 C25.0606445,27.5449219 25.6348633,28.2304688 26.4032227,28.4043945 C25.3182617,31.9244141 22.0401367,34.4827148 18.1640625,34.4827148 Z" id="Shape" fill="url(#linearGradient-26)"></path>
                </g>
                <g id="Group-3-Copy-18" transform="translate(118.000000, 30.000000)">
                    <rect id="Rectangle-2" fill="url(#linearGradient-27)" opacity="0.400000006" x="24.5943925" y="2.95081967" width="2.89345794" height="39.3442623"></rect>
                    <rect id="Rectangle-2" fill="url(#linearGradient-27)" opacity="0.400000006" x="12.1049555" y="23.8005609" width="2.89345794" height="27.9415131"></rect>
                    <rect id="Rectangle-2" fill="url(#linearGradient-28)" opacity="0.400000006" x="36.5894933" y="23.0894968" width="2.89345794" height="28.8185562"></rect>
                    <path d="M27.4878505,31.3252662 L27.4878505,55.6647764 L48.4941625,43.2963435 L48.4941625,18.8149905 L27.818911,30.7518525 L27.4878505,31.3252662 Z M4.50035222,16.0143501 L26.0292251,28.4440507 L47.4396263,16.0827498 L25.9119049,3.40731306 L4.50035222,16.0143501 Z M3.3296473,18.6795208 L3.3296473,43.2963435 L24.5943925,55.8169409 L24.5943925,30.9567272 L3.3296473,18.6795208 Z M25.9119049,0 L51.3876204,15 L51.3876204,45 L25.9119049,60 L0.436189353,45 L0.436189353,15 L25.9119049,0 Z" id="Combined-Shape" fill="url(#linearGradient-27)" fill-rule="nonzero"></path>
                </g>
                <text id="Chain" font-family="SFProDisplay-Regular, SF Pro Display" font-size="14" font-weight="normal" line-spacing="24" fill="#393939">
                    <tspan x="127" y="111">Chain</tspan>
                </text>
                <text id="BLE" font-family="SFProDisplay-Regular, SF Pro Display" font-size="14" font-weight="normal" line-spacing="24" fill="#393939">
                    <tspan x="219" y="111">BLE</tspan>
                </text>
                <text id="ZigBee" font-family="SFProDisplay-Regular, SF Pro Display" font-size="14" font-weight="normal" line-spacing="24" fill="#393939">
                    <tspan x="210" y="222">ZigBee</tspan>
                </text>
                <text id="WiFi" font-family="SFProDisplay-Regular, SF Pro Display" font-size="14" font-weight="normal" line-spacing="24" fill="#393939">
                    <tspan x="131" y="222">WiFi</tspan>
                </text>
                <text id="3G/4G/5G" font-family="SFProDisplay-Regular, SF Pro Display" font-size="12" font-weight="normal" line-spacing="24" fill="#393939">
                    <tspan x="0" y="235">3G/4G/5G</tspan>
                </text>
                <text id="Ethernet" font-family="SFProDisplay-Regular, SF Pro Display" font-size="12" font-weight="normal" line-spacing="24" fill="#393939">
                    <tspan x="6" y="161">Ethernet</tspan>
                </text>
                <text id="NBloT" font-family="SFProDisplay-Regular, SF Pro Display" font-size="12" font-weight="normal" line-spacing="24" fill="#393939">
                    <tspan x="10" y="87">NBloT</tspan>
                </text>
                <rect id="Rectangle-6" stroke="url(#linearGradient-29)" stroke-width="3" x="208.5" y="36.5" width="47" height="47"></rect>
                <path d="M121.819994,143.819994 L128.37629,183.62371 L168.180006,190.180006 L161.62371,150.37629 L121.819994,143.819994 Z" id="Rectangle-6-Copy" stroke="url(#linearGradient-30)" stroke-width="3" transform="translate(145.000000, 167.000000) rotate(-315.000000) translate(-145.000000, -167.000000) "></path>
                <circle id="Oval-2" stroke="url(#linearGradient-31)" stroke-width="3" cx="230.5" cy="169.5" r="27.5"></circle>
            </g>
        </g>
    </g>
</svg>