<?xml version="1.0" encoding="UTF-8"?>
<svg width="338px" height="207px" viewBox="0 0 338 207" version="1.1" xmlns="http://www.w3.org/2000/svg" xmlns:xlink="http://www.w3.org/1999/xlink">
    <!-- Generator: sketchtool 49 (51002) - http://www.bohemiancoding.com/sketch -->
    <title>7F13CD2F-4764-4765-88E1-7AAD828B0EA3</title>
    <desc>Created with sketchtool.</desc>
    <defs>
        <linearGradient x1="50%" y1="-2.48949813e-15%" x2="50%" y2="96.658237%" id="linearGradient-1">
            <stop stop-color="#747474" offset="0%"></stop>
            <stop stop-color="#131313" offset="100%"></stop>
        </linearGradient>
        <linearGradient x1="50%" y1="0%" x2="50%" y2="100%" id="linearGradient-2">
            <stop stop-color="#70E2F2" offset="0%"></stop>
            <stop stop-color="#5298FB" offset="100%"></stop>
        </linearGradient>
        <path d="M17.108857,13.836478 L67.0806167,13.836478 C67.7753145,13.836478 68.3384783,14.3996418 68.3384783,15.0943396 C68.3384783,15.2962883 68.2898542,15.4952682 68.1967168,15.6744572 L53.1592899,44.6052748 C52.9428333,45.0217202 52.51253,45.2830189 52.0431898,45.2830189 L2.07143013,45.2830189 C1.37673233,45.2830189 0.813568492,44.719855 0.813568492,44.0251572 C0.813568492,43.8232086 0.862192589,43.6242287 0.955329977,43.4450397 L15.9927569,14.5142221 C16.2092135,14.0977767 16.6395168,13.836478 17.108857,13.836478 Z" id="path-3"></path>
        <filter x="-2.2%" y="-4.8%" width="104.4%" height="109.5%" filterUnits="objectBoundingBox" id="filter-4">
            <feOffset dx="0" dy="3" in="SourceAlpha" result="shadowOffsetInner1"></feOffset>
            <feComposite in="shadowOffsetInner1" in2="SourceAlpha" operator="arithmetic" k2="-1" k3="1" result="shadowInnerInner1"></feComposite>
            <feColorMatrix values="0 0 0 0 1   0 0 0 0 1   0 0 0 0 1  0 0 0 1 0" type="matrix" in="shadowInnerInner1"></feColorMatrix>
        </filter>
        <linearGradient x1="11.4661734%" y1="15.1461538%" x2="88.5357401%" y2="84.8555769%" id="linearGradient-5">
            <stop stop-color="#E68CBC" offset="0%"></stop>
            <stop stop-color="#8366B3" offset="100%"></stop>
        </linearGradient>
        <linearGradient x1="11.4661734%" y1="15.1461538%" x2="88.5357401%" y2="84.8555769%" id="linearGradient-6">
            <stop stop-color="#8A92B2" offset="0%"></stop>
            <stop stop-color="#62688F" offset="100%"></stop>
        </linearGradient>
    </defs>
    <g id="Page-1" stroke="none" stroke-width="1" fill="none" fill-rule="evenodd">
        <g id="牛顿技术" transform="translate(-498.000000, -1983.000000)">
            <rect id="Rectangle-17-Copy-3" fill="#F8F9FB" x="0" y="1795" width="1920" height="520"></rect>
            <g id="Group-10" transform="translate(498.000000, 1983.000000)">
                <ellipse id="Oval-5" fill="" cx="150.248538" cy="28.3018868" rx="28.2894737" ry="28.3018868"></ellipse>
                <g id="weight-tool" transform="translate(120.701754, 122.012579)" fill="url(#linearGradient-1)" fill-rule="nonzero">
                    <path d="M61.6469668,46.0423834 L51.9532586,16.0667829 C51.5246624,14.7415322 50.2910848,13.8437524 48.8988539,13.8437524 L38.6689965,13.8437524 C39.4982151,12.4734409 39.9846779,10.8734813 39.9846779,9.15793994 C39.9846779,4.14811447 35.9101858,0.0717334748 30.9024566,0.0717334748 C25.8948284,0.0717334748 21.8202353,4.14801344 21.8202353,9.15793994 C21.8202353,10.8733803 22.3066981,12.4733399 23.1360178,13.8437524 L12.9063623,13.8437524 C11.5141314,13.8437524 10.2805538,14.7415322 9.85195754,16.0667829 L0.158249372,46.0423834 C-0.512618897,48.1166932 1.03341788,50.2426309 3.21265413,50.2426309 L58.5924611,50.2426309 C60.7717983,50.2427319 62.3177341,48.1167942 61.6469668,46.0423834 Z M26.1007445,9.15793994 C26.1007445,6.50875199 28.2545316,4.35401985 30.9025576,4.35401985 C33.5505836,4.35401985 35.7043707,6.50875199 35.7043707,9.15793994 C35.7043707,11.4518956 34.0870359,13.3692001 31.9347636,13.8437524 L29.8704526,13.8437524 C27.7180793,13.3693011 26.1007445,11.4518956 26.1007445,9.15793994 Z M26.6571925,39.8102599 L23.8825266,34.4801596 L22.5603819,34.4801596 L22.5603819,39.8102599 L19.34591,39.8102599 L19.34591,26.6705059 L22.5603819,26.6705059 L22.5603819,31.743174 L23.8825266,31.743174 L26.6018507,26.6705059 L30.055464,26.6705059 L26.509042,32.9552676 L26.509042,32.9926498 L30.2573405,39.8102599 L26.6571925,39.8102599 Z M43.5634162,39.8102599 L40.881458,39.8102599 L40.881458,39.4420954 C40.881458,39.1666793 40.899434,38.8914652 40.899434,38.8914652 L40.863583,38.8914652 C40.863583,38.8914652 39.5951643,40.0302089 37.4099697,40.0302089 C34.0476503,40.0302089 30.961838,37.5132732 30.961838,33.2125988 C30.961838,29.3908211 33.8455718,26.4503549 37.8511896,26.4503549 C41.2120952,26.4503549 42.9023439,28.1952969 42.9023439,28.1952969 L41.3587308,30.6030158 C41.3587308,30.6030158 40.0185091,29.3909222 38.1624369,29.3909222 C35.4072618,29.3909222 34.2869936,31.1551615 34.2869936,33.1018666 C34.2869936,35.6024349 36.0130933,37.0898437 38.053268,37.0898437 C39.5953663,37.0898437 40.7155335,36.1351822 40.7155335,36.1351822 L40.7155335,35.1235382 L38.8608751,35.1235382 L38.8608751,32.385138 L43.5634162,32.385138 L43.5634162,39.8102599 Z" id="Shape"></path>
                </g>
                <g id="Rectangle-3">
                    <use fill="black" fill-opacity="1" filter="url(#filter-4)" xlink:href="#path-3"></use>
                    <path stroke="url(#linearGradient-2)" stroke-width="3.77358491" d="M17.4907709,15.7232704 L3.10714519,43.3962264 L51.6612759,43.3962264 L66.0449016,15.7232704 L17.4907709,15.7232704 Z"></path>
                </g>
                <g id="Group-3-Copy-13" transform="translate(1.000000, 117.000000)" fill="url(#linearGradient-5)" fill-rule="nonzero">
                    <path d="M29.0238837,32.672212 L29.0238837,58.3488223 L51.2040377,45.3840078 L51.2040377,19.6890909 L29.1775194,32.4061071 L29.0238837,32.672212 Z M4.80347094,16.7563475 L27.4884389,29.8535199 L50.0440479,16.831033 L27.3598736,3.57160699 L4.80347094,16.7563475 Z M3.51570946,19.5406364 L3.51570946,45.3840078 L25.968738,58.5083238 L25.968738,32.5038985 L3.51570946,19.5406364 Z M27.3598736,0 L54.2591833,15.7232704 L54.2591833,47.1698113 L27.3598736,62.8930818 L0.460563806,47.1698113 L0.460563806,15.7232704 L27.3598736,0 Z" id="Combined-Shape"></path>
                </g>
                <g id="package" transform="translate(268.000000, 67.000000)" fill="url(#linearGradient-6)" fill-rule="nonzero">
                    <path d="M69.5250391,13.7547266 C69.5227148,13.7469336 69.5201172,13.7394141 69.5176563,13.7318945 C69.229043,12.8243555 68.814375,11.9561914 68.2777539,11.1513281 L62.6699609,2.73957031 C61.5263086,1.02416016 59.6126563,0 57.5509375,0 L12.4490625,0 C10.3873437,0 8.47369141,1.02416016 7.33003906,2.73970703 L1.72224609,11.1511914 C1.185625,11.9560547 0.770957031,12.8243555 0.48234375,13.7318945 C0.479882812,13.7394141 0.477421875,13.7469336 0.475097656,13.7544531 C0.162285156,14.7456641 0,15.7834961 0,16.8392383 L0,63.8476562 C0,67.2400586 2.75994141,70 6.15234375,70 L63.8476562,70 C67.2400586,70 70,67.2400586 70,63.8476562 L70,16.8392383 C70,15.7836328 69.8377148,14.7456641 69.5250391,13.7547266 Z M37.0507812,4.1015625 L57.5509375,4.1015625 C58.2382227,4.1015625 58.8761523,4.44294922 59.2574609,5.01470703 L64.1172656,12.3046875 L37.0507812,12.3046875 L37.0507812,4.1015625 Z M10.7425391,5.01484375 C11.1238477,4.44294922 11.7617773,4.1015625 12.4490625,4.1015625 L32.9492188,4.1015625 L32.9492188,12.3046875 L5.88273437,12.3046875 L10.7425391,5.01484375 Z M65.8984375,63.8476562 C65.8984375,64.978457 64.978457,65.8984375 63.8476562,65.8984375 L6.15234375,65.8984375 C5.02154297,65.8984375 4.1015625,64.978457 4.1015625,63.8476562 C4.1015625,13.8747656 4.09363281,16.7398437 4.11701172,16.40625 L65.8828516,16.40625 C65.9062305,16.7371094 65.8984375,13.8244531 65.8984375,63.8476562 Z" id="Shape"></path>
                </g>
                <text id="Math{...}" font-family="SFProDisplay-Regular, SF Pro Display" font-size="14" font-weight="normal" fill="#7B82A5">
                    <tspan x="277.5" y="113">Math{...}</tspan>
                </text>
                <text id="weight" font-family="SFProDisplay-Regular, SF Pro Display" font-size="14" font-weight="normal" line-spacing="24" fill="#393939">
                    <tspan x="132" y="200">weight</tspan>
                </text>
                <text id="colour" font-family="SFProDisplay-Regular, SF Pro Display" font-size="14" font-weight="normal" line-spacing="24" fill="#393939">
                    <tspan x="133" y="88">color</tspan>
                </text>
                <text id="volume" font-family="SFProDisplay-Regular, SF Pro Display" font-size="14" font-weight="normal" line-spacing="24" fill="#393939">
                    <tspan x="6" y="200">volume</tspan>
                </text>
                <text id="acreage" font-family="SFProDisplay-Regular, SF Pro Display" font-size="14" font-weight="normal" line-spacing="24" fill="#393939">
                    <tspan x="5" y="88">acreage</tspan>
                </text>
                <path d="M197,13 L197,191 L209,191 C218.941125,191 227,182.941125 227,173 L227,31 C227,21.0588745 218.941125,13 209,13 L197,13 Z" id="Rectangle-19" stroke="#DADADA" stroke-width="4"></path>
                <rect id="Rectangle-20" fill="#DADADA" x="228" y="100" width="8" height="4"></rect>
            </g>
        </g>
    </g>
</svg>