<?xml version="1.0" encoding="UTF-8"?>
<svg width="298px" height="278px" viewBox="0 0 298 278" version="1.1" xmlns="http://www.w3.org/2000/svg" xmlns:xlink="http://www.w3.org/1999/xlink">
    <!-- Generator: sketchtool 49 (51002) - http://www.bohemiancoding.com/sketch -->
    <title>DCE6F546-818F-43DC-A09F-520FD59DBD5E</title>
    <desc>Created with sketchtool.</desc>
    <defs>
        <linearGradient x1="11.4661734%" y1="15.1461538%" x2="88.5357401%" y2="84.8555769%" id="linearGradient-1">
            <stop stop-color="#E68CBC" offset="0%"></stop>
            <stop stop-color="#8366B3" offset="100%"></stop>
        </linearGradient>
        <linearGradient x1="84.8556683%" y1="11.466082%" x2="15.1462452%" y2="88.5356487%" id="linearGradient-2">
            <stop stop-color="#E68CBC" offset="0%"></stop>
            <stop stop-color="#8366B3" offset="100%"></stop>
        </linearGradient>
    </defs>
    <g id="Page-1" stroke="none" stroke-width="1" fill="none" fill-rule="evenodd">
        <g id="牛顿技术" transform="translate(-1090.000000, -214.000000)">
            <g id="Group-5" transform="translate(1090.000000, 214.000000)">
                <path d="M197.518085,113.756849 L248.057113,82.3917647" id="Path-7" stroke="#B57AB8" stroke-width="2" opacity="0.400000006" stroke-dasharray="4,2"></path>
                <path d="M212,249.162835 L252.022408,224" id="Path-7-Copy-9" stroke="#B57AB8" stroke-width="2" opacity="0.400000006" stroke-dasharray="4,2"></path>
                <path d="M48,54.1628349 L88.0224079,29" id="Path-7-Copy-14" stroke="#B57AB8" stroke-width="2" opacity="0.400000006" stroke-dasharray="4,2"></path>
                <path d="M212,53.0722048 L248.68691,29" id="Path-7" stroke="#B57AB8" stroke-width="2" opacity="0.400000006" stroke-dasharray="4,2" transform="translate(230.343455, 41.036102) scale(-1, 1) translate(-230.343455, -41.036102) "></path>
                <path d="M48,112.731236 L97.2959885,80" id="Path-7-Copy-2" stroke="#B57AB8" stroke-width="2" opacity="0.400000006" stroke-dasharray="4,2" transform="translate(72.647994, 96.365618) scale(-1, 1) translate(-72.647994, -96.365618) "></path>
                <path d="M200.232124,202.162835 L252.022408,170.995863" id="Path-7-Copy" stroke="#B57AB8" stroke-width="2" opacity="0.400000006" stroke-dasharray="4,2" transform="translate(226.127266, 186.579349) scale(1, -1) translate(-226.127266, -186.579349) "></path>
                <path d="M48,251.162835 L88.0224079,226" id="Path-7-Copy-15" stroke="#B57AB8" stroke-width="2" opacity="0.400000006" stroke-dasharray="4,2" transform="translate(68.011204, 238.581417) scale(1, -1) translate(-68.011204, -238.581417) "></path>
                <path d="M272,129.899491 L272,93" id="Path-7-Copy" stroke="#B57AB8" stroke-width="2" opacity="0.400000006" stroke-dasharray="4,2" transform="translate(272.000000, 111.449746) scale(1, -1) translate(-272.000000, -111.449746) "></path>
                <path d="M27.246353,126.244205 L27,93" id="Path-7-Copy-5" stroke="#B57AB8" stroke-width="2" opacity="0.400000006" stroke-dasharray="4,2" transform="translate(27.123177, 109.622102) scale(1, -1) translate(-27.123177, -109.622102) "></path>
                <path d="M272,185.899491 L272,157.052528" id="Path-7-Copy-4" stroke="#B57AB8" stroke-width="2" opacity="0.400000006" stroke-dasharray="4,2" transform="translate(272.000000, 171.476010) scale(1, -1) translate(-272.000000, -171.476010) "></path>
                <path d="M27,185.899491 L27,158.579958" id="Path-7-Copy-6" stroke="#B57AB8" stroke-width="2" opacity="0.400000006" stroke-dasharray="4,2" transform="translate(27.000000, 172.239725) scale(1, -1) translate(-27.000000, -172.239725) "></path>
                <path d="M48,202.162835 L98.3515035,171.215139" id="Path-7-Copy-3" stroke="#B57AB8" stroke-width="2" opacity="0.400000006" stroke-dasharray="4,2" transform="translate(73.175752, 186.688987) scale(-1, -1) translate(-73.175752, -186.688987) "></path>
                <g id="Group-3" transform="translate(95.000000, 81.000000)">
                    <rect id="Rectangle-2" fill="url(#linearGradient-1)" opacity="0.400000006" x="51" y="6" width="6" height="80"></rect>
                    <rect id="Rectangle-2" fill="url(#linearGradient-1)" opacity="0.400000006" x="25.1013611" y="48.3944737" width="6" height="56.8144099"></rect>
                    <rect id="Rectangle-2" fill="url(#linearGradient-2)" opacity="0.400000006" x="75.8735618" y="46.9486435" width="6" height="58.5977309"></rect>
                    <path d="M9.60546307,32.4047005 L54,58.0358984 L98.1265877,32.5594011 L53.7320508,6.92820323 L9.60546307,32.4047005 Z M6.90450118,37.7735027 L6.90450118,88.0358984 L51,113.494447 L51,63.2320508 L6.90450118,37.7735027 Z M100.5596,38.0829038 L57,63.2320508 L57,113.185045 L100.5596,88.0358984 L100.5596,38.0829038 Z M53.7320508,0 L106.5596,30.5 L106.5596,91.5 L53.7320508,122 L0.904501177,91.5 L0.904501177,30.5 L53.7320508,0 Z" id="Combined-Shape" fill="url(#linearGradient-1)" fill-rule="nonzero"></path>
                </g>
                <g id="Group-3-Copy" transform="translate(246.000000, 38.000000)">
                    <rect id="Rectangle-2" fill="url(#linearGradient-1)" opacity="0.400000006" x="24.7850467" y="2.95081967" width="2.91588785" height="39.3442623"></rect>
                    <rect id="Rectangle-2" fill="url(#linearGradient-1)" opacity="0.400000006" x="12.1987923" y="23.8005609" width="2.91588785" height="27.9415131"></rect>
                    <rect id="Rectangle-2" fill="url(#linearGradient-2)" opacity="0.400000006" x="36.8731328" y="23.0894968" width="2.91588785" height="28.8185562"></rect>
                    <path d="M27.7009346,31.1598591 L27.7009346,55.6647764 L48.8700862,43.2963435 L48.8700862,18.7814821 L27.8363477,30.9253167 L27.7009346,31.1598591 Z M4.58749056,15.9838211 L26.2357461,28.4824472 L47.7602956,16.0552427 L26.1127724,3.40731306 L4.58749056,15.9838211 Z M3.35545852,18.6394843 L3.35545852,43.2963435 L24.7850467,55.8169409 L24.7850467,31.0118628 L3.35545852,18.6394843 Z M26.1127724,0 L51.785974,15 L51.785974,45 L26.1127724,60 L0.439570665,45 L0.439570665,15 L26.1127724,0 Z" id="Combined-Shape" fill="url(#linearGradient-1)" fill-rule="nonzero"></path>
                </g>
                <g id="Group-3-Copy-4" transform="translate(0.000000, 38.000000)">
                    <rect id="Rectangle-2" fill="url(#linearGradient-1)" opacity="0.400000006" x="24.7850467" y="2.95081967" width="2.91588785" height="39.3442623"></rect>
                    <rect id="Rectangle-2" fill="url(#linearGradient-1)" opacity="0.400000006" x="12.1987923" y="23.8005609" width="2.91588785" height="27.9415131"></rect>
                    <rect id="Rectangle-2" fill="url(#linearGradient-2)" opacity="0.400000006" x="36.8731328" y="23.0894968" width="2.91588785" height="28.8185562"></rect>
                    <path d="M27.7009346,31.1598591 L27.7009346,55.6647764 L48.8700862,43.2963435 L48.8700862,18.7814821 L27.8363477,30.9253167 L27.7009346,31.1598591 Z M4.58749056,15.9838211 L26.2357461,28.4824472 L47.7602956,16.0552427 L26.1127724,3.40731306 L4.58749056,15.9838211 Z M3.35545852,18.6394843 L3.35545852,43.2963435 L24.7850467,55.8169409 L24.7850467,31.0118628 L3.35545852,18.6394843 Z M26.1127724,0 L51.785974,15 L51.785974,45 L26.1127724,60 L0.439570665,45 L0.439570665,15 L26.1127724,0 Z" id="Combined-Shape" fill="url(#linearGradient-1)" fill-rule="nonzero"></path>
                </g>
                <g id="Group-3-Copy-3" transform="translate(246.000000, 183.000000)">
                    <rect id="Rectangle-2" fill="url(#linearGradient-1)" opacity="0.400000006" x="24.7850467" y="2.95081967" width="2.91588785" height="39.3442623"></rect>
                    <rect id="Rectangle-2" fill="url(#linearGradient-1)" opacity="0.400000006" x="12.1987923" y="23.8005609" width="2.91588785" height="27.9415131"></rect>
                    <rect id="Rectangle-2" fill="url(#linearGradient-2)" opacity="0.400000006" x="36.8731328" y="23.0894968" width="2.91588785" height="28.8185562"></rect>
                    <path d="M27.7009346,31.1598591 L27.7009346,55.6647764 L48.8700862,43.2963435 L48.8700862,18.7814821 L27.8363477,30.9253167 L27.7009346,31.1598591 Z M4.58749056,15.9838211 L26.2357461,28.4824472 L47.7602956,16.0552427 L26.1127724,3.40731306 L4.58749056,15.9838211 Z M3.35545852,18.6394843 L3.35545852,43.2963435 L24.7850467,55.8169409 L24.7850467,31.0118628 L3.35545852,18.6394843 Z M26.1127724,0 L51.785974,15 L51.785974,45 L26.1127724,60 L0.439570665,45 L0.439570665,15 L26.1127724,0 Z" id="Combined-Shape" fill="url(#linearGradient-1)" fill-rule="nonzero"></path>
                </g>
                <g id="Group-3-Copy-5" transform="translate(0.000000, 183.000000)">
                    <rect id="Rectangle-2" fill="url(#linearGradient-1)" opacity="0.400000006" x="24.7850467" y="2.95081967" width="2.91588785" height="39.3442623"></rect>
                    <rect id="Rectangle-2" fill="url(#linearGradient-1)" opacity="0.400000006" x="12.1987923" y="23.8005609" width="2.91588785" height="27.9415131"></rect>
                    <rect id="Rectangle-2" fill="url(#linearGradient-2)" opacity="0.400000006" x="36.8731328" y="23.0894968" width="2.91588785" height="28.8185562"></rect>
                    <path d="M27.7009346,31.1598591 L27.7009346,55.6647764 L48.8700862,43.2963435 L48.8700862,18.7814821 L27.8363477,30.9253167 L27.7009346,31.1598591 Z M4.58749056,15.9838211 L26.2357461,28.4824472 L47.7602956,16.0552427 L26.1127724,3.40731306 L4.58749056,15.9838211 Z M3.35545852,18.6394843 L3.35545852,43.2963435 L24.7850467,55.8169409 L24.7850467,31.0118628 L3.35545852,18.6394843 Z M26.1127724,0 L51.785974,15 L51.785974,45 L26.1127724,60 L0.439570665,45 L0.439570665,15 L26.1127724,0 Z" id="Combined-Shape" fill="url(#linearGradient-1)" fill-rule="nonzero"></path>
                </g>
                <g id="Group-3-Copy-2" transform="translate(179.000000, 0.000000)">
                    <rect id="Rectangle-2" fill="url(#linearGradient-1)" opacity="0.400000006" x="16.682243" y="1.96721311" width="1.96261682" height="26.2295082"></rect>
                    <rect id="Rectangle-2" fill="url(#linearGradient-1)" opacity="0.400000006" x="8.21072561" y="15.8670406" width="1.96261682" height="18.6276754"></rect>
                    <rect id="Rectangle-2" fill="url(#linearGradient-2)" opacity="0.400000006" x="24.8184548" y="15.3929979" width="1.96261682" height="19.2123708"></rect>
                    <path d="M3.13131958,10.6306577 L17.6625982,19.0202953 L32.1070817,10.6807688 L17.5759045,2.27154204 L3.13131958,10.6306577 Z M2.25848169,12.3929592 L2.25848169,28.864229 L16.682243,37.2112939 L16.682243,20.7205216 L2.25848169,12.3929592 Z M32.8933272,12.4930644 L18.6448598,20.7194209 L18.6448598,37.109851 L32.8933272,28.864229 L32.8933272,12.4930644 Z M17.5759045,0 L34.8559441,10 L34.8559441,30 L17.5759045,40 L0.295864871,30 L0.295864871,10 L17.5759045,0 Z" id="Combined-Shape" fill="url(#linearGradient-1)" fill-rule="nonzero"></path>
                </g>
                <g id="Group-3-Copy-9" transform="translate(255.000000, 122.000000)">
                    <rect id="Rectangle-2" fill="url(#linearGradient-1)" opacity="0.400000006" x="16.682243" y="1.96721311" width="1.96261682" height="26.2295082"></rect>
                    <rect id="Rectangle-2" fill="url(#linearGradient-1)" opacity="0.400000006" x="8.21072561" y="15.8670406" width="1.96261682" height="18.6276754"></rect>
                    <rect id="Rectangle-2" fill="url(#linearGradient-2)" opacity="0.400000006" x="24.8184548" y="15.3929979" width="1.96261682" height="19.2123708"></rect>
                    <path d="M3.13131958,10.6306577 L17.6625982,19.0202953 L32.1070817,10.6807688 L17.5759045,2.27154204 L3.13131958,10.6306577 Z M2.25848169,12.3929592 L2.25848169,28.864229 L16.682243,37.2112939 L16.682243,20.7205216 L2.25848169,12.3929592 Z M32.8933272,12.4930644 L18.6448598,20.7194209 L18.6448598,37.109851 L32.8933272,28.864229 L32.8933272,12.4930644 Z M17.5759045,0 L34.8559441,10 L34.8559441,30 L17.5759045,40 L0.295864871,30 L0.295864871,10 L17.5759045,0 Z" id="Combined-Shape" fill="url(#linearGradient-1)" fill-rule="nonzero"></path>
                </g>
                <g id="Group-3-Copy-10" transform="translate(9.000000, 122.000000)">
                    <rect id="Rectangle-2" fill="url(#linearGradient-1)" opacity="0.400000006" x="16.682243" y="1.96721311" width="1.96261682" height="26.2295082"></rect>
                    <rect id="Rectangle-2" fill="url(#linearGradient-1)" opacity="0.400000006" x="8.21072561" y="15.8670406" width="1.96261682" height="18.6276754"></rect>
                    <rect id="Rectangle-2" fill="url(#linearGradient-2)" opacity="0.400000006" x="24.8184548" y="15.3929979" width="1.96261682" height="19.2123708"></rect>
                    <path d="M3.13131958,10.6306577 L17.6625982,19.0202953 L32.1070817,10.6807688 L17.5759045,2.27154204 L3.13131958,10.6306577 Z M2.25848169,12.3929592 L2.25848169,28.864229 L16.682243,37.2112939 L16.682243,20.7205216 L2.25848169,12.3929592 Z M32.8933272,12.4930644 L18.6448598,20.7194209 L18.6448598,37.109851 L32.8933272,28.864229 L32.8933272,12.4930644 Z M17.5759045,0 L34.8559441,10 L34.8559441,30 L17.5759045,40 L0.295864871,30 L0.295864871,10 L17.5759045,0 Z" id="Combined-Shape" fill="url(#linearGradient-1)" fill-rule="nonzero"></path>
                </g>
                <g id="Group-3-Copy-7" transform="translate(179.000000, 238.000000)">
                    <rect id="Rectangle-2" fill="url(#linearGradient-1)" opacity="0.400000006" x="16.682243" y="1.96721311" width="1.96261682" height="26.2295082"></rect>
                    <rect id="Rectangle-2" fill="url(#linearGradient-1)" opacity="0.400000006" x="8.21072561" y="15.8670406" width="1.96261682" height="18.6276754"></rect>
                    <rect id="Rectangle-2" fill="url(#linearGradient-2)" opacity="0.400000006" x="24.8184548" y="15.3929979" width="1.96261682" height="19.2123708"></rect>
                    <path d="M3.13131958,10.6306577 L17.6625982,19.0202953 L32.1070817,10.6807688 L17.5759045,2.27154204 L3.13131958,10.6306577 Z M2.25848169,12.3929592 L2.25848169,28.864229 L16.682243,37.2112939 L16.682243,20.7205216 L2.25848169,12.3929592 Z M32.8933272,12.4930644 L18.6448598,20.7194209 L18.6448598,37.109851 L32.8933272,28.864229 L32.8933272,12.4930644 Z M17.5759045,0 L34.8559441,10 L34.8559441,30 L17.5759045,40 L0.295864871,30 L0.295864871,10 L17.5759045,0 Z" id="Combined-Shape" fill="url(#linearGradient-1)" fill-rule="nonzero"></path>
                </g>
                <g id="Group-3-Copy-6" transform="translate(85.000000, 0.000000)">
                    <rect id="Rectangle-2" fill="url(#linearGradient-1)" opacity="0.400000006" x="16.682243" y="1.96721311" width="1.96261682" height="26.2295082"></rect>
                    <rect id="Rectangle-2" fill="url(#linearGradient-1)" opacity="0.400000006" x="8.21072561" y="15.8670406" width="1.96261682" height="18.6276754"></rect>
                    <rect id="Rectangle-2" fill="url(#linearGradient-2)" opacity="0.400000006" x="24.8184548" y="15.3929979" width="1.96261682" height="19.2123708"></rect>
                    <path d="M3.13131958,10.6306577 L17.6625982,19.0202953 L32.1070817,10.6807688 L17.5759045,2.27154204 L3.13131958,10.6306577 Z M2.25848169,12.3929592 L2.25848169,28.864229 L16.682243,37.2112939 L16.682243,20.7205216 L2.25848169,12.3929592 Z M32.8933272,12.4930644 L18.6448598,20.7194209 L18.6448598,37.109851 L32.8933272,28.864229 L32.8933272,12.4930644 Z M17.5759045,0 L34.8559441,10 L34.8559441,30 L17.5759045,40 L0.295864871,30 L0.295864871,10 L17.5759045,0 Z" id="Combined-Shape" fill="url(#linearGradient-1)" fill-rule="nonzero"></path>
                </g>
                <g id="Group-3-Copy-8" transform="translate(85.000000, 238.000000)">
                    <rect id="Rectangle-2" fill="url(#linearGradient-1)" opacity="0.400000006" x="16.682243" y="1.96721311" width="1.96261682" height="26.2295082"></rect>
                    <rect id="Rectangle-2" fill="url(#linearGradient-1)" opacity="0.400000006" x="8.21072561" y="15.8670406" width="1.96261682" height="18.6276754"></rect>
                    <rect id="Rectangle-2" fill="url(#linearGradient-2)" opacity="0.400000006" x="24.8184548" y="15.3929979" width="1.96261682" height="19.2123708"></rect>
                    <path d="M3.13131958,10.6306577 L17.6625982,19.0202953 L32.1070817,10.6807688 L17.5759045,2.27154204 L3.13131958,10.6306577 Z M2.25848169,12.3929592 L2.25848169,28.864229 L16.682243,37.2112939 L16.682243,20.7205216 L2.25848169,12.3929592 Z M32.8933272,12.4930644 L18.6448598,20.7194209 L18.6448598,37.109851 L32.8933272,28.864229 L32.8933272,12.4930644 Z M17.5759045,0 L34.8559441,10 L34.8559441,30 L17.5759045,40 L0.295864871,30 L0.295864871,10 L17.5759045,0 Z" id="Combined-Shape" fill="url(#linearGradient-1)" fill-rule="nonzero"></path>
                </g>
            </g>
        </g>
    </g>
</svg>