<?xml version="1.0" encoding="UTF-8"?>
<svg width="240px" height="240px" viewBox="0 0 240 240" version="1.1" xmlns="http://www.w3.org/2000/svg" xmlns:xlink="http://www.w3.org/1999/xlink">
    <!-- Generator: sketchtool 49 (51002) - http://www.bohemiancoding.com/sketch -->
    <title>E72414B3-E7A5-4C2C-9E43-9C6CD6995816</title>
    <desc>Created with sketchtool.</desc>
    <defs>
        <polygon id="path-1" points="0.0005 0.0003 236 0.0003 236 108.2583 0.0005 108.2583"></polygon>
    </defs>
    <g id="Page-1" stroke="none" stroke-width="1" fill="none" fill-rule="evenodd">
        <g id="牛顿PC改2" transform="translate(-1320.000000, -2847.000000)">
            <g id="artificial-intelligence-(1)" transform="translate(1320.000000, 2847.000000)">
                <g id="Page-1" transform="translate(0.000000, 4.000000)">
                    <path d="M73.419,185.807 L162.581,185.807 L162.581,104.388 L73.419,104.388 L73.419,185.807 Z M69.677,189.549 L166.322,189.549 L166.322,100.645 L69.677,100.645 L69.677,189.549 Z" id="Fill-1" fill="#666666"></path>
                    <path d="M88.903,170.322 L147.096,170.322 L147.096,119.871 L88.903,119.871 L88.903,170.322 Z M85.161,174.065 L150.839,174.065 L150.839,116.129 L85.161,116.129 L85.161,174.065 Z" id="Fill-2" fill="#666666"></path>
                    <polygon id="Fill-3" fill="#666666" points="131.613 158.581 135.354 158.581 135.354 131.613 131.613 131.613"></polygon>
                    <path d="M104.387,147.097 L116.129,147.097 L116.129,135.355 L104.387,135.355 L104.387,147.097 Z M116.129,158.581 L116.129,150.839 L104.387,150.839 L104.387,158.581 L100.645,158.581 L100.645,131.613 L119.871,131.613 L119.871,158.581 L116.129,158.581 Z" id="Fill-4" fill="#666666"></path>
                    <polygon id="Fill-5" fill="#666666" points="92.903 88.903 96.645 88.903 96.645 69.677 92.903 69.677"></polygon>
                    <polygon id="Fill-6" fill="#666666" points="92.903 57.935 96.645 57.935 96.645 54.193 92.903 54.193"></polygon>
                    <polygon id="Fill-7" fill="#666666" points="108.387 88.903 112.129 88.903 112.129 69.677 108.387 69.677"></polygon>
                    <polygon id="Fill-8" fill="#666666" points="108.387 57.935 112.129 57.935 112.129 54.193 108.387 54.193"></polygon>
                    <polygon id="Fill-9" fill="#666666" points="139.354 88.903 143.096 88.903 143.096 69.677 139.354 69.677"></polygon>
                    <polygon id="Fill-10" fill="#666666" points="139.354 57.935 143.096 57.935 143.096 54.193 139.354 54.193"></polygon>
                    <polygon id="Fill-11" fill="#666666" points="123.871 88.903 127.613 88.903 127.613 69.677 123.871 69.677"></polygon>
                    <polygon id="Fill-12" fill="#666666" points="123.871 57.935 127.613 57.935 127.613 54.193 123.871 54.193"></polygon>
                    <polygon id="Fill-13" fill="#666666" points="38.709 170.193 57.935 170.193 57.935 166.451 38.709 166.451"></polygon>
                    <polygon id="Fill-14" fill="#666666" points="23.226 170.193 26.968 170.193 26.968 166.451 23.226 166.451"></polygon>
                    <polygon id="Fill-15" fill="#666666" points="38.709 154.71 57.935 154.71 57.935 150.968 38.709 150.968"></polygon>
                    <polygon id="Fill-16" fill="#666666" points="23.226 154.71 26.968 154.71 26.968 150.968 23.226 150.968"></polygon>
                    <polygon id="Fill-17" fill="#666666" points="38.709 123.742 57.935 123.742 57.935 120 38.709 120"></polygon>
                    <polygon id="Fill-18" fill="#666666" points="23.226 123.742 26.968 123.742 26.968 120 23.226 120"></polygon>
                    <polygon id="Fill-19" fill="#666666" points="38.709 139.225 57.935 139.225 57.935 135.483 38.709 135.483"></polygon>
                    <polygon id="Fill-20" fill="#666666" points="23.226 139.225 26.968 139.225 26.968 135.483 23.226 135.483"></polygon>
                    <polygon id="Fill-21" fill="#666666" points="139.354 220.517 143.096 220.517 143.096 201.29 139.354 201.29"></polygon>
                    <polygon id="Fill-22" fill="#666666" points="139.354 236 143.096 236 143.096 232.258 139.354 232.258"></polygon>
                    <polygon id="Fill-23" fill="#666666" points="123.871 220.517 127.613 220.517 127.613 201.29 123.871 201.29"></polygon>
                    <polygon id="Fill-24" fill="#666666" points="123.872 236 127.614 236 127.614 232.258 123.872 232.258"></polygon>
                    <polygon id="Fill-25" fill="#666666" points="92.903 220.517 96.645 220.517 96.645 201.29 92.903 201.29"></polygon>
                    <polygon id="Fill-26" fill="#666666" points="92.903 236 96.644 236 96.644 232.258 92.903 232.258"></polygon>
                    <polygon id="Fill-27" fill="#666666" points="108.387 220.517 112.129 220.517 112.129 201.29 108.387 201.29"></polygon>
                    <polygon id="Fill-28" fill="#666666" points="108.387 236 112.129 236 112.129 232.258 108.387 232.258"></polygon>
                    <polygon id="Fill-29" fill="#666666" points="178.064 123.742 197.29 123.742 197.29 120 178.064 120"></polygon>
                    <polygon id="Fill-30" fill="#666666" points="209.032 123.742 212.774 123.742 212.774 120 209.032 120"></polygon>
                    <polygon id="Fill-31" fill="#666666" points="178.064 139.225 197.29 139.225 197.29 135.483 178.064 135.483"></polygon>
                    <polygon id="Fill-32" fill="#666666" points="209.032 139.225 212.774 139.225 212.774 135.483 209.032 135.483"></polygon>
                    <polygon id="Fill-33" fill="#666666" points="178.064 170.193 197.29 170.193 197.29 166.451 178.064 166.451"></polygon>
                    <polygon id="Fill-34" fill="#666666" points="209.032 170.193 212.774 170.193 212.774 166.451 209.032 166.451"></polygon>
                    <polygon id="Fill-35" fill="#666666" points="178.064 154.71 197.29 154.71 197.29 150.968 178.064 150.968"></polygon>
                    <polygon id="Fill-36" fill="#666666" points="209.032 154.71 212.774 154.71 212.774 150.968 209.032 150.968"></polygon>
                    <g id="Group-39">
                        <mask id="mask-2" fill="white">
                            <use xlink:href="#path-1"></use>
                        </mask>
                        <g id="Clip-38"></g>
                        <path d="M178.0645,108.2583 L178.0645,104.5163 L207.0325,104.5163 C221.1775,104.5163 232.2575,94.2853 232.2575,81.2253 C232.2575,68.3833 221.8095,57.9353 208.9675,57.9353 C203.2375,57.9353 197.8525,59.9743 193.6025,63.7163 L190.8965,61.1183 C192.5385,59.6453 194.3595,58.3743 196.3305,57.3283 L197.4155,56.7523 L197.3925,55.5243 C197.1015,39.7783 184.0605,26.9673 168.3225,26.9673 C160.6445,26.9673 153.2985,30.0073 147.8715,35.3683 L145.0605,32.8873 C146.7935,31.1623 148.7635,29.6083 150.9355,28.2533 L152.4025,27.3383 L151.7095,25.7553 C145.8615,12.3823 132.6285,3.7413 118.0005,3.7413 C103.3805,3.7413 90.1515,12.3743 84.2985,25.7343 L83.6055,27.3163 L85.0695,28.2323 C86.0455,28.8433 86.9735,29.4873 87.8425,30.1563 L85.3695,32.9633 C80.3075,29.0833 74.0995,26.9673 67.6775,26.9673 C51.9405,26.9673 38.8985,39.7783 38.6045,55.5243 L38.5815,56.7543 L39.6695,57.3293 C41.6375,58.3703 43.4575,59.6393 45.1015,61.1163 L42.3945,63.7153 C38.1475,59.9743 32.7645,57.9353 27.0325,57.9353 C14.1895,57.9353 3.7415,68.3833 3.7415,81.2253 C3.7415,94.2853 14.8225,104.5163 28.9675,104.5163 L57.9355,104.5163 L57.9355,108.2583 L28.9675,108.2583 C12.7245,108.2583 0.0005,96.3843 0.0005,81.2253 C0.0005,66.3203 12.1265,54.1933 27.0325,54.1933 C28.8835,54.1933 30.7575,54.3853 32.6035,54.7643 L34.7895,55.2133 L34.9965,52.9903 C36.5525,36.3003 50.9075,23.2253 67.6775,23.2253 C71.3185,23.2253 74.9555,23.8513 78.4875,25.0843 L80.2255,25.6913 L80.9745,24.0093 C87.4685,9.4243 102.0015,0.0003 118.0005,0.0003 C134.0005,0.0003 148.5335,9.4243 155.0255,24.0093 L155.7735,25.6913 L157.5115,25.0843 C161.0455,23.8513 164.6835,23.2253 168.3225,23.2253 C185.0915,23.2253 199.4475,36.3003 201.0035,52.9903 L201.2105,55.2133 L203.3975,54.7643 C205.2435,54.3853 207.1175,54.1933 208.9675,54.1933 C223.8735,54.1933 236.0005,66.3203 236.0005,81.2253 C236.0005,96.3843 223.2755,108.2583 207.0325,108.2583 L178.0645,108.2583 Z" id="Fill-37" fill="#666666" mask="url(#mask-2)"></path>
                    </g>
                </g>
            </g>
        </g>
    </g>
</svg>