<?xml version="1.0" encoding="UTF-8"?>
<svg width="68px" height="68px" viewBox="0 0 68 68" version="1.1" xmlns="http://www.w3.org/2000/svg" xmlns:xlink="http://www.w3.org/1999/xlink">
    <!-- Generator: sketchtool 49 (51002) - http://www.bohemiancoding.com/sketch -->
    <title>E3C030FF-B4D6-486E-BD8C-1F4CAF62BF2C</title>
    <desc>Created with sketchtool.</desc>
    <defs></defs>
    <g id="Page-1" stroke="none" stroke-width="1" fill="none" fill-rule="evenodd">
        <g id="牛顿PC改2" transform="translate(-576.000000, -1005.000000)" fill="#666666">
            <g id="Group-15" transform="translate(555.000000, 984.000000)">
                <g id="Page-1" transform="translate(21.000000, 21.000000)">
                    <path d="M34,2.37487937 C33.5128768,2.37487937 32.8453792,2.37487937 32.3188812,2.55037969 L32.0623821,2.63587985 L32.0623821,2.90625534 C32.0623821,3.99450734 32.0623821,5.12025941 32.2225065,6.24038647 L32.2963813,6.75526242 L32.7613796,6.52276199 C34.9389965,5.43413499 37.1578634,4.48313324 39.3039805,3.56325655 L40.4488513,3.07238065 L39.2233558,2.84963024 C37.4908622,2.53462966 35.7336186,2.37487937 34,2.37487937 Z M44.3713369,4.26263284 C40.3536016,5.34413482 36.4303661,7.04063794 32.7111297,9.3045171 L32.4977555,9.43426734 L32.5352554,9.6813928 C33.9092503,18.6870344 37.8302359,27.0739248 43.8748387,33.9353124 L44.1973375,34.3016881 L44.4680865,33.8955623 C46.0487057,31.5244329 47.1673266,28.9676782 48.2491976,26.4949237 L48.3620722,26.2369232 L48.146073,26.0554229 C47.3503259,25.3920467 46.8748277,24.2734196 46.8748277,23.0625424 C46.8748277,21.0461637 48.2949474,19.3335355 50.32819,18.8977847 L50.5693141,18.8460346 L50.6173139,18.6045342 C51.2533116,15.4267784 51.5623104,12.2850226 51.5623104,9.00001654 L51.5623104,7.70963917 L51.400686,7.59788897 C49.4731931,6.26326151 47.1170768,5.1123844 44.5873361,4.26900785 L44.4800865,4.23338278 L44.3713369,4.26263284 Z M29.4103919,2.84813024 C15.2508189,5.07525933 4.26298433,16.5191554 2.68986511,30.6773064 L2.66886519,30.8655567 L2.80836468,30.994182 C5.21135584,33.2126861 7.20184852,34.813939 9.26059095,36.1868165 L9.69708935,36.4778171 L9.83133886,35.9708161 C11.1888339,30.8426817 13.4827004,25.9942978 16.6488138,21.5614146 L16.7991882,21.3510392 L16.6559388,21.1354139 C16.1463156,20.3707874 15.6250676,19.4452857 15.6250676,18.3750338 C15.6250676,15.9161543 17.4790607,14.0625259 19.9375517,14.0625259 C20.7550487,14.0625259 21.4382962,14.2440262 22.0881688,14.6336519 L22.3304179,14.7791522 L22.5370421,14.5864018 C24.8582836,12.4203978 27.3681494,10.3807691 29.9976397,8.52489067 L30.1742641,8.40001544 L30.1187643,7.79288933 C29.9773898,6.24788649 29.8438903,4.7887588 29.8438903,3.21863092 L29.8438903,2.78025511 L29.4103919,2.84813024 Z M50.3758148,27.5974257 C48.9125702,30.8906818 47.5310753,33.5055616 46.0288308,35.8275659 L45.8642064,36.0818163 L46.0783306,36.2963167 C49.5823177,39.7999482 53.7223025,42.7962037 58.0509116,44.9603326 L58.1716611,45.0207078 L58.3029107,44.9903327 C60.3485281,44.5182068 62.2647711,43.8792057 63.9987647,43.0913292 L64.1577641,43.0189541 L64.204639,42.8502038 C65.0671358,39.7466981 65.4687593,36.9345679 65.4687593,33.9998125 C65.4687593,24.7781705 61.4345241,16.0177794 54.400675,9.96564332 L53.7811773,9.43239234 L53.7811773,10.2498938 C53.7811773,13.1658992 53.4774284,15.9502793 52.8526807,18.7624095 L52.7889309,19.04816 L53.051055,19.1790353 C54.5615494,19.9342866 55.499796,21.4222894 55.499796,23.0625424 C55.499796,25.5210469 53.6458028,27.3750503 51.1873118,27.3750503 L50.4748144,27.3750503 L50.3758148,27.5974257 Z M18.5331819,22.851792 C15.4735681,27.3611753 13.1320767,32.4795597 11.7625818,37.6538192 L11.691332,37.9226947 L11.9279561,38.068945 C17.0369374,41.2245758 22.9604156,43.6579553 29.5337664,45.3008333 L29.8708902,45.3852084 L29.9807648,45.0559578 C30.5616376,43.3133296 32.1392568,42.1875776 34,42.1875776 C35.0154963,42.1875776 35.8588682,42.4673281 36.5781155,43.0429541 L36.8402396,43.2522045 L37.0776137,43.0152041 C38.7058577,41.3865761 40.8208499,39.181947 42.7400929,36.5651922 L42.9212172,36.3180668 L42.714968,36.0911913 C36.3557413,29.0963035 32.1190069,20.6235379 30.462263,11.5886463 L30.3516384,10.9845202 L29.8648902,11.3591459 C27.5102739,13.1703992 25.7159055,14.7221521 24.0471616,16.3909051 L23.8971621,16.5409054 L23.948537,16.7467808 C24.1037864,17.3685319 24.2500358,17.953158 24.2500358,18.5310341 C24.2500358,20.9895386 22.3960427,22.843542 19.9375517,22.843542 C19.7211775,22.843542 19.5385532,22.8026669 19.3615538,22.7629168 C19.1965544,22.7257918 19.0259301,22.6875417 18.8436807,22.6875417 L18.6449315,22.6875417 L18.5331819,22.851792 Z M44.331962,38.4529457 C42.0935952,41.2515758 40.1691023,43.3737047 38.2761093,45.131333 L38.070235,45.3225833 L38.1954846,45.5738338 C38.3124841,45.8074592 38.3124841,46.0557097 38.3124841,46.3437102 L38.3124841,46.7187109 L38.6874828,46.7187109 C39.4592299,46.7187109 40.248977,46.758086 41.0124742,46.796336 C41.7849714,46.8349611 42.5844684,46.8750862 43.3749655,46.8750862 C46.9760773,46.8750862 50.4691895,46.5574606 53.7575524,45.9308344 L54.7554237,45.7407091 L53.8734269,45.2367082 C50.861438,43.515455 47.9206988,41.2842009 44.88246,38.4146956 L44.5862111,38.1349451 L44.331962,38.4529457 Z M2.37524127,34.6350637 C2.52636571,40.237199 4.12160985,45.6087088 7.11597384,50.599218 L7.81272128,51.7602201 L7.81272128,49.6249662 C7.81272128,46.5034605 8.15809501,43.1487043 8.90021728,39.0668218 L8.94596711,38.8148214 L8.72771791,38.6805711 C6.7192253,37.4445688 4.82360727,35.8646909 2.99023901,34.3369381 L2.35274135,33.8055621 L2.37524127,34.6350637 Z M11.1340841,40.7937 C10.5059614,43.6189552 10.1875875,46.5904606 10.1875875,49.6249662 C10.1875875,51.5168447 10.347337,53.2733479 10.5014614,54.9713511 L10.5138363,55.1067263 L10.609836,55.2027265 C10.6424609,55.2349765 10.6630858,55.2691016 10.6848357,55.3017267 C10.7665854,55.4243519 10.87871,55.5931022 11.1757089,55.7416025 L11.2840835,55.7959776 L11.4040831,55.7764775 C18.2811828,54.6563505 24.5339098,52.2717211 29.9871398,48.6882145 L30.3722633,48.435464 C30.3722633,48.435464 29.9998897,48.0627134 29.9998897,48.0623383 L29.9998897,47.7608378 L29.7051408,47.6963377 C23.5694133,46.3493352 17.5079356,43.9452058 11.689082,40.5506995 L11.2454587,40.2923241 L11.1340841,40.7937 Z M31.6022588,50.2515924 C26.2510285,53.871849 20.3054253,56.3232285 13.9296988,57.5378558 L13.1474517,57.687106 L13.7605744,58.195232 C19.6270528,63.0556159 26.6256521,65.6251206 34,65.6251206 C45.426208,65.6251206 55.9692942,59.4443593 61.5151488,49.495216 L61.745398,49.0815902 L61.2901497,48.95184 C60.5911522,48.7519646 59.8640299,48.406214 59.1609075,48.0709634 C58.7919089,47.895088 58.4229102,47.7195877 58.0539116,47.5617124 L57.940662,47.5129623 L57.8210374,47.5410874 C52.9618053,48.6747145 48.1014482,49.2499655 43.3749655,49.2499655 C41.5112224,49.2499655 39.6148544,49.0917152 37.7811111,48.938715 L37.5902368,48.9225899 L37.4653623,49.0684652 C36.4734909,50.2257173 35.3076202,50.8125934 34,50.8125934 C33.184378,50.8125934 32.5240054,50.6273431 32.0376322,50.2624674 L31.823508,50.1019671 L31.6022588,50.2515924 Z M34,68 C24.8807835,68 16.332315,64.4734935 9.9292135,58.0707317 C3.52611204,51.667595 0,43.1190793 0,33.9998125 C0,24.8805457 3.52611204,16.33203 9.9292135,9.92926825 C16.332315,3.52613148 24.8807835,0 34,0 C43.1192165,0 51.667685,3.52613148 58.0704115,9.92926825 C64.473513,16.33203 68,24.8805457 68,33.9998125 C68,43.1190793 64.473513,51.667595 58.0704115,58.0707317 C51.667685,64.4734935 43.1192165,68 34,68 Z" id="Fill-1"></path>
                </g>
            </g>
        </g>
    </g>
</svg>