<?xml version="1.0" encoding="UTF-8"?>
<svg width="68px" height="69px" viewBox="0 0 68 69" version="1.1" xmlns="http://www.w3.org/2000/svg" xmlns:xlink="http://www.w3.org/1999/xlink">
    <!-- Generator: sketchtool 49 (51002) - http://www.bohemiancoding.com/sketch -->
    <title>1AA31F55-C0BD-41BE-982A-49A71E5D0577</title>
    <desc>Created with sketchtool.</desc>
    <defs></defs>
    <g id="Page-1" stroke="none" stroke-width="1" fill="none" fill-rule="evenodd">
        <g id="牛顿H5-Copy" transform="translate(-153.000000, -1402.000000)" fill="#666666" fill-rule="nonzero">
            <g id="money-bag" transform="translate(154.000000, 1402.000000)">
                <circle id="Oval" cx="10.7044336" cy="54.807832" r="1.34765625"></circle>
                <circle id="Oval" cx="62.315625" cy="38.7370313" r="1.34765625"></circle>
                <path d="M46.7160996,28.6166719 L45.9348633,28.6166719 L45.4280098,28.6166719 L44.6467734,28.6166719 C43.9926211,28.6166719 43.4605664,28.0846172 43.4605664,27.4304648 L43.4605664,26.226873 C43.4607012,25.5727207 43.9927559,25.040666 44.6467734,25.040666 L46.9394062,25.040666 C47.470248,25.040666 47.9023066,25.4724551 47.9023066,26.0034316 C47.9023066,26.7476074 48.5057871,27.3510879 49.2499629,27.3510879 C49.9941387,27.3510879 50.5976191,26.7476074 50.5976191,26.0034316 C50.5976191,24.016582 49.004959,22.3956211 47.0291602,22.3476445 L47.0291602,21.1908164 C47.0291602,20.4466406 46.4256797,19.8431602 45.6815039,19.8431602 C44.9373281,19.8431602 44.3338477,20.4466406 44.3338477,21.1908164 L44.3338477,22.3590996 C42.3395859,22.5192012 40.7653887,24.1921816 40.7653887,26.226873 L40.7653887,27.4304648 C40.7653887,29.5706777 42.5066953,31.3119844 44.6469082,31.3119844 L45.4281445,31.3119844 L45.934998,31.3119844 L46.7162344,31.3119844 C47.3703867,31.3119844 47.9024414,31.8440391 47.9024414,32.4980566 L47.9024414,33.7017832 C47.9024414,34.3558008 47.3703867,34.8878555 46.7162344,34.8878555 L44.4236016,34.8878555 C43.8927598,34.8878555 43.4607012,34.4560664 43.4607012,33.9250898 C43.4607012,33.1809141 42.8572207,32.5774336 42.1130449,32.5774336 C41.3688691,32.5774336 40.7653887,33.1809141 40.7653887,33.9250898 C40.7653887,35.9120742 42.3581836,37.5329004 44.3338477,37.580877 L44.3338477,38.7377051 C44.3338477,39.4818809 44.9373281,40.0853613 45.6815039,40.0853613 C46.4256797,40.0853613 47.0291602,39.4818809 47.0291602,38.7377051 L47.0291602,37.5694219 C49.0234219,37.4093203 50.5976191,35.7364746 50.5976191,33.7017832 L50.5976191,32.4980566 C50.5976191,30.3578438 48.8563125,28.6166719 46.7160996,28.6166719 Z" id="Shape"></path>
                <path d="M66.2910762,45.6867598 C65.7365156,44.4308789 64.726043,43.465957 63.4459043,42.9700195 C62.1657656,42.474082 60.7689199,42.5061563 59.5130391,43.0609863 C59.5063008,43.0638164 59.4995625,43.066916 59.4930937,43.0698809 L51.0043418,46.9845527 C50.3283574,47.2962656 50.0332207,48.0969082 50.3447988,48.7727578 C50.6565117,49.4487422 51.4572891,49.7437441 52.1330039,49.4323008 L60.6108398,45.5226152 C61.2058301,45.2629219 61.8664512,45.249041 62.4723574,45.4833984 C63.0812285,45.719373 63.561668,46.1781152 63.8254043,46.7755313 C64.0892754,47.3729473 64.1045039,48.0370723 63.8686641,48.6459434 C63.6326895,49.2549492 63.1739473,49.7353887 62.5765313,49.999125 L45.2052422,57.6691758 C42.4659961,58.8786973 39.3568184,58.8083496 36.6744434,57.4757871 L30.3155273,54.3167461 C26.9143125,52.6269199 22.9710703,52.5373008 19.4969473,54.0716074 L19.4160879,54.1071855 L14.7029297,43.4324004 L21.2563125,40.5389824 C24.3881309,39.1561523 27.8826035,39.0448359 31.0958203,40.224709 L43.8830566,44.9206172 C45.0251953,45.3400078 45.6339316,46.6178555 45.2400117,47.7688887 C44.8386797,48.9418887 43.5566543,49.5729961 42.3823066,49.1758418 L32.4938789,45.8312285 C31.7886504,45.5926934 31.0239902,45.9709805 30.7854551,46.6760742 C30.5469199,47.381168 30.925207,48.1459629 31.6303008,48.384498 L41.5187285,51.7291113 C42.0416191,51.9060586 42.5740781,51.9900176 43.0983164,51.9900176 C45.1579395,51.9900176 47.0881875,50.6935723 47.7903164,48.6413613 C48.6545684,46.1150449 47.318502,43.3109766 44.8121309,42.3906621 L32.0248945,37.6947539 C31.1648203,37.3788633 30.2880352,37.1401934 29.4031641,36.977666 L29.4031641,29.5282266 C29.4031641,22.1829609 35.3790762,16.2070488 42.7243418,16.2070488 L47.6465215,16.2070488 C54.9919219,16.2070488 60.967834,22.1829609 60.967834,29.5282266 L60.967834,33.0403535 C60.967834,33.7845293 61.5713145,34.3880098 62.3154902,34.3880098 C63.059666,34.3880098 63.6631465,33.7845293 63.6631465,33.0403535 L63.6631465,29.5282266 C63.6631465,21.7494199 58.0885664,15.249 50.7245684,13.8097031 L50.7245684,9.7501582 L54.1296914,3.92531836 C54.3222715,3.59608594 54.3662051,3.20054883 54.2505762,2.83708594 C54.1349473,2.47362305 53.8709414,2.17606055 53.5236504,2.01825 L49.3472637,0.12075 C49.0274648,-0.0245273438 48.6637324,-0.0392167969 48.3334219,0.0796464844 L45.2344863,1.1949668 L42.4858066,0.0962226562 C42.1697813,-0.0299179688 41.8179082,-0.0319394531 41.5004004,0.0902929687 L37.1302207,1.7763457 C36.766623,1.91663672 36.4815938,2.2075957 36.3484453,2.57402344 C36.2155664,2.94045117 36.2476406,3.34636523 36.4367168,3.68732227 L39.7898203,9.73385156 L39.7898203,13.7819414 C32.3549355,15.1643672 26.7078516,21.6986133 26.7078516,29.527957 L26.7078516,36.7190508 C24.4815234,36.6980273 22.2576211,37.150166 20.1676758,38.0729063 L13.5655078,40.9878867 C13.1873555,40.4220059 12.6480234,39.9845566 12.0002051,39.733623 C11.1684316,39.4112637 10.2607852,39.4322871 9.44801367,39.791168 L0.918697266,43.528623 C0.428554688,43.7434395 0.111990234,44.2277871 0.111990234,44.7629414 L0.111990234,67.6523438 C0.111990234,68.1203848 0.354837891,68.5548691 0.753474609,68.8002773 C0.969503906,68.9330215 1.21423828,69 1.45964648,69 C1.66745508,69 1.87580273,68.9520234 2.06730469,68.8552617 L18.6263613,60.4902246 C19.4249824,60.126627 20.0383008,59.4770566 20.3558086,58.6574121 C20.6152324,57.9877617 20.6521582,57.2690566 20.468877,56.5884902 L20.5854492,56.5370098 C23.3248301,55.3272188 26.4344121,55.3977012 29.116248,56.7303984 L35.4751641,59.8895742 C38.8765137,61.5789961 42.8196211,61.6683457 46.2937441,60.1345781 L63.6650332,52.4645273 C64.9209141,51.9101016 65.8858359,50.8996289 66.3817734,49.6194902 C66.8777109,48.3393516 66.845502,46.9426406 66.2910762,45.6867598 Z M48.0292559,13.5114668 L47.6465215,13.5114668 L42.7243418,13.5114668 L42.4851328,13.5114668 L42.4851328,10.7328691 L48.0292559,10.7328691 L48.0292559,13.5114668 Z M39.5444121,3.73354687 L41.9767969,2.79544336 L44.7091699,3.88771875 C45.0153574,4.01008594 45.3557754,4.01615039 45.6658711,3.90429492 L48.7309805,2.80096875 L51.049084,3.85416211 L48.603627,8.03728711 L41.9311113,8.03728711 L39.5444121,3.73354687 Z M17.5017422,58.0405898 C17.4804492,58.0500234 17.459291,58.0601309 17.4384023,58.0706426 L2.80716797,65.4617285 L2.80730273,60.0004863 L6.59596875,58.1400469 C7.26413672,57.8118926 7.53973242,57.004377 7.21171289,56.3363437 C6.88355859,55.6681758 6.0763125,55.3923105 5.40800977,55.7205996 L2.80716797,56.9976387 L2.80716797,45.6437695 L10.5331465,42.2581875 C10.7454023,42.1646602 10.9334004,42.21075 11.0265234,42.2468672 C11.119377,42.2829844 11.2894512,42.3750293 11.383248,42.5875547 L11.6921309,43.2869883 C11.6922656,43.2872578 11.6922656,43.2875273 11.6924004,43.2877969 C11.6925352,43.2880664 11.6926699,43.2883359 11.6928047,43.2886055 L17.8308398,57.1902187 C17.9746348,57.515543 17.8270664,57.8969297 17.5017422,58.0405898 Z" id="Shape"></path>
            </g>
        </g>
    </g>
</svg>