<?xml version="1.0" encoding="UTF-8"?>
<svg width="69px" height="69px" viewBox="0 0 69 69" version="1.1" xmlns="http://www.w3.org/2000/svg" xmlns:xlink="http://www.w3.org/1999/xlink">
    <!-- Generator: sketchtool 49 (51002) - http://www.bohemiancoding.com/sketch -->
    <title>2D622FD8-7892-4147-BB82-079716A18C22</title>
    <desc>Created with sketchtool.</desc>
    <defs></defs>
    <g id="Page-1" stroke="none" stroke-width="1" fill="none" fill-rule="evenodd">
        <g id="牛顿H5-Copy" transform="translate(-153.000000, -1669.000000)" fill="#666666" fill-rule="nonzero">
            <g id="conveyor" transform="translate(153.000000, 1669.000000)">
                <path d="M52.0282258,34.7971452 L55.7464355,31.0778226 L47.8770968,23.2084839 L44.1577742,26.9266935 C42.860129,26.2099839 41.4868065,25.6501935 40.0634032,25.2395323 L40.0634032,20.0801129 C43.6580806,18.1458871 45.6279194,14.9696613 45.6279194,11.0689355 C45.6279194,6.36914516 42.6464516,2.15680645 38.2093065,0.585387097 L36.7258065,0.0600967742 L36.7258065,9.15362903 L34.5,9.89593548 L32.2741935,9.15362903 L32.2741935,0.0600967742 L30.7895806,0.585387097 C26.3524355,2.15680645 23.3709677,6.36914516 23.3709677,11.0689355 C23.3709677,14.9696613 25.3408065,18.1458871 28.9354839,20.0801129 L28.9354839,25.2395323 C27.5120806,25.6513065 26.1387581,26.2099839 24.8411129,26.9266935 L21.1217903,23.2084839 L13.2524516,31.0778226 L16.9706613,34.7971452 C16.2528387,36.0959032 15.6841452,37.467 15.2734839,38.8915161 L10.016129,38.8915161 L10.016129,50.0205484 L15.2734839,50.0205484 C15.6852581,51.4450645 16.2528387,52.8161613 16.9706613,54.1149194 L13.2524516,57.8342419 L21.1217903,65.7035806 L24.8411129,61.985371 C26.139871,62.7031935 27.5109677,63.2718871 28.9354839,63.6825484 L28.9354839,68.9399032 L40.0645161,68.9399032 L40.0645161,63.6825484 C41.4890323,63.2707742 42.860129,62.7031935 44.1588871,61.985371 L47.8782097,65.7035806 L55.7475484,57.8342419 L52.0293387,54.1149194 C52.7471613,52.8161613 53.3158548,51.4450645 53.7265161,50.0205484 L58.983871,50.0205484 L58.983871,38.8915161 L53.7265161,38.8915161 C53.3147419,37.467 52.7471613,36.0959032 52.0282258,34.7971452 Z M25.5967742,11.0689355 C25.5967742,7.86266129 27.3340161,4.93906452 30.0483871,3.36875806 L30.0483871,10.7584355 L34.5,12.2419355 L38.9516129,10.7584355 L38.9516129,3.36875806 C41.6659839,4.93906452 43.4032258,7.86266129 43.4032258,11.0689355 C43.4032258,14.3330806 41.699371,16.8649355 38.4752903,18.3907258 L37.8387097,18.6923226 L37.8387097,36.6657097 L40.0645161,36.6657097 L40.0645161,34.8116129 C43.4911452,36.777 45.6290323,40.4039516 45.6290323,44.4560323 C45.6290323,48.564871 43.3854194,52.1517581 40.0645161,54.0793065 L40.0645161,38.8915161 L37.8387097,38.8915161 L37.8387097,55.0720161 C36.7836774,55.4047742 35.6629839,55.5850645 34.5,55.5850645 C33.3370161,55.5850645 32.2163226,55.4047742 31.1612903,55.0720161 L31.1612903,18.6923226 L30.5247097,18.3907258 C27.300629,16.8649355 25.5967742,14.3330806 25.5967742,11.0689355 Z M56.7580645,47.7947419 L51.9948387,47.7947419 L51.7889516,48.6461129 C51.3560323,50.4367742 50.6493387,52.1428548 49.6866774,53.7153871 L49.2292742,54.4632581 L52.6002581,57.833129 L47.8782097,62.5551774 L44.5083387,59.1841935 L43.7604677,59.6415968 C42.1868226,60.6042581 40.4818548,61.3109516 38.6911935,61.743871 L37.8387097,61.950871 L37.8387097,66.7140968 L31.1612903,66.7140968 L31.1612903,61.950871 L30.3099194,61.7449839 C28.5192581,61.3120645 26.8131774,60.605371 25.2406452,59.6427097 L24.4927742,59.1853065 L21.1229032,62.5562903 L16.4008548,57.8342419 L19.7718387,54.464371 L19.3144355,53.7165 C18.3517742,52.1428548 17.6450806,50.4378871 17.2121613,48.6472258 L17.0051613,47.7947419 L12.2419355,47.7947419 L12.2419355,41.1173226 L17.0051613,41.1173226 L17.2110484,40.2659516 C17.6439677,38.4752903 18.3506613,36.7692097 19.3133226,35.1966774 L19.7707258,34.4488065 L16.3997419,31.0789355 L21.1217903,26.3568871 L24.4916613,29.727871 L25.2395323,29.2704677 C26.4047419,28.5570968 27.6434032,27.9861774 28.934371,27.5621613 L28.934371,32.3209355 C24.1789355,34.4944355 21.1440484,39.1730806 21.1440484,44.4571452 C21.1440484,51.8212258 27.1348065,57.8119839 34.4988871,57.8119839 C41.8629677,57.8119839 47.8537258,51.8212258 47.8537258,44.4571452 C47.8537258,39.1719677 44.8188387,34.4933226 40.0634032,32.3209355 L40.0634032,27.5621613 C41.354371,27.9872903 42.5930323,28.5582097 43.7582419,29.2704677 L44.5061129,29.727871 L47.8759839,26.3568871 L52.5980323,31.0789355 L49.2270484,34.4488065 L49.6844516,35.1966774 C50.6471129,36.7703226 51.3538065,38.4752903 51.7867258,40.2659516 L51.9948387,41.1173226 L56.7580645,41.1173226 L56.7580645,47.7947419 Z M28.9354839,34.8127258 L28.9354839,54.0793065 C25.6145806,52.1517581 23.3709677,48.564871 23.3709677,44.4560323 C23.3709677,40.4050645 25.5088548,36.7781129 28.9354839,34.8127258 Z" id="Shape"></path>
                <path d="M4.4516129,54.6769355 L4.4516129,14.4076452 C4.4516129,13.7944355 4.95130645,13.2947419 5.56451613,13.2947419 L14.6725161,13.2947419 C15.1332581,14.5868226 16.3574516,15.5205484 17.8064516,15.5205484 C19.6471935,15.5205484 21.1451613,14.0225806 21.1451613,12.1818387 C21.1451613,10.3410968 19.6471935,8.84312903 17.8064516,8.84312903 C16.3574516,8.84312903 15.1332581,9.77685484 14.6725161,11.0689355 L5.56451613,11.0689355 C3.72377419,11.0689355 2.22580645,12.5669032 2.22580645,14.4076452 L2.22580645,54.6769355 C0.933725806,55.1376774 0,56.361871 0,57.810871 C0,59.6516129 1.49796774,61.1495806 3.33870968,61.1495806 C5.17945161,61.1495806 6.67741935,59.6516129 6.67741935,57.810871 C6.67741935,56.361871 5.74369355,55.1376774 4.4516129,54.6769355 Z M17.8064516,11.0689355 C18.4196613,11.0689355 18.9193548,11.568629 18.9193548,12.1818387 C18.9193548,12.7950484 18.4196613,13.2947419 17.8064516,13.2947419 C17.1932419,13.2947419 16.6935484,12.7950484 16.6935484,12.1818387 C16.6935484,11.568629 17.1932419,11.0689355 17.8064516,11.0689355 Z M3.33870968,58.9237742 C2.7255,58.9237742 2.22580645,58.4240806 2.22580645,57.810871 C2.22580645,57.1976613 2.7255,56.6979677 3.33870968,56.6979677 C3.95191935,56.6979677 4.4516129,57.1976613 4.4516129,57.810871 C4.4516129,58.4240806 3.95191935,58.9237742 3.33870968,58.9237742 Z" id="Shape"></path>
                <rect id="Rectangle-path" x="6.67741935" y="15.5205484" width="2.22580645" height="2.22580645"></rect>
                <rect id="Rectangle-path" x="6.67741935" y="19.9721613" width="2.22580645" height="2.22580645"></rect>
                <rect id="Rectangle-path" x="6.67741935" y="24.4237742" width="2.22580645" height="2.22580645"></rect>
                <path d="M66.7741935,54.6769355 L66.7741935,14.4076452 C66.7741935,12.5669032 65.2762258,11.0689355 63.4354839,11.0689355 L54.3274839,11.0689355 C53.8667419,9.77685484 52.6425484,8.84312903 51.1935484,8.84312903 C49.3528065,8.84312903 47.8548387,10.3410968 47.8548387,12.1818387 C47.8548387,14.0225806 49.3528065,15.5205484 51.1935484,15.5205484 C52.6425484,15.5205484 53.8667419,14.5868226 54.3274839,13.2947419 L63.4354839,13.2947419 C64.0486935,13.2947419 64.5483871,13.7944355 64.5483871,14.4076452 L64.5483871,54.6769355 C63.2563065,55.1376774 62.3225806,56.361871 62.3225806,57.810871 C62.3225806,59.6516129 63.8205484,61.1495806 65.6612903,61.1495806 C67.5020323,61.1495806 69,59.6516129 69,57.810871 C69,56.361871 68.0662742,55.1376774 66.7741935,54.6769355 Z M51.1935484,13.2947419 C50.5803387,13.2947419 50.0806452,12.7950484 50.0806452,12.1818387 C50.0806452,11.568629 50.5803387,11.0689355 51.1935484,11.0689355 C51.8067581,11.0689355 52.3064516,11.568629 52.3064516,12.1818387 C52.3064516,12.7950484 51.8067581,13.2947419 51.1935484,13.2947419 Z M65.6612903,58.9237742 C65.0480806,58.9237742 64.5483871,58.4240806 64.5483871,57.810871 C64.5483871,57.1976613 65.0480806,56.6979677 65.6612903,56.6979677 C66.2745,56.6979677 66.7741935,57.1976613 66.7741935,57.810871 C66.7741935,58.4240806 66.2745,58.9237742 65.6612903,58.9237742 Z" id="Shape"></path>
                <rect id="Rectangle-path" x="60.0967742" y="15.5205484" width="2.22580645" height="2.22580645"></rect>
                <rect id="Rectangle-path" x="60.0967742" y="19.9721613" width="2.22580645" height="2.22580645"></rect>
                <rect id="Rectangle-path" x="60.0967742" y="24.4237742" width="2.22580645" height="2.22580645"></rect>
                <rect id="Rectangle-path" x="33.3870968" y="51.1334516" width="2.22580645" height="2.22580645"></rect>
                <rect id="Rectangle-path" x="33.3870968" y="46.6818387" width="2.22580645" height="2.22580645"></rect>
                <rect id="Rectangle-path" x="33.3870968" y="42.2302258" width="2.22580645" height="2.22580645"></rect>
            </g>
        </g>
    </g>
</svg>