<?xml version="1.0" encoding="UTF-8"?>
<svg width="317px" height="207px" viewBox="0 0 317 207" version="1.1" xmlns="http://www.w3.org/2000/svg" xmlns:xlink="http://www.w3.org/1999/xlink">
    <!-- Generator: sketchtool 49 (51002) - http://www.bohemiancoding.com/sketch -->
    <title>834552D3-2B08-4E12-B98D-42DE4934C06C</title>
    <desc>Created with sketchtool.</desc>
    <defs>
        <linearGradient x1="50%" y1="0%" x2="50%" y2="100%" id="linearGradient-1">
            <stop stop-color="#F3F5F5" offset="0%"></stop>
            <stop stop-color="#F2F3F3" offset="16.1398259%"></stop>
            <stop stop-color="#F1F2F2" offset="20.6091511%"></stop>
            <stop stop-color="#E8E8E8" offset="100%"></stop>
        </linearGradient>
        <linearGradient x1="100%" y1="50%" x2="0%" y2="50%" id="linearGradient-2">
            <stop stop-color="#CCCCCC" offset="0%"></stop>
            <stop stop-color="#A9A9A9" offset="100%"></stop>
        </linearGradient>
        <linearGradient x1="5.17379343%" y1="8.94652225%" x2="102.083528%" y2="77.0749502%" id="linearGradient-3">
            <stop stop-color="#353535" offset="0%"></stop>
            <stop stop-color="#1F1F1F" offset="100%"></stop>
        </linearGradient>
        <radialGradient cx="50%" cy="12.0606486%" fx="50%" fy="12.0606486%" r="100%" id="radialGradient-4">
            <stop stop-color="#60C3F6" offset="0%"></stop>
            <stop stop-color="#3B77EB" offset="100%"></stop>
        </radialGradient>
        <radialGradient cx="50%" cy="12.0606486%" fx="50%" fy="12.0606486%" r="100%" id="radialGradient-5">
            <stop stop-color="#FAA8A1" offset="0%"></stop>
            <stop stop-color="#DD5598" offset="100%"></stop>
        </radialGradient>
        <radialGradient cx="50%" cy="12.0606486%" fx="50%" fy="12.0606486%" r="100%" id="radialGradient-6">
            <stop stop-color="#BCEBD4" offset="0%"></stop>
            <stop stop-color="#55CAD8" offset="100%"></stop>
        </radialGradient>
    </defs>
    <g id="Page-1" stroke="none" stroke-width="1" fill="none" fill-rule="evenodd">
        <g id="牛顿PC首页" transform="translate(-1231.000000, -1877.000000)">
            <g id="Group-15" transform="translate(1231.000000, 1877.000000)">
                <g id="macbook" transform="translate(18.000000, 35.277512)" fill-rule="nonzero">
                    <path d="M275.520689,159.330144 L275.520689,162.306519 C275.520689,167.21752 269.70884,171.235646 262.605529,171.235646 L12.9151604,171.235646 C5.8118495,171.235268 0,167.21752 0,162.306519 L0,159.330144 L275.520689,159.330144 Z" id="Shape" fill="url(#linearGradient-1)"></path>
                    <path d="M120.794108,154.904306 L155.559739,154.904306 C158.842985,154.904306 161.353848,156.743597 161.353848,159.148684 C161.353848,161.553772 158.842985,163.393062 155.559739,163.393062 L120.794108,163.393062 C117.510862,163.393062 115,161.553772 115,159.148684 C115,156.885136 117.510862,154.904306 120.794108,154.904306 Z" id="Shape" fill="url(#linearGradient-2)"></path>
                    <path d="M34.4398812,0.319097407 L241.080261,0.319097407 C245.815984,0.319097407 249.690368,4.19252466 249.690368,8.9270778 L249.690368,159.565095 L25.8297743,159.565095 L25.8297743,8.9265314 C25.8303208,4.19252466 29.704705,0.319097407 34.4398812,0.319097407 Z" id="Shape" fill="url(#linearGradient-3)"></path>
                    <polygon id="Shape" fill="#474747" points="38.7449347 13.2305216 236.775208 13.2305216 236.775208 146.653125 38.7449347 146.653125"></polygon>
                    <path d="M34.4398812,0.319097407 L132.759456,0.319097407 C134.718068,0.319097407 117.965911,53.4010967 82.5029841,159.565095 L25.8297743,159.565095 L25.8297743,8.9265314 C25.8303208,4.19252466 29.704705,0.319097407 34.4398812,0.319097407 Z" id="Shape" fill-opacity="0.048290308" fill="#FFFFFF"></path>
                </g>
                <path d="M157.199069,125.910723 C157.299279,124.995532 156.978606,124.084138 156.326893,123.432599 L147.610667,114.729315 C146.419546,113.539774 144.488251,113.539774 143.29713,114.729315 C142.10601,115.918856 142.10601,117.847589 143.29713,119.03713 L146.80622,122.540185 L145.453726,122.540185 C135.109946,122.527761 126.728215,114.156113 126.716466,103.826399 C126.716466,102.144063 125.350841,100.779904 123.665925,100.779904 C121.98101,100.779904 120.615385,102.143718 120.615385,103.826399 C120.629898,117.520095 131.741496,128.617645 145.45338,128.633174 L147.241617,128.633174 L143.296785,132.572083 C142.518254,133.339918 142.211058,134.465616 142.492338,135.521606 C142.773272,136.577595 143.599489,137.402716 144.656881,137.683278 C145.714618,137.96384 146.841466,137.657051 147.610322,136.879553 L156.326547,128.176269 C156.922626,127.576494 157.239153,126.754479 157.199069,125.910723 Z" id="Shape" fill="#E9E9E9" fill-rule="nonzero"></path>
                <g id="coin-(2)" transform="translate(76.384615, 22.000000)" fill-rule="nonzero">
                    <ellipse id="Oval" fill="#FDBC4B" cx="35.6416599" cy="35.9164283" rx="34.9928754" ry="34.8906338"></ellipse>
                    <ellipse id="Oval" fill="#EC9922" cx="35.6416599" cy="35.9164283" rx="25.2871748" ry="25.2132912"></ellipse>
                    <g id="Group" opacity="0.25" transform="translate(2.786123, 3.028921)" fill="#FFFFFF">
                        <path d="M18.656598,62.4263352 C7.32692714,57.0035771 0.00508284921,45.4054631 0.00508284921,32.8799055 C0.00508284921,14.8200938 14.7428041,0.125432956 32.8580787,0.125432956 C40.9575989,0.125432956 48.7368997,3.09021192 54.7651588,8.46989204 C55.8122258,9.40240371 55.8986342,11.0064252 54.9633899,12.0478988 C54.0256043,13.0893724 52.4219653,13.1780624 51.3748984,12.2455507 C46.2818835,7.69702231 39.7046766,5.19343119 32.8580787,5.19343119 C17.5459955,5.19343119 5.08793206,17.6125608 5.08793206,32.8799055 C5.08793206,43.4694878 11.2788424,53.2735304 20.8574717,57.8575348 C22.1231012,58.4631606 22.6568004,59.975958 22.0493999,61.2378896 C21.4369165,62.5074232 19.9095204,63.029427 18.656598,62.4263352 Z" id="Shape"></path>
                    </g>
                    <path d="M34.0583523,47.2940843 L34.0583523,37.8448017 C31.1026755,37.0035139 28.9348403,35.7289124 27.5548468,34.023531 C26.1748532,32.3181496 25.4861272,30.2453383 25.4861272,27.8101652 C25.4861272,25.344584 26.2663445,23.2743067 27.8267792,21.5967993 C29.3872139,19.9192919 31.4635578,18.9538383 34.0583523,18.6979043 L34.0583523,16.4654511 L37.3367901,16.4654511 L37.3367901,18.6979043 C39.7333535,18.9842462 41.6419634,19.800194 43.0600783,21.1457475 C44.4781932,22.491301 45.3829404,24.2904404 45.7743198,26.5456996 L40.0510316,27.2906953 C39.7053978,25.516896 38.8006507,24.3132464 37.3367901,23.6822806 L37.3367901,32.5005975 C40.9557787,33.4787212 43.4209606,34.7431867 44.7323357,36.3015962 C46.0437108,37.8574716 46.6993983,39.8542629 46.6993983,42.2894361 C46.6993983,45.0109511 45.8734353,47.3042203 44.2240508,49.1667097 C42.5746662,51.029199 40.2772184,52.1745666 37.3367901,52.5952105 L37.3367901,55.3522015 L34.0583523,55.3522015 L34.0583523,52.7067065 C31.4508507,52.3899566 29.3313026,51.4219689 27.7022494,49.7976755 C26.0731962,48.173382 25.0337536,45.8801128 24.58138,42.9204019 L30.4851094,42.2894361 C30.7265447,43.4930857 31.1789183,44.5294913 31.8422301,45.401187 C32.5055419,46.2728827 33.2450965,46.9038485 34.0583523,47.2940843 Z M34.0583523,23.6163966 C33.1688537,23.9179425 32.4597963,24.4272763 31.93118,25.1494661 C31.4025636,25.8716558 31.1407969,26.6673316 31.1407969,27.5390273 C31.1407969,28.334703 31.3822322,29.0771647 31.8651029,29.7613445 C32.3479736,30.4455242 33.0799039,30.997936 34.0583523,31.4185799 L34.0583523,23.6163966 Z M37.3367901,47.6108342 C38.467724,47.4005123 39.3877197,46.8785085 40.0967772,46.0422888 C40.8058347,45.2060691 41.1590927,44.2279454 41.1590927,43.1003158 C41.1590927,42.0917842 40.861746,41.2251565 40.2645112,40.4953647 C39.6698179,39.765573 38.6913694,39.2055592 37.3367901,38.8153233 L37.3367901,47.6108342 Z" id="Shape" fill="#FFFFFF"></path>
                </g>
                <g id="coin-(2)-copy" transform="translate(164.846154, 69.799043)" fill-rule="nonzero">
                    <ellipse id="Oval" fill="#FDBC4B" cx="44.5520748" cy="44.8955354" rx="43.7410942" ry="43.6132923"></ellipse>
                    <ellipse id="Oval" fill="#EC9922" cx="44.5520748" cy="44.8955354" rx="31.6089685" ry="31.516614"></ellipse>
                    <g id="Group" opacity="0.25" transform="translate(3.482653, 3.786151)" fill="#FFFFFF">
                        <path d="M23.3207475,78.032919 C9.15865892,71.2544714 0.00635356151,56.7568289 0.00635356151,41.0998819 C0.00635356151,18.5251173 18.4285052,0.156791195 41.0725984,0.156791195 C51.1969987,0.156791195 60.9211246,3.8627649 68.4564485,10.5873651 C69.7652822,11.7530046 69.8732927,13.7580314 68.7042374,15.0598735 C67.5320053,16.3617155 65.5274567,16.472578 64.218623,15.3069384 C57.8523544,9.62127789 49.6308458,6.49178898 41.0725984,6.49178898 C21.9324943,6.49178898 6.35991507,22.0157011 6.35991507,41.0998819 C6.35991507,54.3368598 14.098553,66.591913 26.0718397,72.3219185 C27.6538765,73.0789507 28.3210004,74.9699476 27.5617498,76.547362 C26.7961457,78.1342789 24.8869004,78.7867837 23.3207475,78.032919 Z" id="Shape"></path>
                    </g>
                    <path d="M47.8513787,57.7759491 C44.9826676,57.7759491 42.2811982,56.4401532 40.5608801,54.1652919 L46.0286508,54.1652919 L46.0286508,46.9443866 L38.7381522,46.9443866 L38.7381522,43.3337294 L46.0286508,43.3337294 L46.0286508,36.1128241 L40.597219,36.1128241 C43.5935293,32.1303854 49.2801595,31.3070673 53.2972635,34.2751845 C53.6800611,34.5569859 54.0409728,34.8710983 54.376282,35.2101598 L59.5525154,30.1553216 C53.2460586,23.7683685 42.9043284,23.6563023 36.4595359,29.9025593 C34.6624104,31.6428567 33.2988745,33.7655698 32.4680343,36.1124151 L27.8021978,36.1124151 L27.8021978,43.3333204 L31.4476536,43.3333204 L31.4476536,46.9439776 L27.8021978,46.9439776 L27.8021978,54.1648829 L32.4316954,54.1648829 C34.7611036,60.6275011 40.9250953,64.9567723 47.8513787,64.9964454 C52.2587132,65.0144414 56.4835273,63.2524669 59.5529283,60.1223854 L54.340356,55.0675472 C52.6373815,56.8049817 50.2972367,57.7833111 47.8513787,57.7759491 Z" id="Shape" fill="#FFFFFF"></path>
                </g>
                <circle id="Oval-4" fill="url(#radialGradient-4)" opacity="0.699999988" cx="183" cy="10" r="10"></circle>
                <circle id="Oval-4-Copy" fill="url(#radialGradient-5)" opacity="0.600000024" cx="18.5057471" cy="103.505747" r="18.5"></circle>
                <circle id="Oval-4-Copy-2" fill="url(#radialGradient-6)" opacity="0.300000012" cx="275.155172" cy="71.1551724" r="14.1551724"></circle>
                <circle id="Oval-4-Copy-3" stroke="#ECA2C1" stroke-width="2.55172414" opacity="0.300000012" cx="311.103448" cy="85.1034483" r="3.82758621"></circle>
                <circle id="Oval-4-Copy-3" stroke="#C2DDD8" stroke-width="2.55172414" opacity="0.300000012" cx="67.2528736" cy="22.2528736" r="2.97701149"></circle>
            </g>
        </g>
    </g>
</svg>