<?xml version="1.0" encoding="UTF-8"?>
<svg width="265px" height="244px" viewBox="0 0 265 244" version="1.1" xmlns="http://www.w3.org/2000/svg" xmlns:xlink="http://www.w3.org/1999/xlink">
    <!-- Generator: sketchtool 49 (51002) - http://www.bohemiancoding.com/sketch -->
    <title>3F0FABFE-F32B-468C-B49C-492BF34F4E8C</title>
    <desc>Created with sketchtool.</desc>
    <defs>
        <radialGradient cx="35.9337151%" cy="37.9278677%" fx="35.9337151%" fy="37.9278677%" r="77.3086583%" gradientTransform="translate(0.359337,0.379279),scale(1.000000,0.998468),rotate(90.000000),translate(-0.359337,-0.379279)" id="radialGradient-1">
            <stop stop-color="#FFFFFF" offset="0%"></stop>
            <stop stop-color="#BABABA" offset="100%"></stop>
        </radialGradient>
        <linearGradient x1="11.4661734%" y1="15.1461538%" x2="88.5357401%" y2="84.8555769%" id="linearGradient-2">
            <stop stop-color="#E68CBC" offset="0%"></stop>
            <stop stop-color="#8366B3" offset="100%"></stop>
        </linearGradient>
        <linearGradient x1="84.8556683%" y1="11.466082%" x2="15.1462452%" y2="88.5356487%" id="linearGradient-3">
            <stop stop-color="#E68CBC" offset="0%"></stop>
            <stop stop-color="#8366B3" offset="100%"></stop>
        </linearGradient>
        <radialGradient cx="50%" cy="12.0606486%" fx="50%" fy="12.0606486%" r="97.4804605%" gradientTransform="translate(0.500000,0.120606),scale(1.000000,0.998468),rotate(90.000000),translate(-0.500000,-0.120606)" id="radialGradient-4">
            <stop stop-color="#F9C32E" offset="0%"></stop>
            <stop stop-color="#FD8B2F" offset="100%"></stop>
        </radialGradient>
        <radialGradient cx="50%" cy="12.0606486%" fx="50%" fy="12.0606486%" r="100.15345%" gradientTransform="translate(0.500000,0.120606),scale(1.000000,0.998468),rotate(90.000000),translate(-0.500000,-0.120606)" id="radialGradient-5">
            <stop stop-color="#BCEBD4" offset="0%"></stop>
            <stop stop-color="#55CAD8" offset="100%"></stop>
        </radialGradient>
        <radialGradient cx="50%" cy="12.0606486%" fx="50%" fy="12.0606486%" r="100.15345%" gradientTransform="translate(0.500000,0.120606),scale(1.000000,0.998468),rotate(90.000000),translate(-0.500000,-0.120606)" id="radialGradient-6">
            <stop stop-color="#FAA8A1" offset="0%"></stop>
            <stop stop-color="#DD5598" offset="100%"></stop>
        </radialGradient>
    </defs>
    <g id="Page-1" stroke="none" stroke-width="1" fill="none" fill-rule="evenodd">
        <g id="牛顿PC首页" transform="translate(-374.000000, -2493.000000)">
            <g id="Group-34" transform="translate(362.000000, 2472.000000)">
                <path d="M300.575675,148.269614 C300.575675,117.876586 237.007549,93.2381677 158.592291,93.2381677 C80.1770338,93.2381677 16.6089076,117.876586 16.6089076,148.269614" id="Oval-3" stroke="#4B4B4B" stroke-width="2.64150943" stroke-linecap="round" stroke-linejoin="round" stroke-dasharray="7.044025157232705,7.924528301886792" transform="translate(158.592291, 120.753891) rotate(-315.000000) translate(-158.592291, -120.753891) "></path>
                <g id="globe" transform="translate(53.628399, 52.830189)" fill-rule="nonzero">
                    <ellipse id="Oval" fill="url(#radialGradient-1)" cx="87.7835347" cy="87.9240861" rx="87.7835347" ry="87.918239"></ellipse>
                    <g id="Group" transform="translate(0.000000, 5.503145)" fill="#646A73">
                        <path d="M45.1225831,156.196099 L45.4577606,156.388709 C45.3258875,156.361193 45.1995091,156.317168 45.067636,156.284149 C45.0841201,156.25113 45.1060989,156.229118 45.1225831,156.196099 Z M39.6003965,32.2817905 L39.4245657,31.9240861 C40.8916541,31.7039603 40.9905589,30.6693691 42.1059856,30.2896521 C43.3752644,29.8714131 42.941182,30.3281741 44.1884819,30.2896521 C45.1995091,30.245627 45.8149169,30.9830483 46.9688066,30.4437402 C46.6885763,30.9390232 46.2325151,31.2802182 45.7764539,31.61591 C44.8258686,32.2927968 43.8533044,32.986193 42.7213935,33.2503439 C41.5894826,33.5089917 40.2597621,33.2338345 39.6003965,32.2817905 Z M57.1614992,110.64657 C57.1395204,111.422514 56.6834592,112.099401 56.2878399,112.754275 C54.524037,115.637923 53.452568,118.978331 53.2162953,122.362765 C52.9800227,125.604118 53.1228852,129.599401 50.3040974,131.195313 C48.6941465,132.092325 46.4303248,131.932734 45.3588557,133.446099 C45.0236782,133.90286 44.8643316,134.48069 44.7049849,135.019998 C44.0126511,137.545941 43.3148225,140.071885 42.6224887,142.597828 C41.7268505,142.520784 40.8147281,142.421728 39.9245846,142.322671 C40.9795695,142.658363 41.7103663,144.08918 41.0784743,145.06874 C40.0674471,144.534935 38.7377266,145.167797 38.1772659,146.185879 C37.6442787,147.198457 37.7212047,148.431162 38.0179192,149.5483 C38.9355363,152.850187 41.754324,155.513709 45.0731307,156.306162 C44.4961858,157.401287 42.7323829,156.922514 41.6554192,156.190596 C33.9683157,150.984621 28.1658988,143.054589 25.5174471,134.144998 C24.5833459,131.002702 23.9844222,127.662294 22.1546828,124.96025 C20.6271526,122.676445 18.3193731,121.003489 16.7918429,118.719684 C14.6489048,115.439809 14.2477908,111.185879 11.7641805,108.186665 C10.3740181,106.475187 8.22558535,104.372985 9.45640106,102.540438 C9.95092523,101.786507 11.0059101,101.071099 10.5883119,100.273143 C10.4509441,100.014495 10.1707137,99.8549037 9.95092523,99.6347779 C9.11572885,98.7377653 9.69267372,97.3289603 10.1102719,96.1732999 C10.8026057,94.1646521 10.8026057,92.0184257 10.5058912,89.8721993 C8.4179003,88.0011301 6.7694864,85.6788031 5.73648036,83.0703125 C5.12107251,81.4799037 4.30236027,79.4932685 2.59899924,79.4712559 C2.15942221,78.2385515 1.70336103,77.0058471 1.26378399,75.7731427 C1.10443731,76.2133943 0.670354985,76.4885515 0.192314955,76.5490861 C1.51104607,56.4020735 9.62124245,38.120627 22.2425982,23.9555326 C22.5228285,23.8344634 22.7975642,23.6748722 23.0777946,23.5152811 C26.0724131,21.7652811 28.4571186,19.1402811 31.3528323,17.2306899 C31.9462613,16.8344634 32.622111,16.4547465 33.3584026,16.5317905 C34.0727153,16.5923251 34.748565,17.3242433 34.4903134,18.0011301 C34.3914086,18.2817905 34.155136,18.5019163 33.9133686,18.6780169 C30.5231307,21.5671678 26.8087047,24.0931112 22.858006,26.1843062 C22.3854607,26.4209414 21.8854418,26.7016018 21.671148,27.1803754 C21.270034,27.9948408 21.9458837,29.0074194 22.8030589,29.3045892 C23.6547394,29.601759 24.6108195,29.4256584 25.4844789,29.2275452 C24.7481873,30.2786458 24.5283988,31.692954 24.907534,32.9256584 C25.7207515,33.0027024 25.979003,31.8910672 26.2207704,31.1151238 C27.2098187,28.0333628 32.1165974,26.7786458 31.7979041,23.5317905 C33.1276246,24.2251867 34.479324,22.6732999 35.2925415,21.4020735 C36.1057591,20.1088345 37.9135196,18.8376081 38.9080627,19.9712559 C38.9630098,20.6041175 39.0399358,21.2424823 39.1003776,21.8808471 C40.8476964,21.4405955 42.616994,20.9838345 44.3643127,20.5435829 C43.3697696,21.2424823 43.0345921,22.7338345 43.6060423,23.8069477 C44.1829872,24.8800609 45.6116125,25.4193691 46.7435234,24.9791175 C46.7270393,25.9146521 45.8918429,26.6300609 45.1335725,27.1858785 C43.210423,28.6387087 41.1444109,30.1300609 38.902568,30.8454697 L39.419071,31.9185829 C39.3641239,31.9405955 39.303682,31.9626081 39.2432402,31.9626081 C37.8146148,32.1001867 36.3035687,31.0710987 34.7760385,31.2692119 C33.8419373,31.3902811 32.6935423,31.3902811 32.1550604,32.3423251 C32.0781344,32.4633943 31.7429569,34.1308471 31.9792296,33.9932685 C32.814426,33.5144949 33.6441276,33.0357213 34.4628399,32.5624509 C34.7155967,33.2393377 34.7760385,33.9932685 34.6386707,34.7306899 C35.6496979,34.6316333 36.7046828,34.8462559 37.600321,35.3855641 C36.6662198,37.5538031 34.2650302,39.0066333 31.9023036,38.8250295 C31.8803248,38.1096207 31.8418618,37.3942119 31.8198829,36.6788031 C29.8747545,36.5192119 28.2867825,38.1921678 27.3142183,39.8651238 C26.3251699,41.5545892 25.5723943,43.486193 23.9404645,44.5593062 C22.9514162,45.236193 21.7370846,45.4948408 20.6656156,46.0506584 C19.6161254,46.6284886 18.6435612,47.7236144 18.8633497,48.8957842 C18.9622545,49.4516018 19.3194109,49.9688974 19.3029267,50.5467276 C19.2424849,51.6198408 17.995185,52.120627 17.1599887,52.8140232 C15.7313633,54.0082056 15.3742069,56.1984572 13.8466767,57.2495578 C12.7367447,58.0255012 11.2641616,58.0089917 9.97290408,58.4052182 C8.68164653,58.8014446 7.39038897,60.0946836 7.91238671,61.3494006 C7.275,61.5695263 6.50024547,61.0907528 6.43980363,60.413866 C4.15949773,64.9099351 2.65394637,69.8022307 2.03853852,74.8155955 C3.1704494,75.6080483 4.31884441,73.7975138 4.53863293,72.4272307 C4.77490559,71.0569477 5.96725831,69.2629226 7.07719033,70.077388 C6.81893882,72.0475138 6.56068731,73.995627 6.30793051,75.9657528 C6.24748867,76.3454697 6.20902568,76.7416961 6.39035121,77.077388 C6.61013973,77.495627 7.08268505,77.6717276 7.4453361,77.9688974 C8.45636329,78.8438974 8.31899547,80.3957842 8.37943731,81.7275452 C8.43987915,83.356476 8.97836103,84.9468848 9.83004154,86.3391804 C9.74762085,86.05852 9.69267372,85.7833628 9.63223187,85.5027024 C11.1817409,85.7008156 12.7916918,85.2000295 13.9620657,84.1654383 C14.5774736,83.6096207 15.0939766,82.8942119 15.8687311,82.6135515 C16.6654645,82.3163817 17.5391239,82.5310043 18.3523414,82.7511301 C20.8744147,83.4445263 23.5558346,84.2204697 25.2427115,86.207105 C26.094392,87.2196836 26.6328739,88.4964131 27.6493958,89.327388 C29.9516805,91.2755012 33.847432,90.4170106 35.9519071,92.5852496 C37.638784,94.3352496 37.3255853,97.1583628 36.8695242,99.563237 C35.7156344,98.9303754 34.1716201,100.520784 34.8474698,101.654432 C35.4628776,100.977545 36.1771903,100.262136 37.0728285,100.262136 C37.9849509,100.240124 38.7816843,101.494841 38.1058346,102.072671 C39.6938066,100.042011 43.5840634,100.878489 44.1994713,103.404432 C46.4248301,103.564023 48.666673,103.718111 50.8920317,103.899715 C50.4634441,107.168583 57.2988671,107.361193 57.1614992,110.64657 Z M43.6280211,18.6394949 C42.7708459,19.063237 41.5894826,18.5844634 41.2707893,17.6819477 C40.9466012,16.779432 41.5565144,15.6622936 42.4906156,15.447671 C43.0785498,15.3100924 43.8972621,15.3761301 44.0785876,14.7982999 C44.1335347,14.6221993 44.1005665,14.4295892 44.1005665,14.2479855 C44.0785876,13.1583628 45.0511518,12.2558471 46.100642,11.9806899 C47.1501322,11.7110358 48.2600642,11.9201553 49.3260385,12.1292748 C49.7051737,12.9162244 49.815068,13.8297465 49.6337424,14.6827339 C48.9029456,14.7157528 48.1721488,14.7432685 47.441352,14.7762873 C47.5072885,15.9924823 47.3864048,17.5223565 46.2599887,17.9736144 C45.2489615,18.3753439 43.9302304,17.6269163 43.0895393,18.3093062 L43.6280211,18.6394949 Z M55.0075718,6.49405464 C57.0021526,5.53650747 58.6890295,4.02864583 60.6561367,3.01606722 C64.0408799,1.27707351 67.9915785,1.12298546 71.7939199,1.00191627 C80.4480929,0.732262186 89.1022659,0.462608097 97.7564388,0.192954009 C95.7508686,1.29358294 93.7452983,2.39971502 91.7342334,3.50034395 C90.0968089,4.40285967 88.2341012,5.32738797 86.4373301,4.81559552 C86.3988671,6.26292256 87.7121035,7.60568986 89.1627077,7.59468357 C85.6076284,9.79594143 80.6733761,7.54515527 76.9204872,9.39421187 C75.3489992,10.1701553 74.0797205,11.6339917 72.348886,11.909149 C71.3488482,12.0687402 70.3103474,11.7990861 69.3158044,12.0192119 C67.6509063,12.3824194 66.6014162,13.9618219 65.3706005,15.1394949 C63.9529645,16.4987716 61.8704683,17.4288031 60.01875,16.779432 C58.1670317,16.1300609 57.1999622,13.3729855 58.6835347,12.0852496 C59.4143316,11.452388 60.458327,11.3478282 61.320997,10.9020735 C62.1836669,10.4618219 62.8650113,9.27864583 62.2166352,8.55773388 C61.9364048,8.24405464 61.4748489,8.12298546 61.2165974,7.78729363 C60.9363671,7.42408608 60.9638406,6.90679049 60.7330627,6.51056407 C59.8539086,4.96418042 57.4087613,7.0443691 55.7438633,6.42251376 L55.0075718,6.49405464 Z M81.288784,13.8077339 C82.4591579,13.5380798 83.4756798,12.8446836 84.5691276,12.3383943 C85.6625755,11.832105 86.9648225,11.5349351 88.0362915,12.0687402 C88.3549849,12.8666961 87.4373678,13.5931112 86.629645,13.8792748 C85.080136,14.4240861 83.3987538,14.572671 81.7778134,14.3030169 L81.288784,13.8077339 Z M152.044203,22.5522307 C166.627171,38.236193 175.55608,59.2527024 175.578059,82.3769163 C175.578059,82.9107213 175.583554,83.4665389 175.561575,84.0058471 C174.924188,81.5019163 174.385706,78.9539603 173.907666,76.3894949 C173.028512,71.6182685 171.995506,66.1481427 167.80304,63.7432685 C167.028285,63.3030169 166.193089,62.9893377 165.478776,62.5105641 C164.489728,61.8556899 163.714974,60.8816333 162.659989,60.3038031 C161.610498,59.7479855 160.077474,59.7259729 159.445582,60.7220421 C158.769732,61.7786458 159.544486,63.231476 160.615955,63.8643377 C161.687424,64.524715 162.978682,64.6788031 164.110593,65.1575767 C166.396394,66.1316333 167.962387,68.5365075 167.984366,71.0019163 C167.984366,73.4673251 166.418372,75.8721993 164.154551,76.8682685 C163.297375,77.2259729 162.385253,77.4020735 161.572035,77.8423251 C160.462103,78.4201553 159.588444,79.4547465 159.209309,80.6489289 C155.775113,72.9500295 151.978267,65.438237 147.802285,58.1410672 C146.351681,59.957105 146.890162,62.6371364 147.923168,64.7063188 C148.956174,66.7755012 150.461726,68.6795892 150.86284,70.9688974 C151.038671,72.0255012 150.983724,73.120627 151.280438,74.1332056 C151.796941,75.9052182 153.269524,77.192954 154.362972,78.6457842 C155.65423,80.3352496 156.511405,82.3879226 158.159819,83.736193 C159.791748,85.0899666 162.648999,85.3266018 163.742447,83.5160672 C162.951208,85.5302182 162.154475,87.5168534 161.363236,89.5255012 C159.341182,94.6379226 157.335612,99.7283314 155.313557,104.840753 C154.78057,106.216539 154.242088,107.564809 153.709101,108.940596 C151.665068,114.069526 149.621035,119.264495 146.467069,123.799086 C145.972545,124.497985 145.456042,125.213394 145.318674,126.02786 C145.241748,126.600187 145.324169,127.178017 145.30219,127.755847 C145.241748,129.825029 143.49443,131.696099 141.450397,131.916224 C142.955948,131.916224 143.335083,134.524715 142.164709,135.63635 C140.950378,136.792011 139.126133,136.929589 137.576624,137.606476 C133.4446,139.378489 130.889558,145.046728 126.438841,144.512923 C124.845374,139.505061 123.257402,134.513709 121.663935,129.522357 C121.026548,127.557734 120.394656,125.549086 120.41114,123.479904 C120.471582,119.699243 122.652983,116.320312 123.504664,112.638709 C124.372829,108.962608 122.960687,104.0483 119.229777,103.575029 C119.564955,102.722042 119.905627,101.847042 120.240804,100.972042 C119.608912,101.087608 118.971526,101.208677 118.356118,101.329746 C119.586934,98.7212559 119.960574,94.7259729 117.240691,93.7519163 C116.048338,93.3336773 114.718618,93.7354068 113.487802,93.476759 C112.251492,93.2181112 111.218486,91.5286458 112.213029,90.7527024 C107.828248,90.5766018 103.37753,91.3140232 99.2894637,92.9264446 C97.8608384,93.4877653 96.4102341,94.1646521 94.8827039,94.1041175 C92.4210725,94.0050609 90.4704494,92.0569477 88.7835725,90.2684257 C85.2065144,86.4162244 81.3492258,81.6229855 82.5800415,76.5325767 C83.0141239,74.7440546 84.0471299,72.9940546 83.6679947,71.18352 C83.4482062,70.1269163 82.7338935,69.2133943 82.5360838,68.1402811 C82.2558535,66.7479855 82.8712613,65.3336773 83.585574,64.1009729 C85.8493958,60.1001867 89.2011707,56.6992433 93.1518693,54.3494006 C92.9155967,51.9995578 94.5585159,49.7707842 96.6245279,48.6371364 C98.69054,47.4869792 101.113708,47.2063188 103.454456,46.9256584 C107.740332,46.4248722 112.031703,45.9460987 116.339558,45.4453125 C116.856061,45.3847779 117.416522,45.3462559 117.850604,45.6049037 C118.564917,46.0396521 118.625359,47.0357213 118.845147,47.8501867 C119.460555,50.1780169 122.279343,51.6253439 124.543165,50.788866 C125.378361,53.6560043 128.713652,54.7676395 131.61486,55.4610358 C131.296167,53.7880798 131.790691,51.9995578 132.900623,50.7448408 C133.933629,53.3478282 137.208478,54.1237716 140.010782,54.2008156 C142.813085,54.2558471 145.906609,54.0577339 148.055042,55.8242433 C147.758327,53.9366647 147.439634,52.0490861 147.12094,50.1394949 C147.022035,49.4626081 146.884668,48.7251867 146.346186,48.2684257 C145.631873,47.6740861 144.598867,47.8887087 143.664766,47.9107213 C141.576775,47.9932685 139.494279,46.9806899 138.279947,45.2692119 C142.087783,43.7008156 146.379154,43.2550609 150.450736,44.0310043 C148.225378,41.3454697 146.434101,38.2857213 145.192296,35.0168534 C144.890087,36.370627 144.615351,37.702388 144.318637,39.0561616 C143.780155,37.7244006 143.142768,36.2715704 141.873489,35.6552182 C140.582232,35.0223565 138.59864,35.9744006 138.856892,37.3666961 C138.977776,38.0655955 139.593184,38.5828911 139.851435,39.2377653 C140.351454,40.4704697 139.477795,41.9012873 138.285442,42.4791175 C137.098584,43.0734572 135.708421,43.0349351 134.395185,42.9964131 C134.257817,44.1135515 134.120449,45.2251867 133.961103,46.3588345 C133.559989,45.3242433 133.14239,44.3116647 132.746771,43.2770735 C132.191805,43.6567905 131.61486,44.0144949 131.059894,44.3942119 C129.949962,43.2220421 128.856514,42.0718848 127.763066,40.9162244 C127.12568,41.5490861 126.493788,42.2094634 125.856401,42.8643377 C123.845336,41.2519163 121.839766,39.644998 119.834196,38.0545892 C118.922073,37.322671 117.987972,36.5852496 116.894524,36.1890232 C113.553739,34.9563188 109.982175,37.2236144 107.482081,39.7330483 C106.196318,41.0427968 104.943523,42.5946836 104.866597,44.4272307 C102.921469,43.9154383 100.954362,45.1261301 98.9487915,45.1481427 C96.2673716,45.1866647 93.8057402,42.7047465 93.8826662,40.0192119 C93.9376133,37.3336773 96.4981495,34.9673251 99.1795695,35.1049037 C101.025793,35.2259729 102.789596,36.3376081 104.619335,36.0184257 C105.157817,33.4319477 103.503909,30.5923251 101.003814,29.7778597 C106.44358,27.2078911 111.89983,24.6379226 117.339596,22.0899666 C118.015446,21.0333628 116.603304,19.8061616 115.372489,19.6850924 C114.119694,19.5640232 112.691069,19.8061616 111.795431,18.909149 C110.740446,17.8580483 111.394316,15.9264446 112.625132,15.0514446 C113.833969,14.1764446 115.399962,13.9728282 116.812103,13.4775452 C118.141824,13.0207842 119.328682,12.3053754 120.641918,11.8266018 C126.317957,9.79594143 132.417088,12.9327339 137.620582,15.9539603 L138.076643,15.7943691 C138.159063,17.1261301 137.779928,18.4799037 137.027153,19.5750295 C140.203097,17.9846207 144.214237,18.2377653 147.153909,20.1858785 C148.428682,21.0223565 149.560593,22.1725138 151.04966,22.4916961 C151.390332,22.5742433 151.72551,22.5907528 152.044203,22.5522307 Z M160.654418,112.627702 C160.082968,114.113551 162.736915,115.52786 162.017107,116.953174 C161.780835,117.437451 161.236858,117.668583 160.802776,117.987765 C157.75321,120.255061 160.687387,126.242482 157.599358,128.449243 C156.522394,129.219684 155.077285,129.181162 153.758554,129.065596 C153.445355,129.03808 153.121167,129.010564 152.840937,128.867482 C151.626605,128.262136 152.11014,126.369055 153.022262,125.361979 C153.934384,124.354904 155.198168,123.342325 155.066295,121.988551 C154.983875,121.174086 154.379456,120.381633 154.632213,119.600187 C154.934422,118.681162 156.126775,118.52157 157.022413,118.158363 C158.720279,117.47047 159.720317,115.40679 159.220298,113.645784 L160.654418,112.627702 Z" id="Combined-Shape"></path>
                    </g>
                </g>
                <g id="Group-3-Copy-11" transform="translate(236.492447, 59.874214)">
                    <rect id="Rectangle-2" fill="url(#linearGradient-2)" opacity="0.400000006" x="18.9212273" y="2.25177853" width="2.22602674" height="30.0237138"></rect>
                    <rect id="Rectangle-2" fill="url(#linearGradient-2)" opacity="0.400000006" x="9.31271686" y="18.1622729" width="2.22602674" height="21.3222448"></rect>
                    <rect id="Rectangle-2" fill="url(#linearGradient-3)" opacity="0.400000006" x="28.1494296" y="17.6196579" width="2.22602674" height="21.9915188"></rect>
                    <path d="M21.1472541,23.7715013 L21.1472541,42.4779426 L37.30806,33.0395577 L37.30806,14.3308485 L21.2426962,23.6061906 L21.1472541,23.7715013 Z M3.50425012,12.1960709 L20.0289,21.7365819 L36.4589392,12.2506944 L19.9348303,2.60012989 L3.50425012,12.1960709 Z M2.56160071,14.2222263 L2.56160071,33.0395577 L18.9212273,42.5940597 L18.9212273,23.6674611 L2.56160071,14.2222263 Z M19.9348303,0 L39.5340867,11.4465409 L39.5340867,34.3396226 L19.9348303,45.7861635 L0.335573968,34.3396226 L0.335573968,11.4465409 L19.9348303,0 Z" id="Combined-Shape" fill="url(#linearGradient-2)" fill-rule="nonzero"></path>
                </g>
                <path d="M-21.9833846,131.894821 C-21.9833846,162.287849 41.5847415,186.926267 119.999999,186.926267 C198.415257,186.926267 261.983383,162.287849 261.983383,131.894821" id="Oval-3" stroke="#4B4B4B" stroke-width="2.64150943" transform="translate(119.999999, 159.410544) rotate(-315.000000) translate(-119.999999, -159.410544) "></path>
                <g id="Group-3-Copy-12" transform="translate(79.123867, 22.893082)">
                    <rect id="Rectangle-2" fill="url(#linearGradient-2)" opacity="0.400000006" x="10.9160927" y="1.299103" width="1.2842462" height="17.3213733"></rect>
                    <rect id="Rectangle-2" fill="url(#linearGradient-2)" opacity="0.400000006" x="5.37272127" y="10.4782343" width="1.2842462" height="12.3012951"></rect>
                    <rect id="Rectangle-2" fill="url(#linearGradient-3)" opacity="0.400000006" x="16.2400555" y="10.1651873" width="1.2842462" height="12.6874147"></rect>
                    <path d="M12.2003389,13.7143276 L12.2003389,24.5065054 L21.5238807,19.0612833 L21.5238807,8.26779723 L12.2554016,13.6189561 L12.2003389,13.7143276 Z M2.02168276,7.03619475 L11.5551346,12.5403357 L21.0340034,7.06770829 L11.5008637,1.50007493 L2.02168276,7.03619475 Z M1.47784656,8.20513056 L1.47784656,19.0612833 L10.9160927,24.573496 L10.9160927,13.6543045 L1.47784656,8.20513056 Z M11.5008637,0 L22.8081269,6.60377358 L22.8081269,19.8113208 L11.5008637,26.4150943 L0.193600366,19.8113208 L0.193600366,6.60377358 L11.5008637,0 Z" id="Combined-Shape" fill="url(#linearGradient-2)" fill-rule="nonzero"></path>
                </g>
                <g id="Group-3-Copy-13" transform="translate(87.915408, 216.603774)">
                    <rect id="Rectangle-2" fill="url(#linearGradient-2)" opacity="0.400000006" x="10.9160927" y="1.299103" width="1.2842462" height="17.3213733"></rect>
                    <rect id="Rectangle-2" fill="url(#linearGradient-2)" opacity="0.400000006" x="5.37272127" y="10.4782343" width="1.2842462" height="12.3012951"></rect>
                    <rect id="Rectangle-2" fill="url(#linearGradient-3)" opacity="0.400000006" x="16.2400555" y="10.1651873" width="1.2842462" height="12.6874147"></rect>
                    <path d="M12.2003389,13.7143276 L12.2003389,24.5065054 L21.5238807,19.0612833 L21.5238807,8.26779723 L12.2554016,13.6189561 L12.2003389,13.7143276 Z M2.02168276,7.03619475 L11.5551346,12.5403357 L21.0340034,7.06770829 L11.5008637,1.50007493 L2.02168276,7.03619475 Z M1.47784656,8.20513056 L1.47784656,19.0612833 L10.9160927,24.573496 L10.9160927,13.6543045 L1.47784656,8.20513056 Z M11.5008637,0 L22.8081269,6.60377358 L22.8081269,19.8113208 L11.5008637,26.4150943 L0.193600366,19.8113208 L0.193600366,6.60377358 L11.5008637,0 Z" id="Combined-Shape" fill="url(#linearGradient-2)" fill-rule="nonzero"></path>
                </g>
                <ellipse id="Oval-4-Copy" fill="url(#radialGradient-4)" cx="38.6827795" cy="47.5471698" rx="26.3746224" ry="26.4150943"></ellipse>
                <ellipse id="Oval-4-Copy-2" fill="url(#radialGradient-5)" cx="193.413897" cy="237.735849" rx="26.3746224" ry="26.4150943"></ellipse>
                <ellipse id="Oval-4-Copy-3" fill="url(#radialGradient-6)" cx="234.39617" cy="148.380503" rx="16.4747195" ry="16.5"></ellipse>
            </g>
        </g>
    </g>
</svg>