<?xml version="1.0" encoding="UTF-8"?>
<svg width="61px" height="61px" viewBox="0 0 61 61" version="1.1" xmlns="http://www.w3.org/2000/svg" xmlns:xlink="http://www.w3.org/1999/xlink">
    <!-- Generator: sketchtool 49 (51002) - http://www.bohemiancoding.com/sketch -->
    <title>11AEA3FE-3EFC-44E9-81FA-CFF3EE901E4B</title>
    <desc>Created with sketchtool.</desc>
    <defs>
        <linearGradient x1="5.74650823%" y1="50%" x2="94.1212548%" y2="50%" id="linearGradient-1">
            <stop stop-color="#F5AB4E" offset="0%"></stop>
            <stop stop-color="#EF9021" offset="100%"></stop>
        </linearGradient>
        <linearGradient x1="2.99629697%" y1="50%" x2="98.3025228%" y2="50%" id="linearGradient-2">
            <stop stop-color="#FEDC7A" offset="0%"></stop>
            <stop stop-color="#EFAC21" offset="100%"></stop>
        </linearGradient>
        <linearGradient x1="-1.11022302e-14%" y1="50%" x2="100%" y2="50%" id="linearGradient-3">
            <stop stop-color="#FFFFFF" offset="0%"></stop>
            <stop stop-color="#F4F4F4" offset="100%"></stop>
        </linearGradient>
    </defs>
    <g id="Page-1" stroke="none" stroke-width="1" fill="none" fill-rule="evenodd">
        <g id="牛顿PC首页" transform="translate(-586.000000, -1016.000000)" fill-rule="nonzero">
            <g id="folder" transform="translate(586.000000, 1016.000000)">
                <path d="M56.3378958,8.77168303 L56.3378958,23.9178167 L3.76470065,23.9178167 L3.76470065,2.51295505 C3.76470065,1.13602292 4.8912597,0.00946386276 6.26819184,0.00946386276 L21.4143255,0.00946386276 C22.7912576,0.00946386276 23.9178167,1.13602292 23.9178167,2.51295505 L23.9178167,6.26819184 L53.8345244,6.26819184 C55.2113368,6.26819184 56.3378958,7.39475089 56.3378958,8.77168303 Z" id="Shape" fill="url(#linearGradient-1)"></path>
                <path d="M57.5896414,23.9178167 L2.51295505,23.9178167 C1.01083638,23.9178167 -0.115722676,25.1695623 0.00946386276,26.671681 L3.63951411,57.7149478 C3.76470065,59.0918799 4.76607316,60.0932524 6.1430053,60.0932524 L53.9595912,60.0932524 C55.3365233,60.0932524 56.3378958,59.0918799 56.4630824,57.7149478 L60.0931326,26.671681 C60.2183192,25.2947488 59.0917601,23.9178167 57.5896414,23.9178167 Z" id="Shape" fill="url(#linearGradient-2)"></path>
                <rect id="Rectangle-path" fill="#F2F2F2" x="6.89412453" y="10.0234286" width="46.3144672" height="13.8943881"></rect>
                <g id="Group" transform="translate(9.943046, 12.818143)" fill="#D5D5D5">
                    <rect id="Rectangle-path" x="0.0803829356" y="0.0843361947" width="40.0557392" height="3.12930409"></rect>
                    <rect id="Rectangle-path" x="0.0803829356" y="5.84231801" width="40.0557392" height="3.12930409"></rect>
                </g>
                <path d="M38.4044609,49.4865461 L34.0691176,47.3188744 C33.5090449,47.0388381 33.1550282,46.4660572 33.1550282,45.8397199 L33.1550282,44.1386241 C33.2766647,44.0001945 33.4164559,43.8218245 33.5653245,43.61123 C34.1562601,42.7770213 34.6028658,41.8588472 34.9128574,40.8952863 C35.4688452,40.7241782 35.8782338,40.2104001 35.8782338,39.5999481 L35.8782338,37.7844777 C35.8782338,37.3850742 35.7007716,37.0278804 35.4243662,36.7782533 L35.4243662,34.1535369 C35.4243662,34.1535369 35.963107,30.0687285 30.4318226,30.0687285 C24.9000843,30.0687285 25.439279,34.1535369 25.439279,34.1535369 L25.439279,36.7782533 C25.1628736,37.0278804 24.9854114,37.3850742 24.9854114,37.7844777 L24.9854114,39.5999481 C24.9854114,40.0783246 25.236854,40.4990598 25.6131103,40.7423329 C26.066524,42.7175647 27.2547494,44.1386241 27.2547494,44.1386241 L27.2547494,45.7975102 C27.2547494,46.4025157 26.9243338,46.9594113 26.3928548,47.2489788 L22.343902,49.4579524 C21.1742852,50.0956364 20.4467354,51.3215328 20.4467354,52.6536342 L20.4467354,54.1237113 L40.4169098,54.1237113 L40.4169098,52.7425922 C40.4169098,51.3637425 39.6376191,50.1033521 38.4044609,49.4865461 Z" id="Shape" fill="url(#linearGradient-3)"></path>
            </g>
        </g>
    </g>
</svg>