<?xml version="1.0" encoding="UTF-8"?>
<svg width="74px" height="74px" viewBox="0 0 74 74" version="1.1" xmlns="http://www.w3.org/2000/svg" xmlns:xlink="http://www.w3.org/1999/xlink">
    <!-- Generator: sketchtool 49 (51002) - http://www.bohemiancoding.com/sketch -->
    <title>628967BD-D9BA-495A-A8C8-44F9DC161142</title>
    <desc>Created with sketchtool.</desc>
    <defs>
        <radialGradient cx="50%" cy="12.0606486%" fx="50%" fy="12.0606486%" r="100%" id="radialGradient-1">
            <stop stop-color="#60C3F6" offset="0%"></stop>
            <stop stop-color="#3B77EB" offset="100%"></stop>
        </radialGradient>
        <radialGradient cx="50%" cy="12.0606486%" fx="50%" fy="12.0606486%" r="100%" id="radialGradient-2">
            <stop stop-color="#FAA8A1" offset="0%"></stop>
            <stop stop-color="#DD5598" offset="100%"></stop>
        </radialGradient>
        <radialGradient cx="50%" cy="12.0606486%" fx="50%" fy="12.0606486%" r="100%" id="radialGradient-3">
            <stop stop-color="#BCEBD4" offset="0%"></stop>
            <stop stop-color="#55CAD8" offset="100%"></stop>
        </radialGradient>
    </defs>
    <g id="Page-1" stroke="none" stroke-width="1" fill="none" fill-rule="evenodd">
        <g id="牛顿PC首页" transform="translate(-574.000000, -1325.000000)">
            <g id="Group-17" transform="translate(574.000000, 1325.000000)">
                <g id="coin-(2)" transform="translate(12.758621, 13.609195)" fill-rule="nonzero">
                    <ellipse id="Oval" fill="#FDBC4B" cx="25.1956515" cy="25.4075585" rx="24.7370156" ry="24.6819035"></ellipse>
                    <ellipse id="Oval" fill="#EC9922" cx="25.1956515" cy="25.4075585" rx="17.8759027" ry="17.8360767"></ellipse>
                    <g id="Group" opacity="0.25" transform="translate(1.969554, 2.142682)" fill="#FFFFFF">
                        <path d="M13.1886434,44.1608711 C5.17952036,40.3247702 0.00359314628,32.1201749 0.00359314628,23.2594988 C0.00359314628,10.4838487 10.4219208,0.0887322408 23.2278941,0.0887322408 C28.9535727,0.0887322408 34.4528831,2.18603975 38.7143546,5.99166697 C39.4545427,6.65133292 39.5156262,7.78603006 38.8544873,8.52277655 C38.1915518,9.25952303 37.0579141,9.322263 36.317726,8.66259705 C32.7173934,5.44493296 28.0678621,3.67387328 23.2278941,3.67387328 C12.403541,3.67387328 3.59673942,12.4592614 3.59673942,23.2594988 C3.59673942,30.750651 7.97319159,37.6861064 14.7444758,40.9288664 C15.6391692,41.3572908 16.0164495,42.4274554 15.5870686,43.3201555 C15.1540944,44.2182333 14.074354,44.5875029 13.1886434,44.1608711 Z" id="Shape"></path>
                    </g>
                    <path d="M24.0763865,33.4562001 L24.0763865,26.7717046 C21.9869719,26.1765712 20.454495,25.2749083 19.4789558,24.0685083 C18.5034166,22.8621083 18.0165453,21.3957856 18.0165453,19.6731254 C18.0165453,17.9289543 18.5680932,16.4644241 19.6711891,15.2777425 C20.774285,14.0910608 22.2420853,13.4080914 24.0763865,13.2270418 L24.0763865,11.6477871 L26.3939658,11.6477871 L26.3939658,13.2270418 C28.0881343,13.4296022 29.4373607,14.00681 30.4398485,14.9586649 C31.4423363,15.9105198 32.0819164,17.1832449 32.3585886,18.7786327 L28.3127059,19.3056484 C28.068372,18.050849 27.428792,17.1993781 26.3939658,16.753028 L26.3939658,22.9911734 C28.952286,23.6831056 30.6949619,24.5775983 31.6219937,25.6800292 C32.5490254,26.7806675 33.0125413,28.1932131 33.0125413,29.9158733 C33.0125413,31.8410941 32.428655,33.4633704 31.262679,34.7809097 C30.0967031,36.0984491 28.4726009,36.9086909 26.3939658,37.2062576 L26.3939658,39.1565744 L24.0763865,39.1565744 L24.0763865,37.2851307 C22.2331024,37.0610594 20.7347604,36.3762975 19.5831571,35.2272598 C18.4315537,34.0782221 17.6967553,32.4559458 17.3769652,30.3622234 L21.5504046,29.9158733 C21.7210791,30.7673443 22.0408691,31.5005057 22.5097747,32.1171499 C22.9786803,32.7337942 23.5014831,33.1801443 24.0763865,33.4562001 Z M24.0763865,16.7064212 C23.4475859,16.919737 22.946342,17.2800437 22.5726548,17.7909263 C22.1989675,18.3018089 22.0139205,18.8646761 22.0139205,19.4813203 C22.0139205,20.0441875 22.184595,20.5694106 22.5259439,21.0534047 C22.8672928,21.5373987 23.3847058,21.9281791 24.0763865,22.2257458 L24.0763865,16.7064212 Z M26.3939658,33.6802714 C27.1934409,33.5314881 27.8438003,33.1622185 28.3450443,32.5706703 C28.8462882,31.979122 29.0960118,31.2871898 29.0960118,30.4894959 C29.0960118,29.7760528 28.8858128,29.1629937 28.4636181,28.6467334 C28.04322,28.1304731 27.3515393,27.734315 26.3939658,27.4582591 L26.3939658,33.6802714 Z" id="Shape" fill="#FFFFFF"></path>
                </g>
                <circle id="Oval-4" fill="url(#radialGradient-1)" opacity="0.699999988" cx="63.3678161" cy="22.5402299" r="10.6321839"></circle>
                <circle id="Oval-4-Copy" fill="url(#radialGradient-2)" opacity="0.600000024" cx="8.50574713" cy="14.4597701" r="8.50574713"></circle>
                <circle id="Oval-4-Copy-2" fill="url(#radialGradient-3)" opacity="0.300000012" cx="10.2068966" cy="66.3448276" r="7.65517241"></circle>
                <circle id="Oval-4-Copy-3" stroke="#ECA2C1" stroke-width="2.55172414" opacity="0.300000012" cx="49.3333333" cy="68.8965517" r="3.82758621"></circle>
                <circle id="Oval-4-Copy-3" stroke="#C2DDD8" stroke-width="2.55172414" opacity="0.300000012" cx="44.2298851" cy="4.25287356" r="2.97701149"></circle>
            </g>
        </g>
    </g>
</svg>