<?xml version="1.0" encoding="UTF-8"?>
<svg width="231px" height="230px" viewBox="0 0 231 230" version="1.1" xmlns="http://www.w3.org/2000/svg" xmlns:xlink="http://www.w3.org/1999/xlink">
    <!-- Generator: sketchtool 49 (51002) - http://www.bohemiancoding.com/sketch -->
    <title>485C7130-B2FC-4FEF-B0A8-591923A6575E</title>
    <desc>Created with sketchtool.</desc>
    <defs>
        <polygon id="path-1" points="0 0 224.952 0 224.952 222.4639 0 222.4639"></polygon>
    </defs>
    <g id="Page-1" stroke="none" stroke-width="1" fill="none" fill-rule="evenodd">
        <g id="牛顿PC改2" transform="translate(-1329.000000, -1783.000000)">
            <g id="money-exchange" transform="translate(1329.000000, 1783.000000)">
                <g id="Page-1" transform="translate(3.000000, 4.000000)">
                    <mask id="mask-2" fill="white">
                        <use xlink:href="#path-1"></use>
                    </mask>
                    <g id="Clip-2"></g>
                    <path d="M0,63.7189 L0,37.7559 C0,26.0929 9.481,16.6039 21.136,16.6039 L40.606,16.6039 L26.642,2.6909 L29.349,-0.0001 L46.535,17.1969 C47.271,17.9369 47.268,19.1429 46.529,19.8859 L29.357,37.0699 L26.635,34.3449 L40.606,20.4249 L21.136,20.4249 C11.584,20.4249 3.813,28.1989 3.813,37.7559 L3.813,63.7189 L0,63.7189 Z M206.715,63.7189 L206.714,54.0979 L197.101,54.0979 L197.101,50.2769 L208.622,50.2769 C209.674,50.2769 210.529,51.1339 210.529,52.1869 L210.529,63.7189 L206.715,63.7189 Z M62.495,63.7189 L62.495,52.1879 C62.495,51.1339 63.351,50.2769 64.402,50.2769 L75.924,50.2769 L75.924,54.0979 L66.31,54.0979 L66.31,63.7189 L62.495,63.7189 Z M0,82.9599 L3.813,82.9599 L3.813,79.1389 L0,79.1389 L0,82.9599 Z M197.102,121.4449 L197.102,117.6229 L206.716,117.6229 L206.716,108.0019 L210.529,108.0019 L210.529,119.5339 C210.529,120.5879 209.674,121.4449 208.623,121.4449 L197.102,121.4449 Z M221.138,155.1169 L224.951,155.1169 L224.951,151.2959 L221.138,151.2959 L221.138,155.1169 Z M163.995,202.6769 C163.26,201.9369 163.263,200.7309 164.001,199.9879 L181.173,182.8049 L183.852,185.4849 L169.944,199.4009 L203.815,199.4009 C213.367,199.4009 221.138,191.6259 221.138,182.0699 L221.138,170.5389 L224.951,170.5389 L224.951,182.0699 C224.951,193.7339 215.47,203.2219 203.815,203.2219 L169.966,203.2219 L183.855,217.1819 L181.173,219.8659 L163.995,202.6769 Z M32.658,92.5509 L36.221,91.7149 C39.166,91.0229 42.305,90.4579 45.549,90.0349 L48.073,89.7049 L48.073,54.0979 L32.658,54.0979 L32.658,92.5509 Z M120.626,113.2819 C125.438,116.0959 130.926,117.5979 136.499,117.6229 C139.577,117.6229 142.628,117.1799 145.565,116.3059 C162.343,111.3149 171.935,93.5959 166.945,76.8089 C162.971,63.4319 150.464,54.0899 136.53,54.0899 C133.475,54.0899 130.427,54.5359 127.471,55.4159 C110.693,60.4069 101.102,78.1249 106.091,94.9119 L106.455,96.1409 L107.609,96.6979 C112.893,99.2469 119.189,103.6099 119.19,109.9129 L119.19,112.4429 L120.626,113.2819 Z M64.402,92.5819 C36.771,92.5819 13.429,100.5179 13.429,109.9129 C13.429,119.3069 36.771,127.2439 64.402,127.2439 C92.033,127.2439 115.376,119.3069 115.376,109.9129 C115.376,100.5179 92.033,92.5819 64.402,92.5819 Z M221.138,132.0549 L221.138,39.6669 L51.887,39.6669 L51.887,89.4219 L55.094,89.0809 C58.113,88.7609 61.168,88.7609 64.401,88.7609 L65.516,88.7559 C76.34,88.7559 87.133,90.1649 97.597,92.9449 L101.747,94.0469 L101.22,89.7859 C101.059,88.4819 100.969,87.1499 100.952,85.8249 C100.938,81.2059 101.812,76.6879 103.548,72.3899 C109.012,58.8739 121.956,50.1409 136.525,50.1409 C141.091,50.1409 145.572,51.0179 149.846,52.7469 C168.022,60.1049 176.828,80.8889 169.476,99.0789 C164.012,112.5949 151.068,121.3289 136.499,121.3289 C131.934,121.3289 127.452,120.4519 123.178,118.7219 L119.189,117.1079 L119.189,132.0549 L221.138,132.0549 Z M13.429,129.1549 C13.429,138.5499 36.771,146.4859 64.402,146.4859 C92.033,146.4859 115.377,138.5499 115.377,129.1549 L115.377,118.5689 L110.954,121.2989 C101.045,127.4139 83.643,131.0649 64.402,131.0649 C45.162,131.0649 27.76,127.4139 17.853,121.2989 L13.429,118.5689 L13.429,129.1549 Z M201.908,151.2959 L201.908,135.8749 L116.598,135.8749 L115.747,136.7389 C114.066,138.4429 112.154,139.8919 110.063,141.0469 L107.765,142.3179 L108.801,144.7309 C109.305,145.9029 109.565,147.1439 109.576,148.4179 L109.598,151.2959 L201.908,151.2959 Z M12.704,138.8859 C6.971,141.8099 3.813,145.1869 3.813,148.3959 C3.813,157.7909 27.157,165.7279 54.788,165.7279 C82.013,165.7279 105.354,157.8989 105.756,148.6329 C105.812,148.1149 105.802,147.6259 105.729,147.1449 L105.221,143.7889 L101.986,144.8139 C90.446,148.4689 78.458,150.3229 66.354,150.3229 C65.719,150.3229 65.083,150.3179 64.449,150.3079 C43.691,150.3069 25.028,146.0289 15.75,139.1409 L14.307,138.0689 L12.704,138.8859 Z M3.813,167.6379 C3.813,177.0329 27.157,184.9689 54.788,184.9689 C82.419,184.9689 105.762,177.0329 105.762,167.6379 L105.762,157.0539 L101.339,159.7829 C91.429,165.8979 74.027,169.5489 54.788,169.5489 C35.548,169.5489 18.146,165.8979 8.236,159.7819 L3.813,157.0529 L3.813,167.6379 Z M28.774,186.4349 C30.811,188.0739 35.269,191.1979 42.579,194.0269 C51.953,197.6549 63.179,199.4179 76.896,199.4179 C77.555,199.4179 78.216,199.4119 78.876,199.4009 C92.299,199.4009 105.077,197.5309 114.868,194.1369 C124.356,190.8479 129.798,186.4489 129.798,182.0699 C129.798,177.3469 123.317,172.5339 112.462,169.1959 L109.846,168.3909 L108.892,170.9579 C105.053,181.2909 82.299,188.7909 54.787,188.7909 C52.35,188.7909 50.761,188.7099 48.356,188.5869 C47.097,188.5229 45.618,188.4479 43.683,188.3669 C39.459,188.1919 32.128,187.0069 28.774,186.4349 Z M27.851,201.3119 C27.851,210.7059 51.193,218.6429 78.824,218.6429 C106.455,218.6429 129.798,210.7059 129.798,201.3119 L129.798,190.7269 L125.375,193.4559 C115.465,199.5709 98.063,203.2219 78.824,203.2219 C59.584,203.2219 42.183,199.5709 32.273,193.4559 L27.851,190.7259 L27.851,201.3119 Z M78.824,222.4639 C51.893,222.4639 24.036,214.5519 24.036,201.3119 L24.036,185.2529 L21.911,184.6639 C7.986,180.7979 0,174.5929 0,167.6379 L0,148.3959 C0,145.3229 1.595,140.7639 9.192,136.4929 L11.488,135.2029 L10.425,132.7939 C9.908,131.6249 9.635,130.3839 9.613,129.1049 L9.614,109.9129 C9.614,101.4709 20.431,96.5259 26.878,94.3299 L28.844,93.6609 L28.844,52.1869 C28.844,51.1339 29.699,50.2769 30.751,50.2769 L48.073,50.2769 L48.073,37.7559 C48.073,36.7019 48.929,35.8449 49.98,35.8449 L223.044,35.8449 C224.096,35.8449 224.952,36.7029 224.952,37.7579 L224.952,133.9649 C224.952,135.0189 224.097,135.8759 223.045,135.8759 L205.723,135.8759 L205.723,153.2069 C205.723,154.2609 204.867,155.1179 203.815,155.1179 L109.575,155.1179 L109.575,164.4989 L111.694,165.0919 C125.828,169.0439 133.611,175.0739 133.611,182.0699 L133.611,201.3119 C133.611,214.5519 105.755,222.4639 78.824,222.4639 Z" id="Fill-1" fill="#666666" mask="url(#mask-2)"></path>
                </g>
            </g>
        </g>
    </g>
</svg>