<?xml version="1.0" encoding="UTF-8"?>
<svg width="240px" height="240px" viewBox="0 0 240 240" version="1.1" xmlns="http://www.w3.org/2000/svg" xmlns:xlink="http://www.w3.org/1999/xlink">
    <!-- Generator: sketchtool 49 (51002) - http://www.bohemiancoding.com/sketch -->
    <title>96BC9F4A-DC70-4406-A788-67148940EC15</title>
    <desc>Created with sketchtool.</desc>
    <defs>
        <polygon id="path-1" points="0 236 236 236 236 0 0 0"></polygon>
    </defs>
    <g id="Page-1" stroke="none" stroke-width="1" fill="none" fill-rule="evenodd">
        <g id="牛顿PC改2" transform="translate(-360.000000, -2323.000000)">
            <g id="server" transform="translate(359.000000, 2323.000000)">
                <g id="Page-1" transform="translate(0.000000, 4.000000)">
                    <path d="M80.7295,187.4873 C68.6825,185.0903 57.0045,180.1363 46.8395,173.0963 L45.7225,172.3233 L38.1185,177.3933 L19.5645,158.8393 L24.6335,151.2353 L23.8595,150.1183 C16.5365,139.5453 11.4635,127.3093 9.1895,114.7323 L8.9475,113.3943 L0.0005,111.6023 L0.0005,85.3583 L8.9465,83.5623 L9.1885,82.2253 C11.4695,69.6433 16.5415,57.4063 23.8595,46.8393 L24.6335,45.7213 L19.5645,38.1173 L38.1185,19.5643 L45.7225,24.6333 L46.8395,23.8593 C57.4115,16.5373 69.6475,11.4643 82.2265,9.1893 L83.5635,8.9463 L85.3565,0.0003 L111.6005,0.0003 L113.3935,8.9463 L114.7305,9.1883 C127.3125,11.4683 139.5495,16.5423 150.1175,23.8593 L151.2345,24.6333 L158.8385,19.5643 L177.3925,38.1173 L172.3235,45.7213 L173.0965,46.8393 C180.1315,56.9983 185.0855,68.6763 187.4875,80.7273 L183.8095,81.3733 C181.3345,68.9833 176.0795,57.0963 168.5435,46.8823 L167.7695,45.8313 L172.5875,38.5963 L158.3545,24.3643 L151.1215,29.1833 L150.0705,28.4083 C138.7255,20.0403 125.4025,14.5183 111.5415,12.4383 L110.2485,12.2443 L108.5445,3.7293 L88.4125,3.7293 L86.7045,12.2523 L85.4115,12.4463 C71.5495,14.5263 58.2275,20.0493 46.8835,28.4163 L45.8325,29.1913 L38.5975,24.3723 L24.3655,38.6043 L29.1845,45.8393 L28.4095,46.8893 C20.0415,58.2333 14.5195,71.5563 12.4385,85.4173 L12.2455,86.7103 L3.7295,88.4143 L3.7295,108.5453 L12.2495,110.2543 L12.4425,111.5473 C14.5225,125.4083 20.0455,138.7303 28.4135,150.0753 L29.1875,151.1263 L24.3695,158.3593 L38.6015,172.5913 L45.8355,167.7733 L46.8835,168.5453 C57.1005,176.0813 68.9865,181.3373 81.3755,183.8093 L80.7295,187.4873 Z" id="Fill-1" fill="#666666"></path>
                    <path d="M85.9741,28.6665 C74.0221,30.8965 62.7731,36.1595 53.4441,43.8875 L51.6561,45.3685 L53.3861,46.9165 C56.0041,49.2615 60.5141,52.7015 67.1351,55.7745 L68.8221,56.5575 L69.7251,54.9315 C75.6201,44.3185 82.7521,36.6595 87.6961,32.1035 L92.8091,27.3905 L85.9741,28.6665 Z M110.5681,32.0905 C115.4681,36.6115 122.5571,44.2495 128.5101,54.9625 L129.4121,56.5875 L131.0991,55.8065 C137.7361,52.7325 142.2471,49.3045 144.8621,46.9705 L146.5991,45.4185 L144.8041,43.9355 C135.4051,36.1785 124.1641,30.8945 112.2951,28.6555 L105.4451,27.3625 L110.5681,32.0905 Z M101.0271,62.3635 L103.1161,62.2705 C110.3721,61.9505 117.2371,60.7665 123.5171,58.7515 L125.8741,57.9965 L124.6411,55.8515 C117.9491,44.2065 109.8861,36.2675 104.3001,31.6585 L101.0271,28.9585 L101.0271,62.3635 Z M93.9991,31.6785 C88.4271,36.3065 80.3831,44.2585 73.7071,55.8615 L72.4721,58.0075 L74.8301,58.7635 C81.0991,60.7725 87.9481,61.9545 95.1891,62.2745 L97.2771,62.3675 L97.2771,28.9565 L93.9991,31.6785 Z M47.6171,49.3425 C35.6581,61.7115 28.5491,77.9855 27.6001,95.1665 L27.4841,97.2775 L58.5401,97.2775 L58.6131,95.3535 C59.0641,83.4545 61.6641,72.1275 66.3411,61.6875 L67.1441,59.8945 L65.3661,59.0595 C58.1231,55.6575 53.2331,51.8525 50.4071,49.2585 L48.9711,47.9415 L47.6171,49.3425 Z M27.5741,103.1405 C28.5401,120.2605 35.6611,136.5345 47.6251,148.9625 L48.9781,150.3685 L50.4171,149.0515 C53.2751,146.4345 58.2041,142.6045 65.4561,139.2145 L67.2431,138.3795 L66.4331,136.5825 C61.7141,126.1035 59.0871,114.7875 58.6251,102.9495 L58.5501,101.0275 L27.4541,101.0275 L27.5741,103.1405 Z M81.3081,172.5345 C47.7801,164.4035 23.6491,133.8615 23.6491,99.1525 C23.6491,57.5205 57.5201,23.6495 99.1521,23.6495 C133.8611,23.6495 164.4031,47.7795 172.5341,81.3085 L168.8661,82.0955 C165.8761,69.8695 159.6041,58.5905 150.6491,49.3705 L149.2961,47.9765 L147.8631,49.2895 C145.0351,51.8815 140.1391,55.6855 132.8781,59.0855 L131.0981,59.9195 L131.9011,61.7145 C134.7411,68.0535 136.8301,74.6565 138.1221,81.3705 L134.4181,81.9975 C133.1581,75.5035 131.1061,69.1175 128.3101,62.9855 L127.5591,61.3375 L125.8461,61.9215 C118.8451,64.3095 111.1411,65.6875 102.9501,66.0205 L101.0311,66.0995 L101.0311,81.6515 L97.2811,81.6515 L97.2811,66.0905 L95.3611,66.0135 C87.1901,65.6835 79.5101,64.3125 72.5351,61.9375 L70.8241,61.3545 L70.0721,62.9985 C65.5161,72.9485 62.9571,83.7775 62.4641,95.1875 L62.3731,97.2735 L81.6521,97.2735 L81.6521,101.0235 L62.2941,101.0235 L62.3831,103.1085 C62.8641,114.4405 65.4241,125.2835 69.9921,135.3355 L70.7421,136.9865 L72.4571,136.4025 C75.4521,135.3825 78.3801,134.5725 81.3531,133.9425 L82.0301,137.6305 C79.6081,138.1485 77.2141,138.7955 74.7631,139.5945 L72.4251,140.3565 L73.6471,142.4905 C76.0811,146.7415 78.8601,150.7805 81.9231,154.5225 L79.0751,156.9665 C75.6231,152.7545 72.5231,148.1915 69.8451,143.3785 L68.9401,141.7535 L67.2531,142.5385 C60.6941,145.5895 56.1491,149.0155 53.4921,151.3515 L51.7361,152.8965 L53.5341,154.3915 C61.9001,161.3465 71.7371,166.3265 82.0961,168.8665 L81.3081,172.5345 Z" id="Fill-3" fill="#666666"></path>
                    <path d="M232.2549,127.3867 L232.2549,102.4087 C232.2549,99.1807 229.6209,96.5547 226.3829,96.5547 L102.4639,96.5547 C99.2259,96.5547 96.5919,99.1807 96.5919,102.4087 L96.5919,127.3867 L92.8469,127.3867 L92.8469,102.4087 C92.8469,97.1367 97.1609,92.8467 102.4639,92.8467 L226.3829,92.8467 C231.6859,92.8467 235.9999,97.1367 235.9999,102.4087 L235.9999,127.3867 L232.2549,127.3867 Z" id="Fill-5" fill="#666666"></path>
                    <path d="M211.2852,205.3428 C208.0092,205.3428 205.3432,208.0088 205.3432,211.2848 C205.3432,214.5618 208.0092,217.2268 211.2852,217.2268 C214.5612,217.2268 217.2262,214.5618 217.2262,211.2848 C217.2262,208.0088 214.5612,205.3428 211.2852,205.3428 M211.2852,221.1098 C205.8672,221.1098 201.4602,216.7018 201.4602,211.2848 C201.4602,205.8668 205.8672,201.4598 211.2852,201.4598 C216.7022,201.4598 221.1092,205.8668 221.1092,211.2848 C221.1092,216.7018 216.7022,221.1098 211.2852,221.1098" id="Fill-7" fill="#666666"></path>
                    <path d="M179.752,205.3428 C176.476,205.3428 173.811,208.0088 173.811,211.2848 C173.811,214.5618 176.476,217.2268 179.752,217.2268 C183.028,217.2268 185.693,214.5618 185.693,211.2848 C185.693,208.0088 183.028,205.3428 179.752,205.3428 M179.752,221.1098 C174.334,221.1098 169.927,216.7018 169.927,211.2848 C169.927,205.8668 174.334,201.4598 179.752,201.4598 C185.169,201.4598 189.576,205.8668 189.576,211.2848 C189.576,216.7018 185.169,221.1098 179.752,221.1098" id="Fill-9" fill="#666666"></path>
                    <mask id="mask-2" fill="white">
                        <use xlink:href="#path-1"></use>
                    </mask>
                    <g id="Clip-12"></g>
                    <path d="M112.321,217.227 L139.445,217.227 L139.445,205.343 L112.321,205.343 L112.321,217.227 Z M108.613,221.109 L143.153,221.109 L143.153,201.46 L108.613,201.46 L108.613,221.109 Z" id="Fill-11" fill="#666666" mask="url(#mask-2)"></path>
                    <path d="M211.2852,158.9199 C208.0092,158.9199 205.3432,161.5849 205.3432,164.8609 C205.3432,168.1379 208.0092,170.8029 211.2852,170.8029 C214.5612,170.8029 217.2262,168.1379 217.2262,164.8609 C217.2262,161.5849 214.5612,158.9199 211.2852,158.9199 M211.2852,174.6869 C205.8672,174.6869 201.4602,170.2789 201.4602,164.8609 C201.4602,159.4429 205.8672,155.0359 211.2852,155.0359 C216.7022,155.0359 221.1092,159.4429 221.1092,164.8609 C221.1092,170.2789 216.7022,174.6869 211.2852,174.6869" id="Fill-13" fill="#666666" mask="url(#mask-2)"></path>
                    <path d="M179.752,158.9199 C176.476,158.9199 173.811,161.5849 173.811,164.8609 C173.811,168.1379 176.476,170.8029 179.752,170.8029 C183.028,170.8029 185.693,168.1379 185.693,164.8609 C185.693,161.5849 183.028,158.9199 179.752,158.9199 M179.752,174.6869 C174.334,174.6869 169.927,170.2789 169.927,164.8609 C169.927,159.4429 174.334,155.0359 179.752,155.0359 C185.169,155.0359 189.576,159.4429 189.576,164.8609 C189.576,170.2789 185.169,174.6869 179.752,174.6869" id="Fill-14" fill="#666666" mask="url(#mask-2)"></path>
                    <path d="M112.321,170.803 L139.445,170.803 L139.445,158.92 L112.321,158.92 L112.321,170.803 Z M108.613,174.686 L143.153,174.686 L143.153,155.036 L108.613,155.036 L108.613,174.686 Z" id="Fill-15" fill="#666666" mask="url(#mask-2)"></path>
                    <path d="M211.2852,112.4966 C208.0092,112.4966 205.3432,115.1626 205.3432,118.4376 C205.3432,121.7146 208.0092,124.3796 211.2852,124.3796 C214.5612,124.3796 217.2262,121.7146 217.2262,118.4376 C217.2262,115.1626 214.5612,112.4966 211.2852,112.4966 M211.2852,128.2626 C205.8672,128.2626 201.4602,123.8556 201.4602,118.4376 C201.4602,113.0206 205.8672,108.6136 211.2852,108.6136 C216.7022,108.6136 221.1092,113.0206 221.1092,118.4376 C221.1092,123.8556 216.7022,128.2626 211.2852,128.2626" id="Fill-16" fill="#666666" mask="url(#mask-2)"></path>
                    <path d="M179.752,112.4966 C176.476,112.4966 173.811,115.1626 173.811,118.4376 C173.811,121.7146 176.476,124.3796 179.752,124.3796 C183.028,124.3796 185.693,121.7146 185.693,118.4376 C185.693,115.1626 183.028,112.4966 179.752,112.4966 M179.752,128.2626 C174.334,128.2626 169.927,123.8556 169.927,118.4376 C169.927,113.0206 174.334,108.6136 179.752,108.6136 C185.169,108.6136 189.576,113.0206 189.576,118.4376 C189.576,123.8556 185.169,128.2626 179.752,128.2626" id="Fill-17" fill="#666666" mask="url(#mask-2)"></path>
                    <path d="M112.321,124.38 L139.445,124.38 L139.445,112.497 L112.321,112.497 L112.321,124.38 Z M108.613,128.262 L143.153,128.262 L143.153,108.613 L108.613,108.613 L108.613,128.262 Z" id="Fill-18" fill="#666666" mask="url(#mask-2)"></path>
                    <polygon id="Fill-19" fill="#666666" mask="url(#mask-2)" points="232.2549 173.8105 232.2549 142.9785 96.5919 142.9785 96.5919 173.8105 92.8469 173.8105 92.8469 139.2705 235.9999 139.2705 235.9999 173.8105"></polygon>
                    <path d="M96.5918,226.3633 C96.5918,229.6043 99.2258,232.2423 102.4638,232.2423 L226.3828,232.2423 C229.6208,232.2423 232.2548,229.6043 232.2548,226.3633 L232.2548,189.4513 L96.5918,189.4513 L96.5918,226.3633 Z M102.4638,236.0003 C97.1608,236.0003 92.8468,231.6763 92.8468,226.3633 L92.8468,185.6933 L235.9998,185.6933 L235.9998,226.3633 C235.9998,231.6763 231.6858,236.0003 226.3828,236.0003 L102.4638,236.0003 Z" id="Fill-20" fill="#666666" mask="url(#mask-2)"></path>
                </g>
            </g>
        </g>
    </g>
</svg>