<?xml version="1.0" encoding="utf-8"?>
<!-- Generator: Adobe Illustrator 16.0.0, SVG Export Plug-In . SVG Version: 6.00 Build 0)  -->
<!DOCTYPE svg PUBLIC "-//W3C//DTD SVG 1.1//EN" "http://www.w3.org/Graphics/SVG/1.1/DTD/svg11.dtd">
<svg version="1.1" id="图层_1" xmlns="http://www.w3.org/2000/svg" xmlns:xlink="http://www.w3.org/1999/xlink" x="0px" y="0px"
	 width="64px" height="64px" viewBox="0 0 64 64" enable-background="new 0 0 64 64" xml:space="preserve">
<g>
	
		<path fill-rule="evenodd" clip-rule="evenodd" fill="#FFFFFF" stroke="#8D91BD" stroke-width="2" stroke-linecap="round" stroke-linejoin="round" stroke-miterlimit="10" d="
		M4.98,1h45.04C52.221,1,54,2.75,54,4.9v31.2c0,2.15-1.779,3.9-3.98,3.9H4.98C2.78,40,1,38.25,1,36.1V4.9C1,2.75,2.78,1,4.98,1z"/>
	<rect y="37" fill-rule="evenodd" clip-rule="evenodd" fill="#7277AD" width="53" height="4"/>
	
		<path fill-rule="evenodd" clip-rule="evenodd" fill="#FFFFFF" stroke="#7176AC" stroke-width="2" stroke-linecap="round" stroke-linejoin="round" stroke-miterlimit="10" d="
		M13.98,9h45.04C61.221,9,63,10.75,63,12.9v31.2c0,2.15-1.779,3.9-3.98,3.9H13.98c-2.2,0-3.98-1.75-3.98-3.9V12.9
		C10,10.75,11.78,9,13.98,9z"/>
	<rect x="9" y="45" fill-rule="evenodd" clip-rule="evenodd" fill="#686DA7" width="55" height="4"/>
	<rect x="18" y="18" fill-rule="evenodd" clip-rule="evenodd" fill="#686DA7" width="30" height="2"/>
	<rect x="18" y="26" fill-rule="evenodd" clip-rule="evenodd" fill="#686DA7" width="30" height="2"/>
	<rect x="18" y="35" fill-rule="evenodd" clip-rule="evenodd" fill="#686DA7" width="30" height="2"/>
	
		<path fill-rule="evenodd" clip-rule="evenodd" fill="#FFFFFF" stroke="#686DA7" stroke-width="2" stroke-linecap="round" stroke-linejoin="round" stroke-miterlimit="10" d="
		M29.4,28c0-7.73,6.51-14,14.55-14c8.03,0,14.55,6.27,14.55,14c0,7.721-6.52,13.99-14.55,13.99C35.91,41.99,29.4,35.721,29.4,28z"/>
	
		<path fill-rule="evenodd" clip-rule="evenodd" fill="#686DA7" stroke="#686DA7" stroke-width="2" stroke-linecap="round" stroke-linejoin="round" stroke-miterlimit="10" d="
		M25.06,63c-0.12-0.96-0.03-4.561-0.03-5.609c0-7.73,10.91-14.791,18.941-14.791c8.039,0,18.979,7,18.979,14.73
		c0,1.189,0.09,4.55,0.03,5.609L25.06,63z"/>
</g>
</svg>
