<?xml version="1.0" encoding="utf-8"?>
<!-- Generator: Adobe Illustrator 16.0.0, SVG Export Plug-In . SVG Version: 6.00 Build 0)  -->
<!DOCTYPE svg PUBLIC "-//W3C//DTD SVG 1.1//EN" "http://www.w3.org/Graphics/SVG/1.1/DTD/svg11.dtd">
<svg version="1.1" id="图层_1" xmlns="http://www.w3.org/2000/svg" xmlns:xlink="http://www.w3.org/1999/xlink" x="0px" y="0px"
	 width="67.034px" height="65.51px" viewBox="0 0 67.034 65.51" enable-background="new 0 0 67.034 65.51" xml:space="preserve">
<g>
	
		<path fill-rule="evenodd" clip-rule="evenodd" fill="#FFFFFF" stroke="#F58A1E" stroke-width="2" stroke-linecap="round" stroke-linejoin="round" stroke-miterlimit="10" d="
		M1,31.5C1,21.83,8.83,14,18.5,14S36,21.83,36,31.5S28.17,49,18.5,49S1,41.17,1,31.5z"/>
	<circle fill-rule="evenodd" clip-rule="evenodd" fill="#FF9A45" cx="18.5" cy="31.5" r="14.5"/>
	
		<path fill-rule="evenodd" clip-rule="evenodd" fill="#FFFFFF" stroke="#D38555" stroke-width="2" stroke-linecap="round" stroke-linejoin="round" stroke-miterlimit="10" d="
		M46,54c0-5.52,4.48-10,10-10s10,4.48,10,10s-4.48,10-10,10S46,59.52,46,54z"/>
	
		<circle fill-rule="evenodd" clip-rule="evenodd" fill="#FFFFFF" stroke="#D38555" stroke-width="2" stroke-linecap="round" stroke-linejoin="round" stroke-miterlimit="10" cx="48.5" cy="8.5" r="7.5"/>
	<linearGradient id="SVGID_1_" gradientUnits="userSpaceOnUse" x1="48.5244" y1="3.8228" x2="48.477" y2="12.8226">
		<stop  offset="0.0056" style="stop-color:#DDA07B"/>
		<stop  offset="0.1809" style="stop-color:#DA9971"/>
		<stop  offset="0.6918" style="stop-color:#D48757"/>
		<stop  offset="1" style="stop-color:#D1804E"/>
	</linearGradient>
	<path fill-rule="evenodd" clip-rule="evenodd" fill="url(#SVGID_1_)" d="M44,8.5C44,6.01,46.01,4,48.5,4S53,6.01,53,8.5
		S50.99,13,48.5,13S44,10.99,44,8.5z"/>
	<linearGradient id="SVGID_2_" gradientUnits="userSpaceOnUse" x1="61.8486" y1="57.7432" x2="50.0519" y2="50.1933">
		<stop  offset="0.0056" style="stop-color:#DDA07B"/>
		<stop  offset="0.1809" style="stop-color:#DA9971"/>
		<stop  offset="0.6918" style="stop-color:#D48757"/>
		<stop  offset="1" style="stop-color:#D1804E"/>
	</linearGradient>
	<path fill-rule="evenodd" clip-rule="evenodd" fill="url(#SVGID_2_)" d="M49,54c0-3.87,3.13-7,7-7s7,3.13,7,7s-3.13,7-7,7
		S49,57.87,49,54z"/>
	<linearGradient id="SVGID_3_" gradientUnits="userSpaceOnUse" x1="35.5693" y1="20.7104" x2="43.2189" y2="15.6637">
		<stop  offset="0.0056" style="stop-color:#DDA07B"/>
		<stop  offset="0.1809" style="stop-color:#DA9971"/>
		<stop  offset="0.6918" style="stop-color:#D48757"/>
		<stop  offset="1" style="stop-color:#D1804E"/>
	</linearGradient>
	<polygon fill-rule="evenodd" clip-rule="evenodd" fill="url(#SVGID_3_)" points="42.53,13.79 33.189,20.16 35.35,23.18 
		43.54,14.94 	"/>
	<linearGradient id="SVGID_4_" gradientUnits="userSpaceOnUse" x1="47.6563" y1="48.5771" x2="34.1163" y2="40.9925">
		<stop  offset="0.0056" style="stop-color:#DDA07B"/>
		<stop  offset="0.1809" style="stop-color:#DA9971"/>
		<stop  offset="0.6918" style="stop-color:#D48757"/>
		<stop  offset="1" style="stop-color:#D1804E"/>
	</linearGradient>
	<polygon fill-rule="evenodd" clip-rule="evenodd" fill="url(#SVGID_4_)" points="34.84,40.4 49.08,46.83 46.58,50.52 
		33.561,41.689 	"/>
	
		<path fill-rule="evenodd" clip-rule="evenodd" fill="none" stroke="#FFFFFF" stroke-linecap="round" stroke-linejoin="round" stroke-miterlimit="10" d="
		M7,31.5c0-1.93,5.15-3.5,11.5-3.5S30,29.57,30,31.5S24.85,35,18.5,35S7,33.43,7,31.5z"/>
	<path fill="#FFFFFF" stroke="#FFFFFF" stroke-linecap="round" stroke-linejoin="round" stroke-miterlimit="10" d="M17.67,24.68
		c0.39-0.16,0.75-0.56,0.72-1.1c-0.04-0.55-0.63-0.72-1.31-0.47c-1.4,0.52-1.74,2.09-1.91,3.64c-0.04,0.45-0.08,0.89-0.12,1.31
		c-0.32,3.23-0.54,5.41-0.35,8.31c0.04,0.59,0.24,1.239-0.19,1.87c-0.8,0.1-0.6-0.4-1.32-0.131c-1.14,0.431-0.85,1.94,0,1.871
		c0.27-0.03,0.49-0.11,0.78-0.261c1.43-0.77,1.57-2.649,1.76-4.54c0.35-3.54,0.5-5.32,0.36-8.64V26.5
		c-0.02-0.61-0.16-1.62,0.25-1.85C16.74,24.43,17.06,24.92,17.67,24.68z"/>
	<path fill="#FFFFFF" stroke="#FFFFFF" stroke-linecap="round" stroke-linejoin="round" stroke-miterlimit="10" d="M22.62,23.12
		c-1.4,0.51-1.74,2.08-1.91,3.63c-0.05,0.45-0.09,0.89-0.12,1.32c-0.32,3.22-0.55,5.42-0.35,8.32c0.04,0.59,0.24,1.239-0.2,1.869
		c-0.8,0.1-0.59-0.4-1.32-0.13c-1.14,0.431-0.84,1.94,0.01,1.87c0.26-0.03,0.48-0.1,0.78-0.26c1.43-0.771,1.57-2.65,1.76-4.54
		c0.35-3.54,0.49-5.34,0.36-8.66V26.5c-0.03-0.6-0.16-1.62,0.25-1.85c0.39-0.22,0.72,0.27,1.32,0.03c0.39-0.16,0.76-0.56,0.72-1.1
		C23.88,23.03,23.3,22.87,22.62,23.12z"/>
</g>
</svg>
