<?xml version="1.0" encoding="utf-8"?>
<!-- Generator: Adobe Illustrator 16.0.0, SVG Export Plug-In . SVG Version: 6.00 Build 0)  -->
<!DOCTYPE svg PUBLIC "-//W3C//DTD SVG 1.1//EN" "http://www.w3.org/Graphics/SVG/1.1/DTD/svg11.dtd">
<svg version="1.1" id="图层_1" xmlns="http://www.w3.org/2000/svg" xmlns:xlink="http://www.w3.org/1999/xlink" x="0px" y="0px"
	 width="85.046px" height="61.136px" viewBox="0 0 85.046 61.136" enable-background="new 0 0 85.046 61.136" xml:space="preserve">
<g>
	
		<path fill-rule="evenodd" clip-rule="evenodd" fill="#FFFFFF" stroke="#6990D0" stroke-width="2" stroke-linecap="round" stroke-linejoin="round" stroke-miterlimit="10" d="
		M12.136,8.143h45.82c2.26,0,4.09,1.79,4.09,4v32c0,2.209-1.83,4-4.09,4h-45.82c-2.26,0-4.09-1.791-4.09-4v-32
		C8.046,9.933,9.876,8.143,12.136,8.143z"/>
	<rect x="7.046" y="45.143" fill-rule="evenodd" clip-rule="evenodd" fill="#2B62BD" width="56" height="4"/>
	<rect x="20.046" y="49.143" fill-rule="evenodd" clip-rule="evenodd" fill="#2B62BD" width="30" height="2"/>
	
		<path fill-rule="evenodd" clip-rule="evenodd" fill="#FFFFFF" stroke="#2B62BD" stroke-width="2" stroke-linecap="round" stroke-linejoin="round" stroke-miterlimit="10" d="
		M3.826,39.713c0-4.73,4.11-8.57,9.19-8.57c5.07,0,9.18,3.84,9.18,8.57c0,4.729-4.11,8.57-9.18,8.57
		C7.936,48.283,3.826,44.441,3.826,39.713z"/>
	
		<path fill-rule="evenodd" clip-rule="evenodd" fill="#FFFFFF" stroke="#2B62BD" stroke-width="2" stroke-linecap="round" stroke-linejoin="round" stroke-miterlimit="10" d="
		M1.086,60.143c-0.07-0.57-0.02-2.68-0.02-3.301c0-4.549,6.88-8.699,11.95-8.699c5.08,0,12.03,3.641,12.03,8.189v3.811H1.086z"/>
	
		<path fill-rule="evenodd" clip-rule="evenodd" fill="#FFFFFF" stroke="#2D63BE" stroke-width="2" stroke-linecap="round" stroke-linejoin="round" stroke-miterlimit="10" d="
		M39.046,21.143c0-11.05,8.951-20,20-20c11.051,0,20,8.95,20,20c0,11.049-8.949,20-20,20C47.997,41.143,39.046,32.191,39.046,21.143
		z"/>
	<polygon fill-rule="evenodd" clip-rule="evenodd" fill="#FFFFFF" points="37.163,21.893 41.099,21.893 42.083,29.143 
		39.131,29.143 	"/>
	<polygon fill-rule="evenodd" clip-rule="evenodd" fill="#FFFFFF" points="76.046,18.143 80.495,18.143 80.495,23.435 
		77.529,23.435 	"/>
	<path fill-rule="evenodd" clip-rule="evenodd" fill="#2B62BD" d="M35.783,16.143l3.56,4.71l3.91-4.46c1.041,0,1.83,0.38,1.83,1.39
		l-4.109,4.11c-1.48,1.69-2.591,1.64-3.811,0l-3.08-4.2C34.083,16.683,34.753,16.143,35.783,16.143z"/>
	<path fill-rule="evenodd" clip-rule="evenodd" fill="#2B62BD" d="M73.972,29.017l4.559-4.71l3.91,4.46c1.041,0,1.83-0.38,1.83-1.39
		l-4.109-4.11c-1.48-1.69-2.59-1.64-3.811,0l-4.08,4.2C72.271,28.477,72.94,29.017,73.972,29.017z"/>
	
		<path fill-rule="evenodd" clip-rule="evenodd" fill="none" stroke="#B25900" stroke-linecap="round" stroke-linejoin="round" stroke-miterlimit="10" d="
		M47.046,20.643c0-2.49,5.6-4.5,12.5-4.5s12.5,2.01,12.5,4.5s-5.6,4.5-12.5,4.5S47.046,23.133,47.046,20.643z"/>
	<path fill="#B7630F" d="M58.716,13.823c0.391-0.16,0.75-0.56,0.721-1.1c-0.041-0.55-0.631-0.72-1.311-0.47
		c-1.4,0.52-1.74,2.09-1.91,3.64c-0.039,0.45-0.08,0.89-0.119,1.31c-0.32,3.23-0.93,5.29-0.74,8.18c0.039,0.6,0.24,1.25-0.189,1.87
		c-0.801,0.11-0.211-0.27-0.932,0c-1.139,0.43-0.85,1.94,0,1.87c0.271-0.03,0.49-0.11,0.781-0.26c1.43-0.77,1.57-2.649,1.76-4.54
		c0.35-3.54,0.68-5.38,0.549-8.7l0.051,0.02c-0.029-0.61-0.051-1.31,0.359-1.55C58.126,13.873,58.106,14.063,58.716,13.823z"/>
	<path fill="#B7630F" d="M63.667,12.263c-1.4,0.51-1.74,2.08-1.91,3.63c-0.051,0.45-0.09,0.89-0.131,1.32
		c-0.311,3.22-0.709,5.47-0.52,8.37c0.039,0.59,0.189,0.97-0.121,1.56c-0.17,0.33-0.488-0.14-1.219,0.13
		c-1.141,0.43-0.84,1.94,0.01,1.87c0.26-0.03,0.799-0.11,1.1-0.27c1.43-0.76,1.25-2.64,1.439-4.53c0.352-3.54,0.811-5.36,0.682-8.68
		l-0.031-0.08c-0.029-0.61-0.061-1.35,0.16-1.5c0.371-0.27,0.52-0.02,1.121-0.26c0.389-0.16,0.76-0.56,0.719-1.1
		C64.927,12.173,64.347,12.013,63.667,12.263z"/>
</g>
</svg>
