<?xml version="1.0" encoding="utf-8"?>
<!-- Generator: Adobe Illustrator 16.0.0, SVG Export Plug-In . SVG Version: 6.00 Build 0)  -->
<!DOCTYPE svg PUBLIC "-//W3C//DTD SVG 1.1//EN" "http://www.w3.org/Graphics/SVG/1.1/DTD/svg11.dtd">
<svg version="1.1" id="图层_1" xmlns="http://www.w3.org/2000/svg" xmlns:xlink="http://www.w3.org/1999/xlink" x="0px" y="0px"
	 width="86.997px" height="61.864px" viewBox="0 0 86.997 61.864" enable-background="new 0 0 86.997 61.864" xml:space="preserve">
<g>
	
		<line fill-rule="evenodd" clip-rule="evenodd" fill="none" stroke="#17B599" stroke-width="2" stroke-linecap="round" stroke-linejoin="round" stroke-miterlimit="10" x1="1.5" y1="33.845" x2="43.5" y2="52.845"/>
	
		<line fill-rule="evenodd" clip-rule="evenodd" fill="none" stroke="#17B599" stroke-width="2" stroke-linecap="round" stroke-linejoin="round" stroke-miterlimit="10" x1="43.5" y1="52.845" x2="85.5" y2="32.845"/>
	
		<line fill-rule="evenodd" clip-rule="evenodd" fill="none" stroke="#17B599" stroke-width="2" stroke-linecap="round" stroke-linejoin="round" stroke-miterlimit="10" x1="1.5" y1="41.845" x2="43.5" y2="60.845"/>
	
		<line fill-rule="evenodd" clip-rule="evenodd" fill="none" stroke="#17B599" stroke-width="2" stroke-linecap="round" stroke-linejoin="round" stroke-miterlimit="10" x1="43.5" y1="60.845" x2="85.5" y2="40.845"/>
	<path fill-rule="evenodd" clip-rule="evenodd" fill="#19C5A6" d="M46.1,1.345l39.719,20.45c1.57,1.58,1.57,2.74,0,4.32
		L46.02,45.425c-2.03,1.12-3.71,1.33-5.701,0L1.24,26.795c-1.57-1.58-1.69-4.12-0.12-5.7l39.29-19.75
		C42.41-0.015,44.44,0.035,46.1,1.345z"/>
	<path fill-rule="evenodd" clip-rule="evenodd" fill="#FFFFFF" d="M57.35,14.345L36.58,24.815H34.6l-4.94-3.6H29v1.64
		c0,0,3.19,9.41,4.62,9.49C35.04,32.425,59,16.965,59,16.965L57.35,14.345z"/>
</g>
</svg>
