<?xml version="1.0" encoding="utf-8"?>
<!-- Generator: Adobe Illustrator 16.0.0, SVG Export Plug-In . SVG Version: 6.00 Build 0)  -->
<!DOCTYPE svg PUBLIC "-//W3C//DTD SVG 1.1//EN" "http://www.w3.org/Graphics/SVG/1.1/DTD/svg11.dtd">
<svg version="1.1" id="图层_1" xmlns="http://www.w3.org/2000/svg" xmlns:xlink="http://www.w3.org/1999/xlink" x="0px" y="0px"
	 width="63.325px" height="60px" viewBox="0 0 63.325 60" enable-background="new 0 0 63.325 60" xml:space="preserve">
<g>
	<linearGradient id="SVGID_1_" gradientUnits="userSpaceOnUse" x1="43.3247" y1="0" x2="43.3247" y2="60">
		<stop  offset="0" style="stop-color:#333333"/>
		<stop  offset="1" style="stop-color:#1A1A1A"/>
	</linearGradient>
	<path fill-rule="evenodd" clip-rule="evenodd" fill="url(#SVGID_1_)" d="M27.324,0h32c2.209,0,4,1.75,4,3.92v52.16
		c0,2.17-1.791,3.92-4,3.92h-32c-2.21,0-4-1.75-4-3.92V3.92C23.324,1.75,25.114,0,27.324,0z"/>
	<path fill-rule="evenodd" clip-rule="evenodd" fill="#FFFFFF" d="M35.324,7h16c1.1,0,2,0.88,2,1.96v16.08c0,1.08-0.9,1.96-2,1.96
		h-16c-1.1,0-2-0.88-2-1.96V8.96C33.324,7.88,34.224,7,35.324,7z"/>
	<path fill-rule="evenodd" clip-rule="evenodd" fill="#FFFFFF" d="M35.324,33h16c1.1,0,2,0.88,2,1.96v16.081
		c0,1.08-0.9,1.959-2,1.959h-16c-1.1,0-2-0.879-2-1.959V34.96C33.324,33.88,34.224,33,35.324,33z"/>
	<rect x="17.324" y="16" fill-rule="evenodd" clip-rule="evenodd" fill="#161616" width="6" height="2"/>
	<rect x="17.324" y="42" fill-rule="evenodd" clip-rule="evenodd" fill="#161616" width="6" height="2"/>
	
		<circle fill-rule="evenodd" clip-rule="evenodd" fill="#FFFFFF" stroke="#191919" stroke-width="2" stroke-linecap="round" stroke-linejoin="round" stroke-miterlimit="10" cx="9.324" cy="17" r="8"/>
	
		<circle fill-rule="evenodd" clip-rule="evenodd" fill="#FFFFFF" stroke="#191919" stroke-width="2" stroke-linecap="round" stroke-linejoin="round" stroke-miterlimit="10" cx="9.324" cy="43" r="8"/>
</g>
</svg>
