<?xml version="1.0" encoding="utf-8"?>
<!-- Generator: Adobe Illustrator 16.0.0, SVG Export Plug-In . SVG Version: 6.00 Build 0)  -->
<!DOCTYPE svg PUBLIC "-//W3C//DTD SVG 1.1//EN" "http://www.w3.org/Graphics/SVG/1.1/DTD/svg11.dtd">
<svg version="1.1" id="图层_1" xmlns="http://www.w3.org/2000/svg" xmlns:xlink="http://www.w3.org/1999/xlink" x="0px" y="0px"
	 width="85.572px" height="63.415px" viewBox="0 0 85.572 63.415" enable-background="new 0 0 85.572 63.415" xml:space="preserve">
<g>
	
		<line fill-rule="evenodd" clip-rule="evenodd" fill="none" stroke="#607393" stroke-width="2" stroke-linecap="square" stroke-linejoin="round" stroke-miterlimit="10" x1="61.905" y1="44.465" x2="70.786" y2="44.465"/>
	
		<line fill-rule="evenodd" clip-rule="evenodd" fill="none" stroke="#607393" stroke-width="2" stroke-linecap="square" stroke-linejoin="round" stroke-miterlimit="10" x1="15.166" y1="44.465" x2="24.575" y2="44.465"/>
	
		<line fill-rule="evenodd" clip-rule="evenodd" fill="none" stroke="#607393" stroke-width="2" stroke-linecap="square" stroke-linejoin="round" stroke-miterlimit="10" x1="25.065" y1="27.475" x2="18.695" y2="20.655"/>
	
		<line fill-rule="evenodd" clip-rule="evenodd" fill="none" stroke="#607393" stroke-width="2" stroke-linecap="square" stroke-linejoin="round" stroke-miterlimit="10" x1="61.106" y1="27.415" x2="68.206" y2="20.395"/>
	
		<line fill-rule="evenodd" clip-rule="evenodd" fill="none" stroke="#607393" stroke-width="2" stroke-linecap="square" stroke-linejoin="round" stroke-miterlimit="10" x1="43.075" y1="27.295" x2="43.075" y2="15.305"/>
	
		<path fill-rule="evenodd" clip-rule="evenodd" fill="#FFFFFF" stroke="#465674" stroke-width="2" stroke-linecap="square" stroke-linejoin="round" stroke-miterlimit="10" d="
		M7.025,14.415c0-3.87,3.13-7,7-7s7,3.13,7,7s-3.13,7-7,7S7.025,18.285,7.025,14.415z"/>
	
		<path fill-rule="evenodd" clip-rule="evenodd" fill="#FFFFFF" stroke="#465674" stroke-width="2" stroke-linecap="square" stroke-linejoin="round" stroke-miterlimit="10" d="
		M1.025,44.415c0-3.87,3.13-7,7-7s7,3.13,7,7c0,3.871-3.13,7-7,7S1.025,48.286,1.025,44.415z"/>
	
		<path fill-rule="evenodd" clip-rule="evenodd" fill="#FFFFFF" stroke="#465674" stroke-width="2" stroke-linecap="square" stroke-linejoin="round" stroke-miterlimit="10" d="
		M36.026,8.415c0-3.87,3.129-7,7-7c3.869,0,7,3.13,7,7s-3.131,7-7,7C39.155,15.415,36.026,12.285,36.026,8.415z"/>
	
		<path fill-rule="evenodd" clip-rule="evenodd" fill="#FFFFFF" stroke="#465674" stroke-width="2" stroke-linecap="square" stroke-linejoin="round" stroke-miterlimit="10" d="
		M66.026,14.415c0-3.87,3.129-7,7-7c3.869,0,7,3.13,7,7s-3.131,7-7,7C69.155,21.415,66.026,18.285,66.026,14.415z"/>
	<linearGradient id="SVGID_1_" gradientUnits="userSpaceOnUse" x1="43.0259" y1="27.415" x2="43.0259" y2="63.415">
		<stop  offset="0" style="stop-color:#647898"/>
		<stop  offset="1" style="stop-color:#435573"/>
	</linearGradient>
	<rect x="25.025" y="27.415" fill-rule="evenodd" clip-rule="evenodd" fill="url(#SVGID_1_)" width="36" height="36"/>
	
		<path fill-rule="evenodd" clip-rule="evenodd" fill="#FFFFFF" stroke="#FFFFFF" stroke-width="2" stroke-linecap="round" stroke-linejoin="round" stroke-miterlimit="10" d="
		M37.946,40.915c0-2.979,2.379-5.39,5.31-5.39s5.3,2.41,5.3,5.39c0,2.98-2.369,5.391-5.3,5.391S37.946,43.895,37.946,40.915z"/>
	
		<path fill-rule="evenodd" clip-rule="evenodd" fill="#FFFFFF" stroke="#FFFFFF" stroke-width="2" stroke-linecap="round" stroke-linejoin="round" stroke-miterlimit="10" d="
		M36.366,54.395c-0.041-0.37-0.01-1.75-0.01-2.16c0-2.98,3.979-5.689,6.91-5.689c2.93,0,6.92,2.689,6.92,5.67
		c0,0.46,0.029,1.75,0.01,2.16L36.366,54.395z"/>
	
		<path fill-rule="evenodd" clip-rule="evenodd" fill="#FFFFFF" stroke="#465674" stroke-width="2" stroke-linecap="square" stroke-linejoin="round" stroke-miterlimit="10" d="
		M71.026,44.415c0-3.87,3.129-7,7-7c3.869,0,7,3.13,7,7c0,3.871-3.131,7-7,7C74.155,51.415,71.026,48.286,71.026,44.415z"/>
</g>
</svg>
