<?xml version="1.0" encoding="utf-8"?>
<!-- Generator: Adobe Illustrator 16.0.0, SVG Export Plug-In . SVG Version: 6.00 Build 0)  -->
<!DOCTYPE svg PUBLIC "-//W3C//DTD SVG 1.1//EN" "http://www.w3.org/Graphics/SVG/1.1/DTD/svg11.dtd">
<svg version="1.1" id="图层_1" xmlns="http://www.w3.org/2000/svg" xmlns:xlink="http://www.w3.org/1999/xlink" x="0px" y="0px"
	 width="78px" height="60.034px" viewBox="0 0 78 60.034" enable-background="new 0 0 78 60.034" xml:space="preserve">
<g>
	<path fill-rule="evenodd" clip-rule="evenodd" d="M1.5,54.034h75c0.83,0,1.5,0.67,1.5,1.5s-0.67,1.5-1.5,1.5h-75
		c-0.83,0-1.5-0.67-1.5-1.5S0.67,54.034,1.5,54.034z"/>
	<path fill-rule="evenodd" clip-rule="evenodd" d="M38,50.803v-11.54c0-0.13,0.67-0.23,1.5-0.23s1.5,0.1,1.5,0.23v11.54
		c0,0.13-0.67,0.23-1.5,0.23S38,50.933,38,50.803z"/>
	
		<circle fill-rule="evenodd" clip-rule="evenodd" fill="#FFFFFF" stroke="#495977" stroke-linecap="round" stroke-linejoin="round" stroke-miterlimit="10" cx="40" cy="55.034" r="5"/>
	
		<path fill-rule="evenodd" clip-rule="evenodd" fill="#FFFFFF" stroke="#485876" stroke-width="2" stroke-linecap="round" stroke-linejoin="round" stroke-miterlimit="10" d="
		M21,1.033h36c3.869,0,7,3.13,7,7s-3.131,7-7,7H21c-3.87,0-7-3.13-7-7S17.13,1.033,21,1.033z"/>
	
		<path fill-rule="evenodd" clip-rule="evenodd" fill="#FFFFFF" stroke="#485876" stroke-width="2" stroke-linecap="round" stroke-linejoin="round" stroke-miterlimit="10" d="
		M21,15.033h36c3.869,0,7,3.13,7,7s-3.131,7-7,7H21c-3.87,0-7-3.13-7-7S17.13,15.033,21,15.033z"/>
	
		<path fill-rule="evenodd" clip-rule="evenodd" fill="#FFFFFF" stroke="#485876" stroke-width="2" stroke-linecap="round" stroke-linejoin="round" stroke-miterlimit="10" d="
		M21,29.033h36c3.869,0,7,3.13,7,7s-3.131,7-7,7H21c-3.87,0-7-3.13-7-7S17.13,29.033,21,29.033z"/>
	
		<path fill-rule="evenodd" clip-rule="evenodd" fill="#FFFFFF" stroke="#495977" stroke-width="2" stroke-linecap="round" stroke-linejoin="round" stroke-miterlimit="10" d="
		M21,8.033c0-1.1,0.9-2,2-2s2,0.9,2,2s-0.9,2-2,2S21,9.133,21,8.033z"/>
	
		<path fill-rule="evenodd" clip-rule="evenodd" fill="#FFFFFF" stroke="#495977" stroke-width="2" stroke-linecap="round" stroke-linejoin="round" stroke-miterlimit="10" d="
		M21,22.033c0-1.1,0.9-2,2-2s2,0.9,2,2s-0.9,2-2,2S21,23.133,21,22.033z"/>
	
		<path fill-rule="evenodd" clip-rule="evenodd" fill="#FFFFFF" stroke="#495977" stroke-width="2" stroke-linecap="round" stroke-linejoin="round" stroke-miterlimit="10" d="
		M21,36.033c0-1.1,0.9-2,2-2s2,0.9,2,2s-0.9,2-2,2S21,37.133,21,36.033z"/>
</g>
</svg>
