<?xml version="1.0" encoding="utf-8"?>
<!-- Generator: Adobe Illustrator 16.0.0, SVG Export Plug-In . SVG Version: 6.00 Build 0)  -->
<!DOCTYPE svg PUBLIC "-//W3C//DTD SVG 1.1//EN" "http://www.w3.org/Graphics/SVG/1.1/DTD/svg11.dtd">
<svg version="1.1" id="图层_1" xmlns="http://www.w3.org/2000/svg" xmlns:xlink="http://www.w3.org/1999/xlink" x="0px" y="0px"
	 width="63.775px" height="62px" viewBox="0 0 63.775 62" enable-background="new 0 0 63.775 62" xml:space="preserve">
<g>
	<linearGradient id="SVGID_1_" gradientUnits="userSpaceOnUse" x1="18.0005" y1="60.0005" x2="18.0005" y2="4.882813e-004">
		<stop  offset="0" style="stop-color:#000000"/>
		<stop  offset="1" style="stop-color:#555555"/>
	</linearGradient>
	<path fill-rule="evenodd" clip-rule="evenodd" fill="url(#SVGID_1_)" d="M5.4,0h25.2c2.98,0,5.4,2.42,5.4,5.4v49.2
		c0,2.98-2.42,5.4-5.4,5.4H5.4C2.42,60,0,57.581,0,54.6V5.4C0,2.42,2.42,0,5.4,0z"/>
	<linearGradient id="SVGID_2_" gradientUnits="userSpaceOnUse" x1="40.0005" y1="32" x2="40.0005" y2="62.001">
		<stop  offset="0" style="stop-color:#E1B45B"/>
		<stop  offset="1" style="stop-color:#FF9A44"/>
	</linearGradient>
	<path fill-rule="evenodd" clip-rule="evenodd" fill="url(#SVGID_2_)" d="M21.6,32h36.8C60.94,32,63,34.02,63,36.5v21
		c0,2.49-2.061,4.5-4.601,4.5H21.6c-2.54,0-4.6-2.01-4.6-4.5v-21C17,34.02,19.06,32,21.6,32z"/>
	<rect x="44" y="41" fill-rule="evenodd" clip-rule="evenodd" fill="#FFFFFF" width="12" height="2"/>
	<rect x="44" y="46" fill-rule="evenodd" clip-rule="evenodd" fill="#FFFFFF" width="12" height="2"/>
	<rect x="44" y="51" fill-rule="evenodd" clip-rule="evenodd" fill="#FFFFFF" width="12" height="2"/>
	<circle fill-rule="evenodd" clip-rule="evenodd" fill="#00FF7F" cx="29.5" cy="14.5" r="1.5"/>
	<circle fill-rule="evenodd" clip-rule="evenodd" fill="#FF0000" cx="24.5" cy="14.5" r="1.5"/>
	<rect x="23" y="38" fill-rule="evenodd" clip-rule="evenodd" fill="#FFFFFF" width="16" height="18"/>
	<path fill-rule="evenodd" clip-rule="evenodd" fill="#040404" d="M28,47c0-1.66,1.34-3,3-3c1.659,0,3,1.34,3,3s-1.341,3-3,3
		C29.34,50,28,48.661,28,47z"/>
	<path fill-rule="evenodd" clip-rule="evenodd" fill="#040404" d="M26.02,56c-0.03-0.291-0.01-1.391-0.01-1.721
		c0-2.359,2.949-5.31,5.07-5.31c2.109,0,4.909,2.93,4.909,5.29c0,0.369,0.021,1.4,0,1.72L26.02,56z"/>
	
		<line fill-rule="evenodd" clip-rule="evenodd" fill="none" stroke="#030303" stroke-width="2" stroke-linecap="round" stroke-linejoin="round" stroke-miterlimit="10" x1="40" y1="10" x2="57" y2="10"/>
	
		<line fill-rule="evenodd" clip-rule="evenodd" fill="none" stroke="#030303" stroke-width="2" stroke-linecap="round" stroke-linejoin="round" stroke-miterlimit="10" x1="57" y1="10" x2="57" y2="25"/>
	
		<line fill-rule="evenodd" clip-rule="evenodd" fill="none" stroke="#030303" stroke-width="2" stroke-linecap="square" stroke-linejoin="round" stroke-miterlimit="10" x1="52.2" y1="21.5" x2="57.41" y2="25.82"/>
	
		<line fill-rule="evenodd" clip-rule="evenodd" fill="none" stroke="#030303" stroke-width="2" stroke-linecap="square" stroke-linejoin="round" stroke-miterlimit="10" x1="57.74" y1="25.2" x2="62.35" y2="20.81"/>
	
		<line fill-rule="evenodd" clip-rule="evenodd" fill="none" stroke="#030303" stroke-width="2" stroke-linecap="square" stroke-linejoin="round" stroke-miterlimit="10" x1="43" y1="5.99" x2="38.53" y2="9.59"/>
	
		<line fill-rule="evenodd" clip-rule="evenodd" fill="none" stroke="#030303" stroke-width="2" stroke-linecap="square" stroke-linejoin="round" stroke-miterlimit="10" x1="39.12" y1="10.27" x2="43.09" y2="14.05"/>
</g>
</svg>
