<?xml version="1.0" encoding="utf-8"?>
<!-- Generator: Adobe Illustrator 16.0.0, SVG Export Plug-In . SVG Version: 6.00 Build 0)  -->
<!DOCTYPE svg PUBLIC "-//W3C//DTD SVG 1.1//EN" "http://www.w3.org/Graphics/SVG/1.1/DTD/svg11.dtd">
<svg version="1.1" id="图层_1" xmlns="http://www.w3.org/2000/svg" xmlns:xlink="http://www.w3.org/1999/xlink" x="0px" y="0px"
	 width="67.145px" height="62px" viewBox="0 0 67.145 62" enable-background="new 0 0 67.145 62" xml:space="preserve">
<g>
	<rect x="51" y="7" fill-rule="evenodd" clip-rule="evenodd" width="12" height="3"/>
	<rect x="51" y="53" fill-rule="evenodd" clip-rule="evenodd" width="12" height="3"/>
	<rect x="51" y="30" fill-rule="evenodd" clip-rule="evenodd" width="12" height="3"/>
	<rect x="63" y="7" fill-rule="evenodd" clip-rule="evenodd" width="3" height="49"/>
	<linearGradient id="SVGID_1_" gradientUnits="userSpaceOnUse" x1="26.0005" y1="16" x2="26.0005" y2="2">
		<stop  offset="0" style="stop-color:#000000"/>
		<stop  offset="1" style="stop-color:#555555"/>
	</linearGradient>
	
		<path fill-rule="evenodd" clip-rule="evenodd" fill="url(#SVGID_1_)" stroke="#000000" stroke-width="2" stroke-linecap="round" stroke-linejoin="round" stroke-miterlimit="10" d="
		M8,2h36c3.869,0,7,3.13,7,7s-3.131,7-7,7H8c-3.87,0-7-3.13-7-7S4.13,2,8,2z"/>
	<linearGradient id="SVGID_2_" gradientUnits="userSpaceOnUse" x1="26.0005" y1="38" x2="26.0005" y2="24">
		<stop  offset="0" style="stop-color:#000000"/>
		<stop  offset="1" style="stop-color:#555555"/>
	</linearGradient>
	
		<path fill-rule="evenodd" clip-rule="evenodd" fill="url(#SVGID_2_)" stroke="#000000" stroke-width="2" stroke-linecap="round" stroke-linejoin="round" stroke-miterlimit="10" d="
		M8,24h36c3.869,0,7,3.13,7,7s-3.131,7-7,7H8c-3.87,0-7-3.13-7-7S4.13,24,8,24z"/>
	<linearGradient id="SVGID_3_" gradientUnits="userSpaceOnUse" x1="26.0005" y1="61.0005" x2="26.0005" y2="47.0005">
		<stop  offset="0" style="stop-color:#000000"/>
		<stop  offset="1" style="stop-color:#555555"/>
	</linearGradient>
	
		<path fill-rule="evenodd" clip-rule="evenodd" fill="url(#SVGID_3_)" stroke="#000000" stroke-width="2" stroke-linecap="round" stroke-linejoin="round" stroke-miterlimit="10" d="
		M8,47h36c3.869,0,7,3.129,7,7c0,3.869-3.131,7-7,7H8c-3.87,0-7-3.131-7-7C1,50.129,4.13,47,8,47z"/>
	<path fill-rule="evenodd" clip-rule="evenodd" fill="#00FF00" d="M8,9c0-1.1,0.9-2,2-2s2,0.9,2,2s-0.9,2-2,2S8,10.1,8,9z"/>
	<path fill-rule="evenodd" clip-rule="evenodd" fill="#00FF00" d="M8,31c0-1.1,0.9-2,2-2s2,0.9,2,2s-0.9,2-2,2S8,32.1,8,31z"/>
	<path fill-rule="evenodd" clip-rule="evenodd" fill="#00FF00" d="M8,54c0-1.101,0.9-2,2-2s2,0.899,2,2c0,1.1-0.9,2-2,2S8,55.1,8,54
		z"/>
	<path fill-rule="evenodd" clip-rule="evenodd" fill="#FFFFFF" stroke="#1B1464" stroke-miterlimit="10" d="M62.5,8.5
		c0-1.1,0.9-2,2-2s2,0.9,2,2s-0.9,2-2,2S62.5,9.6,62.5,8.5z"/>
	<path fill-rule="evenodd" clip-rule="evenodd" fill="#FFFFFF" stroke="#1B1464" stroke-miterlimit="10" d="M62.5,31.5
		c0-1.1,0.9-2,2-2s2,0.9,2,2s-0.9,2-2,2S62.5,32.6,62.5,31.5z"/>
	<path fill-rule="evenodd" clip-rule="evenodd" fill="#FFFFFF" stroke="#1B1464" stroke-miterlimit="10" d="M62.5,54.5
		c0-1.102,0.9-2,2-2s2,0.898,2,2c0,1.1-0.9,2-2,2S62.5,55.6,62.5,54.5z"/>
</g>
</svg>
