<?xml version="1.0" encoding="utf-8"?>
<!-- Generator: Adobe Illustrator 16.0.0, SVG Export Plug-In . SVG Version: 6.00 Build 0)  -->
<!DOCTYPE svg PUBLIC "-//W3C//DTD SVG 1.1//EN" "http://www.w3.org/Graphics/SVG/1.1/DTD/svg11.dtd">
<svg version="1.1" id="图层_1" xmlns="http://www.w3.org/2000/svg" xmlns:xlink="http://www.w3.org/1999/xlink" x="0px" y="0px"
	 width="82.5px" height="81.001px" viewBox="0 0 82.5 81.001" enable-background="new 0 0 82.5 81.001" xml:space="preserve">
<g>
	<g>
		<linearGradient id="SVGID_1_" gradientUnits="userSpaceOnUse" x1="43.5005" y1="24.9995" x2="43.5005" y2="80.9995">
			<stop  offset="0" style="stop-color:#637797"/>
			<stop  offset="0.3719" style="stop-color:#5B6E8E"/>
			<stop  offset="0.9885" style="stop-color:#465674"/>
			<stop  offset="0.9944" style="stop-color:#465674"/>
		</linearGradient>
		<path fill-rule="evenodd" clip-rule="evenodd" fill="url(#SVGID_1_)" d="M15.5,52.999C15.5,37.538,28.04,25,43.501,25
			c15.459,0,28,12.538,28,27.999c0,15.459-12.541,28-28,28C28.04,80.999,15.5,68.458,15.5,52.999z"/>
	</g>
	<linearGradient id="SVGID_2_" gradientUnits="userSpaceOnUse" x1="43.0005" y1="-4.882813e-004" x2="43.0005" y2="9.9995">
		<stop  offset="0" style="stop-color:#9BCAB9"/>
		<stop  offset="0.4173" style="stop-color:#93C1B0"/>
		<stop  offset="0.9944" style="stop-color:#80AC9D"/>
	</linearGradient>
	<circle fill-rule="evenodd" clip-rule="evenodd" fill="url(#SVGID_2_)" cx="43" cy="5" r="5"/>
	<linearGradient id="SVGID_3_" gradientUnits="userSpaceOnUse" x1="8" y1="17.9995" x2="8" y2="33.9985">
		<stop  offset="0" style="stop-color:#FDBEAC"/>
		<stop  offset="0.3366" style="stop-color:#F4BAAC"/>
		<stop  offset="0.8945" style="stop-color:#DAB1AE"/>
		<stop  offset="0.9944" style="stop-color:#D5AFAE"/>
	</linearGradient>
	<circle fill-rule="evenodd" clip-rule="evenodd" fill="url(#SVGID_3_)" cx="8" cy="26" r="8"/>
	
		<circle fill-rule="evenodd" clip-rule="evenodd" fill="#F5F5F5" stroke="#A87655" stroke-linecap="round" stroke-linejoin="round" stroke-miterlimit="10" cx="77" cy="23" r="5"/>
	
		<ellipse fill-rule="evenodd" clip-rule="evenodd" fill="none" stroke="#FFFFFF" stroke-width="2" stroke-linecap="round" stroke-linejoin="round" stroke-miterlimit="10" cx="43.392" cy="51.714" rx="12.761" ry="14.163"/>
	
		<path fill-rule="evenodd" clip-rule="evenodd" fill="none" stroke="#FFFFFF" stroke-width="2" stroke-linecap="round" stroke-linejoin="round" stroke-miterlimit="10" d="
		M50.843,39.243c4.137-1.038,7.351-0.605,8.535,1.522c2.185,3.926-3.375,12.14-12.42,18.343c-9.044,6.204-18.148,8.053-20.334,4.129
		c-1.273-2.285,0.079-6.021,3.214-9.968"/>
	<path display="none" fill="none" stroke="#FFFFFF" stroke-linecap="round" stroke-linejoin="round" stroke-miterlimit="10" d="
		M136.776,51.163c25.697-1.155-31.875,34.704-18.541,10.429"/>
</g>
</svg>
