<?xml version="1.0" encoding="utf-8"?>
<!-- Generator: Adobe Illustrator 16.0.0, SVG Export Plug-In . SVG Version: 6.00 Build 0)  -->
<!DOCTYPE svg PUBLIC "-//W3C//DTD SVG 1.1//EN" "http://www.w3.org/Graphics/SVG/1.1/DTD/svg11.dtd">
<svg version="1.1" id="图层_1" xmlns="http://www.w3.org/2000/svg" xmlns:xlink="http://www.w3.org/1999/xlink" x="0px" y="0px"
	 width="76.08px" height="73.979px" viewBox="0 0 76.08 73.979" enable-background="new 0 0 76.08 73.979" xml:space="preserve">
<g>
	<linearGradient id="SVGID_1_" gradientUnits="userSpaceOnUse" x1="35" y1="0" x2="35" y2="70.0005">
		<stop  offset="0" style="stop-color:#98C7B6"/>
		<stop  offset="0.5443" style="stop-color:#90BEAE"/>
		<stop  offset="0.9944" style="stop-color:#85B2A3"/>
	</linearGradient>
	<circle fill-rule="evenodd" clip-rule="evenodd" fill="url(#SVGID_1_)" cx="35" cy="35" r="35"/>
	
		<path fill-rule="evenodd" clip-rule="evenodd" fill="#FFFFFF" stroke="#85B2A3" stroke-width="2" stroke-linecap="round" stroke-linejoin="round" stroke-miterlimit="10" d="
		M39.5,43h31c2.49,0,4.5,2.01,4.5,4.5v21c0,2.49-2.01,4.5-4.5,4.5h-31c-2.49,0-4.5-2.01-4.5-4.5v-21C35,45.01,37.01,43,39.5,43z"/>
	<g>
		<g>
			<polygon fill-rule="evenodd" clip-rule="evenodd" fill="#FFFFFF" points="42,15 46.96,18.51 52,21.91 50.03,27.48 48.18,33.09 
				42,33.03 35.82,33.09 33.97,27.48 32,21.91 37.04,18.51 			"/>
		</g>
		
			<path fill-rule="evenodd" clip-rule="evenodd" fill="#FFFFFF" stroke="#8EBCAC" stroke-width="2" stroke-linecap="round" stroke-linejoin="round" stroke-miterlimit="10" d="
			M38.43,24.99c0.03-1.88,1.641-3.39,3.601-3.39c1.97,0,3.55,1.51,3.54,3.39c-0.01,1.88-1.62,3.41-3.601,3.41
			C39.99,28.4,38.4,26.87,38.43,24.99z"/>
		<g>
			<path fill-rule="evenodd" clip-rule="evenodd" fill="#FFFFFF" d="M26,26.27c1.095-0.081,2.485,3.62,2.73,3.65
				s3.131-2.498,4.12-1.96s0.418,4.336,0.71,4.5s3.998-0.563,4.56,0.17s-1.535,4.154-1.45,4.33s4.009,0.873,3.95,2.26
				s-3.325,2.829-3.3,3.15s2.723,2.674,2.45,3.85s-4.252,0.977-4.38,1.26s1.292,3.752,0.38,4.55s-4.113-1.094-4.47-0.93
				s-0.308,3.864-1.77,4.199s-3.238-2.938-3.53-2.89s-2.475,3.211-3.53,2.89s-1.529-4.109-1.77-4.199s-3.431,1.513-4.47,0.93
				s0.646-4.216,0.38-4.55s-3.901-0.286-4.38-1.26s2.414-3.353,2.45-3.85s-3.286-2.159-3.3-3.15s3.75-1.922,3.95-2.26
				s-1.969-3.411-1.45-4.33s4.256-0.009,4.56-0.17s-0.287-3.974,0.71-4.5s3.946,2.019,4.12,1.96S24.905,26.351,26,26.27z"/>
		</g>
		
			<path fill-rule="evenodd" clip-rule="evenodd" fill="#FFFFFF" stroke="#8EBCAC" stroke-width="2" stroke-linecap="round" stroke-linejoin="round" stroke-miterlimit="10" d="
			M21,40.98c0.04-2.76,2.3-4.98,5.05-4.98s4.96,2.22,4.95,4.98C30.99,43.75,28.73,46,25.95,46C23.18,46,20.96,43.75,21,40.98z"/>
	</g>
	
		<line fill-rule="evenodd" clip-rule="evenodd" fill="none" stroke="#86B3A4" stroke-width="2" stroke-linecap="square" stroke-linejoin="round" stroke-miterlimit="10" x1="41.5" y1="50.5" x2="65.5" y2="50.5"/>
	
		<line fill-rule="evenodd" clip-rule="evenodd" fill="none" stroke="#86B3A4" stroke-width="2" stroke-linecap="square" stroke-linejoin="round" stroke-miterlimit="10" x1="41.5" y1="57.5" x2="65.5" y2="57.5"/>
	
		<line fill-rule="evenodd" clip-rule="evenodd" fill="none" stroke="#86B3A4" stroke-width="2" stroke-linecap="square" stroke-linejoin="round" stroke-miterlimit="10" x1="41.5" y1="64.5" x2="65.5" y2="64.5"/>
</g>
</svg>
