<?xml version="1.0" encoding="utf-8"?>
<!-- Generator: Adobe Illustrator 16.0.0, SVG Export Plug-In . SVG Version: 6.00 Build 0)  -->
<!DOCTYPE svg PUBLIC "-//W3C//DTD SVG 1.1//EN" "http://www.w3.org/Graphics/SVG/1.1/DTD/svg11.dtd">
<svg version="1.1" id="图层_1" xmlns="http://www.w3.org/2000/svg" xmlns:xlink="http://www.w3.org/1999/xlink" x="0px" y="0px"
	 width="86.5px" height="70px" viewBox="0 0 86.5 70" enable-background="new 0 0 86.5 70" xml:space="preserve">
<g>
	<path fill-rule="evenodd" clip-rule="evenodd" fill="#79A7D0" d="M20.5,17l6.35,6.35C27.48,21.97,28.88,21,30.5,21
		c2.21,0,4,1.79,4,4c0,1.62-0.97,3.02-2.36,3.65L37.5,34l18-17l-5.72-5.72C49.06,12.32,47.86,13,46.5,13c-2.21,0-4-1.79-4-4
		c0-1.36,0.68-2.56,1.71-3.29L38.5,0L20.5,17z"/>
	<circle fill-rule="evenodd" clip-rule="evenodd" fill="#79A7D0" cx="48.5" cy="27" r="4"/>
	<circle fill-rule="evenodd" clip-rule="evenodd" fill="#79A7D0" cx="27.5" cy="6" r="4"/>
	<path fill-rule="evenodd" clip-rule="evenodd" fill="#9FBFDD" d="M1.5,35l17,17l6.95-6.56c-1.17-0.7-1.95-1.98-1.95-3.44
		c0-2.21,1.79-4,4-4c1.54,0,2.88,0.87,3.54,2.15L36.5,35l-17-17l-5.57,5.26c1.5,0.57,2.57,2.03,2.57,3.74c0,2.21-1.79,4-4,4
		c-1.79,0-3.3-1.17-3.82-2.79L1.5,35z"/>
	<circle fill-rule="evenodd" clip-rule="evenodd" fill="#9FBFDD" cx="8.5" cy="46" r="4"/>
	<path fill-rule="evenodd" clip-rule="evenodd" fill="#9FBFDD" d="M26.5,26c0-1.66,1.34-3,3-3s3,1.34,3,3s-1.34,3-3,3
		S26.5,27.66,26.5,26z"/>
	
		<path fill-rule="evenodd" clip-rule="evenodd" fill="#79A7D0" stroke="#FFFFFF" stroke-linecap="round" stroke-linejoin="round" stroke-miterlimit="10" d="
		M37,70.5l17-17l-6.56-6.95c-0.7,1.17-1.98,1.95-3.44,1.95c-2.21,0-4-1.79-4-4c0-1.54,0.87-2.88,2.15-3.54L37,35.5l-17,17l5.26,5.57
		c0.57-1.5,2.03-2.57,3.74-2.57c2.21,0,4,1.79,4,4c0,1.79-1.17,3.3-2.79,3.81L37,70.5z"/>
	<circle fill-rule="evenodd" clip-rule="evenodd" fill="#79A7D0" cx="48" cy="63.5" r="4"/>
	<path fill-rule="evenodd" clip-rule="evenodd" fill="#79A7D0" d="M28,45.5c-1.66,0-3-1.34-3-3s1.34-3,3-3s3,1.34,3,3
		S29.66,45.5,28,45.5z"/>
	
		<path fill-rule="evenodd" clip-rule="evenodd" fill="#9FBFDD" stroke="#FFFFFF" stroke-linecap="round" stroke-linejoin="round" stroke-miterlimit="10" d="
		M38.5,35l17,17l5.91-5.58c-1.14-0.71-1.91-1.97-1.91-3.42c0-2.21,1.79-4,4-4c1.53,0,2.86,0.86,3.53,2.11L73.5,35l-17-17l-5.17,4.88
		c1.31,0.9,2.17,2.41,2.17,4.12c0,2.76-2.24,5-5,5c-1.81,0-3.4-0.96-4.28-2.41L38.5,35z"/>
	<circle fill-rule="evenodd" clip-rule="evenodd" fill="#9FBFDD" cx="66.5" cy="24" r="4"/>
	<path fill-rule="evenodd" clip-rule="evenodd" fill="#9FBFDD" d="M41.5,44c0-1.66,1.34-3,3-3s3,1.34,3,3s-1.34,3-3,3
		S41.5,45.66,41.5,44z"/>
	
		<path fill-rule="evenodd" clip-rule="evenodd" fill="#C0D6E9" stroke="#FFFFFF" stroke-linecap="round" stroke-linejoin="round" stroke-miterlimit="10" d="
		M86.5,57.5L73.87,70l-4.39-4.11c0.85-0.51,1.42-1.439,1.42-2.51c0-1.62-1.33-2.94-2.97-2.94c-1.14,0-2.12,0.63-2.62,1.56l-4.81-4.5
		L73.13,45l3.84,3.59c-0.979,0.66-1.61,1.77-1.61,3.03c0,2.03,1.66,3.67,3.71,3.67c1.35,0,2.53-0.7,3.18-1.76L86.5,57.5z"/>
	<path fill-rule="evenodd" clip-rule="evenodd" fill="#C0D6E9" d="M68.67,49.41c0-1.62-1.33-2.94-2.97-2.94
		c-1.64,0-2.97,1.32-2.97,2.94c0,1.63,1.33,2.94,2.97,2.94C67.34,52.35,68.67,51.04,68.67,49.41z"/>
	<path fill-rule="evenodd" clip-rule="evenodd" fill="#C0D6E9" d="M84.27,64.12c0-1.22-1-2.21-2.23-2.21s-2.23,0.99-2.23,2.21
		c0,1.22,1,2.199,2.23,2.199S84.27,65.34,84.27,64.12z"/>
</g>
</svg>
