<?xml version="1.0" encoding="UTF-8"?>
<svg width="386px" height="290px" viewBox="0 0 386 290" version="1.1" xmlns="http://www.w3.org/2000/svg" xmlns:xlink="http://www.w3.org/1999/xlink">
    <!-- Generator: sketchtool 49 (51002) - http://www.bohemiancoding.com/sketch -->
    <title>E2FAD542-31F7-4621-9F1D-1BCBF966E01A</title>
    <desc>Created with sketchtool.</desc>
    <defs>
        <linearGradient x1="11.4661734%" y1="15.1461538%" x2="88.5357401%" y2="84.8555769%" id="linearGradient-1">
            <stop stop-color="#E68CBC" offset="0%"></stop>
            <stop stop-color="#8366B3" offset="100%"></stop>
        </linearGradient>
        <linearGradient x1="84.8556683%" y1="11.466082%" x2="15.1462452%" y2="88.5356487%" id="linearGradient-2">
            <stop stop-color="#E68CBC" offset="0%"></stop>
            <stop stop-color="#8366B3" offset="100%"></stop>
        </linearGradient>
        <linearGradient x1="50%" y1="0%" x2="50%" y2="100%" id="linearGradient-3">
            <stop stop-color="#FC902F" offset="0%"></stop>
            <stop stop-color="#F9C22E" offset="100%"></stop>
        </linearGradient>
        <linearGradient x1="50%" y1="0%" x2="50%" y2="97.8797868%" id="linearGradient-4">
            <stop stop-color="#74D855" offset="0%"></stop>
            <stop stop-color="#C2F7BB" offset="100%"></stop>
        </linearGradient>
        <linearGradient x1="50%" y1="0%" x2="50%" y2="100%" id="linearGradient-5">
            <stop stop-color="#2B5EB4" offset="0%"></stop>
            <stop stop-color="#4BBFEE" offset="100%"></stop>
        </linearGradient>
        <linearGradient x1="50%" y1="0%" x2="50%" y2="99.347453%" id="linearGradient-6">
            <stop stop-color="#DE5898" offset="0%"></stop>
            <stop stop-color="#FDB5A4" offset="100%"></stop>
        </linearGradient>
    </defs>
    <g id="Page-1" stroke="none" stroke-width="1" fill="none" fill-rule="evenodd">
        <g id="牛顿技术" transform="translate(-1054.000000, -1421.000000)">
            <g id="Group-8" transform="translate(1054.000000, 1421.000000)">
                <path d="M147.643655,118.258576 C160.995577,105.041996 175.574041,100.209138 191.379048,103.760001 C215.086557,109.086296 232.31454,127.724098 255.965657,122.098922 C279.616774,116.473745 274.084646,103.139006 296.19906,90.9419307 C318.313475,78.7448553 338.800958,91.4015316 350.962053,71.3257148" id="Path-8" stroke="#E5DBE8" stroke-width="2" stroke-dasharray="4"></path>
                <path d="M140.555087,189.713821 C141.660385,212.196197 151.162563,226.602897 169.061619,232.933922 C195.910205,242.43046 220.133708,232.246387 235.588139,262.965176 C251.042571,293.683965 271.741527,292.258386 286.400821,280.071915 C301.060115,267.885443 311.074613,274.732181 321.389848,280.071915" id="Path-9" stroke="#E5DBE8" stroke-width="2" stroke-dasharray="4"></path>
                <g id="Group-3-Copy-12" transform="translate(50.000000, 106.000000)">
                    <rect id="Rectangle-2" fill="url(#linearGradient-1)" opacity="0.400000006" x="40.9906542" y="4.91803279" width="4.82242991" height="65.5737705"></rect>
                    <rect id="Rectangle-2" fill="url(#linearGradient-1)" opacity="0.400000006" x="20.1749258" y="39.6676014" width="4.82242991" height="46.5691885"></rect>
                    <rect id="Rectangle-2" fill="url(#linearGradient-2)" opacity="0.400000006" x="60.9824889" y="38.4824947" width="4.82242991" height="48.030927"></rect>
                    <path d="M45.8130841,52.208777 L45.8130841,92.7746274 L80.8236041,72.1605724 L80.8236041,31.3583175 L46.3648517,51.2530875 L45.8130841,52.208777 Z M7.50058703,26.6905835 L43.3820419,47.4067512 L79.0660438,26.804583 L43.1865081,5.67885511 L7.50058703,26.6905835 Z M5.54941216,31.1325346 L5.54941216,72.1605724 L40.9906542,93.0282348 L40.9906542,51.5945453 L5.54941216,31.1325346 Z M43.1865081,0 L85.646034,25 L85.646034,75 L43.1865081,100 L0.726982254,75 L0.726982254,25 L43.1865081,0 Z" id="Combined-Shape" fill="url(#linearGradient-1)" fill-rule="nonzero"></path>
                </g>
                <g id="Group-3-Copy-14" transform="translate(0.000000, 72.000000)">
                    <rect id="Rectangle-2" fill="url(#linearGradient-1)" opacity="0.400000006" x="40.9906542" y="4.91803279" width="4.82242991" height="65.5737705"></rect>
                    <rect id="Rectangle-2" fill="url(#linearGradient-1)" opacity="0.400000006" x="20.1749258" y="39.6676014" width="4.82242991" height="46.5691885"></rect>
                    <rect id="Rectangle-2" fill="url(#linearGradient-2)" opacity="0.400000006" x="60.9824889" y="38.4824947" width="4.82242991" height="48.030927"></rect>
                    <path d="M45.8130841,52.208777 L45.8130841,92.7746274 L80.8236041,72.1605724 L80.8236041,31.3583175 L46.3648517,51.2530875 L45.8130841,52.208777 Z M7.50058703,26.6905835 L43.3820419,47.4067512 L79.0660438,26.804583 L43.1865081,5.67885511 L7.50058703,26.6905835 Z M5.54941216,31.1325346 L5.54941216,72.1605724 L40.9906542,93.0282348 L40.9906542,51.5945453 L5.54941216,31.1325346 Z M43.1865081,0 L85.646034,25 L85.646034,75 L43.1865081,100 L0.726982254,75 L0.726982254,25 L43.1865081,0 Z" id="Combined-Shape" fill="url(#linearGradient-1)" fill-rule="nonzero"></path>
                </g>
                <g id="Group-3-Copy-15" transform="translate(0.000000, 139.000000)">
                    <rect id="Rectangle-2" fill="url(#linearGradient-1)" opacity="0.400000006" x="40.9906542" y="4.91803279" width="4.82242991" height="65.5737705"></rect>
                    <rect id="Rectangle-2" fill="url(#linearGradient-1)" opacity="0.400000006" x="20.1749258" y="39.6676014" width="4.82242991" height="46.5691885"></rect>
                    <rect id="Rectangle-2" fill="url(#linearGradient-2)" opacity="0.400000006" x="60.9824889" y="38.4824947" width="4.82242991" height="48.030927"></rect>
                    <path d="M45.8130841,52.208777 L45.8130841,92.7746274 L80.8236041,72.1605724 L80.8236041,31.3583175 L46.3648517,51.2530875 L45.8130841,52.208777 Z M7.50058703,26.6905835 L43.3820419,47.4067512 L79.0660438,26.804583 L43.1865081,5.67885511 L7.50058703,26.6905835 Z M5.54941216,31.1325346 L5.54941216,72.1605724 L40.9906542,93.0282348 L40.9906542,51.5945453 L5.54941216,31.1325346 Z M43.1865081,0 L85.646034,25 L85.646034,75 L43.1865081,100 L0.726982254,75 L0.726982254,25 L43.1865081,0 Z" id="Combined-Shape" fill="url(#linearGradient-1)" fill-rule="nonzero"></path>
                </g>
                <g id="btc" transform="translate(236.000000, 19.000000)">
                    <circle id="Combined-Shape" fill="#FCF5E1" fill-rule="nonzero" cx="31.7" cy="32.5" r="31.7"></circle>
                    <g id="logo_newton" transform="translate(8.000000, 18.000000)">
                        <g id="Page-1" transform="translate(0.989091, 0.000000)">
                            <path d="M44.0995244,16.0811993 C44.1431864,16.0639458 44.183573,16.0469969 44.2206092,16.0304862 C44.1839626,16.0141153 44.1440848,15.9973436 44.1010788,15.9803139 C43.4466462,15.7242317 43.2313687,15.0550397 43.8690637,14.648702 C43.7832168,14.6050152 43.6452565,14.5664323 43.4766116,14.5592252 C42.7615066,14.5289243 42.2268052,13.9119733 42.6610981,13.3521543 C42.6611832,13.4073891 42.6535027,13.4185455 42.6259429,13.3983592 C42.4554873,13.2735079 42.1474872,13.1856037 41.8256126,13.1906698 C41.3724877,13.1993172 41.0420572,13.0330906 40.8219238,12.7390776 C40.775941,12.6776625 40.7523993,12.6391279 40.6996521,12.5465202 C40.5098785,12.2073 40.0876607,12.0103272 39.287522,11.9669192 C38.6701983,11.9323491 38.1155552,11.7299192 37.9422952,11.3270335 C37.8641608,11.1405428 37.2513722,10.9567413 36.0962064,10.9431861 C35.4840109,10.9367869 34.9519666,10.8088268 34.66259,10.5489569 C34.3255045,10.2413503 33.5495852,10.0919592 32.3461508,10.1620925 C31.7624824,10.1970304 31.1954963,10.1138031 30.8381842,9.92212384 C30.2250099,9.59750215 29.3449239,9.50185774 28.1902414,9.65592303 C27.6464321,9.72924565 27.0540232,9.68813743 26.6272966,9.54017453 C25.7823816,9.25008176 24.8480219,9.21772471 23.8160949,9.44812341 C23.3262136,9.55721461 22.7246687,9.55721461 22.2367393,9.44809949 C21.2032795,9.21772071 20.2688473,9.25006644 19.4260591,9.53942341 C18.9994788,9.68808019 18.4050731,9.72932697 17.8633839,9.65601473 C16.7078491,9.50183524 15.8262407,9.59760227 15.2171671,9.92083968 C14.8578419,10.1135902 14.2876934,10.1971115 13.7076155,10.1621412 C12.5019662,10.0919711 11.7261695,10.2413387 11.3873794,10.5516474 C11.101157,10.8086635 10.5678671,10.9367756 9.95736788,10.9431791 C8.79943627,10.9567486 8.18681594,11.1403945 8.10706883,11.3271836 C7.93856955,11.7289895 7.44320574,11.9108756 6.77650922,11.9660337 C6.17548542,12.0152451 5.74721694,12.1015765 5.50752946,12.211614 C5.52920558,12.7857442 5.03230596,13.070349 4.31510998,13.1843196 C3.90502273,13.2507882 3.60584692,13.3300563 3.43121179,13.4067239 C3.7922641,13.9378456 3.33494325,14.3757559 2.68056057,14.5436935 C2.49394924,14.59204 2.34391327,14.6412925 2.23380295,14.6832121 C2.80912448,15.0900973 2.58780114,15.7301097 1.9534173,15.9797026 C1.90971991,15.9969702 1.86929589,16.0139332 1.83222067,16.0304586 C1.86911827,16.0469042 1.90931496,16.0637723 1.9527255,16.0809266 C2.58741702,16.3306414 2.81057893,16.973184 2.23497947,17.3782629 C2.34466018,17.4199071 2.49394536,17.4688617 2.67945349,17.516923 C3.33391953,17.6848834 3.79300382,18.125244 3.4309912,18.6549817 C3.60547755,18.7316949 3.90441169,18.8111784 4.31358463,18.8780949 C5.02747812,18.991543 5.51955064,19.2698603 5.40747685,19.8482638 C5.74658897,19.9595693 6.17485322,20.0456052 6.77871161,20.0950536 C7.44690947,20.1527396 7.93738959,20.3325823 8.10823765,20.7340784 C8.18787743,20.9223855 8.80010278,21.1056677 9.95850128,21.1177375 C10.5741395,21.1263479 11.1039847,21.2536325 11.3902842,21.5136409 C11.7268179,21.8206316 12.5045489,21.9703715 13.7083437,21.898719 C14.2901062,21.8657113 14.8588385,21.9496036 15.214358,22.1403243 C15.8262063,22.4635365 16.7084849,22.558982 17.8624534,22.4050124 C18.4016211,22.3320422 18.9962781,22.3738717 19.4238877,22.5207275 C20.2704306,22.8113792 21.2051031,22.8445321 22.2344517,22.6150754 C22.7240391,22.5035238 23.3289025,22.5035238 23.8162023,22.6145598 C24.8477739,22.8445177 25.7806974,22.8113985 26.6279871,22.520491 C27.0572426,22.3738107 27.6498903,22.3321226 28.189649,22.4048995 C29.3428884,22.5589891 30.2252309,22.4635368 30.8357743,22.1418198 C31.1945044,21.9493882 31.7600947,21.8657893 32.3460232,21.8988019 C33.547001,21.9703834 34.3248498,21.8206207 34.6634764,21.5128954 C34.949135,21.2534708 35.4777634,21.1263323 36.0962178,21.1177158 C37.2512039,21.105669 37.8641362,20.9221752 37.943378,20.7330615 C38.1137947,20.3325823 38.6042748,20.1527396 39.2746751,20.0948683 C39.8765112,20.0455905 40.305185,19.9595216 40.5449823,19.8498603 C40.5376077,19.2678856 41.0278739,18.99116 41.7371358,18.878453 C42.6051627,18.7365036 42.5854849,18.7540823 42.5779676,18.4415143 C42.5651313,17.9580025 42.8038514,17.6631131 43.3723811,17.5172085 C43.5586209,17.4689582 43.7082386,17.4198777 43.8179743,17.3781961 C43.2427224,16.9726005 43.4645064,16.3296818 44.0995244,16.0811993 Z M5.40747685,19.8482638 C5.40647544,19.853432 5.4054258,19.8586241 5.40432766,19.8638403 C5.40577645,19.8569988 5.40645851,19.8505916 5.40715415,19.8449268 L5.40747685,19.8482638 Z M44.452076,15.9044344 C44.4560339,15.9015103 44.4598111,15.8986275 44.463407,15.8957875 C44.4634015,15.8957919 44.4626178,15.8970273 44.4613201,15.8995252 L44.452076,15.9044344 Z M44.8787835,17.8112626 C44.6803607,18.1223148 44.2739909,18.3166383 43.6220698,18.4855339 C43.5874963,19.3132844 43.190724,19.654029 41.8963021,19.8657022 C41.7990831,19.8811517 41.7163411,19.9003359 41.6521715,19.9203442 C41.6359011,20.644592 40.7946196,20.9737624 39.3584836,21.0913478 C39.1581307,21.1086444 38.9892546,21.1423475 38.8747577,21.1843297 C38.8314194,21.2002204 38.8313355,21.2002799 38.8646154,21.1220523 C38.570086,21.825033 37.6462471,22.101603 36.1084006,22.11764 C35.7148583,22.123125 35.3940064,22.2002919 35.3358912,22.25307 C34.7476228,22.7876561 33.7320554,22.9831878 32.2881503,22.8971245 C31.871298,22.8736399 31.4788564,22.9316461 31.3052247,23.0247709 C30.4828819,23.4581133 29.3989787,23.5753706 28.0566189,23.3960113 C27.6619267,23.3427943 27.2240005,23.373599 26.9520292,23.4665334 C25.9238509,23.8195477 24.8039916,23.8593032 23.5963353,23.5900869 C23.2529771,23.5118533 22.7999645,23.5118533 22.4543187,23.5906024 C21.248894,23.8593157 20.1272883,23.8195322 19.099115,23.4665196 C18.8288306,23.3736947 18.3895397,23.342794 17.9956388,23.3961031 C16.6520195,23.5753781 15.5680426,23.4581128 14.7444599,23.0230392 C14.5746444,22.9319461 14.1791855,22.8736129 13.7663762,22.8970327 C12.3187655,22.9832 11.3030664,22.7876431 10.7171683,22.2531771 C10.6592129,22.2005441 10.3369559,22.1231284 9.94630086,22.1176615 C8.4083647,22.1016413 7.48611301,21.8260456 7.18865261,21.1269763 C7.21984205,21.2002768 7.21930411,21.2000515 7.17642652,21.1843297 C7.06192967,21.1423475 6.89305359,21.1086444 6.69490309,21.091533 C5.25693083,20.9737929 4.41666349,20.6444228 4.39949588,19.9199805 C4.3353348,19.9000756 4.25242023,19.880921 4.15441832,19.8653441 C3.47273061,19.7538669 3.00125676,19.6062503 2.70949489,19.3882673 C2.38285561,19.1442265 2.27570865,18.8037801 2.38144714,18.4725629 C1.75871058,18.3068467 1.36742133,18.1146383 1.17374896,17.8116539 C0.954981499,17.4694103 1.02509546,17.1449639 1.27687723,16.8682082 C0.39632658,16.3903829 0.395703958,15.6719514 1.27539765,15.1935754 C1.02372976,14.9170617 0.95368309,14.5918563 1.17321002,14.2493764 C1.36716981,13.9467833 1.75881793,13.7541523 2.38139342,13.5883629 C2.27587305,13.2574343 2.38323329,12.917272 2.70949491,12.6735133 C3.00165095,12.4552358 3.47399599,12.3076003 4.15663935,12.1969572 C4.25329143,12.1815977 4.33568737,12.1624233 4.39965538,12.1423918 C4.41752322,11.4177628 5.25888005,11.0869495 6.69448013,10.9694039 C6.89324504,10.9529593 7.06160559,10.9195298 7.17599586,10.8775284 C7.21656151,10.8626336 7.21757014,10.8624388 7.18952373,10.9293929 C7.48539601,10.2373316 8.40661298,9.96128334 9.94626444,9.94324093 C10.3355348,9.93915768 10.6593842,9.86135937 10.7155819,9.81092915 C11.3012731,9.27441816 12.3143764,9.07936094 13.7667541,9.16389194 C14.179161,9.18875334 14.5743734,9.13085855 14.7464211,9.0385737 C15.5669574,8.60310478 16.6508343,8.48536581 17.9965692,8.66492402 C18.3922598,8.71847615 18.8302111,8.68808599 19.0991551,8.59436867 C20.1260214,8.24180478 21.2473114,8.2029909 22.4546481,8.47213041 C22.7993349,8.54921227 23.2521513,8.54921227 23.59846,8.47209321 C24.8038123,8.20297367 25.9251676,8.24180641 26.9534627,8.59486329 C27.2225939,8.6881801 27.6591921,8.71847637 28.0573028,8.66479899 C29.4016846,8.48542221 30.4838164,8.60302419 31.3084817,9.03962012 C31.4791239,9.13115671 31.8713139,9.18872587 32.2871849,9.16383281 C33.7364408,9.07937286 34.7494217,9.27440651 35.3336874,9.8075986 C35.3938394,9.86161266 35.7162733,9.93916006 36.1072992,9.94324784 C37.6476014,9.96132179 38.570272,10.2380702 38.862772,10.9362646 C38.8279244,10.855244 38.8416084,10.8645483 38.8925078,10.8831252 C39.0133053,10.9272131 39.1764066,10.95913 39.3425631,10.9684355 C40.4513966,11.0285892 41.1887531,11.3725805 41.5704413,12.0548792 C41.6004448,12.1075384 41.6099088,12.1230297 41.6224152,12.1397334 C41.6522201,12.1795413 41.6795218,12.1932757 41.8081993,12.1908228 C42.3400418,12.1824473 42.8613479,12.3312298 43.2168463,12.5916169 C43.5640864,12.845955 43.7427534,13.2120941 43.6601252,13.5705408 C44.1398863,13.6211688 44.5548882,13.8233353 44.7772251,14.1440545 C45.0128868,14.4839947 44.9872663,14.870099 44.7536408,15.1809033 C45.6557056,15.6590143 45.664088,16.3857537 44.7756315,16.8682479 C45.0268556,17.1447982 45.0970394,17.4691195 44.8787835,17.8112626 Z M44.4780904,15.0762296 C44.4730056,15.060044 44.4688459,15.0503926 44.4673534,15.0498093 C44.4683927,15.0502208 44.4694312,15.0506326 44.4704689,15.0510447 L44.4780904,15.0762296 Z M4.48656698,12.109628 C4.49516791,12.1055928 4.50293475,12.1015875 4.50983373,12.097636 C4.50749937,12.098973 4.50510574,12.1004944 4.5026684,12.1021992 L4.48656698,12.109628 Z M1.6167623,15.4701148 C1.62573006,15.4786352 1.63571996,15.4864187 1.64682573,15.4933289 C1.64268079,15.4907597 1.63855271,15.4881832 1.63444162,15.4855993 L1.6167623,15.4701148 Z M1.57435042,16.9845077 C1.57965801,17.0007632 1.58409689,17.0105067 1.58590928,17.0112197 C1.58476336,17.0107669 1.58361846,17.0103137 1.58247457,17.0098602 L1.57435042,16.9845077 Z M1.55004637,16.632525 C1.58174514,16.6103781 1.61466118,16.5886927 1.64871567,16.5674909 C1.61693273,16.5871773 1.59411846,16.6137417 1.57815008,16.6441425 L1.55004637,16.632525 Z M4.4938014,19.9527823 C4.49953374,19.9577048 4.50514169,19.9616862 4.51044397,19.9647133 C4.50846089,19.9635811 4.50640495,19.9624444 4.50427688,19.9613036 L4.4938014,19.9527823 Z M41.6342102,19.7642132 C41.6354883,19.7315919 41.6328416,19.6951317 41.6247696,19.6548362 C41.6316669,19.6868145 41.6372612,19.718156 41.6415661,19.7488716 L41.6342102,19.7642132 Z M43.553881,18.4525162 C43.5617145,18.4332923 43.5776049,18.4146119 43.5776469,18.4162208 C43.5779565,18.4290894 43.5781796,18.4418445 43.5783148,18.4544873 L43.553881,18.4525162 Z M24.3435854,3.56772174 C23.0976815,3.71181782 22.7163541,2.68557258 21.8728648,2.89644489 C21.0065312,3.11434628 20.7851152,4.97353714 20.5584275,6.06480135 C20.5531556,6.08588858 20.5496411,6.10873308 20.5443693,6.12982032 C19.2650773,12.0922349 17.4252163,18.1161539 15.1425236,24.2367228 C13.9212215,27.508758 12.7948119,30.7878224 9.76527971,31.4749148 C9.14144913,31.6154964 8.69686001,31.6506416 8.19076646,31.5662927 C6.55826333,31.2921588 6.70060213,28.4752561 9.02898389,28.2503257 C10.5156337,28.1062296 9.90058944,28.9057872 11.4452291,29.0920576 C12.5558233,28.1800349 12.4714744,26.9358883 12.6700458,25.8604394 C13.6383011,20.6325635 15.8138005,13.9197949 17.885621,8.34573684 C18.1562404,7.61998464 18.4251026,6.84327163 18.7220811,6.07007316 C19.7535981,3.38848029 21.1137245,0.759605477 23.9657725,0.511830512 C25.3575298,0.390578934 26.3714742,0.959934171 26.1957472,1.94751949 C26.0165058,2.93334755 25.1449003,3.47634374 24.3435854,3.56772174 Z M36.6959577,0.466668584 C38.0877149,0.347174275 39.1016593,0.914772244 38.9259323,1.90411484 C38.7466908,2.88818562 37.8768426,3.43118181 37.0737705,3.52255981 C35.8261094,3.6666559 35.4465392,2.64041065 34.6048072,2.85128296 C33.7349589,3.06918435 33.513543,4.92837522 33.2886125,6.01963943 C33.2833407,6.04072665 33.2798262,6.06357115 33.2745544,6.08465839 C31.9952624,12.047073 30.1554015,18.0727492 27.8727087,24.1915608 C26.6514066,27.4635961 25.524997,30.7426606 22.4954648,31.4315101 C21.8716342,31.5720916 21.4270451,31.6054798 20.9191943,31.5211309 C19.2884484,31.2469968 19.4307872,28.4318514 21.759169,28.2051638 C23.2458188,28.0610677 22.6307746,28.8623824 24.1754142,29.0468957 C25.2860084,28.1366303 25.2016595,26.8907264 25.4002309,25.8152776 C26.3684863,20.5874015 28.5422283,13.874633 30.615806,8.30057492 C30.8846682,7.57482272 31.1552877,6.79986697 31.4522662,6.02666851 C32.4837833,3.34331835 33.8439096,0.714443549 36.6959577,0.466668584 Z" id="Combined-Shape" fill="url(#linearGradient-3)" fill-rule="nonzero"></path>
                            <g id="Group-7" transform="translate(19.544875, 0.304845)"></g>
                        </g>
                    </g>
                </g>
                <g id="btc-copy" transform="translate(200.000000, 236.000000)">
                    <ellipse id="Combined-Shape" fill="#FCF5E1" fill-rule="nonzero" cx="14.859375" cy="15" rx="14.859375" ry="14.6307692"></ellipse>
                    <path d="M10.828125,7.52307692 C11.34375,7.66153846 11.859375,7.75384615 12.375,7.89230769 C12.890625,8.03076923 13.40625,8.12307692 13.921875,8.26153846 C14.0625,8.30769231 14.109375,8.26153846 14.15625,8.12307692 C14.34375,7.33846154 14.53125,6.6 14.71875,5.81538462 C14.765625,5.67692308 14.8125,5.63076923 14.953125,5.67692308 C15.421875,5.81538462 15.84375,5.90769231 16.3125,6 C16.453125,6.04615385 16.453125,6.09230769 16.40625,6.18461538 C16.21875,6.92307692 16.03125,7.70769231 15.84375,8.44615385 C15.84375,8.49230769 15.84375,8.53846154 15.796875,8.63076923 C16.171875,8.72307692 16.59375,8.81538462 16.96875,8.90769231 C17.015625,8.90769231 17.0625,8.81538462 17.109375,8.76923077 C17.25,8.16923077 17.390625,7.61538462 17.578125,7.01538462 C17.625,6.83076923 17.671875,6.64615385 17.71875,6.46153846 C17.71875,6.36923077 17.765625,6.32307692 17.859375,6.36923077 C18.328125,6.50769231 18.796875,6.6 19.3125,6.73846154 C19.359375,6.73846154 19.359375,6.78461538 19.40625,6.78461538 C19.265625,7.38461538 19.125,7.93846154 18.984375,8.49230769 C18.9375,8.72307692 18.890625,8.95384615 18.796875,9.18461538 C18.75,9.32307692 18.796875,9.36923077 18.9375,9.41538462 C19.453125,9.64615385 19.96875,9.87692308 20.484375,10.1076923 C20.953125,10.3846154 21.375,10.7538462 21.703125,11.2153846 C22.125,11.9076923 22.171875,12.6461538 21.984375,13.3846154 C21.84375,13.8923077 21.65625,14.3538462 21.28125,14.7230769 C21,15 20.625,15.1846154 20.25,15.3230769 C20.203125,15.3230769 20.15625,15.3692308 20.0625,15.3692308 C20.25,15.5076923 20.4375,15.6 20.625,15.7384615 C21.1875,16.1538462 21.5625,16.6615385 21.75,17.3076923 C21.84375,17.8153846 21.796875,18.3692308 21.65625,18.8769231 C21.46875,19.5230769 21.234375,20.0769231 20.8125,20.5846154 C20.296875,21.1846154 19.640625,21.5076923 18.890625,21.6 C17.90625,21.7384615 16.96875,21.6461538 16.03125,21.5076923 C15.890625,21.4615385 15.796875,21.5076923 15.75,21.6461538 C15.5625,22.3846154 15.375,23.1692308 15.1875,23.9076923 C15.140625,24.0923077 15.140625,24.1384615 14.90625,24.0461538 C14.484375,23.9538462 14.015625,23.8153846 13.59375,23.7230769 C13.453125,23.6769231 13.453125,23.6307692 13.5,23.5384615 C13.6875,22.7538462 13.875,21.9692308 14.109375,21.2307692 C14.109375,21.1384615 14.15625,21.0923077 14.0625,21.0461538 C13.6875,20.9538462 13.3125,20.8615385 12.890625,20.7692308 C12.796875,21.1846154 12.65625,21.6 12.5625,22.0153846 C12.46875,22.4307692 12.328125,22.8461538 12.234375,23.2615385 C12.1875,23.3538462 12.1875,23.4 12.046875,23.3538462 C11.578125,23.2153846 11.109375,23.1230769 10.640625,23.0307692 C10.5,22.9846154 10.5,22.9384615 10.546875,22.8461538 C10.734375,22.0615385 10.921875,21.2769231 11.15625,20.5384615 C11.15625,20.4923077 11.203125,20.4461538 11.203125,20.3538462 C10.125,20.0769231 9.046875,19.8 7.921875,19.5230769 C8.015625,19.3384615 8.0625,19.2 8.15625,19.0153846 C8.34375,18.6 8.53125,18.1846154 8.671875,17.8153846 C8.71875,17.6769231 8.765625,17.6769231 8.90625,17.6769231 C9.234375,17.7692308 9.609375,17.8615385 9.9375,17.9076923 C10.3125,18 10.59375,17.8153846 10.640625,17.4923077 C11.25,15.1384615 11.859375,12.7846154 12.421875,10.3846154 C12.515625,10.0153846 12.28125,9.6 11.859375,9.46153846 C11.4375,9.32307692 11.015625,9.23076923 10.640625,9.13846154 C10.546875,9.13846154 10.5,9.09230769 10.546875,9 C10.6875,8.49230769 10.828125,7.93846154 10.96875,7.43076923 C10.78125,7.56923077 10.78125,7.56923077 10.828125,7.52307692 Z M13.21875,18.9230769 C13.265625,18.9230769 13.3125,18.9692308 13.3125,18.9692308 C14.0625,19.1538462 14.859375,19.3846154 15.65625,19.4307692 C16.21875,19.4769231 16.734375,19.4769231 17.25,19.2923077 C18.140625,19.0153846 18.515625,17.8615385 18,17.1230769 C17.765625,16.7538462 17.390625,16.5230769 17.015625,16.2923077 C16.171875,15.8307692 15.1875,15.6461538 14.25,15.4615385 C14.109375,15.4153846 14.109375,15.4615385 14.0625,15.6 C13.96875,16.0615385 13.828125,16.4769231 13.734375,16.9384615 C13.546875,17.5846154 13.40625,18.2307692 13.21875,18.9230769 Z M17.15625,14.2153846 C17.25,14.2153846 17.484375,14.1692308 17.671875,14.1230769 C18.5625,13.9384615 19.03125,12.9230769 18.5625,12.1384615 C18.328125,11.7230769 17.90625,11.4461538 17.484375,11.2615385 C16.828125,10.9846154 16.171875,10.8461538 15.46875,10.6615385 C15.328125,10.6153846 15.28125,10.6615385 15.234375,10.8 C15,11.7692308 14.765625,12.6923077 14.484375,13.6615385 C14.4375,13.7538462 14.484375,13.8 14.578125,13.8461538 C14.765625,13.8923077 14.90625,13.9384615 15.09375,13.9846154 C15.796875,14.0769231 16.40625,14.2153846 17.15625,14.2153846 Z" id="Combined-Shape" fill="url(#linearGradient-3)"></path>
                </g>
                <g id="eth" transform="translate(167.000000, 181.000000)">
                    <circle id="Oval-4" fill="#E9F0F6" cx="20" cy="20" r="20"></circle>
                    <path d="M20.045,5.36923077 C20.045,5.36923077 20.045,5.36923077 20.045,5.36923077 C20.045,5.46153846 20.045,5.55384615 20.045,5.64615385 C20.045,9.06153846 20.045,12.5230769 20.045,15.9384615 C20.045,15.9846154 20.045,16.0769231 20.045,16.1230769 C20.045,16.1692308 20,16.2153846 19.955,16.2153846 C19.64,16.3538462 19.37,16.4923077 19.055,16.6307692 C18.65,16.8153846 18.2,17 17.795,17.2307692 C17.3,17.4615385 16.805,17.6923077 16.31,17.9230769 C15.905,18.1076923 15.5,18.2923077 15.095,18.4769231 C14.6,18.7076923 14.105,18.9384615 13.61,19.1692308 C13.205,19.3538462 12.8,19.5384615 12.35,19.7692308 C12.035,19.9076923 11.675,20.0923077 11.36,20.2307692 C11.315,20.2307692 11.315,20.2769231 11.27,20.2307692 C11.27,20.2307692 11.27,20.2307692 11.225,20.2307692 C11.36,20 11.495,19.8153846 11.63,19.5846154 C12.35,18.3384615 13.115,17.0923077 13.835,15.8461538 C14.6,14.5076923 15.41,13.1692308 16.175,11.8307692 C16.895,10.5846154 17.615,9.33846154 18.335,8.13846154 C18.875,7.21538462 19.415,6.33846154 19.91,5.41538462 C20,5.41538462 20,5.36923077 20.045,5.36923077 C20,5.36923077 20.045,5.36923077 20.045,5.36923077 C20.045,5.36923077 20.045,5.36923077 20.045,5.36923077 Z" id="Shape" fill="#8A92B2" fill-rule="nonzero"></path>
                    <path d="M28.775,20.2307692 C28.775,20.2307692 28.775,20.2307692 28.775,20.2307692 C28.1,20.6923077 27.38,21.1076923 26.705,21.5230769 C24.5,22.8615385 22.34,24.1538462 20.135,25.4923077 C20.09,25.4923077 20.09,25.5384615 20.045,25.5384615 C20,25.5384615 20,25.4923077 20,25.4923077 C20,25.4461538 20,25.4 20,25.3538462 C20,22.3538462 20,19.3538462 20,16.3538462 C20,16.3076923 20,16.2615385 20,16.2153846 C20,16.1692308 20.045,16.1692308 20.09,16.1692308 C20.27,16.2615385 20.45,16.3538462 20.675,16.4461538 C21.215,16.7230769 21.8,16.9538462 22.34,17.2307692 C22.835,17.4615385 23.285,17.6923077 23.78,17.8769231 C24.275,18.1076923 24.725,18.3384615 25.22,18.5692308 C25.625,18.7538462 26.075,18.9384615 26.48,19.1692308 C26.885,19.3538462 27.335,19.5384615 27.74,19.7692308 C28.055,19.9076923 28.37,20.0923077 28.73,20.2307692 C28.73,20.1846154 28.73,20.2307692 28.775,20.2307692 Z" id="Shape" fill="#454A75" fill-rule="nonzero"></path>
                    <path d="M20.045,34.5846154 C20.045,34.5846154 20.045,34.5846154 20.045,34.5846154 C20.045,34.5846154 20,34.5846154 20.045,34.5846154 C20,34.5846154 20,34.5846154 19.955,34.5384615 C19.055,33.2461538 18.2,32 17.3,30.7076923 C16.4,29.4153846 15.5,28.1230769 14.6,26.8307692 C13.745,25.5846154 12.845,24.3384615 11.99,23.0461538 C11.765,22.7230769 11.54,22.4 11.315,22.0769231 C11.315,22.0307692 11.27,22.0307692 11.27,21.9846154 C11.315,21.9846154 11.315,22.0307692 11.36,22.0307692 C12.575,22.7692308 13.835,23.5076923 15.05,24.2461538 C16.445,25.1230769 17.885,25.9538462 19.28,26.8307692 C19.505,26.9692308 19.775,27.1076923 20,27.2461538 C20.045,27.2461538 20.045,27.2923077 20.045,27.3384615 C20.045,27.3846154 20.045,27.4307692 20.045,27.4769231 C20.045,29.7846154 20.045,32.0461538 20.045,34.3538462 C20.045,34.4 20.045,34.4923077 20.045,34.5846154 Z" id="Shape" fill="#8A92B2" fill-rule="nonzero"></path>
                    <path d="M11.315,20.2769231 C11.315,20.2307692 11.315,20.2307692 11.315,20.2769231 C11.765,20.0461538 12.215,19.8615385 12.665,19.6307692 C13.25,19.3538462 13.835,19.0769231 14.42,18.8 C14.87,18.5692308 15.32,18.3846154 15.77,18.1538462 C16.4,17.8307692 17.075,17.5538462 17.705,17.2307692 C18.155,17.0461538 18.605,16.8153846 19.055,16.6307692 C19.37,16.4923077 19.685,16.3538462 20,16.1692308 C20.045,16.1692308 20.045,16.1230769 20.09,16.1230769 C20.09,16.1230769 20.09,16.1230769 20.09,16.1692308 C20.09,16.2153846 20.09,16.2153846 20.09,16.2615385 C20.09,19.3076923 20.09,22.3538462 20.09,25.4 C20.09,25.4461538 20.09,25.4923077 20.09,25.5384615 C20.045,25.5846154 20.045,25.5384615 20,25.5384615 C19.865,25.4461538 19.73,25.4 19.64,25.3076923 C16.895,23.6461538 14.15,21.9846154 11.405,20.3230769 C11.36,20.2769231 11.315,20.2769231 11.315,20.2769231 Z" id="Shape" fill="#62688F" fill-rule="nonzero"></path>
                    <path d="M28.73,21.9846154 C28.73,21.9846154 28.73,21.9846154 28.73,21.9846154 C28.73,22.0307692 28.73,22.0307692 28.685,22.0769231 C26.075,25.8615385 23.465,29.6 20.855,33.3846154 C20.585,33.8 20.315,34.1692308 20.045,34.5846154 C20.045,34.5846154 20.045,34.5846154 20.045,34.5384615 C20.045,34.4923077 20.045,34.4923077 20.045,34.4461538 C20.045,32.0923077 20.045,29.7384615 20.045,27.3846154 C20.045,27.3384615 20.045,27.2923077 20.045,27.2461538 C20.63,26.8769231 21.215,26.5076923 21.8,26.1846154 C24.095,24.8 26.39,23.4153846 28.685,22.0307692 C28.685,21.9846154 28.73,21.9846154 28.73,21.9846154 Z" id="Shape" fill="#62688F" fill-rule="nonzero"></path>
                    <path d="M20.045,16.1692308 C20.045,16.1692308 20.045,16.1692308 20.045,16.1692308 C20.045,16.1230769 20.045,16.0769231 20.045,16.0769231 C20.045,12.5692308 20.045,9.01538462 20.045,5.50769231 C20.045,5.46153846 20.045,5.41538462 20.045,5.41538462 C22.925,10.3076923 25.805,15.2 28.685,20.0923077 C28.73,20.1384615 28.775,20.1846154 28.775,20.2307692 C28.595,20.1384615 28.415,20.0461538 28.19,19.9538462 C27.965,19.8615385 27.74,19.7230769 27.515,19.6307692 C27.38,19.5846154 27.245,19.4923077 27.065,19.4461538 C26.84,19.3538462 26.57,19.2153846 26.345,19.1230769 C26.21,19.0769231 26.075,18.9846154 25.94,18.9384615 C25.625,18.8 25.31,18.6615385 24.995,18.5230769 C24.815,18.4307692 24.68,18.3846154 24.5,18.2923077 C24.275,18.2 24.05,18.0615385 23.825,17.9692308 C23.69,17.9230769 23.555,17.8307692 23.42,17.7846154 C23.105,17.6461538 22.79,17.5076923 22.475,17.3692308 C22.295,17.2769231 22.16,17.2307692 21.98,17.1384615 C21.755,17.0461538 21.53,16.9076923 21.305,16.8153846 C21.17,16.7230769 20.99,16.6769231 20.855,16.5846154 C20.585,16.4461538 20.315,16.3076923 20.045,16.1692308 C20.045,16.1692308 20.045,16.1692308 20.045,16.1692308 Z" id="Shape" fill="#62688F" fill-rule="nonzero"></path>
                </g>
                <g id="NEO" transform="translate(171.000000, 77.000000)">
                    <path d="M20,0 C8.95436123,0 0,8.95436123 0,20 C0,31.0456388 8.95436123,40 20,40 C31.0456388,40 40,31.0456388 40,20 C40,8.95436123 31.0456388,0 20,0 Z" id="Shape" fill="#F1FBE4" fill-rule="nonzero"></path>
                    <path d="M18.6338774,31 L11,27.5101417 L11,14.1703465 L18.6338774,17.6683465 L18.6338774,31 Z M18.8278208,16.3097165 L11.3151132,12.8671496 L22.3661226,9 L29.8788302,12.4427402 L18.8278208,16.3097165 Z M30,27.2508189 L22.1721792,23.6667244 L22.1721792,16.5335276 L30,13.7944409 L30,27.2508189 Z" id="Combined-Shape" fill="url(#linearGradient-4)"></path>
                </g>
                <g id="NEO-Copy" transform="translate(250.000000, 196.000000)">
                    <path d="M30,0 C13.4315419,0 0,13.4315419 0,30 C0,46.5684581 13.4315419,60 30,60 C46.5684581,60 60,46.5684581 60,30 C60,13.4315419 46.5684581,0 30,0 Z" id="Shape" fill="#F1FBE4" fill-rule="nonzero"></path>
                    <path d="M27.950816,46.5 L16.5,41.2652126 L16.5,21.2555197 L27.950816,26.5025197 L27.950816,46.5 Z M28.2417311,24.4645748 L16.9726698,19.3007244 L33.549184,13.5 L44.8182453,18.6641102 L28.2417311,24.4645748 Z M45,40.8762283 L33.2582689,35.5000866 L33.2582689,24.8002913 L45,20.6916614 L45,40.8762283 Z" id="Combined-Shape" fill="url(#linearGradient-4)"></path>
                </g>
                <g id="group" transform="translate(321.000000, 0.000000)" fill="url(#linearGradient-5)" fill-rule="nonzero">
                    <g id="Group" opacity="0.300000012">
                        <path d="M50.9069512,16.3534146 L43.325122,16.3534146 C40.2668293,16.3534146 37.3997561,17.8187805 35.6158537,20.239878 C36.1892683,20.3035366 36.6990244,20.4947561 37.2086585,20.6858537 C39.3112195,21.4503659 42.3057317,26.1652439 42.3057317,29.6693902 L42.9428049,41.7112195 C42.9428049,42.7943902 42.1145122,43.622561 41.0314634,43.622561 L38.1006098,43.622561 L38.865122,50.5035366 L39.1836585,54.4537805 C39.2473171,55.4731707 40.0756098,56.2378049 41.095,56.2378049 L53.2004878,56.2378049 C54.219878,56.2378049 55.0481707,55.4732927 55.1118293,54.4537805 L56.2586585,39.8634146 L58.6160976,39.8634146 C59.6992683,39.8634146 60.527439,39.035122 60.527439,37.9520732 L60.527439,25.9102439 C60.4639024,20.6221951 56.195122,16.3534146 50.9069512,16.3534146 Z" id="Shape"></path>
                        <path d="M47.0841463,15.3340244 C51.2892683,15.3340244 54.7297561,11.8935366 54.7297561,7.68841463 C54.7297561,3.48329268 51.2891463,0.042804878 47.0841463,0.042804878 C42.8791463,0.042804878 39.4385366,3.48329268 39.4385366,7.68841463 C39.4385366,11.8935366 42.8790244,15.3340244 47.0841463,15.3340244 Z" id="Shape"></path>
                        <path d="M20.0696341,43.6226829 C19.8785366,43.6226829 19.6873171,43.5590244 19.559878,43.5590244 C18.7953659,43.3041463 18.2219512,42.6032927 18.2219512,41.7113415 L17.584878,29.6695122 C17.584878,26.420122 19.1776829,24.190122 21.79,22.469878 C22.4271951,22.0239024 22.4908537,21.0045122 23.3191463,20.6858537 C23.8289024,20.4947561 24.3385366,20.3673171 24.7845122,20.3035366 C23.0004878,17.882439 20.1334146,16.4170732 17.0752439,16.4170732 L9.55695122,16.4170732 C4.26878049,16.4170732 0,20.6859756 0,25.9741463 L0,37.9521951 C0,39.0353659 0.828292683,39.8635366 1.91134146,39.8635366 L4.205,39.8635366 L5.35182927,54.4539024 C5.4154878,55.4732927 6.24378049,56.2379268 7.26317073,56.2379268 L19.3686585,56.2379268 C20.3880488,56.2379268 21.2163415,55.4734146 21.28,54.4539024 L21.5985366,49.8665854 L22.3630488,43.6226829 L20.1330488,43.6226829 L20.0696341,43.6226829 Z" id="Shape"></path>
                        <path d="M13.3160976,15.3340244 C17.5212195,15.3340244 20.9617073,11.8935366 20.9617073,7.68841463 C20.9617073,3.48329268 17.5210976,0.042804878 13.3160976,0.042804878 C9.11109756,0.042804878 5.6704878,3.48329268 5.6704878,7.68841463 C5.6704878,11.8935366 9.11097561,15.3340244 13.3160976,15.3340244 Z" id="Shape"></path>
                    </g>
                    <g id="Group" transform="translate(16.829268, 3.658537)">
                        <path d="M13.3708537,15.3708537 C9.16573171,15.3708537 5.7252439,11.9303659 5.7252439,7.7252439 C5.7252439,3.52012195 9.16573171,0.0796341463 13.3708537,0.0796341463 C17.5759756,0.0796341463 21.0164634,3.52012195 21.0164634,7.7252439 C21.0164634,11.9303659 17.5759756,15.3708537 13.3708537,15.3708537 Z M24.8392683,39.9641463 C24.8392683,39.9641463 22.5454878,39.9641463 22.5454878,39.9642683 L22.0357317,46.8452439 L21.4623171,54.5545122 C21.3986585,55.5740244 20.5703659,56.3385366 19.5509756,56.3385366 L7.4454878,56.3385366 C6.42609756,56.3385366 5.59780488,55.5739024 5.53414634,54.5545122 L4.83329268,46.2080488 L4.32353659,39.9641463 L4.25987805,39.9641463 L2.02987805,39.9641463 C1.83878049,39.9641463 1.64756098,39.9641463 1.45646341,39.9004878 C0.69195122,39.6456098 0.118536585,38.9447561 0.118536585,38.0528049 L0.118536585,26.0109756 C0.118536585,22.8253659 1.71146341,19.8945122 4.32365854,18.1742683 C5.0245122,17.6645122 5.72536585,17.2823171 6.55365854,17.027439 C7.06329268,16.8362195 7.57304878,16.7087805 8.01902439,16.645122 C8.52865854,16.5176829 9.10207317,16.4540244 9.61182927,16.4540244 L17.1936585,16.4540244 C17.7670732,16.4540244 18.2767073,16.5178049 18.7864634,16.5814634 C19.359878,16.7089024 19.8695122,16.8363415 20.3792683,17.027439 C24.2020732,18.3653659 26.7506098,21.9332927 26.7506098,26.0109756 L26.7506098,38.0528049 C26.7506098,39.1358537 25.922439,39.9641463 24.8392683,39.9641463 Z" id="Combined-Shape"></path>
                    </g>
                </g>
                <g id="group-copy" transform="translate(325.000000, 215.000000)" fill="url(#linearGradient-6)" fill-rule="nonzero">
                    <g id="Group" opacity="0.300000012">
                        <path d="M50.9069512,16.3534146 L43.325122,16.3534146 C40.2668293,16.3534146 37.3997561,17.8187805 35.6158537,20.239878 C36.1892683,20.3035366 36.6990244,20.4947561 37.2086585,20.6858537 C39.3112195,21.4503659 42.3057317,26.1652439 42.3057317,29.6693902 L42.9428049,41.7112195 C42.9428049,42.7943902 42.1145122,43.622561 41.0314634,43.622561 L38.1006098,43.622561 L38.865122,50.5035366 L39.1836585,54.4537805 C39.2473171,55.4731707 40.0756098,56.2378049 41.095,56.2378049 L53.2004878,56.2378049 C54.219878,56.2378049 55.0481707,55.4732927 55.1118293,54.4537805 L56.2586585,39.8634146 L58.6160976,39.8634146 C59.6992683,39.8634146 60.527439,39.035122 60.527439,37.9520732 L60.527439,25.9102439 C60.4639024,20.6221951 56.195122,16.3534146 50.9069512,16.3534146 Z" id="Shape"></path>
                        <path d="M47.0841463,15.3340244 C51.2892683,15.3340244 54.7297561,11.8935366 54.7297561,7.68841463 C54.7297561,3.48329268 51.2891463,0.042804878 47.0841463,0.042804878 C42.8791463,0.042804878 39.4385366,3.48329268 39.4385366,7.68841463 C39.4385366,11.8935366 42.8790244,15.3340244 47.0841463,15.3340244 Z" id="Shape"></path>
                        <path d="M20.0696341,43.6226829 C19.8785366,43.6226829 19.6873171,43.5590244 19.559878,43.5590244 C18.7953659,43.3041463 18.2219512,42.6032927 18.2219512,41.7113415 L17.584878,29.6695122 C17.584878,26.420122 19.1776829,24.190122 21.79,22.469878 C22.4271951,22.0239024 22.4908537,21.0045122 23.3191463,20.6858537 C23.8289024,20.4947561 24.3385366,20.3673171 24.7845122,20.3035366 C23.0004878,17.882439 20.1334146,16.4170732 17.0752439,16.4170732 L9.55695122,16.4170732 C4.26878049,16.4170732 0,20.6859756 0,25.9741463 L0,37.9521951 C0,39.0353659 0.828292683,39.8635366 1.91134146,39.8635366 L4.205,39.8635366 L5.35182927,54.4539024 C5.4154878,55.4732927 6.24378049,56.2379268 7.26317073,56.2379268 L19.3686585,56.2379268 C20.3880488,56.2379268 21.2163415,55.4734146 21.28,54.4539024 L21.5985366,49.8665854 L22.3630488,43.6226829 L20.1330488,43.6226829 L20.0696341,43.6226829 Z" id="Shape"></path>
                        <path d="M13.3160976,15.3340244 C17.5212195,15.3340244 20.9617073,11.8935366 20.9617073,7.68841463 C20.9617073,3.48329268 17.5210976,0.042804878 13.3160976,0.042804878 C9.11109756,0.042804878 5.6704878,3.48329268 5.6704878,7.68841463 C5.6704878,11.8935366 9.11097561,15.3340244 13.3160976,15.3340244 Z" id="Shape"></path>
                    </g>
                    <g id="Group" transform="translate(16.829268, 3.658537)">
                        <path d="M13.3708537,15.3708537 C9.16573171,15.3708537 5.7252439,11.9303659 5.7252439,7.7252439 C5.7252439,3.52012195 9.16573171,0.0796341463 13.3708537,0.0796341463 C17.5759756,0.0796341463 21.0164634,3.52012195 21.0164634,7.7252439 C21.0164634,11.9303659 17.5759756,15.3708537 13.3708537,15.3708537 Z M24.8392683,39.9641463 C24.8392683,39.9641463 22.5454878,39.9641463 22.5454878,39.9642683 L22.0357317,46.8452439 L21.4623171,54.5545122 C21.3986585,55.5740244 20.5703659,56.3385366 19.5509756,56.3385366 L7.4454878,56.3385366 C6.42609756,56.3385366 5.59780488,55.5739024 5.53414634,54.5545122 L4.83329268,46.2080488 L4.32353659,39.9641463 L4.25987805,39.9641463 L2.02987805,39.9641463 C1.83878049,39.9641463 1.64756098,39.9641463 1.45646341,39.9004878 C0.69195122,39.6456098 0.118536585,38.9447561 0.118536585,38.0528049 L0.118536585,26.0109756 C0.118536585,22.8253659 1.71146341,19.8945122 4.32365854,18.1742683 C5.0245122,17.6645122 5.72536585,17.2823171 6.55365854,17.027439 C7.06329268,16.8362195 7.57304878,16.7087805 8.01902439,16.645122 C8.52865854,16.5176829 9.10207317,16.4540244 9.61182927,16.4540244 L17.1936585,16.4540244 C17.7670732,16.4540244 18.2767073,16.5178049 18.7864634,16.5814634 C19.359878,16.7089024 19.8695122,16.8363415 20.3792683,17.027439 C24.2020732,18.3653659 26.7506098,21.9332927 26.7506098,26.0109756 L26.7506098,38.0528049 C26.7506098,39.1358537 25.922439,39.9641463 24.8392683,39.9641463 Z" id="Combined-Shape"></path>
                    </g>
                </g>
                <polyline id="Path-10" stroke="#E5DBE8" stroke-width="2" points="159.668531 118.599752 145.83821 121.912826 145.83821 106.740358"></polyline>
                <polyline id="Path-10" stroke="#E5DBE8" stroke-width="2" transform="translate(141.753371, 198.326592) rotate(127.000000) translate(-141.753371, -198.326592) " points="148.668531 202.599752 134.83821 205.912826 134.83821 190.740358"></polyline>
            </g>
        </g>
    </g>
</svg>