<?xml version="1.0" encoding="UTF-8"?>
<svg width="391px" height="355px" viewBox="0 0 391 355" version="1.1" xmlns="http://www.w3.org/2000/svg" xmlns:xlink="http://www.w3.org/1999/xlink">
    <!-- Generator: sketchtool 49 (51002) - http://www.bohemiancoding.com/sketch -->
    <title>9E6D2B21-D299-48F7-A2AF-E13F26B5BF0B</title>
    <desc>Created with sketchtool.</desc>
    <defs>
        <linearGradient x1="11.4661734%" y1="15.1461538%" x2="88.5357401%" y2="84.8555769%" id="linearGradient-1">
            <stop stop-color="#E68CBC" offset="0%"></stop>
            <stop stop-color="#8366B3" offset="100%"></stop>
        </linearGradient>
        <linearGradient x1="84.8556683%" y1="11.466082%" x2="15.1462452%" y2="88.5356487%" id="linearGradient-2">
            <stop stop-color="#E68CBC" offset="0%"></stop>
            <stop stop-color="#8366B3" offset="100%"></stop>
        </linearGradient>
        <linearGradient x1="50%" y1="0%" x2="50%" y2="100%" id="linearGradient-3">
            <stop stop-color="#70E2F2" offset="0%"></stop>
            <stop stop-color="#5298FB" offset="100%"></stop>
        </linearGradient>
        <path d="M78.7129612,24.7351456 C77.3826214,10.8748058 65.8428155,0 51.6358738,0 C40.6428155,0 31.2295146,6.52461165 26.8915534,15.8866019 C25.5853398,15.4733981 24.2244175,15.1879612 22.7816019,15.1879612 C15.2331553,15.1879612 9.11257282,21.3116019 9.11257282,28.8569903 C9.11257282,30.3575728 9.41330097,31.7762621 9.85980583,33.1218932 C3.98830097,36.5454369 0,42.8332039 0,50.1172816 C0,61.0223301 8.83936893,69.861699 19.7444175,69.861699 L19.7444175,69.8647573 L74.4178155,69.8647573 L74.4178155,69.861699 C87.0025243,69.861699 97.196699,59.664466 97.196699,47.0797573 C97.196699,35.971165 89.2381068,26.7461165 78.7129612,24.7351456 Z" id="path-4"></path>
        <filter x="-1.0%" y="-1.4%" width="102.1%" height="102.9%" filterUnits="objectBoundingBox" id="filter-5">
            <feOffset dx="0" dy="2" in="SourceAlpha" result="shadowOffsetInner1"></feOffset>
            <feComposite in="shadowOffsetInner1" in2="SourceAlpha" operator="arithmetic" k2="-1" k3="1" result="shadowInnerInner1"></feComposite>
            <feColorMatrix values="0 0 0 0 1   0 0 0 0 1   0 0 0 0 1  0 0 0 1 0" type="matrix" in="shadowInnerInner1"></feColorMatrix>
        </filter>
        <path d="M78.7129612,24.7351456 C77.3826214,10.8748058 65.8428155,0 51.6358738,0 C40.6428155,0 31.2295146,6.52461165 26.8915534,15.8866019 C25.5853398,15.4733981 24.2244175,15.1879612 22.7816019,15.1879612 C15.2331553,15.1879612 9.11257282,21.3116019 9.11257282,28.8569903 C9.11257282,30.3575728 9.41330097,31.7762621 9.85980583,33.1218932 C3.98830097,36.5454369 0,42.8332039 0,50.1172816 C0,61.0223301 8.83936893,69.861699 19.7444175,69.861699 L19.7444175,69.8647573 L74.4178155,69.8647573 L74.4178155,69.861699 C87.0025243,69.861699 97.196699,59.664466 97.196699,47.0797573 C97.196699,35.971165 89.2381068,26.7461165 78.7129612,24.7351456 Z" id="path-6"></path>
        <filter x="-1.0%" y="-1.4%" width="102.1%" height="102.9%" filterUnits="objectBoundingBox" id="filter-7">
            <feOffset dx="0" dy="2" in="SourceAlpha" result="shadowOffsetInner1"></feOffset>
            <feComposite in="shadowOffsetInner1" in2="SourceAlpha" operator="arithmetic" k2="-1" k3="1" result="shadowInnerInner1"></feComposite>
            <feColorMatrix values="0 0 0 0 1   0 0 0 0 1   0 0 0 0 1  0 0 0 1 0" type="matrix" in="shadowInnerInner1"></feColorMatrix>
        </filter>
        <path d="M230.712961,24.7351456 C229.382621,10.8748058 217.842816,0 203.635874,0 C192.642816,0 183.229515,6.52461165 178.891553,15.8866019 C177.58534,15.4733981 176.224417,15.1879612 174.781602,15.1879612 C167.233155,15.1879612 161.112573,21.3116019 161.112573,28.8569903 C161.112573,30.3575728 161.413301,31.7762621 161.859806,33.1218932 C155.988301,36.5454369 152,42.8332039 152,50.1172816 C152,61.0223301 160.839369,69.861699 171.744417,69.861699 L171.744417,69.8647573 L226.417816,69.8647573 L226.417816,69.861699 C239.002524,69.861699 249.196699,59.664466 249.196699,47.0797573 C249.196699,35.971165 241.238107,26.7461165 230.712961,24.7351456 Z" id="path-8"></path>
        <filter x="-1.0%" y="-1.4%" width="102.1%" height="102.9%" filterUnits="objectBoundingBox" id="filter-9">
            <feOffset dx="0" dy="2" in="SourceAlpha" result="shadowOffsetInner1"></feOffset>
            <feComposite in="shadowOffsetInner1" in2="SourceAlpha" operator="arithmetic" k2="-1" k3="1" result="shadowInnerInner1"></feComposite>
            <feColorMatrix values="0 0 0 0 1   0 0 0 0 1   0 0 0 0 1  0 0 0 1 0" type="matrix" in="shadowInnerInner1"></feColorMatrix>
        </filter>
        <path d="M230.712961,309.735146 C229.382621,295.874806 217.842816,285 203.635874,285 C192.642816,285 183.229515,291.524612 178.891553,300.886602 C177.58534,300.473398 176.224417,300.187961 174.781602,300.187961 C167.233155,300.187961 161.112573,306.311602 161.112573,313.85699 C161.112573,315.357573 161.413301,316.776262 161.859806,318.121893 C155.988301,321.545437 152,327.833204 152,335.117282 C152,346.02233 160.839369,354.861699 171.744417,354.861699 L171.744417,354.864757 L226.417816,354.864757 L226.417816,354.861699 C239.002524,354.861699 249.196699,344.664466 249.196699,332.079757 C249.196699,320.971165 241.238107,311.746117 230.712961,309.735146 Z" id="path-10"></path>
        <filter x="-1.0%" y="-1.4%" width="102.1%" height="102.9%" filterUnits="objectBoundingBox" id="filter-11">
            <feOffset dx="0" dy="2" in="SourceAlpha" result="shadowOffsetInner1"></feOffset>
            <feComposite in="shadowOffsetInner1" in2="SourceAlpha" operator="arithmetic" k2="-1" k3="1" result="shadowInnerInner1"></feComposite>
            <feColorMatrix values="0 0 0 0 1   0 0 0 0 1   0 0 0 0 1  0 0 0 1 0" type="matrix" in="shadowInnerInner1"></feColorMatrix>
        </filter>
    </defs>
    <g id="Page-1" stroke="none" stroke-width="1" fill="none" fill-rule="evenodd">
        <g id="牛顿技术" transform="translate(-464.000000, -794.000000)">
            <rect id="Rectangle-17-Copy-2" fill="#F8F9FB" x="0" y="601" width="1920" height="660"></rect>
            <g id="Group-6" transform="translate(464.000000, 794.000000)">
                <g id="Group-3-Copy-11" transform="translate(145.000000, 121.000000)">
                    <rect id="Rectangle-2" fill="url(#linearGradient-1)" opacity="0.400000006" x="49.188785" y="5.90163934" width="5.78691589" height="78.6885246"></rect>
                    <rect id="Rectangle-2" fill="url(#linearGradient-1)" opacity="0.400000006" x="24.2099109" y="47.6011217" width="5.78691589" height="55.8830261"></rect>
                    <rect id="Rectangle-2" fill="url(#linearGradient-2)" opacity="0.400000006" x="73.1789867" y="46.1789936" width="5.78691589" height="57.6371124"></rect>
                    <path d="M54.9757009,62.6505324 L54.9757009,111.329553 L96.9883249,86.5926869 L96.9883249,37.629981 L55.6378221,61.503705 L54.9757009,62.6505324 Z M9.00070444,32.0287003 L52.0584502,56.8881014 L94.8792525,32.1654996 L51.8238098,6.81462613 L9.00070444,32.0287003 Z M6.65929459,37.3590415 L6.65929459,86.5926869 L49.188785,111.633882 L49.188785,61.9134543 L6.65929459,37.3590415 Z M51.8238098,0 L102.775241,30 L102.775241,90 L51.8238098,120 L0.872378705,90 L0.872378705,30 L51.8238098,0 Z" id="Combined-Shape" fill="url(#linearGradient-1)" fill-rule="nonzero"></path>
                </g>
                <path d="M139.39124,48.6032647 C105.951039,63.6123607 79.2540974,90.9651219 65.1000964,124.861868 M60.8491633,224.587802 C73.6299043,264.524644 103.309119,296.903406 141.474929,313.312209 M259.9091,311.339831 C296.236801,294.259961 324.294274,262.496094 336.432704,223.697044 M332.511448,126.349817 C319.297934,93.6805665 294.485071,66.9447146 263.178792,51.2481934" id="Oval-3" stroke="#DFDFDF" stroke-width="4"></path>
                <path d="M265.421394,48.4213943 L274.421394,48.4213943 L274.421394,51.4213943 L265.421394,51.4213943 L265.421394,60.4213943 L262.421394,60.4213943 L262.421394,48.4213943 L265.421394,48.4213943 Z" id="Combined-Shape" fill="#DFDFDF" transform="translate(268.421394, 54.421394) rotate(-16.000000) translate(-268.421394, -54.421394) "></path>
                <path d="M63.6735685,114.299858 L72.6735685,114.299858 L72.6735685,117.299858 L63.6735685,117.299858 L63.6735685,126.299858 L60.6735685,126.299858 L60.6735685,114.299858 L63.6735685,114.299858 Z" id="Combined-Shape-Copy" fill="#DFDFDF" transform="translate(66.673568, 120.299858) rotate(-115.000000) translate(-66.673568, -120.299858) "></path>
                <path d="M134.196152,305.196152 L143.196152,305.196152 L143.196152,308.196152 L134.196152,308.196152 L134.196152,317.196152 L131.196152,317.196152 L131.196152,305.196152 L134.196152,305.196152 Z" id="Combined-Shape-Copy-2" fill="#DFDFDF" transform="translate(137.196152, 311.196152) rotate(-210.000000) translate(-137.196152, -311.196152) "></path>
                <path d="M331.921693,221.921693 L340.921693,221.921693 L340.921693,224.921693 L331.921693,224.921693 L331.921693,233.921693 L328.921693,233.921693 L328.921693,221.921693 L331.921693,221.921693 Z" id="Combined-Shape-Copy-3" fill="#DFDFDF" transform="translate(334.921693, 227.921693) rotate(-294.000000) translate(-334.921693, -227.921693) "></path>
                <g id="cloud-computing-(2)" transform="translate(293.000000, 138.000000)" fill-rule="nonzero">
                    <g id="Shape-Copy">
                        <use fill="black" fill-opacity="1" filter="url(#filter-5)" xlink:href="#path-4"></use>
                        <path stroke="url(#linearGradient-3)" stroke-width="4" d="M21.7444175,67.8647573 L72.4178155,67.8647573 L72.4178155,67.861699 L74.4178155,67.861699 C85.8972882,67.861699 95.196699,58.5605632 95.196699,47.0797573 C95.196699,37.0746645 88.0630769,28.5577893 78.3376237,26.6996104 L76.8653226,26.4183074 L76.7221105,24.926231 C75.4773321,11.9573254 64.6791997,2 51.6358738,2 C41.6970802,2 32.8365757,7.81348028 28.7062132,16.7274407 L27.966308,18.3242704 L26.2883411,17.7934671 C25.015449,17.3908041 23.8877656,17.1879612 22.7816019,17.1879612 C16.3388501,17.1879612 11.1125728,22.4150461 11.1125728,28.8569903 C11.1125728,30.0206159 11.3309278,31.204859 11.7580335,32.4920268 L12.2691028,34.0322356 L10.8672184,34.8496432 C5.41042855,38.0313758 2,43.7654114 2,50.1172816 C2,59.9177606 9.94393843,67.861699 19.7444175,67.861699 L21.7444175,67.861699 L21.7444175,67.8647573 Z"></path>
                    </g>
                </g>
                <g id="cloud-computing-(2)-copy" transform="translate(0.000000, 138.000000)" fill-rule="nonzero">
                    <g id="Shape-Copy">
                        <use fill="black" fill-opacity="1" filter="url(#filter-7)" xlink:href="#path-6"></use>
                        <path stroke="url(#linearGradient-3)" stroke-width="4" d="M21.7444175,67.8647573 L72.4178155,67.8647573 L72.4178155,67.861699 L74.4178155,67.861699 C85.8972882,67.861699 95.196699,58.5605632 95.196699,47.0797573 C95.196699,37.0746645 88.0630769,28.5577893 78.3376237,26.6996104 L76.8653226,26.4183074 L76.7221105,24.926231 C75.4773321,11.9573254 64.6791997,2 51.6358738,2 C41.6970802,2 32.8365757,7.81348028 28.7062132,16.7274407 L27.966308,18.3242704 L26.2883411,17.7934671 C25.015449,17.3908041 23.8877656,17.1879612 22.7816019,17.1879612 C16.3388501,17.1879612 11.1125728,22.4150461 11.1125728,28.8569903 C11.1125728,30.0206159 11.3309278,31.204859 11.7580335,32.4920268 L12.2691028,34.0322356 L10.8672184,34.8496432 C5.41042855,38.0313758 2,43.7654114 2,50.1172816 C2,59.9177606 9.94393843,67.861699 19.7444175,67.861699 L21.7444175,67.861699 L21.7444175,67.8647573 Z"></path>
                    </g>
                </g>
                <g id="Shape" fill-rule="nonzero">
                    <use fill="black" fill-opacity="1" filter="url(#filter-9)" xlink:href="#path-8"></use>
                    <path stroke="url(#linearGradient-3)" stroke-width="4" d="M173.744417,67.8647573 L224.417816,67.8647573 L224.417816,67.861699 L226.417816,67.861699 C237.897288,67.861699 247.196699,58.5605632 247.196699,47.0797573 C247.196699,37.0746645 240.063077,28.5577893 230.337624,26.6996104 L228.865323,26.4183074 L228.72211,24.926231 C227.477332,11.9573254 216.6792,2 203.635874,2 C193.69708,2 184.836576,7.81348028 180.706213,16.7274407 L179.966308,18.3242704 L178.288341,17.7934671 C177.015449,17.3908041 175.887766,17.1879612 174.781602,17.1879612 C168.33885,17.1879612 163.112573,22.4150461 163.112573,28.8569903 C163.112573,30.0206159 163.330928,31.204859 163.758033,32.4920268 L164.269103,34.0322356 L162.867218,34.8496432 C157.410429,38.0313758 154,43.7654114 154,50.1172816 C154,59.9177606 161.943938,67.861699 171.744417,67.861699 L173.744417,67.861699 L173.744417,67.8647573 Z"></path>
                </g>
                <g id="Shape-Copy-2" fill-rule="nonzero">
                    <use fill="black" fill-opacity="1" filter="url(#filter-11)" xlink:href="#path-10"></use>
                    <path stroke="url(#linearGradient-3)" stroke-width="4" d="M173.744417,352.864757 L224.417816,352.864757 L224.417816,352.861699 L226.417816,352.861699 C237.897288,352.861699 247.196699,343.560563 247.196699,332.079757 C247.196699,322.074664 240.063077,313.557789 230.337624,311.69961 L228.865323,311.418307 L228.72211,309.926231 C227.477332,296.957325 216.6792,287 203.635874,287 C193.69708,287 184.836576,292.81348 180.706213,301.727441 L179.966308,303.32427 L178.288341,302.793467 C177.015449,302.390804 175.887766,302.187961 174.781602,302.187961 C168.33885,302.187961 163.112573,307.415046 163.112573,313.85699 C163.112573,315.020616 163.330928,316.204859 163.758033,317.492027 L164.269103,319.032236 L162.867218,319.849643 C157.410429,323.031376 154,328.765411 154,335.117282 C154,344.917761 161.943938,352.861699 171.744417,352.861699 L173.744417,352.861699 L173.744417,352.864757 Z"></path>
                </g>
            </g>
        </g>
    </g>
</svg>