<?xml version="1.0" encoding="utf-8"?>
<!-- Generator: Adobe Illustrator 16.0.0, SVG Export Plug-In . SVG Version: 6.00 Build 0)  -->
<!DOCTYPE svg PUBLIC "-//W3C//DTD SVG 1.1//EN" "http://www.w3.org/Graphics/SVG/1.1/DTD/svg11.dtd">
<svg version="1.1" id="层_1" xmlns="http://www.w3.org/2000/svg" xmlns:xlink="http://www.w3.org/1999/xlink" x="0px" y="0px"
	 width="835.41px" height="484.5px" viewBox="0 0 835.41 484.5" enable-background="new 0 0 835.41 484.5" xml:space="preserve">
<g>
	
		<line fill-rule="evenodd" clip-rule="evenodd" fill="none" stroke="#B7C0D0" stroke-linecap="square" stroke-miterlimit="10" x1="5.64" y1="252.17" x2="409.72" y2="484.5"/>
	
		<line fill-rule="evenodd" clip-rule="evenodd" fill="none" stroke="#B7C0D0" stroke-linecap="square" stroke-miterlimit="10" x1="28.98" y1="190.38" x2="524.87" y2="474.9"/>
	
		<line fill-rule="evenodd" clip-rule="evenodd" fill="none" stroke="#B7C0D0" stroke-linecap="square" stroke-miterlimit="10" x1="93.83" y1="153.41" x2="589.72" y2="437.92"/>
	
		<line fill-rule="evenodd" clip-rule="evenodd" fill="none" stroke="#B7C0D0" stroke-linecap="square" stroke-miterlimit="10" x1="154.58" y1="115.61" x2="653.34" y2="402.45"/>
	
		<line fill-rule="evenodd" clip-rule="evenodd" fill="none" stroke="#B7C0D0" stroke-linecap="square" stroke-miterlimit="10" x1="215.33" y1="79.46" x2="714.05" y2="366.13"/>
	
		<line fill-rule="evenodd" clip-rule="evenodd" fill="none" stroke="#B7C0D0" stroke-linecap="square" stroke-miterlimit="10" x1="275.84" y1="44.78" x2="776.02" y2="332.11"/>
	
		<line fill-rule="evenodd" clip-rule="evenodd" fill="none" stroke="#B7C0D0" stroke-linecap="square" stroke-miterlimit="10" x1="335.19" y1="8.79" x2="837" y2="296.74"/>
	
		<line fill-rule="evenodd" clip-rule="evenodd" fill="none" stroke="#B7C0D0" stroke-linecap="square" stroke-miterlimit="10" x1="835.41" y1="226.24" x2="389.64" y2="483.43"/>
	
		<line fill-rule="evenodd" clip-rule="evenodd" fill="none" stroke="#B7C0D0" stroke-linecap="square" stroke-miterlimit="10" x1="770.15" y1="190.38" x2="274.71" y2="473.57"/>
	
		<line fill-rule="evenodd" clip-rule="evenodd" fill="none" stroke="#B7C0D0" stroke-linecap="square" stroke-miterlimit="10" x1="705.29" y1="153.41" x2="210.68" y2="437.41"/>
	
		<line fill-rule="evenodd" clip-rule="evenodd" fill="none" stroke="#B7C0D0" stroke-linecap="square" stroke-miterlimit="10" x1="644.55" y1="115.61" x2="145.79" y2="402.45"/>
	
		<line fill-rule="evenodd" clip-rule="evenodd" fill="none" stroke="#B7C0D0" stroke-linecap="square" stroke-miterlimit="10" x1="583.8" y1="80.28" x2="85.04" y2="366.08"/>
	
		<line fill-rule="evenodd" clip-rule="evenodd" fill="none" stroke="#B7C0D0" stroke-linecap="square" stroke-miterlimit="10" x1="524.16" y1="44.06" x2="24" y2="331.27"/>
	
		<line fill-rule="evenodd" clip-rule="evenodd" fill="none" stroke="#B7C0D0" stroke-linecap="square" stroke-miterlimit="10" x1="462.71" y1="8.5" x2="5" y2="272.11"/>
</g>
<g>
	<g>
		<g>
			<g>
				<path d="M18.141,135.823l-3.446-12.812l2.8,1.562l2.04,8.275l1.877-6.09l2.779,1.551l1.815,8.149l2.082-5.975l2.84,1.585
					l-3.497,8.938l-2.769-1.545l-1.876-8.05l-1.845,5.974L18.141,135.823z"/>
				<path d="M38.751,143.858l2.871,2.083c-0.369,0.847-0.952,1.323-1.748,1.429c-0.796,0.106-1.793-0.175-2.989-0.842
					c-1.894-1.057-3.295-2.458-4.204-4.202c-0.718-1.392-1.076-2.843-1.076-4.354c0-1.805,0.471-2.955,1.415-3.45
					c0.943-0.496,2.136-0.341,3.578,0.463c1.62,0.904,2.899,2.152,3.835,3.745c0.937,1.593,1.385,3.481,1.344,5.667l-7.219-4.028
					c0.021,0.866,0.253,1.66,0.697,2.383c0.444,0.723,0.998,1.27,1.661,1.64c0.451,0.252,0.831,0.34,1.138,0.266
					C38.362,144.583,38.594,144.317,38.751,143.858z M38.915,141.037c-0.021-0.846-0.236-1.6-0.646-2.263s-0.909-1.158-1.497-1.486
					c-0.629-0.351-1.148-0.412-1.558-0.183s-0.612,0.739-0.605,1.528L38.915,141.037z"/>
				<path d="M44.124,137.956v-2.666l2.882,1.608v2.666L44.124,137.956z M44.124,150.322v-10.89l2.882,1.608v10.89L44.124,150.322z"
					/>
				<path d="M49.692,154.146l3.291,2.237c0.055,0.413,0.181,0.747,0.38,1.001c0.273,0.358,0.704,0.701,1.292,1.029
					c0.752,0.419,1.316,0.621,1.692,0.605c0.253-0.009,0.444-0.145,0.574-0.408c0.089-0.189,0.133-0.606,0.133-1.249v-1.589
					c-0.861,0.695-1.948,0.677-3.26-0.056c-1.463-0.816-2.622-2.081-3.476-3.795c-0.67-1.352-1.005-2.755-1.005-4.211
					c0-1.825,0.439-2.975,1.317-3.449c0.878-0.474,1.97-0.346,3.277,0.383c1.346,0.751,2.457,1.962,3.332,3.633v-1.528l2.697,1.505
					v9.772c0,1.285-0.106,2.187-0.318,2.704s-0.509,0.851-0.892,1c-0.383,0.148-0.894,0.147-1.533-0.004
					c-0.639-0.152-1.448-0.5-2.425-1.045c-1.846-1.03-3.155-2.077-3.928-3.14c-0.772-1.063-1.158-2.08-1.158-3.051
					C49.682,154.394,49.685,154.279,49.692,154.146z M52.266,149.194c0,1.155,0.224,2.126,0.672,2.912
					c0.448,0.787,1,1.363,1.656,1.729c0.704,0.393,1.299,0.45,1.784,0.17c0.485-0.279,0.728-0.959,0.728-2.04
					c0-1.128-0.232-2.095-0.697-2.901c-0.465-0.806-1.053-1.408-1.763-1.804c-0.691-0.385-1.26-0.435-1.707-0.148
					C52.49,147.4,52.266,148.094,52.266,149.194z"/>
				<path d="M65.657,147.305v5.527c0.93-0.568,2.041-0.492,3.333,0.229c0.663,0.37,1.261,0.827,1.794,1.37
					c0.533,0.544,0.935,1.083,1.205,1.616c0.27,0.534,0.454,1.061,0.554,1.581c0.099,0.521,0.148,1.269,0.148,2.247v6.388
					l-2.881-1.607v-5.752c0-1.142-0.055-1.897-0.164-2.266c-0.109-0.369-0.302-0.721-0.58-1.057c-0.277-0.335-0.624-0.62-1.04-0.852
					c-0.479-0.267-0.906-0.39-1.282-0.367c-0.376,0.022-0.651,0.22-0.826,0.59c-0.174,0.371-0.262,1.015-0.262,1.931v5.455
					l-2.881-1.608v-15.032L65.657,147.305z"/>
				<path d="M80.607,159.789v2.297l-1.969-1.099v4.389c0,0.889,0.019,1.417,0.056,1.585s0.123,0.337,0.257,0.507
					c0.133,0.17,0.296,0.309,0.487,0.415c0.266,0.149,0.653,0.272,1.158,0.37l0.247,2.373c-0.67-0.087-1.429-0.367-2.277-0.84
					c-0.52-0.29-0.988-0.638-1.405-1.045c-0.417-0.407-0.723-0.803-0.917-1.188s-0.33-0.835-0.405-1.349
					c-0.062-0.369-0.092-1.063-0.092-2.082v-4.748l-1.323-0.738v-2.297l1.323,0.738v-2.164l2.891-0.068v3.845L80.607,159.789z"/>
				<path d="M12.081,156.442l-4.388-13.338l3.025,1.688l2.051,6.702l0.595,2.188c0.157-0.384,0.256-0.64,0.297-0.767
					c0.096-0.254,0.198-0.504,0.308-0.751l2.072-4.402l2.963,1.653l-4.327,8.475L12.081,156.442z"/>
				<path d="M20.1,155.317c0-0.957,0.236-1.751,0.707-2.384c0.472-0.632,1.14-0.943,2.005-0.932c0.865,0.011,1.83,0.313,2.897,0.909
					c1.647,0.919,2.997,2.208,4.05,3.865c1.053,1.657,1.579,3.303,1.579,4.937c0,1.647-0.532,2.716-1.595,3.207
					s-2.401,0.286-4.015-0.615c-0.998-0.557-1.95-1.313-2.855-2.27c-0.906-0.957-1.595-2.002-2.066-3.137
					C20.335,157.761,20.1,156.568,20.1,155.317z M23.053,157.119c0,1.08,0.256,2.05,0.769,2.911c0.513,0.86,1.145,1.5,1.897,1.919
					c0.752,0.42,1.383,0.485,1.892,0.194c0.509-0.29,0.764-0.981,0.764-2.075c0-1.066-0.255-2.029-0.764-2.888
					c-0.509-0.858-1.14-1.497-1.892-1.917c-0.752-0.419-1.384-0.485-1.897-0.197C23.309,155.355,23.053,156.039,23.053,157.119z"/>
				<path d="M33.594,168.446v-15.032l2.882,1.608v15.032L33.594,168.446z"/>
				<path d="M46.596,175.701v-1.63c-0.396,0.36-0.918,0.527-1.564,0.501c-0.646-0.026-1.328-0.239-2.045-0.639
					c-0.732-0.408-1.388-0.935-1.969-1.581c-0.581-0.646-1.001-1.331-1.261-2.057c-0.26-0.726-0.39-1.602-0.39-2.627v-6.891
					l2.881,1.607v5.004c0,1.531,0.053,2.499,0.159,2.903c0.106,0.404,0.299,0.786,0.58,1.144c0.28,0.358,0.636,0.657,1.066,0.897
					c0.492,0.274,0.933,0.385,1.323,0.333c0.39-0.053,0.656-0.239,0.8-0.559c0.143-0.32,0.215-1.259,0.215-2.818v-4.594l2.881,1.608
					v10.89L46.596,175.701z"/>
				<path d="M52.04,167.849l2.656,1.481v1.487c0.95-0.625,2.082-0.571,3.394,0.161c0.698,0.389,1.302,0.87,1.815,1.443
					c0.512,0.573,0.933,1.242,1.261,2.006c0.478-0.314,0.994-0.46,1.548-0.438c0.554,0.022,1.145,0.208,1.774,0.559
					c0.8,0.446,1.477,0.986,2.031,1.62c0.553,0.633,0.967,1.341,1.241,2.123c0.198,0.576,0.297,1.383,0.297,2.422v6.962
					l-2.881-1.608v-6.224c0-1.08-0.099-1.833-0.298-2.258c-0.267-0.559-0.677-0.993-1.23-1.302
					c-0.404-0.225-0.783-0.314-1.138-0.266c-0.355,0.047-0.612,0.265-0.769,0.652c-0.157,0.388-0.236,1.094-0.236,2.119v5.229
					l-2.881-1.607v-5.968c0-1.06-0.051-1.772-0.154-2.137c-0.102-0.365-0.261-0.683-0.477-0.953s-0.507-0.509-0.876-0.715
					c-0.445-0.248-0.844-0.352-1.2-0.311s-0.61,0.244-0.764,0.609c-0.154,0.365-0.231,1.071-0.231,2.117v5.291l-2.882-1.608V167.849
					z"/>
				<path d="M77.234,189.331l2.871,2.084c-0.369,0.847-0.952,1.323-1.748,1.429c-0.797,0.106-1.793-0.175-2.989-0.842
					c-1.894-1.057-3.295-2.458-4.204-4.202c-0.718-1.391-1.077-2.843-1.077-4.354c0-1.805,0.472-2.955,1.415-3.451
					c0.943-0.495,2.136-0.341,3.578,0.464c1.62,0.904,2.899,2.152,3.835,3.745c0.937,1.593,1.385,3.481,1.344,5.667l-7.219-4.028
					c0.021,0.866,0.253,1.66,0.697,2.383c0.444,0.723,0.998,1.27,1.661,1.64c0.451,0.251,0.831,0.34,1.138,0.266
					C76.844,190.057,77.077,189.79,77.234,189.331z M77.398,186.51c-0.021-0.845-0.236-1.6-0.646-2.262
					c-0.41-0.663-0.909-1.159-1.497-1.487c-0.629-0.351-1.148-0.411-1.558-0.183c-0.41,0.229-0.612,0.739-0.605,1.529L77.398,186.51
					z"/>
				<path d="M41.899,193.973l2.892,1.172c0.123,0.629,0.372,1.194,0.748,1.694c0.376,0.5,0.903,0.939,1.579,1.317
					c0.745,0.416,1.306,0.592,1.682,0.528c0.253-0.051,0.379-0.236,0.379-0.558c0-0.219-0.068-0.438-0.205-0.658
					c-0.143-0.217-0.465-0.522-0.964-0.917c-2.324-1.81-3.797-3.1-4.42-3.871c-0.861-1.068-1.292-2.125-1.292-3.171
					c0-0.943,0.373-1.528,1.118-1.755c0.745-0.227,1.9,0.097,3.466,0.97c1.49,0.832,2.598,1.692,3.322,2.582
					c0.725,0.89,1.224,1.886,1.497,2.989l-2.717-1.014c-0.116-0.489-0.336-0.936-0.661-1.343c-0.324-0.407-0.788-0.778-1.389-1.113
					c-0.759-0.424-1.302-0.621-1.631-0.592c-0.219,0.029-0.328,0.163-0.328,0.402c0,0.205,0.095,0.433,0.287,0.683
					c0.26,0.336,1.157,1.107,2.692,2.313c1.535,1.205,2.606,2.229,3.215,3.075c0.601,0.848,0.902,1.73,0.902,2.646
					c0,0.998-0.417,1.623-1.251,1.876c-0.834,0.252-2.068-0.078-3.702-0.989c-1.483-0.827-2.658-1.783-3.522-2.868
					C42.731,196.287,42.166,195.154,41.899,193.973z"/>
				<path d="M54.594,191.797v-2.666l2.882,1.608v2.666L54.594,191.797z M54.594,204.163v-10.89l2.882,1.608v10.89L54.594,204.163z"
					/>
				<path d="M59.269,206.772v-2.246l4.081-2.409c0.67-0.392,1.166-0.659,1.487-0.801c-0.335-0.167-0.776-0.399-1.323-0.697
					l-3.845-2.125v-2.389l9.003,5.023v2.041l-4.163,2.476l-1.467,0.771c0.8,0.398,1.295,0.651,1.487,0.758l4.461,2.489v2.532
					L59.269,206.772z"/>
				<path d="M77.234,213.331l2.871,2.084c-0.369,0.847-0.952,1.322-1.748,1.429c-0.797,0.106-1.793-0.175-2.989-0.842
					c-1.894-1.057-3.295-2.458-4.204-4.202c-0.718-1.392-1.077-2.843-1.077-4.354c0-1.805,0.472-2.955,1.415-3.451
					c0.943-0.495,2.136-0.341,3.578,0.464c1.62,0.904,2.899,2.152,3.835,3.745c0.937,1.592,1.385,3.481,1.344,5.666l-7.219-4.028
					c0.021,0.866,0.253,1.66,0.697,2.383c0.444,0.723,0.998,1.27,1.661,1.64c0.451,0.252,0.831,0.34,1.138,0.266
					C76.844,214.057,77.077,213.79,77.234,213.331z M77.398,210.51c-0.021-0.845-0.236-1.599-0.646-2.262s-0.909-1.159-1.497-1.487
					c-0.629-0.351-1.148-0.411-1.558-0.183c-0.41,0.229-0.612,0.739-0.605,1.529L77.398,210.51z"/>
			</g>
		</g>
		<g>
			<g>
				<path d="M83.636,146.634l3.052,1.177c0.141,0.603,0.413,1.147,0.816,1.631c0.403,0.485,0.963,0.915,1.68,1.289
					c0.789,0.412,1.38,0.591,1.772,0.538c0.264-0.043,0.394-0.218,0.387-0.524c-0.004-0.209-0.08-0.419-0.227-0.632
					c-0.155-0.21-0.497-0.508-1.028-0.895c-2.469-1.773-4.038-3.034-4.704-3.782c-0.923-1.037-1.393-2.054-1.412-3.052
					c-0.017-0.9,0.362-1.451,1.139-1.652c0.777-0.202,1.994,0.13,3.651,0.995c1.577,0.823,2.754,1.667,3.531,2.53
					c0.776,0.864,1.317,1.824,1.624,2.882l-2.867-1.022c-0.131-0.469-0.371-0.9-0.719-1.295c-0.348-0.395-0.84-0.758-1.477-1.09
					c-0.803-0.419-1.377-0.618-1.72-0.597c-0.229,0.022-0.341,0.147-0.337,0.376c0.004,0.196,0.108,0.415,0.313,0.658
					c0.278,0.326,1.233,1.08,2.865,2.26c1.631,1.18,2.773,2.18,3.426,2.999c0.646,0.821,0.978,1.669,0.994,2.543
					c0.018,0.953-0.407,1.541-1.277,1.765c-0.87,0.224-2.17-0.115-3.899-1.018c-1.571-0.82-2.819-1.755-3.745-2.807
					C84.551,148.858,83.938,147.767,83.636,146.634z"/>
				<path d="M99.895,143.854l0.101,5.274c0.964-0.524,2.13-0.429,3.498,0.285c0.702,0.366,1.337,0.814,1.906,1.344
					c0.569,0.529,1,1.051,1.292,1.565s0.496,1.021,0.61,1.519c0.113,0.499,0.179,1.214,0.197,2.147l0.117,6.096l-3.05-1.592
					l-0.105-5.489c-0.021-1.089-0.092-1.811-0.214-2.165c-0.121-0.354-0.33-0.693-0.626-1.02c-0.296-0.326-0.666-0.604-1.107-0.834
					c-0.507-0.265-0.957-0.39-1.351-0.376c-0.393,0.015-0.678,0.197-0.854,0.547c-0.176,0.35-0.256,0.963-0.239,1.837l0.1,5.206
					l-3.05-1.592l-0.276-14.345L99.895,143.854z"/>
				<path d="M112.851,157.667l-2.776-1.894c0.292-0.843,0.813-1.307,1.563-1.393c0.75-0.086,1.875,0.262,3.372,1.043
					c1.361,0.71,2.376,1.384,3.048,2.021s1.147,1.251,1.427,1.839c0.28,0.588,0.431,1.479,0.454,2.673l0.029,3.192
					c0.018,0.913,0.079,1.612,0.185,2.097c0.106,0.485,0.298,1.045,0.575,1.681l-3.018-1.575c-0.083-0.224-0.186-0.546-0.309-0.965
					c-0.054-0.189-0.092-0.316-0.115-0.379c-0.512,0.185-1.063,0.236-1.652,0.155c-0.589-0.081-1.22-0.297-1.893-0.648
					c-1.187-0.62-2.127-1.398-2.823-2.336c-0.695-0.937-1.051-1.85-1.068-2.736c-0.011-0.587,0.134-1.029,0.437-1.327
					c0.302-0.297,0.731-0.422,1.288-0.375c0.556,0.048,1.361,0.257,2.414,0.625c1.421,0.502,2.405,0.793,2.95,0.871l-0.005-0.274
					c-0.01-0.528-0.162-0.98-0.456-1.356c-0.294-0.376-0.843-0.774-1.646-1.193c-0.543-0.283-0.964-0.407-1.264-0.374
					C113.27,157.073,113.03,157.282,112.851,157.667z M116.975,162.027c-0.389-0.086-1.004-0.269-1.848-0.548
					c-0.844-0.279-1.394-0.408-1.651-0.387c-0.393,0.047-0.586,0.266-0.578,0.657c0.008,0.385,0.173,0.801,0.497,1.248
					c0.323,0.446,0.731,0.798,1.223,1.055c0.55,0.287,1.072,0.398,1.564,0.332c0.365-0.055,0.601-0.231,0.71-0.53
					c0.075-0.193,0.106-0.619,0.094-1.278L116.975,162.027z"/>
				<path d="M122.787,159.714l2.844,1.484l0.029,1.526c0.359-0.33,0.85-0.493,1.474-0.49c0.623,0.002,1.318,0.203,2.085,0.604
					c1.339,0.699,2.484,1.765,3.436,3.197c0.951,1.433,1.443,2.994,1.476,4.684c0.033,1.735-0.411,2.839-1.333,3.31
					c-0.922,0.471-2.053,0.357-3.392-0.341c-0.637-0.332-1.217-0.748-1.738-1.246s-1.073-1.174-1.656-2.026l0.101,5.234
					l-3.051-1.592L122.787,159.714z M125.901,166.308c0.022,1.168,0.296,2.165,0.821,2.99c0.524,0.826,1.156,1.432,1.894,1.816
					c0.709,0.37,1.294,0.422,1.754,0.155c0.46-0.267,0.68-0.983,0.657-2.151c-0.021-1.089-0.279-2.025-0.774-2.806
					c-0.495-0.781-1.101-1.359-1.817-1.733c-0.746-0.389-1.359-0.453-1.841-0.191C126.113,164.65,125.882,165.29,125.901,166.308z"
					/>
				<path d="M143.265,177.413l3.048,2.046c-0.371,0.801-0.974,1.243-1.807,1.328c-0.833,0.086-1.883-0.202-3.149-0.863
					c-2.005-1.046-3.5-2.41-4.484-4.093c-0.778-1.342-1.181-2.734-1.209-4.176c-0.033-1.722,0.44-2.81,1.42-3.264
					s2.233-0.283,3.76,0.514c1.715,0.895,3.078,2.111,4.089,3.65c1.011,1.538,1.515,3.349,1.512,5.434L138.805,174
					c0.037,0.827,0.295,1.589,0.775,2.288c0.479,0.699,1.069,1.231,1.771,1.598c0.478,0.249,0.877,0.341,1.198,0.277
					C142.87,178.098,143.109,177.848,143.265,177.413z M143.385,174.725c-0.037-0.807-0.277-1.53-0.719-2.172
					c-0.442-0.641-0.975-1.124-1.597-1.448c-0.666-0.348-1.212-0.416-1.637-0.205c-0.426,0.21-0.628,0.692-0.606,1.446
					L143.385,174.725z"/>
			</g>
		</g>
		<g>
			<g>
				<path d="M142.205,103.1c0-0.957,0.236-1.752,0.708-2.387c0.471-0.634,1.139-0.947,2.005-0.939
					c0.864,0.007,1.83,0.307,2.896,0.898c1.648,0.913,2.998,2.196,4.05,3.85s1.579,3.297,1.579,4.931
					c0,1.647-0.532,2.718-1.595,3.212c-1.063,0.495-2.401,0.295-4.014-0.6c-0.998-0.553-1.95-1.307-2.855-2.259
					c-0.906-0.954-1.595-1.997-2.066-3.129C142.441,105.542,142.205,104.351,142.205,103.1z M145.158,104.891
					c0,1.08,0.256,2.049,0.769,2.907c0.512,0.858,1.145,1.496,1.896,1.913c0.752,0.417,1.383,0.479,1.892,0.187
					c0.509-0.292,0.764-0.985,0.764-2.079c0-1.066-0.255-2.028-0.764-2.884c-0.509-0.856-1.14-1.493-1.892-1.91
					c-0.752-0.417-1.384-0.48-1.896-0.19C145.414,103.125,145.158,103.811,145.158,104.891z"/>
				<path d="M155.617,105.243l2.687,1.489v1.6c0.349-0.354,0.821-0.536,1.415-0.548c0.595-0.012,1.255,0.183,1.979,0.584
					c1.265,0.701,2.338,1.792,3.22,3.271c0.882,1.479,1.323,3.105,1.323,4.875c0,1.818-0.445,2.985-1.333,3.501
					c-0.889,0.516-1.965,0.423-3.23-0.278c-0.601-0.333-1.147-0.755-1.635-1.265c-0.489-0.51-1.003-1.206-1.543-2.086v5.486
					l-2.881-1.597V105.243z M158.468,112.083c0,1.224,0.243,2.262,0.728,3.116c0.485,0.853,1.076,1.473,1.774,1.86
					c0.67,0.371,1.227,0.412,1.671,0.121c0.445-0.29,0.667-1.047,0.667-2.271c0-1.142-0.229-2.116-0.687-2.924
					c-0.458-0.808-1.025-1.399-1.702-1.774c-0.704-0.39-1.289-0.443-1.753-0.157C158.7,110.34,158.468,111.017,158.468,112.083z"/>
				<path d="M173.52,115.166v2.297l-1.969-1.091v4.389c0,0.889,0.019,1.417,0.057,1.585c0.037,0.167,0.123,0.336,0.256,0.506
					c0.133,0.169,0.296,0.307,0.487,0.413c0.267,0.148,0.653,0.27,1.158,0.365l0.247,2.372c-0.67-0.084-1.429-0.361-2.277-0.831
					c-0.519-0.288-0.988-0.635-1.405-1.04c-0.417-0.406-0.723-0.801-0.918-1.186s-0.33-0.834-0.405-1.347
					c-0.062-0.369-0.092-1.063-0.092-2.082v-4.747l-1.323-0.733v-2.297l1.323,0.733v-2.164l2.891-0.079v3.846L173.52,115.166z"/>
				<path d="M175.52,114.798v-2.666l2.882,1.597v2.666L175.52,114.798z M175.52,127.164v-10.89l2.882,1.597v10.89L175.52,127.164z"
					/>
				<path d="M190.85,127.991l-2.84-1.062c-0.096-0.621-0.313-1.168-0.651-1.643c-0.338-0.475-0.778-0.862-1.318-1.161
					c-0.718-0.398-1.29-0.468-1.718-0.209c-0.427,0.259-0.641,0.97-0.641,2.132c0,1.292,0.217,2.325,0.651,3.099
					c0.434,0.773,1.017,1.363,1.748,1.769c0.547,0.304,0.995,0.396,1.343,0.278c0.349-0.118,0.595-0.517,0.738-1.196l2.83,2.051
					c-0.294,1.136-0.858,1.804-1.692,2.005s-1.952-0.087-3.353-0.864c-1.593-0.883-2.863-2.089-3.81-3.619
					c-0.947-1.529-1.42-3.183-1.42-4.96c0-1.798,0.475-2.935,1.425-3.409s2.235-0.263,3.856,0.635
					c1.326,0.735,2.38,1.605,3.163,2.609C189.946,125.451,190.508,126.633,190.85,127.991z"/>
				<path d="M195.187,130.498l-2.615-1.921c0.294-0.89,0.8-1.389,1.518-1.497c0.717-0.108,1.784,0.23,3.199,1.015
					c1.285,0.712,2.242,1.395,2.871,2.048c0.629,0.652,1.072,1.284,1.328,1.895c0.256,0.61,0.384,1.541,0.384,2.792l-0.031,3.346
					c0,0.958,0.046,1.688,0.138,2.194s0.265,1.088,0.518,1.748l-2.851-1.58c-0.075-0.232-0.167-0.567-0.277-1.004
					c-0.048-0.198-0.082-0.329-0.103-0.396c-0.492,0.206-1.019,0.272-1.579,0.201c-0.561-0.071-1.159-0.283-1.795-0.636
					c-1.121-0.621-2.005-1.415-2.65-2.382c-0.646-0.966-0.969-1.914-0.969-2.844c0-0.615,0.147-1.083,0.441-1.401
					c0.294-0.319,0.706-0.46,1.236-0.423c0.53,0.037,1.294,0.237,2.292,0.599c1.347,0.494,2.28,0.775,2.799,0.844v-0.287
					c0-0.554-0.137-1.024-0.41-1.411c-0.273-0.388-0.79-0.792-1.549-1.212c-0.512-0.284-0.912-0.405-1.199-0.363
					C195.597,129.865,195.365,130.09,195.187,130.498z M199.042,134.973c-0.369-0.082-0.954-0.259-1.753-0.531
					c-0.8-0.272-1.323-0.395-1.569-0.367c-0.376,0.059-0.564,0.293-0.564,0.703c0,0.403,0.15,0.835,0.451,1.296
					c0.301,0.46,0.683,0.819,1.148,1.077c0.519,0.288,1.015,0.392,1.487,0.312c0.349-0.066,0.578-0.258,0.687-0.573
					c0.075-0.204,0.113-0.651,0.113-1.342V134.973z"/>
				<path d="M204.713,143.345v-15.032l2.881,1.598v15.032L204.713,143.345z"/>
			</g>
		</g>
		<g>
			<g>
				<path d="M120.102,11.806l-0.019,2.451l-1.837-1.069l-0.036,4.683c-0.007,0.948,0.006,1.511,0.04,1.688s0.113,0.353,0.236,0.528
					c0.124,0.174,0.275,0.314,0.453,0.417c0.249,0.145,0.61,0.256,1.083,0.333l0.211,2.519c-0.627-0.058-1.336-0.316-2.127-0.776
					c-0.485-0.282-0.921-0.629-1.308-1.041c-0.388-0.413-0.671-0.819-0.85-1.221c-0.18-0.401-0.303-0.874-0.369-1.418
					c-0.055-0.391-0.077-1.13-0.069-2.217l0.04-5.066l-1.234-0.718l0.019-2.451l1.234,0.718l0.018-2.309l2.711-0.225l-0.032,4.103
					L120.102,11.806z"/>
				<path d="M124.68,10.03l-0.046,5.898c0.876-0.655,1.917-0.632,3.122,0.069c0.619,0.36,1.176,0.816,1.671,1.369
					c0.496,0.552,0.868,1.105,1.116,1.66c0.249,0.556,0.417,1.108,0.506,1.658c0.088,0.55,0.128,1.346,0.121,2.389l-0.053,6.817
					l-2.688-1.564l0.048-6.139c0.009-1.218-0.035-2.021-0.135-2.408c-0.1-0.388-0.278-0.753-0.535-1.097
					c-0.257-0.343-0.58-0.629-0.968-0.855c-0.446-0.26-0.846-0.368-1.199-0.324s-0.612,0.268-0.779,0.673s-0.253,1.097-0.261,2.074
					l-0.045,5.821l-2.688-1.564l0.125-16.041L124.68,10.03z"/>
				<path d="M139.755,31.201l2.675,2.073c-0.354,0.923-0.904,1.461-1.651,1.617c-0.747,0.155-1.679-0.093-2.795-0.742
					c-1.767-1.028-3.069-2.448-3.907-4.263c-0.661-1.447-0.986-2.977-0.974-4.589c0.015-1.926,0.467-3.178,1.355-3.757
					c0.889-0.578,2.006-0.476,3.352,0.307c1.511,0.879,2.699,2.145,3.564,3.794c0.865,1.65,1.269,3.642,1.213,5.976l-6.735-3.919
					c0.012,0.924,0.223,1.759,0.634,2.507c0.41,0.748,0.925,1.302,1.543,1.662c0.421,0.245,0.776,0.32,1.065,0.224
					S139.604,31.699,139.755,31.201z M139.933,28.183c-0.013-0.901-0.208-1.695-0.587-2.38c-0.379-0.686-0.843-1.188-1.391-1.508
					c-0.587-0.341-1.073-0.379-1.46-0.113c-0.386,0.266-0.58,0.82-0.58,1.663L139.933,28.183z"/>
				<path d="M147.312,39.313l-2.688-1.564l0.09-11.62l2.497,1.453l-0.013,1.652c0.433-0.532,0.822-0.823,1.165-0.873
					c0.343-0.049,0.731,0.052,1.165,0.304c0.612,0.356,1.201,0.893,1.766,1.61l-0.853,2.196c-0.451-0.599-0.87-1.012-1.259-1.238
					c-0.376-0.219-0.696-0.286-0.96-0.201c-0.264,0.085-0.472,0.394-0.627,0.927c-0.154,0.533-0.24,1.788-0.255,3.765
					L147.312,39.313z"/>
				<path d="M152.252,30.516l2.478,1.441l-0.012,1.587c0.896-0.717,1.956-0.719,3.18-0.007c0.651,0.378,1.214,0.86,1.69,1.445
					s0.865,1.276,1.166,2.074c0.452-0.36,0.937-0.543,1.456-0.549c0.519-0.005,1.072,0.162,1.659,0.504
					c0.746,0.434,1.376,0.975,1.89,1.622c0.514,0.647,0.896,1.38,1.146,2.2c0.181,0.604,0.267,1.46,0.259,2.569l-0.058,7.43
					l-2.688-1.564l0.052-6.642c0.009-1.153-0.078-1.951-0.26-2.394c-0.245-0.583-0.626-1.024-1.143-1.325
					c-0.376-0.219-0.731-0.294-1.065-0.224s-0.576,0.315-0.727,0.737c-0.151,0.421-0.23,1.179-0.239,2.273l-0.043,5.58l-2.688-1.564
					l0.05-6.368c0.009-1.131-0.034-1.888-0.126-2.272c-0.093-0.384-0.239-0.715-0.439-0.992c-0.199-0.277-0.471-0.517-0.816-0.717
					c-0.415-0.241-0.789-0.331-1.122-0.269c-0.333,0.063-0.574,0.292-0.722,0.69c-0.147,0.398-0.225,1.155-0.234,2.271L154.85,43.7
					l-2.688-1.564L152.252,30.516z"/>
				<path d="M169.207,46.053c0.008-1.021,0.236-1.881,0.684-2.581c0.447-0.7,1.076-1.066,1.887-1.1
					c0.81-0.034,1.713,0.239,2.708,0.817c1.537,0.895,2.792,2.198,3.766,3.911c0.973,1.713,1.453,3.441,1.439,5.185
					c-0.014,1.758-0.521,2.927-1.521,3.506c-1.001,0.579-2.254,0.431-3.759-0.445c-0.932-0.542-1.817-1.299-2.659-2.272
					s-1.478-2.053-1.911-3.239C169.408,48.648,169.197,47.388,169.207,46.053z M171.961,47.821
					c-0.009,1.153,0.223,2.174,0.697,3.065c0.473,0.891,1.061,1.541,1.762,1.949c0.701,0.408,1.292,0.444,1.772,0.108
					s0.725-1.088,0.733-2.255c0.009-1.138-0.222-2.151-0.692-3.041c-0.47-0.889-1.056-1.538-1.757-1.946
					c-0.702-0.408-1.294-0.445-1.777-0.111C172.216,45.924,171.97,46.668,171.961,47.821z"/>
				<path d="M191.066,64.775l-2.497-1.453l0.014-1.707c-0.42,0.422-0.913,0.632-1.48,0.628s-1.138-0.173-1.711-0.507
					c-1.167-0.679-2.162-1.798-2.986-3.358c-0.824-1.561-1.228-3.304-1.213-5.229c0.015-1.97,0.431-3.231,1.25-3.785
					c0.817-0.553,1.845-0.47,3.083,0.25c1.135,0.661,2.113,1.772,2.934,3.334l0.045-5.777l2.688,1.564L191.066,64.775z
					 M183.939,54.538c-0.01,1.24,0.133,2.225,0.429,2.954c0.427,1.055,1.03,1.809,1.808,2.261c0.619,0.36,1.147,0.365,1.585,0.016
					c0.439-0.35,0.663-1.122,0.672-2.318c0.01-1.335-0.192-2.418-0.609-3.25c-0.417-0.833-0.953-1.44-1.61-1.822
					c-0.638-0.371-1.174-0.392-1.609-0.063C184.17,52.645,183.948,53.386,183.939,54.538z"/>
				<path d="M192.534,53.956l2.861,1.665l2.365,9.664l2.437-6.87l2.784,1.62l-3.674,9.095l-0.656,1.652
					c-0.241,0.541-0.47,0.928-0.687,1.161c-0.216,0.233-0.464,0.38-0.743,0.441c-0.279,0.061-0.622,0.036-1.028-0.076
					c-0.406-0.112-0.864-0.316-1.375-0.613c-0.517-0.301-1.023-0.658-1.52-1.071l-0.22-2.546c0.42,0.339,0.799,0.607,1.137,0.805
					c0.625,0.363,1.089,0.423,1.392,0.178c0.303-0.245,0.537-0.646,0.702-1.202L192.534,53.956z"/>
				<path d="M213.853,78.035l-2.688-1.564l0.046-5.931c0.01-1.255-0.041-2.1-0.153-2.535s-0.296-0.83-0.553-1.185
					s-0.567-0.638-0.93-0.849c-0.465-0.271-0.884-0.368-1.257-0.292c-0.372,0.077-0.628,0.315-0.769,0.717
					c-0.141,0.402-0.216,1.252-0.227,2.55l-0.041,5.263l-2.688-1.564l0.09-11.621l2.497,1.453l-0.013,1.707
					c0.896-0.797,2.018-0.804,3.363-0.021c0.593,0.345,1.134,0.783,1.624,1.313s0.858,1.058,1.107,1.584s0.42,1.058,0.516,1.597
					c0.095,0.539,0.139,1.257,0.132,2.154L213.853,78.035z"/>
				<path d="M218.651,72.715l-2.436-1.923c0.283-0.963,0.761-1.521,1.436-1.671c0.673-0.15,1.67,0.159,2.99,0.927
					c1.199,0.698,2.09,1.379,2.675,2.045c0.584,0.667,0.994,1.318,1.229,1.958c0.235,0.639,0.348,1.626,0.337,2.96l-0.057,3.572
					c-0.008,1.021,0.03,1.8,0.112,2.335s0.239,1.148,0.471,1.84l-2.659-1.547c-0.068-0.245-0.152-0.598-0.251-1.059
					c-0.043-0.208-0.074-0.347-0.093-0.417c-0.463,0.243-0.957,0.341-1.482,0.292c-0.525-0.049-1.084-0.247-1.677-0.592
					c-1.045-0.608-1.867-1.413-2.465-2.412c-0.598-1-0.893-1.996-0.885-2.988c0.005-0.657,0.146-1.162,0.425-1.517
					c0.278-0.354,0.665-0.525,1.162-0.511c0.496,0.014,1.21,0.19,2.144,0.527c1.258,0.461,2.13,0.716,2.617,0.765l0.002-0.307
					c0.004-0.591-0.12-1.086-0.373-1.486c-0.253-0.4-0.733-0.806-1.441-1.218c-0.479-0.278-0.853-0.388-1.122-0.329
					C219.04,72.021,218.82,72.272,218.651,72.715z M222.228,77.303c-0.345-0.069-0.892-0.229-1.639-0.481s-1.237-0.357-1.468-0.315
					c-0.354,0.08-0.531,0.339-0.535,0.777c-0.003,0.431,0.134,0.884,0.412,1.361c0.278,0.477,0.634,0.841,1.068,1.094
					c0.484,0.282,0.948,0.369,1.391,0.26c0.327-0.088,0.544-0.303,0.649-0.645c0.072-0.222,0.111-0.701,0.117-1.438L222.228,77.303z
					"/>
				<path d="M227.364,74.224l2.478,1.442l-0.012,1.587c0.896-0.717,1.956-0.72,3.18-0.007c0.651,0.379,1.214,0.86,1.69,1.445
					c0.476,0.585,0.865,1.276,1.166,2.074c0.451-0.36,0.936-0.543,1.455-0.549s1.072,0.162,1.659,0.504
					c0.746,0.434,1.376,0.975,1.89,1.622c0.514,0.647,0.896,1.38,1.146,2.2c0.181,0.604,0.268,1.46,0.259,2.569l-0.058,7.43
					l-2.688-1.564l0.052-6.642c0.009-1.152-0.078-1.95-0.26-2.394c-0.245-0.583-0.626-1.024-1.143-1.324
					c-0.376-0.219-0.731-0.294-1.064-0.224c-0.334,0.069-0.577,0.315-0.727,0.737s-0.23,1.179-0.239,2.274l-0.043,5.58l-2.688-1.564
					l0.05-6.368c0.009-1.13-0.033-1.888-0.126-2.271s-0.239-0.715-0.439-0.992c-0.199-0.277-0.471-0.516-0.816-0.717
					c-0.414-0.241-0.788-0.331-1.122-0.268c-0.333,0.063-0.574,0.292-0.722,0.69c-0.146,0.398-0.225,1.155-0.233,2.271l-0.044,5.646
					l-2.688-1.564L227.364,74.224z"/>
				<path d="M244.894,96.098l0.09-11.621l2.688,1.564l-0.09,11.62L244.894,96.098z M244.997,82.902l0.022-2.845l2.688,1.564
					l-0.022,2.845L244.997,82.902z"/>
				<path d="M259.259,96.236l-2.654-0.995c-0.084-0.658-0.284-1.231-0.597-1.722c-0.313-0.49-0.722-0.882-1.226-1.175
					c-0.67-0.39-1.206-0.436-1.609-0.139s-0.609,1.065-0.619,2.305c-0.011,1.379,0.185,2.471,0.585,3.275
					c0.4,0.805,0.941,1.405,1.624,1.802c0.51,0.297,0.929,0.375,1.257,0.232c0.327-0.143,0.561-0.58,0.702-1.312l2.636,2.05
					c-0.285,1.227-0.819,1.967-1.603,2.222c-0.784,0.255-1.83,0.001-3.136-0.759c-1.486-0.865-2.667-2.09-3.542-3.676
					c-0.875-1.587-1.305-3.328-1.29-5.225c0.015-1.918,0.47-3.154,1.364-3.707c0.895-0.553,2.098-0.389,3.609,0.49
					c1.237,0.72,2.219,1.597,2.944,2.631S258.949,94.803,259.259,96.236z"/>
				<path d="M260.311,101.739l2.702,1.099c0.11,0.665,0.339,1.254,0.688,1.769c0.348,0.514,0.838,0.955,1.47,1.322
					c0.695,0.405,1.219,0.563,1.572,0.476c0.238-0.067,0.357-0.272,0.36-0.615c0.001-0.233-0.061-0.464-0.187-0.691
					c-0.133-0.224-0.432-0.533-0.896-0.928c-2.164-1.81-3.534-3.108-4.111-3.898c-0.798-1.095-1.193-2.201-1.185-3.316
					c0.008-1.007,0.361-1.651,1.063-1.932c0.7-0.281,1.78,0.003,3.241,0.853c1.39,0.809,2.421,1.669,3.094,2.581
					c0.672,0.912,1.132,1.949,1.379,3.11l-2.539-0.938c-0.105-0.516-0.308-0.982-0.609-1.399c-0.302-0.417-0.733-0.789-1.294-1.115
					c-0.708-0.412-1.216-0.594-1.523-0.546c-0.206,0.042-0.309,0.19-0.311,0.445c-0.002,0.219,0.086,0.457,0.264,0.714
					c0.241,0.345,1.075,1.12,2.504,2.326c1.428,1.205,2.425,2.243,2.989,3.113c0.556,0.874,0.831,1.799,0.823,2.776
					c-0.008,1.065-0.404,1.754-1.188,2.067c-0.784,0.313-1.938,0.026-3.462-0.861c-1.384-0.805-2.477-1.764-3.279-2.875
					C261.072,104.165,260.551,102.985,260.311,101.739z"/>
			</g>
		</g>
		<g>
			<g>
				<path d="M241.541,28.232l-2.881-1.563V15.78l2.676,1.452v1.548c0.458-0.483,0.87-0.742,1.235-0.776
					c0.366-0.034,0.781,0.075,1.246,0.327c0.656,0.356,1.288,0.88,1.897,1.573l-0.893,2.029c-0.485-0.578-0.937-0.98-1.353-1.206
					c-0.403-0.219-0.745-0.293-1.025-0.223c-0.28,0.07-0.501,0.352-0.662,0.846c-0.161,0.494-0.241,1.667-0.241,3.52V28.232z"/>
				<path d="M249.108,24.77l-2.615-1.89c0.293-0.893,0.8-1.398,1.518-1.515c0.718-0.116,1.784,0.209,3.199,0.977
					c1.285,0.697,2.242,1.369,2.871,2.014c0.629,0.646,1.071,1.272,1.328,1.879c0.256,0.607,0.384,1.537,0.384,2.788l-0.031,3.347
					c0,0.957,0.046,1.688,0.138,2.192c0.092,0.505,0.265,1.085,0.518,1.742l-2.851-1.546c-0.075-0.232-0.167-0.566-0.277-1.001
					c-0.048-0.197-0.082-0.328-0.103-0.395c-0.492,0.212-1.019,0.285-1.579,0.221c-0.561-0.065-1.159-0.27-1.794-0.615
					c-1.121-0.608-2.004-1.391-2.65-2.35s-0.969-1.903-0.969-2.833c0-0.615,0.147-1.084,0.441-1.406
					c0.294-0.323,0.706-0.469,1.235-0.438c0.53,0.031,1.294,0.222,2.292,0.571c1.347,0.478,2.28,0.748,2.799,0.811v-0.287
					c0-0.554-0.137-1.023-0.41-1.407c-0.273-0.384-0.789-0.782-1.548-1.193c-0.513-0.278-0.913-0.395-1.2-0.349
					S249.286,24.36,249.108,24.77z M252.964,29.199c-0.369-0.077-0.954-0.247-1.753-0.51c-0.8-0.263-1.323-0.379-1.569-0.348
					c-0.376,0.063-0.564,0.299-0.564,0.709c0,0.403,0.15,0.833,0.451,1.291s0.684,0.812,1.148,1.064
					c0.52,0.282,1.015,0.38,1.487,0.294c0.349-0.071,0.578-0.265,0.687-0.581c0.075-0.205,0.113-0.653,0.113-1.344V29.199z"/>
				<path d="M268.622,42.922l-2.676-1.452v-1.6c-0.445,0.381-0.969,0.56-1.574,0.536c-0.605-0.024-1.215-0.203-1.831-0.537
					c-1.251-0.678-2.323-1.764-3.215-3.256c-0.892-1.492-1.338-3.141-1.338-4.945c0-1.846,0.434-3.013,1.302-3.503
					c0.868-0.489,1.965-0.374,3.292,0.345c1.216,0.66,2.269,1.737,3.158,3.23v-5.414l2.881,1.563V42.922z M260.931,33.069
					c0,1.163,0.16,2.09,0.482,2.784c0.465,1.004,1.114,1.732,1.948,2.185c0.663,0.36,1.227,0.384,1.692,0.072
					s0.697-1.028,0.697-2.149c0-1.251-0.226-2.274-0.677-3.069s-1.029-1.384-1.733-1.765c-0.684-0.371-1.256-0.41-1.718-0.117
					S260.931,31.989,260.931,33.069z"/>
				<path d="M271.462,32.096V29.43l2.881,1.563v2.666L271.462,32.096z M271.462,44.462v-10.89l2.881,1.563v10.89L271.462,44.462z"/>
				<path d="M279.45,41.228l-2.615-1.89c0.294-0.893,0.8-1.398,1.518-1.515c0.717-0.116,1.784,0.209,3.199,0.977
					c1.286,0.697,2.242,1.368,2.872,2.014c0.628,0.646,1.071,1.271,1.328,1.879s0.384,1.536,0.384,2.787l-0.031,3.347
					c0,0.958,0.046,1.688,0.139,2.192c0.092,0.505,0.265,1.086,0.518,1.742l-2.851-1.546c-0.075-0.232-0.167-0.566-0.277-1.001
					c-0.047-0.197-0.082-0.329-0.103-0.395c-0.492,0.212-1.019,0.285-1.579,0.22s-1.158-0.269-1.794-0.615
					c-1.121-0.607-2.004-1.391-2.65-2.35c-0.646-0.959-0.969-1.903-0.969-2.833c0-0.615,0.147-1.084,0.441-1.407
					s0.706-0.468,1.236-0.437c0.529,0.031,1.293,0.222,2.292,0.571c1.346,0.478,2.279,0.748,2.799,0.811v-0.287
					c0-0.554-0.137-1.023-0.411-1.407c-0.273-0.384-0.789-0.782-1.548-1.193c-0.513-0.278-0.913-0.395-1.2-0.349
					S279.627,40.818,279.45,41.228z M283.306,45.657c-0.369-0.077-0.954-0.247-1.754-0.51s-1.322-0.379-1.569-0.349
					c-0.376,0.063-0.564,0.299-0.564,0.709c0,0.403,0.15,0.833,0.451,1.29c0.301,0.458,0.684,0.812,1.148,1.064
					c0.52,0.281,1.015,0.379,1.487,0.293c0.349-0.07,0.578-0.264,0.687-0.581c0.075-0.206,0.113-0.653,0.113-1.344V45.657z"/>
				<path d="M293.97,45.781v2.297L292,47.011v4.389c0,0.889,0.019,1.416,0.057,1.584c0.037,0.167,0.123,0.335,0.256,0.503
					c0.134,0.168,0.296,0.304,0.487,0.407c0.267,0.145,0.653,0.262,1.159,0.352l0.246,2.369c-0.67-0.076-1.429-0.344-2.276-0.804
					c-0.52-0.282-0.988-0.623-1.405-1.023s-0.723-0.792-0.918-1.175c-0.195-0.383-0.33-0.83-0.405-1.343
					c-0.062-0.368-0.092-1.062-0.092-2.08v-4.748l-1.323-0.717v-2.297l1.323,0.717v-2.164L292,40.868v3.846L293.97,45.781z"/>
				<path d="M295.969,45.39v-2.666l2.881,1.563v2.666L295.969,45.39z M295.969,57.756v-10.89l2.881,1.563v10.89L295.969,57.756z"/>
				<path d="M301.137,54.96c0-0.957,0.236-1.755,0.708-2.395s1.14-0.961,2.005-0.964c0.865-0.002,1.83,0.285,2.896,0.864
					c1.647,0.894,2.998,2.161,4.05,3.802c1.053,1.641,1.579,3.278,1.579,4.912c0,1.647-0.532,2.725-1.594,3.231
					c-1.063,0.507-2.401,0.323-4.015-0.552c-0.998-0.542-1.95-1.283-2.856-2.226c-0.905-0.942-1.594-1.978-2.066-3.105
					S301.137,56.211,301.137,54.96z M304.09,56.716c0,1.08,0.256,2.046,0.769,2.898c0.513,0.853,1.145,1.482,1.897,1.891
					c0.752,0.408,1.383,0.463,1.892,0.165c0.509-0.298,0.764-0.994,0.764-2.088c0-1.066-0.255-2.025-0.764-2.875
					c-0.509-0.851-1.14-1.48-1.892-1.888c-0.752-0.408-1.384-0.464-1.897-0.168C304.346,54.948,304.09,55.636,304.09,56.716z"/>
				<path d="M324.536,73.251l-2.881-1.563v-5.558c0-1.176-0.062-1.97-0.185-2.382c-0.123-0.412-0.323-0.789-0.6-1.13
					c-0.277-0.341-0.61-0.618-1-0.829c-0.499-0.271-0.947-0.377-1.343-0.319c-0.396,0.059-0.668,0.273-0.815,0.645
					c-0.147,0.372-0.221,1.166-0.221,2.382v4.932l-2.881-1.563v-10.89l2.677,1.452v1.6c0.95-0.716,2.146-0.682,3.588,0.101
					c0.636,0.345,1.217,0.774,1.744,1.289c0.526,0.515,0.924,1.022,1.194,1.524c0.27,0.502,0.458,1.008,0.564,1.516
					c0.105,0.508,0.159,1.183,0.159,2.024V73.251z"/>
			</g>
		</g>
	</g>
</g>
<polygon fill-rule="evenodd" clip-rule="evenodd" fill="#7489A9" points="505,375.19 588.7,423.5 685,364.24 604.87,317.5 "/>
<g>
	
		<line fill-rule="evenodd" clip-rule="evenodd" fill="none" stroke="#888888" stroke-width="2" stroke-linecap="square" stroke-miterlimit="10" x1="146.1" y1="181.86" x2="170.16" y2="195.94"/>
	
		<line fill-rule="evenodd" clip-rule="evenodd" fill="none" stroke="#888888" stroke-width="2" stroke-linecap="square" stroke-miterlimit="10" x1="210.1" y1="145.86" x2="308.56" y2="204.58"/>
	
		<line fill-rule="evenodd" clip-rule="evenodd" fill="none" stroke="#888888" stroke-width="2" stroke-linecap="square" stroke-miterlimit="10" x1="273.1" y1="110.86" x2="297.16" y2="124.94"/>
	
		<line fill-rule="evenodd" clip-rule="evenodd" fill="none" stroke="#888888" stroke-width="2" stroke-linecap="square" stroke-miterlimit="10" x1="330.1" y1="73.86" x2="354.16" y2="87.94"/>
	
		<polyline fill-rule="evenodd" clip-rule="evenodd" fill="none" stroke="#888888" stroke-width="2" stroke-linecap="square" stroke-miterlimit="10" points="
		354.6,90.08 106.16,232.94 82.1,218.86 	"/>
	
		<circle fill-rule="evenodd" clip-rule="evenodd" fill="#888888" stroke="#888888" stroke-width="2" stroke-linecap="square" stroke-miterlimit="10" cx="354.5" cy="89" r="2.5"/>
	
		<circle fill-rule="evenodd" clip-rule="evenodd" fill="#888888" stroke="#888888" stroke-width="2" stroke-linecap="square" stroke-miterlimit="10" cx="294.5" cy="124" r="2.5"/>
	
		<circle fill-rule="evenodd" clip-rule="evenodd" fill="#888888" stroke="#888888" stroke-width="2" stroke-linecap="square" stroke-miterlimit="10" cx="233.5" cy="160" r="2.5"/>
	
		<circle fill-rule="evenodd" clip-rule="evenodd" fill="#888888" stroke="#888888" stroke-width="2" stroke-linecap="square" stroke-miterlimit="10" cx="169.5" cy="196" r="2.5"/>
	
		<circle fill-rule="evenodd" clip-rule="evenodd" fill="#888888" stroke="#888888" stroke-width="2" stroke-linecap="square" stroke-miterlimit="10" cx="106.5" cy="232" r="2.5"/>
</g>
<polygon fill-rule="evenodd" clip-rule="evenodd" fill="#888888" points="256.45,174.36 246.56,161.11 234.23,168.04 "/>
<g>
	<polygon fill-rule="evenodd" clip-rule="evenodd" fill="#ECECEC" points="144,227.56 186.55,252.19 406,123.5 365.65,99.5 	"/>
	<polygon fill-rule="evenodd" clip-rule="evenodd" fill="#DFDFDF" points="144.12,228.24 185.79,252.24 185.79,264.02 
		144.12,240.61 	"/>
	<polygon fill-rule="evenodd" clip-rule="evenodd" fill="#C8C8C8" points="406,123.92 186.12,252.24 186.12,264.02 406,136.28 	"/>
	
		<line fill-rule="evenodd" clip-rule="evenodd" fill="none" stroke="#FFFFFF" stroke-linecap="square" stroke-miterlimit="10" x1="144.83" y1="228.18" x2="185.97" y2="251.73"/>
	
		<line fill-rule="evenodd" clip-rule="evenodd" fill="none" stroke="#FFFFFF" stroke-linecap="square" stroke-miterlimit="10" x1="405.3" y1="123.64" x2="185.35" y2="251.62"/>
	
		<line fill-rule="evenodd" clip-rule="evenodd" fill="none" stroke="#FFFFFF" stroke-linecap="square" stroke-miterlimit="10" x1="185.39" y1="251.73" x2="185.39" y2="263.5"/>
</g>
<polygon fill-rule="evenodd" clip-rule="evenodd" fill="#CACCDF" points="193.32,289.61 281,340.17 539.74,188.84 454.65,139.03 "/>
<g>
	<polygon fill-rule="evenodd" clip-rule="evenodd" fill="#B7B9D4" points="252.12,264.7 289.09,285.89 289.09,307.66 252.12,287.06 
			"/>
	<polygon fill-rule="evenodd" clip-rule="evenodd" fill="#8C8FBC" points="328.94,264.52 289,286.22 289,307.4 328.94,285.7 	"/>
	<polygon fill-rule="evenodd" clip-rule="evenodd" fill="#E9E9EF" points="328.94,264.93 289.68,286.89 251.71,264.45 
		290.39,243.08 	"/>
	
		<line fill-rule="evenodd" clip-rule="evenodd" fill="none" stroke="#FFFFFF" stroke-linecap="square" stroke-miterlimit="10" x1="253.42" y1="265.41" x2="290.97" y2="287.18"/>
	
		<line fill-rule="evenodd" clip-rule="evenodd" fill="none" stroke="#FFFFFF" stroke-linecap="square" stroke-miterlimit="10" x1="328.6" y1="265.44" x2="289.35" y2="287.08"/>
	
		<line fill-rule="evenodd" clip-rule="evenodd" fill="none" stroke="#FFFFFF" stroke-linecap="square" stroke-miterlimit="10" x1="289.53" y1="287.06" x2="289.53" y2="306.84"/>
	<path fill-rule="evenodd" clip-rule="evenodd" fill="#CACCDF" d="M291.84,270.62l6.96,3.81c1.2,0.66,1.25,1.73,0.09,2.4l-6.95,4.02
		c-1.2,0.69-3.16,0.69-4.37,0l-6.96-4.02c-1.15-0.67-1.11-1.74,0.09-2.4l6.96-3.81C288.82,269.99,290.68,269.99,291.84,270.62z"/>
</g>
<g>
	<polygon fill-rule="evenodd" clip-rule="evenodd" fill="#B7B9D4" points="252.12,234.7 289.09,255.89 289.09,277.66 252.12,257.06 
			"/>
	<polygon fill-rule="evenodd" clip-rule="evenodd" fill="#8C8FBC" points="328.94,234.52 289,256.22 289,277.4 328.94,255.7 	"/>
	<polygon fill-rule="evenodd" clip-rule="evenodd" fill="#E9E9EF" points="328.94,234.93 289.68,256.89 251.71,234.45 
		290.39,213.08 	"/>
	
		<line fill-rule="evenodd" clip-rule="evenodd" fill="none" stroke="#FFFFFF" stroke-linecap="square" stroke-miterlimit="10" x1="253.42" y1="235.41" x2="290.97" y2="257.18"/>
	
		<line fill-rule="evenodd" clip-rule="evenodd" fill="none" stroke="#FFFFFF" stroke-linecap="square" stroke-miterlimit="10" x1="328.6" y1="235.44" x2="289.35" y2="257.08"/>
	
		<line fill-rule="evenodd" clip-rule="evenodd" fill="none" stroke="#FFFFFF" stroke-linecap="square" stroke-miterlimit="10" x1="289.53" y1="257.06" x2="289.53" y2="276.84"/>
	<path fill-rule="evenodd" clip-rule="evenodd" fill="#CACCDF" d="M291.84,240.62l6.96,3.81c1.2,0.65,1.25,1.73,0.09,2.39
		l-6.95,4.02c-1.2,0.69-3.16,0.69-4.37,0l-6.96-4.02c-1.15-0.66-1.11-1.74,0.09-2.39l6.96-3.81
		C288.82,239.99,290.68,239.99,291.84,240.62z"/>
</g>
<g>
	<polygon fill-rule="evenodd" clip-rule="evenodd" fill="#B7B9D4" points="329.12,220.7 366.09,241.89 366.09,263.66 329.12,243.06 
			"/>
	<polygon fill-rule="evenodd" clip-rule="evenodd" fill="#8C8FBC" points="405.94,220.52 366,242.22 366,263.4 405.94,241.7 	"/>
	<polygon fill-rule="evenodd" clip-rule="evenodd" fill="#E9E9EF" points="405.94,220.93 366.68,242.89 328.71,220.45 
		367.39,199.08 	"/>
	
		<line fill-rule="evenodd" clip-rule="evenodd" fill="none" stroke="#FFFFFF" stroke-linecap="square" stroke-miterlimit="10" x1="330.42" y1="221.41" x2="367.97" y2="243.18"/>
	
		<line fill-rule="evenodd" clip-rule="evenodd" fill="none" stroke="#FFFFFF" stroke-linecap="square" stroke-miterlimit="10" x1="405.6" y1="221.44" x2="366.35" y2="243.08"/>
	
		<line fill-rule="evenodd" clip-rule="evenodd" fill="none" stroke="#FFFFFF" stroke-linecap="square" stroke-miterlimit="10" x1="366.53" y1="243.06" x2="366.53" y2="262.84"/>
	<path fill-rule="evenodd" clip-rule="evenodd" fill="#CACCDF" d="M368.85,226.62l6.96,3.8c1.2,0.66,1.25,1.73,0.1,2.4l-6.96,4.02
		c-1.2,0.69-3.16,0.69-4.36,0l-6.96-4.02c-1.16-0.67-1.11-1.74,0.09-2.4l6.95-3.8C365.83,225.99,367.69,225.99,368.85,226.62z"/>
</g>
<g>
	<polygon fill-rule="evenodd" clip-rule="evenodd" fill="#B7B9D4" points="329.12,190.7 366.09,211.89 366.09,233.66 329.12,213.06 
			"/>
	<polygon fill-rule="evenodd" clip-rule="evenodd" fill="#8C8FBC" points="405.94,190.52 366,212.22 366,233.4 405.94,211.7 	"/>
	<polygon fill-rule="evenodd" clip-rule="evenodd" fill="#E9E9EF" points="405.94,190.93 366.68,212.89 328.71,190.45 
		367.39,169.08 	"/>
	
		<line fill-rule="evenodd" clip-rule="evenodd" fill="none" stroke="#FFFFFF" stroke-linecap="square" stroke-miterlimit="10" x1="330.42" y1="191.41" x2="367.97" y2="213.18"/>
	
		<line fill-rule="evenodd" clip-rule="evenodd" fill="none" stroke="#FFFFFF" stroke-linecap="square" stroke-miterlimit="10" x1="405.6" y1="191.44" x2="366.35" y2="213.08"/>
	
		<line fill-rule="evenodd" clip-rule="evenodd" fill="none" stroke="#FFFFFF" stroke-linecap="square" stroke-miterlimit="10" x1="366.53" y1="213.06" x2="366.53" y2="232.84"/>
	<path fill-rule="evenodd" clip-rule="evenodd" fill="#CACCDF" d="M368.85,196.61l6.96,3.81c1.2,0.66,1.25,1.73,0.1,2.39l-6.96,4.02
		c-1.2,0.7-3.16,0.7-4.36,0l-6.96-4.02c-1.16-0.66-1.11-1.73,0.09-2.39l6.95-3.81C365.83,195.98,367.69,195.98,368.85,196.61z"/>
</g>
<g>
	<polygon fill-rule="evenodd" clip-rule="evenodd" fill="#B7B9D4" points="412.12,173.7 449.09,194.89 449.09,216.66 412.12,196.06 
			"/>
	<polygon fill-rule="evenodd" clip-rule="evenodd" fill="#8C8FBC" points="488.94,173.52 449,195.22 449,216.4 488.94,194.7 	"/>
	<polygon fill-rule="evenodd" clip-rule="evenodd" fill="#E9E9EF" points="488.94,173.93 449.68,195.89 411.71,173.45 
		450.39,152.08 	"/>
	
		<line fill-rule="evenodd" clip-rule="evenodd" fill="none" stroke="#FFFFFF" stroke-linecap="square" stroke-miterlimit="10" x1="413.42" y1="174.41" x2="450.97" y2="196.18"/>
	
		<line fill-rule="evenodd" clip-rule="evenodd" fill="none" stroke="#FFFFFF" stroke-linecap="square" stroke-miterlimit="10" x1="488.6" y1="174.44" x2="449.35" y2="196.08"/>
	
		<line fill-rule="evenodd" clip-rule="evenodd" fill="none" stroke="#FFFFFF" stroke-linecap="square" stroke-miterlimit="10" x1="449.53" y1="196.06" x2="449.53" y2="215.84"/>
	<path fill-rule="evenodd" clip-rule="evenodd" fill="#CACCDF" d="M451.86,179.61l6.97,3.81c1.2,0.65,1.25,1.73,0.09,2.39
		l-6.96,4.02c-1.2,0.69-3.16,0.69-4.36,0l-6.96-4.02c-1.16-0.66-1.11-1.74,0.09-2.39l6.96-3.81
		C448.84,178.98,450.71,178.98,451.86,179.61z"/>
</g>
<g>
	<polygon fill-rule="evenodd" clip-rule="evenodd" fill="#B7B9D4" points="412.12,143.7 449.09,164.89 449.09,186.66 412.12,166.06 
			"/>
	<polygon fill-rule="evenodd" clip-rule="evenodd" fill="#8C8FBC" points="488.94,143.52 449,165.22 449,186.4 488.94,164.7 	"/>
	<polygon fill-rule="evenodd" clip-rule="evenodd" fill="#E9E9EF" points="488.94,143.93 449.68,165.89 411.71,143.45 
		450.39,122.08 	"/>
	
		<line fill-rule="evenodd" clip-rule="evenodd" fill="none" stroke="#FFFFFF" stroke-linecap="square" stroke-miterlimit="10" x1="413.42" y1="144.41" x2="450.97" y2="166.18"/>
	
		<line fill-rule="evenodd" clip-rule="evenodd" fill="none" stroke="#FFFFFF" stroke-linecap="square" stroke-miterlimit="10" x1="488.6" y1="144.44" x2="449.35" y2="166.08"/>
	
		<line fill-rule="evenodd" clip-rule="evenodd" fill="none" stroke="#FFFFFF" stroke-linecap="square" stroke-miterlimit="10" x1="449.53" y1="166.06" x2="449.53" y2="185.84"/>
	<path fill-rule="evenodd" clip-rule="evenodd" fill="#CACCDF" d="M451.86,149.6l6.97,3.81c1.2,0.66,1.25,1.73,0.09,2.4l-6.96,4.01
		c-1.2,0.7-3.16,0.7-4.36,0l-6.96-4.01c-1.16-0.67-1.11-1.74,0.09-2.4l6.96-3.81C448.84,148.97,450.71,148.97,451.86,149.6z"/>
</g>
<g>
	
		<circle fill-rule="evenodd" clip-rule="evenodd" fill="#686DA7" stroke="#686DA7" stroke-width="2" stroke-linecap="square" stroke-miterlimit="10" cx="574.5" cy="285" r="2.5"/>
	
		<circle fill-rule="evenodd" clip-rule="evenodd" fill="#7CABA0" stroke="#7CABA0" stroke-width="2" stroke-linecap="square" stroke-miterlimit="10" cx="513.5" cy="320" r="2.5"/>
	
		<circle fill-rule="evenodd" clip-rule="evenodd" fill="#7CABA0" stroke="#7CABA0" stroke-width="2" stroke-linecap="square" stroke-miterlimit="10" cx="449.5" cy="356" r="2.5"/>
	
		<line fill-rule="evenodd" clip-rule="evenodd" fill="none" stroke="#7CABA0" stroke-width="2" stroke-linecap="square" stroke-miterlimit="10" x1="426.1" y1="342.86" x2="450.16" y2="356.94"/>
	
		<line fill-rule="evenodd" clip-rule="evenodd" fill="none" stroke="#7CABA0" stroke-width="2" stroke-linecap="square" stroke-miterlimit="10" x1="498.1" y1="311.86" x2="548.58" y2="342.38"/>
	
		<line fill-rule="evenodd" clip-rule="evenodd" fill="none" stroke="#7CABA0" stroke-width="2" stroke-linecap="square" stroke-miterlimit="10" x1="553.1" y1="271.86" x2="577.16" y2="285.94"/>
	
		<line fill-rule="evenodd" clip-rule="evenodd" fill="none" stroke="#7CABA0" stroke-width="2" stroke-linecap="square" stroke-miterlimit="10" x1="575.5" y1="285" x2="449" y2="356"/>
</g>
<polygon fill-rule="evenodd" clip-rule="evenodd" fill="#686DA7" points="435.45,277.36 425.56,264.11 413.23,271.04 "/>
<polygon fill-rule="evenodd" clip-rule="evenodd" fill="#7CABA0" points="550.45,343.36 540.56,330.11 528.23,337.04 "/>
<polygon fill-rule="evenodd" clip-rule="evenodd" fill="#888888" points="325.45,214.36 315.56,201.11 303.23,208.04 "/>
<g>
	
		<circle fill-rule="evenodd" clip-rule="evenodd" fill="#686DA7" stroke="#686DA7" stroke-width="2" stroke-linecap="square" stroke-miterlimit="10" cx="496.5" cy="242" r="2.5"/>
	
		<circle fill-rule="evenodd" clip-rule="evenodd" fill="#686DA7" stroke="#686DA7" stroke-width="2" stroke-linecap="square" stroke-miterlimit="10" cx="435.5" cy="277" r="2.5"/>
	
		<circle fill-rule="evenodd" clip-rule="evenodd" fill="#686DA7" stroke="#686DA7" stroke-width="2" stroke-linecap="square" stroke-miterlimit="10" cx="371.5" cy="313" r="2.5"/>
	
		<line fill-rule="evenodd" clip-rule="evenodd" fill="none" stroke="#686DA7" stroke-width="2" stroke-linecap="square" stroke-miterlimit="10" x1="371.3" y1="313.75" x2="390.07" y2="324.72"/>
	
		<line fill-rule="evenodd" clip-rule="evenodd" fill="none" stroke="#686DA7" stroke-width="2" stroke-linecap="square" stroke-miterlimit="10" x1="412.33" y1="263.21" x2="448.54" y2="284.04"/>
	
		<line fill-rule="evenodd" clip-rule="evenodd" fill="none" stroke="#686DA7" stroke-width="2" stroke-linecap="square" stroke-miterlimit="10" x1="498.3" y1="242.75" x2="517.41" y2="253.49"/>
	
		<line fill-rule="evenodd" clip-rule="evenodd" fill="none" stroke="#686DA7" stroke-width="2" stroke-linecap="square" stroke-miterlimit="10" x1="497.5" y1="242" x2="371" y2="313"/>
</g>
<g>
	<polygon fill-rule="evenodd" clip-rule="evenodd" fill="#8CB5AC" points="507,235.3 539.25,253.85 539.25,285.5 507,267.46 	"/>
	<polygon fill-rule="evenodd" clip-rule="evenodd" fill="#7CABA0" points="574,234.63 539.76,253.85 539.76,285.5 574,266.27 	"/>
	<polygon fill-rule="evenodd" clip-rule="evenodd" fill="#BDD5CF" points="574,234.63 539.76,253.85 507.3,235.07 540.88,215.5 	"/>
	<path fill-rule="evenodd" clip-rule="evenodd" fill="#E7EFED" d="M543.56,226.3l11.85,6.45c2.05,1.11,2.13,2.93,0.16,4.06
		l-11.85,6.81c-2.05,1.17-5.39,1.17-7.44,0l-11.85-6.81c-1.97-1.13-1.89-2.95,0.16-4.06l11.85-6.45
		C538.41,225.23,541.59,225.23,543.56,226.3z"/>
	
		<line fill-rule="evenodd" clip-rule="evenodd" fill="none" stroke="#FFFFFF" stroke-linecap="square" stroke-miterlimit="10" x1="507.79" y1="235.27" x2="540.97" y2="254.18"/>
	
		<line fill-rule="evenodd" clip-rule="evenodd" fill="none" stroke="#FFFFFF" stroke-linecap="square" stroke-miterlimit="10" x1="573.33" y1="235.55" x2="539.35" y2="254.08"/>
	
		<line fill-rule="evenodd" clip-rule="evenodd" fill="none" stroke="#D0E1DD" stroke-linecap="square" stroke-miterlimit="10" x1="539.53" y1="254.06" x2="539.53" y2="284.84"/>
</g>
<g>
	<polygon fill-rule="evenodd" clip-rule="evenodd" fill="#8CB5AC" points="445,272.3 477.25,290.85 477.25,322.5 445,304.46 	"/>
	<polygon fill-rule="evenodd" clip-rule="evenodd" fill="#7CABA0" points="512,271.63 477.76,290.85 477.76,322.5 512,303.27 	"/>
	<polygon fill-rule="evenodd" clip-rule="evenodd" fill="#BDD5CF" points="512,271.63 477.76,290.85 445.3,272.07 478.88,252.5 	"/>
	<path fill-rule="evenodd" clip-rule="evenodd" fill="#E7EFED" d="M481.56,263.3l11.85,6.45c2.05,1.11,2.13,2.93,0.16,4.06
		l-11.85,6.81c-2.05,1.17-5.39,1.17-7.44,0l-11.85-6.81c-1.97-1.13-1.89-2.95,0.16-4.06l11.85-6.45
		C476.41,262.23,479.59,262.23,481.56,263.3z"/>
	
		<line fill-rule="evenodd" clip-rule="evenodd" fill="none" stroke="#FFFFFF" stroke-linecap="square" stroke-miterlimit="10" x1="445.79" y1="272.27" x2="478.97" y2="291.18"/>
	
		<line fill-rule="evenodd" clip-rule="evenodd" fill="none" stroke="#FFFFFF" stroke-linecap="square" stroke-miterlimit="10" x1="511.33" y1="272.55" x2="477.35" y2="291.08"/>
	
		<line fill-rule="evenodd" clip-rule="evenodd" fill="none" stroke="#D0E1DD" stroke-linecap="square" stroke-miterlimit="10" x1="477.53" y1="291.06" x2="477.53" y2="321.84"/>
</g>
<g>
	<polygon fill-rule="evenodd" clip-rule="evenodd" fill="#8CB5AC" points="381,308.3 413.25,326.85 413.25,358.5 381,340.46 	"/>
	<polygon fill-rule="evenodd" clip-rule="evenodd" fill="#7CABA0" points="448,307.63 413.76,326.85 413.76,358.5 448,339.27 	"/>
	<polygon fill-rule="evenodd" clip-rule="evenodd" fill="#BDD5CF" points="448,307.63 413.76,326.85 381.3,308.07 414.88,288.5 	"/>
	<path fill-rule="evenodd" clip-rule="evenodd" fill="#E7EFED" d="M417.56,299.3l11.85,6.45c2.05,1.11,2.13,2.93,0.16,4.06
		l-11.85,6.81c-2.05,1.17-5.39,1.17-7.44,0l-11.85-6.81c-1.97-1.13-1.89-2.95,0.16-4.06l11.85-6.45
		C412.41,298.23,415.59,298.23,417.56,299.3z"/>
	
		<line fill-rule="evenodd" clip-rule="evenodd" fill="none" stroke="#FFFFFF" stroke-linecap="square" stroke-miterlimit="10" x1="381.79" y1="308.27" x2="414.97" y2="327.18"/>
	
		<line fill-rule="evenodd" clip-rule="evenodd" fill="none" stroke="#FFFFFF" stroke-linecap="square" stroke-miterlimit="10" x1="447.33" y1="308.55" x2="413.35" y2="327.08"/>
	
		<line fill-rule="evenodd" clip-rule="evenodd" fill="none" stroke="#D0E1DD" stroke-linecap="square" stroke-miterlimit="10" x1="413.53" y1="327.06" x2="413.53" y2="357.84"/>
</g>
<g>
	<polygon fill-rule="evenodd" clip-rule="evenodd" fill="#C5CCD8" points="548.86,348.24 598.48,376.5 648,347.32 598.01,319.32 	
		"/>
	<polygon fill-rule="evenodd" clip-rule="evenodd" fill="#A0ACC0" points="548,347.5 598,375.96 598,404.5 548,376.04 	"/>
	<polygon fill-rule="evenodd" clip-rule="evenodd" fill="#8F9DB8" points="648,347.5 598,375.96 598,404.5 648,376.04 	"/>
	<polygon fill-rule="evenodd" clip-rule="evenodd" fill="#A0ACC0" points="563.63,346.76 597.65,365.27 632.19,346 598,326.52 	"/>
	<polygon fill-rule="evenodd" clip-rule="evenodd" fill="#FFFFFF" points="563.63,345.76 597.65,364.27 632.19,345 598,325.52 	"/>
	
		<line fill-rule="evenodd" clip-rule="evenodd" fill="none" stroke="#FFFFFF" stroke-linecap="square" stroke-miterlimit="10" x1="549.31" y1="348.07" x2="598.43" y2="375.237"/>
	
		<line fill-rule="evenodd" clip-rule="evenodd" fill="none" stroke="#FFFFFF" stroke-linecap="square" stroke-miterlimit="10" x1="647.69" y1="347.37" x2="598.53" y2="375.58"/>
	
		<line fill-rule="evenodd" clip-rule="evenodd" fill="none" stroke="#C1C9D7" stroke-linecap="square" stroke-miterlimit="10" x1="598.53" y1="376.06" x2="598.53" y2="403.84"/>
</g>
<g>
	<polygon fill-rule="evenodd" clip-rule="evenodd" fill="#C5CCD8" points="548.86,318.24 598.48,346.5 648,317.32 598.01,289.32 	
		"/>
	<polygon fill-rule="evenodd" clip-rule="evenodd" fill="#A0ACC0" points="548,317.5 598,345.96 598,374.5 548,346.04 	"/>
	<polygon fill-rule="evenodd" clip-rule="evenodd" fill="#8F9DB8" points="648,317.5 598,345.96 598,374.5 648,346.04 	"/>
	<polygon fill-rule="evenodd" clip-rule="evenodd" fill="#A0ACC0" points="563.63,316.76 597.65,335.27 632.19,316 598,296.52 	"/>
	<polygon fill-rule="evenodd" clip-rule="evenodd" fill="#FFFFFF" points="563.63,315.76 597.65,334.27 632.19,315 598,295.52 	"/>
	
		<line fill-rule="evenodd" clip-rule="evenodd" fill="none" stroke="#FFFFFF" stroke-linecap="square" stroke-miterlimit="10" x1="549.31" y1="318.07" x2="598.53" y2="345.58"/>
	
		<line fill-rule="evenodd" clip-rule="evenodd" fill="none" stroke="#FFFFFF" stroke-linecap="square" stroke-miterlimit="10" x1="647.69" y1="317.37" x2="598.667" y2="345.58"/>
	
		<line fill-rule="evenodd" clip-rule="evenodd" fill="none" stroke="#C1C9D7" stroke-linecap="square" stroke-miterlimit="10" x1="598.53" y1="346.06" x2="598.53" y2="373.84"/>
</g>
<g>
	<g>
		<path d="M599.084,446.298l-0.032-17.754l3.183-1.945l0.012,6.395c0.979-1.795,2.142-3.104,3.485-3.925
			c1.465-0.896,2.678-1.069,3.639-0.521c0.961,0.549,1.444,1.884,1.448,4.007c0.004,2.196-0.482,4.187-1.458,5.971
			c-0.976,1.785-2.163,3.104-3.56,3.958c-0.687,0.42-1.365,0.651-2.034,0.692c-0.669,0.041-1.246-0.149-1.731-0.573l0.003,1.89
			L599.084,446.298z M602.232,437.657c0.002,1.332,0.201,2.197,0.595,2.595c0.553,0.567,1.286,0.571,2.2,0.013
			c0.702-0.429,1.3-1.116,1.793-2.06s0.739-2.106,0.736-3.487c-0.002-1.47-0.253-2.377-0.753-2.722
			c-0.5-0.346-1.138-0.281-1.916,0.194c-0.763,0.467-1.396,1.171-1.902,2.114C602.481,435.248,602.23,436.365,602.232,437.657z"/>
		<path d="M613.391,437.554l-0.032-17.754l3.183-1.946l0.032,17.754L613.391,437.554z"/>
		<path d="M619.087,427.452c-0.002-1.131,0.256-2.384,0.775-3.76s1.256-2.635,2.21-3.776c0.954-1.141,2.02-2.071,3.198-2.791
			c1.82-1.112,3.313-1.392,4.478-0.84c1.166,0.553,1.75,1.794,1.753,3.724c0.003,1.946-0.581,3.918-1.753,5.915
			c-1.172,1.998-2.649,3.541-4.431,4.63c-1.103,0.674-2.155,1.051-3.156,1.129c-1.002,0.079-1.764-0.237-2.287-0.948
			S619.09,428.93,619.087,427.452z M622.35,425.64c0.002,1.275,0.287,2.079,0.854,2.411c0.568,0.332,1.267,0.245,2.098-0.263
			c0.831-0.507,1.526-1.273,2.088-2.295s0.841-2.179,0.838-3.471c-0.002-1.259-0.285-2.056-0.849-2.39s-1.261-0.248-2.091,0.26
			c-0.831,0.508-1.529,1.273-2.094,2.298C622.629,423.214,622.348,424.364,622.35,425.64z"/>
		<path d="M644.478,409.483l-3.136,2.523c-0.107-0.605-0.348-0.963-0.722-1.074c-0.375-0.111-0.86,0.016-1.457,0.381
			c-0.793,0.484-1.425,1.164-1.896,2.037c-0.471,0.874-0.706,1.998-0.703,3.37c0.003,1.526,0.245,2.457,0.726,2.794
			c0.48,0.336,1.125,0.258,1.932-0.236c0.604-0.369,1.099-0.855,1.483-1.458c0.384-0.603,0.655-1.4,0.812-2.394l3.127-1.342
			c-0.322,1.732-0.942,3.272-1.862,4.618c-0.92,1.346-2.154,2.493-3.702,3.438c-1.76,1.076-3.163,1.34-4.21,0.792
			c-1.049-0.547-1.575-1.871-1.579-3.97c-0.004-2.124,0.518-4.098,1.566-5.922c1.047-1.824,2.466-3.283,4.255-4.377
			c1.465-0.896,2.63-1.271,3.496-1.125C643.475,407.686,644.098,408.334,644.478,409.483z"/>
		<path d="M646.794,417.136l-0.032-17.754l3.183-1.945l0.017,9.422l3.718-6.807l3.919-2.396l-4.103,7.212l4.421,5.469l-3.432,2.098
			l-3.035-3.929l-1.48,2.566l0.007,4.118L646.794,417.136z"/>
		<path d="M670.281,393.712l-3.136,2.523c-0.107-0.605-0.348-0.963-0.723-1.074c-0.374-0.111-0.86,0.016-1.456,0.381
			c-0.793,0.484-1.425,1.164-1.896,2.037c-0.471,0.874-0.705,1.998-0.703,3.37c0.003,1.526,0.245,2.457,0.726,2.794
			c0.48,0.336,1.125,0.258,1.933-0.236c0.604-0.369,1.099-0.855,1.483-1.458c0.384-0.603,0.655-1.4,0.813-2.394l3.127-1.342
			c-0.322,1.732-0.943,3.272-1.863,4.618s-2.154,2.492-3.702,3.438c-1.76,1.076-3.163,1.34-4.211,0.792
			c-1.049-0.547-1.574-1.871-1.578-3.97c-0.004-2.124,0.518-4.098,1.565-5.922c1.047-1.824,2.466-3.283,4.256-4.377
			c1.465-0.895,2.63-1.27,3.496-1.125C669.278,391.914,669.9,392.563,670.281,393.712z"/>
		<path d="M675.849,381.604l0.012,6.527c1.025-1.912,2.251-3.304,3.678-4.176c0.732-0.447,1.395-0.706,1.983-0.775
			c0.59-0.069,1.034,0.031,1.333,0.301c0.299,0.27,0.503,0.646,0.615,1.127c0.11,0.482,0.167,1.3,0.168,2.455l0.014,7.545
			l-3.183,1.945l-0.012-6.794c-0.002-1.348-0.064-2.167-0.186-2.456c-0.122-0.29-0.335-0.448-0.642-0.475
			c-0.307-0.027-0.69,0.1-1.15,0.381c-0.528,0.323-1,0.75-1.416,1.278c-0.415,0.528-0.717,1.127-0.909,1.798
			c-0.192,0.671-0.287,1.548-0.285,2.629l0.012,6.443l-3.183,1.945l-0.032-17.754L675.849,381.604z"/>
		<path d="M689.243,382.243l-2.89,1.208c0.322-1.441,0.88-2.703,1.671-3.786c0.792-1.082,1.969-2.101,3.533-3.056
			c1.419-0.868,2.477-1.334,3.172-1.399s1.186,0.092,1.469,0.472c0.284,0.38,0.428,1.309,0.431,2.786l-0.027,3.993
			c0.002,1.13,0.055,1.933,0.157,2.407c0.103,0.475,0.295,0.934,0.575,1.376l-3.149,1.925c-0.083-0.175-0.186-0.448-0.307-0.818
			c-0.054-0.169-0.092-0.279-0.114-0.33c-0.543,0.897-1.124,1.677-1.742,2.337c-0.619,0.661-1.279,1.206-1.981,1.635
			c-1.239,0.757-2.215,0.995-2.93,0.712c-0.715-0.283-1.073-0.973-1.075-2.071c-0.001-0.727,0.16-1.474,0.483-2.241
			s0.778-1.482,1.363-2.143c0.584-0.66,1.428-1.44,2.53-2.341c1.487-1.207,2.517-2.116,3.09-2.726l0-0.339
			c-0.001-0.654-0.153-1.028-0.456-1.122c-0.302-0.094-0.873,0.115-1.71,0.627c-0.566,0.346-1.008,0.735-1.325,1.167
			C689.694,380.951,689.438,381.526,689.243,382.243z M693.506,382.401c-0.407,0.395-1.053,0.963-1.936,1.704
			c-0.883,0.742-1.46,1.293-1.732,1.653c-0.414,0.568-0.621,1.095-0.62,1.579c0.001,0.477,0.167,0.787,0.5,0.931
			c0.333,0.145,0.755,0.06,1.269-0.255c0.574-0.351,1.122-0.887,1.642-1.609c0.385-0.542,0.637-1.072,0.757-1.59
			c0.083-0.342,0.123-0.92,0.122-1.735L693.506,382.401z"/>
		<path d="M699.755,370.144l-0.006-3.149l3.183-1.945l0.006,3.149L699.755,370.144z M699.782,384.749l-0.023-12.861l3.183-1.945
			l0.023,12.861L699.782,384.749z"/>
		<path d="M717.168,374.121l-3.183,1.945l-0.012-6.563c-0.002-1.389-0.073-2.245-0.209-2.57c-0.137-0.325-0.358-0.506-0.665-0.546
			c-0.306-0.039-0.674,0.073-1.105,0.335c-0.551,0.337-1.046,0.802-1.483,1.392c-0.437,0.591-0.737,1.202-0.898,1.834
			c-0.161,0.633-0.241,1.667-0.238,3.104l0.01,5.825l-3.183,1.945l-0.023-12.861l2.956-1.807l0.003,1.889
			c1.047-2.095,2.368-3.629,3.961-4.603c0.702-0.43,1.344-0.687,1.926-0.771s1.022-0.009,1.322,0.229
			c0.298,0.238,0.507,0.587,0.625,1.048s0.178,1.189,0.179,2.182L717.168,374.121z"/>
	</g>
</g>
<g>
	<g>
		<path d="M176.764,234.423l-1.03-0.651c0.231,0.822-0.134,1.508-1.096,2.06c-0.425,0.243-0.901,0.42-1.428,0.531
			c-0.527,0.11-0.999,0.142-1.418,0.092c-0.418-0.049-0.838-0.164-1.258-0.342c-0.283-0.119-0.677-0.338-1.184-0.658l-4.345-2.747
			l1.22-0.699l3.889,2.459c0.621,0.393,1.064,0.643,1.329,0.75c0.39,0.154,0.798,0.216,1.225,0.186
			c0.427-0.029,0.824-0.149,1.19-0.358c0.366-0.21,0.618-0.464,0.756-0.763c0.139-0.299,0.117-0.586-0.064-0.862
			c-0.181-0.275-0.572-0.603-1.17-0.98l-3.757-2.376l1.22-0.698l7.013,4.434L176.764,234.423z"/>
		<path d="M180.462,232.307l-7.013-4.434l1.099-0.629l0.997,0.63c-0.241-0.79,0.137-1.471,1.136-2.042
			c0.434-0.249,0.909-0.429,1.425-0.541c0.516-0.112,0.987-0.142,1.415-0.09c0.427,0.053,0.846,0.165,1.258,0.338
			c0.266,0.113,0.673,0.344,1.223,0.692l4.312,2.726l-1.22,0.698l-4.266-2.697c-0.484-0.306-0.894-0.508-1.229-0.605
			c-0.334-0.097-0.694-0.122-1.08-0.074c-0.385,0.048-0.74,0.165-1.065,0.352c-0.52,0.297-0.808,0.656-0.864,1.075
			c-0.056,0.419,0.365,0.913,1.263,1.48l3.83,2.421L180.462,232.307z"/>
		<path d="M180.573,222.229l-1.367-0.864l1.22-0.698l1.367,0.864L180.573,222.229z M188.886,227.486l-7.013-4.434l1.22-0.699
			l7.013,4.434L188.886,227.486z"/>
		<path d="M192.95,225.16l-6.088-3.849l-1.078,0.617l-0.924-0.585l1.078-0.617l-0.746-0.472c-0.471-0.298-0.779-0.543-0.922-0.738
			c-0.19-0.262-0.234-0.538-0.129-0.829c0.104-0.291,0.424-0.588,0.957-0.894c0.344-0.196,0.763-0.389,1.258-0.577l0.854,0.76
			c-0.297,0.117-0.559,0.24-0.785,0.37c-0.371,0.212-0.555,0.411-0.555,0.596c0.001,0.186,0.212,0.412,0.634,0.679l0.647,0.409
			l1.404-0.803l0.924,0.584l-1.404,0.803l6.088,3.849L192.95,225.16z"/>
		<path d="M193.25,220.764c-1.298-0.821-1.89-1.641-1.774-2.461c0.1-0.683,0.595-1.279,1.486-1.789
			c0.99-0.567,2.115-0.83,3.375-0.79c1.26,0.04,2.447,0.412,3.561,1.116c0.903,0.571,1.474,1.099,1.713,1.585
			c0.24,0.486,0.236,0.972-0.008,1.457c-0.245,0.485-0.682,0.907-1.31,1.267c-1.008,0.577-2.138,0.845-3.389,0.802
			C195.653,221.908,194.435,221.513,193.25,220.764z M194.505,220.046c0.898,0.567,1.772,0.878,2.621,0.93
			c0.849,0.052,1.579-0.097,2.189-0.446c0.605-0.347,0.885-0.777,0.838-1.292c-0.047-0.514-0.53-1.062-1.45-1.644
			c-0.867-0.548-1.727-0.848-2.578-0.899c-0.851-0.05-1.578,0.096-2.179,0.44c-0.61,0.349-0.894,0.779-0.852,1.291
			C193.137,218.939,193.607,219.479,194.505,220.046z"/>
		<path d="M205.615,217.911l-7.013-4.434l1.098-0.628l1.063,0.672c-0.217-0.475-0.286-0.831-0.208-1.066
			c0.079-0.236,0.261-0.436,0.545-0.599c0.412-0.235,0.958-0.394,1.638-0.476l0.682,0.938c-0.47,0.062-0.854,0.179-1.152,0.349
			c-0.267,0.153-0.428,0.339-0.484,0.56c-0.056,0.221,0.009,0.444,0.196,0.671c0.287,0.345,0.681,0.676,1.183,0.993l3.671,2.321
			L205.615,217.911z"/>
		<path d="M210.947,214.859l-7.013-4.434l1.092-0.625l0.984,0.622c-0.117-0.347-0.093-0.693,0.073-1.04
			c0.166-0.347,0.488-0.658,0.967-0.932c0.534-0.305,1.079-0.487,1.636-0.546c0.557-0.059,1.1-0.005,1.627,0.159
			c-0.249-0.843,0.083-1.527,0.996-2.049c0.714-0.409,1.457-0.601,2.226-0.578c0.769,0.024,1.555,0.289,2.355,0.795l4.814,3.043
			l-1.214,0.694l-4.417-2.793c-0.476-0.3-0.857-0.494-1.146-0.581s-0.6-0.111-0.936-0.073c-0.335,0.038-0.643,0.137-0.923,0.298
			c-0.506,0.29-0.763,0.634-0.77,1.033c-0.006,0.399,0.352,0.827,1.073,1.283l4.074,2.576l-1.22,0.698l-4.556-2.88
			c-0.528-0.334-1.024-0.527-1.487-0.581c-0.463-0.053-0.92,0.05-1.373,0.309c-0.344,0.197-0.573,0.434-0.688,0.712
			c-0.115,0.278-0.069,0.562,0.138,0.851c0.208,0.29,0.632,0.636,1.27,1.04l3.638,2.3L210.947,214.859z"/>
		<path d="M219.455,199.976l-1.367-0.864l1.22-0.698l1.367,0.864L219.455,199.976z M227.769,205.232l-7.013-4.434l1.22-0.699
			l7.013,4.434L227.769,205.232z"/>
		<path d="M231.541,203.073l-7.013-4.434l1.099-0.629l0.997,0.63c-0.241-0.79,0.137-1.47,1.136-2.042
			c0.434-0.249,0.909-0.429,1.425-0.541s0.987-0.142,1.415-0.09c0.427,0.053,0.846,0.165,1.257,0.338
			c0.266,0.114,0.673,0.344,1.224,0.692l4.312,2.726l-1.22,0.699l-4.266-2.697c-0.484-0.306-0.894-0.508-1.229-0.605
			c-0.334-0.097-0.694-0.122-1.08-0.074c-0.384,0.048-0.74,0.165-1.065,0.352c-0.52,0.297-0.808,0.656-0.864,1.075
			c-0.056,0.419,0.365,0.913,1.263,1.48l3.83,2.421L231.541,203.073z"/>
		<path d="M241.56,196.059l1.226,0.563c-0.273,0.241-0.545,0.439-0.816,0.594c-0.443,0.253-0.855,0.407-1.236,0.46
			c-0.38,0.054-0.731,0.039-1.053-0.045s-0.839-0.351-1.553-0.802l-4.035-2.551l-0.895,0.513l-0.924-0.585l0.895-0.512l-1.737-1.098
			l0.5-1.146l2.45,1.549l1.227-0.703l0.924,0.584l-1.227,0.703l4.101,2.592c0.339,0.214,0.579,0.34,0.718,0.376
			c0.14,0.037,0.287,0.045,0.441,0.026c0.154-0.019,0.322-0.081,0.503-0.184C241.207,196.317,241.37,196.205,241.56,196.059z"/>
		<path d="M247.182,191.401l1.413-0.626c0.519,0.568,0.707,1.13,0.565,1.688c-0.142,0.559-0.631,1.077-1.467,1.556
			c-1.053,0.603-2.205,0.881-3.453,0.835s-2.443-0.43-3.583-1.15c-1.18-0.746-1.784-1.503-1.811-2.272
			c-0.028-0.769,0.455-1.438,1.45-2.007c0.963-0.551,2.069-0.799,3.317-0.745c1.249,0.054,2.452,0.448,3.61,1.18
			c0.071,0.044,0.174,0.113,0.31,0.204l-5.37,3.073c0.816,0.461,1.629,0.707,2.441,0.735c0.812,0.028,1.518-0.129,2.119-0.473
			c0.447-0.256,0.715-0.547,0.803-0.873C247.613,192.199,247.499,191.824,247.182,191.401z M241.253,192.48l4.021-2.301
			c-0.644-0.342-1.24-0.534-1.789-0.575c-0.846-0.067-1.579,0.077-2.198,0.431c-0.561,0.321-0.849,0.706-0.866,1.156
			C240.405,191.64,240.682,192.07,241.253,192.48z"/>
		<path d="M252.915,190.84l-7.013-4.434l1.099-0.628l1.063,0.672c-0.217-0.475-0.286-0.83-0.208-1.066
			c0.079-0.236,0.261-0.436,0.545-0.599c0.411-0.235,0.958-0.394,1.638-0.476l0.682,0.938c-0.47,0.062-0.854,0.179-1.152,0.349
			c-0.267,0.153-0.428,0.34-0.484,0.56c-0.056,0.221,0.009,0.444,0.196,0.671c0.287,0.345,0.682,0.676,1.184,0.993l3.671,2.321
			L252.915,190.84z"/>
		<path d="M258.539,187.622l-6.088-3.849l-1.078,0.617l-0.924-0.584l1.078-0.617l-0.746-0.472c-0.471-0.298-0.778-0.544-0.921-0.738
			c-0.19-0.262-0.234-0.539-0.129-0.829c0.105-0.291,0.424-0.588,0.957-0.894c0.344-0.197,0.763-0.389,1.258-0.577l0.854,0.76
			c-0.297,0.118-0.559,0.24-0.785,0.37c-0.371,0.212-0.556,0.411-0.555,0.597s0.212,0.412,0.634,0.679l0.647,0.409l1.403-0.803
			l0.924,0.584l-1.403,0.803l6.088,3.849L258.539,187.622z"/>
		<path d="M266.633,181.947c-0.078,0.495-0.249,0.911-0.513,1.248c-0.264,0.336-0.635,0.642-1.114,0.916
			c-0.791,0.453-1.588,0.682-2.389,0.687c-0.801,0.005-1.495-0.177-2.08-0.547c-0.344-0.217-0.577-0.461-0.701-0.732
			s-0.141-0.536-0.053-0.793s0.251-0.507,0.489-0.749c0.178-0.176,0.48-0.42,0.906-0.733c0.871-0.636,1.46-1.138,1.767-1.505
			c-0.158-0.105-0.259-0.172-0.304-0.2c-0.484-0.306-0.94-0.456-1.369-0.449c-0.58,0.009-1.178,0.189-1.793,0.541
			c-0.574,0.329-0.9,0.633-0.978,0.914c-0.077,0.28,0.067,0.616,0.433,1.005l-1.352,0.583c-0.389-0.376-0.612-0.732-0.67-1.068
			c-0.057-0.335,0.066-0.69,0.372-1.063c0.305-0.374,0.768-0.738,1.387-1.092c0.615-0.352,1.185-0.593,1.71-0.724
			c0.525-0.131,0.985-0.18,1.379-0.149c0.395,0.032,0.79,0.129,1.188,0.294c0.244,0.105,0.629,0.324,1.157,0.658l1.585,1.002
			c1.105,0.699,1.831,1.125,2.175,1.281c0.345,0.156,0.729,0.274,1.15,0.356l-1.275,0.729
			C267.37,182.271,267,182.135,266.633,181.947z M263.877,180.327c-0.267,0.365-0.781,0.84-1.544,1.425
			c-0.431,0.332-0.707,0.585-0.827,0.759c-0.12,0.175-0.151,0.348-0.095,0.52c0.057,0.172,0.188,0.323,0.395,0.454
			c0.317,0.201,0.704,0.297,1.162,0.29c0.458-0.007,0.924-0.147,1.398-0.418c0.47-0.269,0.788-0.571,0.954-0.908
			c0.166-0.336,0.16-0.664-0.016-0.982c-0.137-0.244-0.468-0.532-0.992-0.864L263.877,180.327z"/>
		<path d="M273.347,176.053l1.352-0.591c0.674,0.584,0.97,1.175,0.885,1.773c-0.084,0.597-0.52,1.121-1.307,1.571
			c-0.985,0.564-2.091,0.819-3.317,0.765c-1.227-0.054-2.425-0.451-3.596-1.191c-0.757-0.479-1.291-0.971-1.601-1.478
			c-0.311-0.506-0.344-1-0.101-1.481c0.242-0.48,0.673-0.898,1.292-1.253c0.782-0.447,1.615-0.691,2.497-0.732
			s1.748,0.122,2.597,0.49l-1.008,0.792c-0.584-0.233-1.138-0.343-1.663-0.329s-0.99,0.137-1.397,0.37
			c-0.615,0.352-0.9,0.773-0.855,1.265s0.533,1.031,1.461,1.618c0.942,0.596,1.812,0.922,2.609,0.98
			c0.798,0.058,1.495-0.084,2.091-0.425c0.479-0.274,0.737-0.594,0.771-0.958C274.092,176.872,273.855,176.478,273.347,176.053z"/>
		<path d="M281.525,171.746l1.413-0.626c0.519,0.568,0.707,1.13,0.566,1.689c-0.142,0.558-0.631,1.077-1.467,1.555
			c-1.053,0.603-2.204,0.881-3.453,0.835c-1.249-0.046-2.443-0.43-3.583-1.151c-1.18-0.746-1.784-1.503-1.811-2.272
			c-0.028-0.769,0.455-1.438,1.45-2.007c0.963-0.551,2.069-0.799,3.317-0.745c1.249,0.055,2.452,0.448,3.609,1.18
			c0.071,0.044,0.174,0.113,0.311,0.204l-5.371,3.074c0.816,0.461,1.629,0.706,2.441,0.734c0.812,0.029,1.518-0.129,2.119-0.473
			c0.447-0.256,0.715-0.547,0.803-0.873C281.957,172.544,281.842,172.169,281.525,171.746z M275.597,172.824l4.021-2.301
			c-0.644-0.342-1.24-0.534-1.789-0.575c-0.847-0.067-1.58,0.077-2.199,0.431c-0.561,0.321-0.849,0.706-0.866,1.156
			S275.026,172.414,275.597,172.824z"/>
		<path d="M287.863,166.615c-1.298-0.821-1.89-1.641-1.773-2.461c0.1-0.682,0.595-1.279,1.485-1.789
			c0.99-0.566,2.115-0.83,3.375-0.79c1.26,0.04,2.447,0.412,3.561,1.116c0.903,0.571,1.474,1.099,1.713,1.585
			c0.24,0.486,0.236,0.972-0.008,1.457c-0.245,0.485-0.682,0.907-1.31,1.267c-1.008,0.577-2.137,0.845-3.389,0.802
			C290.266,167.759,289.048,167.364,287.863,166.615z M289.118,165.897c0.898,0.568,1.772,0.878,2.621,0.93s1.579-0.096,2.189-0.446
			c0.605-0.346,0.885-0.777,0.839-1.291c-0.047-0.514-0.53-1.062-1.451-1.644c-0.867-0.548-1.727-0.848-2.578-0.898
			c-0.852-0.051-1.578,0.095-2.179,0.439c-0.61,0.349-0.894,0.78-0.852,1.291C287.75,164.79,288.22,165.329,289.118,165.897z"/>
		<path d="M300.533,163.587l-6.088-3.849l-1.078,0.617l-0.924-0.584l1.078-0.617l-0.746-0.472c-0.471-0.298-0.778-0.543-0.921-0.738
			c-0.19-0.262-0.233-0.538-0.129-0.829s0.424-0.588,0.957-0.894c0.344-0.196,0.763-0.389,1.258-0.577l0.854,0.76
			c-0.297,0.117-0.559,0.24-0.785,0.37c-0.371,0.212-0.555,0.411-0.555,0.596c0,0.186,0.212,0.412,0.634,0.679l0.647,0.409
			l1.404-0.803l0.924,0.584l-1.404,0.803l6.088,3.849L300.533,163.587z"/>
		<path d="M314.018,155.87l-0.885-0.56c0.239,0.701-0.084,1.305-0.97,1.812c-0.574,0.329-1.256,0.533-2.046,0.614
			c-0.789,0.081-1.592,0.022-2.41-0.176c-0.816-0.198-1.584-0.523-2.301-0.977c-0.7-0.443-1.215-0.913-1.546-1.41
			s-0.409-0.979-0.233-1.446c0.175-0.466,0.559-0.869,1.151-1.208c0.434-0.249,0.91-0.413,1.427-0.494
			c0.518-0.082,1.025-0.092,1.524-0.033l-3.474-2.196l1.213-0.695l9.681,6.12L314.018,155.87z M306.661,155.865
			c0.898,0.568,1.764,0.881,2.597,0.939c0.834,0.059,1.515-0.063,2.043-0.366c0.533-0.305,0.774-0.699,0.722-1.181
			c-0.052-0.482-0.513-0.999-1.385-1.55c-0.959-0.606-1.854-0.943-2.683-1.01s-1.521,0.059-2.077,0.377
			c-0.542,0.311-0.78,0.707-0.712,1.188C305.233,154.744,305.732,155.278,306.661,155.865z"/>
		<path d="M321.598,150.49c-0.078,0.495-0.249,0.911-0.513,1.248c-0.264,0.336-0.635,0.642-1.114,0.916
			c-0.791,0.453-1.588,0.682-2.389,0.687c-0.801,0.005-1.495-0.177-2.08-0.547c-0.344-0.217-0.577-0.461-0.701-0.732
			s-0.141-0.536-0.053-0.793c0.088-0.257,0.251-0.506,0.489-0.749c0.178-0.176,0.48-0.42,0.906-0.733
			c0.871-0.636,1.46-1.138,1.767-1.504c-0.158-0.105-0.259-0.173-0.304-0.2c-0.484-0.307-0.94-0.456-1.369-0.45
			c-0.58,0.009-1.178,0.189-1.793,0.541c-0.574,0.329-0.9,0.633-0.978,0.914c-0.077,0.28,0.067,0.615,0.433,1.005l-1.352,0.583
			c-0.389-0.376-0.612-0.732-0.67-1.068c-0.057-0.335,0.066-0.69,0.372-1.063s0.768-0.738,1.387-1.092
			c0.615-0.352,1.185-0.593,1.71-0.724c0.525-0.131,0.985-0.18,1.379-0.149c0.395,0.032,0.79,0.129,1.188,0.294
			c0.244,0.105,0.629,0.324,1.157,0.658l1.585,1.001c1.105,0.699,1.831,1.126,2.175,1.281c0.345,0.156,0.729,0.274,1.15,0.355
			l-1.275,0.73C322.334,150.813,321.964,150.678,321.598,150.49z M318.841,148.87c-0.267,0.365-0.781,0.84-1.544,1.425
			c-0.431,0.332-0.707,0.585-0.827,0.759c-0.12,0.175-0.151,0.348-0.095,0.52c0.057,0.172,0.188,0.323,0.395,0.454
			c0.317,0.201,0.704,0.297,1.162,0.29c0.458-0.007,0.924-0.147,1.398-0.418c0.47-0.269,0.788-0.571,0.954-0.908
			c0.166-0.336,0.16-0.664-0.016-0.982c-0.137-0.244-0.468-0.532-0.992-0.864L318.841,148.87z"/>
		<path d="M327.783,146.711l1.226,0.563c-0.273,0.241-0.545,0.439-0.816,0.595c-0.443,0.253-0.855,0.407-1.236,0.46
			s-0.731,0.039-1.053-0.045c-0.322-0.083-0.839-0.351-1.553-0.802l-4.035-2.551l-0.895,0.512l-0.924-0.584l0.895-0.512
			l-1.737-1.098l0.5-1.146l2.45,1.549l1.227-0.702l0.924,0.584l-1.227,0.702l4.101,2.593c0.339,0.214,0.579,0.34,0.718,0.376
			c0.14,0.037,0.287,0.045,0.441,0.026s0.322-0.081,0.503-0.185C327.429,146.969,327.592,146.857,327.783,146.711z"/>
		<path d="M334.567,143.067c-0.078,0.495-0.249,0.911-0.513,1.248c-0.264,0.337-0.635,0.643-1.114,0.917
			c-0.791,0.453-1.588,0.682-2.389,0.687c-0.801,0.005-1.495-0.177-2.08-0.547c-0.344-0.217-0.577-0.461-0.701-0.733
			c-0.124-0.271-0.141-0.535-0.053-0.793c0.088-0.257,0.251-0.506,0.489-0.749c0.178-0.176,0.48-0.42,0.907-0.734
			c0.871-0.636,1.46-1.138,1.767-1.504c-0.158-0.105-0.259-0.172-0.304-0.2c-0.484-0.306-0.94-0.456-1.369-0.449
			c-0.58,0.009-1.178,0.189-1.793,0.541c-0.574,0.329-0.9,0.633-0.978,0.914c-0.077,0.28,0.067,0.615,0.433,1.005l-1.352,0.583
			c-0.389-0.376-0.612-0.732-0.669-1.068c-0.057-0.335,0.066-0.69,0.371-1.063c0.305-0.374,0.768-0.738,1.387-1.092
			c0.615-0.352,1.185-0.593,1.71-0.724c0.525-0.131,0.985-0.181,1.379-0.149c0.395,0.032,0.79,0.13,1.188,0.294
			c0.244,0.105,0.629,0.324,1.157,0.658l1.585,1.001c1.105,0.699,1.831,1.126,2.175,1.281c0.345,0.156,0.729,0.274,1.15,0.355
			l-1.275,0.729C335.304,143.391,334.934,143.255,334.567,143.067z M331.811,141.447c-0.267,0.365-0.781,0.84-1.544,1.424
			c-0.431,0.332-0.707,0.585-0.827,0.76c-0.12,0.175-0.151,0.348-0.095,0.52c0.057,0.172,0.188,0.324,0.395,0.454
			c0.317,0.201,0.704,0.297,1.162,0.29c0.458-0.007,0.924-0.147,1.398-0.418c0.47-0.269,0.788-0.571,0.954-0.908
			s0.16-0.664-0.016-0.982c-0.137-0.244-0.468-0.532-0.992-0.864L331.811,141.447z"/>
		<path d="M344.061,139.375l1.358-0.571c0.406,0.197,0.804,0.282,1.193,0.256c0.522-0.034,1.047-0.201,1.571-0.501
			c0.565-0.323,0.891-0.643,0.979-0.958c0.086-0.315-0.013-0.629-0.301-0.941c-0.179-0.189-0.657-0.527-1.437-1.015
			c0.079,0.692-0.28,1.266-1.076,1.721c-0.99,0.567-2.103,0.786-3.342,0.656c-1.238-0.129-2.343-0.501-3.316-1.117
			c-0.669-0.423-1.162-0.884-1.479-1.384c-0.317-0.5-0.394-0.982-0.229-1.448c0.164-0.465,0.565-0.88,1.202-1.245
			c0.85-0.486,1.885-0.676,3.106-0.568l-0.845-0.534l1.125-0.644l6.062,3.832c1.091,0.69,1.751,1.245,1.979,1.664
			c0.228,0.418,0.226,0.853-0.005,1.303c-0.231,0.451-0.708,0.883-1.432,1.296c-0.859,0.492-1.741,0.77-2.646,0.834
			C345.622,140.077,344.8,139.864,344.061,139.375z M340.858,136.134c0.92,0.582,1.779,0.898,2.577,0.951
			c0.797,0.052,1.479-0.083,2.044-0.407c0.561-0.321,0.821-0.723,0.78-1.206c-0.041-0.483-0.511-1.009-1.409-1.576
			c-0.858-0.543-1.701-0.84-2.528-0.892c-0.827-0.051-1.516,0.08-2.067,0.396c-0.542,0.311-0.789,0.71-0.739,1.199
			C339.565,135.088,340.013,135.599,340.858,136.134z"/>
		<path d="M355.955,130.826c-0.078,0.496-0.249,0.912-0.513,1.248c-0.264,0.336-0.635,0.642-1.114,0.917
			c-0.791,0.453-1.588,0.682-2.389,0.687c-0.801,0.005-1.495-0.177-2.08-0.547c-0.344-0.217-0.577-0.461-0.701-0.733
			c-0.124-0.271-0.141-0.536-0.053-0.793s0.251-0.507,0.489-0.749c0.178-0.176,0.48-0.42,0.906-0.733
			c0.871-0.636,1.46-1.138,1.767-1.504c-0.158-0.105-0.259-0.172-0.304-0.2c-0.484-0.306-0.94-0.456-1.369-0.449
			c-0.58,0.009-1.178,0.189-1.793,0.541c-0.574,0.329-0.9,0.633-0.978,0.913c-0.077,0.281,0.067,0.616,0.433,1.005l-1.352,0.583
			c-0.389-0.376-0.612-0.733-0.67-1.069c-0.057-0.335,0.066-0.69,0.372-1.063s0.768-0.737,1.387-1.092
			c0.615-0.352,1.185-0.593,1.71-0.724c0.525-0.131,0.985-0.181,1.379-0.149c0.395,0.032,0.79,0.13,1.188,0.294
			c0.244,0.105,0.629,0.324,1.157,0.658l1.585,1.002c1.105,0.699,1.831,1.126,2.175,1.281c0.345,0.155,0.729,0.274,1.15,0.355
			l-1.275,0.729C356.691,131.15,356.321,131.014,355.955,130.826z M353.198,129.206c-0.267,0.365-0.781,0.84-1.544,1.425
			c-0.431,0.332-0.707,0.585-0.827,0.76c-0.12,0.175-0.151,0.348-0.095,0.52c0.057,0.172,0.188,0.323,0.395,0.454
			c0.317,0.2,0.704,0.297,1.162,0.29c0.458-0.007,0.924-0.147,1.398-0.418c0.47-0.27,0.788-0.572,0.954-0.908
			c0.166-0.336,0.16-0.663-0.016-0.981c-0.137-0.245-0.468-0.532-0.992-0.864L353.198,129.206z"/>
		<path d="M362.14,127.048l1.226,0.563c-0.273,0.241-0.545,0.439-0.816,0.594c-0.443,0.253-0.855,0.407-1.236,0.46
			c-0.38,0.054-0.731,0.039-1.053-0.045s-0.839-0.351-1.553-0.802l-4.035-2.551l-0.895,0.513l-0.924-0.585l0.895-0.512l-1.737-1.098
			l0.5-1.146l2.45,1.549l1.227-0.703l0.924,0.584l-1.227,0.703l4.101,2.592c0.339,0.214,0.579,0.34,0.718,0.376
			c0.14,0.037,0.287,0.046,0.441,0.026c0.154-0.019,0.322-0.081,0.503-0.184C361.786,127.306,361.949,127.194,362.14,127.048z"/>
		<path d="M365.09,126.64l-9.681-6.121l1.221-0.698l3.474,2.196c-0.073-0.732,0.324-1.347,1.192-1.844
			c0.533-0.305,1.099-0.506,1.697-0.601c0.598-0.096,1.163-0.078,1.693,0.053c0.531,0.131,1.139,0.414,1.826,0.848l4.444,2.81
			l-1.221,0.699l-4.444-2.81c-0.595-0.376-1.159-0.574-1.694-0.593c-0.535-0.02-1.045,0.108-1.528,0.385
			c-0.362,0.207-0.61,0.459-0.746,0.757s-0.116,0.584,0.061,0.859c0.178,0.275,0.541,0.587,1.091,0.935l3.836,2.425L365.09,126.64z"
			/>
		<path d="M376.179,117.573l1.413-0.626c0.519,0.568,0.707,1.13,0.566,1.688c-0.142,0.559-0.631,1.077-1.467,1.556
			c-1.053,0.603-2.204,0.881-3.453,0.835c-1.248-0.046-2.443-0.43-3.583-1.151c-1.18-0.746-1.784-1.503-1.812-2.272
			c-0.027-0.769,0.456-1.438,1.45-2.007c0.963-0.551,2.069-0.799,3.317-0.745s2.452,0.448,3.61,1.18
			c0.07,0.044,0.174,0.112,0.31,0.204l-5.37,3.073c0.816,0.461,1.629,0.707,2.441,0.735c0.812,0.028,1.518-0.129,2.119-0.473
			c0.447-0.256,0.715-0.547,0.803-0.873C376.61,118.371,376.495,117.996,376.179,117.573z M370.25,118.652l4.021-2.301
			c-0.644-0.342-1.24-0.534-1.789-0.575c-0.847-0.067-1.58,0.077-2.199,0.431c-0.561,0.321-0.849,0.707-0.866,1.156
			C369.401,117.812,369.679,118.242,370.25,118.652z"/>
		<path d="M381.912,117.012l-7.013-4.434l1.098-0.628l1.063,0.672c-0.217-0.475-0.286-0.831-0.208-1.066
			c0.079-0.236,0.261-0.436,0.545-0.599c0.412-0.235,0.958-0.394,1.638-0.476l0.682,0.938c-0.47,0.062-0.854,0.179-1.152,0.349
			c-0.267,0.153-0.428,0.339-0.484,0.56c-0.056,0.221,0.009,0.444,0.196,0.671c0.287,0.345,0.682,0.676,1.184,0.993l3.671,2.321
			L381.912,117.012z"/>
	</g>
</g>
<g>
	<g>
		<path fill="#FFFFFF" d="M370.927,281.39l-12.706-8.033l2.634-1.508l5.001,3.162l5.162-2.954l-5.001-3.162l2.634-1.507
			l12.706,8.032l-2.634,1.508l-5.556-3.512l-5.162,2.954l5.556,3.512L370.927,281.39z"/>
		<path fill="#FFFFFF" d="M379.535,268.759l-2.668,1.047c-0.635-0.708-0.854-1.376-0.659-2.003c0.195-0.626,0.907-1.291,2.135-1.994
			c1.116-0.639,2.075-1.032,2.878-1.182c0.803-0.15,1.514-0.164,2.132-0.041c0.618,0.124,1.456,0.519,2.513,1.188l2.816,1.812
			c0.809,0.512,1.446,0.866,1.91,1.063c0.465,0.197,1.026,0.372,1.685,0.523l-2.474,1.416c-0.227-0.065-0.547-0.17-0.959-0.317
			c-0.186-0.068-0.311-0.111-0.375-0.13c-0.023,0.5-0.176,0.953-0.46,1.359s-0.703,0.768-1.254,1.083
			c-0.973,0.557-1.997,0.833-3.072,0.829c-1.075-0.004-2.005-0.254-2.791-0.751c-0.52-0.329-0.856-0.695-1.009-1.099
			c-0.151-0.403-0.106-0.805,0.137-1.206c0.243-0.399,0.717-0.899,1.421-1.497c0.955-0.804,1.565-1.394,1.832-1.769l-0.243-0.153
			c-0.468-0.296-0.92-0.439-1.357-0.429c-0.437,0.01-0.984,0.203-1.643,0.58c-0.445,0.255-0.707,0.507-0.786,0.758
			C379.165,268.096,379.262,268.4,379.535,268.759z M384.857,268.093c-0.216,0.249-0.599,0.618-1.149,1.106
			s-0.862,0.838-0.937,1.048c-0.101,0.329,0.022,0.604,0.369,0.823c0.341,0.215,0.766,0.327,1.275,0.334
			c0.51,0.008,0.966-0.104,1.369-0.335c0.451-0.258,0.737-0.595,0.857-1.012c0.083-0.312,0.013-0.596-0.21-0.851
			c-0.143-0.169-0.505-0.438-1.089-0.807L384.857,268.093z"/>
		<path fill="#FFFFFF" d="M390.691,266.915l2.137-1.672c0.581,0.238,1.157,0.342,1.729,0.311c0.572-0.032,1.151-0.216,1.739-0.552
			c0.646-0.37,1.017-0.722,1.113-1.055c0.057-0.228-0.049-0.428-0.321-0.599c-0.185-0.117-0.397-0.18-0.637-0.189
			c-0.24-0.001-0.626,0.09-1.157,0.276c-2.451,0.88-4.125,1.362-5.023,1.444c-1.245,0.114-2.309-0.109-3.193-0.667
			c-0.797-0.504-1.145-1.113-1.041-1.827c0.103-0.713,0.834-1.459,2.193-2.236c1.293-0.74,2.46-1.161,3.5-1.261
			c1.039-0.101,2.079,0.035,3.119,0.407l-1.934,1.618c-0.459-0.168-0.925-0.232-1.397-0.192c-0.473,0.041-0.97,0.21-1.492,0.509
			c-0.658,0.377-1.041,0.704-1.146,0.98c-0.063,0.189,0.007,0.347,0.209,0.475c0.173,0.11,0.404,0.155,0.691,0.137
			c0.387-0.027,1.394-0.328,3.021-0.904c1.627-0.576,2.917-0.88,3.874-0.912c0.956-0.025,1.82,0.208,2.595,0.697
			c0.844,0.533,1.207,1.199,1.089,1.997c-0.117,0.798-0.884,1.603-2.302,2.414c-1.288,0.737-2.561,1.159-3.82,1.267
			C392.977,267.49,391.795,267.334,390.691,266.915z"/>
		<path fill="#FFFFFF" d="M394.121,252.811l4.672,2.954c-0.112-1.042,0.393-1.885,1.514-2.526c0.575-0.33,1.199-0.561,1.87-0.694
			c0.67-0.133,1.285-0.165,1.843-0.095c0.558,0.071,1.077,0.206,1.555,0.405c0.479,0.199,1.132,0.56,1.958,1.083l5.399,3.413
			l-2.501,1.432l-4.862-3.074c-0.965-0.61-1.625-0.97-1.979-1.08c-0.355-0.11-0.729-0.145-1.123-0.104
			c-0.393,0.041-0.771,0.165-1.133,0.372c-0.416,0.238-0.688,0.512-0.818,0.823c-0.13,0.311-0.073,0.635,0.171,0.972
			c0.245,0.337,0.754,0.75,1.529,1.239l4.611,2.915l-2.501,1.432l-12.706-8.033L394.121,252.811z"/>
		<path fill="#FFFFFF" d="M405.016,249.29l-2.253-1.425l2.501-1.431l2.253,1.425L405.016,249.29z M415.468,255.898l-9.205-5.819
			l2.501-1.431l9.205,5.819L415.468,255.898z"/>
		<path fill="#FFFFFF" d="M429.129,248.08l-2.5,1.431l-4.698-2.97c-0.994-0.628-1.69-1.004-2.088-1.127
			c-0.398-0.124-0.799-0.167-1.201-0.132c-0.402,0.035-0.772,0.149-1.11,0.343c-0.433,0.248-0.707,0.543-0.819,0.886
			c-0.113,0.343-0.043,0.672,0.211,0.986c0.253,0.314,0.895,0.796,1.923,1.446l4.169,2.636l-2.501,1.431l-9.205-5.819l2.323-1.33
			l1.352,0.855c-0.215-1.13,0.303-2.053,1.555-2.769c0.552-0.316,1.153-0.543,1.803-0.683c0.651-0.139,1.243-0.181,1.778-0.125
			c0.535,0.056,1.039,0.178,1.512,0.366c0.473,0.188,1.065,0.507,1.776,0.957L429.129,248.08z"/>
		<path fill="#FFFFFF" d="M432.041,247.144l3.194-1.421c0.371,0.177,0.703,0.255,0.997,0.233c0.41-0.026,0.871-0.186,1.381-0.478
			c0.653-0.374,1.047-0.714,1.182-1.021c0.093-0.206,0.054-0.431-0.117-0.674c-0.125-0.172-0.459-0.43-1.002-0.773l-1.343-0.85
			c0.246,1.057-0.2,1.91-1.339,2.562c-1.27,0.727-2.798,0.972-4.586,0.735c-1.408-0.19-2.727-0.674-3.958-1.452
			c-1.542-0.976-2.34-1.938-2.393-2.89c-0.052-0.952,0.488-1.751,1.622-2.4c1.168-0.669,2.633-0.905,4.392-0.708l-1.292-0.816
			l2.341-1.339l8.26,5.222c1.086,0.687,1.806,1.253,2.16,1.698s0.517,0.859,0.491,1.243c-0.026,0.384-0.23,0.79-0.611,1.217
			c-0.381,0.427-0.997,0.883-1.845,1.369c-1.602,0.917-3.005,1.397-4.21,1.444c-1.206,0.045-2.218-0.191-3.039-0.71
			C432.245,247.284,432.15,247.22,432.041,247.144z M428.875,242.452c0.977,0.618,1.886,0.958,2.729,1.022
			c0.842,0.064,1.548-0.066,2.118-0.392c0.611-0.35,0.895-0.792,0.851-1.328c-0.043-0.535-0.522-1.091-1.436-1.668
			c-0.953-0.603-1.863-0.935-2.728-0.996c-0.866-0.061-1.607,0.084-2.224,0.438c-0.6,0.343-0.867,0.769-0.802,1.278
			C427.447,241.315,427.944,241.864,428.875,242.452z"/>
	</g>
</g>
</svg>
