<?xml version="1.0" encoding="utf-8"?>
<!-- Generator: Adobe Illustrator 16.0.0, SVG Export Plug-In . SVG Version: 6.00 Build 0)  -->
<!DOCTYPE svg PUBLIC "-//W3C//DTD SVG 1.1//EN" "http://www.w3.org/Graphics/SVG/1.1/DTD/svg11.dtd">
<svg version="1.1" id="层_1" xmlns="http://www.w3.org/2000/svg" xmlns:xlink="http://www.w3.org/1999/xlink" x="0px" y="0px"
	 width="832px" height="476px" viewBox="0 0 832 476" enable-background="new 0 0 832 476" xml:space="preserve">
<g>
	
		<line fill-rule="evenodd" clip-rule="evenodd" fill="none" stroke="#B7C0D0" stroke-linecap="square" stroke-miterlimit="10" x1="0.64" y1="243.67" x2="404.72" y2="476"/>
	
		<line fill-rule="evenodd" clip-rule="evenodd" fill="none" stroke="#B7C0D0" stroke-linecap="square" stroke-miterlimit="10" x1="23.98" y1="181.88" x2="519.87" y2="466.4"/>
	
		<line fill-rule="evenodd" clip-rule="evenodd" fill="none" stroke="#B7C0D0" stroke-linecap="square" stroke-miterlimit="10" x1="88.83" y1="144.91" x2="584.72" y2="429.42"/>
	
		<line fill-rule="evenodd" clip-rule="evenodd" fill="none" stroke="#B7C0D0" stroke-linecap="square" stroke-miterlimit="10" x1="149.58" y1="107.11" x2="648.34" y2="393.95"/>
	
		<line fill-rule="evenodd" clip-rule="evenodd" fill="none" stroke="#B7C0D0" stroke-linecap="square" stroke-miterlimit="10" x1="210.33" y1="70.96" x2="709.05" y2="357.63"/>
	
		<line fill-rule="evenodd" clip-rule="evenodd" fill="none" stroke="#B7C0D0" stroke-linecap="square" stroke-miterlimit="10" x1="270.84" y1="36.28" x2="771.02" y2="323.61"/>
	
		<line fill-rule="evenodd" clip-rule="evenodd" fill="none" stroke="#B7C0D0" stroke-linecap="square" stroke-miterlimit="10" x1="330.19" y1="0.29" x2="832" y2="288.24"/>
	
		<line fill-rule="evenodd" clip-rule="evenodd" fill="none" stroke="#B7C0D0" stroke-linecap="square" stroke-miterlimit="10" x1="830.41" y1="217.74" x2="384.64" y2="474.93"/>
	
		<line fill-rule="evenodd" clip-rule="evenodd" fill="none" stroke="#B7C0D0" stroke-linecap="square" stroke-miterlimit="10" x1="765.15" y1="181.88" x2="269.71" y2="465.07"/>
	
		<line fill-rule="evenodd" clip-rule="evenodd" fill="none" stroke="#B7C0D0" stroke-linecap="square" stroke-miterlimit="10" x1="700.29" y1="144.91" x2="205.68" y2="428.91"/>
	
		<line fill-rule="evenodd" clip-rule="evenodd" fill="none" stroke="#B7C0D0" stroke-linecap="square" stroke-miterlimit="10" x1="639.55" y1="107.11" x2="140.79" y2="393.95"/>
	
		<line fill-rule="evenodd" clip-rule="evenodd" fill="none" stroke="#B7C0D0" stroke-linecap="square" stroke-miterlimit="10" x1="578.8" y1="71.78" x2="80.04" y2="357.58"/>
	
		<line fill-rule="evenodd" clip-rule="evenodd" fill="none" stroke="#B7C0D0" stroke-linecap="square" stroke-miterlimit="10" x1="519.16" y1="35.56" x2="19" y2="322.77"/>
	
		<line fill-rule="evenodd" clip-rule="evenodd" fill="none" stroke="#B7C0D0" stroke-linecap="square" stroke-miterlimit="10" x1="457.71" y1="0" x2="0" y2="263.61"/>
</g>
<g>
	<g>
		<polygon fill-rule="evenodd" clip-rule="evenodd" fill="#FFC61A" points="157.32,249.96 401,386.67 659.74,235.34 418.65,99.38 		
			"/>
		<polygon fill-rule="evenodd" clip-rule="evenodd" fill="#FFEFBF" points="157.32,247.96 401,384.67 659.74,233.34 418.65,97.38 		
			"/>
	</g>
	<g>
		<polygon fill-rule="evenodd" clip-rule="evenodd" fill="#C8C8C8" points="201.67,238.14 346.11,319.19 534,209.46 533.98,205.35 
			391.48,126 201.67,233.78 		"/>
		<polygon fill-rule="evenodd" clip-rule="evenodd" fill="#DBDBDB" points="202.06,233.29 346.11,314.19 534,204.46 391.48,124 		
			"/>
		
			<line fill-rule="evenodd" clip-rule="evenodd" fill="none" stroke="#FFFFFF" stroke-linecap="square" stroke-miterlimit="10" x1="346.5" y1="314.57" x2="346.5" y2="318.57"/>
		
			<line fill-rule="evenodd" clip-rule="evenodd" fill="none" stroke="#FFFFFF" stroke-linecap="square" stroke-miterlimit="10" x1="346.5" y1="314.57" x2="202.25" y2="233.62"/>
		
			<line fill-rule="evenodd" clip-rule="evenodd" fill="none" stroke="#FFFFFF" stroke-linecap="square" stroke-miterlimit="10" x1="346.45" y1="314.43" x2="533.25" y2="205.49"/>
	</g>
	<g>
		<polygon fill-rule="evenodd" clip-rule="evenodd" fill="#C0D6E9" points="90.12,175.74 127.09,196.93 127.09,218.71 90.12,198.11 
					"/>
		<polygon fill-rule="evenodd" clip-rule="evenodd" fill="#79A7D0" points="372.16,60.28 127.68,197.52 127.68,218.71 372.16,81.46 
					"/>
		<polygon fill-rule="evenodd" clip-rule="evenodd" fill="#D9E7F2" points="373.42,60.1 128.68,196.93 90.71,174.5 334.87,38.26 		
			"/>
		
			<line fill-rule="evenodd" clip-rule="evenodd" fill="none" stroke="#FFFFFF" stroke-linecap="square" stroke-miterlimit="10" x1="90.42" y1="175.45" x2="127.97" y2="197.23"/>
		
			<line fill-rule="evenodd" clip-rule="evenodd" fill="none" stroke="#FFFFFF" stroke-linecap="square" stroke-miterlimit="10" x1="372.04" y1="60.49" x2="127.35" y2="197.12"/>
		
			<line fill-rule="evenodd" clip-rule="evenodd" fill="none" stroke="#FFFFFF" stroke-linecap="square" stroke-miterlimit="10" x1="127.39" y1="197.23" x2="127.39" y2="218"/>
		<path fill-rule="evenodd" clip-rule="evenodd" fill="#B7C0D0" d="M203.79,130.13l6.96,3.81c1.21,0.66,1.25,1.73,0.1,2.4
			l-6.96,4.03c-1.2,0.69-3.16,0.69-4.36,0l-6.96-4.03c-1.16-0.67-1.11-1.74,0.09-2.4l6.96-3.81
			C200.77,129.49,202.64,129.49,203.79,130.13z"/>
		<path fill-rule="evenodd" clip-rule="evenodd" fill="#B7C0D0" d="M263.8,94.12l6.96,3.81c1.21,0.66,1.25,1.74,0.1,2.4l-6.96,4.03
			c-1.2,0.69-3.16,0.7-4.36,0l-6.96-4.03c-1.16-0.66-1.11-1.74,0.09-2.4l6.96-3.81C260.78,93.49,262.65,93.49,263.8,94.12z"/>
	</g>
	<g>
		
			<line fill-rule="evenodd" clip-rule="evenodd" fill="none" stroke="#374255" stroke-width="2" stroke-linecap="square" stroke-miterlimit="10" x1="330.9" y1="378.97" x2="374.55" y2="354.45"/>
		<polygon fill-rule="evenodd" clip-rule="evenodd" fill="#374255" points="389.45,345.61 378.55,358.61 367.23,351.93 		"/>
		<polygon fill-rule="evenodd" clip-rule="evenodd" fill="#374255" points="314.23,388.61 325.12,375.61 336.45,382.29 		"/>
	</g>
	<g>
		
			<line fill-rule="evenodd" clip-rule="evenodd" fill="none" stroke="#374255" stroke-width="2" stroke-linecap="square" stroke-miterlimit="10" x1="467.1" y1="345.36" x2="493.87" y2="361.57"/>
		<polygon fill-rule="evenodd" clip-rule="evenodd" fill="#374255" points="505.45,368.86 495.56,355.61 483.23,362.54 		"/>
		<polygon fill-rule="evenodd" clip-rule="evenodd" fill="#374255" points="452.23,335.61 462.12,348.86 474.45,341.93 		"/>
	</g>
	<g>
		
			<line fill-rule="evenodd" clip-rule="evenodd" fill="none" stroke="#344054" stroke-width="2" stroke-linecap="square" stroke-miterlimit="10" x1="274.1" y1="148.36" x2="292.5" y2="159.59"/>
		<polygon fill-rule="evenodd" clip-rule="evenodd" fill="#374255" points="300.45,164.86 290.56,151.61 278.23,158.54 		"/>
		<polygon fill-rule="evenodd" clip-rule="evenodd" fill="#374255" points="263.23,141.61 273.12,154.86 285.45,147.93 		"/>
	</g>
	<g>
		
			<polyline fill-rule="evenodd" clip-rule="evenodd" fill="none" stroke="#374255" stroke-width="2" stroke-linecap="square" stroke-miterlimit="10" points="
			499.2,407.99 390.4,469.47 327.42,432.84 		"/>
		<polygon fill-rule="evenodd" clip-rule="evenodd" fill="#374255" points="513.45,398.61 503.56,411.86 491.23,404.93 		"/>
		<polygon fill-rule="evenodd" clip-rule="evenodd" fill="#374255" points="312.23,422.61 322.12,435.86 334.45,428.93 		"/>
	</g>
	<g>
		<polygon fill-rule="evenodd" clip-rule="evenodd" fill="#C0D6E9" points="412.12,191.74 449.09,212.93 449.09,234.71 
			412.12,214.11 		"/>
		<polygon fill-rule="evenodd" clip-rule="evenodd" fill="#79A7D0" points="488.94,191.56 449.68,213.52 449.68,234.71 
			488.94,212.75 		"/>
		<polygon fill-rule="evenodd" clip-rule="evenodd" fill="#FFFFFF" points="488.94,190.97 449.68,212.93 411.71,190.5 
			450.39,169.13 		"/>
		
			<line fill-rule="evenodd" clip-rule="evenodd" fill="none" stroke="#FFFFFF" stroke-linecap="square" stroke-miterlimit="10" x1="412.42" y1="191.45" x2="449.97" y2="213.23"/>
		
			<line fill-rule="evenodd" clip-rule="evenodd" fill="none" stroke="#FFFFFF" stroke-linecap="square" stroke-miterlimit="10" x1="487.6" y1="191.49" x2="449.35" y2="213.12"/>
		
			<line fill-rule="evenodd" clip-rule="evenodd" fill="none" stroke="#FFFFFF" stroke-linecap="square" stroke-miterlimit="10" x1="449.39" y1="213.23" x2="449.39" y2="233"/>
		<path fill-rule="evenodd" clip-rule="evenodd" fill="#B7C0D0" d="M451.83,197.14l6.96,3.81c1.21,0.66,1.25,1.73,0.1,2.4
			l-6.96,4.03c-1.2,0.69-3.16,0.69-4.36,0l-6.96-4.03c-1.16-0.67-1.11-1.74,0.09-2.4l6.96-3.81
			C448.81,196.5,450.68,196.5,451.83,197.14z"/>
	</g>
	<g>
		<polygon fill-rule="evenodd" clip-rule="evenodd" fill="#C0D6E9" points="477.12,253.74 514.09,274.93 514.09,296.71 
			477.12,276.11 		"/>
		<polygon fill-rule="evenodd" clip-rule="evenodd" fill="#79A7D0" points="587.91,234.41 514.68,275.52 514.68,296.71 
			587.91,255.6 		"/>
		<polygon fill-rule="evenodd" clip-rule="evenodd" fill="#FFFFFF" points="588.33,234.42 514.68,274.93 476.71,252.5 
			549.77,212.58 		"/>
		
			<line fill-rule="evenodd" clip-rule="evenodd" fill="none" stroke="#FFFFFF" stroke-linecap="square" stroke-miterlimit="10" x1="477.42" y1="253.45" x2="514.97" y2="275.23"/>
		
			<line fill-rule="evenodd" clip-rule="evenodd" fill="none" stroke="#FFFFFF" stroke-linecap="square" stroke-miterlimit="10" x1="587.91" y1="234.89" x2="514.35" y2="275.12"/>
		
			<line fill-rule="evenodd" clip-rule="evenodd" fill="none" stroke="#FFFFFF" stroke-linecap="square" stroke-miterlimit="10" x1="514.39" y1="275.23" x2="514.39" y2="296"/>
		<path fill-rule="evenodd" clip-rule="evenodd" fill="#B7C0D0" d="M516.84,259.15l6.97,3.81c1.2,0.66,1.25,1.73,0.09,2.4
			l-6.95,4.03c-1.21,0.69-3.16,0.69-4.37,0l-6.96-4.03c-1.16-0.67-1.11-1.74,0.09-2.4l6.96-3.81
			C513.82,258.51,515.69,258.51,516.84,259.15z"/>
	</g>
	<g>
		<polygon fill-rule="evenodd" clip-rule="evenodd" fill="#C0D6E9" points="373.12,313.74 410.09,334.93 410.09,356.71 
			373.12,336.11 		"/>
		<polygon fill-rule="evenodd" clip-rule="evenodd" fill="#79A7D0" points="483.91,294.41 410.68,335.52 410.68,356.71 
			483.91,315.6 		"/>
		<polygon fill-rule="evenodd" clip-rule="evenodd" fill="#FFFFFF" points="484.33,294.42 410.68,334.93 372.71,312.5 
			445.77,272.58 		"/>
		
			<line fill-rule="evenodd" clip-rule="evenodd" fill="none" stroke="#FFFFFF" stroke-linecap="square" stroke-miterlimit="10" x1="373.42" y1="313.45" x2="410.97" y2="335.23"/>
		
			<line fill-rule="evenodd" clip-rule="evenodd" fill="none" stroke="#FFFFFF" stroke-linecap="square" stroke-miterlimit="10" x1="483.91" y1="294.89" x2="410.35" y2="335.12"/>
		
			<line fill-rule="evenodd" clip-rule="evenodd" fill="none" stroke="#FFFFFF" stroke-linecap="square" stroke-miterlimit="10" x1="410.39" y1="335.23" x2="410.39" y2="356"/>
		<path fill-rule="evenodd" clip-rule="evenodd" fill="#B7C0D0" d="M412.83,319.16l6.96,3.81c1.2,0.66,1.25,1.73,0.09,2.4
			l-6.95,4.03c-1.2,0.69-3.16,0.69-4.36,0l-6.97-4.03c-1.15-0.67-1.11-1.74,0.09-2.4l6.96-3.81
			C409.81,318.52,411.67,318.52,412.83,319.16z"/>
	</g>
	<g>
		<g>
			<path d="M216.659,123.974l-1.861,1.632c-0.599-0.284-1.169-0.43-1.71-0.438c-0.541-0.008-1.033,0.116-1.476,0.369
				c-0.589,0.337-0.833,0.75-0.729,1.238c0.104,0.489,0.689,1.07,1.755,1.744c1.185,0.749,2.201,1.177,3.046,1.282
				c0.845,0.105,1.568-0.014,2.169-0.357c0.449-0.257,0.673-0.557,0.674-0.901c0-0.344-0.289-0.771-0.866-1.278l2.765-1.05
				c0.951,0.891,1.388,1.725,1.311,2.501c-0.076,0.776-0.689,1.494-1.84,2.152c-1.307,0.749-2.811,1.054-4.509,0.916
				c-1.699-0.138-3.364-0.722-4.995-1.753c-1.649-1.042-2.543-2.077-2.682-3.104c-0.138-1.027,0.457-1.921,1.787-2.683
				c1.088-0.623,2.216-0.953,3.382-0.99C214.046,123.216,215.306,123.456,216.659,123.974z"/>
			<path d="M214.054,117.329l5.07,3.205c-0.234-1.067,0.179-1.904,1.24-2.511c0.544-0.312,1.148-0.521,1.812-0.629
				c0.664-0.108,1.282-0.114,1.854-0.019s1.113,0.254,1.621,0.478c0.508,0.223,1.21,0.618,2.107,1.185l5.86,3.705l-2.365,1.354
				l-5.277-3.336c-1.047-0.663-1.757-1.057-2.129-1.184c-0.372-0.127-0.754-0.178-1.148-0.153c-0.393,0.025-0.761,0.135-1.104,0.331
				c-0.393,0.225-0.637,0.493-0.732,0.804c-0.095,0.312,0,0.645,0.287,0.998c0.287,0.354,0.85,0.796,1.69,1.327l5.004,3.164
				l-2.365,1.354l-13.791-8.718L214.054,117.329z"/>
			<path d="M230.843,115.97l-2.58,0.954c-0.725-0.748-1.024-1.438-0.899-2.068c0.125-0.631,0.769-1.278,1.93-1.943
				c1.055-0.604,1.98-0.965,2.775-1.084c0.795-0.119,1.513-0.103,2.153,0.048c0.64,0.151,1.534,0.589,2.682,1.315l3.061,1.965
				c0.877,0.555,1.563,0.943,2.056,1.163c0.493,0.221,1.081,0.421,1.766,0.604l-2.34,1.339c-0.238-0.075-0.574-0.197-1.008-0.363
				c-0.196-0.077-0.327-0.126-0.395-0.148c0.035,0.509-0.067,0.964-0.309,1.366c-0.241,0.402-0.622,0.752-1.144,1.051
				c-0.92,0.527-1.924,0.765-3.013,0.716c-1.089-0.05-2.059-0.344-2.912-0.883c-0.564-0.357-0.947-0.744-1.147-1.162
				c-0.202-0.417-0.202-0.825-0.002-1.223c0.2-0.397,0.621-0.886,1.265-1.466c0.873-0.779,1.423-1.354,1.648-1.726l-0.263-0.167
				c-0.508-0.321-0.982-0.486-1.423-0.494c-0.441-0.009-0.973,0.166-1.596,0.522c-0.421,0.241-0.656,0.487-0.707,0.739
				C230.391,115.278,230.524,115.592,230.843,115.97z M236.152,115.514c-0.189,0.245-0.535,0.604-1.034,1.079
				c-0.5,0.475-0.776,0.818-0.827,1.029c-0.064,0.331,0.092,0.616,0.468,0.854c0.37,0.234,0.813,0.365,1.33,0.395
				s0.965-0.065,1.347-0.284c0.426-0.244,0.677-0.576,0.751-0.996c0.047-0.315-0.056-0.606-0.311-0.876
				c-0.165-0.178-0.563-0.467-1.197-0.868L236.152,115.514z"/>
			<path d="M234.259,108.711l-2.446-1.546l2.365-1.354l2.446,1.546L234.259,108.711z M245.604,115.883l-9.99-6.316l2.365-1.354
				l9.99,6.315L245.604,115.883z"/>
			<path d="M258.524,108.489l-2.365,1.354l-5.099-3.223c-1.078-0.682-1.827-1.094-2.245-1.236c-0.418-0.143-0.828-0.204-1.231-0.186
				c-0.403,0.02-0.764,0.12-1.084,0.303c-0.41,0.234-0.652,0.524-0.726,0.869c-0.075,0.345,0.035,0.683,0.328,1.013
				c0.293,0.331,0.998,0.849,2.114,1.555l4.525,2.861l-2.365,1.354l-9.99-6.316l2.197-1.257l1.468,0.928
				c-0.349-1.16,0.068-2.079,1.252-2.756c0.522-0.299,1.104-0.505,1.747-0.62c0.642-0.114,1.237-0.132,1.784-0.053
				c0.548,0.079,1.072,0.225,1.573,0.437s1.137,0.562,1.908,1.049L258.524,108.489z"/>
		</g>
	</g>
	<g>
		<polygon fill-rule="evenodd" clip-rule="evenodd" fill="#C0D6E9" points="260.12,201.74 297.09,222.93 297.09,244.71 
			260.12,224.11 		"/>
		<polygon fill-rule="evenodd" clip-rule="evenodd" fill="#79A7D0" points="336.94,201.56 297.68,223.52 297.68,244.71 
			336.94,222.75 		"/>
		<polygon fill-rule="evenodd" clip-rule="evenodd" fill="#FFFFFF" points="336.94,200.97 297.68,222.93 259.71,200.5 
			298.39,179.13 		"/>
		
			<line fill-rule="evenodd" clip-rule="evenodd" fill="none" stroke="#FFFFFF" stroke-linecap="square" stroke-miterlimit="10" x1="260.42" y1="201.45" x2="297.97" y2="223.23"/>
		
			<line fill-rule="evenodd" clip-rule="evenodd" fill="none" stroke="#FFFFFF" stroke-linecap="square" stroke-miterlimit="10" x1="335.6" y1="201.49" x2="297.35" y2="223.12"/>
		
			<line fill-rule="evenodd" clip-rule="evenodd" fill="none" stroke="#FFFFFF" stroke-linecap="square" stroke-miterlimit="10" x1="297.39" y1="223.23" x2="297.39" y2="243"/>
		<path fill-rule="evenodd" clip-rule="evenodd" fill="#B7C0D0" d="M299.81,207.14l6.96,3.81c1.2,0.66,1.25,1.74,0.09,2.4
			l-6.95,4.03c-1.2,0.69-3.16,0.69-4.36,0l-6.97-4.03c-1.15-0.66-1.11-1.74,0.1-2.4l6.95-3.81
			C296.79,206.5,298.65,206.5,299.81,207.14z"/>
	</g>
	<g>
		<polygon fill-rule="evenodd" clip-rule="evenodd" fill="#C0D6E9" points="344.12,153.74 381.09,174.93 381.09,196.71 
			344.12,176.11 		"/>
		<polygon fill-rule="evenodd" clip-rule="evenodd" fill="#79A7D0" points="420.94,153.56 381.68,175.52 381.68,196.71 
			420.94,174.75 		"/>
		<polygon fill-rule="evenodd" clip-rule="evenodd" fill="#FFFFFF" points="420.94,152.97 381.68,174.93 343.71,152.5 
			382.39,131.13 		"/>
		
			<line fill-rule="evenodd" clip-rule="evenodd" fill="none" stroke="#FFFFFF" stroke-linecap="square" stroke-miterlimit="10" x1="344.42" y1="153.45" x2="381.97" y2="175.23"/>
		
			<line fill-rule="evenodd" clip-rule="evenodd" fill="none" stroke="#FFFFFF" stroke-linecap="square" stroke-miterlimit="10" x1="419.6" y1="154.49" x2="381.35" y2="175.12"/>
		
			<line fill-rule="evenodd" clip-rule="evenodd" fill="none" stroke="#FFFFFF" stroke-linecap="square" stroke-miterlimit="10" x1="381" y1="175" x2="381" y2="195"/>
		<path fill-rule="evenodd" clip-rule="evenodd" fill="#B7C0D0" d="M383.82,159.13l6.96,3.81c1.21,0.66,1.25,1.74,0.1,2.41
			l-6.96,4.02c-1.2,0.7-3.16,0.7-4.36,0l-6.96-4.02c-1.16-0.67-1.11-1.75,0.09-2.41l6.96-3.81
			C380.8,158.5,382.67,158.5,383.82,159.13z"/>
	</g>
	<g>
		<polygon fill-rule="evenodd" clip-rule="evenodd" fill="#C0D6E9" points="327.12,239.74 364.09,260.93 364.09,282.71 
			327.12,262.11 		"/>
		<polygon fill-rule="evenodd" clip-rule="evenodd" fill="#79A7D0" points="403.94,239.56 364.68,261.52 364.68,282.71 
			403.94,260.75 		"/>
		<polygon fill-rule="evenodd" clip-rule="evenodd" fill="#FFFFFF" points="403.94,238.97 364.68,260.93 326.71,238.5 
			365.39,217.13 		"/>
		
			<line fill-rule="evenodd" clip-rule="evenodd" fill="none" stroke="#FFFFFF" stroke-linecap="square" stroke-miterlimit="10" x1="327.42" y1="239.45" x2="364.97" y2="261.23"/>
		
			<line fill-rule="evenodd" clip-rule="evenodd" fill="none" stroke="#FFFFFF" stroke-linecap="square" stroke-miterlimit="10" x1="402.6" y1="240.49" x2="364.35" y2="261.12"/>
		
			<line fill-rule="evenodd" clip-rule="evenodd" fill="none" stroke="#FFFFFF" stroke-linecap="square" stroke-miterlimit="10" x1="364.39" y1="261.23" x2="364.39" y2="282"/>
		<path fill-rule="evenodd" clip-rule="evenodd" fill="#B7C0D0" d="M366.82,245.14l6.96,3.82c1.2,0.66,1.25,1.73,0.1,2.4l-6.96,4.03
			c-1.2,0.69-3.16,0.69-4.36,0l-6.97-4.03c-1.15-0.67-1.1-1.74,0.1-2.4l6.95-3.82C363.8,244.51,365.66,244.51,366.82,245.14z"/>
	</g>
	<g>
		<polygon fill-rule="evenodd" clip-rule="evenodd" fill="#C0D6E9" points="252.12,392.74 289.09,413.93 289.09,435.71 
			252.12,415.11 		"/>
		<polygon fill-rule="evenodd" clip-rule="evenodd" fill="#79A7D0" points="328.94,392.56 289.68,414.52 289.68,435.71 
			328.94,413.75 		"/>
		<polygon fill-rule="evenodd" clip-rule="evenodd" fill="#D9E7F2" points="328.94,391.97 289.68,413.93 251.71,391.5 
			290.39,370.13 		"/>
		
			<line fill-rule="evenodd" clip-rule="evenodd" fill="none" stroke="#FFFFFF" stroke-linecap="square" stroke-miterlimit="10" x1="252.42" y1="392.45" x2="289.97" y2="414.23"/>
		
			<line fill-rule="evenodd" clip-rule="evenodd" fill="none" stroke="#FFFFFF" stroke-linecap="square" stroke-miterlimit="10" x1="327.6" y1="393.49" x2="289.35" y2="414.12"/>
		
			<line fill-rule="evenodd" clip-rule="evenodd" fill="none" stroke="#FFFFFF" stroke-linecap="square" stroke-miterlimit="10" x1="289.39" y1="414.23" x2="289.39" y2="435"/>
		<path fill-rule="evenodd" clip-rule="evenodd" fill="#B7C0D0" d="M291.81,398.17l6.96,3.81c1.2,0.66,1.25,1.74,0.09,2.41
			l-6.95,4.02c-1.21,0.7-3.16,0.7-4.37,0l-6.96-4.02c-1.15-0.67-1.11-1.75,0.09-2.41l6.96-3.81
			C288.79,397.54,290.65,397.53,291.81,398.17z"/>
	</g>
	<g>
		<polygon fill-rule="evenodd" clip-rule="evenodd" fill="#C0D6E9" points="495.12,366.74 532.09,387.93 532.09,409.71 
			495.12,389.11 		"/>
		<polygon fill-rule="evenodd" clip-rule="evenodd" fill="#79A7D0" points="571.94,366.56 532.68,388.52 532.68,409.71 
			571.94,387.75 		"/>
		<polygon fill-rule="evenodd" clip-rule="evenodd" fill="#D9E7F2" points="571.94,365.97 532.68,387.93 494.71,365.5 
			533.39,344.13 		"/>
		
			<line fill-rule="evenodd" clip-rule="evenodd" fill="none" stroke="#FFFFFF" stroke-linecap="square" stroke-miterlimit="10" x1="495.42" y1="366.45" x2="532.97" y2="388.23"/>
		
			<line fill-rule="evenodd" clip-rule="evenodd" fill="none" stroke="#FFFFFF" stroke-linecap="square" stroke-miterlimit="10" x1="570.6" y1="367.49" x2="532.35" y2="388.12"/>
		
			<line fill-rule="evenodd" clip-rule="evenodd" fill="none" stroke="#FFFFFF" stroke-linecap="square" stroke-miterlimit="10" x1="532.39" y1="388.23" x2="532.39" y2="409"/>
		<path fill-rule="evenodd" clip-rule="evenodd" fill="#B7C0D0" d="M534.84,372.16l6.97,3.82c1.2,0.66,1.25,1.73,0.09,2.4
			l-6.95,4.03c-1.2,0.69-3.16,0.69-4.36,0l-6.97-4.03c-1.15-0.67-1.11-1.74,0.09-2.4l6.96-3.82
			C531.82,371.53,533.69,371.53,534.84,372.16z"/>
	</g>
	<g>
		<path fill-rule="evenodd" clip-rule="evenodd" fill="#374255" d="M190,313.5c0-1.93,2.46-3.5,5.5-3.5s5.5,1.57,5.5,3.5
			s-2.46,3.5-5.5,3.5S190,315.43,190,313.5z"/>
		
			<line fill-rule="evenodd" clip-rule="evenodd" fill="none" stroke="#374255" stroke-width="2" stroke-linecap="round" stroke-linejoin="round" stroke-miterlimit="10" x1="200.5" y1="310.5" x2="272.75" y2="267"/>
		<polygon fill-rule="evenodd" clip-rule="evenodd" fill="#374255" points="284.45,259.61 273.55,272.61 262.23,265.93 		"/>
	</g>
	<g>
		<g>
			<path fill="#333333" d="M229.341,419.758l0.55-17.171l2.219,1.218l4.255,14.004l0.367-11.467l2.119,1.163l-0.55,17.171
				l-2.288-1.256l-4.195-13.697l-0.359,11.197L229.341,419.758z"/>
			<path fill="#333333" d="M240.314,420.097l2.229,0.89c0.098,1.206,0.342,2.186,0.733,2.941c0.391,0.755,0.933,1.323,1.627,1.704
				c0.734,0.403,1.295,0.471,1.683,0.203c0.388-0.269,0.591-0.719,0.611-1.351c0.013-0.406-0.054-0.795-0.202-1.166
				c-0.147-0.371-0.413-0.769-0.797-1.194c-0.263-0.287-0.863-0.871-1.802-1.752c-1.208-1.131-2.047-2.168-2.519-3.11
				c-0.663-1.325-0.973-2.668-0.93-4.026c0.028-0.875,0.217-1.603,0.568-2.186c0.351-0.582,0.839-0.904,1.466-0.965
				c0.626-0.062,1.374,0.146,2.242,0.622c1.417,0.778,2.47,1.837,3.156,3.175c0.687,1.338,1.022,2.806,1.008,4.403l-2.286-1.1
				c-0.069-0.936-0.258-1.685-0.567-2.248c-0.308-0.563-0.784-1.02-1.426-1.373c-0.663-0.364-1.188-0.442-1.576-0.233
				c-0.25,0.133-0.382,0.422-0.396,0.867c-0.013,0.406,0.088,0.816,0.305,1.229c0.276,0.525,0.962,1.292,2.059,2.298
				c1.097,1.007,1.904,1.869,2.422,2.587c0.518,0.717,0.916,1.527,1.193,2.43c0.276,0.903,0.397,1.897,0.363,2.982
				c-0.031,0.984-0.241,1.807-0.628,2.468c-0.387,0.661-0.916,1.021-1.587,1.078s-1.497-0.184-2.478-0.722
				c-1.428-0.784-2.508-1.888-3.241-3.312C240.812,423.813,240.402,422.099,240.314,420.097z"/>
			<path fill="#333333" d="M255.373,421.39l-0.084,2.624l-1.479-0.813l-0.161,5.013c-0.032,1.015-0.037,1.615-0.014,1.798
				s0.083,0.357,0.179,0.521c0.096,0.165,0.217,0.286,0.361,0.365c0.2,0.11,0.494,0.164,0.88,0.162l0.104,2.654
				c-0.514,0.052-1.089-0.097-1.726-0.446c-0.391-0.215-0.74-0.507-1.046-0.878c-0.307-0.371-0.529-0.755-0.665-1.152
				c-0.136-0.396-0.224-0.88-0.264-1.449c-0.034-0.408-0.032-1.194,0.005-2.357l0.174-5.423l-0.994-0.546l0.084-2.624l0.994,0.545
				l0.079-2.471l2.234-0.728l-0.141,4.392L255.373,421.39z"/>
			<path fill="#333333" d="M256.181,427.983c0.035-1.093,0.246-2.054,0.633-2.883c0.387-0.828,0.914-1.333,1.581-1.516
				c0.667-0.182,1.401-0.053,2.203,0.387c1.238,0.68,2.233,1.848,2.985,3.504c0.752,1.656,1.098,3.417,1.038,5.283
				c-0.06,1.882-0.509,3.223-1.348,4.021c-0.839,0.8-1.864,0.866-3.076,0.201c-0.75-0.412-1.457-1.062-2.122-1.951
				c-0.664-0.889-1.157-1.928-1.479-3.118C256.273,430.722,256.135,429.412,256.181,427.983z M258.394,429.377
				c-0.04,1.234,0.123,2.284,0.487,3.151c0.364,0.868,0.829,1.456,1.394,1.767c0.565,0.31,1.049,0.242,1.453-0.204
				s0.626-1.293,0.666-2.543c0.039-1.218-0.123-2.26-0.484-3.126s-0.825-1.454-1.39-1.764c-0.565-0.311-1.05-0.243-1.457,0.201
				C258.657,427.304,258.434,428.144,258.394,429.377z"/>
			<path fill="#333333" d="M268.188,441.082l-2.165-1.188l0.398-12.439l2.011,1.104l-0.057,1.769
				c0.371-0.647,0.698-1.027,0.981-1.142c0.284-0.114,0.6-0.076,0.949,0.116c0.493,0.271,0.962,0.738,1.406,1.403l-0.763,2.501
				c-0.353-0.56-0.686-0.925-1-1.097c-0.303-0.167-0.564-0.181-0.783-0.042s-0.399,0.506-0.541,1.104
				c-0.142,0.598-0.247,1.955-0.315,4.07L268.188,441.082z"/>
			<path fill="#333333" d="M274.151,435.559l-1.948-1.617c0.26-1.081,0.668-1.763,1.227-2.045c0.557-0.281,1.368-0.131,2.431,0.453
				c0.965,0.53,1.679,1.099,2.141,1.705c0.461,0.607,0.78,1.23,0.955,1.872c0.176,0.641,0.241,1.675,0.195,3.104l-0.146,3.829
				c-0.035,1.093-0.026,1.919,0.027,2.476s0.164,1.185,0.335,1.882l-2.142-1.176c-0.049-0.249-0.108-0.611-0.177-1.086
				c-0.03-0.215-0.051-0.358-0.065-0.429c-0.387,0.344-0.795,0.536-1.226,0.578c-0.43,0.042-0.884-0.067-1.361-0.33
				c-0.842-0.462-1.495-1.174-1.958-2.136c-0.463-0.961-0.678-1.973-0.644-3.035c0.022-0.702,0.153-1.269,0.391-1.698
				c0.239-0.429,0.562-0.681,0.969-0.755c0.407-0.074,0.989-0.015,1.747,0.178c1.021,0.266,1.73,0.382,2.129,0.346l0.011-0.328
				c0.02-0.632-0.068-1.14-0.265-1.521c-0.197-0.383-0.581-0.73-1.151-1.043c-0.385-0.211-0.689-0.261-0.912-0.149
				C274.49,434.746,274.303,435.054,274.151,435.559z M276.962,439.819c-0.282-0.012-0.727-0.085-1.333-0.22
				c-0.607-0.135-1.006-0.159-1.198-0.073c-0.292,0.149-0.445,0.459-0.46,0.927c-0.015,0.46,0.085,0.921,0.301,1.381
				c0.215,0.459,0.498,0.786,0.847,0.977c0.391,0.214,0.769,0.224,1.136,0.028c0.272-0.153,0.456-0.421,0.551-0.806
				c0.065-0.25,0.111-0.77,0.136-1.558L276.962,439.819z"/>
			<path fill="#333333" d="M280.805,448.841l2.459,1.814c0.027,0.46,0.112,0.813,0.256,1.058c0.198,0.347,0.518,0.642,0.959,0.885
				c0.565,0.31,0.993,0.414,1.284,0.311c0.196-0.067,0.348-0.266,0.458-0.595c0.076-0.236,0.125-0.722,0.148-1.455l0.058-1.816
				c-0.69,0.988-1.528,1.211-2.515,0.669c-1.099-0.603-1.947-1.788-2.544-3.553c-0.468-1.393-0.674-2.921-0.621-4.584
				c0.066-2.085,0.448-3.497,1.143-4.235c0.695-0.738,1.534-0.839,2.515-0.3c1.012,0.555,1.825,1.688,2.439,3.4l0.056-1.745
				l2.026,1.112l-0.357,11.162c-0.047,1.468-0.162,2.521-0.344,3.16s-0.424,1.086-0.725,1.342s-0.695,0.37-1.183,0.34
				c-0.487-0.029-1.099-0.245-1.833-0.648c-1.387-0.761-2.358-1.662-2.916-2.703c-0.557-1.041-0.818-2.116-0.783-3.225
				C280.789,449.126,280.795,448.995,280.805,448.841z M282.973,442.606c-0.042,1.32,0.095,2.378,0.412,3.176
				c0.317,0.797,0.722,1.332,1.215,1.602c0.529,0.291,0.986,0.221,1.371-0.207c0.385-0.428,0.597-1.259,0.637-2.493
				c0.041-1.289-0.103-2.341-0.432-3.157s-0.761-1.371-1.295-1.665c-0.519-0.285-0.956-0.213-1.312,0.216
				C283.211,440.506,283.013,441.349,282.973,442.606z"/>
			<path fill="#333333" d="M295.536,452.064l2.14,1.735c-0.316,1.05-0.783,1.726-1.401,2.025c-0.619,0.3-1.377,0.204-2.276-0.29
				c-1.423-0.78-2.453-2.065-3.091-3.854c-0.503-1.429-0.727-3.006-0.672-4.731c0.066-2.062,0.472-3.481,1.218-4.259
				c0.746-0.778,1.661-0.87,2.745-0.275c1.217,0.668,2.158,1.807,2.823,3.415c0.665,1.608,0.941,3.666,0.83,6.17l-5.424-2.978
				c-0.016,0.984,0.134,1.84,0.451,2.565c0.317,0.727,0.724,1.226,1.222,1.5c0.339,0.186,0.628,0.202,0.869,0.048
				C295.208,452.981,295.397,452.624,295.536,452.064z M295.765,448.805c0.015-0.961-0.124-1.774-0.416-2.439
				c-0.292-0.665-0.659-1.119-1.101-1.361c-0.472-0.259-0.871-0.212-1.196,0.142c-0.325,0.354-0.499,0.981-0.523,1.882
				L295.765,448.805z"/>
		</g>
	</g>
	<g>
		<g>
			<path fill="#333333" d="M535.923,418.654l-2.765,2.234c-0.119-0.688-0.35-1.127-0.694-1.316
				c-0.345-0.188-0.781-0.134-1.312,0.164c-0.704,0.395-1.255,1.034-1.653,1.917c-0.398,0.883-0.571,2.084-0.521,3.602
				c0.056,1.688,0.308,2.762,0.757,3.22c0.449,0.457,1.033,0.485,1.75,0.082c0.537-0.301,0.969-0.751,1.298-1.351
				c0.328-0.598,0.546-1.433,0.655-2.503l2.798-0.929c-0.232,1.859-0.744,3.452-1.533,4.778c-0.79,1.325-1.872,2.374-3.248,3.146
				c-1.563,0.877-2.83,0.92-3.803,0.128c-0.973-0.792-1.498-2.348-1.574-4.67c-0.078-2.35,0.328-4.44,1.217-6.272
				c0.889-1.833,2.129-3.195,3.719-4.087c1.301-0.73,2.348-0.938,3.141-0.623C534.947,416.488,535.537,417.315,535.923,418.654z"/>
			<path fill="#333333" d="M537.502,420.524c-0.041-1.25,0.149-2.59,0.574-4.021c0.424-1.43,1.05-2.691,1.878-3.784
				c0.828-1.093,1.766-1.933,2.812-2.521c1.617-0.908,2.965-0.952,4.044-0.134c1.08,0.818,1.654,2.295,1.725,4.43
				c0.071,2.152-0.392,4.229-1.388,6.231c-0.997,2.001-2.286,3.446-3.869,4.335c-0.979,0.55-1.923,0.78-2.832,0.689
				s-1.612-0.576-2.113-1.455C537.833,423.417,537.556,422.159,537.502,420.524z M540.407,419.099
				c0.047,1.411,0.334,2.351,0.862,2.818c0.527,0.468,1.16,0.496,1.898,0.081c0.738-0.414,1.344-1.137,1.819-2.168
				c0.475-1.03,0.689-2.261,0.642-3.69c-0.046-1.394-0.332-2.325-0.856-2.795c-0.525-0.47-1.156-0.498-1.894-0.083
				c-0.738,0.415-1.347,1.138-1.824,2.17C540.576,416.465,540.36,417.688,540.407,419.099z"/>
			<path fill="#333333" d="M560.707,414.951l-2.828,1.587l-0.24-7.262c-0.051-1.537-0.144-2.496-0.28-2.88
				c-0.136-0.383-0.343-0.624-0.624-0.721c-0.28-0.097-0.611-0.039-0.994,0.176c-0.489,0.275-0.923,0.7-1.3,1.275
				c-0.377,0.576-0.628,1.199-0.752,1.87c-0.125,0.67-0.161,1.801-0.108,3.391l0.213,6.444l-2.828,1.587l-0.471-14.229l2.626-1.474
				l0.069,2.09c0.879-2.131,2.026-3.594,3.442-4.389c0.624-0.351,1.199-0.521,1.726-0.512c0.526,0.01,0.93,0.173,1.21,0.488
				s0.482,0.739,0.606,1.27c0.124,0.532,0.203,1.347,0.24,2.445L560.707,414.951z"/>
			<path fill="#333333" d="M568.004,396.36l0.099,3.001l-1.932,1.085l0.19,5.734c0.039,1.161,0.079,1.828,0.122,1.999
				c0.043,0.172,0.132,0.283,0.267,0.334c0.135,0.052,0.296,0.025,0.484-0.081c0.261-0.146,0.636-0.48,1.125-1l0.338,2.785
				c-0.646,0.744-1.383,1.35-2.215,1.816c-0.51,0.286-0.974,0.431-1.39,0.433c-0.417,0.002-0.728-0.125-0.93-0.378
				c-0.204-0.255-0.352-0.669-0.446-1.245c-0.074-0.403-0.134-1.271-0.178-2.602l-0.206-6.204l-1.298,0.729l-0.099-3.001
				l1.298-0.729l-0.094-2.827l2.765-3.791l0.167,5.025L568.004,396.36z"/>
			<path fill="#333333" d="M572.224,398.414l-2.586,0.824c0.243-1.538,0.706-2.834,1.388-3.891c0.683-1.056,1.718-1.974,3.107-2.754
				c1.261-0.707,2.206-1.035,2.837-0.985c0.63,0.051,1.081,0.312,1.353,0.783c0.271,0.47,0.435,1.523,0.489,3.158l0.116,4.411
				c0.042,1.251,0.117,2.147,0.228,2.691c0.11,0.543,0.3,1.084,0.571,1.624l-2.797,1.57c-0.082-0.209-0.185-0.529-0.308-0.96
				c-0.054-0.197-0.093-0.326-0.115-0.386c-0.463,0.897-0.964,1.656-1.503,2.277c-0.54,0.621-1.122,1.107-1.745,1.457
				c-1.101,0.618-1.981,0.708-2.641,0.268s-1.01-1.267-1.05-2.481c-0.027-0.804,0.094-1.601,0.361-2.394
				c0.268-0.791,0.656-1.5,1.165-2.127c0.509-0.627,1.249-1.341,2.22-2.14c1.311-1.073,2.216-1.895,2.717-2.467l-0.013-0.375
				c-0.024-0.724-0.175-1.163-0.454-1.321c-0.278-0.157-0.79-0.027-1.535,0.391c-0.503,0.283-0.891,0.635-1.164,1.056
				C572.589,397.064,572.375,397.655,572.224,398.414z M576.108,399.345c-0.357,0.364-0.924,0.879-1.701,1.542
				c-0.778,0.664-1.284,1.171-1.518,1.521c-0.358,0.555-0.527,1.101-0.51,1.637c0.018,0.527,0.18,0.899,0.488,1.118
				c0.308,0.218,0.689,0.2,1.146-0.057c0.51-0.286,0.989-0.782,1.437-1.488c0.332-0.532,0.542-1.073,0.633-1.625
				c0.063-0.362,0.08-0.996,0.05-1.898L576.108,399.345z"/>
			<path fill="#333333" d="M581.364,386.896l-0.115-3.484l2.828-1.587l0.115,3.484L581.364,386.896z M581.899,403.055l-0.471-14.229
				l2.828-1.587l0.471,14.229L581.899,403.055z"/>
			<path fill="#333333" d="M597.345,394.385l-2.828,1.587l-0.24-7.262c-0.051-1.537-0.144-2.496-0.28-2.88
				c-0.136-0.383-0.344-0.624-0.623-0.722c-0.28-0.097-0.612-0.039-0.994,0.176c-0.49,0.275-0.923,0.7-1.301,1.276
				c-0.376,0.576-0.628,1.199-0.752,1.87c-0.125,0.67-0.161,1.801-0.108,3.391l0.213,6.444l-2.828,1.588l-0.471-14.229l2.626-1.475
				l0.069,2.09c0.879-2.131,2.027-3.594,3.442-4.389c0.624-0.35,1.199-0.521,1.725-0.511c0.527,0.01,0.93,0.172,1.21,0.488
				c0.28,0.316,0.482,0.739,0.606,1.27c0.123,0.532,0.203,1.347,0.24,2.445L597.345,394.385z"/>
			<path fill="#333333" d="M606.251,384.772l2.838-0.952c-0.316,1.578-0.854,2.947-1.611,4.104
				c-0.758,1.158-1.724,2.066-2.897,2.726c-1.858,1.043-3.26,1.007-4.206-0.109c-0.748-0.899-1.154-2.337-1.219-4.311
				c-0.078-2.358,0.324-4.465,1.205-6.32c0.882-1.855,2.03-3.18,3.446-3.975c1.59-0.892,2.867-0.897,3.833-0.015
				c0.965,0.882,1.476,2.777,1.531,5.684l-7.084,3.977c0.057,1.105,0.314,1.846,0.771,2.222c0.457,0.377,1.01,0.381,1.661,0.016
				c0.443-0.249,0.81-0.618,1.101-1.109C605.91,386.219,606.121,385.573,606.251,384.772z M606.286,380.877
				c-0.056-1.079-0.295-1.789-0.716-2.13c-0.421-0.341-0.92-0.351-1.498-0.026c-0.617,0.347-1.117,0.932-1.5,1.756
				c-0.383,0.824-0.554,1.749-0.513,2.772L606.286,380.877z"/>
			<path fill="#333333" d="M614.381,384.822l-2.828,1.587l-0.471-14.229l2.626-1.475l0.067,2.023c0.417-1.208,0.801-2.064,1.15-2.57
				c0.349-0.505,0.751-0.886,1.208-1.142c0.644-0.361,1.272-0.473,1.885-0.335l-0.767,3.774c-0.49-0.143-0.939-0.1-1.349,0.129
				c-0.396,0.223-0.726,0.556-0.992,1c-0.265,0.445-0.464,1.092-0.596,1.938c-0.133,0.849-0.159,2.483-0.079,4.904L614.381,384.822z
				"/>
		</g>
	</g>
	<g>
		<g>
			<path fill="#333333" d="M465.435,135.415l3.558,1.969c0.802,0.444,1.292,0.853,1.47,1.225c0.235,0.503,0.134,1.109-0.305,1.818
				s-1.163,1.473-2.172,2.292c-1.01,0.82-2.408,1.745-4.197,2.776c-1.571,0.906-3.025,1.632-4.359,2.178
				c-1.63,0.667-3.099,1.125-4.406,1.373c-0.989,0.188-1.953,0.229-2.891,0.121c-0.699-0.083-1.408-0.323-2.127-0.721l-3.663-2.027
				L465.435,135.415z M464.151,138.354l-12.646,7.289l1.453,0.805c0.544,0.301,0.997,0.483,1.36,0.546
				c0.471,0.084,0.998,0.077,1.58-0.023c0.582-0.1,1.366-0.36,2.353-0.78c0.987-0.42,2.218-1.056,3.694-1.906
				s2.543-1.54,3.202-2.068c0.659-0.528,1.091-0.985,1.297-1.372s0.205-0.725-0.002-1.017c-0.15-0.22-0.623-0.55-1.416-0.989
				L464.151,138.354z"/>
			<path fill="#333333" d="M464.769,156.617l-2.118-1.172l3.495-2.965l-3.854-2.133l-5.133,2.059l-2.065-1.143l22.848-8.926
				l2.059,1.139L464.769,156.617z M468.738,150.28l5.756-4.819l-8.387,3.363L468.738,150.28z"/>
			<path fill="#333333" d="M465.742,157.155l19.093-11.004l1.946,1.077l-19.093,11.004L465.742,157.155z"/>
			<path fill="#333333" d="M473.298,161.337l19.093-11.004l6.609,3.658l-3.23,1.861l-4.662-2.58l-4.519,2.605l4.024,2.227
				l-3.23,1.861l-4.024-2.227l-8.114,4.676L473.298,161.337z"/>
			<path fill="#333333" d="M486.095,168.419l2.071-1.193c-0.993,0.285-1.908,0.435-2.748,0.451c-0.84,0.016-1.489-0.104-1.95-0.358
				c-0.469-0.259-0.686-0.61-0.65-1.051s0.338-0.921,0.91-1.438c0.571-0.518,1.508-1.151,2.811-1.902l8.752-5.044l1.849,1.023
				l-6.356,3.663c-1.945,1.121-3.103,1.827-3.474,2.117c-0.371,0.291-0.594,0.559-0.669,0.806c-0.077,0.248,0.022,0.447,0.299,0.6
				c0.316,0.175,0.77,0.232,1.363,0.173c0.593-0.06,1.189-0.21,1.789-0.452c0.6-0.242,1.89-0.933,3.87-2.074l5.834-3.363
				l1.849,1.022l-13.832,7.972L486.095,168.419z"/>
			<path fill="#333333" d="M489.726,170.429l19.093-11.004l1.848,1.022l-19.093,11.004L489.726,170.429z"/>
			<path fill="#333333" d="M493.468,172.5l19.093-11.004l1.848,1.023l-19.093,11.004L493.468,172.5z"/>
			<path fill="#333333" d="M500.985,176.66l19.093-11.004l1.894,1.048l-8.804,9.532l12.75-7.349l1.809,1.001l-19.093,11.004
				l-1.953-1.081l8.564-9.327l-12.451,7.176L500.985,176.66z"/>
			<path fill="#333333" d="M517.361,177.689c1.215-0.701,2.543-1.295,3.984-1.783c1.439-0.488,2.736-0.751,3.89-0.79
				c1.154-0.039,2.073,0.131,2.757,0.51c1.056,0.584,1.243,1.456,0.559,2.612c-0.683,1.157-2.063,2.333-4.138,3.529
				c-2.092,1.206-4.167,2.017-6.226,2.433c-2.058,0.416-3.604,0.337-4.639-0.235c-0.64-0.354-0.964-0.857-0.972-1.509
				c-0.008-0.652,0.39-1.38,1.195-2.186C514.575,179.465,515.772,178.605,517.361,177.689z M519.06,178.85
				c-1.372,0.791-2.258,1.487-2.658,2.089c-0.4,0.602-0.359,1.037,0.123,1.304c0.481,0.267,1.251,0.281,2.307,0.042
				c1.056-0.24,2.278-0.76,3.667-1.561c1.354-0.781,2.233-1.471,2.636-2.072s0.362-1.035-0.119-1.302
				c-0.482-0.267-1.252-0.281-2.311-0.042C521.646,177.545,520.432,178.06,519.06,178.85z"/>
			<path fill="#333333" d="M525.31,190.122l-1.716-0.95l2.031-1.171c-1.075,0.297-2,0.45-2.774,0.458
				c-0.774,0.008-1.358-0.097-1.753-0.316c-0.802-0.443-0.849-1.193-0.141-2.248c0.709-1.055,2.208-2.243,4.501-3.564
				c2.344-1.351,4.405-2.224,6.182-2.619c1.776-0.395,3.09-0.357,3.941,0.114c0.78,0.432,0.813,1.176,0.098,2.232l6.876-3.963
				l1.848,1.023L525.31,190.122z M527.593,183.234c-1.476,0.851-2.441,1.523-2.895,2.018c-0.657,0.715-0.718,1.221-0.183,1.517
				c0.425,0.235,1.145,0.229,2.16-0.019c1.014-0.248,2.233-0.782,3.657-1.603c1.589-0.916,2.588-1.655,2.998-2.218
				c0.409-0.563,0.388-0.969-0.063-1.219c-0.438-0.243-1.151-0.247-2.137-0.013C530.144,181.931,528.965,182.443,527.593,183.234z"
				/>
			<path fill="#333333" d="M535.578,190.832l1.229,1.372c-1.573,0.64-2.965,1.02-4.175,1.14c-1.21,0.12-2.198-0.032-2.965-0.457
				c-1.215-0.672-1.328-1.623-0.339-2.851c0.798-0.98,2.158-2.023,4.077-3.129c2.292-1.321,4.39-2.188,6.292-2.602
				c1.903-0.414,3.317-0.364,4.242,0.148c1.039,0.575,1.179,1.42,0.421,2.536c-0.758,1.116-2.552,2.474-5.383,4.076l-4.63-2.562
				c-1.072,0.632-1.768,1.202-2.086,1.707s-0.265,0.876,0.161,1.111c0.289,0.16,0.689,0.205,1.199,0.134
				C534.129,191.384,534.782,191.176,535.578,190.832z M539.382,188.758c1.046-0.618,1.714-1.158,2.002-1.622
				s0.244-0.799-0.133-1.008c-0.404-0.224-1.028-0.24-1.873-0.05c-0.845,0.189-1.765,0.573-2.758,1.151L539.382,188.758z"/>
		</g>
	</g>
	<path fill-rule="evenodd" clip-rule="evenodd" fill="#888888" d="M150,268c-2.76-11.6,1.04-21,8.5-21s15.74,9.4,18.5,21
		s-1.04,21-8.5,21S152.76,279.6,150,268z"/>
	<path fill-rule="evenodd" clip-rule="evenodd" fill="#888888" d="M138,323v-28c0,0,0.87-6.56,5.72-8.44
		c4.85-1.89,8.28,0.44,8.28,0.44l24.35,14.26c0,0,6.02,5.59,8.7,9.47C188.1,315.13,189,323,189,323v30L138,323z"/>
	<g>
		<g>
			<path fill="#333333" d="M282.838,256.316l-2.751-1.523l1.724-2.229l-5.007-2.771l-3.851,1.052l-2.683-1.485l17.283-4.449
				l2.674,1.48L282.838,256.316z M283.088,250.91l2.877-3.608l-6.295,1.716L283.088,250.91z"/>
			<path fill="#333333" d="M284.18,257.058l12.404-7.148l4.059,2.246c1.538,0.851,2.478,1.442,2.821,1.771
				c0.532,0.504,0.728,1.071,0.589,1.698c-0.14,0.627-0.703,1.225-1.689,1.794c-0.762,0.439-1.542,0.73-2.339,0.875
				c-0.798,0.145-1.56,0.183-2.286,0.116c-0.727-0.067-1.36-0.196-1.9-0.387c-0.722-0.266-1.656-0.716-2.801-1.35l-1.649-0.913
				l-4.679,2.697L284.18,257.058z M297.014,252.519l-3.52,2.028l1.384,0.766c0.997,0.552,1.728,0.883,2.194,0.995
				c0.466,0.111,0.932,0.14,1.4,0.086c0.467-0.053,0.884-0.186,1.25-0.397c0.451-0.26,0.69-0.548,0.715-0.866
				c0.025-0.317-0.13-0.61-0.467-0.88c-0.246-0.2-0.824-0.551-1.735-1.056L297.014,252.519z"/>
			<path fill="#333333" d="M295.774,263.475l12.404-7.149l2.529,1.4l-12.404,7.148L295.774,263.475z"/>
		</g>
	</g>
</g>
</svg>
