<?xml version="1.0" encoding="utf-8"?>
<!-- Generator: Adobe Illustrator 16.0.0, SVG Export Plug-In . SVG Version: 6.00 Build 0)  -->
<!DOCTYPE svg PUBLIC "-//W3C//DTD SVG 1.1//EN" "http://www.w3.org/Graphics/SVG/1.1/DTD/svg11.dtd">
<svg version="1.1" id="层_1" xmlns="http://www.w3.org/2000/svg" xmlns:xlink="http://www.w3.org/1999/xlink" x="0px" y="0px"
	 width="578px" height="332px" viewBox="0 0 578 332" enable-background="new 0 0 578 332" xml:space="preserve">
<g>
	
		<line fill-rule="evenodd" clip-rule="evenodd" fill="none" stroke="#D6D6D6" stroke-linecap="square" stroke-miterlimit="10" x1="0.44" y1="169.95" x2="281.16" y2="332"/>
	
		<line fill-rule="evenodd" clip-rule="evenodd" fill="none" stroke="#D6D6D6" stroke-linecap="square" stroke-miterlimit="10" x1="16.66" y1="126.86" x2="361.16" y2="325.3"/>
	
		<line fill-rule="evenodd" clip-rule="evenodd" fill="none" stroke="#D6D6D6" stroke-linecap="square" stroke-miterlimit="10" x1="61.71" y1="101.07" x2="406.21" y2="299.51"/>
	
		<line fill-rule="evenodd" clip-rule="evenodd" fill="none" stroke="#D6D6D6" stroke-linecap="square" stroke-miterlimit="10" x1="103.92" y1="74.71" x2="450.41" y2="274.77"/>
	
		<line fill-rule="evenodd" clip-rule="evenodd" fill="none" stroke="#D6D6D6" stroke-linecap="square" stroke-miterlimit="10" x1="146.12" y1="49.49" x2="492.58" y2="249.44"/>
	
		<line fill-rule="evenodd" clip-rule="evenodd" fill="none" stroke="#D6D6D6" stroke-linecap="square" stroke-miterlimit="10" x1="188.16" y1="25.31" x2="535.64" y2="225.71"/>
	
		<line fill-rule="evenodd" clip-rule="evenodd" fill="none" stroke="#D6D6D6" stroke-linecap="square" stroke-miterlimit="10" x1="229.39" y1="0.2" x2="578" y2="201.04"/>
	
		<line fill-rule="evenodd" clip-rule="evenodd" fill="none" stroke="#D6D6D6" stroke-linecap="square" stroke-miterlimit="10" x1="576.89" y1="151.87" x2="267.22" y2="331.25"/>
	
		<line fill-rule="evenodd" clip-rule="evenodd" fill="none" stroke="#D6D6D6" stroke-linecap="square" stroke-miterlimit="10" x1="531.56" y1="126.86" x2="187.37" y2="324.37"/>
	
		<line fill-rule="evenodd" clip-rule="evenodd" fill="none" stroke="#D6D6D6" stroke-linecap="square" stroke-miterlimit="10" x1="486.5" y1="101.07" x2="142.89" y2="299.16"/>
	
		<line fill-rule="evenodd" clip-rule="evenodd" fill="none" stroke="#D6D6D6" stroke-linecap="square" stroke-miterlimit="10" x1="444.3" y1="74.71" x2="97.81" y2="274.77"/>
	
		<line fill-rule="evenodd" clip-rule="evenodd" fill="none" stroke="#D6D6D6" stroke-linecap="square" stroke-miterlimit="10" x1="402.1" y1="50.06" x2="55.61" y2="249.4"/>
	
		<line fill-rule="evenodd" clip-rule="evenodd" fill="none" stroke="#D6D6D6" stroke-linecap="square" stroke-miterlimit="10" x1="360.67" y1="24.8" x2="13.2" y2="225.13"/>
	
		<line fill-rule="evenodd" clip-rule="evenodd" fill="none" stroke="#D6D6D6" stroke-linecap="square" stroke-miterlimit="10" x1="317.97" y1="0" x2="0" y2="183.87"/>
</g>
<g>
	
		<path fill-rule="evenodd" clip-rule="evenodd" fill="none" stroke="#555555" stroke-width="2" stroke-linecap="round" stroke-linejoin="round" stroke-miterlimit="10" d="
		M91,170c-0.58-61.86,81.78-112,183.95-112C377.12,58,460.42,108.14,461,170s-81.78,112-183.95,112C174.88,282,91.58,231.86,91,170z
		"/>
	<polygon fill-rule="evenodd" clip-rule="evenodd" fill="#003040" points="139.936,93.995 130.046,107.245 117.716,100.315 	"/>
	<polygon fill-rule="evenodd" clip-rule="evenodd" fill="#003040" points="429.23,229.86 439.12,216.61 451.45,223.54 	"/>
	<polygon fill-rule="evenodd" clip-rule="evenodd" fill="#003040" points="337.73,64.484 323.02,56.574 320.63,66.754 	"/>
	<polygon fill-rule="evenodd" clip-rule="evenodd" fill="#003040" points="185.048,267.871 202.174,276.918 204.957,265.274 	"/>
	
		<line fill-rule="evenodd" clip-rule="evenodd" fill="none" stroke="#5D5D5D" stroke-width="2" stroke-linecap="square" stroke-linejoin="round" stroke-miterlimit="10" x1="145.76" y1="96.47" x2="243" y2="154"/>
	
		<line fill-rule="evenodd" clip-rule="evenodd" fill="none" stroke="#5D5D5D" stroke-width="2" stroke-linecap="square" stroke-linejoin="round" stroke-miterlimit="10" x1="316.54" y1="196.98" x2="406" y2="250"/>
	
		<line fill-rule="evenodd" clip-rule="evenodd" fill="none" stroke="#5D5D5D" stroke-width="2" stroke-linecap="square" stroke-linejoin="round" stroke-miterlimit="10" x1="414.6" y1="93.58" x2="318.5" y2="147.5"/>
	
		<line fill-rule="evenodd" clip-rule="evenodd" fill="none" stroke="#5D5D5D" stroke-width="2" stroke-linecap="square" stroke-linejoin="round" stroke-miterlimit="10" x1="243.6" y1="191.58" x2="147.5" y2="245.5"/>
	<g>
		<path fill-rule="evenodd" clip-rule="evenodd" fill="#C0D6E9" d="M137,84l40,24c0,0,11.15,5,13-6c2.35-13.97-12-25-12-25
			s-5.47-23.5-18-30c-18.46-9.57-20,7-20,7s-10.78-1.76-12.2,3.23C123.89,70.97,137,84,137,84z"/>
		<path fill-rule="evenodd" clip-rule="evenodd" fill="#79A7D0" d="M130,89l40,24c0,0,11.15,5,13-6c2.35-13.97-12-25-12-25
			s-5.47-23.5-18-30c-18.46-9.57-20,7-20,7s-10.78-1.76-12.2,3.23C116.89,75.97,130,89,130,89z"/>
	</g>
	<g>
		<path fill-rule="evenodd" clip-rule="evenodd" fill="#C0D6E9" d="M400,236l40,24c0,0,11.15,5,13-6c2.35-13.97-12-25-12-25
			s-5.47-23.5-18-30c-18.46-9.57-20,7-20,7s-10.78-1.76-12.2,3.23C386.89,222.97,400,236,400,236z"/>
		<path fill-rule="evenodd" clip-rule="evenodd" fill="#79A7D0" d="M393,241l40,24c0,0,11.15,5,13-6c2.35-13.97-12-25-12-25
			s-5.47-23.5-18-30c-18.46-9.57-20,7-20,7s-10.78-1.76-12.2,3.23C379.89,227.97,393,241,393,241z"/>
	</g>
	<g>
		<path fill-rule="evenodd" clip-rule="evenodd" fill="#C0D6E9" d="M364.22,84.34l66.68,39.82c0,0,18.58,8.3,21.67-9.96
			c3.91-23.18-20.01-41.48-20.01-41.48s-9.11-39-30-49.78c-30.77-15.88-33.34,11.62-33.34,11.62s-17.97-2.92-20.34,5.36
			C342.37,62.72,364.22,84.34,364.22,84.34z"/>
		<path fill-rule="evenodd" clip-rule="evenodd" fill="#79A7D0" d="M352.55,93.29l66.68,39.83c0,0,18.59,8.3,21.67-9.96
			c3.91-23.18-20-41.48-20-41.48s-9.12-39-30.01-49.78c-30.77-15.89-33.34,11.61-33.34,11.61s-17.97-2.92-20.34,5.36
			C330.7,71.67,352.55,93.29,352.55,93.29z"/>
	</g>
	<g>
		<path fill-rule="evenodd" clip-rule="evenodd" fill="#C0D6E9" d="M132.47,233.47l50.72,29.7c0,0,14.14,6.19,16.48-7.42
			c2.98-17.29-15.22-30.94-15.22-30.94s-6.93-29.09-22.82-37.13c-23.41-11.84-25.36,8.67-25.36,8.67s-13.67-2.18-15.47,3.99
			C115.84,217.35,132.47,233.47,132.47,233.47z"/>
		<path fill-rule="evenodd" clip-rule="evenodd" fill="#79A7D0" d="M123.59,239.9l50.72,29.7c0,0,14.14,6.19,16.48-7.43
			c2.98-17.29-15.21-30.94-15.21-30.94s-6.94-29.08-22.83-37.12c-23.4-11.85-25.35,8.66-25.35,8.66s-13.68-2.18-15.48,4
			C106.97,223.77,123.59,239.9,123.59,239.9z"/>
	</g>
	<g>
		<polygon fill-rule="evenodd" clip-rule="evenodd" fill="#666666" points="208,155 284,199 345.26,163.52 268.68,118.54 		"/>
		<polygon fill-rule="evenodd" clip-rule="evenodd" fill="#262626" points="285,200 346,164 346,179 285,215 		"/>
		<polygon fill-rule="evenodd" clip-rule="evenodd" fill="#555555" points="208,156 284,200 284,214 208,170 		"/>
		<g>
			<polygon fill-rule="evenodd" clip-rule="evenodd" fill="#262626" points="215,163 219,165 219,174 215,172 			"/>
			<polygon fill-rule="evenodd" clip-rule="evenodd" fill="#262626" points="221,167 225,169 225,178 221,176 			"/>
			<polygon fill-rule="evenodd" clip-rule="evenodd" fill="#262626" points="227,170 231,172 231,181 227,179 			"/>
			<polygon fill-rule="evenodd" clip-rule="evenodd" fill="#262626" points="233,174 237,176 237,185 233,183 			"/>
			<polygon fill-rule="evenodd" clip-rule="evenodd" fill="#262626" points="239,177 243,179 243,188 239,186 			"/>
			<polygon fill-rule="evenodd" clip-rule="evenodd" fill="#262626" points="254,185 271,195 271,205 254,195 			"/>
			<polygon fill-rule="evenodd" clip-rule="evenodd" fill="#00FF7F" points="275,197 280,200 280,202 275,199 			"/>
			<polygon fill-rule="evenodd" clip-rule="evenodd" fill="#00FF7F" points="275,201 280,204 280,206 275,203 			"/>
			<polygon fill-rule="evenodd" clip-rule="evenodd" fill="#00FF7F" points="275,205 280,208 280,210 275,207 			"/>
		</g>
		<polygon opacity="0.5" fill-rule="evenodd" clip-rule="evenodd" fill="#BBBBBB" points="208,134 284,178 284,192 208,148 		"/>
		
			<polygon opacity="0.5" fill-rule="evenodd" clip-rule="evenodd" fill="#CCCCCC" stroke="#FFFFFF" stroke-linecap="round" stroke-linejoin="round" stroke-miterlimit="10" points="
			208,134 284,178 345.26,142.52 268.68,97.54 		"/>
		<polygon opacity="0.5" fill-rule="evenodd" clip-rule="evenodd" fill="#888888" points="285,178 346,142 346,157 285,193 		"/>
		
			<line fill-rule="evenodd" clip-rule="evenodd" fill="none" stroke="#FFFFFF" stroke-linecap="round" stroke-linejoin="round" stroke-miterlimit="10" x1="284.5" y1="178.5" x2="284.5" y2="192.5"/>
	</g>
</g>
</svg>
