<?xml version="1.0" encoding="utf-8"?>
<!-- Generator: Adobe Illustrator 16.0.0, SVG Export Plug-In . SVG Version: 6.00 Build 0)  -->
<!DOCTYPE svg PUBLIC "-//W3C//DTD SVG 1.1//EN" "http://www.w3.org/Graphics/SVG/1.1/DTD/svg11.dtd">
<svg version="1.1" id="层_1" xmlns="http://www.w3.org/2000/svg" xmlns:xlink="http://www.w3.org/1999/xlink" x="0px" y="0px"
	 width="831.36px" height="479.21px" viewBox="0 0 831.36 479.21" enable-background="new 0 0 831.36 479.21" xml:space="preserve">
<g>
	
		<line fill-rule="evenodd" clip-rule="evenodd" fill="none" stroke="#B7C0D0" stroke-linecap="square" stroke-miterlimit="10" x1="0" y1="243.38" x2="404.08" y2="475.71"/>
	
		<line fill-rule="evenodd" clip-rule="evenodd" fill="none" stroke="#B7C0D0" stroke-linecap="square" stroke-miterlimit="10" x1="23.34" y1="181.59" x2="519.23" y2="466.11"/>
	
		<line fill-rule="evenodd" clip-rule="evenodd" fill="none" stroke="#B7C0D0" stroke-linecap="square" stroke-miterlimit="10" x1="88.19" y1="144.62" x2="584.08" y2="429.13"/>
	
		<line fill-rule="evenodd" clip-rule="evenodd" fill="none" stroke="#B7C0D0" stroke-linecap="square" stroke-miterlimit="10" x1="148.94" y1="106.82" x2="647.7" y2="393.66"/>
	
		<line fill-rule="evenodd" clip-rule="evenodd" fill="none" stroke="#B7C0D0" stroke-linecap="square" stroke-miterlimit="10" x1="209.69" y1="70.67" x2="708.41" y2="357.34"/>
	
		<line fill-rule="evenodd" clip-rule="evenodd" fill="none" stroke="#B7C0D0" stroke-linecap="square" stroke-miterlimit="10" x1="270.2" y1="35.99" x2="770.38" y2="323.32"/>
	
		<line fill-rule="evenodd" clip-rule="evenodd" fill="none" stroke="#B7C0D0" stroke-linecap="square" stroke-miterlimit="10" x1="329.55" y1="0" x2="831.36" y2="287.95"/>
	
		<line fill-rule="evenodd" clip-rule="evenodd" fill="none" stroke="#B7C0D0" stroke-linecap="square" stroke-miterlimit="10" x1="829.77" y1="217.45" x2="384" y2="474.64"/>
	
		<line fill-rule="evenodd" clip-rule="evenodd" fill="none" stroke="#B7C0D0" stroke-linecap="square" stroke-miterlimit="10" x1="764.51" y1="181.59" x2="269.07" y2="464.78"/>
	
		<line fill-rule="evenodd" clip-rule="evenodd" fill="none" stroke="#B7C0D0" stroke-linecap="square" stroke-miterlimit="10" x1="699.65" y1="144.62" x2="205.04" y2="428.62"/>
	
		<line fill-rule="evenodd" clip-rule="evenodd" fill="none" stroke="#B7C0D0" stroke-linecap="square" stroke-miterlimit="10" x1="638.91" y1="106.82" x2="140.15" y2="393.66"/>
	
		<line fill-rule="evenodd" clip-rule="evenodd" fill="none" stroke="#B7C0D0" stroke-linecap="square" stroke-miterlimit="10" x1="578.16" y1="71.49" x2="79.4" y2="357.29"/>
	
		<line fill-rule="evenodd" clip-rule="evenodd" fill="none" stroke="#B7C0D0" stroke-linecap="square" stroke-miterlimit="10" x1="518.52" y1="35.27" x2="18.36" y2="322.48"/>
	
		<line fill-rule="evenodd" clip-rule="evenodd" fill="none" stroke="#B7C0D0" stroke-linecap="square" stroke-miterlimit="10" x1="457.07" y1="-0.29" x2="-0.64" y2="263.33"/>
</g>
<g>
	<g>
		<polygon fill-rule="evenodd" clip-rule="evenodd" fill="#9CBFD1" points="268.36,251.77 395.78,324.71 518.36,251.77 
			394.02,179.71 		"/>
		<polygon fill-rule="evenodd" clip-rule="evenodd" fill="#D0E3EE" points="268.36,248.77 395.78,321.71 518.36,248.77 
			394.02,176.71 		"/>
	</g>
	<g>
		<polygon fill-rule="evenodd" clip-rule="evenodd" fill="#D6DBE4" points="344,224.89 392.84,253.71 443.27,224.81 392.37,196.53 
					"/>
		<polygon fill-rule="evenodd" clip-rule="evenodd" fill="#B7C0D0" points="343.36,224.71 393.36,253.17 393.36,281.71 
			343.36,253.25 		"/>
		<polygon fill-rule="evenodd" clip-rule="evenodd" fill="#7D8EAA" points="443.36,224.71 393.36,253.17 393.36,281.71 
			443.36,253.25 		"/>
		<polygon fill-rule="evenodd" clip-rule="evenodd" fill="#7D8EAA" points="358.99,224.97 393.01,243.48 427.55,224.21 
			393.36,204.73 		"/>
		<polygon fill-rule="evenodd" clip-rule="evenodd" fill="#FFFFFF" points="358.99,223.97 393.01,242.48 427.55,223.21 
			393.36,203.73 		"/>
		
			<line fill-rule="evenodd" clip-rule="evenodd" fill="none" stroke="#FFFFFF" stroke-linecap="square" stroke-miterlimit="10" x1="344.44" y1="224.76" x2="392.88" y2="252.9"/>
		
			<line fill-rule="evenodd" clip-rule="evenodd" fill="none" stroke="#FFFFFF" stroke-linecap="square" stroke-miterlimit="10" x1="442.69" y1="224.94" x2="392.88" y2="252.9"/>
		
			<line fill-rule="evenodd" clip-rule="evenodd" fill="none" stroke="#FFFFFF" stroke-linecap="square" stroke-miterlimit="10" x1="392.88" y1="281.32" x2="392.88" y2="252.9"/>
	</g>
	<g>
		
			<line fill-rule="evenodd" clip-rule="evenodd" fill="none" stroke="#344054" stroke-width="2" stroke-linecap="square" stroke-miterlimit="10" x1="510.96" y1="147.29" x2="441.02" y2="186.6"/>
		<polygon fill-rule="evenodd" clip-rule="evenodd" fill="#003040" points="511.81,146.32 500.91,159.32 489.59,152.64 		"/>
		<polygon fill-rule="evenodd" clip-rule="evenodd" fill="#003040" points="426.59,194.32 437.48,181.32 448.81,188 		"/>
	</g>
	<g>
		
			<line fill-rule="evenodd" clip-rule="evenodd" fill="none" stroke="#344054" stroke-width="2" stroke-linecap="square" stroke-miterlimit="10" x1="569.96" y1="182.29" x2="500.02" y2="221.6"/>
		<polygon fill-rule="evenodd" clip-rule="evenodd" fill="#003040" points="570.81,182.32 559.91,195.32 548.59,188.64 		"/>
		<polygon fill-rule="evenodd" clip-rule="evenodd" fill="#003040" points="485.59,230.32 496.48,217.32 507.81,224 		"/>
	</g>
	<g>
		
			<line fill-rule="evenodd" clip-rule="evenodd" fill="none" stroke="#344054" stroke-width="2" stroke-linecap="square" stroke-miterlimit="10" x1="292.62" y1="275.24" x2="215.86" y2="318.21"/>
		<polygon fill-rule="evenodd" clip-rule="evenodd" fill="#003040" points="300.81,270.32 289.91,283.32 278.59,276.64 		"/>
		<polygon fill-rule="evenodd" clip-rule="evenodd" fill="#003040" points="213.59,319.32 224.48,306.32 235.81,313 		"/>
	</g>
	<g>
		
			<line fill-rule="evenodd" clip-rule="evenodd" fill="none" stroke="#344054" stroke-width="2" stroke-linecap="square" stroke-miterlimit="10" x1="348.89" y1="311.85" x2="274.86" y2="353.21"/>
		<polygon fill-rule="evenodd" clip-rule="evenodd" fill="#003040" points="358.81,304.32 347.91,317.32 336.59,310.64 		"/>
		<polygon fill-rule="evenodd" clip-rule="evenodd" fill="#003040" points="273.59,354.32 284.48,341.32 295.81,348 		"/>
	</g>
	<g>
		
			<line fill-rule="evenodd" clip-rule="evenodd" fill="none" stroke="#344054" stroke-width="2" stroke-linecap="square" stroke-miterlimit="10" x1="270.12" y1="150.18" x2="337.2" y2="189.59"/>
		<polygon fill-rule="evenodd" clip-rule="evenodd" fill="#003040" points="268.59,149.32 279.48,162.32 290.81,155.64 		"/>
		<polygon fill-rule="evenodd" clip-rule="evenodd" fill="#003040" points="351.81,199.32 340.91,186.32 329.59,193 		"/>
	</g>
	<g>
		
			<line fill-rule="evenodd" clip-rule="evenodd" fill="none" stroke="#344054" stroke-width="2" stroke-linecap="square" stroke-miterlimit="10" x1="219.46" y1="180.07" x2="288.2" y2="220.59"/>
		<polygon fill-rule="evenodd" clip-rule="evenodd" fill="#003040" points="215.59,177.32 226.48,190.32 237.81,183.64 		"/>
		<polygon fill-rule="evenodd" clip-rule="evenodd" fill="#003040" points="301.81,229.32 290.91,216.32 279.59,223 		"/>
	</g>
	<g>
		
			<line fill-rule="evenodd" clip-rule="evenodd" fill="none" stroke="#344054" stroke-width="2" stroke-linecap="square" stroke-miterlimit="10" x1="502.77" y1="275.74" x2="582.36" y2="322.71"/>
		<polygon fill-rule="evenodd" clip-rule="evenodd" fill="#003040" points="491.59,268.32 502.48,281.32 513.81,274.64 		"/>
		<polygon fill-rule="evenodd" clip-rule="evenodd" fill="#003040" points="581.81,322.32 570.91,309.32 559.59,316 		"/>
	</g>
	<g>
		
			<line fill-rule="evenodd" clip-rule="evenodd" fill="none" stroke="#344054" stroke-width="2" stroke-linecap="square" stroke-miterlimit="10" x1="438.78" y1="310.6" x2="515.36" y2="355.71"/>
		<polygon fill-rule="evenodd" clip-rule="evenodd" fill="#003040" points="430.59,305.32 441.48,318.32 452.81,311.64 		"/>
		<polygon fill-rule="evenodd" clip-rule="evenodd" fill="#003040" points="514.81,355.32 503.91,342.32 492.59,349 		"/>
	</g>
	
		<line fill-rule="evenodd" clip-rule="evenodd" fill="none" stroke="#CED4DF" stroke-linecap="square" stroke-miterlimit="10" x1="568.86" y1="327.21" x2="558.09" y2="333.46"/>
	<g>
		<polygon fill-rule="evenodd" clip-rule="evenodd" fill="#B7C0D0" points="497.36,99.51 529.36,118.02 529.36,156.67 
			497.36,138.67 		"/>
		<polygon fill-rule="evenodd" clip-rule="evenodd" fill="#7D8EAA" points="564.36,98.84 529.88,118.05 529.88,156.7 564.36,137.48 
					"/>
		<polygon fill-rule="evenodd" clip-rule="evenodd" fill="#D6DBE4" points="564.36,98.84 530.12,118.06 497.66,99.28 531.24,79.71 
					"/>
		<path fill-rule="evenodd" clip-rule="evenodd" fill="#FFFFFF" d="M533.92,90.51l11.85,6.45c2.05,1.11,2.13,2.93,0.16,4.06
			l-11.85,6.81c-2.05,1.17-5.39,1.17-7.44,0l-11.85-6.81c-1.97-1.13-1.89-2.95,0.16-4.06l11.85-6.45
			C528.77,89.44,531.95,89.44,533.92,90.51z"/>
		
			<line fill-rule="evenodd" clip-rule="evenodd" fill="none" stroke="#FFFFFF" stroke-linecap="square" stroke-miterlimit="10" x1="498.42" y1="99.69" x2="529.88" y2="117.9"/>
		
			<line fill-rule="evenodd" clip-rule="evenodd" fill="none" stroke="#FFFFFF" stroke-linecap="square" stroke-miterlimit="10" x1="563.91" y1="99.68" x2="529.88" y2="117.9"/>
		
			<line fill-rule="evenodd" clip-rule="evenodd" fill="none" stroke="#FFFFFF" stroke-linecap="square" stroke-miterlimit="10" x1="529.88" y1="156.32" x2="529.88" y2="117.9"/>
	</g>
	<g>
		<polygon fill-rule="evenodd" clip-rule="evenodd" fill="#B7C0D0" points="555.36,134.51 587.36,153.02 587.36,191.67 
			555.36,173.67 		"/>
		<polygon fill-rule="evenodd" clip-rule="evenodd" fill="#7D8EAA" points="622.36,133.84 587.88,153.05 587.88,191.7 
			622.36,172.48 		"/>
		<polygon fill-rule="evenodd" clip-rule="evenodd" fill="#D6DBE4" points="622.36,133.84 588.12,153.06 555.66,134.28 
			589.24,114.71 		"/>
		<path fill-rule="evenodd" clip-rule="evenodd" fill="#FFFFFF" d="M591.92,125.51l11.85,6.45c2.05,1.11,2.13,2.93,0.16,4.06
			l-11.85,6.81c-2.05,1.17-5.39,1.17-7.44,0l-11.85-6.81c-1.97-1.13-1.89-2.95,0.16-4.06l11.85-6.45
			C586.77,124.44,589.95,124.44,591.92,125.51z"/>
		
			<line fill-rule="evenodd" clip-rule="evenodd" fill="none" stroke="#FFFFFF" stroke-linecap="square" stroke-miterlimit="10" x1="556.42" y1="134.69" x2="587.88" y2="152.9"/>
		
			<line fill-rule="evenodd" clip-rule="evenodd" fill="none" stroke="#FFFFFF" stroke-linecap="square" stroke-miterlimit="10" x1="621.91" y1="134.68" x2="587.88" y2="152.9"/>
		
			<line fill-rule="evenodd" clip-rule="evenodd" fill="none" stroke="#FFFFFF" stroke-linecap="square" stroke-miterlimit="10" x1="587.88" y1="191.32" x2="587.88" y2="152.9"/>
	</g>
	<g>
		<polygon fill-rule="evenodd" clip-rule="evenodd" fill="#B7C0D0" points="158.36,295.51 190.36,314.02 190.36,352.67 
			158.36,334.67 		"/>
		<polygon fill-rule="evenodd" clip-rule="evenodd" fill="#7D8EAA" points="225.36,294.84 190.88,314.05 190.88,352.7 
			225.36,333.48 		"/>
		<polygon fill-rule="evenodd" clip-rule="evenodd" fill="#D6DBE4" points="225.36,294.84 191.12,314.06 158.66,295.28 
			192.24,275.71 		"/>
		<path fill-rule="evenodd" clip-rule="evenodd" fill="#FFFFFF" d="M194.92,286.51l11.85,6.45c2.05,1.11,2.13,2.93,0.16,4.06
			l-11.85,6.81c-2.05,1.17-5.39,1.17-7.44,0l-11.85-6.81c-1.97-1.13-1.89-2.95,0.16-4.06l11.85-6.45
			C189.77,285.44,192.95,285.44,194.92,286.51z"/>
		
			<line fill-rule="evenodd" clip-rule="evenodd" fill="none" stroke="#FFFFFF" stroke-linecap="square" stroke-miterlimit="10" x1="159.42" y1="295.69" x2="190.88" y2="313.9"/>
		
			<line fill-rule="evenodd" clip-rule="evenodd" fill="none" stroke="#FFFFFF" stroke-linecap="square" stroke-miterlimit="10" x1="224.91" y1="295.68" x2="190.88" y2="313.9"/>
		
			<line fill-rule="evenodd" clip-rule="evenodd" fill="none" stroke="#FFFFFF" stroke-linecap="square" stroke-miterlimit="10" x1="190.88" y1="352.32" x2="190.88" y2="313.9"/>
	</g>
	<g>
		<polygon fill-rule="evenodd" clip-rule="evenodd" fill="#B7C0D0" points="217.36,329.51 249.36,348.02 249.36,386.67 
			217.36,368.67 		"/>
		<polygon fill-rule="evenodd" clip-rule="evenodd" fill="#7D8EAA" points="284.36,328.84 249.88,348.05 249.88,386.7 
			284.36,367.48 		"/>
		<polygon fill-rule="evenodd" clip-rule="evenodd" fill="#D6DBE4" points="284.36,328.84 250.12,348.06 217.66,329.28 
			251.24,309.71 		"/>
		<path fill-rule="evenodd" clip-rule="evenodd" fill="#FFFFFF" d="M253.92,320.51l11.85,6.45c2.05,1.11,2.13,2.93,0.16,4.06
			l-11.85,6.81c-2.05,1.17-5.39,1.17-7.44,0l-11.85-6.81c-1.97-1.13-1.89-2.95,0.16-4.06l11.85-6.45
			C248.77,319.44,251.95,319.44,253.92,320.51z"/>
		
			<line fill-rule="evenodd" clip-rule="evenodd" fill="none" stroke="#FFFFFF" stroke-linecap="square" stroke-miterlimit="10" x1="218.42" y1="329.69" x2="249.88" y2="347.9"/>
		
			<line fill-rule="evenodd" clip-rule="evenodd" fill="none" stroke="#FFFFFF" stroke-linecap="square" stroke-miterlimit="10" x1="283.91" y1="329.68" x2="249.88" y2="347.9"/>
		
			<line fill-rule="evenodd" clip-rule="evenodd" fill="none" stroke="#FFFFFF" stroke-linecap="square" stroke-miterlimit="10" x1="249.88" y1="386.32" x2="249.88" y2="347.9"/>
	</g>
	<g>
		<polygon fill-rule="evenodd" clip-rule="evenodd" fill="#B7C0D0" points="565.36,292.51 597.36,311.02 597.36,349.67 
			565.36,331.67 		"/>
		<polygon fill-rule="evenodd" clip-rule="evenodd" fill="#7D8EAA" points="632.36,291.84 597.88,311.05 597.88,349.7 
			632.36,330.48 		"/>
		<polygon fill-rule="evenodd" clip-rule="evenodd" fill="#D6DBE4" points="632.36,291.84 598.12,311.06 565.66,292.28 
			599.24,272.71 		"/>
		<path fill-rule="evenodd" clip-rule="evenodd" fill="#FFFFFF" d="M601.92,283.51l11.85,6.45c2.05,1.11,2.13,2.93,0.16,4.06
			l-11.85,6.81c-2.05,1.17-5.39,1.17-7.44,0l-11.85-6.81c-1.97-1.13-1.89-2.95,0.16-4.06l11.85-6.45
			C596.77,282.44,599.95,282.44,601.92,283.51z"/>
		
			<line fill-rule="evenodd" clip-rule="evenodd" fill="none" stroke="#FFFFFF" stroke-linecap="square" stroke-miterlimit="10" x1="566.42" y1="292.69" x2="597.88" y2="310.9"/>
		
			<line fill-rule="evenodd" clip-rule="evenodd" fill="none" stroke="#FFFFFF" stroke-linecap="square" stroke-miterlimit="10" x1="631.91" y1="292.68" x2="597.88" y2="310.9"/>
		
			<line fill-rule="evenodd" clip-rule="evenodd" fill="none" stroke="#FFFFFF" stroke-linecap="square" stroke-miterlimit="10" x1="597.88" y1="349.32" x2="597.88" y2="310.9"/>
	</g>
	<g>
		<polygon fill-rule="evenodd" clip-rule="evenodd" fill="#B7C0D0" points="502.36,328.51 534.36,347.02 534.36,385.67 
			502.36,367.67 		"/>
		<polygon fill-rule="evenodd" clip-rule="evenodd" fill="#7D8EAA" points="569.36,327.84 534.88,347.05 534.88,385.7 
			569.36,366.48 		"/>
		<polygon fill-rule="evenodd" clip-rule="evenodd" fill="#D6DBE4" points="569.36,327.84 535.12,347.06 502.66,328.28 
			536.24,308.71 		"/>
		<path fill-rule="evenodd" clip-rule="evenodd" fill="#FFFFFF" d="M538.92,319.51l11.85,6.45c2.05,1.11,2.13,2.93,0.16,4.06
			l-11.85,6.81c-2.05,1.17-5.39,1.17-7.44,0l-11.85-6.81c-1.97-1.13-1.89-2.95,0.16-4.06l11.85-6.45
			C533.77,318.44,536.95,318.44,538.92,319.51z"/>
		
			<line fill-rule="evenodd" clip-rule="evenodd" fill="none" stroke="#FFFFFF" stroke-linecap="square" stroke-miterlimit="10" x1="503.42" y1="328.69" x2="534.88" y2="346.9"/>
		
			<line fill-rule="evenodd" clip-rule="evenodd" fill="none" stroke="#FFFFFF" stroke-linecap="square" stroke-miterlimit="10" x1="568.91" y1="328.68" x2="534.88" y2="346.9"/>
		
			<line fill-rule="evenodd" clip-rule="evenodd" fill="none" stroke="#FFFFFF" stroke-linecap="square" stroke-miterlimit="10" x1="534.88" y1="385.32" x2="534.88" y2="346.9"/>
	</g>
	<g>
		<polygon fill-rule="evenodd" clip-rule="evenodd" fill="#B7C0D0" points="217.36,100.51 249.36,119.02 249.36,157.67 
			217.36,139.67 		"/>
		<polygon fill-rule="evenodd" clip-rule="evenodd" fill="#7D8EAA" points="284.36,99.84 249.88,119.05 249.88,157.7 284.36,138.48 
					"/>
		<polygon fill-rule="evenodd" clip-rule="evenodd" fill="#D6DBE4" points="284.36,99.84 250.12,119.06 217.66,100.28 251.24,80.71 
					"/>
		<path fill-rule="evenodd" clip-rule="evenodd" fill="#FFFFFF" d="M253.92,91.51l11.85,6.45c2.05,1.11,2.13,2.93,0.16,4.06
			l-11.85,6.81c-2.05,1.17-5.39,1.17-7.44,0l-11.85-6.81c-1.97-1.13-1.89-2.95,0.16-4.06l11.85-6.45
			C248.77,90.44,251.95,90.44,253.92,91.51z"/>
		
			<line fill-rule="evenodd" clip-rule="evenodd" fill="none" stroke="#FFFFFF" stroke-linecap="square" stroke-miterlimit="10" x1="218.42" y1="100.69" x2="249.88" y2="118.9"/>
		
			<line fill-rule="evenodd" clip-rule="evenodd" fill="none" stroke="#FFFFFF" stroke-linecap="square" stroke-miterlimit="10" x1="283.91" y1="100.68" x2="249.88" y2="118.9"/>
		
			<line fill-rule="evenodd" clip-rule="evenodd" fill="none" stroke="#FFFFFF" stroke-linecap="square" stroke-miterlimit="10" x1="249.88" y1="157.32" x2="249.88" y2="118.9"/>
	</g>
	<g>
		<polygon fill-rule="evenodd" clip-rule="evenodd" fill="#B7C0D0" points="162.36,130.51 194.36,149.02 194.36,187.67 
			162.36,169.67 		"/>
		<polygon fill-rule="evenodd" clip-rule="evenodd" fill="#7D8EAA" points="229.36,129.84 194.88,149.05 194.88,187.7 
			229.36,168.48 		"/>
		<polygon fill-rule="evenodd" clip-rule="evenodd" fill="#D6DBE4" points="229.36,129.84 195.12,149.06 162.66,130.28 
			196.24,110.71 		"/>
		<path fill-rule="evenodd" clip-rule="evenodd" fill="#FFFFFF" d="M198.92,121.51l11.85,6.45c2.05,1.11,2.13,2.93,0.16,4.06
			l-11.85,6.81c-2.05,1.17-5.39,1.17-7.44,0l-11.85-6.81c-1.97-1.13-1.89-2.95,0.16-4.06l11.85-6.45
			C193.77,120.44,196.95,120.44,198.92,121.51z"/>
		
			<line fill-rule="evenodd" clip-rule="evenodd" fill="none" stroke="#FFFFFF" stroke-linecap="square" stroke-miterlimit="10" x1="163.42" y1="130.69" x2="194.88" y2="148.9"/>
		
			<line fill-rule="evenodd" clip-rule="evenodd" fill="none" stroke="#FFFFFF" stroke-linecap="square" stroke-miterlimit="10" x1="228.91" y1="130.68" x2="194.88" y2="148.9"/>
		
			<line fill-rule="evenodd" clip-rule="evenodd" fill="none" stroke="#FFFFFF" stroke-linecap="square" stroke-miterlimit="10" x1="194.88" y1="187.32" x2="194.88" y2="148.9"/>
	</g>
</g>
<g>
	<g>
		<g>
			<g>
				<path fill="#004B91" d="M115.799,167.256l2.169-0.213c-0.341,2.071-0.901,3.79-1.679,5.156
					c-0.779,1.367-1.764,2.401-2.955,3.103c-1.474,0.868-2.683,0.803-3.626-0.197c-0.943-1-1.409-2.851-1.398-5.554
					c0.011-2.859,0.498-5.361,1.458-7.505c0.96-2.144,2.218-3.674,3.773-4.589c1.358-0.8,2.459-0.829,3.302-0.086
					c0.502,0.437,0.876,1.269,1.123,2.495l-2.222,2.127c-0.128-0.813-0.399-1.355-0.813-1.625c-0.414-0.27-0.919-0.23-1.515,0.121
					c-0.823,0.485-1.493,1.335-2.009,2.551s-0.778,2.848-0.787,4.895c-0.009,2.172,0.238,3.57,0.739,4.194
					c0.501,0.625,1.156,0.699,1.963,0.224c0.596-0.351,1.11-0.946,1.541-1.785C115.296,169.727,115.608,168.624,115.799,167.256z"/>
				<path fill="#004B91" d="M122.046,152.74l-0.025,6.316c0.691-1.646,1.515-2.751,2.469-3.313c0.49-0.289,0.931-0.408,1.323-0.359
					c0.393,0.049,0.688,0.234,0.885,0.554c0.198,0.32,0.332,0.724,0.403,1.212s0.104,1.291,0.1,2.408l-0.029,7.301l-2.128,1.253
					l0.026-6.574c0.005-1.305-0.032-2.108-0.111-2.413c-0.079-0.304-0.221-0.5-0.425-0.586c-0.204-0.086-0.459-0.04-0.767,0.142
					c-0.354,0.208-0.669,0.527-0.948,0.956c-0.279,0.429-0.484,0.949-0.615,1.56s-0.198,1.44-0.203,2.487l-0.025,6.234l-2.128,1.253
					l0.069-17.18L122.046,152.74z"/>
				<path fill="#004B91" d="M130.956,156.003l-1.929,0.599c0.222-1.331,0.599-2.441,1.132-3.332
					c0.532-0.891,1.322-1.644,2.366-2.259c0.949-0.559,1.656-0.802,2.118-0.728c0.463,0.074,0.788,0.323,0.975,0.747
					c0.187,0.424,0.278,1.35,0.272,2.78l-0.038,3.857c-0.004,1.094,0.026,1.881,0.093,2.36c0.066,0.479,0.191,0.961,0.376,1.445
					l-2.105,1.24c-0.055-0.186-0.122-0.47-0.2-0.852c-0.035-0.175-0.06-0.289-0.074-0.342c-0.366,0.761-0.756,1.4-1.171,1.917
					c-0.415,0.517-0.857,0.914-1.327,1.19c-0.828,0.488-1.479,0.524-1.954,0.11c-0.474-0.415-0.709-1.153-0.705-2.216
					c0.003-0.703,0.114-1.394,0.333-2.072s0.525-1.28,0.918-1.803c0.393-0.523,0.958-1.111,1.696-1.764
					c0.996-0.875,1.686-1.55,2.071-2.026l0.001-0.328c0.003-0.633-0.097-1.024-0.297-1.175c-0.201-0.151-0.582-0.061-1.142,0.269
					c-0.379,0.223-0.675,0.512-0.887,0.868C131.262,154.843,131.089,155.348,130.956,156.003z M133.792,156.999
					c-0.273,0.301-0.706,0.724-1.297,1.267c-0.591,0.543-0.978,0.962-1.161,1.257c-0.279,0.468-0.419,0.937-0.421,1.405
					c-0.002,0.461,0.108,0.794,0.328,0.999c0.221,0.205,0.503,0.207,0.846,0.004c0.384-0.226,0.75-0.637,1.101-1.233
					c0.259-0.448,0.429-0.911,0.512-1.389c0.056-0.313,0.086-0.865,0.09-1.654L133.792,156.999z"/>
				<path fill="#004B91" d="M137.957,160.509l0.05-12.445l2.128-1.253l-0.05,12.445L137.957,160.509z M138.013,146.376l0.012-3.047
					l2.128-1.253l-0.012,3.047L138.013,146.376z"/>
				<path fill="#004B91" d="M149.582,153.663l-2.128,1.253l0.025-6.352c0.005-1.344-0.037-2.186-0.126-2.527
					c-0.09-0.341-0.236-0.561-0.439-0.659c-0.204-0.099-0.449-0.063-0.737,0.106c-0.368,0.217-0.7,0.568-0.994,1.053
					c-0.294,0.485-0.496,1.018-0.607,1.597s-0.169,1.565-0.174,2.956l-0.022,5.637l-2.128,1.253l0.05-12.445l1.977-1.164
					l-0.007,1.828c0.708-1.819,1.594-3.043,2.659-3.67c0.47-0.277,0.898-0.398,1.286-0.366c0.388,0.033,0.68,0.193,0.878,0.482
					c0.198,0.289,0.334,0.668,0.411,1.138c0.076,0.47,0.112,1.185,0.109,2.146L149.582,153.663z"/>
				<path fill="#004B91" d="M108.468,201.818l0.069-17.18l2.128-1.253l-0.025,6.187c0.661-1.543,1.441-2.579,2.34-3.108
					c0.979-0.577,1.788-0.505,2.424,0.215c0.637,0.72,0.951,2.107,0.943,4.162c-0.009,2.125-0.342,3.954-1,5.487
					c-0.658,1.534-1.455,2.575-2.389,3.125c-0.459,0.271-0.912,0.36-1.357,0.267c-0.446-0.092-0.828-0.391-1.149-0.896l-0.007,1.828
					L108.468,201.818z M110.607,194.081c-0.005,1.289,0.122,2.165,0.382,2.627c0.365,0.658,0.853,0.807,1.464,0.447
					c0.47-0.276,0.871-0.823,1.204-1.639c0.333-0.815,0.502-1.892,0.508-3.228c0.006-1.422-0.157-2.349-0.487-2.782
					c-0.331-0.433-0.756-0.496-1.276-0.19c-0.51,0.301-0.935,0.857-1.276,1.669C110.785,191.8,110.612,192.831,110.607,194.081z"/>
				<path fill="#004B91" d="M120.07,194.985l-2.128,1.253l0.05-12.445l1.977-1.164l-0.007,1.77c0.341-1.035,0.648-1.765,0.919-2.189
					c0.271-0.425,0.578-0.738,0.922-0.94c0.485-0.285,0.951-0.354,1.398-0.204l-0.67,3.259c-0.357-0.148-0.69-0.131-0.998,0.05
					c-0.298,0.175-0.551,0.451-0.759,0.827c-0.208,0.376-0.373,0.931-0.494,1.665c-0.121,0.733-0.186,2.159-0.195,4.276
					L120.07,194.985z"/>
				<path fill="#004B91" d="M124.069,192.63l0.05-12.445l2.128-1.253l-0.05,12.445L124.069,192.63z M124.126,178.498l0.012-3.047
					l2.128-1.253l-0.012,3.047L124.126,178.498z"/>
				<path fill="#004B91" d="M135.755,185.749l-1.977,1.164l0.007-1.828c-0.331,0.904-0.72,1.661-1.169,2.272
					c-0.448,0.61-0.899,1.05-1.354,1.317c-0.924,0.544-1.713,0.434-2.367-0.33c-0.654-0.765-0.977-2.178-0.969-4.24
					c0.009-2.109,0.335-3.902,0.981-5.377c0.646-1.476,1.458-2.502,2.438-3.078c0.899-0.529,1.674-0.409,2.326,0.36l0.025-6.187
					l2.128-1.253L135.755,185.749z M130.101,182.601c-0.005,1.328,0.109,2.219,0.344,2.673c0.34,0.657,0.818,0.805,1.434,0.442
					c0.49-0.289,0.908-0.856,1.253-1.703c0.346-0.847,0.522-1.911,0.527-3.192c0.006-1.43-0.157-2.361-0.488-2.793
					s-0.756-0.496-1.276-0.189c-0.505,0.297-0.929,0.856-1.272,1.679C130.28,180.338,130.106,181.367,130.101,182.601z"/>
				<path fill="#004B91" d="M137.653,185.449l2.429-0.975c0.039,0.414,0.131,0.66,0.277,0.737c0.201,0.116,0.519,0.046,0.953-0.21
					c0.555-0.327,0.972-0.701,1.251-1.123c0.188-0.281,0.33-0.643,0.427-1.082c0.067-0.312,0.102-0.835,0.104-1.57l0.007-1.816
					c-0.641,1.719-1.447,2.863-2.416,3.434c-1.081,0.636-1.933,0.433-2.559-0.609c-0.49-0.826-0.732-2.071-0.725-3.735
					c0.008-2.086,0.339-3.87,0.992-5.354s1.462-2.509,2.426-3.078c0.995-0.585,1.813-0.393,2.453,0.578l0.007-1.746l1.992-1.173
					l-0.045,11.168c-0.006,1.469-0.088,2.612-0.248,3.431c-0.16,0.819-0.381,1.518-0.666,2.099c-0.284,0.58-0.663,1.127-1.136,1.639
					c-0.473,0.512-1.071,0.981-1.792,1.406c-1.363,0.803-2.329,1.011-2.896,0.625s-0.849-1.135-0.845-2.244
					C137.644,185.743,137.647,185.608,137.653,185.449z M139.583,177.029c-0.005,1.32,0.156,2.189,0.484,2.608
					c0.328,0.418,0.735,0.485,1.219,0.199c0.52-0.306,0.961-0.879,1.322-1.719c0.361-0.84,0.544-1.877,0.549-3.112
					c0.005-1.289-0.163-2.145-0.503-2.567c-0.341-0.423-0.774-0.479-1.299-0.17c-0.51,0.3-0.932,0.854-1.265,1.663
					C139.757,174.738,139.588,175.771,139.583,177.029z"/>
				<path fill="#004B91" d="M152,172.229l2.118-0.698c-0.277,1.363-0.711,2.533-1.302,3.508c-0.591,0.976-1.328,1.724-2.211,2.244
					c-1.399,0.823-2.431,0.726-3.097-0.293c-0.526-0.82-0.785-2.094-0.778-3.82c0.008-2.063,0.363-3.883,1.065-5.461
					c0.701-1.579,1.585-2.681,2.65-3.309c1.197-0.705,2.138-0.649,2.825,0.166c0.687,0.815,1.01,2.494,0.97,5.035l-5.332,3.14
					c0.011,0.968,0.18,1.627,0.506,1.977c0.326,0.35,0.734,0.38,1.223,0.092c0.333-0.196,0.614-0.502,0.842-0.917
					S151.882,172.923,152,172.229z M152.135,168.83c-0.011-0.944-0.167-1.575-0.468-1.893c-0.301-0.317-0.669-0.349-1.103-0.093
					c-0.465,0.273-0.849,0.761-1.155,1.463c-0.305,0.702-0.457,1.5-0.455,2.396L152.135,168.83z"/>
			</g>
		</g>
		<g>
			<g>
				<path fill="#004B91" d="M282.676,76.437l0.057-14.273l-3.294,1.94l0.012-2.906l8.823-5.196l-0.012,2.906l-3.287,1.936
					l-0.058,14.273L282.676,76.437z"/>
				<path fill="#004B91" d="M289.169,66.229c0.004-1.094,0.183-2.255,0.535-3.483s0.849-2.301,1.49-3.216
					c0.641-0.915,1.355-1.604,2.143-2.068c1.217-0.717,2.211-0.693,2.984,0.072c0.773,0.765,1.155,2.08,1.148,3.947
					c-0.008,1.883-0.406,3.675-1.197,5.375c-0.79,1.701-1.781,2.902-2.972,3.604c-0.737,0.434-1.439,0.59-2.106,0.469
					c-0.667-0.122-1.172-0.578-1.517-1.369S289.163,67.659,289.169,66.229z M291.349,65.121c-0.005,1.234,0.18,2.068,0.556,2.501
					c0.376,0.434,0.842,0.486,1.397,0.159c0.556-0.327,1.022-0.93,1.401-1.807s0.571-1.942,0.576-3.192
					c0.005-1.219-0.179-2.045-0.553-2.48c-0.373-0.435-0.838-0.489-1.393-0.162s-1.024,0.931-1.405,1.81
					C291.547,62.83,291.354,63.886,291.349,65.121z"/>
				<path fill="#004B91" d="M299.034,66.803l0.068-17.18l2.128-1.253l-0.037,9.117l2.509-5.85l2.621-1.543l-2.768,6.166l2.915,6.164
					l-2.295,1.351l-2-4.398l-0.999,2.189l-0.016,3.984L299.034,66.803z"/>
				<path fill="#004B91" d="M312.409,54.975l2.118-0.698c-0.277,1.364-0.711,2.533-1.302,3.509c-0.59,0.975-1.328,1.723-2.211,2.243
					c-1.398,0.824-2.431,0.727-3.096-0.292c-0.526-0.821-0.785-2.095-0.778-3.821c0.008-2.063,0.363-3.883,1.065-5.461
					c0.701-1.578,1.585-2.681,2.65-3.309c1.197-0.705,2.138-0.649,2.825,0.166c0.687,0.815,1.011,2.494,0.97,5.035l-5.332,3.14
					c0.011,0.968,0.18,1.626,0.506,1.976c0.326,0.35,0.733,0.381,1.223,0.092c0.333-0.196,0.614-0.502,0.842-0.917
					C312.117,56.222,312.29,55.668,312.409,54.975z M312.544,51.575c-0.012-0.944-0.167-1.575-0.469-1.893
					c-0.301-0.318-0.668-0.349-1.103-0.093c-0.465,0.273-0.85,0.761-1.154,1.463c-0.305,0.701-0.457,1.5-0.456,2.396L312.544,51.575
					z"/>
				<path fill="#004B91" d="M323.677,52.29l-2.128,1.253l0.025-6.352c0.005-1.344-0.037-2.186-0.126-2.527
					c-0.089-0.341-0.236-0.561-0.439-0.659c-0.204-0.099-0.449-0.063-0.737,0.106c-0.368,0.217-0.699,0.568-0.994,1.053
					c-0.294,0.485-0.496,1.017-0.606,1.597c-0.111,0.58-0.169,1.565-0.175,2.956l-0.022,5.637l-2.128,1.253l0.05-12.445l1.977-1.164
					l-0.007,1.828c0.707-1.819,1.594-3.043,2.659-3.67c0.469-0.277,0.897-0.398,1.285-0.366c0.388,0.033,0.681,0.193,0.879,0.482
					c0.197,0.289,0.334,0.668,0.411,1.138s0.112,1.185,0.109,2.146L323.677,52.29z"/>
				<path fill="#004B91" d="M289.695,87.5l-2.1,1.821c-0.068-0.607-0.227-1-0.476-1.182c-0.249-0.181-0.572-0.154-0.971,0.081
					c-0.53,0.312-0.955,0.844-1.272,1.596c-0.317,0.753-0.479,1.793-0.484,3.121c-0.006,1.477,0.15,2.425,0.468,2.846
					c0.318,0.42,0.748,0.472,1.288,0.153c0.404-0.238,0.735-0.61,0.994-1.117c0.259-0.507,0.443-1.226,0.553-2.155l2.088-0.68
					c-0.223,1.612-0.644,2.979-1.263,4.099c-0.619,1.121-1.446,1.985-2.481,2.595c-1.176,0.693-2.112,0.671-2.807-0.066
					c-0.694-0.736-1.038-2.12-1.03-4.151c0.008-2.055,0.366-3.861,1.072-5.419c0.707-1.558,1.658-2.689,2.854-3.394
					c0.979-0.577,1.757-0.71,2.333-0.397C289.037,85.563,289.448,86.313,289.695,87.5z"/>
				<path fill="#004B91" d="M293.463,76.888l-0.025,6.316c0.691-1.646,1.515-2.751,2.469-3.313c0.49-0.289,0.931-0.408,1.324-0.359
					c0.393,0.05,0.688,0.234,0.886,0.555c0.198,0.32,0.332,0.724,0.403,1.212c0.071,0.488,0.104,1.291,0.1,2.408l-0.029,7.301
					l-2.128,1.253l0.026-6.574c0.006-1.305-0.032-2.109-0.111-2.413c-0.079-0.304-0.221-0.499-0.424-0.586
					c-0.204-0.086-0.46-0.039-0.768,0.143c-0.354,0.208-0.67,0.526-0.948,0.956c-0.279,0.429-0.483,0.949-0.615,1.56
					c-0.131,0.611-0.199,1.44-0.203,2.487l-0.025,6.234l-2.128,1.253l0.069-17.179L293.463,76.888z"/>
				<path fill="#004B91" d="M302.373,80.151l-1.93,0.599c0.223-1.331,0.6-2.442,1.132-3.332c0.533-0.891,1.321-1.644,2.366-2.259
					c0.949-0.559,1.656-0.802,2.119-0.728c0.463,0.074,0.788,0.323,0.975,0.747c0.187,0.423,0.278,1.35,0.272,2.78l-0.038,3.857
					c-0.004,1.094,0.026,1.88,0.093,2.36c0.066,0.479,0.191,0.961,0.375,1.445l-2.105,1.24c-0.055-0.186-0.122-0.47-0.201-0.852
					c-0.034-0.175-0.059-0.289-0.074-0.342c-0.366,0.761-0.756,1.4-1.171,1.917c-0.415,0.517-0.857,0.914-1.327,1.19
					c-0.828,0.488-1.479,0.524-1.953,0.11c-0.475-0.415-0.709-1.153-0.705-2.216c0.003-0.703,0.113-1.394,0.333-2.072
					c0.219-0.679,0.525-1.28,0.918-1.803c0.392-0.523,0.957-1.112,1.695-1.764c0.996-0.875,1.687-1.551,2.071-2.026l0.001-0.328
					c0.002-0.633-0.097-1.024-0.298-1.175c-0.201-0.151-0.581-0.062-1.142,0.269c-0.379,0.224-0.675,0.513-0.888,0.868
					C302.679,78.991,302.506,79.496,302.373,80.151z M305.21,81.146c-0.273,0.301-0.706,0.724-1.297,1.267s-0.979,0.962-1.161,1.257
					c-0.279,0.468-0.42,0.937-0.421,1.405c-0.002,0.461,0.108,0.794,0.329,0.999s0.503,0.207,0.846,0.004
					c0.384-0.226,0.751-0.637,1.101-1.233c0.259-0.448,0.429-0.911,0.512-1.389c0.057-0.313,0.087-0.865,0.09-1.654L305.21,81.146z"
					/>
				<path fill="#004B91" d="M309.374,84.657l0.05-12.445l2.128-1.253l-0.05,12.445L309.374,84.657z M309.43,70.524l0.012-3.047
					l2.128-1.253l-0.013,3.047L309.43,70.524z"/>
				<path fill="#004B91" d="M320.999,77.811l-2.128,1.253l0.026-6.352c0.005-1.344-0.037-2.186-0.126-2.527
					c-0.089-0.341-0.236-0.561-0.439-0.659c-0.204-0.099-0.449-0.063-0.737,0.106c-0.368,0.217-0.7,0.568-0.994,1.053
					c-0.294,0.485-0.496,1.018-0.606,1.597c-0.111,0.58-0.169,1.565-0.175,2.956l-0.022,5.637l-2.128,1.253l0.05-12.445l1.977-1.164
					l-0.007,1.828c0.707-1.819,1.593-3.043,2.659-3.67c0.469-0.277,0.898-0.398,1.286-0.366c0.388,0.033,0.681,0.193,0.878,0.482
					s0.335,0.668,0.411,1.138c0.076,0.469,0.112,1.185,0.108,2.146L320.999,77.811z"/>
			</g>
		</g>
		<g>
			<g>
				<path fill="#004B91" d="M463.45,111.446l0.069-17.18l2.241-1.32l-0.068,17.18L463.45,111.446z"/>
				<path fill="#004B91" d="M467.889,91.693l4.097-2.413c0.924-0.544,1.628-0.849,2.111-0.916c0.65-0.086,1.206,0.112,1.667,0.597
					s0.811,1.204,1.049,2.159c0.238,0.955,0.354,2.237,0.347,3.846c-0.005,1.414-0.124,2.7-0.355,3.857
					c-0.283,1.413-0.683,2.658-1.201,3.735c-0.391,0.814-0.918,1.581-1.581,2.299c-0.496,0.533-1.157,1.044-1.985,1.531
					l-4.218,2.484L467.889,91.693z M470.119,93.279l-0.046,11.379l1.674-0.985c0.626-0.369,1.078-0.689,1.356-0.962
					c0.364-0.355,0.667-0.771,0.908-1.248c0.241-0.478,0.438-1.146,0.593-2.004c0.154-0.859,0.235-1.952,0.24-3.28
					c0.005-1.328-0.066-2.303-0.215-2.925c-0.148-0.622-0.358-1.052-0.63-1.29c-0.271-0.238-0.615-0.304-1.034-0.198
					c-0.313,0.075-0.926,0.382-1.84,0.92L470.119,93.279z"/>
				<path fill="#004B91" d="M457.955,129.88l-2.1,1.821c-0.068-0.607-0.227-1-0.475-1.182c-0.249-0.181-0.573-0.154-0.972,0.081
					c-0.53,0.312-0.954,0.844-1.271,1.596c-0.318,0.753-0.479,1.793-0.485,3.121c-0.006,1.477,0.15,2.425,0.469,2.846
					c0.318,0.42,0.747,0.472,1.288,0.153c0.404-0.238,0.735-0.61,0.995-1.117c0.258-0.507,0.442-1.226,0.552-2.155l2.088-0.68
					c-0.224,1.612-0.645,2.979-1.264,4.099s-1.446,1.985-2.48,2.595c-1.177,0.693-2.112,0.671-2.807-0.066
					c-0.695-0.736-1.038-2.12-1.03-4.151c0.008-2.055,0.365-3.861,1.072-5.419c0.706-1.558,1.657-2.689,2.854-3.394
					c0.979-0.577,1.757-0.71,2.332-0.397C457.297,127.943,457.708,128.693,457.955,129.88z"/>
				<path fill="#004B91" d="M461.723,119.268l-0.025,6.316c0.692-1.646,1.515-2.751,2.469-3.313c0.49-0.289,0.931-0.408,1.324-0.359
					c0.393,0.05,0.688,0.234,0.886,0.555c0.198,0.32,0.332,0.724,0.403,1.212c0.071,0.488,0.104,1.291,0.1,2.408l-0.029,7.301
					l-2.128,1.253l0.026-6.574c0.005-1.305-0.032-2.109-0.111-2.413c-0.079-0.304-0.221-0.499-0.425-0.586
					c-0.204-0.086-0.459-0.039-0.768,0.143c-0.353,0.208-0.669,0.526-0.948,0.956c-0.278,0.429-0.483,0.949-0.614,1.56
					s-0.198,1.44-0.203,2.487l-0.025,6.234l-2.128,1.253l0.069-17.179L461.723,119.268z"/>
				<path fill="#004B91" d="M470.633,122.531l-1.929,0.599c0.222-1.331,0.599-2.442,1.132-3.332
					c0.532-0.891,1.321-1.644,2.366-2.259c0.949-0.559,1.655-0.802,2.118-0.728s0.788,0.323,0.976,0.747
					c0.187,0.423,0.278,1.35,0.272,2.78l-0.038,3.857c-0.005,1.094,0.026,1.88,0.092,2.36s0.191,0.961,0.375,1.445l-2.105,1.24
					c-0.055-0.186-0.121-0.47-0.2-0.852c-0.035-0.175-0.06-0.289-0.074-0.342c-0.366,0.761-0.756,1.4-1.171,1.917
					c-0.415,0.517-0.857,0.914-1.327,1.19c-0.828,0.488-1.479,0.524-1.954,0.11c-0.474-0.415-0.709-1.153-0.705-2.216
					c0.003-0.703,0.114-1.394,0.333-2.072s0.525-1.28,0.917-1.803s0.958-1.112,1.696-1.764c0.996-0.875,1.686-1.551,2.071-2.026
					l0.001-0.328c0.003-0.633-0.096-1.024-0.297-1.175c-0.201-0.151-0.582-0.062-1.143,0.269c-0.378,0.224-0.674,0.513-0.887,0.868
					C470.94,121.371,470.766,121.876,470.633,122.531z M473.469,123.526c-0.273,0.301-0.705,0.724-1.297,1.267
					s-0.979,0.962-1.161,1.257c-0.279,0.468-0.419,0.937-0.421,1.405c-0.002,0.461,0.107,0.794,0.328,0.999s0.503,0.207,0.847,0.004
					c0.384-0.226,0.75-0.637,1.1-1.233c0.259-0.448,0.429-0.911,0.512-1.389c0.057-0.313,0.086-0.865,0.09-1.654L473.469,123.526z"
					/>
				<path fill="#004B91" d="M477.634,127.037l0.05-12.445l2.128-1.253l-0.05,12.445L477.634,127.037z M477.69,112.904l0.013-3.047
					l2.128-1.253l-0.012,3.047L477.69,112.904z"/>
				<path fill="#004B91" d="M489.259,120.19l-2.128,1.253l0.025-6.352c0.006-1.344-0.036-2.186-0.125-2.527
					s-0.236-0.561-0.439-0.659c-0.204-0.099-0.449-0.063-0.737,0.106c-0.369,0.217-0.7,0.568-0.994,1.053
					c-0.294,0.485-0.497,1.018-0.607,1.597c-0.11,0.58-0.168,1.565-0.174,2.956l-0.023,5.637l-2.128,1.253l0.05-12.445l1.977-1.164
					l-0.008,1.828c0.708-1.819,1.594-3.043,2.659-3.67c0.47-0.277,0.898-0.398,1.286-0.366s0.68,0.193,0.878,0.482
					c0.198,0.289,0.335,0.668,0.411,1.138c0.076,0.469,0.112,1.185,0.108,2.146L489.259,120.19z"/>
			</g>
		</g>
		<g>
			<g>
				<path fill="#004B91" d="M96.613,323.626l0.069-17.18l7.611-4.482l-0.012,2.906l-5.37,3.162l-0.016,4.066l4.635-2.729
					l-0.012,2.906l-4.635,2.729l-0.029,7.301L96.613,323.626z"/>
				<path fill="#004B91" d="M106.057,318.064l0.05-12.445l2.128-1.253l-0.05,12.445L106.057,318.064z M106.114,303.932l0.012-3.047
					l2.128-1.253l-0.012,3.047L106.114,303.932z"/>
				<path fill="#004B91" d="M117.682,311.218l-2.128,1.253l0.025-6.352c0.005-1.344-0.037-2.187-0.126-2.527
					c-0.089-0.341-0.236-0.561-0.439-0.659c-0.204-0.098-0.449-0.063-0.737,0.107c-0.369,0.217-0.7,0.568-0.994,1.053
					c-0.294,0.485-0.496,1.017-0.607,1.597c-0.11,0.579-0.169,1.564-0.174,2.955l-0.022,5.637l-2.128,1.253l0.05-12.445l1.977-1.164
					l-0.007,1.828c0.707-1.82,1.594-3.043,2.659-3.67c0.469-0.276,0.898-0.398,1.286-0.366c0.388,0.033,0.681,0.194,0.878,0.482
					s0.335,0.668,0.411,1.137c0.076,0.47,0.112,1.185,0.108,2.146L117.682,311.218z"/>
				<path fill="#004B91" d="M121.466,300.362l-1.929,0.598c0.222-1.331,0.599-2.442,1.132-3.332c0.533-0.89,1.322-1.643,2.367-2.259
					c0.949-0.559,1.655-0.801,2.118-0.727c0.463,0.074,0.788,0.323,0.976,0.746c0.187,0.424,0.278,1.351,0.272,2.78l-0.038,3.857
					c-0.004,1.094,0.026,1.88,0.093,2.359c0.066,0.479,0.191,0.961,0.376,1.445l-2.105,1.24c-0.055-0.186-0.122-0.47-0.2-0.852
					c-0.035-0.174-0.059-0.289-0.074-0.342c-0.366,0.761-0.756,1.4-1.171,1.917s-0.857,0.914-1.327,1.191
					c-0.828,0.487-1.479,0.524-1.954,0.109c-0.474-0.414-0.709-1.152-0.705-2.215c0.003-0.703,0.114-1.394,0.333-2.073
					c0.219-0.679,0.525-1.28,0.918-1.803c0.392-0.523,0.958-1.111,1.696-1.764c0.996-0.875,1.686-1.55,2.071-2.026l0.001-0.328
					c0.003-0.633-0.096-1.024-0.297-1.175c-0.201-0.15-0.582-0.061-1.142,0.27c-0.379,0.223-0.675,0.512-0.887,0.867
					C121.773,299.201,121.599,299.707,121.466,300.362z M124.303,301.357c-0.273,0.301-0.706,0.723-1.297,1.267
					s-0.979,0.962-1.161,1.256c-0.279,0.469-0.419,0.937-0.421,1.406c-0.002,0.461,0.108,0.794,0.328,0.999
					c0.221,0.205,0.503,0.207,0.846,0.004c0.384-0.226,0.75-0.637,1.101-1.232c0.259-0.449,0.429-0.912,0.512-1.389
					c0.056-0.314,0.086-0.866,0.09-1.655L124.303,301.357z"/>
				<path fill="#004B91" d="M135.783,300.559l-2.128,1.253l0.025-6.352c0.005-1.344-0.037-2.186-0.126-2.527
					c-0.089-0.341-0.236-0.561-0.439-0.659c-0.204-0.099-0.449-0.063-0.737,0.106c-0.369,0.217-0.7,0.568-0.994,1.053
					c-0.294,0.485-0.496,1.017-0.607,1.597c-0.11,0.58-0.169,1.565-0.174,2.956l-0.022,5.637l-2.128,1.253l0.05-12.445l1.977-1.164
					l-0.007,1.828c0.707-1.819,1.594-3.043,2.659-3.67c0.469-0.277,0.898-0.398,1.286-0.366c0.388,0.033,0.68,0.194,0.878,0.482
					c0.198,0.289,0.335,0.668,0.411,1.138c0.076,0.47,0.112,1.185,0.108,2.146L135.783,300.559z"/>
				<path fill="#004B91" d="M144.989,286.392l-2.1,1.821c-0.068-0.607-0.227-1-0.475-1.182c-0.249-0.181-0.573-0.154-0.971,0.081
					c-0.53,0.312-0.954,0.844-1.272,1.597c-0.318,0.752-0.479,1.792-0.485,3.121c-0.006,1.477,0.15,2.425,0.469,2.846
					c0.318,0.42,0.747,0.472,1.288,0.153c0.404-0.237,0.735-0.61,0.994-1.117c0.259-0.507,0.443-1.226,0.553-2.155l2.088-0.68
					c-0.223,1.612-0.644,2.979-1.263,4.099c-0.619,1.121-1.446,1.986-2.481,2.595c-1.176,0.693-2.112,0.671-2.807-0.066
					c-0.695-0.736-1.038-2.12-1.03-4.151c0.008-2.055,0.365-3.861,1.072-5.419s1.658-2.689,2.854-3.394
					c0.979-0.577,1.757-0.709,2.332-0.397C144.331,284.455,144.742,285.205,144.989,286.392z"/>
				<path fill="#004B91" d="M146.567,294.208l0.05-12.445l2.128-1.253l-0.05,12.445L146.567,294.208z M146.624,280.075l0.012-3.047
					l2.128-1.253l-0.012,3.047L146.624,280.075z"/>
				<path fill="#004B91" d="M152.502,282.085l-1.929,0.598c0.222-1.331,0.599-2.441,1.132-3.332
					c0.533-0.891,1.322-1.644,2.367-2.259c0.949-0.56,1.655-0.802,2.118-0.728c0.463,0.074,0.788,0.323,0.976,0.747
					c0.187,0.424,0.278,1.35,0.272,2.78l-0.038,3.857c-0.004,1.094,0.026,1.88,0.093,2.359c0.066,0.479,0.191,0.961,0.376,1.445
					l-2.105,1.239c-0.055-0.186-0.122-0.47-0.2-0.852c-0.035-0.175-0.059-0.289-0.074-0.343c-0.366,0.761-0.756,1.4-1.171,1.918
					c-0.415,0.517-0.858,0.914-1.327,1.19c-0.828,0.487-1.479,0.524-1.954,0.11s-0.709-1.153-0.705-2.215
					c0.003-0.703,0.114-1.394,0.333-2.072c0.219-0.679,0.525-1.28,0.918-1.804c0.392-0.523,0.958-1.111,1.696-1.764
					c0.996-0.875,1.686-1.55,2.071-2.026l0.001-0.328c0.003-0.633-0.096-1.024-0.297-1.175s-0.582-0.061-1.142,0.269
					c-0.379,0.223-0.674,0.512-0.887,0.868C152.808,280.924,152.635,281.43,152.502,282.085z M155.338,283.08
					c-0.273,0.301-0.706,0.723-1.297,1.267c-0.592,0.543-0.979,0.962-1.161,1.256c-0.279,0.468-0.419,0.937-0.421,1.406
					c-0.002,0.461,0.108,0.794,0.328,0.999c0.221,0.205,0.503,0.206,0.846,0.004c0.384-0.226,0.75-0.637,1.101-1.232
					c0.259-0.448,0.429-0.911,0.512-1.389c0.057-0.314,0.086-0.865,0.09-1.654L155.338,283.08z"/>
				<path fill="#004B91" d="M159.503,286.59l0.069-17.18l2.128-1.253l-0.069,17.18L159.503,286.59z"/>
				<path fill="#004B91" d="M116.894,326.88l-2.1,1.821c-0.068-0.607-0.227-1-0.475-1.182c-0.249-0.181-0.573-0.154-0.971,0.081
					c-0.53,0.312-0.954,0.844-1.272,1.596c-0.318,0.753-0.479,1.793-0.485,3.121c-0.006,1.477,0.15,2.425,0.469,2.846
					c0.318,0.42,0.747,0.472,1.288,0.153c0.404-0.238,0.735-0.61,0.994-1.117c0.259-0.507,0.443-1.226,0.552-2.155l2.088-0.68
					c-0.223,1.612-0.644,2.979-1.263,4.099c-0.619,1.121-1.446,1.985-2.481,2.595c-1.177,0.693-2.112,0.671-2.807-0.066
					c-0.695-0.736-1.038-2.12-1.03-4.151c0.008-2.055,0.365-3.861,1.072-5.419s1.658-2.689,2.854-3.394
					c0.979-0.577,1.757-0.71,2.332-0.397C116.236,324.943,116.647,325.693,116.894,326.88z"/>
				<path fill="#004B91" d="M120.662,316.268l-0.025,6.316c0.692-1.646,1.515-2.751,2.469-3.313c0.49-0.289,0.931-0.408,1.324-0.359
					c0.393,0.05,0.688,0.234,0.886,0.555c0.198,0.32,0.332,0.724,0.403,1.212s0.104,1.291,0.1,2.408l-0.029,7.301l-2.128,1.253
					l0.026-6.574c0.005-1.305-0.032-2.109-0.111-2.413c-0.079-0.304-0.221-0.499-0.424-0.586c-0.204-0.086-0.459-0.039-0.768,0.143
					c-0.353,0.208-0.669,0.526-0.948,0.956c-0.279,0.429-0.483,0.949-0.615,1.56c-0.131,0.611-0.198,1.44-0.203,2.487l-0.025,6.234
					l-2.128,1.253l0.069-17.179L120.662,316.268z"/>
				<path fill="#004B91" d="M129.572,319.531l-1.929,0.599c0.222-1.331,0.599-2.442,1.132-3.332
					c0.532-0.891,1.321-1.644,2.366-2.259c0.949-0.559,1.656-0.802,2.119-0.728c0.463,0.074,0.788,0.323,0.975,0.747
					c0.187,0.423,0.278,1.35,0.272,2.78l-0.038,3.857c-0.004,1.094,0.026,1.88,0.093,2.36c0.066,0.479,0.191,0.961,0.375,1.445
					l-2.105,1.24c-0.055-0.186-0.122-0.47-0.201-0.852c-0.034-0.175-0.059-0.289-0.074-0.342c-0.366,0.761-0.756,1.4-1.171,1.917
					c-0.415,0.517-0.857,0.914-1.327,1.19c-0.828,0.488-1.479,0.524-1.954,0.11c-0.474-0.415-0.709-1.153-0.705-2.216
					c0.003-0.703,0.114-1.394,0.333-2.072c0.219-0.679,0.525-1.28,0.918-1.803c0.392-0.523,0.958-1.112,1.696-1.764
					c0.996-0.875,1.686-1.551,2.071-2.026l0.001-0.328c0.003-0.633-0.096-1.024-0.297-1.175c-0.201-0.151-0.582-0.062-1.142,0.269
					c-0.379,0.224-0.674,0.513-0.887,0.868C129.879,318.371,129.705,318.876,129.572,319.531z M132.408,320.526
					c-0.273,0.301-0.706,0.724-1.297,1.267s-0.979,0.962-1.161,1.257c-0.279,0.468-0.419,0.937-0.421,1.405
					c-0.002,0.461,0.108,0.794,0.328,0.999s0.503,0.207,0.846,0.004c0.384-0.226,0.75-0.637,1.1-1.233
					c0.259-0.448,0.429-0.911,0.512-1.389c0.057-0.313,0.087-0.865,0.09-1.654L132.408,320.526z"/>
				<path fill="#004B91" d="M136.573,324.037l0.05-12.445l2.128-1.253l-0.05,12.445L136.573,324.037z M136.629,309.904l0.012-3.047
					l2.128-1.253l-0.012,3.047L136.629,309.904z"/>
				<path fill="#004B91" d="M148.198,317.19l-2.128,1.253l0.026-6.352c0.005-1.344-0.037-2.186-0.126-2.527
					c-0.089-0.341-0.236-0.561-0.439-0.659c-0.204-0.099-0.449-0.063-0.737,0.106c-0.369,0.217-0.7,0.568-0.994,1.053
					c-0.294,0.485-0.496,1.018-0.607,1.597c-0.111,0.58-0.169,1.565-0.174,2.956l-0.023,5.637l-2.128,1.253l0.05-12.445l1.977-1.164
					l-0.007,1.828c0.707-1.819,1.594-3.043,2.659-3.67c0.469-0.277,0.898-0.398,1.286-0.366c0.388,0.033,0.68,0.193,0.878,0.482
					c0.198,0.289,0.335,0.668,0.411,1.138c0.076,0.469,0.112,1.185,0.108,2.146L148.198,317.19z"/>
			</g>
		</g>
		<g>
			<g>
				<path fill="#004B91" d="M292.375,362.843l-1.929,0.599c0.222-1.331,0.599-2.442,1.131-3.332
					c0.533-0.891,1.321-1.644,2.367-2.259c0.949-0.559,1.655-0.802,2.119-0.728c0.463,0.074,0.788,0.323,0.975,0.747
					c0.187,0.423,0.278,1.35,0.272,2.78l-0.038,3.857c-0.004,1.094,0.026,1.88,0.093,2.36c0.066,0.479,0.191,0.961,0.376,1.445
					l-2.105,1.24c-0.055-0.186-0.122-0.47-0.201-0.852c-0.035-0.175-0.059-0.289-0.074-0.342c-0.366,0.761-0.757,1.4-1.172,1.917
					c-0.415,0.517-0.857,0.914-1.327,1.19c-0.828,0.487-1.479,0.524-1.954,0.11c-0.475-0.415-0.709-1.153-0.705-2.215
					c0.003-0.703,0.114-1.394,0.333-2.072c0.22-0.679,0.525-1.28,0.918-1.803c0.392-0.523,0.958-1.112,1.695-1.764
					c0.996-0.875,1.686-1.551,2.071-2.026l0.001-0.328c0.002-0.633-0.097-1.024-0.298-1.175c-0.2-0.15-0.581-0.061-1.142,0.269
					c-0.379,0.223-0.675,0.513-0.888,0.868C292.681,361.683,292.509,362.188,292.375,362.843z M295.212,363.838
					c-0.273,0.301-0.706,0.724-1.297,1.267c-0.592,0.543-0.979,0.962-1.161,1.257c-0.279,0.468-0.42,0.937-0.421,1.405
					c-0.002,0.461,0.107,0.794,0.329,0.999c0.221,0.205,0.503,0.207,0.846,0.004c0.383-0.226,0.75-0.637,1.1-1.233
					c0.259-0.448,0.43-0.911,0.512-1.389c0.057-0.313,0.087-0.865,0.09-1.654L295.212,363.838z"/>
				<path fill="#004B91" d="M306.752,363.004l-1.977,1.164l0.008-1.828c-0.331,0.904-0.721,1.662-1.169,2.272
					c-0.448,0.611-0.899,1.05-1.354,1.317c-0.924,0.544-1.713,0.435-2.368-0.33c-0.654-0.764-0.977-2.178-0.969-4.24
					c0.009-2.109,0.335-3.901,0.981-5.377c0.646-1.475,1.458-2.501,2.438-3.078c0.898-0.529,1.674-0.409,2.326,0.361l0.025-6.188
					l2.128-1.253L306.752,363.004z M301.098,359.857c-0.006,1.328,0.109,2.22,0.344,2.674c0.34,0.657,0.818,0.804,1.434,0.441
					c0.49-0.289,0.908-0.856,1.253-1.703c0.346-0.847,0.521-1.91,0.527-3.191c0.005-1.43-0.157-2.361-0.488-2.794
					c-0.331-0.433-0.756-0.496-1.276-0.189c-0.505,0.297-0.929,0.857-1.272,1.679C301.277,357.595,301.103,358.623,301.098,359.857z
					"/>
				<path fill="#004B91" d="M291.536,387.164l-2.1,1.821c-0.068-0.606-0.227-1.001-0.476-1.182
					c-0.248-0.181-0.572-0.154-0.971,0.081c-0.53,0.312-0.954,0.844-1.272,1.597c-0.318,0.752-0.479,1.792-0.485,3.12
					c-0.006,1.477,0.15,2.425,0.468,2.846c0.318,0.42,0.748,0.472,1.288,0.153c0.404-0.238,0.735-0.61,0.994-1.117
					c0.259-0.507,0.443-1.226,0.553-2.155l2.088-0.68c-0.223,1.612-0.644,2.979-1.263,4.099c-0.619,1.121-1.446,1.985-2.481,2.595
					c-1.176,0.693-2.111,0.671-2.806-0.066c-0.695-0.736-1.038-2.12-1.03-4.151c0.008-2.055,0.365-3.861,1.072-5.418
					c0.707-1.558,1.658-2.689,2.854-3.394c0.979-0.577,1.757-0.709,2.333-0.397C290.878,385.227,291.289,385.976,291.536,387.164z"
					/>
				<path fill="#004B91" d="M295.303,376.551l-0.025,6.316c0.692-1.647,1.515-2.751,2.469-3.313c0.49-0.288,0.932-0.408,1.324-0.358
					c0.393,0.049,0.688,0.234,0.885,0.554c0.198,0.32,0.332,0.725,0.403,1.213c0.071,0.488,0.104,1.291,0.1,2.407l-0.029,7.301
					l-2.128,1.253l0.026-6.574c0.005-1.304-0.032-2.108-0.111-2.412c-0.08-0.304-0.221-0.5-0.425-0.586
					c-0.204-0.087-0.459-0.039-0.768,0.142c-0.354,0.208-0.67,0.527-0.948,0.956c-0.278,0.43-0.483,0.949-0.614,1.561
					c-0.131,0.611-0.198,1.439-0.203,2.486l-0.024,6.234l-2.128,1.253l0.069-17.179L295.303,376.551z"/>
				<path fill="#004B91" d="M304.214,379.815l-1.929,0.598c0.222-1.331,0.599-2.441,1.131-3.332c0.532-0.89,1.321-1.643,2.366-2.259
					c0.949-0.559,1.655-0.801,2.119-0.727c0.463,0.074,0.788,0.323,0.976,0.746c0.187,0.424,0.277,1.351,0.271,2.78l-0.038,3.856
					c-0.004,1.094,0.027,1.881,0.093,2.36c0.066,0.479,0.191,0.961,0.376,1.445l-2.105,1.24c-0.055-0.186-0.122-0.47-0.201-0.852
					c-0.035-0.175-0.059-0.289-0.074-0.342c-0.366,0.761-0.756,1.4-1.171,1.917c-0.415,0.517-0.857,0.914-1.327,1.19
					c-0.828,0.488-1.479,0.524-1.953,0.11c-0.475-0.415-0.709-1.153-0.705-2.216c0.003-0.703,0.114-1.394,0.333-2.072
					c0.22-0.679,0.525-1.28,0.918-1.803s0.958-1.112,1.695-1.764c0.996-0.875,1.687-1.55,2.071-2.026l0.001-0.328
					c0.003-0.633-0.097-1.024-0.297-1.175c-0.201-0.15-0.582-0.061-1.142,0.27c-0.378,0.223-0.674,0.512-0.888,0.867
					C304.52,378.654,304.347,379.159,304.214,379.815z M307.051,380.809c-0.273,0.301-0.706,0.724-1.297,1.267
					c-0.592,0.543-0.979,0.962-1.161,1.257c-0.279,0.468-0.419,0.937-0.421,1.405c-0.001,0.461,0.108,0.794,0.329,0.999
					s0.503,0.207,0.846,0.004c0.384-0.226,0.751-0.637,1.101-1.233c0.259-0.448,0.43-0.911,0.512-1.389
					c0.057-0.313,0.087-0.865,0.09-1.654L307.051,380.809z"/>
				<path fill="#004B91" d="M311.215,384.319l0.05-12.445l2.128-1.253l-0.05,12.445L311.215,384.319z M311.271,370.187l0.012-3.047
					l2.128-1.253l-0.013,3.047L311.271,370.187z"/>
				<path fill="#004B91" d="M322.84,377.473l-2.128,1.253l0.025-6.352c0.005-1.343-0.036-2.186-0.126-2.526
					c-0.089-0.341-0.235-0.561-0.439-0.659c-0.203-0.098-0.449-0.063-0.737,0.107c-0.369,0.217-0.7,0.568-0.994,1.053
					c-0.294,0.485-0.497,1.017-0.607,1.597c-0.11,0.579-0.169,1.564-0.174,2.955l-0.023,5.637l-2.128,1.253l0.05-12.445l1.977-1.164
					l-0.007,1.828c0.707-1.82,1.594-3.043,2.659-3.67c0.469-0.276,0.898-0.398,1.286-0.366c0.387,0.033,0.68,0.194,0.878,0.482
					c0.197,0.289,0.335,0.668,0.411,1.137c0.076,0.47,0.112,1.185,0.108,2.146L322.84,377.473z"/>
			</g>
		</g>
		<g>
			<g>
				<path fill="#004B91" d="M503.48,382.768l-2.438,1.436l-0.954-3.331l-4.438,2.613l-0.933,4.442l-2.378,1.4l4.394-19.727
					l2.37-1.396L503.48,382.768z M499.38,378.402l-1.504-5.474l-1.525,7.258L499.38,378.402z"/>
				<path fill="#004B91" d="M504.601,382.108l0.068-17.18l2.242-1.32l-0.069,17.18L504.601,382.108z"/>
				<path fill="#004B91" d="M487.905,407.138l-2.1,1.821c-0.068-0.607-0.227-1-0.475-1.182s-0.573-0.154-0.971,0.081
					c-0.53,0.312-0.954,0.844-1.272,1.596c-0.318,0.753-0.479,1.793-0.485,3.121c-0.006,1.477,0.15,2.425,0.469,2.846
					c0.318,0.42,0.747,0.472,1.287,0.153c0.404-0.238,0.735-0.61,0.995-1.117c0.258-0.507,0.443-1.226,0.552-2.155l2.088-0.68
					c-0.223,1.612-0.644,2.979-1.263,4.099s-1.446,1.985-2.481,2.595c-1.176,0.693-2.112,0.671-2.807-0.066
					c-0.694-0.736-1.038-2.12-1.029-4.151c0.008-2.055,0.365-3.861,1.072-5.419s1.658-2.689,2.854-3.394
					c0.979-0.577,1.757-0.71,2.333-0.397C487.247,405.201,487.658,405.951,487.905,407.138z"/>
				<path fill="#004B91" d="M491.673,396.525l-0.025,6.316c0.692-1.646,1.515-2.751,2.469-3.313c0.49-0.289,0.932-0.408,1.324-0.359
					c0.393,0.05,0.688,0.234,0.886,0.555c0.197,0.32,0.332,0.724,0.403,1.212s0.104,1.291,0.1,2.408l-0.029,7.301l-2.128,1.253
					l0.026-6.574c0.005-1.305-0.032-2.109-0.111-2.413c-0.079-0.304-0.221-0.499-0.424-0.586c-0.204-0.086-0.459-0.039-0.768,0.143
					c-0.354,0.208-0.669,0.526-0.948,0.956c-0.279,0.429-0.483,0.949-0.614,1.56s-0.199,1.44-0.203,2.487l-0.025,6.234l-2.128,1.253
					l0.069-17.179L491.673,396.525z"/>
				<path fill="#004B91" d="M500.583,399.789l-1.929,0.599c0.222-1.331,0.599-2.442,1.132-3.332
					c0.533-0.891,1.321-1.644,2.366-2.259c0.949-0.559,1.656-0.802,2.119-0.728s0.788,0.323,0.976,0.747
					c0.187,0.423,0.277,1.35,0.272,2.78l-0.038,3.857c-0.004,1.094,0.026,1.88,0.092,2.36c0.066,0.479,0.191,0.961,0.376,1.445
					l-2.105,1.24c-0.055-0.186-0.122-0.47-0.201-0.852c-0.035-0.175-0.059-0.289-0.074-0.342c-0.366,0.761-0.757,1.4-1.172,1.917
					c-0.415,0.517-0.857,0.914-1.327,1.19c-0.828,0.488-1.479,0.524-1.954,0.11c-0.475-0.415-0.709-1.153-0.705-2.216
					c0.003-0.703,0.114-1.394,0.333-2.072c0.22-0.679,0.525-1.28,0.918-1.803s0.958-1.112,1.695-1.764
					c0.996-0.875,1.687-1.551,2.071-2.026l0.001-0.328c0.003-0.633-0.097-1.024-0.297-1.175c-0.201-0.151-0.582-0.062-1.142,0.269
					c-0.379,0.224-0.674,0.513-0.888,0.868C500.89,398.628,500.717,399.134,500.583,399.789z M503.42,400.784
					c-0.273,0.301-0.706,0.724-1.297,1.267c-0.592,0.543-0.979,0.962-1.161,1.257c-0.279,0.468-0.419,0.937-0.421,1.405
					c-0.002,0.461,0.107,0.794,0.328,0.999s0.503,0.207,0.846,0.004c0.384-0.226,0.75-0.637,1.1-1.233
					c0.259-0.448,0.43-0.911,0.512-1.389c0.057-0.313,0.087-0.865,0.09-1.654L503.42,400.784z"/>
				<path fill="#004B91" d="M507.584,404.294l0.05-12.445l2.128-1.253l-0.05,12.445L507.584,404.294z M507.64,390.162l0.013-3.047
					l2.128-1.253l-0.013,3.047L507.64,390.162z"/>
				<path fill="#004B91" d="M519.209,397.448l-2.128,1.253l0.025-6.352c0.005-1.344-0.037-2.186-0.126-2.527
					c-0.089-0.341-0.235-0.561-0.439-0.659c-0.203-0.099-0.449-0.063-0.737,0.106c-0.369,0.217-0.7,0.568-0.994,1.053
					c-0.294,0.485-0.497,1.018-0.607,1.597c-0.111,0.58-0.169,1.565-0.174,2.956l-0.023,5.637l-2.128,1.253l0.05-12.445l1.977-1.164
					l-0.007,1.828c0.707-1.819,1.594-3.043,2.659-3.67c0.469-0.277,0.898-0.398,1.286-0.366c0.388,0.033,0.68,0.193,0.878,0.482
					c0.198,0.289,0.335,0.668,0.411,1.138c0.076,0.469,0.112,1.185,0.108,2.146L519.209,397.448z"/>
			</g>
		</g>
		<g>
			<g>
				<path fill="#004B91" d="M635.441,303.165l0.069-17.18l8.232-4.848l-0.012,2.906l-5.99,3.528l-0.016,3.809l5.574-3.283
					l-0.012,2.895l-5.574,3.283l-0.019,4.676l6.203-3.653l-0.012,2.895L635.441,303.165z"/>
				<path fill="#004B91" d="M644.749,297.683l2.926-8.119l-2.755-4.398l2.598-1.53l1.41,2.583l1.514-4.305l2.499-1.472l-2.75,7.5
					l2.95,4.798l-2.613,1.539l-1.62-2.893l-1.667,4.828L644.749,297.683z"/>
				<path fill="#004B91" d="M661.445,279.105l-2.1,1.821c-0.068-0.606-0.227-1.001-0.476-1.182
					c-0.249-0.181-0.572-0.154-0.971,0.081c-0.53,0.313-0.955,0.845-1.272,1.597c-0.317,0.752-0.479,1.792-0.484,3.12
					c-0.006,1.477,0.15,2.426,0.468,2.846c0.318,0.421,0.748,0.472,1.288,0.154c0.404-0.238,0.735-0.61,0.994-1.118
					s0.443-1.226,0.553-2.155l2.088-0.68c-0.223,1.612-0.644,2.979-1.263,4.1c-0.619,1.12-1.446,1.985-2.481,2.595
					c-1.176,0.693-2.112,0.671-2.807-0.065c-0.694-0.737-1.038-2.121-1.029-4.152c0.008-2.055,0.365-3.86,1.071-5.418
					c0.707-1.558,1.658-2.689,2.855-3.394c0.979-0.577,1.757-0.709,2.332-0.397C660.787,277.169,661.198,277.918,661.445,279.105z"
					/>
				<path fill="#004B91" d="M665.213,268.493l-0.025,6.316c0.691-1.647,1.515-2.751,2.469-3.313c0.49-0.288,0.931-0.408,1.324-0.358
					c0.393,0.049,0.688,0.234,0.885,0.554c0.198,0.32,0.332,0.725,0.403,1.213c0.071,0.488,0.104,1.291,0.1,2.408l-0.029,7.301
					l-2.128,1.253l0.026-6.574c0.005-1.305-0.032-2.109-0.112-2.413c-0.079-0.304-0.221-0.5-0.424-0.586
					c-0.204-0.087-0.46-0.039-0.768,0.142c-0.354,0.208-0.67,0.527-0.948,0.956c-0.279,0.43-0.483,0.949-0.614,1.561
					c-0.131,0.611-0.199,1.44-0.203,2.487l-0.025,6.234l-2.128,1.253l0.069-17.18L665.213,268.493z"/>
				<path fill="#004B91" d="M674.123,271.757l-1.93,0.598c0.223-1.331,0.6-2.441,1.132-3.332c0.533-0.89,1.321-1.643,2.367-2.259
					c0.949-0.559,1.655-0.801,2.119-0.727c0.463,0.074,0.788,0.323,0.975,0.746c0.187,0.424,0.278,1.351,0.272,2.78l-0.038,3.857
					c-0.004,1.094,0.026,1.88,0.093,2.359c0.066,0.479,0.191,0.961,0.376,1.445l-2.105,1.24c-0.055-0.186-0.122-0.47-0.201-0.852
					c-0.035-0.174-0.059-0.289-0.074-0.342c-0.366,0.761-0.756,1.4-1.171,1.917s-0.857,0.914-1.327,1.19
					c-0.828,0.488-1.479,0.524-1.953,0.11c-0.475-0.414-0.709-1.152-0.705-2.215c0.003-0.703,0.114-1.395,0.333-2.073
					c0.219-0.679,0.525-1.28,0.918-1.803c0.392-0.523,0.957-1.111,1.695-1.765c0.996-0.875,1.687-1.55,2.071-2.026l0.001-0.328
					c0.002-0.633-0.097-1.024-0.297-1.175c-0.201-0.15-0.582-0.061-1.142,0.27c-0.379,0.223-0.675,0.512-0.888,0.867
					S674.256,271.101,674.123,271.757z M676.96,272.751c-0.273,0.301-0.706,0.723-1.297,1.267c-0.591,0.543-0.979,0.962-1.161,1.256
					c-0.279,0.469-0.419,0.937-0.421,1.406c-0.002,0.461,0.108,0.794,0.329,0.999s0.503,0.207,0.846,0.004
					c0.384-0.226,0.751-0.637,1.101-1.232c0.259-0.449,0.429-0.912,0.512-1.389c0.057-0.314,0.087-0.866,0.09-1.655L676.96,272.751z
					"/>
				<path fill="#004B91" d="M688.44,271.953l-2.128,1.253l0.025-6.352c0.006-1.344-0.036-2.186-0.126-2.527
					c-0.089-0.341-0.235-0.561-0.439-0.659c-0.204-0.099-0.45-0.063-0.737,0.106c-0.369,0.217-0.7,0.568-0.994,1.053
					c-0.294,0.485-0.497,1.017-0.607,1.597c-0.11,0.58-0.169,1.565-0.174,2.956l-0.022,5.637l-2.128,1.253l0.05-12.445l1.977-1.164
					l-0.007,1.828c0.708-1.819,1.594-3.043,2.659-3.67c0.47-0.276,0.898-0.398,1.286-0.366c0.388,0.033,0.68,0.194,0.878,0.482
					c0.198,0.289,0.335,0.668,0.411,1.138s0.112,1.185,0.108,2.146L688.44,271.953z"/>
				<path fill="#004B91" d="M690.398,271.618l2.429-0.975c0.039,0.414,0.131,0.66,0.276,0.737c0.201,0.116,0.519,0.046,0.953-0.21
					c0.556-0.327,0.973-0.701,1.251-1.123c0.188-0.281,0.33-0.642,0.428-1.082c0.066-0.312,0.102-0.835,0.104-1.57l0.007-1.816
					c-0.642,1.719-1.447,2.863-2.417,3.434c-1.08,0.636-1.934,0.433-2.559-0.609c-0.49-0.826-0.732-2.071-0.725-3.735
					c0.008-2.086,0.339-3.87,0.992-5.354s1.462-2.509,2.426-3.078c0.995-0.585,1.812-0.393,2.453,0.578l0.007-1.746l1.991-1.173
					l-0.044,11.168c-0.006,1.469-0.088,2.612-0.248,3.431s-0.381,1.518-0.666,2.099c-0.284,0.58-0.663,1.127-1.137,1.639
					c-0.473,0.512-1.07,0.981-1.792,1.406c-1.363,0.803-2.329,1.011-2.896,0.625c-0.567-0.387-0.849-1.135-0.845-2.244
					C690.389,271.912,690.392,271.777,690.398,271.618z M692.328,263.198c-0.005,1.32,0.156,2.189,0.484,2.608
					c0.328,0.418,0.734,0.485,1.22,0.199c0.52-0.306,0.96-0.879,1.321-1.719c0.361-0.84,0.544-1.877,0.549-3.112
					c0.005-1.289-0.162-2.145-0.503-2.567c-0.341-0.423-0.774-0.479-1.299-0.17c-0.51,0.3-0.932,0.854-1.265,1.663
					C692.502,260.907,692.333,261.94,692.328,263.198z"/>
				<path fill="#004B91" d="M704.746,258.399l2.118-0.698c-0.277,1.363-0.711,2.533-1.303,3.508
					c-0.59,0.976-1.327,1.724-2.211,2.244c-1.398,0.823-2.431,0.726-3.097-0.293c-0.525-0.82-0.785-2.094-0.778-3.82
					c0.009-2.063,0.363-3.883,1.065-5.461c0.702-1.579,1.585-2.681,2.65-3.309c1.197-0.705,2.139-0.649,2.825,0.166
					c0.687,0.815,1.01,2.494,0.97,5.035l-5.332,3.14c0.012,0.968,0.18,1.627,0.506,1.977c0.326,0.35,0.734,0.38,1.223,0.092
					c0.333-0.196,0.614-0.502,0.843-0.917S704.627,259.092,704.746,258.399z M704.88,254.999c-0.011-0.944-0.167-1.575-0.468-1.893
					c-0.301-0.317-0.669-0.349-1.103-0.093c-0.465,0.273-0.85,0.761-1.154,1.463c-0.305,0.702-0.457,1.5-0.456,2.396L704.88,254.999
					z"/>
				<path fill="#004B91" d="M658.759,304.63l-2.1,1.821c-0.068-0.607-0.227-1-0.475-1.182s-0.573-0.154-0.971,0.081
					c-0.53,0.312-0.954,0.844-1.272,1.596c-0.318,0.753-0.479,1.793-0.485,3.121c-0.006,1.477,0.15,2.425,0.469,2.846
					c0.318,0.42,0.747,0.472,1.287,0.153c0.404-0.238,0.735-0.61,0.995-1.117c0.258-0.507,0.443-1.226,0.552-2.155l2.088-0.68
					c-0.223,1.612-0.644,2.979-1.263,4.099s-1.446,1.985-2.481,2.595c-1.176,0.693-2.112,0.671-2.807-0.066
					c-0.694-0.736-1.038-2.12-1.029-4.151c0.008-2.055,0.365-3.861,1.072-5.419s1.658-2.689,2.854-3.394
					c0.979-0.577,1.757-0.71,2.333-0.397C658.1,302.693,658.511,303.443,658.759,304.63z"/>
				<path fill="#004B91" d="M662.526,294.018l-0.025,6.316c0.692-1.646,1.515-2.751,2.469-3.313c0.49-0.289,0.932-0.408,1.324-0.359
					c0.393,0.05,0.688,0.234,0.886,0.555c0.197,0.32,0.332,0.724,0.403,1.212s0.104,1.291,0.1,2.408l-0.029,7.301l-2.128,1.253
					l0.026-6.574c0.005-1.305-0.032-2.109-0.111-2.413c-0.079-0.304-0.221-0.499-0.424-0.586c-0.204-0.086-0.459-0.039-0.768,0.143
					c-0.354,0.208-0.669,0.526-0.948,0.956c-0.279,0.429-0.483,0.949-0.614,1.56s-0.199,1.44-0.203,2.487l-0.025,6.234l-2.128,1.253
					l0.069-17.179L662.526,294.018z"/>
				<path fill="#004B91" d="M671.436,297.281l-1.929,0.599c0.222-1.331,0.599-2.442,1.132-3.332
					c0.533-0.891,1.321-1.644,2.366-2.259c0.949-0.559,1.656-0.802,2.119-0.728s0.788,0.323,0.976,0.747
					c0.187,0.423,0.277,1.35,0.272,2.78l-0.038,3.857c-0.004,1.094,0.026,1.88,0.092,2.36c0.066,0.479,0.191,0.961,0.376,1.445
					l-2.105,1.24c-0.055-0.186-0.122-0.47-0.201-0.852c-0.035-0.175-0.059-0.289-0.074-0.342c-0.366,0.761-0.757,1.4-1.172,1.917
					c-0.415,0.517-0.857,0.914-1.327,1.19c-0.828,0.488-1.479,0.524-1.954,0.11c-0.475-0.415-0.709-1.153-0.705-2.216
					c0.003-0.703,0.114-1.394,0.333-2.072c0.22-0.679,0.525-1.28,0.918-1.803s0.958-1.112,1.695-1.764
					c0.996-0.875,1.687-1.551,2.071-2.026l0.001-0.328c0.003-0.633-0.097-1.024-0.297-1.175c-0.201-0.151-0.582-0.062-1.142,0.269
					c-0.379,0.224-0.674,0.513-0.888,0.868C671.743,296.121,671.57,296.626,671.436,297.281z M674.273,298.276
					c-0.273,0.301-0.706,0.724-1.297,1.267c-0.592,0.543-0.979,0.962-1.161,1.257c-0.279,0.468-0.419,0.937-0.421,1.405
					c-0.002,0.461,0.107,0.794,0.328,0.999s0.503,0.207,0.846,0.004c0.384-0.226,0.75-0.637,1.1-1.233
					c0.259-0.448,0.43-0.911,0.512-1.389c0.057-0.313,0.087-0.865,0.09-1.654L674.273,298.276z"/>
				<path fill="#004B91" d="M678.437,301.787l0.05-12.445l2.128-1.253l-0.05,12.445L678.437,301.787z M678.494,287.654l0.013-3.047
					l2.128-1.253l-0.013,3.047L678.494,287.654z"/>
				<path fill="#004B91" d="M690.062,294.94l-2.128,1.253l0.025-6.352c0.005-1.344-0.037-2.186-0.126-2.527
					c-0.089-0.341-0.235-0.561-0.439-0.659c-0.203-0.099-0.449-0.063-0.737,0.106c-0.369,0.217-0.7,0.568-0.994,1.053
					c-0.294,0.485-0.497,1.018-0.607,1.597c-0.111,0.58-0.169,1.565-0.174,2.956l-0.023,5.637l-2.128,1.253l0.05-12.445l1.977-1.164
					l-0.007,1.828c0.707-1.819,1.594-3.043,2.659-3.67c0.469-0.277,0.898-0.398,1.286-0.366c0.388,0.033,0.68,0.193,0.878,0.482
					c0.198,0.289,0.335,0.668,0.411,1.138c0.076,0.469,0.112,1.185,0.108,2.146L690.062,294.94z"/>
			</g>
		</g>
		<g>
			<g>
				<path fill="#004B91" d="M595.701,199.038l2.183-1.613c0.126,1.056,0.39,1.731,0.789,2.025c0.399,0.295,0.939,0.242,1.621-0.159
					c0.722-0.426,1.267-0.982,1.635-1.67c0.368-0.688,0.553-1.349,0.556-1.981c0.002-0.406-0.074-0.707-0.227-0.901
					c-0.153-0.195-0.421-0.284-0.804-0.27c-0.262,0.014-0.859,0.116-1.792,0.307c-1.2,0.247-2.041,0.177-2.522-0.209
					c-0.678-0.544-1.014-1.496-1.009-2.855c0.004-0.875,0.167-1.788,0.491-2.738c0.323-0.951,0.788-1.803,1.393-2.556
					c0.605-0.754,1.334-1.382,2.188-1.885c1.394-0.82,2.44-0.966,3.141-0.435c0.701,0.531,1.065,1.575,1.095,3.131l-2.242,1.473
					c-0.093-0.826-0.296-1.34-0.61-1.541s-0.787-0.116-1.417,0.256c-0.651,0.383-1.162,0.891-1.532,1.521
					c-0.238,0.406-0.358,0.831-0.36,1.276c-0.002,0.406,0.108,0.688,0.329,0.847c0.281,0.201,0.966,0.179,2.055-0.064
					c1.089-0.244,1.894-0.307,2.415-0.189c0.521,0.118,0.928,0.459,1.22,1.024c0.293,0.564,0.437,1.389,0.433,2.475
					c-0.004,0.984-0.185,2.01-0.542,3.078s-0.859,2.001-1.507,2.799c-0.647,0.798-1.454,1.482-2.418,2.05
					c-1.404,0.827-2.479,0.959-3.229,0.398C596.283,202.072,595.84,200.874,595.701,199.038z"/>
				<path fill="#004B91" d="M611.871,195.092l0.007-1.863c-0.295,0.837-0.683,1.587-1.161,2.25s-0.983,1.152-1.513,1.464
					c-0.54,0.318-1.024,0.42-1.452,0.305c-0.428-0.114-0.736-0.447-0.926-0.999c-0.189-0.551-0.281-1.412-0.276-2.584l0.031-7.875
					l2.128-1.253l-0.023,5.719c-0.007,1.75,0.028,2.799,0.104,3.148c0.077,0.348,0.218,0.577,0.424,0.686
					c0.206,0.108,0.469,0.069,0.786-0.118c0.364-0.214,0.69-0.561,0.979-1.039s0.487-0.977,0.595-1.497
					c0.108-0.519,0.165-1.669,0.172-3.451l0.021-5.25l2.128-1.253l-0.05,12.445L611.871,195.092z"/>
				<path fill="#004B91" d="M616.04,180.221l1.984-1.169l-0.007,1.828c0.26-0.776,0.61-1.489,1.051-2.139
					c0.441-0.649,0.929-1.132,1.464-1.447c0.934-0.55,1.724-0.45,2.371,0.299c0.647,0.75,0.966,2.136,0.958,4.159
					c-0.008,2.078-0.343,3.887-1.004,5.426c-0.661,1.539-1.458,2.583-2.392,3.133c-0.444,0.262-0.846,0.362-1.207,0.301
					c-0.36-0.061-0.738-0.306-1.134-0.735l-0.025,6.27l-2.128,1.254L616.04,180.221z M618.121,184.993
					c-0.005,1.398,0.169,2.326,0.525,2.783c0.356,0.457,0.792,0.533,1.306,0.23c0.495-0.292,0.908-0.841,1.238-1.647
					s0.499-1.909,0.504-3.308c0.005-1.305-0.16-2.174-0.496-2.607c-0.336-0.434-0.754-0.503-1.254-0.208
					c-0.52,0.306-0.953,0.871-1.298,1.694C618.302,182.753,618.126,183.774,618.121,184.993z"/>
				<path fill="#004B91" d="M625.514,174.641l1.984-1.168l-0.007,1.828c0.26-0.777,0.61-1.49,1.051-2.139
					c0.44-0.649,0.929-1.131,1.464-1.447c0.934-0.55,1.725-0.45,2.371,0.299c0.647,0.749,0.966,2.136,0.958,4.159
					c-0.008,2.078-0.343,3.887-1.004,5.425s-1.458,2.583-2.393,3.133c-0.444,0.262-0.847,0.362-1.206,0.301
					c-0.36-0.061-0.738-0.306-1.134-0.735l-0.025,6.27l-2.128,1.253L625.514,174.641z M627.595,179.413
					c-0.005,1.398,0.17,2.326,0.525,2.783c0.356,0.457,0.792,0.534,1.307,0.23c0.495-0.291,0.907-0.84,1.238-1.646
					s0.499-1.909,0.504-3.308c0.005-1.305-0.16-2.174-0.496-2.607c-0.335-0.434-0.753-0.503-1.253-0.209
					c-0.52,0.307-0.953,0.871-1.299,1.694S627.6,178.194,627.595,179.413z"/>
				<path fill="#004B91" d="M635,181.471l0.068-17.18l2.128-1.253l-0.069,17.18L635,181.471z"/>
				<path fill="#004B91" d="M638.351,167.082l2.265-1.333l1.888,7.703l1.914-9.942l2.204-1.298l-2.889,13.649l-0.516,2.467
					c-0.19,0.836-0.37,1.496-0.541,1.979c-0.17,0.482-0.366,0.908-0.587,1.275c-0.221,0.368-0.491,0.712-0.813,1.034
					c-0.321,0.321-0.684,0.601-1.087,0.839c-0.409,0.241-0.81,0.411-1.204,0.51l-0.179-2.466c0.333-0.095,0.633-0.221,0.9-0.378
					c0.495-0.291,0.862-0.731,1.101-1.32c0.239-0.589,0.423-1.269,0.552-2.038L638.351,167.082z"/>
				<path fill="#004B91" d="M608.78,212.11l-2.1,1.821c-0.068-0.607-0.227-1-0.475-1.182c-0.249-0.181-0.572-0.154-0.971,0.081
					c-0.53,0.312-0.955,0.844-1.272,1.596c-0.318,0.753-0.479,1.793-0.485,3.121c-0.006,1.477,0.15,2.425,0.468,2.846
					c0.318,0.42,0.748,0.472,1.288,0.153c0.403-0.238,0.735-0.61,0.994-1.117c0.259-0.507,0.443-1.226,0.553-2.155l2.088-0.68
					c-0.224,1.612-0.645,2.979-1.264,4.099c-0.619,1.121-1.445,1.985-2.48,2.595c-1.177,0.693-2.112,0.671-2.807-0.066
					c-0.695-0.736-1.038-2.12-1.03-4.151c0.009-2.055,0.366-3.861,1.072-5.419s1.658-2.689,2.854-3.394
					c0.979-0.577,1.757-0.71,2.332-0.397C608.122,210.173,608.533,210.923,608.78,212.11z"/>
				<path fill="#004B91" d="M612.548,201.498l-0.025,6.316c0.691-1.646,1.515-2.751,2.469-3.313
					c0.489-0.289,0.931-0.408,1.323-0.359c0.393,0.05,0.688,0.234,0.886,0.555c0.198,0.32,0.332,0.724,0.403,1.212
					s0.104,1.291,0.1,2.408l-0.029,7.301l-2.128,1.253l0.026-6.574c0.005-1.305-0.032-2.109-0.111-2.413
					c-0.079-0.304-0.221-0.499-0.424-0.586c-0.204-0.086-0.459-0.039-0.768,0.143c-0.353,0.208-0.669,0.526-0.948,0.956
					c-0.279,0.429-0.483,0.949-0.615,1.56c-0.131,0.611-0.198,1.44-0.202,2.487l-0.025,6.234l-2.128,1.253l0.069-17.179
					L612.548,201.498z"/>
				<path fill="#004B91" d="M621.457,204.761l-1.929,0.599c0.222-1.331,0.6-2.442,1.132-3.332c0.532-0.891,1.321-1.644,2.366-2.259
					c0.949-0.559,1.655-0.802,2.119-0.728c0.463,0.074,0.788,0.323,0.975,0.747c0.188,0.423,0.278,1.35,0.272,2.78l-0.038,3.857
					c-0.004,1.094,0.026,1.88,0.093,2.36c0.065,0.479,0.191,0.961,0.375,1.445l-2.105,1.24c-0.055-0.186-0.122-0.47-0.201-0.852
					c-0.034-0.175-0.059-0.289-0.074-0.342c-0.365,0.761-0.756,1.4-1.171,1.917c-0.415,0.517-0.857,0.914-1.327,1.19
					c-0.828,0.488-1.479,0.524-1.954,0.11c-0.474-0.415-0.709-1.153-0.705-2.216c0.003-0.703,0.114-1.394,0.333-2.072
					c0.219-0.679,0.525-1.28,0.917-1.803c0.392-0.523,0.958-1.112,1.696-1.764c0.996-0.875,1.686-1.551,2.07-2.026l0.001-0.328
					c0.002-0.633-0.096-1.024-0.297-1.175c-0.201-0.151-0.582-0.062-1.142,0.269c-0.378,0.224-0.674,0.513-0.887,0.868
					C621.764,203.601,621.591,204.106,621.457,204.761z M624.294,205.756c-0.273,0.301-0.706,0.724-1.297,1.267
					c-0.591,0.543-0.979,0.962-1.161,1.257c-0.279,0.468-0.419,0.937-0.421,1.405c-0.002,0.461,0.108,0.794,0.329,0.999
					s0.503,0.207,0.846,0.004c0.384-0.226,0.75-0.637,1.101-1.233c0.259-0.448,0.429-0.911,0.512-1.389
					c0.057-0.313,0.086-0.865,0.09-1.654L624.294,205.756z"/>
				<path fill="#004B91" d="M628.458,209.267l0.05-12.445l2.128-1.253l-0.05,12.445L628.458,209.267z M628.515,195.134l0.012-3.047
					l2.128-1.253l-0.012,3.047L628.515,195.134z"/>
				<path fill="#004B91" d="M640.083,202.42l-2.128,1.253l0.026-6.352c0.005-1.344-0.037-2.186-0.125-2.527
					c-0.09-0.341-0.236-0.561-0.439-0.659c-0.204-0.099-0.449-0.063-0.737,0.106c-0.369,0.217-0.7,0.568-0.994,1.053
					c-0.294,0.485-0.496,1.018-0.607,1.597c-0.111,0.58-0.168,1.565-0.174,2.956l-0.022,5.637l-2.128,1.253l0.05-12.445l1.977-1.164
					l-0.007,1.828c0.708-1.819,1.593-3.043,2.659-3.67c0.47-0.277,0.898-0.398,1.286-0.366s0.681,0.193,0.878,0.482
					c0.198,0.289,0.335,0.668,0.411,1.138c0.076,0.469,0.112,1.185,0.108,2.146L640.083,202.42z"/>
			</g>
		</g>
		<g>
			<g>
				<g>
					<path d="M282.187,247.807l13.979-9.952l4.876,2.958l-6.607,8.564l12.431-5.033l4.888,2.965l-13.979,9.952l-3.027-1.836
						l11.004-7.834l-14.208,5.891l-3.137-1.903l7.811-9.771l-11.004,7.834L282.187,247.807z"/>
					<path d="M310.339,255.604l-2.369-2.015c1.294-0.505,2.563-0.692,3.803-0.56c1.241,0.132,2.621,0.659,4.14,1.581
						c1.38,0.837,2.266,1.561,2.659,2.172c0.393,0.611,0.508,1.155,0.348,1.632s-0.822,1.129-1.985,1.958l-3.161,2.207
						c-0.89,0.634-1.497,1.131-1.821,1.492c-0.323,0.361-0.591,0.796-0.803,1.305l-3.061-1.856c0.098-0.176,0.262-0.423,0.494-0.744
						c0.107-0.144,0.176-0.241,0.205-0.291c-0.974-0.003-1.873-0.109-2.697-0.315c-0.825-0.207-1.578-0.517-2.26-0.931
						c-1.204-0.73-1.87-1.506-1.997-2.33c-0.128-0.823,0.241-1.543,1.105-2.158c0.572-0.407,1.24-0.675,2.004-0.803
						c0.763-0.127,1.549-0.104,2.356,0.071c0.807,0.175,1.835,0.524,3.085,1.048c1.681,0.709,2.902,1.161,3.664,1.354l0.267-0.19
						c0.515-0.366,0.735-0.717,0.661-1.051c-0.074-0.334-0.519-0.749-1.333-1.243c-0.551-0.333-1.074-0.527-1.57-0.581
						C311.579,255.301,311.001,255.384,310.339,255.604z M312.304,259.662c-0.511-0.159-1.275-0.442-2.293-0.85
						c-1.018-0.407-1.734-0.637-2.151-0.688c-0.652-0.068-1.168,0.033-1.549,0.305c-0.375,0.267-0.539,0.596-0.488,0.986
						c0.049,0.39,0.324,0.737,0.823,1.04c0.558,0.338,1.249,0.548,2.073,0.629c0.616,0.055,1.157-0.006,1.625-0.184
						c0.31-0.114,0.785-0.399,1.427-0.857L312.304,259.662z"/>
					<path d="M313.529,266.816l10.126-7.209l3.094,1.876l-10.126,7.209L313.529,266.816z M325.029,258.629l2.479-1.765l3.094,1.876
						l-2.479,1.765L325.029,258.629z"/>
					<path d="M330.428,277.065l-3.094-1.876l5.168-3.679c1.093-0.778,1.734-1.322,1.923-1.631c0.189-0.308,0.224-0.616,0.105-0.923
						c-0.12-0.307-0.389-0.587-0.807-0.841c-0.536-0.325-1.144-0.526-1.824-0.603c-0.68-0.077-1.309-0.015-1.886,0.188
						s-1.432,0.708-2.563,1.513l-4.586,3.266l-3.093-1.876l10.126-7.209l2.874,1.743l-1.487,1.059
						c2.164-0.196,4.021,0.176,5.569,1.115c0.683,0.414,1.2,0.868,1.552,1.362c0.352,0.495,0.507,0.947,0.467,1.358
						c-0.041,0.411-0.214,0.8-0.52,1.168c-0.306,0.368-0.85,0.83-1.631,1.387L330.428,277.065z"/>
					<path d="M357.156,283.872l-3.526-1.51c0.424-0.438,0.589-0.862,0.493-1.273c-0.096-0.41-0.435-0.792-1.014-1.143
						c-0.771-0.467-1.616-0.676-2.536-0.626c-0.919,0.05-1.919,0.459-3,1.229c-1.202,0.855-1.817,1.601-1.847,2.236
						c-0.029,0.636,0.348,1.191,1.133,1.668c0.588,0.356,1.213,0.544,1.876,0.566c0.663,0.021,1.425-0.173,2.285-0.582l2.59,2.162
						c-1.523,0.668-3.042,0.951-4.553,0.847c-1.512-0.104-3.021-0.613-4.524-1.525c-1.711-1.038-2.607-2.197-2.689-3.479
						s0.704-2.511,2.356-3.688c1.672-1.19,3.484-1.808,5.435-1.852c1.951-0.044,3.797,0.461,5.536,1.516
						c1.424,0.864,2.291,1.739,2.601,2.627C358.081,281.933,357.877,282.875,357.156,283.872z"/>
					<path d="M369.43,282.29l-5.14,3.659c2.009-0.114,3.707,0.25,5.094,1.091c0.711,0.432,1.24,0.903,1.583,1.413
						c0.344,0.51,0.482,0.98,0.417,1.409c-0.066,0.43-0.262,0.83-0.588,1.202c-0.326,0.373-0.943,0.882-1.853,1.529l-5.94,4.229
						l-3.094-1.876l5.35-3.808c1.062-0.756,1.677-1.271,1.846-1.546c0.168-0.274,0.188-0.562,0.06-0.862
						c-0.129-0.3-0.417-0.586-0.865-0.857c-0.514-0.312-1.081-0.513-1.7-0.604s-1.241-0.038-1.863,0.158
						c-0.623,0.197-1.36,0.598-2.212,1.205l-5.073,3.611l-3.093-1.876l13.979-9.952L369.43,282.29z"/>
					<path d="M375.49,295.117l-2.368-2.015c1.293-0.505,2.562-0.692,3.803-0.56c1.241,0.133,2.621,0.659,4.141,1.581
						c1.379,0.836,2.266,1.561,2.658,2.171s0.508,1.155,0.348,1.632c-0.16,0.477-0.822,1.129-1.985,1.958l-3.161,2.207
						c-0.89,0.634-1.497,1.131-1.82,1.492c-0.324,0.361-0.592,0.796-0.803,1.305l-3.061-1.856c0.097-0.175,0.262-0.423,0.495-0.744
						c0.107-0.144,0.175-0.241,0.205-0.291c-0.974-0.004-1.873-0.109-2.697-0.315c-0.824-0.207-1.578-0.517-2.261-0.931
						c-1.203-0.73-1.869-1.506-1.996-2.33c-0.128-0.823,0.24-1.542,1.104-2.158c0.572-0.407,1.24-0.675,2.004-0.802
						c0.764-0.128,1.549-0.104,2.356,0.071c0.807,0.175,1.835,0.524,3.085,1.047c1.681,0.709,2.902,1.161,3.663,1.354l0.267-0.19
						c0.515-0.367,0.736-0.717,0.662-1.051c-0.075-0.334-0.52-0.749-1.334-1.243c-0.55-0.333-1.074-0.527-1.569-0.581
						C376.73,294.815,376.151,294.897,375.49,295.117z M377.455,299.175c-0.511-0.159-1.275-0.442-2.292-0.85
						c-1.018-0.408-1.734-0.638-2.152-0.689c-0.651-0.068-1.167,0.033-1.549,0.305c-0.375,0.267-0.539,0.596-0.489,0.986
						c0.049,0.391,0.324,0.737,0.823,1.04c0.558,0.338,1.25,0.548,2.074,0.629c0.615,0.055,1.157-0.006,1.624-0.184
						c0.31-0.114,0.785-0.399,1.427-0.857L377.455,299.175z"/>
					<path d="M378.68,306.33l10.126-7.209l3.094,1.876l-10.126,7.209L378.68,306.33z M390.18,298.143l2.479-1.765l3.094,1.876
						l-2.479,1.765L390.18,298.143z"/>
					<path d="M395.579,316.579l-3.094-1.876l5.168-3.679c1.093-0.778,1.734-1.322,1.923-1.631c0.189-0.309,0.224-0.616,0.105-0.923
						c-0.12-0.307-0.389-0.587-0.807-0.841c-0.536-0.325-1.144-0.526-1.824-0.603c-0.68-0.077-1.309-0.014-1.886,0.189
						s-1.432,0.707-2.563,1.513l-4.586,3.265l-3.093-1.876l10.126-7.209l2.874,1.743l-1.487,1.059
						c2.164-0.196,4.021,0.176,5.569,1.115c0.683,0.414,1.2,0.868,1.552,1.363c0.352,0.494,0.507,0.947,0.467,1.358
						c-0.041,0.411-0.214,0.8-0.52,1.168c-0.307,0.368-0.85,0.83-1.632,1.387L395.579,316.579z"/>
				</g>
			</g>
		</g>
	</g>
</g>
</svg>
