<?xml version="1.0" encoding="utf-8"?>
<!-- Generator: Adobe Illustrator 16.0.0, SVG Export Plug-In . SVG Version: 6.00 Build 0)  -->
<!DOCTYPE svg PUBLIC "-//W3C//DTD SVG 1.1//EN" "http://www.w3.org/Graphics/SVG/1.1/DTD/svg11.dtd">
<svg version="1.1" id="Layer_1" xmlns="http://www.w3.org/2000/svg" xmlns:xlink="http://www.w3.org/1999/xlink" x="0px" y="0px"
	 width="180px" height="180px" viewBox="0 0 180 180" enable-background="new 0 0 180 180" xml:space="preserve">
<g>
	<g>
		<path fill="#404041" d="M16.388,124.971c-0.954-3.046-1.569-5.446-1.6-5.477h-0.062c-0.031,0.031-0.647,2.431-1.631,5.692
			l-2.738,9.233H6.572l-6.74-21.541h3.785l2.924,9.909c1.047,3.416,2.093,6.894,2.123,6.955h0.062
			c0.03-0.061,1.045-3.477,1.785-6.032l2.4-8.216h4.032l2.399,8.248c0.739,2.553,1.724,5.939,1.754,6h0.061
			c0.031-0.061,1.078-3.508,2.062-6.77l3.077-10.094h3.385l-6.739,21.541h-3.631L16.388,124.971z"/>
		<path fill="#404041" d="M36.974,112.878h14.894v3.17H40.359v5.631h8.832v3.169h-8.832v6.401h11.601v3.17H36.974V112.878z"/>
		<path fill="#404041" d="M77.314,126.203c0-3.908,0.062-7.693,0.062-7.724h-0.062c-0.03,0.031-0.923,1.816-2.555,4.708
			l-3.322,5.908h-1.97l-3.323-5.816c-1.693-2.985-2.554-4.77-2.585-4.801h-0.062c0,0.031,0.062,3.816,0.062,7.724v8.216h-3.385
			v-21.541h3.601l6.677,11.939h0.093l6.677-11.939H80.7v21.541h-3.385V126.203z"/>
		<path fill="#404041" d="M89.622,112.878h14.894v3.17H93.006v5.631h8.833v3.169h-8.833v6.401h11.602v3.17H89.622V112.878z"/>
		<path fill="#404041" d="M120.055,126.387c-0.4,0.03-1.263,0.03-1.662,0.03h-2.185v8.001h-3.385v-21.541h7.108
			c5.17,0,8.247,2.616,8.247,6.893c0,3.231-1.754,5.231-4.647,6l5.201,8.647h-4.062L120.055,126.387z M120.208,123.648
			c2.739,0,4.493-1.046,4.493-3.724c0-2.616-1.693-3.938-4.616-3.938h-3.877v7.662H120.208z"/>
		<path fill="#404041" d="M153.565,134.419c0-2.063,0.031-2.339,0.031-2.585h-0.061c-1.109,1.169-3.662,2.984-7.324,2.984
			c-6.093,0-11.048-4.462-11.048-11.201c0-6.708,4.771-11.17,11.14-11.17c4.923,0,8.493,2.708,9.848,6l-3.324,0.893
			c-0.738-1.354-2.646-3.693-6.646-3.693c-4.493,0-7.601,3.108-7.601,7.97c0,4.893,3.324,8.001,7.877,8.001
			c3.694,0,6.186-1.97,6.986-3.324v-2.399h-6.062v-3.139h9.231v11.663H153.565z"/>
		<path fill="#404041" d="M165.072,112.878h14.893v3.17h-11.509v5.631h8.833v3.169h-8.833v6.401h11.601v3.17h-14.985V112.878z"/>
	</g>
	<g>
		<polygon fill="#404041" points="80.813,70.185 72.608,51.879 59.604,22.822 52.964,7.967 40.367,7.967 45.76,20.099 
			45.757,20.099 46.614,22.017 74.408,84.542 74.423,84.506 74.435,84.534 		"/>
		<polygon fill="#404041" points="117.515,70.185 109.309,51.879 96.302,22.822 89.665,7.967 77.067,7.967 82.459,20.099 
			82.458,20.099 83.313,22.017 111.109,84.542 111.124,84.506 111.134,84.534 		"/>
		<g>
			<path fill="#CFA364" d="M135.015,28.018c0,1.216-0.132,2.397-0.34,3.555l10.386-23.628l-26.389,0.01
				C128.042,10.149,135.015,18.288,135.015,28.018z"/>
		</g>
	</g>
</g>
<g>
	<g>
		<path fill="#404041" d="M30.27,162.058c1.706-1.818,2.903-3.679,4.077-6.316l1.639,1.02c-0.443,0.953-0.908,1.84-1.396,2.704
			v11.277h-1.95v-8.353c-0.554,0.687-1.13,1.352-1.706,1.951C30.757,163.564,30.468,162.678,30.27,162.058z M30.468,155.034
			c1.596-1.485,2.681-2.992,3.789-5.142l1.729,1.153c-1.462,2.547-2.659,4.209-4.63,6.094
			C31.112,156.407,30.712,155.609,30.468,155.034z M34.834,168.905c1.507-1.396,1.839-2.393,1.839-5.185v-1.486h6.094v3.901
			c0.443-0.376,1.085-0.887,1.662-1.396c0.066,0.599,0.133,1.439,0.244,2.171c-1.286,0.931-2.593,1.995-3.236,2.593l-1.041-1.573
			c0.398-0.421,0.51-0.797,0.51-1.595v-2.261h-2.394v0.686c-0.043,2.661-0.531,3.944-2.304,5.718
			C35.831,169.968,35.21,169.282,34.834,168.905z M36.119,151.687h1.507v3.612h1.418v-5.164h1.795v5.164h1.418v-3.612h1.485v5.429
			h-7.623V151.687z M36.252,158.733h7.29v1.861h-7.29V158.733z M43.232,158.069c1.375-2.238,2.26-4.609,2.991-8.199l2.018,0.265
			c-0.311,1.264-0.621,2.416-0.975,3.501h4.254v1.928h-0.953c-0.31,4.011-0.864,6.847-2.061,9.331
			c0.775,1.329,1.773,2.458,3.08,3.634c-0.333,0.598-0.797,1.507-1.063,2.038c-1.286-1.285-2.283-2.504-3.081-3.79
			c-0.843,1.307-1.905,2.571-3.235,3.944c-0.354-0.532-0.886-1.307-1.285-1.839c1.507-1.395,2.637-2.68,3.501-4.077
			c-0.731-1.684-1.174-3.568-1.462-5.916c-0.221,0.376-0.465,0.752-0.709,1.13C44.008,159.487,43.542,158.623,43.232,158.069z
			 M48.772,155.564h-2.216l-0.244,0.621c0.244,2.705,0.621,4.742,1.174,6.404C48.217,160.706,48.572,158.468,48.772,155.564z"/>
		<path fill="#404041" d="M79.507,157.449V159h-11.7v-1.439c-1.041,0.663-2.171,1.329-3.39,1.994
			c-0.354-0.642-0.841-1.397-1.307-2.105c4.786-2.261,7.977-4.941,9.75-7.777l2.77,0.221l-0.599,0.887
			c2.149,2.592,5.075,4.719,9.13,6.315c-0.443,0.665-0.886,1.396-1.33,2.171C81.59,158.667,80.482,158.069,79.507,157.449z
			 M65.902,161.304h15.466v9.439H79.02v-1.217H68.229v1.217h-2.327V161.304z M68.229,167.442H79.02v-4.032H68.229V167.442z
			 M68.715,156.939h9.995c-2.04-1.351-3.59-2.793-4.942-4.521C72.35,154.08,70.71,155.564,68.715,156.939z"/>
		<path fill="#404041" d="M95.972,158.246c1.507-0.997,3.325-2.305,4.92-3.523c0.245,0.398,0.731,0.975,1.329,1.64
			c-1.617,1.174-3.456,2.549-4.874,3.679L95.972,158.246z M96.305,168.55c6.293-0.666,8.377-1.86,8.842-3.745
			c0.11-0.443,0.176-1.063,0.176-1.817h2.35c-0.045,0.709-0.111,1.396-0.267,2.016c-0.044,0.222-0.111,0.421-0.178,0.599
			c3.058,0.997,6.138,2.016,9.129,3.08l-1.04,1.994c-3.369-1.307-5.896-2.26-9.02-3.368c-1.352,1.551-3.945,2.569-9.018,3.391
			C97.037,170.079,96.637,169.192,96.305,168.55z M96.704,151.51l1.462-1.463c1.197,0.841,2.438,1.773,3.347,2.527l-1.551,1.616
			C98.919,153.305,97.724,152.307,96.704,151.51z M98.787,160.107h15.334v6.271h-2.282v-4.387H101.07v4.521h-2.283V160.107z
			 M101.866,158.024c3.813-0.909,5.474-2.039,6.095-3.789c0.111-0.333,0.199-0.643,0.243-0.997h-2.525
			c-0.577,0.907-1.264,1.795-2.127,2.726c-0.465-0.421-1.064-0.888-1.728-1.352c1.728-1.729,2.548-3.014,3.301-4.899l2.216,0.29
			c-0.221,0.509-0.421,0.975-0.643,1.418h9.396v1.839l-1.219,2.504c-0.642-0.243-1.308-0.444-2.083-0.644l0.998-1.882h-3.413
			c-0.022,0.199-0.067,0.42-0.111,0.597c1.02,2.306,2.659,3.324,6.603,4.101l-0.975,1.973c-3.635-0.931-5.363-1.93-6.515-3.834
			c-1.019,1.662-2.858,2.703-6.448,3.789C102.687,159.397,102.288,158.711,101.866,158.024z"/>
		<path fill="#404041" d="M129.522,153.26h8.464v-3.412h2.327v3.412h8.553v2.216H141.4c2.171,4.099,4.387,6.447,8.221,8.908
			c-0.443,0.82-0.909,1.685-1.197,2.372c-4.166-3.059-6.227-5.452-8.11-9.352v7.356h4.409v2.107h-4.409v3.81h-2.327v-3.81h-4.476
			v-2.107h4.476v-7.267c-1.928,3.966-4.011,6.447-8.109,9.573c-0.355-0.753-0.843-1.64-1.219-2.349
			c3.855-2.593,6.182-5.208,8.265-9.241h-7.401V153.26z"/>
	</g>
</g>
</svg>
