<?xml version="1.0" encoding="utf-8"?>
<!-- Generator: Adobe Illustrator 16.0.0, SVG Export Plug-In . SVG Version: 6.00 Build 0)  -->
<!DOCTYPE svg PUBLIC "-//W3C//DTD SVG 1.1//EN" "http://www.w3.org/Graphics/SVG/1.1/DTD/svg11.dtd">
<svg version="1.1" id="图层_1" xmlns="http://www.w3.org/2000/svg" xmlns:xlink="http://www.w3.org/1999/xlink" x="0px" y="0px"
	 width="512px" height="138px" viewBox="0 0 512 138" enable-background="new 0 0 512 138" xml:space="preserve">
<title>Group 4 Copy</title>
<desc>Created with Sketch.</desc>
<g id="Page-1_1_">
	<g id="牛顿技术详情" transform="translate(-272.000000, -34.000000)" fill="#ffffff">
		<g id="logo" transform="translate(272.000000, 34.000000)">
			<path id="newton" d="M223.344,89.299l17.189-29.395l11.791-0.498c-3.986,5.536-7.805,11.182-11.459,16.939l0.166,0.166
				c1.439-1.826,3.045-3.793,4.816-5.896c1.771-2.103,3.64-4.055,5.604-5.854c1.965-1.799,3.986-3.308,6.063-4.526
				c2.075-1.218,4.139-1.827,6.187-1.827c2.104,0,3.86,0.54,5.272,1.619c1.411,1.08,2.117,2.727,2.117,4.941
				c0,1.827-0.566,3.709-1.701,5.646c-1.136,1.938-2.396,3.834-3.779,5.688c-1.383,1.854-2.644,3.627-3.777,5.314
				s-1.702,3.169-1.702,4.441c0,0.555,0.152,1.039,0.456,1.453c0.305,0.415,0.789,0.623,1.453,0.623
				c1.219,0,2.604-0.566,4.152-1.703c1.551-1.135,3.154-2.531,4.815-4.192c1.273-1.272,2.548-2.644,3.819-4.109
				c1.273-1.467,2.464-2.879,3.57-4.235c1.106-1.355,2.104-2.602,2.988-3.735c0.887-1.135,1.578-2.035,2.076-2.699l0.748,0.415
				c-1.883,2.492-3.889,5.064-6.021,7.723c-2.131,2.656-4.275,5.094-6.436,7.308c-2.27,2.325-4.47,4.138-6.602,5.438
				c-2.131,1.302-4.305,1.951-6.52,1.951c-2.491,0-4.359-0.731-5.604-2.2c-1.246-1.467-1.869-3.361-1.869-5.688
				c0-1.992,0.54-3.889,1.62-5.688c1.079-1.799,2.283-3.487,3.612-5.063c1.329-1.578,2.533-3.031,3.613-4.36
				c1.079-1.328,1.619-2.574,1.619-3.736c0-1.55-0.748-2.325-2.242-2.325c-0.996,0-2.215,0.512-3.654,1.536s-2.99,2.367-4.65,4.027
				c-1.66,1.66-3.349,3.515-5.065,5.563c-1.716,2.049-3.335,4.097-4.858,6.145c-1.522,2.049-2.851,3.986-3.986,5.813
				c-1.135,1.828-1.979,3.322-2.533,4.484L223.344,89.299z M319.501,67.958c-1.272,1.827-2.698,3.667-4.276,5.522
				c-1.576,1.854-3.361,3.75-5.354,5.688c-3.82,3.654-7.529,6.422-11.127,8.305c-3.599,1.883-7.611,2.822-12.041,2.822
				c-3.819,0-6.726-0.885-8.72-2.656c-1.991-1.771-2.988-4.346-2.988-7.723c0-2.934,0.831-5.702,2.49-8.305
				c1.662-2.602,3.75-4.871,6.271-6.809c2.519-1.938,5.259-3.488,8.222-4.65c2.961-1.163,5.771-1.744,8.428-1.744
				c2.656,0,4.844,0.429,6.561,1.287c1.716,0.858,2.574,2.256,2.574,4.193s-0.941,3.626-2.823,5.065
				c-1.883,1.438-4.109,2.671-6.685,3.694c-2.574,1.023-5.162,1.854-7.764,2.49c-2.604,0.637-4.65,1.121-6.146,1.453
				c-0.111,0.555-0.194,1.107-0.25,1.661s-0.083,1.106-0.083,1.661c0,0.996,0.109,1.979,0.333,2.947
				c0.221,0.969,0.594,1.813,1.12,2.533c0.525,0.719,1.218,1.301,2.076,1.744c0.857,0.441,1.924,0.663,3.195,0.663
				c2.604,0,5.398-0.954,8.389-2.864c2.989-1.91,6.006-4.305,9.051-7.184c1.938-1.882,3.64-3.709,5.105-5.48
				c1.467-1.771,2.699-3.376,3.695-4.815L319.501,67.958z M301.233,61.73c0-1.55-0.775-2.325-2.325-2.325
				c-1.218,0-2.533,0.623-3.944,1.868s-2.712,2.74-3.903,4.484c-1.188,1.744-2.228,3.529-3.113,5.354
				c-0.885,1.828-1.438,3.351-1.659,4.568c2.323-0.498,4.414-1.26,6.269-2.283c1.855-1.024,3.434-2.174,4.733-3.446
				c1.301-1.273,2.283-2.629,2.947-4.068S301.233,63.06,301.233,61.73z M353.962,59.406c-0.498,0.775-1.218,1.84-2.159,3.197
				c-0.94,1.357-1.979,2.865-3.113,4.525c-1.136,1.661-2.283,3.419-3.445,5.272c-1.163,1.854-2.229,3.641-3.197,5.355
				s-1.758,3.321-2.366,4.816c-0.608,1.494-0.914,2.712-0.914,3.652c0,2.049,1.053,3.072,3.155,3.072
				c1.551,0,3.06-0.443,4.526-1.328c1.467-0.887,2.851-2.021,4.15-3.404c1.302-1.385,2.491-2.935,3.57-4.649
				c1.08-1.717,2.035-3.377,2.865-4.981c0.83-1.605,1.479-3.072,1.951-4.4c0.471-1.329,0.761-2.326,0.872-2.99
				c-0.057-0.499-0.181-1.038-0.374-1.62c-0.193-0.581-0.29-1.259-0.29-2.034c0-1.384,0.441-2.644,1.328-3.778
				c0.886-1.134,2.075-1.702,3.569-1.702c2.104,0,3.668,0.609,4.692,1.827c1.022,1.218,1.536,2.823,1.536,4.816
				c0,0.886-0.057,1.688-0.166,2.408c-0.111,0.719-0.277,1.467-0.499,2.242c1.993,1.55,3.931,2.325,5.813,2.325
				c0.941,0,1.786-0.139,2.533-0.416c0.747-0.275,1.426-0.622,2.034-1.037s1.147-0.872,1.619-1.37
				c0.471-0.498,0.898-0.969,1.287-1.412l0.497,0.747c-0.773,1.052-1.854,2.063-3.237,3.031s-2.935,1.453-4.65,1.453
				c-1.271,0-2.407-0.222-3.404-0.664c-0.995-0.443-1.908-0.969-2.739-1.578c-0.887,2.658-2.312,5.162-4.276,7.516
				s-4.221,4.428-6.768,6.229c-2.546,1.8-5.26,3.211-8.139,4.234c-2.878,1.023-5.646,1.535-8.304,1.535
				c-3.155,0-5.743-0.58-7.764-1.743c-2.021-1.163-3.03-3.237-3.03-6.228c0-0.555,0.068-1.135,0.207-1.744s0.263-1.135,0.374-1.578
				l-0.166-0.082c-0.886,1.217-1.869,2.49-2.948,3.818c-1.079,1.33-2.27,2.547-3.569,3.654c-1.301,1.106-2.714,2.034-4.235,2.78
				c-1.522,0.748-3.169,1.121-4.94,1.121c-2.324,0-4.151-0.761-5.479-2.283c-1.328-1.521-1.993-3.444-1.993-5.771
				c0-1.217,0.235-2.504,0.706-3.86s1.189-2.907,2.159-4.649c0.969-1.744,2.159-3.736,3.569-5.979l4.94-7.847l11.709-0.498
				c-0.499,0.886-1.218,2.021-2.159,3.404c-0.94,1.384-1.951,2.879-3.031,4.484c-1.078,1.605-2.173,3.28-3.278,5.024
				c-1.107,1.742-2.118,3.445-3.031,5.105c-0.913,1.661-1.661,3.196-2.242,4.608c-0.581,1.411-0.872,2.614-0.872,3.612
				c0,1.66,0.748,2.49,2.242,2.49c1.605,0,3.336-0.816,5.19-2.449c1.854-1.634,3.693-3.668,5.521-6.104
				c1.329-1.771,2.63-3.654,3.902-5.646s2.45-3.902,3.528-5.729c1.08-1.827,2.034-3.487,2.865-4.982
				c0.83-1.495,1.494-2.63,1.992-3.405L353.962,59.406z M377.793,61.398l0.582-1.329h6.892l7.06-12.04l11.542-0.416l-7.475,12.456
				h11.376l-0.663,1.329h-11.46c-0.774,1.329-1.841,3.072-3.196,5.231c-1.356,2.159-2.698,4.401-4.027,6.727
				c-1.328,2.326-2.491,4.566-3.487,6.727c-0.995,2.158-1.494,3.93-1.494,5.314c0,0.94,0.264,1.633,0.789,2.076
				c0.525,0.441,1.26,0.663,2.199,0.663c1.439,0,2.962-0.401,4.567-1.204c1.604-0.803,3.225-1.841,4.856-3.113
				c1.635-1.273,3.212-2.698,4.733-4.276c1.522-1.577,2.962-3.142,4.318-4.69c1.354-1.551,2.588-3.004,3.693-4.359
				c1.107-1.356,1.993-2.45,2.657-3.28l0.665,0.333c-1.883,2.214-3.875,4.65-5.979,7.307c-2.104,2.657-4.374,5.135-6.811,7.433
				c-2.436,2.298-5.064,4.208-7.889,5.729c-2.823,1.521-5.896,2.282-9.217,2.282c-2.548,0-4.442-0.678-5.688-2.032
				c-1.245-1.357-1.868-3.115-1.868-5.273c0-1.107,0.152-2.201,0.457-3.28c0.306-1.079,0.844-2.407,1.619-3.985
				c0.774-1.578,1.799-3.502,3.072-5.771c1.272-2.269,2.906-5.121,4.898-8.553h-6.724V61.398z M456.181,67.958
				c-0.222,0.221-0.582,0.595-1.08,1.121c-0.497,0.526-1.12,1.051-1.867,1.578c-0.747,0.526-1.593,0.997-2.532,1.411
				c-0.941,0.416-1.966,0.623-3.072,0.623c-1.438,0-2.727-0.346-3.861-1.037c-1.135-0.692-2.173-1.62-3.113-2.782h-0.166
				c0,2.878-0.679,5.618-2.034,8.221c-1.356,2.603-3.155,4.886-5.397,6.851c-2.241,1.966-4.803,3.517-7.682,4.65
				c-2.878,1.135-5.867,1.701-8.968,1.701c-1.826,0-3.599-0.193-5.314-0.58c-1.716-0.389-3.237-1.025-4.565-1.91
				c-1.329-0.887-2.396-2.049-3.197-3.488c-0.802-1.438-1.204-3.211-1.204-5.313c0-3.153,0.747-6.006,2.242-8.553
				c1.494-2.546,3.418-4.719,5.771-6.518c2.354-1.799,5.012-3.169,7.973-4.11c2.962-0.941,5.882-1.412,8.761-1.412
				c2.381,0,4.346,0.332,5.896,0.997c1.551,0.664,2.865,1.481,3.944,2.45c1.079,0.969,1.993,2.034,2.74,3.197
				c0.747,1.163,1.495,2.228,2.242,3.197s1.577,1.785,2.49,2.45c0.913,0.664,2.063,0.996,3.446,0.996
				c1.272,0,2.588-0.374,3.943-1.121c1.355-0.748,2.672-1.841,3.943-3.28L456.181,67.958z M428.197,59.406
				c-1.329,0-2.672,0.457-4.027,1.37c-1.355,0.914-2.672,2.104-3.944,3.57c-1.272,1.467-2.464,3.128-3.57,4.982
				c-1.106,1.855-2.075,3.722-2.906,5.605c-0.83,1.883-1.48,3.709-1.951,5.479s-0.706,3.321-0.706,4.649
				c0,1.273,0.291,2.297,0.872,3.072s1.398,1.162,2.45,1.162c1.328,0,2.671-0.457,4.026-1.37s2.672-2.104,3.943-3.569
				c1.273-1.469,2.464-3.129,3.571-4.982c1.105-1.854,2.075-3.723,2.906-5.604c0.83-1.883,1.479-3.724,1.951-5.522
				c0.471-1.799,0.705-3.335,0.705-4.608s-0.291-2.297-0.871-3.072C430.065,59.793,429.249,59.406,428.197,59.406z M440.154,89.299
				l17.188-29.395l11.791-0.498c-3.984,5.536-7.806,11.182-11.459,16.939l0.166,0.166c1.439-1.826,3.045-3.793,4.816-5.896
				c1.771-2.103,3.64-4.055,5.604-5.854c1.966-1.799,3.986-3.308,6.063-4.526c2.075-1.218,4.138-1.827,6.186-1.827
				c2.104,0,3.861,0.54,5.273,1.619c1.411,1.08,2.117,2.727,2.117,4.941c0,1.827-0.567,3.709-1.702,5.646s-2.396,3.834-3.778,5.688
				c-1.383,1.854-2.644,3.627-3.778,5.314c-1.134,1.688-1.701,3.169-1.701,4.441c0,0.555,0.151,1.039,0.457,1.453
				c0.305,0.415,0.788,0.623,1.452,0.623c1.219,0,2.603-0.566,4.151-1.703c1.55-1.135,3.155-2.531,4.816-4.192
				c1.272-1.272,2.547-2.644,3.818-4.109c1.273-1.467,2.464-2.879,3.571-4.235c1.106-1.355,2.104-2.602,2.989-3.735
				c0.886-1.135,1.577-2.035,2.076-2.699l0.746,0.415c-1.883,2.492-3.889,5.064-6.021,7.723c-2.131,2.656-4.276,5.094-6.437,7.308
				c-2.27,2.325-4.47,4.138-6.602,5.438c-2.131,1.302-4.304,1.951-6.518,1.951c-2.491,0-4.36-0.731-5.605-2.2
				c-1.245-1.467-1.868-3.361-1.868-5.688c0-1.992,0.54-3.889,1.619-5.688c1.079-1.799,2.283-3.487,3.612-5.063
				c1.328-1.578,2.532-3.031,3.611-4.36c1.079-1.328,1.619-2.574,1.619-3.736c0-1.55-0.748-2.325-2.242-2.325
				c-0.996,0-2.215,0.512-3.652,1.536c-1.439,1.024-2.99,2.367-4.65,4.027c-1.661,1.661-3.35,3.515-5.064,5.563
				c-1.715,2.048-3.335,4.097-4.857,6.145c-1.521,2.049-2.852,3.986-3.986,5.813c-1.135,1.828-1.979,3.322-2.531,4.484
				L440.154,89.299z"/>
			<g id="Page-1" transform="translate(0.749311, 0.000000)">
				<path id="Stroke-1" fill="none" stroke="#ffffff" stroke-width="4" d="M191.609,74.021c2.771,1.729,1.837,3.191-2.801,4.394
					c-1.73,0.444-1.853,0.996-1.83,1.86c0.054,2.228-0.199,3.244-5.489,4.109c-1.975,0.314-3.115,0.965-2.97,1.691
					c0.421,1.953-2.228,3.162-7.931,3.629c-2.128,0.184-3.667,0.742-3.973,1.463c-0.812,1.936-4.157,2.939-10.028,3
					c-2.197,0.031-4.049,0.475-4.799,1.156c-2.013,1.828-5.91,2.587-11.689,2.242c-2.174-0.123-4.264,0.184-5.419,0.805
					c-3.123,1.645-7.402,2.111-12.845,1.385c-2.044-0.275-4.287-0.115-5.81,0.406c-4.08,1.4-8.55,1.561-13.426,0.475
					c-1.814-0.414-4.119-0.414-5.933,0c-4.876,1.086-9.354,0.926-13.434-0.475c-1.516-0.521-3.766-0.682-5.802-0.406
					c-5.45,0.729-9.729,0.26-12.845-1.385c-1.156-0.621-3.261-0.928-5.42-0.805c-5.787,0.345-9.683-0.414-11.688-2.242
					c-0.75-0.682-2.61-1.125-4.8-1.156c-5.879-0.061-9.216-1.064-10.035-3c-0.306-0.721-1.845-1.279-3.973-1.463
					c-5.703-0.467-8.344-1.676-7.93-3.629c0.153-0.727-0.987-1.377-2.962-1.691c-5.29-0.865-7.126-2.227-5.488-4.109
					c0.597-0.688-0.1-1.416-1.83-1.86c-4.639-1.201-5.581-2.664-2.802-4.394c1.026-0.637,0.781-1.395-0.62-1.944
					c-3.797-1.5-3.797-2.993,0-4.493c1.401-0.551,1.646-1.301,0.612-1.944c-2.778-1.722-1.829-3.192,2.81-4.394
					c1.73-0.444,2.426-1.164,1.83-1.86c-1.638-1.875,0.199-3.246,5.488-4.103c1.975-0.314,3.116-0.972,2.962-1.692
					c-0.414-1.952,2.228-3.169,7.93-3.636c2.128-0.176,3.667-0.743,3.965-1.455c0.827-1.937,4.164-2.939,10.043-3.008
					c2.189-0.023,4.049-0.475,4.8-1.148c2.005-1.837,5.902-2.587,11.688-2.25c2.159,0.13,4.264-0.176,5.42-0.796
					c3.115-1.653,7.395-2.12,12.845-1.393c2.036,0.275,4.287,0.123,5.802-0.406c4.08-1.401,8.558-1.554,13.434-0.467
					c1.814,0.406,4.11,0.406,5.933,0c4.868-1.087,9.346-0.934,13.426,0.467c1.523,0.528,3.766,0.681,5.81,0.406
					c5.45-0.727,9.722-0.26,12.845,1.393c1.156,0.62,3.246,0.926,5.419,0.796c5.779-0.337,9.676,0.413,11.689,2.25
					c0.75,0.673,2.603,1.125,4.799,1.148c5.871,0.069,9.216,1.072,10.028,3.008c0.306,0.712,2.059,1.347,3.973,1.455
					c4.233,0.229,6.706,1.447,7.931,3.636c0.375,0.659,0.957,1.73,2.962,1.692c3.889-0.061,7.119,2.228,5.496,4.103
					c-0.612,0.696,0.023,1.784,1.83,1.86c3.582,0.153,5.572,2.672,2.801,4.394c-1.025,0.643-0.788,1.393,0.62,1.944
					c3.789,1.5,3.797,2.993,0,4.493C190.821,72.627,190.583,73.385,191.609,74.021z"/>
				<path id="Fill-3" d="M105.37,15.541c3.491-0.398,7.287-2.763,8.068-7.058c0.766-4.302-3.651-6.782-9.714-6.254
					C91.301,3.309,85.376,14.76,80.883,26.441c-1.293,3.368-2.465,6.752-3.644,9.913c-9.025,24.281-18.501,53.522-22.719,76.294
					c-0.865,4.686-0.498,10.104-5.335,14.078c-6.729-0.812-4.049-4.295-10.525-3.666c-10.143,0.979-10.763,13.25-3.651,14.443
					c2.205,0.367,4.141,0.214,6.859-0.398c13.197-2.992,18.104-17.275,23.423-31.529c9.944-26.661,17.958-52.902,23.531-78.875
					c0.023-0.092,0.039-0.191,0.062-0.283c0.987-4.753,1.952-12.852,5.726-13.801C98.282,11.699,99.943,16.169,105.37,15.541"/>
				<g id="Group-7" transform="translate(14.049148, 0.230943)">
					<path id="Fill-5" d="M145.129,1.802c-12.424,1.08-18.349,12.531-22.842,24.22c-1.293,3.368-2.473,6.744-3.644,9.905
						c-9.033,24.281-18.501,53.521-22.719,76.295c-0.865,4.685-0.498,10.111-5.335,14.076c-6.729-0.803-4.049-4.293-10.525-3.666
						c-10.143,0.988-10.763,13.25-3.659,14.445c2.212,0.366,4.149,0.221,6.866-0.392c13.197-3.001,18.104-17.285,23.424-31.538
						c9.943-26.652,17.958-52.902,23.531-78.875c0.023-0.092,0.038-0.191,0.061-0.284c0.98-4.753,1.944-12.852,5.734-13.801
						c3.667-0.918,5.32,3.552,10.755,2.924c3.498-0.398,7.287-2.764,8.068-7.05C155.608,3.754,151.191,1.281,145.129,1.802"/>
				</g>
			</g>
		</g>
	</g>
</g>
</svg>
