<?xml version="1.0" encoding="UTF-8"?>
<svg width="89px" height="24px" viewBox="0 0 89 24" version="1.1" xmlns="http://www.w3.org/2000/svg" xmlns:xlink="http://www.w3.org/1999/xlink">
    <!-- Generator: Sketch 49 (51002) - http://www.bohemiancoding.com/sketch -->
    <title>Group 4 Copy</title>
    <desc>Created with Sketch.</desc>
    <defs></defs>
    <g id="Page-1" stroke="none" stroke-width="1" fill="none" fill-rule="evenodd">
        <g id="牛顿关于我们" transform="translate(-359.000000, -14.000000)">
            <g id="Group-35">
                <g id="logo" transform="translate(359.000000, 14.000000)">
                    <path d="M38.8207606,15.5302619 L41.8100945,10.4180677 L43.8607487,10.3314203 C43.1675664,11.2941736 42.5032766,12.2761672 41.8678594,13.2774305 L41.8967419,13.306313 C42.1470577,12.9886044 42.426252,12.6468321 42.734333,12.2809859 C43.0424141,11.9151397 43.3673384,11.5757742 43.7091158,11.2628794 C44.0508932,10.9499846 44.4022929,10.6876383 44.7633254,10.4758326 C45.1243578,10.2640269 45.482978,10.1581256 45.8391968,10.1581256 C46.205043,10.1581256 46.5107126,10.2519926 46.7562146,10.4397295 C47.0017167,10.6274664 47.1244659,10.9138812 47.1244659,11.2989825 C47.1244659,11.6166911 47.0257852,11.9440223 46.8284208,12.2809859 C46.6310564,12.6179495 46.4120333,12.9476876 46.171345,13.2702099 C45.9306567,13.5927323 45.7116336,13.9008087 45.5142692,14.1944484 C45.3169047,14.4880882 45.218224,14.7456208 45.218224,14.967054 C45.218224,15.0633294 45.2446993,15.147569 45.2976508,15.2197755 C45.3506022,15.291982 45.4348418,15.3280847 45.5503722,15.3280847 C45.7621779,15.3280847 46.0028626,15.229404 46.2724335,15.0320396 C46.5420045,14.8346752 46.8211987,14.5915836 47.1100247,14.3027576 C47.3314579,14.0813244 47.5528879,13.8430465 47.7743211,13.5879169 C47.9957544,13.3327873 48.2027432,13.0872889 48.3952939,12.8514144 C48.5878445,12.6155398 48.7611375,12.3989236 48.915178,12.2015592 C49.0692185,12.0041947 49.1895609,11.8477497 49.2762087,11.7322193 L49.4061797,11.8044254 C49.0788436,12.2376644 48.7298508,12.6853379 48.3591908,13.1474595 C47.9885308,13.6095811 47.6154695,14.0331861 47.2399957,14.4182874 C46.8452669,14.8226438 46.4625782,15.1379408 46.0919182,15.3641878 C45.7212582,15.5904348 45.3433832,15.7035566 44.9582819,15.7035566 C44.525043,15.7035566 44.2001186,15.5759937 43.9834991,15.3208641 C43.7668797,15.0657345 43.6585715,14.7359964 43.6585715,14.3316401 C43.6585715,13.9850489 43.7524386,13.6553109 43.9401755,13.3424161 C44.1279123,13.0295213 44.337308,12.7358859 44.5683688,12.4615012 C44.7994296,12.1871166 45.0088253,11.9343976 45.1965622,11.7033368 C45.3842991,11.4722761 45.4781661,11.2556598 45.4781661,11.0534817 C45.4781661,10.7839107 45.3481963,10.6491273 45.088253,10.6491273 C44.9149574,10.6491273 44.7031548,10.7381806 44.452839,10.91629 C44.2025232,11.0943993 43.9329563,11.3278635 43.6441303,11.6166895 C43.3553043,11.9055155 43.061669,12.228033 42.7632155,12.5842517 C42.464762,12.9404704 42.1831609,13.2966837 41.9184037,13.6529024 C41.6536466,14.0091211 41.4225893,14.3460797 41.2252249,14.6637883 C41.0278604,14.9814969 40.8810428,15.2414363 40.7847675,15.4436145 L38.8207606,15.5302619 Z M55.543701,11.8188667 C55.3222678,12.1365752 55.0743625,12.4566859 54.7999778,12.7792082 C54.5255932,13.1017306 54.2151099,13.4314686 53.8685187,13.7684322 C53.204219,14.4038494 52.559184,14.8852188 51.9333944,15.2125549 C51.3076047,15.539891 50.6096191,15.7035566 49.8394165,15.7035566 C49.1751168,15.7035566 48.6696789,15.5495184 48.3230877,15.2414374 C47.9764966,14.9333563 47.8032036,14.4856828 47.8032036,13.8984033 C47.8032036,13.3881441 47.9476144,12.9067747 48.2364404,12.4542806 C48.5252663,12.0017866 48.8887002,11.6070637 49.326753,11.2701 C49.7648057,10.9331364 50.2413614,10.6635695 50.7564344,10.4613914 C51.2715074,10.2592132 51.7600973,10.1581256 52.2222189,10.1581256 C52.6843405,10.1581256 53.0646223,10.2327379 53.3630758,10.3819646 C53.6615293,10.5311914 53.8107538,10.7742829 53.8107538,11.1112466 C53.8107538,11.4482102 53.6470882,11.7418455 53.3197521,11.9921614 C52.992416,12.2424772 52.6049136,12.4566866 52.1572334,12.634796 C51.7095531,12.8129053 51.2594727,12.9573161 50.8069787,13.0680328 C50.3544847,13.1787494 49.9982713,13.262989 49.7383279,13.3207542 C49.7190729,13.4170295 49.7046318,13.5133034 49.6950042,13.6095788 C49.6853767,13.7058541 49.680563,13.802128 49.680563,13.8984033 C49.680563,14.0716989 49.6998178,14.242585 49.7383279,14.4110668 C49.7768381,14.5795486 49.8418229,14.7263663 49.9332845,14.8515242 C50.024746,14.9766822 50.1450884,15.0777697 50.2943151,15.15479 C50.4435419,15.2318103 50.6288691,15.2703198 50.8503024,15.2703198 C51.3027964,15.2703198 51.7889795,15.1042474 52.3088663,14.7720975 C52.828753,14.4399476 53.3534457,14.0235631 53.8829599,13.5229314 C54.2199236,13.1955953 54.5159658,12.8778915 54.7710954,12.5698104 C55.026225,12.2617294 55.2404344,11.9825351 55.41373,11.7322193 L55.543701,11.8188667 Z M52.3666312,10.7357747 C52.3666312,10.4662038 52.2318477,10.3314203 51.9622768,10.3314203 C51.7504711,10.3314203 51.5218206,10.4397284 51.2763186,10.6563479 C51.0308165,10.8729674 50.8045729,11.1329069 50.5975809,11.4361742 C50.390589,11.7394414 50.2100754,12.0499247 50.0560349,12.3676333 C49.9019944,12.6853418 49.8057205,12.950095 49.7672104,13.1619007 C50.1715667,13.0752529 50.5350006,12.9428763 50.857523,12.764767 C51.1800453,12.5866576 51.4544259,12.3868893 51.6806729,12.1654561 C51.9069199,11.9440228 52.077806,11.7081518 52.1933364,11.457836 C52.3088668,11.2075201 52.3666312,10.9668354 52.3666312,10.7357747 Z M61.53681,10.3314203 C61.4501622,10.4662058 61.3250062,10.651533 61.1613381,10.8874075 C60.9976701,11.1232821 60.8171566,11.3856284 60.6197921,11.6744544 C60.4224277,11.9632804 60.2226594,12.2689499 60.0204812,12.5914723 C59.8183031,12.9139946 59.6329758,13.2244779 59.464494,13.5229314 C59.2960122,13.8213849 59.1588219,14.1005792 59.0529191,14.3605225 C58.9470162,14.6204659 58.8940656,14.8322684 58.8940656,14.9959365 C58.8940656,15.3521552 59.0769859,15.5302619 59.4428322,15.5302619 C59.7124031,15.5302619 59.9747494,15.4532428 60.229879,15.2992023 C60.4850086,15.1451617 60.7256933,14.9478003 60.9519403,14.707112 C61.1781874,14.4664237 61.3851762,14.1968568 61.5729131,13.8984033 C61.76065,13.5999498 61.9267224,13.3111281 62.0711354,13.0319297 C62.2155484,12.7527312 62.3286702,12.4976055 62.4105042,12.2665447 C62.4923383,12.0354839 62.542882,11.8621909 62.5621371,11.7466605 C62.5525096,11.6600127 62.530848,11.5661457 62.4971516,11.4650566 C62.4634552,11.3639675 62.4466073,11.246032 62.4466073,11.1112466 C62.4466073,10.8705582 62.5236264,10.6515352 62.6776669,10.4541707 C62.8317074,10.2568063 63.0386963,10.1581256 63.2986397,10.1581256 C63.6644859,10.1581256 63.9364596,10.2640269 64.114569,10.4758326 C64.2926783,10.6876383 64.3817317,10.9668326 64.3817317,11.3134237 C64.3817317,11.4674642 64.3721043,11.6070614 64.3528492,11.7322193 C64.3335941,11.8573772 64.304712,11.987347 64.2662018,12.1221324 C64.612793,12.3917033 64.9497516,12.5264868 65.2770877,12.5264868 C65.4407558,12.5264868 65.5875734,12.5024183 65.7175451,12.4542806 C65.8475168,12.406143 65.9654523,12.3459718 66.0713552,12.2737653 C66.177258,12.2015588 66.2711251,12.1221328 66.3529591,12.0354851 C66.4347931,11.9488373 66.5094054,11.8670045 66.5767981,11.7899842 L66.6634455,11.9199552 C66.52866,12.1028784 66.3409259,12.2785782 66.1002376,12.44706 C65.8595493,12.6155418 65.5899824,12.6997815 65.2915289,12.6997815 C65.0700957,12.6997815 64.8727342,12.6612719 64.6994386,12.5842517 C64.5261431,12.5072314 64.3672912,12.4157712 64.2228782,12.3098684 C64.0688376,12.7719899 63.8209324,13.2076292 63.479155,13.6167994 C63.1373776,14.0259695 62.7450615,14.3869966 62.302195,14.6998914 C61.8593285,15.0127862 61.3875865,15.2582846 60.8869548,15.4363939 C60.3863231,15.6145033 59.9049537,15.7035566 59.4428322,15.7035566 C58.8940628,15.7035566 58.4439824,15.602469 58.0925775,15.4002908 C57.7411726,15.1981127 57.5654727,14.8370856 57.5654727,14.3171989 C57.5654727,14.2209235 57.577507,14.119836 57.6015758,14.0139331 C57.6256446,13.9080302 57.6473062,13.8165701 57.6665613,13.7395498 L57.6376789,13.7251086 C57.4836383,13.9369143 57.3127522,14.1583442 57.1250153,14.389405 C56.9372784,14.6204658 56.7302896,14.8322683 56.5040426,15.024819 C56.2777956,15.2173696 56.0322972,15.3786284 55.76754,15.5086 C55.5027829,15.6385717 55.2163681,15.7035566 54.908287,15.7035566 C54.5039307,15.7035566 54.1862269,15.57118 53.9551661,15.3064229 C53.7241053,15.0416657 53.6085766,14.707114 53.6085766,14.3027576 C53.6085766,14.0909519 53.649493,13.8671151 53.7313271,13.6312406 C53.8131611,13.395366 53.9383171,13.1257992 54.106799,12.8225319 C54.2752808,12.5192646 54.4822696,12.1726787 54.7277717,11.7827636 L55.5870247,10.4180677 L57.6232376,10.3314203 C57.5365898,10.4854608 57.4114338,10.6828223 57.2477657,10.9235106 C57.0840977,11.1641989 56.9083979,11.4241384 56.720661,11.7033368 C56.5329241,11.9825353 56.3427832,12.2737638 56.1502325,12.5770311 C55.9576819,12.8802983 55.781982,13.1763405 55.6231277,13.4651665 C55.4642735,13.7539925 55.3343037,14.0211525 55.2332146,14.2666546 C55.1321255,14.5121566 55.0815818,14.7215523 55.0815818,14.8948479 C55.0815818,15.1836739 55.2115515,15.3280847 55.4714949,15.3280847 C55.7506933,15.3280847 56.0515492,15.1860807 56.3740715,14.9020685 C56.6965939,14.6180563 57.0167045,14.2642498 57.3344131,13.8406384 C57.5654739,13.5325573 57.7917175,13.2052261 58.0131507,12.858635 C58.234584,12.5120438 58.439166,12.1798989 58.6269029,11.8621903 C58.8146398,11.5444818 58.9807122,11.2556601 59.1251252,10.9957167 C59.2695382,10.7357734 59.3850668,10.5384119 59.4717146,10.4036265 L61.53681,10.3314203 Z M65.681442,10.6780098 L65.7825306,10.4469501 L66.9811524,10.4469501 L68.2086567,8.35297228 L70.2159872,8.28076615 L68.9162768,10.4469501 L70.8947248,10.4469501 L70.779195,10.6780098 L68.7863058,10.6780098 C68.6515203,10.9090705 68.4661931,11.2123333 68.2303185,11.587807 C67.994444,11.9632808 67.7609798,12.35319 67.529919,12.7575464 C67.2988583,13.1619028 67.0966831,13.551812 66.9233875,13.9272857 C66.7500919,14.3027595 66.6634455,14.6108359 66.6634455,14.8515242 C66.6634455,15.0151923 66.7091755,15.1355346 66.8006371,15.2125549 C66.8920987,15.2895752 67.0196616,15.3280847 67.1833296,15.3280847 C67.4336455,15.3280847 67.6983986,15.2582861 67.9775971,15.1186869 C68.2567955,14.9790877 68.5383966,14.7985742 68.8224088,14.5771409 C69.106421,14.3557077 69.3808016,14.1078024 69.6455587,13.8334178 C69.9103159,13.5590331 70.160628,13.2870594 70.3965025,13.0174885 C70.6323771,12.7479176 70.8465865,12.4951986 71.0391371,12.2593241 C71.2316878,12.0234495 71.385726,11.8333086 71.5012564,11.6888956 L71.6167862,11.7466605 C71.2894501,12.1317618 70.9428641,12.5553669 70.5770179,13.0174885 C70.2111716,13.47961 69.8164487,13.9104356 69.3928373,14.3099782 C68.9692258,14.7095208 68.5119249,15.0416657 68.0209208,15.3064229 C67.5299166,15.57118 66.9955966,15.7035566 66.4179446,15.7035566 C65.9750781,15.7035566 65.6453401,15.5856211 65.4287206,15.3497466 C65.2121011,15.113872 65.103793,14.8082024 65.103793,14.4327287 C65.103793,14.240178 65.1302683,14.0500371 65.1832197,13.8623002 C65.2361712,13.6745633 65.3300382,13.443506 65.4648237,13.1691213 C65.5996091,12.8947367 65.7777158,12.5601849 65.999149,12.1654561 C66.2205823,11.7707273 66.5045902,11.2749168 66.8511814,10.6780098 L65.681442,10.6780098 Z M79.3139599,11.8188667 C79.2754498,11.8573768 79.2128718,11.9223617 79.126224,12.0138232 C79.0395762,12.1052848 78.9312681,12.196745 78.8012964,12.2882065 C78.6713247,12.3796681 78.524507,12.4615009 78.360839,12.5337074 C78.1971709,12.6059139 78.0190642,12.6420166 77.8265136,12.6420166 C77.5761977,12.6420166 77.352361,12.5818454 77.1549966,12.4615012 C76.9576321,12.3411571 76.7771186,12.1798983 76.6134506,11.9777202 L76.5845681,11.9777202 C76.5845681,12.4783518 76.4666326,12.9549076 76.2307581,13.4074016 C75.9948835,13.8598956 75.6819934,14.2570254 75.2920783,14.5988028 C74.9021633,14.9405802 74.4568966,15.210147 73.9562649,15.4075115 C73.4556332,15.6048759 72.9357542,15.7035566 72.3966124,15.7035566 C72.0789038,15.7035566 71.7708274,15.6698607 71.4723739,15.602468 C71.1739204,15.5350753 70.9091672,15.4243603 70.6781064,15.2703198 C70.4470457,15.1162793 70.2617184,14.9141041 70.1221192,14.6637883 C69.98252,14.4134724 69.9127214,14.105396 69.9127214,13.7395498 C69.9127214,13.1907804 70.0426912,12.69497 70.3026345,12.2521035 C70.5625779,11.809237 70.8971297,11.431362 71.3062998,11.1184672 C71.7154699,10.8055724 72.1775846,10.5672945 72.6926575,10.4036265 C73.2077305,10.2399584 73.7155753,10.1581256 74.2162069,10.1581256 C74.6301908,10.1581256 74.9719631,10.2158899 75.241534,10.3314203 C75.5111049,10.4469507 75.7397554,10.5889547 75.9274923,10.7574365 C76.1152292,10.9259183 76.2740811,11.1112455 76.4040528,11.3134237 C76.5340245,11.5156019 76.6639942,11.7009291 76.7939659,11.869411 C76.9239376,12.0378928 77.0683484,12.1798967 77.2272027,12.2954271 C77.386057,12.4109575 77.5858253,12.4687219 77.8265136,12.4687219 C78.0479468,12.4687219 78.2765973,12.403737 78.5124718,12.2737653 C78.7483464,12.1437936 78.9769969,11.9536527 79.1984301,11.7033368 L79.3139599,11.8188667 Z M74.4472666,10.3314203 C74.2162058,10.3314203 73.9827416,10.4108463 73.7468671,10.5697006 C73.5109925,10.7285548 73.2823421,10.9355437 73.0609088,11.1906733 C72.8394756,11.4458029 72.6324867,11.7346246 72.4399361,12.0571469 C72.2473854,12.3796692 72.0789061,12.7045936 71.9344932,13.0319297 C71.7900802,13.3592658 71.6769584,13.6769696 71.5951243,13.9850506 C71.5132903,14.2931317 71.4723739,14.5626986 71.4723739,14.7937593 C71.4723739,15.0151926 71.5229177,15.1932993 71.6240068,15.3280847 C71.7250959,15.4628702 71.8670998,15.5302619 72.050023,15.5302619 C72.2810837,15.5302619 72.5145479,15.4508359 72.7504225,15.2919816 C72.986297,15.1331274 73.2149475,14.9261385 73.4363807,14.6710089 C73.657814,14.4158793 73.8648028,14.1270577 74.0573535,13.8045353 C74.2499041,13.482013 74.4183834,13.1570886 74.5627964,12.8297525 C74.7072094,12.5024164 74.8203312,12.1823058 74.9021652,11.869411 C74.9839992,11.5565161 75.0249156,11.2893561 75.0249156,11.0679229 C75.0249156,10.8464896 74.9743718,10.6683829 74.8732828,10.5335975 C74.7721937,10.398812 74.6301897,10.3314203 74.4472666,10.3314203 Z M76.5268032,15.5302619 L79.5161371,10.4180677 L81.5667913,10.3314203 C80.8736089,11.2941736 80.2093191,12.2761672 79.573902,13.2774305 L79.6027845,13.306313 C79.8531003,12.9886044 80.1322946,12.6468321 80.4403756,12.2809859 C80.7484566,11.9151397 81.073381,11.5757742 81.4151584,11.2628794 C81.7569358,10.9499846 82.1083355,10.6876383 82.4693679,10.4758326 C82.8304004,10.2640269 83.1890206,10.1581256 83.5452393,10.1581256 C83.9110855,10.1581256 84.2167551,10.2519926 84.4622572,10.4397295 C84.7077593,10.6274664 84.8305085,10.9138812 84.8305085,11.2989825 C84.8305085,11.6166911 84.7318277,11.9440223 84.5344633,12.2809859 C84.3370989,12.6179495 84.1180758,12.9476876 83.8773875,13.2702099 C83.6366992,13.5927323 83.4176761,13.9008087 83.2203117,14.1944484 C83.0229473,14.4880882 82.9242666,14.7456208 82.9242666,14.967054 C82.9242666,15.0633294 82.9507419,15.147569 83.0036933,15.2197755 C83.0566447,15.291982 83.1408844,15.3280847 83.2564148,15.3280847 C83.4682205,15.3280847 83.7089052,15.229404 83.9784761,15.0320396 C84.248047,14.8346752 84.5272413,14.5915836 84.8160672,14.3027576 C85.0375005,14.0813244 85.2589304,13.8430465 85.4803637,13.5879169 C85.7017969,13.3327873 85.9087858,13.0872889 86.1013364,12.8514144 C86.2938871,12.6155398 86.46718,12.3989236 86.6212206,12.2015592 C86.7752611,12.0041947 86.8956034,11.8477497 86.9822512,11.7322193 L87.1122223,11.8044254 C86.7848862,12.2376644 86.4358933,12.6853379 86.0652333,13.1474595 C85.6945733,13.6095811 85.3215121,14.0331861 84.9460383,14.4182874 C84.5513095,14.8226438 84.1686208,15.1379408 83.7979608,15.3641878 C83.4273008,15.5904348 83.0494258,15.7035566 82.6643245,15.7035566 C82.2310855,15.7035566 81.9061612,15.5759937 81.6895417,15.3208641 C81.4729222,15.0657345 81.3646141,14.7359964 81.3646141,14.3316401 C81.3646141,13.9850489 81.4584811,13.6553109 81.646218,13.3424161 C81.8339549,13.0295213 82.0433506,12.7358859 82.2744114,12.4615012 C82.5054721,12.1871166 82.7148678,11.9343976 82.9026047,11.7033368 C83.0903416,11.4722761 83.1842086,11.2556598 83.1842086,11.0534817 C83.1842086,10.7839107 83.0542389,10.6491273 82.7942955,10.6491273 C82.6209999,10.6491273 82.4091974,10.7381806 82.1588816,10.91629 C81.9085657,11.0943993 81.6389988,11.3278635 81.3501729,11.6166895 C81.0613469,11.9055155 80.7677116,12.228033 80.469258,12.5842517 C80.1708045,12.9404704 79.8892034,13.2966837 79.6244463,13.6529024 C79.3596892,14.0091211 79.1286318,14.3460797 78.9312674,14.6637883 C78.733903,14.9814969 78.5870853,15.2414363 78.49081,15.4436145 L76.5268032,15.5302619 Z" id="newton" fill="#FFFFFF"></path>
                    <g id="Page-1" transform="translate(0.749311, 0.000000)">
                        <path d="M32.6825299,12.8731484 C33.1644477,13.1740142 33.0020334,13.4282858 32.1952871,13.6372943 C31.8944213,13.7145077 31.8731211,13.8103587 31.8771148,13.9607916 C31.8864337,14.3481896 31.842502,14.5252478 30.9225981,14.6756807 C30.5791319,14.7302625 30.3807735,14.84342 30.4060675,14.9698902 C30.479287,15.3093626 30.0186695,15.5197024 29.0268774,15.6009096 C28.6567858,15.6328599 28.3892016,15.7300422 28.335951,15.8551811 C28.194837,16.191991 27.6130744,16.3663867 26.5919944,16.3770368 C26.2099215,16.3823619 25.8877555,16.4595752 25.7572915,16.5780578 C25.407169,16.89623 24.7295553,17.0280252 23.7244505,16.9681183 C23.3463714,16.9468181 22.9829361,17.0000686 22.7819152,17.1079011 C22.2387592,17.394123 21.4945823,17.4753301 20.5480532,17.34886 C20.1926056,17.3009344 19.8025451,17.328891 19.5376234,17.419417 C18.8280594,17.6630384 18.0506009,17.690995 17.2025853,17.5019554 C16.8870756,17.4300671 16.486365,17.4300671 16.1708553,17.5019554 C15.3228397,17.690995 14.5440499,17.6630384 13.8344859,17.419417 C13.5708955,17.328891 13.1795037,17.3009344 12.8253874,17.34886 C11.877527,17.4753301 11.1333501,17.394123 10.5915254,17.1079011 C10.3905044,17.0000686 10.0244067,16.9468181 9.64899006,16.9681183 C8.64255403,17.0280252 7.96494036,16.89623 7.61614903,16.5780578 C7.4856851,16.4595752 7.16218781,16.3823619 6.78144614,16.3770368 C5.75903494,16.3663867 5.17860358,16.191991 5.03615827,15.8551811 C4.98290768,15.7300422 4.7153235,15.6328599 4.34523195,15.6009096 C3.35343983,15.5197024 2.89415355,15.3093626 2.96604184,14.9698902 C2.99266713,14.84342 2.7943087,14.7302625 2.45084244,14.6756807 C1.53093861,14.5252478 1.21143511,14.2882827 1.49632573,13.9607916 C1.60016437,13.8409778 1.47901929,13.7145077 1.1781535,13.6372943 C0.371407158,13.4282858 0.207661613,13.1740142 0.690910658,12.8731484 C0.869300113,12.7626535 0.826699646,12.6308583 0.583078227,12.5350072 C-0.0772290079,12.2740794 -0.0772290079,12.0144828 0.583078227,11.7535549 C0.826699646,11.6577039 0.869300113,11.5272399 0.689579394,11.4154137 C0.206330349,11.1158792 0.371407158,10.8602764 1.1781535,10.6512678 C1.47901929,10.5740545 1.60016437,10.4489156 1.49632573,10.3277705 C1.21143511,10.0016107 1.53093861,9.76331436 2.45084244,9.61421273 C2.7943087,9.55963088 2.99266713,9.44514212 2.96604184,9.32000325 C2.89415355,8.98053078 3.35343983,8.76885971 4.34523195,8.68765257 C4.7153235,8.65703349 4.98290768,8.55851991 5.034827,8.4347123 C5.17860358,8.09790236 5.75903494,7.9235067 6.78144614,7.91152532 C7.16218781,7.90753153 7.4856851,7.82898692 7.61614903,7.71183563 C7.96494036,7.39233213 8.64255403,7.2618682 9.64899006,7.32044385 C10.0244067,7.34307534 10.3905044,7.28982476 10.5915254,7.18199233 C11.1333501,6.89443918 11.877527,6.81323204 12.8253874,6.93970217 C13.1795037,6.9876277 13.5708955,6.96100241 13.8344859,6.86914515 C14.5440499,6.62552373 15.3228397,6.59889844 16.1708553,6.78793801 C16.486365,6.85849503 16.8857443,6.85849503 17.2025853,6.78793801 C18.0492696,6.59889844 18.8280594,6.62552373 19.5376234,6.86914515 C19.8025451,6.96100241 20.1926056,6.9876277 20.5480532,6.93970217 C21.4959136,6.81323204 22.2387592,6.89443918 22.7819152,7.18199233 C22.9829361,7.28982476 23.3463714,7.34307534 23.7244505,7.32044385 C24.7295553,7.2618682 25.407169,7.39233213 25.7572915,7.71183563 C25.8877555,7.82898692 26.2099215,7.90753153 26.5919944,7.91152532 C27.6130744,7.9235067 28.194837,8.09790236 28.335951,8.4347123 C28.3892016,8.55851991 28.6940612,8.66901487 29.0268774,8.68765257 C29.7630667,8.72759051 30.1930651,8.93926158 30.4060675,9.32000325 C30.4712994,9.43449201 30.5724756,9.62086905 30.9212669,9.61421273 C31.5975493,9.60356261 32.1593429,10.0016107 31.8771148,10.3277705 C31.7706137,10.4489156 31.8811086,10.6379552 32.1952871,10.6512678 C32.8183189,10.6778931 33.1644477,11.1158792 32.6825299,11.4154137 C32.5041405,11.5272399 32.5454097,11.6577039 32.7903624,11.7535549 C33.4493383,12.0144828 33.4506696,12.2740794 32.7903624,12.5350072 C32.5454097,12.6308583 32.5041405,12.7626535 32.6825299,12.8731484 Z" id="Stroke-1" stroke="#FFFFFF" stroke-width="0.722061328"></path>
                        <path d="M17.6845344,2.7028195 C18.2915911,2.63359374 18.9518983,2.22223299 19.0876873,1.47539355 C19.2208138,0.727222857 18.4526741,0.295893132 17.3983125,0.387750388 C15.2376701,0.575458695 14.2072713,2.56703052 13.425819,4.59854027 C13.2008353,5.18429669 12.9971518,5.77271564 12.7921371,6.32252791 C11.2225761,10.5452992 9.57447056,15.6307299 8.84094378,19.591242 C8.69051088,20.405976 8.75441158,21.3485113 7.91305236,22.0394376 C6.74287079,21.8983236 7.20881339,21.2925982 6.08256355,21.4017619 C4.31863798,21.5721637 4.21080555,23.7061809 5.44755035,23.9138581 C5.83095455,23.9777588 6.16776449,23.9511336 6.64036342,23.8446324 C8.93546356,23.3241079 9.78880416,20.8399682 10.714033,18.3611536 C12.4433457,13.724359 13.8371798,9.16078401 14.8063404,4.64380327 C14.8103342,4.62782809 14.8129967,4.61052165 14.8169905,4.59454648 C14.9887236,3.76783117 15.156463,2.35935324 15.8127764,2.19427643 C16.4517834,2.03452468 16.7406678,2.8119832 17.6845344,2.7028195" id="Fill-3" fill="#FFFFFF"></path>
                        <g id="Group-7" transform="translate(14.049148, 0.230943)" fill="#FFFFFF">
                            <path d="M12.9932442,0.122593806 C10.8326017,0.310302113 9.80220295,2.30187393 9.02075064,4.33471496 C8.79576692,4.92047137 8.59075217,5.50755906 8.38706869,6.05737133 C6.81617648,10.2801426 5.16940219,15.3655733 4.4358754,19.3260855 C4.2854425,20.1408194 4.3493432,21.084686 3.50798399,21.774281 C2.33780242,21.6344982 2.80374502,21.0274416 1.67749518,21.1366053 C-0.0864303955,21.3083384 -0.194262827,23.4410243 1.04115071,23.6487016 C1.42588617,23.7126023 1.76269611,23.6873082 2.23529504,23.5808071 C4.53039519,23.0589514 5.38373579,20.5748116 6.30896467,18.095997 C8.03827737,13.4605337 9.43211139,8.89562743 10.401272,4.37864669 C10.4052658,4.36267151 10.4079283,4.34536507 10.4119221,4.3293899 C10.582324,3.50267459 10.7500633,2.09419666 11.4090393,1.92911985 C12.046715,1.7693681 12.3342682,2.54682662 13.279466,2.43766292 C13.887854,2.36843716 14.5468299,1.95707641 14.6826189,1.21156824 C14.8157454,0.462066276 14.0476057,0.0320678146 12.9932442,0.122593806" id="Fill-5"></path>
                        </g>
                    </g>
                </g>
            </g>
        </g>
    </g>
</svg>