<?xml version="1.0" encoding="UTF-8"?>
<svg width="296px" height="222px" viewBox="0 0 296 222" version="1.1" xmlns="http://www.w3.org/2000/svg" xmlns:xlink="http://www.w3.org/1999/xlink">
    <!-- Generator: Sketch 49 (51002) - http://www.bohemiancoding.com/sketch -->
    <title>公告</title>
    <desc>Created with Sketch.</desc>
    <defs></defs>
    <g id="Page-1" stroke="none" stroke-width="1" fill="none" fill-rule="evenodd">
        <g id="牛顿社区" transform="translate(-391.000000, -88.000000)" fill="#E9C543" fill-rule="nonzero">
            <g id="Bitmap" transform="translate(0.000000, 50.000000)">
                <g id="用户-(3)" transform="translate(391.000000, 38.000000)">
                    <g id="公告">
                        <path d="M283.7688,106.3752 L226.814933,106.3752 C220.353333,106.3752 215.119733,111.6368 215.119733,118.1168 L215.119733,121.7816 C215.119733,128.270933 220.3536,133.5232 226.814933,133.5232 L283.7688,133.5232 C290.2304,133.5232 295.464,128.270933 295.464,121.7816 L295.464,118.1168 C295.464,111.6368 290.230133,106.3752 283.7688,106.3752 Z M204.218133,61.0984 C207.245867,66.4336 213.236533,67.7722667 217.612,64.0890667 L264.4304,24.6274667 C268.8056,20.9445333 269.8952,13.6336 266.876533,8.28906667 L265.159467,5.27066667 C262.141067,-0.0645333333 256.141067,-1.4032 251.774667,2.28 L204.956267,41.7322667 C200.581067,45.4245333 199.4824,52.7352 202.510133,58.0706667 L204.217867,61.0984 L204.218133,61.0984 Z M217.602667,176.012267 C213.227467,172.329333 207.236533,173.667467 204.2088,178.993867 L202.501067,182.012267 C199.473333,187.347467 200.581067,194.6584 204.9472,198.350667 L251.7656,237.802933 C256.1408,241.485867 262.131733,240.147733 265.1504,234.821333 L266.867467,231.802933 C269.885867,226.467733 268.787467,219.1568 264.421333,215.464533 L217.602933,176.012267 L217.602667,176.012267 Z" id="Shape"></path>
                        <path d="M165.056114,23.0267437 C165.054159,23.0278485 165.052208,23.0289533 165.050263,23.030058 C165.023266,23.0453861 165.077192,23.0094129 165.293913,22.8374769 C165.215679,22.90037 165.13604,22.9635203 165.056114,23.0267437 Z M153.4728,31.4088812 L153.4728,18.4610667 C153.4728,17.0201254 153.373085,16.0553151 153.259355,15.5746466 C153.270958,15.6236824 153.317401,15.7693083 153.414611,16.0033654 C153.595615,16.4391769 153.856761,16.932037 154.209739,17.4602402 C156.209058,20.452055 159.689841,22.470316 163.073219,22.8554234 C163.995982,22.9604554 164.726755,22.931668 165.293913,22.8374769 C165.294958,22.8366483 160.737342,17.0918004 151.621067,5.60293333 C156.71804,1.55623957 173.616796,-5.88934318 175.33201,14.8558536 L165.31394,22.8222602 C165.531029,22.7959625 165.574101,22.783579 165.535596,22.7984405 C165.386407,22.8560229 165.207089,22.9414381 165.056114,23.0267437 C161.755236,25.6378292 157.965872,28.3736948 153.4728,31.4088812 Z M140.927509,39.5466198 C134.98706,43.2841228 112.873757,56.8263201 112.222226,57.2289499 C104.293129,62.1289258 97.9893016,66.1296181 92.2589242,69.9329459 C89.993584,71.4364824 87.8497727,72.8889878 85.8188414,74.2977442 C84.6491938,75.633292 83.3003058,76.8769149 81.6232464,78.0113915 C80.8360649,78.6697858 78.940123,80.1903909 77.5554751,81.1214544 C69.9824029,86.2137317 60.5758561,88.5168 47.5069333,88.5168 L22.1805333,88.5168 L22.1805333,151.602674 L47.680853,151.602696 C60.6978405,151.62387 70.0659282,153.927045 77.6075598,159.009424 C78.965217,159.924362 80.8328342,161.424074 81.6480553,162.105512 C83.4462659,163.314228 84.8388395,164.617476 86.0250301,166.023575 C90.5633411,169.280269 95.6771594,172.780975 101.471807,176.613285 C105.422747,179.226253 109.660185,181.974251 114.459492,185.043153 C119.466421,188.244818 137.831787,199.8411 141.735477,202.335171 C146.196899,205.185577 150.062343,207.694162 153.4728,209.963586 L153.4728,31.4088812 C149.800342,33.8897214 145.657753,36.5705311 140.927509,39.5466198 Z M89.419322,171.274796 C89.4210374,171.278299 89.4228204,171.28194 89.4246812,171.28574 C89.4226848,171.28167 89.4202937,171.276817 89.4172546,171.270707 L89.419322,171.274796 Z M130.91844,19.8483055 L151.621067,5.60286683 C156.993252,1.33786912 175.4728,-6.70162917 175.4728,18.4610038 L175.4728,221.538128 C175.4728,246.692269 157.140533,239.538133 151.629867,235.467465 C133.325333,221.962928 96.0053333,200.676522 70.1682667,181.698117 C69.8173333,181.495183 69.5221333,180.44265 69.2173333,180.26745 C66.0789333,178.494916 64.6944,173.630381 47.6450667,173.602648 L14.0821333,173.602648 C5.06346667,173.602648 0.180533333,169.134913 0.180533333,160.079711 L0.180533333,79.5874212 C0.180533333,70.5319519 5.50693333,66.5167508 14.0821333,66.5167508 L47.5069333,66.5167508 C64.6392,66.5167508 66.0514667,61.6151494 69.2085333,59.8428822 C69.5130667,59.6676822 69.8176,58.6154152 70.1224,58.4306152 C88.7209598,45.2070147 112.314522,31.6310383 130.91844,19.8483055 Z" id="Path"></path>
                    </g>
                </g>
            </g>
        </g>
    </g>
</svg>