<?xml version="1.0" encoding="UTF-8"?>
<svg width="284px" height="212px" viewBox="0 0 284 212" version="1.1" xmlns="http://www.w3.org/2000/svg" xmlns:xlink="http://www.w3.org/1999/xlink">
    <!-- Generator: sketchtool 49 (51002) - http://www.bohemiancoding.com/sketch -->
    <title>8845718A-960B-4402-9B81-2469DBBD1CAB</title>
    <desc>Created with sketchtool.</desc>
    <defs></defs>
    <g id="Page-1" stroke="none" stroke-width="1" fill="none" fill-rule="evenodd">
        <g id="牛顿社区" transform="translate(-375.000000, -98.000000)" fill-rule="nonzero" stroke="#5A6E66" stroke-width="17">
            <g id="Bitmap" transform="translate(0.000000, 50.000000)">
                <g id="facebook-(1)" transform="translate(384.000000, 46.000000)">
                    <path d="M212.640567,251 C214.125133,251 215.441786,250.74359 216.648247,250.210162 C220.530582,248.473802 223.349825,244.122805 224.809324,236.560162 L265.014272,33.0091852 C267.44113,22.4610312 265.111522,16.4421247 261.02689,13.2200695 C257.678572,10.5650917 253.014056,10.2051417 247.95109,12.6087001 L12.3753434,110.37827 C2.66921076,114.591109 -0.217819204,118.822423 0.0125913338,122.648652 C0.191668934,125.899734 3.23059404,128.964404 9.49206176,130.903458 L69.8842771,151.509552 L174.140655,80.5867638 C177.191237,78.5115357 181.294406,78.9267898 183.865933,81.5709935 C186.788172,84.575822 186.717569,89.3771141 183.708236,92.2949795 L104.161028,169.424379 L100.035488,236.48764 C104.984197,236.472516 107.46073,234.900848 112.207269,229.791683 L141.610601,199.13232 L203.139343,247.98031 C206.437402,249.893962 209.734898,251 212.640567,251 Z" id="Shape"></path>
                </g>
            </g>
        </g>
    </g>
</svg>