<?xml version="1.0" encoding="UTF-8"?>
<svg width="263px" height="226px" viewBox="0 0 263 226" version="1.1" xmlns="http://www.w3.org/2000/svg" xmlns:xlink="http://www.w3.org/1999/xlink">
    <!-- Generator: sketchtool 49 (51002) - http://www.bohemiancoding.com/sketch -->
    <title>444ED22B-57B2-4926-98DE-E0E2CB08DCD4</title>
    <desc>Created with sketchtool.</desc>
    <defs></defs>
    <g id="Page-1" stroke="none" stroke-width="1" fill="none" fill-rule="evenodd">
        <g id="牛顿经济体" transform="translate(-423.000000, -84.000000)" fill-rule="nonzero">
            <g id="Bitmap" transform="translate(0.000000, 50.000000)">
                <g id="用户-(3)" transform="translate(423.000000, 34.000000)">
                    <path d="M309.717209,176.672566 L309.717209,176.60177 L309.717209,176.672566 Z M309.717209,176.566372 L309.717209,176.460177 L309.717209,176.566372 Z M309.717209,176.283186 L309.717209,176.212389 L309.717209,176.283186 Z M309.717209,176.460177 L309.717209,176.318584 L309.717209,176.460177 Z M68.1432558,122.477876 C84.9693023,122.477876 98.9674419,110.40708 102.007442,94.4424779 C97.2,85.840708 94.4427907,75.9646018 94.3013953,65.4867257 C87.9739535,58.0884956 78.6065116,53.4159292 68.1432558,53.4159292 C49.0902326,53.4159292 33.6427907,68.8849558 33.6427907,87.9646018 C33.6427907,107.00885 49.0902326,122.477876 68.1432558,122.477876 Z M57.6093023,165.451327 C61.4269767,153.699115 70.4762791,142.761062 81.5051163,135.362832 C77.2986047,136.460177 72.8446512,137.026549 68.2139535,137.026549 C60.7906977,137.026549 53.7562791,135.539823 47.6055814,132.884956 C45.52,132 43.1869767,130.654867 43.1869767,130.654867 C42.3032558,130.159292 40.8186047,129.769912 39.8288372,129.80531 L37.0362791,129.840708 C25.7246512,131.327434 13.8827907,141.380531 10.4539535,152.212389 C10.4539535,152.212389 6.84837209,159.539823 6.31813953,173.946903 C6.2827907,175.823009 7.8027907,178.19469 9.71162791,179.221239 C9.71162791,179.221239 23.5330233,188.070796 51.4586047,190.79646 C53.1906977,175.964602 56.7255814,167.433628 57.6093023,165.451327 Z" id="Shape" stroke="#515769" stroke-width="11" opacity="0.5"></path>
                    <path d="M154.924651,236 C93.5237209,236 61.9925581,217.415929 58.8818605,215.469027 C54.0390698,212.814159 50.5748837,207.256637 50.6455814,202.123894 L50.6455814,202.017699 C51.4232558,180.283186 56.5134884,167.929204 57.6446512,165.451327 C63.9013953,146.053097 84.4744186,128.849558 104.587907,126.159292 L105.259535,126.123894 L109.713488,126.088496 C112.293953,126.053097 115.687442,126.867257 117.949767,128.176991 C118.020465,128.212389 121.449302,130.19469 124.453953,131.469027 C133.821395,135.504425 144.461395,137.628319 155.172093,137.628319 C166.024186,137.628319 176.416744,135.539823 185.996279,131.39823 C188.965581,130.159292 192.288372,128.212389 192.323721,128.212389 L192.500465,128.106195 C194.692093,126.938053 198.050233,126.088496 200.524651,126.088496 L205.473488,126.123894 L205.862326,126.19469 C226.046512,129.168142 246.831628,146.973451 252.487442,166.017699 C253.653953,168.637168 258.496744,180.566372 259.203721,201.946903 L259.203721,202.19469 L259.345116,202.19469 L259.345116,202.336283 L259.203721,202.336283 L259.203721,202.40708 L259.345116,202.40708 L259.345116,202.619469 L259.203721,202.619469 L259.345116,202.619469 L259.345116,202.79646 L259.203721,202.79646 L259.203721,202.831858 L259.345116,202.831858 L259.203721,202.831858 C258.92093,207.504425 255.421395,212.99115 251.03814,215.469027 C248.174884,217.238938 216.643721,236 154.924651,236 Z M61.8865116,202.300885 C61.9218605,203.00885 62.9469767,204.884956 64.2902326,205.59292 L64.7144186,205.840708 C64.9972093,206.017699 95.1144186,224.707965 154.889302,224.707965 C214.699535,224.707965 244.781395,206.017699 245.099535,205.840708 L245.453023,205.628319 C246.584186,205.026549 247.821395,203.044248 247.962791,202.19469 C247.220465,181.132743 242.20093,170.548673 242.165581,170.442478 L241.953488,169.982301 L241.812093,169.486726 C237.570233,154.513274 220.567442,139.893805 204.589767,137.345133 L200.453953,137.309735 C199.888372,137.309735 198.43907,137.663717 197.802791,137.982301 C197.095814,138.371681 193.666977,140.318584 190.379535,141.699115 C179.421395,146.442478 167.544186,148.849558 155.136744,148.849558 C142.906047,148.849558 130.781395,146.40708 120,141.769912 C116.394419,140.212389 112.541395,137.982301 112.364651,137.911504 C111.905116,137.663717 110.526512,137.309735 109.925581,137.309735 L109.819535,137.309735 L105.683721,137.345133 C90.024186,139.575221 72.9153488,154.088496 68.1786047,169.168142 L68.0372093,169.59292 L67.8604651,169.982301 C67.8251163,170.053097 62.6288372,181.061947 61.8511628,202.19469 L61.8865116,202.230088 L61.8511628,202.230088 C61.8865116,202.230088 61.8865116,202.265487 61.8865116,202.300885 Z M155.030698,125.663717 C121.555349,125.663717 94.3013953,98.3716814 94.3013953,64.8495575 C94.3013953,31.3274336 121.555349,4.03539823 155.030698,4.03539823 C188.506047,4.03539823 215.76,31.3274336 215.76,64.8495575 C215.724651,98.3716814 188.506047,125.663717 155.030698,125.663717 Z M155.030698,15.3274336 C127.741395,15.3274336 105.577674,37.5575221 105.577674,64.8495575 C105.577674,92.1769912 127.776744,114.371681 155.030698,114.371681 C182.32,114.371681 204.483721,92.1415929 204.483721,64.8495575 C204.483721,37.5221239 182.284651,15.3274336 155.030698,15.3274336 Z" id="Shape" fill="#515769"></path>
                    <path d="M154.924651,239.893805 C92.5693023,239.893805 60.295814,220.955752 56.8316279,218.79646 C50.8930233,215.575221 46.6511628,208.637168 46.7572093,202.053097 C47.5348837,180.283186 52.3776744,167.681416 54.0037209,164.035398 C60.7553488,143.433628 82.7069767,125.132743 104.093023,122.300885 L105.012093,122.230088 L109.67814,122.159292 C112.930233,122.123894 117.030698,123.115044 119.858605,124.743363 C119.929302,124.778761 123.216744,126.654867 125.973953,127.858407 C134.88186,131.681416 144.956279,133.699115 155.136744,133.699115 C165.458605,133.699115 175.32093,131.716814 184.405581,127.787611 C187.162791,126.619469 190.308837,124.814159 190.344186,124.814159 L190.591628,124.672566 C193.419535,123.150442 197.378605,122.19469 200.489302,122.19469 L206.392558,122.336283 C228.096744,125.522124 249.871628,144.106195 256.128372,164.637168 C257.613023,168.035398 261.854884,179.185841 262.950698,198.265487 L263.127442,198.265487 L263.268837,206.513274 L262.491163,206.548673 C261.077209,211.504425 257.436279,216.353982 252.946977,218.867257 C249.624186,220.920354 217.492093,239.893805 154.924651,239.893805 Z M109.925581,129.946903 L109.784186,129.946903 L104.870698,130.017699 C86.3832558,132.460177 67.1888372,148.566372 61.3562791,166.619469 L61.2148837,167.044248 C60.2251163,169.20354 55.3469767,181.026549 54.5693023,202.123894 C54.4986047,205.840708 57.1851163,210.088496 60.7553488,212.035398 C64.2195349,214.19469 94.7609302,232.070796 154.96,232.070796 C215.335814,232.070796 245.735814,214.159292 248.987907,212.106195 C252.310698,210.230088 255.067907,206.017699 255.350698,202.654867 L255.350698,202.123894 C254.643721,181.168142 249.906977,169.663717 248.952558,167.539823 L248.775814,167.044248 C243.508837,149.380531 224.031628,132.743363 205.296744,129.982301 L205.190698,129.982301 L200.489302,129.946903 C198.686512,129.946903 195.964651,130.619469 194.338605,131.504425 C194.126512,131.610619 190.697674,133.59292 187.516279,134.938053 C177.477209,139.292035 166.589767,141.486726 155.172093,141.486726 C143.931163,141.486726 132.796279,139.256637 122.933953,135.00885 C119.717209,133.628319 116.04093,131.504425 116.005581,131.504425 C114.414884,130.619469 111.834419,129.946903 109.925581,129.946903 Z M154.924651,228.637168 C94.0539535,228.637168 62.9469767,209.345133 62.664186,209.168142 L62.3460465,208.99115 C60.7553488,208.176991 59.4474419,206.548673 58.7051163,204.955752 L57.9627907,204.60177 L58.0334884,202.017699 C58.0688372,201.274336 58.104186,200.566372 58.1395349,199.858407 L58.2102326,198.371681 C59.4474419,179.00885 64.2195349,168.814159 64.4316279,168.353982 L64.5376744,168.070796 C69.7339535,151.504425 87.9739535,136.035398 105.188837,133.557522 L105.71907,133.522124 L109.854884,133.486726 C111.19814,133.522124 113.213023,133.946903 114.308837,134.584071 C114.733023,134.831858 118.303256,136.849558 121.555349,138.265487 C131.84186,142.690265 143.471628,145.026549 155.172093,145.026549 C167.049302,145.026549 178.396279,142.725664 188.859535,138.19469 C191.970233,136.884956 195.257674,135.00885 195.893953,134.654867 C197.131163,134.017699 199.181395,133.486726 200.489302,133.486726 L205.226047,133.59292 C222.794419,136.389381 240.893023,152.035398 245.594419,168.530973 L245.700465,168.849558 C246.266047,170.088496 251.179535,181.026549 251.92186,202.159292 L251.92186,202.513274 L251.851163,202.867257 C251.568372,204.849558 249.624186,207.929204 247.36186,209.168142 L247.149767,209.309735 C246.902326,209.345133 215.936744,228.637168 154.924651,228.637168 Z M73.9051163,206.088496 C85.9590698,211.433628 113.106977,220.814159 154.924651,220.814159 C213.073488,220.814159 242.766512,202.725664 243.049302,202.513274 L243.473488,202.265487 C243.614884,202.159292 243.862326,201.840708 244.03907,201.557522 C243.261395,182.123894 238.666047,172.212389 238.630698,172.106195 L238.065116,170.619469 C234.212093,157.061947 218.764651,143.716814 204.236279,141.274336 L200.418605,141.238938 C200.383256,141.274336 199.817674,141.415929 199.570233,141.486726 C198.545116,142.053097 195.186977,143.929204 191.934884,145.309735 C180.517209,150.265487 168.145116,152.743363 155.207442,152.743363 C142.446512,152.743363 129.791628,150.19469 118.550698,145.345133 C115.192558,143.893805 111.728372,141.946903 110.703256,141.380531 C110.455814,141.309735 110.031628,141.20354 109.854884,141.20354 L106.107907,141.238938 C91.8623256,143.39823 76.3088372,156.672566 72.0316279,170.336283 L71.4660465,171.716814 C71.4306977,171.752212 67.012093,181.486726 65.9516279,199.858407 L73.9051163,206.088496 Z M155.030698,129.557522 C119.39907,129.557522 90.4130233,100.530973 90.4130233,64.8495575 C90.4130233,29.1681416 119.39907,0.14159292 155.030698,0.14159292 C190.662326,0.14159292 219.648372,29.1681416 219.648372,64.8495575 C219.613023,100.530973 190.626977,129.557522 155.030698,129.557522 Z M155.030698,7.96460177 C123.711628,7.96460177 98.1897674,33.4867257 98.1897674,64.8849558 C98.1897674,96.2477876 123.676279,121.80531 155.030698,121.80531 C186.385116,121.80531 211.871628,96.2831858 211.871628,64.8849558 C211.836279,33.4867257 186.349767,7.96460177 155.030698,7.96460177 Z M155.030698,118.300885 C125.620465,118.300885 101.653953,94.3362832 101.653953,64.8495575 C101.653953,35.3628319 125.585116,11.3982301 155.030698,11.3982301 C184.476279,11.3982301 208.407442,35.3628319 208.407442,64.8495575 C208.407442,94.3362832 184.44093,118.300885 155.030698,118.300885 Z M155.030698,19.2212389 C129.897674,19.2212389 109.466047,39.6814159 109.466047,64.8495575 C109.466047,90.0176991 129.897674,110.477876 155.030698,110.477876 C180.163721,110.477876 200.595349,90.0176991 200.595349,64.8495575 C200.595349,39.6814159 180.128372,19.2212389 155.030698,19.2212389 Z" id="Shape" fill="#515769"></path>
                </g>
            </g>
        </g>
    </g>
</svg>