<?xml version="1.0" encoding="UTF-8"?>
<svg width="243px" height="197px" viewBox="0 0 243 197" version="1.1" xmlns="http://www.w3.org/2000/svg" xmlns:xlink="http://www.w3.org/1999/xlink">
    <!-- Generator: sketchtool 49 (51002) - http://www.bohemiancoding.com/sketch -->
    <title>54946618-23F1-4B23-983E-C89D98972318</title>
    <desc>Created with sketchtool.</desc>
    <defs></defs>
    <g id="Page-1" stroke="none" stroke-width="1" fill="none" fill-rule="evenodd">
        <g id="牛顿超级协议头" transform="translate(-277.000000, -113.000000)" fill="#4E80B1">
            <g id="Bitmap" transform="translate(0.000000, 50.000000)">
                <g id="办公室,工作表,纸,文件,笔记本,线性,扁平,填充,单色,简约,圆润" transform="translate(398.500000, 193.000000) scale(1, -1) translate(-398.500000, -193.000000) translate(277.000000, 63.000000)">
                    <path d="M218.262943,0.00800011933 L51.2219806,0.00800011933 C37.6256231,0.00800011933 26.4492264,10.8671266 26.4492261,24.4251589 L26.4492261,46.8419521 L10.4010668,46.8419521 C4.82878928,46.8419521 0.307283923,51.3507124 0.307283612,56.9072828 C0.307283301,62.4638533 4.82878897,66.9726135 10.4010668,66.9726135 L26.4492261,66.9726135 L26.4492261,119.902917 L10.4010668,119.902917 C4.82878928,119.902917 0.307283923,124.411678 0.307283612,129.968248 C0.307283301,135.524818 4.82878897,140.033579 10.4010668,140.033579 L26.4492261,140.033579 L26.4492261,192.360598 L10.4010668,192.360598 C4.82878928,192.360598 0.307283923,196.932862 0.307283612,202.521184 C0.307283301,208.109507 4.82878897,212.68177 10.4010668,212.68177 L26.4492261,212.68177 L26.4492261,235.320827 C26.4492261,248.878859 37.6256228,259.960248 51.2219806,259.960248 L175.425306,259.960248 C178.099999,259.960248 180.679168,258.848934 182.557821,256.975576 L239.851539,199.785776 C241.762034,197.880666 242.749123,195.308768 242.749123,192.641614 L242.749123,24.3934069 C242.780965,10.8671266 231.859301,0.00800011933 218.262943,0.00800011933 Z M46.6686335,235.352578 L46.6686335,212.713522 L63.9904566,212.713522 C69.5627341,212.713522 74.0842395,208.141258 74.0842395,202.552936 C74.0842395,196.964614 69.5627341,192.39235 63.9904566,192.39235 L46.6686335,192.39235 L46.6686335,140.065331 L63.9904566,140.065331 C69.5627341,140.065331 74.0842395,135.55657 74.0842395,130 C74.0842395,124.44343 69.5627341,119.934669 63.9904566,119.934669 L46.6686335,119.934669 L46.6686335,67.0043654 L63.9904566,67.0043654 C69.5627341,67.0043654 74.0842395,62.4956052 74.0842395,56.9390348 C74.0842395,51.3824643 69.5627341,46.8737041 63.9904566,46.8737038 L46.6686335,46.8737038 L46.6686335,24.4569105 C46.6686335,22.0120195 48.8020198,20.2021651 51.2219806,20.2021651 L218.262943,20.2021651 C220.714745,20.2021651 222.593399,22.0437714 222.593399,24.4569105 L222.593399,177.686501 L184.914099,177.686501 C171.317741,177.686501 160.205028,188.609131 160.205028,202.135412 L160.205028,239.861339 L51.2219806,239.861339 C48.7701784,239.861339 46.6686338,237.765718 46.6686335,235.352578 Z M175.317593,240.091385 L175.317593,201.32551 C175.317593,195.669825 178.619571,192.883829 182.535539,192.883829 L223.869149,192.883829 L175.317593,240.091385 Z" id="Shape" fill-rule="nonzero"></path>
                    <path d="M148.525053,166.41034 L149.630549,92.5654794 C149.698564,88.0221839 153.400979,84.3747819 157.944783,84.3747819 C162.401666,84.3747819 166.014684,87.9877994 166.014684,92.4446823 C166.014684,92.4849497 166.014382,92.5252165 166.01378,92.5654794 L164.789867,174.320323 C164.718976,179.055674 160.860052,182.85726 156.124171,182.85726 L148.278834,182.85726 L148.27981,182.792044 L123.045515,182.799657 C118.522492,182.800738 114.854981,179.134978 114.8539,174.611955 C114.8539,174.611303 114.8539,174.610651 114.8539,174.609999 C114.8539,170.085578 118.521095,166.417507 123.045515,166.416426 L148.525053,166.41034 Z" id="Combined-Shape" transform="translate(140.501282, 133.621971) scale(1, -1) rotate(-315.000000) translate(-140.501282, -133.621971) "></path>
                </g>
            </g>
        </g>
    </g>
</svg>