<?xml version="1.0" encoding="UTF-8"?>
<svg width="235px" height="225px" viewBox="0 0 235 225" version="1.1" xmlns="http://www.w3.org/2000/svg" xmlns:xlink="http://www.w3.org/1999/xlink">
    <!-- Generator: sketchtool 49 (51002) - http://www.bohemiancoding.com/sketch -->
    <title>679D469E-F438-413D-84A2-B8263E974311</title>
    <desc>Created with sketchtool.</desc>
    <defs></defs>
    <g id="Page-1" stroke="none" stroke-width="1" fill="none" fill-rule="evenodd">
        <g id="牛顿加入我们" transform="translate(-437.000000, -85.000000)" fill="#994E5D" fill-rule="nonzero">
            <g id="Bitmap" transform="translate(0.000000, 50.000000)">
                <g id="thumb-up" transform="translate(437.000000, 35.000000)">
                    <path d="M233.754656,121.94332 C231.811336,109.311741 222.580567,98.6234818 208.491498,94.2510121 C201.204049,91.8218623 188.08664,88.9068826 177.884211,86.4777328 C196.831579,59.2712551 200.232389,31.5789474 193.430769,15.5465587 C189.0583,5.82995951 181.28502,0 171.082591,0 C149.220243,0 145.819433,19.9190283 140.961134,33.5222672 C137.560324,43.7246964 120.556275,62.1862348 95.2931174,76.2753036 C76.345749,86.9635628 58.3700405,101.052632 57.3983806,101.538462 C54.9692308,103.481781 53.5117409,106.396761 53.5117409,109.797571 L53.5117409,211.821862 C53.5117409,215.222672 54.9692308,218.137652 57.8842105,220.080972 C72.9449393,230.769231 126.872065,240 153.592713,240 C167.681781,240 173.025911,237.57085 175.940891,236.11336 C188.08664,229.311741 204.119028,190.931174 215.778947,158.380567 C229.382186,148.178138 235.697976,135.060729 233.754656,121.94332 Z M200.718219,142.834008 C198.774899,144.291498 197.803239,146.234818 196.831579,148.178138 C186.14332,177.327935 171.082591,211.821862 165.252632,217.651822 C164.280972,218.137652 161.365992,219.109312 153.592713,219.109312 C128.329555,219.109312 89.4631579,211.336032 74.8882591,205.506073 L74.8882591,115.1417 C81.2040486,110.283401 93.3497976,101.538462 105.495547,94.7368421 C132.702024,79.1902834 155.536032,57.8137652 161.365992,40.3238866 C161.851822,38.3805668 162.337652,35.951417 162.823482,34.0080972 C167.195951,20.8906883 168.167611,20.8906883 171.082591,20.8906883 C172.054251,20.8906883 173.025911,20.8906883 174.483401,23.805668 C178.85587,34.0080972 174.969231,60.242915 151.649393,85.5060729 C145.819433,91.8218623 149.706073,101.538462 156.993522,102.995951 C157.479352,102.995951 189.0583,110.283401 202.175709,114.17004 C208.491498,116.11336 212.378138,120.48583 212.863968,124.8583 C213.835628,130.688259 208.977328,137.004049 200.718219,142.834008 Z M17.0744939,91.3360324 C26.7910931,91.3360324 34.5643725,98.6234818 34.5643725,108.340081 L34.5643725,212.793522 C34.5643725,222.510121 26.7910931,229.797571 17.0744939,229.797571 C7.35789474,229.797571 0.0704453441,222.510121 0.0704453441,212.793522 L0.0704453441,108.340081 C0.0704453441,98.6234818 7.35789474,91.3360324 17.0744939,91.3360324 Z" id="Combined-Shape"></path>
                </g>
            </g>
        </g>
    </g>
</svg>