<?xml version="1.0" encoding="UTF-8"?>
<svg width="283px" height="199px" viewBox="0 0 283 199" version="1.1" xmlns="http://www.w3.org/2000/svg" xmlns:xlink="http://www.w3.org/1999/xlink">
    <!-- Generator: sketchtool 49 (51002) - http://www.bohemiancoding.com/sketch -->
    <title>58D29A31-68D4-4DC6-82C9-89B944841545</title>
    <desc>Created with sketchtool.</desc>
    <defs></defs>
    <g id="Page-1" stroke="none" stroke-width="1" fill="none" fill-rule="evenodd">
        <g id="牛顿媒体" transform="translate(-380.000000, -112.000000)">
            <g id="Bitmap" transform="translate(0.000000, 50.000000)">
                <g id="Page-1" transform="translate(380.000000, 61.000000)">
                    <path d="M274.110568,106.679646 C278.116965,109.201076 276.766743,111.332019 270.059902,113.083632 C267.558671,113.730725 267.381593,114.534013 267.414795,115.794728 C267.492267,119.041348 267.127043,120.525198 259.479474,121.785914 C256.624087,122.243341 254.975045,123.191667 255.185325,124.25156 C255.794032,127.096537 251.964714,128.859306 243.719506,129.539869 C240.64277,129.807632 238.418224,130.622076 237.975529,131.670813 C236.802385,134.493476 231.965934,135.955013 223.477243,136.044267 C220.300901,136.088894 217.622592,136.735987 216.537988,137.728939 C213.627263,140.395407 207.99396,141.499928 199.638078,140.997873 C196.494938,140.819365 193.47354,141.265636 191.802363,142.169334 C187.286867,144.56804 181.100194,145.248603 173.231277,144.18871 C170.276283,143.787066 167.033537,144.021358 164.831125,144.780018 C158.932205,146.821707 152.468847,147.056 145.418917,145.471738 C142.795945,144.869273 139.46466,144.869273 136.841687,145.471738 C129.791758,147.056 123.317333,146.821707 117.418412,144.780018 C115.227068,144.021358 111.973254,143.787066 109.029328,144.18871 C101.149344,145.248603 94.9626706,144.56804 90.4582415,142.169334 C88.7870651,141.265636 85.7435319,140.819365 82.622527,140.997873 C74.2555775,141.499928 68.6222743,140.395407 65.7226172,137.728939 C64.6380126,136.735987 61.948636,136.088894 58.7833615,136.044267 C50.2836033,135.955013 45.4582198,134.493476 44.2740087,131.670813 C43.831313,130.622076 41.6067669,129.807632 38.5300315,129.539869 C30.2848234,128.859306 26.4665727,127.096537 27.0642119,124.25156 C27.2855598,123.191667 25.6365182,122.243341 22.7811307,121.785914 C15.1335618,120.525198 12.4773874,118.539293 14.8458096,115.794728 C15.7090663,114.790618 14.7019335,113.730725 12.2007025,113.083632 C5.49386212,111.332019 4.13257273,109.201076 8.15003654,106.679646 C9.63306726,105.753634 9.27891067,104.649113 7.25357767,103.845826 C1.76415053,101.659099 1.76415053,99.4835286 7.25357767,97.2968015 C9.27891067,96.493514 9.63306726,95.4001504 8.13896915,94.4629817 C4.12150533,91.9527082 5.49386212,89.8106082 12.2007025,88.0589952 C14.7019335,87.4119025 15.7090663,86.363166 14.8458096,85.3478999 C12.4773874,82.614491 15.1335618,80.617429 22.7811307,79.3678707 C25.6365182,78.910443 27.2855598,77.9509607 27.0642119,76.9022243 C26.4665727,74.0572477 30.2848234,72.2833211 38.5300315,71.6027581 C41.6067669,71.3461524 43.831313,70.5205513 44.2629413,69.4829716 C45.4582198,66.6603086 50.2836033,65.1987716 58.7833615,65.0983607 C61.948636,65.0648904 64.6380126,64.4066409 65.7226172,63.424845 C68.6222743,60.74722 74.2555775,59.6538565 82.622527,60.1447544 C85.7435319,60.3344195 88.7870651,59.8881487 90.4582415,58.9844502 C94.9626706,56.5745877 101.149344,55.8940247 109.029328,56.9539179 C111.973254,57.3555617 115.227068,57.1324263 117.418412,56.3626091 C123.317333,54.32092 129.791758,54.0977846 136.841687,55.6820461 C139.46466,56.2733549 142.784878,56.2733549 145.418917,55.6820461 C152.45778,54.0977846 158.932205,54.32092 164.831125,56.3626091 C167.033537,57.1324263 170.276283,57.3555617 173.231277,56.9539179 C181.111261,55.8940247 187.286867,56.5745877 191.802363,58.9844502 C193.47354,59.8881487 196.494938,60.3344195 199.638078,60.1447544 C207.99396,59.6538565 213.627263,60.74722 216.537988,63.424845 C217.622592,64.4066409 220.300901,65.0648904 223.477243,65.0983607 C231.965934,65.1987716 236.802385,66.6603086 237.975529,69.4829716 C238.418224,70.5205513 240.952657,71.4465633 243.719506,71.6027581 C249.839774,71.9374612 253.414542,73.7113878 255.185325,76.9022243 C255.727628,77.8617066 256.56875,79.4236545 259.468407,79.3678707 C265.090643,79.2786165 269.761083,82.614491 267.414795,85.3478999 C266.529404,86.363166 267.447997,87.9474275 270.059902,88.0589952 C275.239442,88.2821306 278.116965,91.9527082 274.110568,94.4629817 C272.627537,95.4001504 272.970627,96.493514 275.007027,97.2968015 C280.485387,99.4835286 280.496454,101.659099 275.007027,103.845826 C272.970627,104.649113 272.627537,105.753634 274.110568,106.679646 Z" id="Stroke-1" stroke="#484848" stroke-width="6.82113068"></path>
                    <path d="M149.425574,21.4463789 C154.472306,20.8662268 159.961733,17.4187846 161.090607,11.1598361 C162.197346,4.88973089 155.81146,1.27493712 147.046085,2.04475432 C129.083705,3.61785901 120.517542,20.3083883 114.020983,37.3336206 C112.150593,42.2425998 110.457282,47.1738926 108.752903,51.7816389 C95.7044464,87.1709162 82.0030133,129.789781 75.9048796,162.981174 C74.6542641,169.809118 75.185499,177.708112 68.1909063,183.498476 C58.4626675,182.315858 62.3362552,177.239528 52.9732404,178.154383 C38.3089441,179.58245 37.4124852,197.466753 47.6940937,199.20721 C50.881503,199.742735 53.6815535,199.519599 57.6104782,198.627057 C76.6906645,194.26476 83.7848637,173.446226 91.4767021,152.672318 C105.853246,113.813285 117.440807,75.5678745 125.49787,37.7129509 C125.531072,37.5790696 125.553207,37.4340316 125.586409,37.3001503 C127.014102,30.3717956 128.408594,18.567932 133.864819,17.1844924 C139.177168,15.8456799 141.578792,22.3612341 149.425574,21.4463789" id="Fill-3" fill="#484848"></path>
                    <g id="Group-7" transform="translate(120.406091, 0.730618)" fill="#484848">
                        <path d="M106.815511,1.02740734 C88.8531319,2.60051204 80.2869694,19.2910413 73.7904095,36.3274304 C71.92002,41.2364096 70.2156414,46.1565456 68.5223302,50.764292 C55.4628059,86.1535692 41.7724403,128.772434 35.6743065,161.963827 C34.423691,168.791771 34.9549259,176.701922 27.9603333,182.481129 C18.2320944,181.309668 22.1056821,176.222181 12.7426673,177.137036 C-1.92162902,178.576259 -2.81808789,196.449406 7.45245322,198.189863 C10.6509299,198.725388 13.4509805,198.513409 17.3799051,197.620867 C36.4600914,193.247413 43.5542906,172.428879 51.246129,151.654971 C65.6226731,112.807095 77.210234,74.5505275 85.2672965,36.6956039 C85.3004986,36.5617226 85.3226334,36.4166846 85.3558356,36.2828034 C86.772462,29.3544486 88.1669535,17.550585 93.6453133,16.1671454 C98.9465947,14.8283329 101.337152,21.3438871 109.195001,20.4290319 C114.2528,19.8488798 119.73116,16.4014376 120.860034,10.1536459 C121.966773,3.87238392 115.580887,0.268746922 106.815511,1.02740734" id="Fill-5"></path>
                    </g>
                </g>
            </g>
        </g>
    </g>
</svg>