<?xml version="1.0" encoding="utf-8"?>
<!-- Generator: Adobe Illustrator 16.0.0, SVG Export Plug-In . SVG Version: 6.00 Build 0)  -->
<!DOCTYPE svg PUBLIC "-//W3C//DTD SVG 1.1//EN" "http://www.w3.org/Graphics/SVG/1.1/DTD/svg11.dtd">
<svg version="1.1" id="层_1" xmlns="http://www.w3.org/2000/svg" xmlns:xlink="http://www.w3.org/1999/xlink" x="0px" y="0px"
	 width="217px" height="226px" viewBox="0 0 217 226" enable-background="new 0 0 217 226" xml:space="preserve">
<g>
	
		<path fill-rule="evenodd" clip-rule="evenodd" fill="none" stroke="#525298" stroke-width="20" stroke-linecap="round" stroke-linejoin="round" stroke-miterlimit="10" d="
		M26.37,72.05h165.52c8.07,0,14.61,6.51,14.61,14.54v116.37c0,8.03-6.54,14.54-14.61,14.54H26.37c-8.06,0-14.6-6.51-14.6-14.54
		V86.59C11.77,78.56,18.31,72.05,26.37,72.05z"/>
	<path fill-rule="evenodd" clip-rule="evenodd" fill="#525298" d="M148.47,148.77c0-8.36,6.81-15.15,15.21-15.15
		c8.4,0,15.22,6.79,15.22,15.15c0,8.37-6.82,15.16-15.22,15.16C155.28,163.93,148.47,157.14,148.47,148.77z"/>
	
		<path fill-rule="evenodd" clip-rule="evenodd" fill="none" stroke="#525298" stroke-width="20" stroke-linecap="round" stroke-linejoin="round" stroke-miterlimit="10" d="
		M11.5,84.16c0,0,6.81-19.84,25.07-26.81c4.28-1.53,30.28-8.79,55.37-15.75c32.01-8.89,63.87-17.84,65.38-14.31
		c3.24,1.28,3.69,7.79,3.69,7.79v27.75"/>
</g>
</svg>
