<?xml version="1.0" encoding="UTF-8"?>
<svg width="216px" height="225px" viewBox="0 0 216 225" version="1.1" xmlns="http://www.w3.org/2000/svg" xmlns:xlink="http://www.w3.org/1999/xlink">
    <!-- Generator: sketchtool 49 (51002) - http://www.bohemiancoding.com/sketch -->
    <title>8AE86BB0-FE09-453E-9034-5DC36553C597</title>
    <desc>Created with sketchtool.</desc>
    <defs></defs>
    <g id="Page-1" stroke="none" stroke-width="1" fill="none" fill-rule="evenodd">
        <g id="牛顿隐私政策" transform="translate(-418.000000, -85.000000)">
            <g id="Bitmap" transform="translate(0.000000, 50.000000)">
                <g id="icon-(2)" transform="translate(418.000000, 35.000000)">
                    <path d="M107.692308,0 C159.233846,0 193.846154,34.6123077 193.846154,86.1538462 L166.923077,86.1538462 C166.923077,53.4369231 140.409231,26.9230769 107.692308,26.9230769 C74.9753846,26.9230769 48.4615385,53.4369231 48.4615385,86.1538462 L21.5384615,86.1538462 C21.5384615,34.6123077 56.1507692,0 107.692308,0 Z" id="Shape" fill="#6C6C6C" fill-rule="nonzero"></path>
                    <path d="M203.884615,242.692308 L203.884615,135 C203.884615,123.517428 194.559495,114.192308 183.076923,114.192308 L32.3076923,114.192308 C20.8251208,114.192308 11.5,123.517428 11.5,135 L11.5,242.692308 C11.5,254.174879 20.8251208,263.5 32.3076923,263.5 L183.076923,263.5 C194.559495,263.5 203.884615,254.174879 203.884615,242.692308 Z" id="Path" stroke="#6C6C6C" stroke-width="23"></path>
                    <path d="M107.692308,144.756923 C93.3692308,144.756923 81.7815385,155.913846 81.7815385,169.655385 C81.7815385,178.852308 87.0153846,186.778462 94.7261538,191.107692 L94.7261538,219.452308 C94.7261538,226.323077 100.563077,231.923077 107.692308,231.923077 C114.821538,231.923077 120.658462,226.323077 120.658462,219.473846 L120.658462,191.129231 C128.369231,186.8 133.624615,178.873846 133.624615,169.676923 C133.603077,155.913846 122.015385,144.756923 107.692308,144.756923 Z" id="Path" fill="#6C6C6C"></path>
                </g>
            </g>
        </g>
    </g>
</svg>