<?xml version="1.0" encoding="UTF-8"?>
<svg width="280px" height="230px" viewBox="0 0 280 230" version="1.1" xmlns="http://www.w3.org/2000/svg" xmlns:xlink="http://www.w3.org/1999/xlink">
    <!-- Generator: sketchtool 49 (51002) - http://www.bohemiancoding.com/sketch -->
    <title>A03DD1E7-6D61-4D20-A92E-ED1AF52748C3</title>
    <desc>Created with sketchtool.</desc>
    <defs></defs>
    <g id="Page-1" stroke="none" stroke-width="1" fill="none" fill-rule="evenodd">
        <g id="牛顿使用条款" transform="translate(-386.000000, -80.000000)" fill="#6C6C6C" fill-rule="nonzero">
            <g id="Bitmap" transform="translate(0.000000, 50.000000)">
                <g id="产品条款" transform="translate(386.000000, 30.000000)">
                    <path d="M157.051079,275.025999 C156.117632,275.025999 155.127477,274.968545 154.191791,274.889079 C143.902607,273.887358 136.180216,269.607753 131.28876,262.027505 C121.987119,247.698234 126.104435,225.89094 128.267182,217.303748 C112.366869,208.072993 39.5412044,165.898121 19.5243223,155.660049 C18.3722499,155.068344 16.9832717,154.601993 16.5053558,154.983282 C11.827301,158.722293 14.018029,184.313742 19.0430486,206.662003 L110.01385,259.449893 C112.20719,260.724336 112.927608,263.541839 111.697935,265.709436 C110.469008,267.957245 107.689186,268.657144 105.552182,267.411056 L12.7887291,213.627414 C11.6933651,213.024143 10.9195964,211.943329 10.6491131,210.725594 C7.76632099,198.290452 -0.786546979,157.095662 10.8908691,147.756714 C13.2696295,145.878628 17.4380566,144.22812 23.6666336,147.426165 C46.2764243,158.990538 132.19609,208.966521 135.832132,211.10651 C137.702011,212.187324 138.555246,214.435506 137.890044,216.496029 C137.810204,216.762781 129.661009,242.877662 138.851845,256.95697 C142.214791,262.135698 147.535664,265.00394 155.073007,265.709435 C202.935862,270.478149 249.81677,109.320481 265.153359,40.8997765 L127.253521,14.7330374 L77.1693457,147.181424 C76.2870106,149.565781 73.6123974,150.760758 71.3474264,149.86238 C68.9914236,148.968479 67.8162206,146.28827 68.7235522,143.931894 L120.145968,7.93849766 C120.920109,5.8499937 123.057114,4.63225911 125.193745,5.06465932 L271.407679,32.8016937 C272.608625,33.0180805 273.650265,33.7523025 274.321437,34.7820043 C274.992981,35.8064831 275.254884,37.0812987 274.992981,38.2986599 C269.666513,62.8148916 221.863723,275.025999 157.051079,275.025999 Z M218.682467,85.0889098 C218.198582,85.1172638 217.743423,85.0833134 217.31065,84.9747471 L147.196907,67.0433845 C144.784197,66.4173555 143.278817,63.9244324 143.891042,61.4777712 C144.479763,59.0303638 147.018202,57.5055844 149.382412,58.1595944 L219.490932,76.040218 C221.909239,76.6610239 223.411634,79.1532007 222.774413,81.6345582 C222.296496,83.6376271 220.577342,84.9866857 218.682467,85.0889098 Z M200.83057,128.396454 C200.375412,128.424808 199.920254,128.396454 199.453904,128.259534 L129.402465,110.373313 C126.958416,109.752881 125.455648,107.23235 126.070484,104.784942 C126.681963,102.309554 129.194659,100.841109 131.584612,101.438784 L201.689774,119.37052 C204.108827,119.996175 205.588091,122.488726 204.973628,124.936133 C204.472208,126.944798 202.754173,128.293857 200.83057,128.396454 Z M182.955916,172.744519 C182.528739,172.767277 182.073954,172.744519 181.60723,172.602375 L111.553553,154.67064 C109.134873,154.067369 107.660833,151.575192 108.246942,149.099431 C108.83044,146.629638 111.37149,145.127244 113.761443,145.781627 L183.81512,163.696574 C186.262528,164.288279 187.764549,166.809183 187.126955,169.255844 C186.649039,171.265255 184.953388,172.636326 182.955916,172.744519 Z M157.051079,279.85739 C156.069132,279.85739 154.971156,279.805905 153.787372,279.709277 L153.732902,279.703308 C141.876781,278.548251 132.981798,273.489281 127.293441,264.668541 C118.116783,250.53178 120.518675,230.517509 122.809015,219.71049 C107.386991,210.770738 40.6305988,172.135652 19.1225143,160.879071 C18.744211,163.201496 18.4427618,167.514305 19.0057401,175.180734 C19.6287842,183.613843 21.1569218,193.828784 23.2398294,203.526636 L112.383284,255.255723 C114.546031,256.513377 116.093568,258.539204 116.742728,260.974673 C117.38853,263.393353 117.072531,265.920599 115.851812,268.088196 C114.224435,271.031054 111.145776,272.85691 107.807826,272.85691 C106.185672,272.85691 104.584038,272.42451 103.175287,271.605225 L10.4640652,217.849565 C8.20469052,216.592657 6.5829101,214.401183 6.00276979,211.817601 C4.41456677,204.971576 1.59780979,191.547024 0.553557812,178.469438 C-0.88914401,160.37877 1.52655161,149.087865 7.93420724,143.960248 L7.96554609,143.931894 C10.5860628,141.871744 13.7158339,140.784588 17.0284147,140.784588 C19.8571104,140.784588 22.8130262,141.569922 25.8234116,143.112236 C49.2155519,155.079536 136.466742,205.893457 138.208281,206.911594 C142.00139,209.11426 143.773895,213.752396 142.436774,217.952162 C139.866997,226.38042 136.643582,244.81283 142.829255,254.293922 C145.390079,258.225816 149.419347,260.325886 155.511377,260.894833 C156.075101,260.951542 156.617933,260.974299 157.158899,260.974299 C166.506429,260.974299 176.848963,253.024329 187.911916,237.340403 C197.950763,223.108133 208.319413,202.740555 218.745144,176.81893 C236.341108,133.044662 251.034878,80.8600435 259.388521,44.7234772 L130.281069,20.2247806 L81.6276566,148.899086 C80.2703902,152.547066 76.7731347,154.9941 72.9147373,154.9941 C71.7880344,154.9941 70.6867011,154.788906 69.6424491,154.379637 C67.3151737,153.48611 65.4710372,151.728155 64.4555126,149.417295 C63.4366301,147.101212 63.3709679,144.528822 64.2790455,142.17282 L115.689522,6.20815052 C117.029627,2.59449385 120.506737,0.141863385 124.328199,0.141863385 C124.919904,0.141863385 125.511983,0.204540729 126.09548,0.318330469 L272.266137,28.0497685 C274.713917,28.4937341 276.915465,29.9789671 278.304443,32.1241794 C279.693048,34.2641684 280.182529,36.8932659 279.647532,39.3518657 C277.149759,50.8416223 263.644995,111.084404 242.794278,167.549375 C230.820264,199.991699 218.442949,225.782746 206.008553,244.215902 C198.565226,255.244531 190.961848,263.82053 183.410328,269.692815 C174.744044,276.442212 165.87443,279.85739 157.051079,279.85739 Z M183.223041,177.570687 C182.232886,177.627022 181.276681,177.524425 180.377184,177.274088 L110.405958,159.359514 C105.457793,158.124245 102.410472,153.01379 103.608806,147.966759 C104.547476,143.977037 108.047344,141.035298 112.110562,140.807719 C113.069752,140.756234 114.025584,140.853235 114.953062,141.103572 L184.953388,159.001357 C187.394453,159.604255 189.443037,161.140227 190.735015,163.325732 C192.00983,165.494448 192.367987,168.021322 191.747928,170.450821 C190.768965,174.480835 187.348937,177.342362 183.223041,177.570687 Z M201.097696,133.221876 C200.079186,133.278957 199.134547,133.182329 198.223857,132.926023 L128.24405,115.062561 C125.813804,114.442501 123.771189,112.90056 122.479212,110.715055 C121.204397,108.546712 120.834301,106.019838 121.443168,103.58437 C122.436308,99.5718905 125.870886,96.7099908 129.985217,96.4820387 C130.907471,96.4309267 131.829353,96.5219584 132.722508,96.7439411 L202.850428,114.681646 C205.263511,115.307675 207.288965,116.838051 208.56378,118.995201 C209.844192,121.163545 210.208319,123.701237 209.594229,126.137079 C208.592881,130.148812 205.178076,132.994296 201.097696,133.221876 Z M218.949965,89.9147043 C217.95981,89.9717857 217.043898,89.8919463 216.161562,89.6647405 L146.039238,71.732632 C143.632124,71.1069764 141.608909,69.5870467 140.328497,67.4418343 C139.033535,65.2794603 138.658216,62.7413945 139.261487,60.3055527 C140.222915,56.3389619 143.71159,53.4084155 147.75205,53.1860598 C148.708255,53.1349478 149.658491,53.2319488 150.577761,53.4819126 L220.645988,71.3509708 C223.093395,71.9829691 225.130414,73.5305065 226.399261,75.7160115 C227.656542,77.8727892 228.009476,80.3936933 227.400981,82.8123734 C226.438808,86.7737409 222.973264,89.6927216 218.949965,89.9147043 Z" id="Shape"></path>
                </g>
            </g>
        </g>
    </g>
</svg>