<?xml version="1.0" encoding="utf-8"?>
<!-- Generator: Adobe Illustrator 16.0.0, SVG Export Plug-In . SVG Version: 6.00 Build 0)  -->
<!DOCTYPE svg PUBLIC "-//W3C//DTD SVG 1.1//EN" "http://www.w3.org/Graphics/SVG/1.1/DTD/svg11.dtd">
<svg version="1.1" id="层_1" xmlns="http://www.w3.org/2000/svg" xmlns:xlink="http://www.w3.org/1999/xlink" x="0px" y="0px"
	 width="419px" height="297.002px" viewBox="0 0 419 297.002" enable-background="new 0 0 419 297.002" xml:space="preserve">
<g>
	<g>
		<path fill-rule="evenodd" clip-rule="evenodd" fill="#788EE3" d="M4.78,205.203l265.38-151.56c8.86-5.03,37.58-6.17,47.35-0.7
			l95.54,53.36c9.77,5.46,6.47,26.35-2.4,31.38l-272.14,154.91c-12.82,7.74-21.5,3.91-31.93-0.98l-99.59-56.57
			C-0.819,230.632-2.819,209.813,4.78,205.203z"/>
		<path fill-rule="evenodd" clip-rule="evenodd" fill="#B7BDE1" d="M6.32,203.542l273.41-155.2c8.87-5.02,23.97-4.67,33.74,0.8
			l95.55,53.36c9.76,5.46,10.5,13.97,1.63,19l-271.51,155.19c-8.86,5.02-23.97,4.67-33.73-0.8l-95.55-53.35
			C0.09,217.072-2.54,208.563,6.32,203.542z"/>
		<path fill-rule="evenodd" clip-rule="evenodd" fill="#DEE1F1" d="M37.371,196.442l247.26-139.32c7.65-4.36,20.68-4.05,29.1,0.68
			l82.41,46.17c8.43,4.73,9.06,12.09,1.41,16.44l-245.62,139.32c-7.64,4.35-20.67,4.05-29.09-0.68l-82.42-46.17
			C32,208.152,29.73,200.792,37.371,196.442z"/>
		<path fill-rule="evenodd" clip-rule="evenodd" fill="#FFFFFF" d="M138.32,142.583l150.64-84.5c4.66-2.64,12.6-2.45,17.73,0.42
			l88,49.61c5.13,2.86,5.52,7.33,0.86,9.97l-149.64,84.5c-4.66,2.64-12.6,2.45-17.73-0.42l-88-49.61
			C135.05,149.683,133.661,145.223,138.32,142.583z"/>
		<path fill-rule="evenodd" clip-rule="evenodd" fill="#FFFFFF" d="M100.26,174.002l14.78-8.2c4.66-2.63,12.6-2.45,17.73,0.42
			l74.28,41.86c5.13,2.87,5.51,7.34,0.86,9.98l-13.79,8.19c-4.66,2.64-12.59,2.45-17.73-0.42l-74.27-41.86
			C96.98,181.103,95.601,176.643,100.26,174.002z"/>
		<path fill-rule="evenodd" clip-rule="evenodd" fill="#FFFFFF" d="M60.291,196.853l14.79-8.2c4.65-2.64,12.59-2.45,17.72,0.42
			l74.28,41.86c5.13,2.87,5.52,7.34,0.86,9.97l-13.79,8.2c-4.65,2.64-12.59,2.45-17.72-0.42l-74.28-41.86
			C57.021,203.953,55.63,199.482,60.291,196.853z"/>
		<path fill-rule="evenodd" clip-rule="evenodd" fill="#A3A3A3" d="M58.4,240.913c0-3.16,3.84-5.71,8.57-5.71s8.56,2.55,8.56,5.71
			c0,3.15-3.83,5.71-8.56,5.71S58.4,244.063,58.4,240.913z"/>
	</g>
	<g>
		
			<path fill-rule="evenodd" clip-rule="evenodd" fill="none" stroke="#798EE3" stroke-width="4" stroke-linecap="round" stroke-linejoin="round" stroke-miterlimit="10" d="
			M313.73,13.842c0,0,4.97-18.47,19.41-12.74s11.99,30.19,11.99,30.19"/>
		<polygon fill-rule="evenodd" clip-rule="evenodd" fill="#DFEFFF" points="357.86,37.382 297.721,3.342 294.181,22.095 
			342.19,48.743 		"/>
		<polygon fill-rule="evenodd" clip-rule="evenodd" fill="#BFDFFF" points="279.51,13.822 255.76,84.502 342.15,133.192 
			342.19,48.743 		"/>
		<polygon fill-rule="evenodd" clip-rule="evenodd" fill="#798FE3" points="267.34,51.292 264.491,60.842 342.181,101.462 
			342.181,90.002 		"/>
		<polygon fill-rule="evenodd" clip-rule="evenodd" fill="#9BCDFF" points="342.19,133.152 357,116.652 348.271,37.362 
			342.19,48.743 		"/>
		<polygon fill-rule="evenodd" clip-rule="evenodd" fill="#BFDFFF" points="378.851,110.512 357.09,116.652 348.311,37.362 
			357.86,37.382 		"/>
		<polygon fill-rule="evenodd" clip-rule="evenodd" fill="#DFEFFF" points="279.51,13.822 293.36,11.743 293.692,21.819 		"/>
		<polygon fill-rule="evenodd" clip-rule="evenodd" fill="#9BCDFF" points="297.67,3.422 293.36,11.743 293.692,21.819 
			294.181,22.095 		"/>
		
			<path fill-rule="evenodd" clip-rule="evenodd" fill="none" stroke="#798EE3" stroke-width="4" stroke-linecap="round" stroke-linejoin="round" stroke-miterlimit="10" d="
			M289.451,36.143c0,0,14.03-30.29,28.46-24.57c14.44,5.73,11.68,43.63,11.68,43.63"/>
	</g>
	<g>
		
			<path fill-rule="evenodd" clip-rule="evenodd" fill="none" stroke="#F2517B" stroke-width="4" stroke-linecap="round" stroke-linejoin="round" stroke-miterlimit="10" d="
			M265.721,39.112c0,0,4.97-18.47,19.41-12.74s11.99,30.19,11.99,30.19"/>
		<polygon fill-rule="evenodd" clip-rule="evenodd" fill="#F8CFF3" points="309.82,62.563 249.75,28.703 246.11,47.313 
			295.041,75.422 		"/>
		<polygon fill-rule="evenodd" clip-rule="evenodd" fill="#FADEF7" points="231.51,38.282 207.75,109.772 294.141,158.462 
			294.17,74.433 		"/>
		<polygon fill-rule="evenodd" clip-rule="evenodd" fill="#F0799A" points="219.331,76.563 216.48,86.112 294.161,126.732 
			294.161,115.272 		"/>
		<polygon fill-rule="evenodd" clip-rule="evenodd" fill="#F5C2F0" points="294.181,158.422 308.971,141.922 300.26,62.632 
			294.181,74.012 		"/>
		<polygon fill-rule="evenodd" clip-rule="evenodd" fill="#FBECFF" points="331.541,136.022 308.919,141.98 300.3,62.632 
			309.82,62.612 		"/>
		<polygon fill-rule="evenodd" clip-rule="evenodd" fill="#F8CFF3" points="231.42,38.232 245.351,37.012 245.351,46.267 		"/>
		<polygon fill-rule="evenodd" clip-rule="evenodd" fill="#F5C2F0" points="249.75,28.663 245.351,37.012 245.351,46.267 
			246.412,46.879 		"/>
		
			<path fill-rule="evenodd" clip-rule="evenodd" fill="none" stroke="#F2517B" stroke-width="4" stroke-linecap="round" stroke-linejoin="round" stroke-miterlimit="10" d="
			M241.44,61.402c0,0,14.03-30.29,28.46-24.56c14.44,5.73,11.68,43.63,11.68,43.63"/>
	</g>
	<g>
		<polygon fill-rule="evenodd" clip-rule="evenodd" fill="#FF788E" points="143.351,96.962 143.351,152.022 167.721,164.973 
			167.721,111.002 		"/>
		<polygon fill-rule="evenodd" clip-rule="evenodd" fill="#FF678D" points="143.351,96.962 192.78,69.953 217.15,82.902 
			167.721,111.002 		"/>
		<polygon fill-rule="evenodd" clip-rule="evenodd" fill="#FF9CB1" points="192.15,69.223 217.15,81.953 192.311,96.022 		"/>
		<polygon fill-rule="evenodd" clip-rule="evenodd" fill="#FF5273" points="167.73,165.002 217.15,138.942 217.15,82.902 
			167.721,111.002 		"/>
		<path fill-rule="evenodd" clip-rule="evenodd" fill="#DF395D" d="M181.01,113.692c0-2.68,1.24-4.85,2.77-4.85
			c1.53,0,2.77,2.17,2.77,4.85c0,2.69-1.24,4.86-2.77,4.86C182.25,118.552,181.01,116.382,181.01,113.692z"/>
		<path fill-rule="evenodd" clip-rule="evenodd" fill="#DF395D" d="M202.05,101.953c0-2.69,1.24-4.86,2.77-4.86
			c1.53,0,2.77,2.17,2.77,4.86c0,2.68-1.24,4.86-2.77,4.86C203.291,106.813,202.05,104.632,202.05,101.953z"/>
		
			<path fill-rule="evenodd" clip-rule="evenodd" fill="none" stroke="#FFFFFF" stroke-width="3" stroke-linecap="round" stroke-linejoin="round" stroke-miterlimit="10" d="
			M183.871,115.712c0,0,5.46,12.06,13.75,10.4c6.92-1.39,8.32-13.41,8.32-13.41v-7.56"/>
	</g>
	<g>
		<polygon fill-rule="evenodd" clip-rule="evenodd" fill="#FF788E" points="185.25,120.493 185.25,175.542 209.621,188.502 
			209.621,134.522 		"/>
		<polygon fill-rule="evenodd" clip-rule="evenodd" fill="#FF678D" points="185.25,120.493 234.681,93.482 259.05,106.433 
			209.621,134.522 		"/>
		<polygon fill-rule="evenodd" clip-rule="evenodd" fill="#FF9CB1" points="234.05,92.743 259.05,105.482 234.21,119.542 		"/>
		<polygon fill-rule="evenodd" clip-rule="evenodd" fill="#FF5273" points="209.63,188.522 259.05,162.473 259.05,106.433 
			209.621,134.522 		"/>
		<path fill-rule="evenodd" clip-rule="evenodd" fill="#DF395D" d="M222.911,137.223c0-2.68,1.24-4.86,2.77-4.86
			c1.53,0,2.77,2.18,2.77,4.86c0,2.68-1.24,4.86-2.77,4.86C224.15,142.083,222.911,139.902,222.911,137.223z"/>
		<path fill-rule="evenodd" clip-rule="evenodd" fill="#DF395D" d="M243.951,125.473c0-2.68,1.24-4.85,2.77-4.85
			c1.53,0,2.77,2.17,2.77,4.85c0,2.69-1.24,4.86-2.77,4.86C245.19,130.333,243.951,128.163,243.951,125.473z"/>
		
			<path fill-rule="evenodd" clip-rule="evenodd" fill="none" stroke="#FFFFFF" stroke-width="3" stroke-linecap="round" stroke-linejoin="round" stroke-miterlimit="10" d="
			M225.771,139.243c0,0,5.46,12.06,13.75,10.39c6.92-1.39,8.32-13.41,8.32-13.41v-7.56"/>
	</g>
	<g>
		
			<path fill-rule="evenodd" clip-rule="evenodd" fill="#FFFFFF" stroke="#F58A1E" stroke-width="5" stroke-linecap="round" stroke-linejoin="round" stroke-miterlimit="10" d="
			M157.331,183.002c0-21.96,17.78-39.77,39.7-39.77c21.93,0,39.71,17.81,39.71,39.77c0,21.97-17.78,39.78-39.71,39.78
			C175.11,222.782,157.331,204.973,157.331,183.002z"/>
		<path fill-rule="evenodd" clip-rule="evenodd" fill="#FF9A45" d="M164.141,183.002c0-18.2,14.72-32.95,32.89-32.95
			c18.17,0,32.9,14.75,32.9,32.95c0,18.21-14.73,32.96-32.9,32.96C178.86,215.962,164.141,201.212,164.141,183.002z"/>
		
			<path fill-rule="evenodd" clip-rule="evenodd" fill="none" stroke="#FFFFFF" stroke-width="2" stroke-linecap="round" stroke-linejoin="round" stroke-miterlimit="10" d="
			M170.94,183.002c0-4.39,11.68-7.95,26.09-7.95c14.42,0,26.1,3.56,26.1,7.95c0,4.4-11.68,7.96-26.1,7.96
			C182.621,190.962,170.94,187.402,170.94,183.002z"/>
		
			<path fill="#FFFFFF" stroke="#FFFFFF" stroke-width="0.5" stroke-linecap="round" stroke-linejoin="round" stroke-miterlimit="10" d="
			M195.15,167.502c0.88-0.35,1.71-1.27,1.63-2.51c-0.09-1.24-1.41-1.62-2.96-1.05c-3.17,1.17-3.95,4.74-4.33,8.27
			c-0.11,1.01-0.19,2.03-0.29,2.98c-0.71,7.33-1.22,12.3-0.79,18.87c0.09,1.36,0.55,2.83-0.44,4.25c-1.81,0.25-1.34-0.89-2.99-0.27
			c-2.59,0.98-1.92,4.4,0.01,4.23c0.6-0.05,1.1-0.23,1.77-0.58c3.24-1.74,3.56-6.03,3.99-10.32c0.79-8.05,1.13-12.09,0.83-19.64
			v-0.09c-0.07-1.38-0.37-3.67,0.56-4.2C193.03,166.933,193.771,168.052,195.15,167.502z"/>
		
			<path fill="#FFFFFF" stroke="#FFFFFF" stroke-width="0.5" stroke-linecap="round" stroke-linejoin="round" stroke-miterlimit="10" d="
			M206.38,163.953c-3.18,1.16-3.95,4.73-4.33,8.26c-0.11,1.02-0.19,2.03-0.29,2.99c-0.72,7.32-1.23,12.33-0.79,18.91
			c0.09,1.35,0.56,2.82-0.44,4.25c-1.81,0.24-1.34-0.9-2.99-0.28c-2.59,0.98-1.92,4.41,0.02,4.24c0.6-0.05,1.09-0.23,1.76-0.59
			c3.24-1.74,3.56-6.02,3.99-10.32c0.8-8.04,1.12-12.13,0.83-19.68v-0.09c-0.07-1.37-0.36-3.67,0.56-4.19
			c0.89-0.51,1.63,0.6,3.01,0.05c0.88-0.35,1.71-1.27,1.63-2.51C209.25,163.762,207.931,163.382,206.38,163.953z"/>
	</g>
</g>
</svg>
