<?xml version="1.0" encoding="utf-8"?>
<!-- Generator: Adobe Illustrator 16.0.0, SVG Export Plug-In . SVG Version: 6.00 Build 0)  -->
<!DOCTYPE svg PUBLIC "-//W3C//DTD SVG 1.1//EN" "http://www.w3.org/Graphics/SVG/1.1/DTD/svg11.dtd">
<svg version="1.1" id="层_1" xmlns="http://www.w3.org/2000/svg" xmlns:xlink="http://www.w3.org/1999/xlink" x="0px" y="0px"
	 width="434.846px" height="321.395px" viewBox="0 0 434.846 321.395" enable-background="new 0 0 434.846 321.395"
	 xml:space="preserve">
<g>
	<g>
		
			<polygon fill-rule="evenodd" clip-rule="evenodd" fill="none" stroke="#1740B8" stroke-width="4" stroke-linecap="round" stroke-linejoin="round" stroke-miterlimit="10" points="
			2.577,179.013 216.137,319.003 432.577,180.164 216.137,40.753 		"/>
		<polygon fill-rule="evenodd" clip-rule="evenodd" fill="#B7BDE1" points="54.357,173.293 217.597,277.763 381.357,173.454 
			217.627,68.494 		"/>
		<polygon fill-rule="evenodd" clip-rule="evenodd" fill="#9FAFEB" points="53.867,173.073 217.557,277.724 217.577,288.513 
			53.887,182.813 		"/>
		<polygon fill-rule="evenodd" clip-rule="evenodd" fill="#788EE3" points="381.287,173.073 217.577,277.724 217.577,288.513 
			381.177,183.724 		"/>
	</g>
	<g>
		<polygon fill-rule="evenodd" clip-rule="evenodd" fill="#B7BDE1" points="158.797,40.173 265.567,101.164 331.007,64.164 
			223.427,2.043 		"/>
		<polygon fill-rule="evenodd" clip-rule="evenodd" fill="#9FAFEB" points="158.647,40.213 265.597,100.994 265.547,218.813 
			158.657,158.204 		"/>
		<polygon fill-rule="evenodd" clip-rule="evenodd" fill="#FFFFFF" points="167.377,59.813 241.487,106.224 241.587,125.153 
			167.427,78.863 		"/>
		<polygon fill-rule="evenodd" clip-rule="evenodd" fill="#FFFFFF" points="167.377,94.664 204.387,117.624 204.477,136.043 
			167.407,112.744 		"/>
		<polygon fill-rule="evenodd" clip-rule="evenodd" fill="#788EE3" points="331.077,64.164 265.597,101.193 265.597,218.813 
			331.047,182.583 		"/>
		<polygon fill-rule="evenodd" clip-rule="evenodd" fill="#647ECE" points="206.727,41.263 276.967,81.863 284.777,76.533 
			215.907,35.883 		"/>
		<polygon fill-rule="evenodd" clip-rule="evenodd" fill="#4562B2" points="215.907,30.133 290.627,72.863 284.557,76.684 
			215.927,35.843 		"/>
		<polygon fill-rule="evenodd" clip-rule="evenodd" fill="#3958AC" points="215.907,30.133 202.527,38.063 206.727,41.263 
			215.907,35.863 		"/>
	</g>
	<g>
		
			<path fill-rule="evenodd" clip-rule="evenodd" fill="#F69839" stroke="#F58E26" stroke-width="2" stroke-linecap="round" stroke-linejoin="round" stroke-miterlimit="10" d="
			M233.757,37.934c-6.65-16.09-4.04-32.25,5.81-36.1c9.86-3.85,23.24,6.07,29.89,22.15c6.65,16.09,4.05,32.25-5.81,36.1
			C253.787,63.934,240.407,54.013,233.757,37.934z"/>
		
			<path fill-rule="evenodd" clip-rule="evenodd" fill="#FFFFFF" stroke="#F58A1E" stroke-width="2" stroke-linecap="round" stroke-linejoin="round" stroke-miterlimit="10" d="
			M228.777,40.394c-6.65-16.09-4.05-32.25,5.81-36.1c9.86-3.85,23.24,6.07,29.89,22.15c6.65,16.09,4.05,32.25-5.81,36.1
			C248.807,66.394,235.427,56.474,228.777,40.394z"/>
		<path fill-rule="evenodd" clip-rule="evenodd" fill="#FF9A45" d="M231.837,39.193c-5.51-13.32-3.35-26.72,4.82-29.91
			c8.16-3.19,19.25,5.03,24.76,18.36c5.51,13.32,3.35,26.71-4.82,29.91C248.437,60.744,237.347,52.523,231.837,39.193z"/>
		
			<path fill-rule="evenodd" clip-rule="evenodd" fill="none" stroke="#FFFFFF" stroke-width="2" stroke-linecap="round" stroke-linejoin="round" stroke-miterlimit="10" d="
			M234.897,38.003c-1.33-3.22,2.84-7.88,9.32-10.41c6.48-2.53,12.81-1.97,14.14,1.24c1.33,3.22-2.84,7.88-9.32,10.41
			C242.557,41.773,236.227,41.213,234.897,38.003z"/>
		
			<path fill="#FFFFFF" stroke="#FFFFFF" stroke-width="2" stroke-linecap="round" stroke-linejoin="round" stroke-miterlimit="10" d="
			M241.087,22.394c0.29-0.41,0.39-1.23-0.03-2.12c-0.41-0.89-1.12-0.93-1.64-0.25c-1.08,1.41-0.35,4.16,0.55,6.81
			c0.26,0.77,0.53,1.53,0.78,2.24c1.89,5.49,3.17,9.22,5.35,13.96c0.45,0.97,1.1,1.97,1.09,3.18c-0.74,0.5-0.88-0.42-1.43,0.33
			c-0.87,1.17,0.47,3.56,1.29,3.1c0.25-0.15,0.42-0.37,0.62-0.74c0.93-1.85-0.22-5.04-1.33-8.26c-2.08-6.03-3.16-9.05-5.58-14.52
			l-0.02-0.07c-0.45-1-1.28-2.62-1.02-3.17C239.967,22.354,240.637,23.043,241.087,22.394z"/>
		
			<path fill="#FFFFFF" stroke="#FFFFFF" stroke-width="2" stroke-linecap="round" stroke-linejoin="round" stroke-miterlimit="10" d="
			M245.057,17.823c-1.07,1.41-0.34,4.16,0.56,6.81c0.26,0.77,0.53,1.52,0.77,2.24c1.89,5.48,3.18,9.25,5.37,13.98
			c0.45,0.98,1.1,1.97,1.09,3.19c-0.74,0.5-0.88-0.42-1.43,0.33c-0.87,1.17,0.47,3.56,1.29,3.09c0.25-0.14,0.42-0.36,0.62-0.74
			c0.93-1.84-0.23-5.03-1.34-8.26c-2.07-6.02-3.16-9.07-5.58-14.55l-0.03-0.06c-0.44-1-1.27-2.63-1.01-3.17
			c0.25-0.53,0.91,0.16,1.37-0.49c0.29-0.41,0.38-1.23-0.03-2.12C246.297,17.184,245.587,17.133,245.057,17.823z"/>
	</g>
	<g>
		
			<path fill-rule="evenodd" clip-rule="evenodd" fill="#F69839" stroke="#F58E26" stroke-width="2" stroke-linecap="round" stroke-linejoin="round" stroke-miterlimit="10" d="
			M111.737,86.073c6.65,16.08,4.05,32.24-5.81,36.09c-9.86,3.85-23.24-6.06-29.89-22.15c-6.65-16.08-4.05-32.24,5.81-36.09
			S105.087,69.983,111.737,86.073z"/>
		
			<path fill-rule="evenodd" clip-rule="evenodd" fill="#FFFFFF" stroke="#F58A1E" stroke-width="2" stroke-linecap="round" stroke-linejoin="round" stroke-miterlimit="10" d="
			M116.717,83.613c6.65,16.08,4.05,32.24-5.81,36.09c-9.86,3.85-23.24-6.06-29.89-22.15c-6.65-16.08-4.05-32.24,5.81-36.1
			C96.687,57.604,110.067,67.523,116.717,83.613z"/>
		<path fill-rule="evenodd" clip-rule="evenodd" fill="#FF9A45" d="M113.657,84.803c5.51,13.33,3.35,26.72-4.82,29.91
			c-8.16,3.19-19.25-5.03-24.76-18.35c-5.51-13.33-3.35-26.72,4.82-29.91C97.057,63.263,108.147,71.474,113.657,84.803z"/>
		
			<path fill-rule="evenodd" clip-rule="evenodd" fill="none" stroke="#FFFFFF" stroke-width="2" stroke-linecap="round" stroke-linejoin="round" stroke-miterlimit="10" d="
			M110.597,86.003c1.33,3.21-2.84,7.87-9.32,10.4c-6.48,2.53-12.81,1.98-14.14-1.24c-1.33-3.22,2.84-7.88,9.32-10.41
			S109.267,82.783,110.597,86.003z"/>
		
			<path fill="#FFFFFF" stroke="#FFFFFF" stroke-width="2" stroke-linecap="round" stroke-linejoin="round" stroke-miterlimit="10" d="
			M104.407,101.604c-0.29,0.41-0.38,1.23,0.03,2.12c0.41,0.89,1.12,0.94,1.64,0.25c1.08-1.41,0.35-4.16-0.55-6.81
			c-0.26-0.76-0.53-1.52-0.78-2.24c-1.89-5.48-3.17-9.22-5.35-13.95c-0.45-0.98-1.1-1.97-1.09-3.19c0.74-0.5,0.88,0.42,1.43-0.32
			c0.87-1.18-0.47-3.56-1.29-3.1c-0.25,0.14-0.42,0.36-0.61,0.74c-0.94,1.84,0.22,5.03,1.33,8.25c2.07,6.03,3.15,9.05,5.57,14.53
			l0.02,0.06c0.45,1,1.28,2.63,1.02,3.17C105.527,101.644,104.857,100.963,104.407,101.604z"/>
		
			<path fill="#FFFFFF" stroke="#FFFFFF" stroke-width="2" stroke-linecap="round" stroke-linejoin="round" stroke-miterlimit="10" d="
			M100.437,106.173c1.07-1.4,0.34-4.15-0.56-6.81c-0.26-0.76-0.52-1.52-0.77-2.24c-1.89-5.48-3.18-9.24-5.37-13.98
			c-0.45-0.97-1.1-1.97-1.09-3.19c0.74-0.5,0.88,0.42,1.43-0.32c0.87-1.17-0.47-3.56-1.29-3.1c-0.25,0.14-0.42,0.36-0.62,0.74
			c-0.92,1.85,0.23,5.03,1.34,8.26c2.07,6.02,3.16,9.08,5.58,14.55l0.03,0.06c0.44,1,1.27,2.63,1.01,3.18
			c-0.25,0.53-0.91-0.16-1.37,0.49c-0.29,0.41-0.38,1.23,0.03,2.12C99.197,106.823,99.907,106.863,100.437,106.173z"/>
	</g>
	<g>
		<polygon fill-rule="evenodd" clip-rule="evenodd" fill="#86BEFB" points="186.067,162.924 231.327,188.483 259.067,173.194 
			213.927,147.224 		"/>
		<polygon fill-rule="evenodd" clip-rule="evenodd" fill="#86BEFB" points="158.647,199.213 204.477,223.273 231.307,207.633 
			186.067,182.734 		"/>
		<polygon fill-rule="evenodd" clip-rule="evenodd" fill="#4194FA" points="158.647,199.213 204.477,223.273 204.477,247.124 
			158.657,222.184 		"/>
		<polygon fill-rule="evenodd" clip-rule="evenodd" fill="#5475E8" points="258.957,173.073 231.327,188.483 231.307,207.633 
			204.487,223.204 204.477,247.124 259.047,215.323 		"/>
		<polygon fill-rule="evenodd" clip-rule="evenodd" fill="#4194FA" points="186.067,162.924 231.327,188.483 231.307,207.633 
			186.067,182.734 		"/>
	</g>
</g>
</svg>
