<?xml version="1.0" encoding="utf-8"?>
<!-- Generator: Adobe Illustrator 16.0.0, SVG Export Plug-In . SVG Version: 6.00 Build 0)  -->
<!DOCTYPE svg PUBLIC "-//W3C//DTD SVG 1.1//EN" "http://www.w3.org/Graphics/SVG/1.1/DTD/svg11.dtd">
<svg version="1.1" id="层_1" xmlns="http://www.w3.org/2000/svg" xmlns:xlink="http://www.w3.org/1999/xlink" x="0px" y="0px"
	 width="379px" height="281px" viewBox="0 0 379 281" enable-background="new 0 0 379 281" xml:space="preserve">
<g>
	<g>
		<polygon fill-rule="evenodd" clip-rule="evenodd" fill="#DAEAFC" points="0.09,165.11 189.54,263.35 379,162.75 188.07,74.72 		
			"/>
		<polygon fill-rule="evenodd" clip-rule="evenodd" fill="#B1D2F8" points="0.09,165.28 189.5,263.34 189.5,281 0,182.59 		"/>
		<polygon fill-rule="evenodd" clip-rule="evenodd" fill="#81B7F3" points="378.94,162.8 189.58,263.34 189.5,280.94 378.83,180.44 
					"/>
		
			<line fill-rule="evenodd" clip-rule="evenodd" fill="none" stroke="#FFFFFF" stroke-linecap="square" stroke-miterlimit="10" x1="0.09" y1="165.11" x2="189.5" y2="263.34"/>
		
			<line fill-rule="evenodd" clip-rule="evenodd" fill="none" stroke="#FFFFFF" stroke-linecap="square" stroke-miterlimit="10" x1="379" y1="162.75" x2="189.54" y2="263.35"/>
		<path fill-rule="evenodd" clip-rule="evenodd" fill="#6888BD" d="M212.99,122.24l81.95,38.63c11.24,6.38,9.1,17.92-4.77,25.76
			l-72.98,36.28c-25.71,14.5-25.39,14.5-45.46,2.63l-83.26-41.99c-11.24-6.39-9.11-17.93,4.76-25.77l74.29-32.91
			C181.39,117.03,201.75,115.85,212.99,122.24z"/>
		<path fill-rule="evenodd" clip-rule="evenodd" fill="#90A8CE" d="M211.86,115.62l81.92,38.61c11.23,6.39,9.1,17.92-4.76,25.76
			l-72.95,36.27c-25.71,14.49-25.38,14.49-45.45,2.62L87.4,176.9c-11.23-6.38-9.1-17.91,4.76-25.75l74.26-32.9
			C180.28,110.41,200.63,109.24,211.86,115.62z"/>
	</g>
	<g>
		<rect x="131.49" y="156.88" fill-rule="evenodd" clip-rule="evenodd" fill="#002040" width="118.2" height="8.92"/>
		<path fill-rule="evenodd" clip-rule="evenodd" fill="#002040" d="M82.71,0h211.31c8.77,0,15.89,6.99,15.89,15.61V143.5
			c0,8.62-7.12,15.61-15.89,15.61H82.71c-8.78,0-15.9-6.99-15.9-15.61V15.61C66.81,6.99,73.93,0,82.71,0z"/>
		<path fill-rule="evenodd" clip-rule="evenodd" fill="#FFFFFF" d="M90.51,7.46h195.7c8.16,0,14.78,6.49,14.78,14.5v115.97
			c0,8-6.62,14.49-14.78,14.49H90.51c-8.16,0-14.78-6.49-14.78-14.49V21.96C75.73,13.95,82.35,7.46,90.51,7.46z"/>
		<g>
			<rect x="129.26" y="58.76" fill-rule="evenodd" clip-rule="evenodd" fill="#90A8CE" width="8.92" height="80.28"/>
			<rect x="173.86" y="60.99" fill-rule="evenodd" clip-rule="evenodd" fill="#90A8CE" width="8.93" height="78.05"/>
			<rect x="218.47" y="81.06" fill-rule="evenodd" clip-rule="evenodd" fill="#BECCE2" width="8.92" height="57.98"/>
			<rect x="196.17" y="43.15" fill-rule="evenodd" clip-rule="evenodd" fill="#BECCE2" width="8.92" height="95.89"/>
			<rect x="240.77" y="34.22" fill-rule="evenodd" clip-rule="evenodd" fill="#BECCE2" width="8.92" height="104.82"/>
			<rect x="263.07" y="38.68" fill-rule="evenodd" clip-rule="evenodd" fill="#90A8CE" width="8.92" height="100.36"/>
			<rect x="151.56" y="76.6" fill-rule="evenodd" clip-rule="evenodd" fill="#BECCE2" width="8.92" height="62.44"/>
			<rect x="106.96" y="67.68" fill-rule="evenodd" clip-rule="evenodd" fill="#BECCE2" width="8.92" height="71.36"/>
		</g>
	</g>
</g>
</svg>
