<?xml version="1.0" encoding="utf-8"?>
<!-- Generator: Adobe Illustrator 16.0.0, SVG Export Plug-In . SVG Version: 6.00 Build 0)  -->
<!DOCTYPE svg PUBLIC "-//W3C//DTD SVG 1.1//EN" "http://www.w3.org/Graphics/SVG/1.1/DTD/svg11.dtd">
<svg version="1.1" id="层_1" xmlns="http://www.w3.org/2000/svg" xmlns:xlink="http://www.w3.org/1999/xlink" x="0px" y="0px"
	 width="481px" height="350px" viewBox="0 0 481 350" enable-background="new 0 0 481 350" xml:space="preserve">
<g>
	
		<polygon fill-rule="evenodd" clip-rule="evenodd" fill="none" stroke="#DAC04B" stroke-width="2" stroke-linecap="round" stroke-linejoin="round" stroke-miterlimit="10" points="
		404,136.94 442.24,162 481,137.14 442.24,112.18 	"/>
	
		<polygon fill-rule="evenodd" clip-rule="evenodd" fill="none" stroke="#153FB7" stroke-linecap="round" stroke-linejoin="round" stroke-miterlimit="10" points="
		0,136.64 38.24,162 77,136.85 38.24,111.6 	"/>
	
		<polyline fill-rule="evenodd" clip-rule="evenodd" fill="none" stroke="#1741B8" stroke-width="2" stroke-linecap="round" stroke-linejoin="round" stroke-miterlimit="10" points="
		53,129 199.31,39.14 353.57,141.9 310.47,169.59 	"/>
	
		<polyline fill-rule="evenodd" clip-rule="evenodd" fill="none" stroke="#DAC04C" stroke-width="2" stroke-linecap="round" stroke-linejoin="round" stroke-miterlimit="10" points="
		418.07,124.43 276.67,36.14 112.22,145.94 155.32,173.63 	"/>
	<g>
		<polygon fill-rule="evenodd" clip-rule="evenodd" fill="#B7BDE1" points="7.07,108.06 38.91,128.49 71.05,108.09 39.18,87.16 		
			"/>
		<polygon fill-rule="evenodd" clip-rule="evenodd" fill="#9FAFEB" points="7,108.266 38.99,128.616 39,157.266 7.02,136.896 		"/>
		<polygon fill-rule="evenodd" clip-rule="evenodd" fill="#788EE3" points="70.99,108 39,128.34 39,157 71,136.63 		"/>
		
			<polygon fill-rule="evenodd" clip-rule="evenodd" fill="none" stroke="#CFD7F5" stroke-width="0.25" stroke-linecap="round" stroke-linejoin="round" stroke-miterlimit="10" points="
			7.16,108.15 38.92,128.65 71.08,108.12 38.93,128.63 		"/>
		<g>
			
				<line fill-rule="evenodd" clip-rule="evenodd" fill="none" stroke="#CFD7F5" stroke-width="0.25" stroke-linecap="round" stroke-linejoin="round" stroke-miterlimit="10" x1="7.007" y1="118.188" x2="38.65" y2="138.331"/>
			
				<line fill-rule="evenodd" clip-rule="evenodd" fill="none" stroke="#8397E5" stroke-width="0.25" stroke-linecap="round" stroke-linejoin="round" stroke-miterlimit="10" x1="7.007" y1="117.922" x2="38.65" y2="138.019"/>
			
				<line fill-rule="evenodd" clip-rule="evenodd" fill="none" stroke="#CFD7F5" stroke-width="0.25" stroke-linecap="round" stroke-linejoin="round" stroke-miterlimit="10" x1="7.015" y1="129.484" x2="38.792" y2="148.34"/>
			
				<line fill-rule="evenodd" clip-rule="evenodd" fill="none" stroke="#8397E5" stroke-width="0.25" stroke-linecap="round" stroke-linejoin="round" stroke-miterlimit="10" x1="7.015" y1="129.234" x2="38.792" y2="147.999"/>
			
				<line fill-rule="evenodd" clip-rule="evenodd" fill="none" stroke="#BBC6F1" stroke-width="0.25" stroke-linecap="round" stroke-linejoin="round" stroke-miterlimit="10" x1="70.994" y1="117.63" x2="39.09" y2="138.226"/>
			
				<line fill-rule="evenodd" clip-rule="evenodd" fill="none" stroke="#617ADE" stroke-width="0.25" stroke-linecap="round" stroke-linejoin="round" stroke-miterlimit="10" x1="70.994" y1="117.344" x2="39.17" y2="137.94"/>
			
				<line fill-rule="evenodd" clip-rule="evenodd" fill="none" stroke="#BBC6F1" stroke-width="0.25" stroke-linecap="round" stroke-linejoin="round" stroke-miterlimit="10" x1="70.994" y1="128.391" x2="39.085" y2="148.405"/>
			
				<line fill-rule="evenodd" clip-rule="evenodd" fill="none" stroke="#617ADE" stroke-width="0.25" stroke-linecap="round" stroke-linejoin="round" stroke-miterlimit="10" x1="70.994" y1="128.125" x2="39.17" y2="148.15"/>
		</g>
		
			<line opacity="0.5" fill-rule="evenodd" clip-rule="evenodd" fill="none" stroke="#FFFFFF" stroke-width="0.25" stroke-linecap="round" stroke-linejoin="round" stroke-miterlimit="10" x1="38.91" y1="129" x2="38.91" y2="156.8"/>
		<polygon fill-rule="evenodd" clip-rule="evenodd" fill="#D4FBFF" points="12.69,107.88 39.1,124.96 65.15,107.81 39.1,90.52 		"/>
	</g>
	<g>
		<polygon fill-rule="evenodd" clip-rule="evenodd" fill="#29A2FB" points="16.95,99.75 38.91,114.01 60.88,99.75 39.36,85.51 		"/>
		<polygon fill-rule="evenodd" clip-rule="evenodd" fill="#1B72E3" points="16.92,99.76 38.92,114.04 38.92,122.44 16.94,108.14 		
			"/>
		<polygon fill-rule="evenodd" clip-rule="evenodd" fill="#00FFFF" points="23.72,99.79 38.92,109.83 55,99.8 39.45,89.68 		"/>
		<polygon fill-rule="evenodd" clip-rule="evenodd" fill="#001D8F" points="60.92,99.76 38.92,114.04 38.92,122.44 60.91,108.14 		
			"/>
	</g>
	<g>
		<g>
			<polygon fill-rule="evenodd" clip-rule="evenodd" fill="#FFEFB3" points="90.03,140.98 115.98,157.97 141.95,140.98 
				116.52,124.03 			"/>
			<polygon fill-rule="evenodd" clip-rule="evenodd" fill="#FFD75A" points="90,141 116,158 116,164 90.02,146.98 			"/>
			<polygon fill-rule="evenodd" clip-rule="evenodd" fill="#F9C703" points="98.03,141.03 116,152.98 135,141.05 116.63,129 			"/>
			<polygon fill-rule="evenodd" clip-rule="evenodd" fill="#FFB41A" points="142,141 116,158 116,164 141.98,146.98 			"/>
		</g>
		<g>
			<path fill-rule="evenodd" clip-rule="evenodd" fill="#DFE0F0" d="M116.01,115l-11.85,4.59c0,0-0.71,9.04,0.85,14.62
				c2.24,8.05,11,9.74,11,9.74V115z"/>
			<path fill-rule="evenodd" clip-rule="evenodd" fill="#C6C7E5" d="M116.01,115l11.83,4.53c0,0,0.71,9.05-0.85,14.62
				c-2.24,8.05-10.98,9.8-10.98,9.8V115z"/>
			<path fill-rule="evenodd" clip-rule="evenodd" fill="#9FAFEB" d="M116,117l-9.8,3.5c0,0-0.67,7.55,0.45,12.26
				c1.61,6.76,9.35,8.24,9.35,8.24V117z"/>
			<path fill-rule="evenodd" clip-rule="evenodd" fill="#788EE3" d="M116,117l9.97,3.86c0,0,0.28,7.66-0.9,12.31
				C123.35,139.91,116,141,116,141V117z"/>
			
				<polygon fill-rule="evenodd" clip-rule="evenodd" fill="none" stroke="#FFFFFF" stroke-linecap="round" stroke-linejoin="round" stroke-miterlimit="10" points="
				111,129.04 115.94,133 123,126.73 120.76,125 115.67,129.51 112.96,127.27 			"/>
		</g>
	</g>
	<path fill-rule="evenodd" clip-rule="evenodd" fill="#197EE8" d="M16.08,69.1c0-12.76,10.41-23.1,23.27-23.1
		c12.85,0,23.27,10.34,23.27,23.1c0,12.76-10.42,23.1-23.27,23.1C26.49,92.2,16.08,81.86,16.08,69.1z"/>
	<g>
		<rect x="26.23" y="54.4" fill-rule="evenodd" clip-rule="evenodd" fill="#FFFFFF" width="26.23" height="3.36"/>
		<path fill-rule="evenodd" clip-rule="evenodd" fill="#FFFFFF" d="M25.69,58.6h27.03l3.13,7.74c0,0-0.57,4.02-3.7,4.02
			s-4.55-4.02-4.55-4.02s-0.49,3.73-3.99,3.73c-3.49,0-4.26-3.73-4.26-3.73s-0.71,4.02-3.99,4.02c-3.27,0-4.26-4.02-4.26-4.02
			s-0.71,4.02-3.99,4.02c-3.27,0-4.26-4.3-4.26-4.3L25.69,58.6z"/>
		<path fill-rule="evenodd" clip-rule="evenodd" fill="#FFFFFF" d="M26.62,72.04c-0.68,0-1.24,0.56-1.24,1.26v10.08
			c0,0.7,0.56,1.26,1.24,1.26h24.6c0.69,0,1.24-0.56,1.24-1.26V73.3c0-0.7-0.55-1.26-1.24-1.26h-2.03v7.62H28.73v-7.62H26.62z"/>
	</g>
	<g>
		<linearGradient id="SVGID_1_" gradientUnits="userSpaceOnUse" x1="39" y1="96" x2="39" y2="0">
			<stop  offset="0" style="stop-color:#61F0FF;stop-opacity:0"/>
			<stop  offset="0.5" style="stop-color:#61F0FF;stop-opacity:0.4"/>
			<stop  offset="1" style="stop-color:#61F0FF;stop-opacity:0"/>
		</linearGradient>
		<rect x="8" fill-rule="evenodd" clip-rule="evenodd" fill="url(#SVGID_1_)" width="62" height="96"/>
	</g>
	<g>
		<polygon fill-rule="evenodd" clip-rule="evenodd" fill="#B7BDE1" points="412.94,122.77 441.43,141.15 470.46,122.73 
			441.78,104.33 		"/>
		<polygon fill-rule="evenodd" clip-rule="evenodd" fill="#9FAFEB" points="412.94,122.7 441.415,141.16 441.415,154.7 
			412.95,136.19 		"/>
		<polygon fill-rule="evenodd" clip-rule="evenodd" fill="#788EE3" points="470.415,122.7 441.415,141.16 441.415,154.7 
			470.395,136.2 		"/>
		
			<polygon fill-rule="evenodd" clip-rule="evenodd" fill="none" stroke="#DAE1F7" stroke-width="0.25" stroke-linecap="round" stroke-linejoin="round" stroke-miterlimit="10" points="
			412.97,122.75 441.45,141.03 470.45,122.72 441.69,104.37 		"/>
		<polygon fill-rule="evenodd" clip-rule="evenodd" fill="#647ECE" points="423.89,121.1 441.4,132.46 458.94,121.09 441.69,109.74 
					"/>
		<polygon fill-rule="evenodd" clip-rule="evenodd" fill="#4562B2" points="423.87,121.09 441.41,132.46 441.41,134.61 
			423.88,123.22 		"/>
		<polygon fill-rule="evenodd" clip-rule="evenodd" fill="#3958AC" points="458.96,121.09 441.41,132.47 441.41,134.61 
			458.95,123.22 		"/>
		
			<line fill-rule="evenodd" clip-rule="evenodd" fill="none" stroke="#D9E0F7" stroke-width="0.25" stroke-linecap="round" stroke-linejoin="round" stroke-miterlimit="10" x1="441.41" y1="141.15" x2="441.415" y2="154.7"/>
	</g>
	<g>
		
			<polygon fill-rule="evenodd" clip-rule="evenodd" fill="none" stroke="#153EB7" stroke-width="2" stroke-linecap="round" stroke-linejoin="round" stroke-miterlimit="10" points="
			63,235.29 236.33,350 412,236.24 236.33,122 		"/>
		<polygon fill-rule="evenodd" clip-rule="evenodd" fill="#B7BDE1" points="83.54,230.92 237.05,330.14 390.45,230.61 
			237.55,130.98 		"/>
		
			<polyline fill-rule="evenodd" clip-rule="evenodd" fill="none" stroke="#D9E0F7" stroke-width="2" stroke-linecap="round" stroke-linejoin="round" stroke-miterlimit="10" points="
			83.54,230.92 237.05,330.14 390.45,230.61 		"/>
		<polygon fill-rule="evenodd" clip-rule="evenodd" fill="#9FAFEB" points="83.53,230.9 237.17,330.24 237.19,339.26 83.54,240.03 
					"/>
		<polygon fill-rule="evenodd" clip-rule="evenodd" fill="#788EE3" points="390.58,230.32 237.19,330.19 237.19,339.28 
			390.48,240.37 		"/>
		
			<line fill-rule="evenodd" clip-rule="evenodd" fill="none" stroke="#D9E0F7" stroke-width="0.75" stroke-linecap="round" stroke-linejoin="round" stroke-miterlimit="10" x1="237.17" y1="330.12" x2="237.17" y2="339.4"/>
	</g>
	<g>
		<g>
			<polygon fill-rule="evenodd" clip-rule="evenodd" fill="#197EE8" points="106.01,224.03 234.99,308.03 363.95,224.05 
				235.61,141.34 			"/>
			<polygon fill-rule="evenodd" clip-rule="evenodd" fill="#0C46C3" points="106,224 235,307.95 235,315 106.08,231.86 			"/>
			<polygon fill-rule="evenodd" clip-rule="evenodd" fill="#00148F" points="364,224 235,307.95 235,315 363.92,231.86 			"/>
			<polygon fill-rule="evenodd" clip-rule="evenodd" fill="#02EAFF" points="147.61,224.01 234.53,280.94 322.63,224.48 
				234.53,167.78 			"/>
			
				<polygon fill-rule="evenodd" clip-rule="evenodd" fill="none" stroke="#4DFFFF" stroke-linecap="round" stroke-linejoin="round" stroke-miterlimit="10" points="
				135,223.6 234.83,289 336,224.13 234.83,159 			"/>
		</g>
		<g>
			<path fill-rule="evenodd" clip-rule="evenodd" fill="#02EAFF" d="M231,153c0-1.66,2.24-3,5-3s5,1.34,5,3s-2.24,3-5,3
				S231,154.66,231,153z"/>
			<path fill-rule="evenodd" clip-rule="evenodd" fill="#02EAFF" d="M119,225c0-1.66,2.24-3,5-3s5,1.34,5,3s-2.24,3-5,3
				S119,226.66,119,225z"/>
			<path fill-rule="evenodd" clip-rule="evenodd" fill="#02EAFF" d="M339,223c0-1.66,2.24-3,5-3s5,1.34,5,3s-2.24,3-5,3
				S339,224.66,339,223z"/>
		</g>
		<g>
			<polygon fill-rule="evenodd" clip-rule="evenodd" fill="#197EE8" points="186.07,219.96 236.16,252.37 285.58,219.82 236.16,187 
							"/>
			<polygon fill-rule="evenodd" clip-rule="evenodd" fill="#0C46C3" points="186,219.42 235.93,252.24 235.93,258 186.03,225.49 			
				"/>
			<polygon fill-rule="evenodd" clip-rule="evenodd" fill="#00148F" points="286,219.42 235.92,252.24 235.92,258 285.97,225.49 			
				"/>
			
				<polygon fill-rule="evenodd" clip-rule="evenodd" fill="none" stroke="#77B3EE" stroke-linecap="round" stroke-linejoin="round" stroke-miterlimit="10" points="
				197.14,219.31 235.86,245 275.09,219.52 235.86,193.94 			"/>
		</g>
		<g>
			
				<line fill-rule="evenodd" clip-rule="evenodd" fill="none" stroke="#000000" stroke-linecap="square" stroke-linejoin="round" stroke-miterlimit="10" x1="280.5" y1="227.5" x2="283.5" y2="232.5"/>
			
				<line fill-rule="evenodd" clip-rule="evenodd" fill="none" stroke="#000000" stroke-linecap="square" stroke-linejoin="round" stroke-miterlimit="10" x1="274.5" y1="230.5" x2="277.5" y2="235.5"/>
			
				<line fill-rule="evenodd" clip-rule="evenodd" fill="none" stroke="#000000" stroke-linecap="square" stroke-linejoin="round" stroke-miterlimit="10" x1="270.5" y1="233.5" x2="273.5" y2="238.5"/>
			
				<line fill-rule="evenodd" clip-rule="evenodd" fill="none" stroke="#000000" stroke-linecap="square" stroke-linejoin="round" stroke-miterlimit="10" x1="264.5" y1="236.5" x2="267.5" y2="241.5"/>
			
				<line fill-rule="evenodd" clip-rule="evenodd" fill="none" stroke="#000000" stroke-linecap="square" stroke-linejoin="round" stroke-miterlimit="10" x1="259.5" y1="240.5" x2="262.5" y2="245.5"/>
			
				<line fill-rule="evenodd" clip-rule="evenodd" fill="none" stroke="#000000" stroke-linecap="square" stroke-linejoin="round" stroke-miterlimit="10" x1="253.5" y1="243.5" x2="256.5" y2="248.5"/>
			
				<line fill-rule="evenodd" clip-rule="evenodd" fill="none" stroke="#000000" stroke-linecap="square" stroke-linejoin="round" stroke-miterlimit="10" x1="249.5" y1="246.5" x2="252.5" y2="251.5"/>
			
				<line fill-rule="evenodd" clip-rule="evenodd" fill="none" stroke="#000000" stroke-linecap="square" stroke-linejoin="round" stroke-miterlimit="10" x1="243.5" y1="249.5" x2="246.5" y2="254.5"/>
		</g>
		<g>
			
				<line fill-rule="evenodd" clip-rule="evenodd" fill="none" stroke="#000000" stroke-linecap="square" stroke-linejoin="round" stroke-miterlimit="10" x1="191.5" y1="227.5" x2="188.5" y2="232.5"/>
			
				<line fill-rule="evenodd" clip-rule="evenodd" fill="none" stroke="#000000" stroke-linecap="square" stroke-linejoin="round" stroke-miterlimit="10" x1="197.5" y1="230.5" x2="194.5" y2="235.5"/>
			
				<line fill-rule="evenodd" clip-rule="evenodd" fill="none" stroke="#000000" stroke-linecap="square" stroke-linejoin="round" stroke-miterlimit="10" x1="201.5" y1="233.5" x2="198.5" y2="238.5"/>
			
				<line fill-rule="evenodd" clip-rule="evenodd" fill="none" stroke="#000000" stroke-linecap="square" stroke-linejoin="round" stroke-miterlimit="10" x1="207.5" y1="236.5" x2="204.5" y2="241.5"/>
			
				<line fill-rule="evenodd" clip-rule="evenodd" fill="none" stroke="#000000" stroke-linecap="square" stroke-linejoin="round" stroke-miterlimit="10" x1="212.5" y1="240.5" x2="209.5" y2="245.5"/>
			
				<line fill-rule="evenodd" clip-rule="evenodd" fill="none" stroke="#000000" stroke-linecap="square" stroke-linejoin="round" stroke-miterlimit="10" x1="218.5" y1="243.5" x2="215.5" y2="248.5"/>
			
				<line fill-rule="evenodd" clip-rule="evenodd" fill="none" stroke="#000000" stroke-linecap="square" stroke-linejoin="round" stroke-miterlimit="10" x1="222.5" y1="246.5" x2="219.5" y2="251.5"/>
			
				<line fill-rule="evenodd" clip-rule="evenodd" fill="none" stroke="#000000" stroke-linecap="square" stroke-linejoin="round" stroke-miterlimit="10" x1="228.5" y1="249.5" x2="225.5" y2="254.5"/>
		</g>
		<g>
			
				<path fill-rule="evenodd" clip-rule="evenodd" fill="none" stroke="#69ABED" stroke-width="2" stroke-linecap="round" stroke-linejoin="round" stroke-miterlimit="10" d="
				M222.37,209.43c3.2-2.27,12.44,0.21,20.65,5.53s12.28,11.48,9.08,13.75c-3.19,2.27-12.44-0.21-20.65-5.53
				C223.24,217.86,219.18,211.7,222.37,209.43z"/>
			
				<path fill="#68AAED" stroke="#69ABED" stroke-width="0.75" stroke-linecap="round" stroke-linejoin="round" stroke-miterlimit="10" d="
				M247.03,210.53c0.8,0.17,1.98,0.03,2.84-0.65c0.85-0.68,0.31-1.4-1.06-1.72c-2.8-0.66-5.88,0.88-8.69,2.56
				c-0.81,0.48-1.6,0.98-2.36,1.43c-5.78,3.52-9.73,5.89-14.26,9.47c-0.93,0.74-1.72,1.69-3.37,2.03c-1.3-0.59-0.18-1-1.64-1.34
				c-2.31-0.52-4.39,1.52-3.08,2.21c0.4,0.21,0.84,0.32,1.51,0.4c3.27,0.39,6.59-1.7,9.99-3.76c6.36-3.86,9.52-5.82,14.84-9.86
				l0.06-0.04c0.97-0.75,2.46-2.05,3.41-1.96C246.15,209.39,245.79,210.27,247.03,210.53z"/>
			
				<path fill="#68AAED" stroke="#69ABED" stroke-width="0.75" stroke-linecap="round" stroke-linejoin="round" stroke-miterlimit="10" d="
				M256.54,213.17c-2.8-0.67-5.88,0.88-8.7,2.56c-0.81,0.48-1.6,0.97-2.35,1.44c-5.79,3.5-9.76,5.9-14.3,9.49
				c-0.92,0.73-1.71,1.68-3.37,2.03c-1.29-0.6-0.17-1.01-1.64-1.34c-2.3-0.52-4.39,1.52-3.08,2.2c0.41,0.22,0.84,0.32,1.52,0.4
				c3.27,0.39,6.58-1.7,9.99-3.76c6.35-3.85,9.54-5.85,14.87-9.88l0.06-0.04c0.96-0.74,2.46-2.05,3.41-1.96
				c0.92,0.1,0.56,0.97,1.81,1.23c0.8,0.17,1.98,0.03,2.83-0.65C258.44,214.22,257.9,213.49,256.54,213.17z"/>
		</g>
	</g>
	<path fill-rule="evenodd" clip-rule="evenodd" fill="#197EE8" d="M416.97,91.88c0-12.21,9.98-22.1,22.29-22.1
		c12.31,0,22.29,9.89,22.29,22.1c0,12.2-9.98,22.09-22.29,22.09C426.95,113.97,416.97,104.08,416.97,91.88z"/>
	<g>
		<path fill-rule="evenodd" clip-rule="evenodd" fill="#FFFFFF" d="M424.46,79.62h4.96l6.36,18.89h15.84c0.89,0,1.57,0.57,1.57,1.49
			c0,0.91-0.73,1.66-1.63,1.66h-17.95l-6.15-18.84h-3c-0.89,0-1.63-0.62-1.63-1.54C422.83,80.36,423.56,79.62,424.46,79.62z"/>
		<path fill-rule="evenodd" clip-rule="evenodd" fill="#FFFFFF" d="M434.14,105.85c0-1.49,1.17-2.7,2.62-2.7
			c1.45,0,2.62,1.21,2.62,2.7c0,1.49-1.17,2.69-2.62,2.69C435.31,108.54,434.14,107.34,434.14,105.85z"/>
		<path fill-rule="evenodd" clip-rule="evenodd" fill="#FFFFFF" d="M445.5,105.85c0-1.49,1.17-2.7,2.62-2.7
			c1.45,0,2.62,1.21,2.62,2.7c0,1.49-1.17,2.69-2.62,2.69C446.67,108.54,445.5,107.34,445.5,105.85z"/>
		<path fill-rule="evenodd" clip-rule="evenodd" fill="#FFFFFF" d="M436.18,85.59h15.14c1.13,0,3.02-0.08,2.04,2.14l-1.75,6.43
			c-0.44,1.35-0.91,2.45-2.04,2.45h-11.06c-1.13,0-1.36-1.37-1.75-2.39l-2.62-6.49C433.51,85.48,435.05,85.59,436.18,85.59z"/>
		
			<polygon fill-rule="evenodd" clip-rule="evenodd" fill="none" stroke="#FF0000" stroke-linecap="round" stroke-linejoin="round" stroke-miterlimit="10" points="
			438.8,91.34 443.51,95.2 450.25,89.09 448.12,87.4 443.26,91.79 440.67,89.61 		"/>
	</g>
	<g>
		<linearGradient id="SVGID_2_" gradientUnits="userSpaceOnUse" x1="441" y1="120" x2="441" y2="28">
			<stop  offset="0" style="stop-color:#61F0FF;stop-opacity:0"/>
			<stop  offset="0.5" style="stop-color:#61F0FF;stop-opacity:0.4"/>
			<stop  offset="1" style="stop-color:#61F0FF;stop-opacity:0"/>
		</linearGradient>
		<rect x="412" y="28" fill-rule="evenodd" clip-rule="evenodd" fill="url(#SVGID_2_)" width="58" height="92"/>
	</g>
	<g>
		<path fill-rule="evenodd" clip-rule="evenodd" fill="#964930" d="M238.37,34.72l-45.15,31.33c-3.03,2.11-2.95,5.4,0.18,7.35
			l25.99,16.25c3.03,1.89,7.94,1.78,10.97-0.25l45.15-30.17c3.19-2.14,3.34-5.5,0.31-7.51l-26-17.26
			C246.7,32.38,241.56,32.5,238.37,34.72z"/>
		<g>
			<linearGradient id="SVGID_3_" gradientUnits="userSpaceOnUse" x1="234.5" y1="88.0264" x2="234.5" y2="29.9985">
				<stop  offset="0" style="stop-color:#FFB45B"/>
				<stop  offset="1" style="stop-color:#FF9A44"/>
			</linearGradient>
			<path fill-rule="evenodd" clip-rule="evenodd" fill="url(#SVGID_3_)" d="M238.37,31.74l-45.15,31.34
				c-3.03,2.1-2.95,5.39,0.18,7.35l25.99,16.24c3.03,1.9,7.94,1.79,10.97-0.24l45.15-30.18c3.19-2.13,3.34-5.49,0.31-7.5l-26-17.27
				C246.7,29.41,241.56,29.52,238.37,31.74z"/>
			<polygon fill-rule="evenodd" clip-rule="evenodd" fill="#FFFFFF" points="221.93,58.23 207.4,68.2 209.89,69.77 224.42,59.83 			
				"/>
			<polygon fill-rule="evenodd" clip-rule="evenodd" fill="#FFFFFF" points="228.15,62.21 213.62,72.12 216.1,73.68 230.63,63.8 			
				"/>
			<polygon fill-rule="evenodd" clip-rule="evenodd" fill="#FFFFFF" points="234.33,66.17 219.8,76.02 222.26,77.57 236.79,67.75 
							"/>
			<polygon fill-rule="evenodd" clip-rule="evenodd" fill="#FFFFFF" points="244.05,37.82 224.21,51.49 246.49,65.86 266.33,52.49 
							"/>
			<path fill-rule="evenodd" clip-rule="evenodd" fill="#040404" d="M248.64,49.12c-2.06-1.34-5.4-1.29-7.46,0.12
				c-2.05,1.4-2.04,3.62,0.01,4.95c2.05,1.34,5.37,1.28,7.43-0.11C250.67,52.68,250.69,50.46,248.64,49.12z"/>
			<path fill-rule="evenodd" clip-rule="evenodd" fill="#040404" d="M262.2,54.71c-0.33-0.27-1.7-1.13-2.1-1.39
				c-2.91-1.91-10.22-1.79-12.85,0c-2.62,1.78-2.46,6.46,0.44,8.35c0.45,0.29,1.69,1.12,2.1,1.37L262.2,54.71z"/>
		</g>
	</g>
	<g>
		<g>
			<polygon fill-rule="evenodd" clip-rule="evenodd" fill="#7CB6F9" points="323.03,138.98 348.98,155.97 374.95,138.98 
				349.52,122.03 			"/>
			<polygon fill-rule="evenodd" clip-rule="evenodd" fill="#5C7AF6" points="323,139 349,156 349,162 323.02,144.98 			"/>
			<polygon fill-rule="evenodd" clip-rule="evenodd" fill="#3E43C2" points="331.03,139.03 349,150.98 368,139.05 349.63,127 			"/>
			<polygon fill-rule="evenodd" clip-rule="evenodd" fill="#312AAA" points="375,139 349,156 349,162 374.98,144.98 			"/>
		</g>
		<g>
			<path fill-rule="evenodd" clip-rule="evenodd" fill="#DFE0F0" d="M349.01,111l-11.83,4.54c0,0-0.71,9.04,0.85,14.62
				c2.24,8.05,10.98,9.79,10.98,9.79V111z"/>
			<path fill-rule="evenodd" clip-rule="evenodd" fill="#C6C7E5" d="M349.01,111l11.83,4.53c0,0,0.71,9.05-0.85,14.62
				c-2.24,8.05-10.98,9.8-10.98,9.8V111z"/>
			<path fill-rule="evenodd" clip-rule="evenodd" fill="#9FAFEB" d="M349,113l-9.8,3.5c0,0-0.67,7.55,0.45,12.26
				c1.61,6.76,9.35,8.24,9.35,8.24V113z"/>
			<path fill-rule="evenodd" clip-rule="evenodd" fill="#788EE3" d="M349,113l9.97,3.86c0,0,0.28,7.66-0.9,12.31
				C356.35,135.91,349,137,349,137V113z"/>
			
				<polygon fill-rule="evenodd" clip-rule="evenodd" fill="none" stroke="#FFFFFF" stroke-linecap="round" stroke-linejoin="round" stroke-miterlimit="10" points="
				344,125.04 348.94,129 356,122.73 353.76,121 348.67,125.51 345.96,123.27 			"/>
		</g>
	</g>
</g>
</svg>
