<?xml version="1.0" encoding="utf-8"?>
<!-- Generator: Adobe Illustrator 16.0.0, SVG Export Plug-In . SVG Version: 6.00 Build 0)  -->
<!DOCTYPE svg PUBLIC "-//W3C//DTD SVG 1.1//EN" "http://www.w3.org/Graphics/SVG/1.1/DTD/svg11.dtd">
<svg version="1.1" id="层_1" xmlns="http://www.w3.org/2000/svg" xmlns:xlink="http://www.w3.org/1999/xlink" x="0px" y="0px"
	 width="392px" height="344px" viewBox="0 0 392 344" enable-background="new 0 0 392 344" xml:space="preserve">
<g>
	<path fill-rule="evenodd" clip-rule="evenodd" fill="#4E9DF4" d="M4,246.81c0.55-53.47,87.62-96.7,194.49-96.7
		c106.87,0,193.51,43.23,193.51,96.7c0,53.61-87.08,97.19-194.49,97.19C90.09,344,3.46,300.42,4,246.81z"/>
	<path fill-rule="evenodd" clip-rule="evenodd" fill="#A3C9F5" d="M4.11,226.49c0.55-53.44,87.6-96.65,194.44-96.65
		c106.84,0,193.45,43.21,193.45,96.65c0,53.59-87.05,97.14-194.44,97.14C90.18,323.63,3.57,280.08,4.11,226.49z"/>
	<path fill-rule="evenodd" clip-rule="evenodd" fill="#D1E4FA" d="M47.02,218.34c0.38-41.95,68.72-75.88,152.65-75.88
		c83.93,0,151.93,33.93,151.88,75.88c-0.04,42.04-68.38,76.18-152.65,76.18C114.64,294.52,46.64,260.38,47.02,218.34z"/>
</g>
<path fill-rule="evenodd" clip-rule="evenodd" fill="none" stroke="#4E9DF4" stroke-width="2" stroke-linecap="round" stroke-linejoin="round" stroke-miterlimit="10" d="
	M4.11,159.04c0.55-53.44,87.6-96.65,194.44-96.65C305.39,62.39,392,105.6,392,159.04c0,53.59-87.05,97.14-194.44,97.14
	C90.18,256.18,3.57,212.63,4.11,159.04z"/>
<g>
	<path fill-rule="evenodd" clip-rule="evenodd" fill="#FDC029" d="M306.53,227.65c0-0.81-0.88-9.46,1.11-10.13
		c4.92-1.67,17.14-3.03,28.97-3.03c12.09,0,24.23,1.34,29.01,3.08c1.79,0.64,1.07,9.32,1.07,10.08c0,2.79-13.47,5.06-30.08,5.06
		C320,232.71,306.53,230.44,306.53,227.65z"/>
	<path fill-rule="evenodd" clip-rule="evenodd" fill="#F9E0A7" d="M306.53,215.84c0-2.79,13.47-5.06,30.08-5.06
		c16.61,0,30.08,2.27,30.08,5.06c0,2.8-13.47,5.06-30.08,5.06C320,220.9,306.53,218.64,306.53,215.84z"/>
	<path fill-rule="evenodd" clip-rule="evenodd" fill="#FDC029" d="M309.87,214.16c0-0.81-0.87-9.46,1.11-10.13
		c4.92-1.67,17.14-3.03,28.97-3.03c12.09,0,24.23,1.34,29.01,3.08c1.79,0.64,1.07,9.32,1.07,10.08c0,2.79-13.47,5.06-30.08,5.06
		C323.34,219.22,309.87,216.95,309.87,214.16z"/>
	<path fill-rule="evenodd" clip-rule="evenodd" fill="#F9E0A7" d="M309.87,202.35c0-2.79,13.47-5.06,30.08-5.06
		c16.61,0,30.08,2.27,30.08,5.06c0,2.8-13.47,5.06-30.08,5.06C323.34,207.41,309.87,205.15,309.87,202.35z"/>
	<path fill-rule="evenodd" clip-rule="evenodd" fill="#FDC029" d="M308.2,200.67c0-0.81-0.88-9.46,1.11-10.13
		c4.92-1.67,17.14-3.03,28.97-3.03c12.09,0,24.23,1.34,29.01,3.08c1.79,0.64,1.07,9.32,1.07,10.08c0,2.79-13.47,5.06-30.08,5.06
		C321.67,205.73,308.2,203.46,308.2,200.67z"/>
	<path fill-rule="evenodd" clip-rule="evenodd" fill="#F9E0A7" d="M308.2,188.86c0-2.79,13.47-5.06,30.08-5.06
		c16.61,0,30.08,2.27,30.08,5.06c0,2.8-13.47,5.06-30.08,5.06C321.67,193.92,308.2,191.66,308.2,188.86z"/>
	<path fill-rule="evenodd" clip-rule="evenodd" fill="#FDC029" d="M311.54,187.18c0-0.81-0.87-9.46,1.11-10.13
		c4.92-1.67,17.15-3.03,28.97-3.03c12.09,0,24.23,1.34,29.01,3.07c1.79,0.65,1.07,9.33,1.07,10.09c0,2.79-13.47,5.06-30.08,5.06
		C325.01,192.24,311.54,189.97,311.54,187.18z"/>
	<path fill-rule="evenodd" clip-rule="evenodd" fill="#F9E0A7" d="M311.54,175.37c0-2.79,13.47-5.06,30.08-5.06
		c16.61,0,30.08,2.27,30.08,5.06c0,2.8-13.47,5.06-30.08,5.06C325.01,180.43,311.54,178.17,311.54,175.37z"/>
</g>
<g>
	<g>
		<polygon fill-rule="evenodd" clip-rule="evenodd" fill="#7CB6F9" points="12.45,210.76 56.04,239.4 99.66,210.76 56.94,182.17 		
			"/>
		<polygon fill-rule="evenodd" clip-rule="evenodd" fill="#5C7AF6" points="12.4,210.78 56.07,239.45 56.07,256.31 12.43,227.61 		
			"/>
		<polygon fill-rule="evenodd" clip-rule="evenodd" fill="#73FFFF" points="25.89,210.84 56.07,230.99 87.98,210.87 57.12,190.55 		
			"/>
		<polygon fill-rule="evenodd" clip-rule="evenodd" fill="#312AAA" points="99.74,210.78 56.07,239.45 56.07,256.31 99.71,227.61 		
			"/>
	</g>
	<g>
		<path fill-rule="evenodd" clip-rule="evenodd" fill="#DFE0F0" d="M56.05,170.4l-19.86,7.65c0,0-1.2,15.25,1.41,24.65
			c3.78,13.58,18.45,16.52,18.45,16.52V170.4z"/>
		<path fill-rule="evenodd" clip-rule="evenodd" fill="#C6C7E5" d="M56.08,170.31l19.87,7.65c0,0,1.2,15.25-1.41,24.65
			c-3.78,13.58-18.46,16.51-18.46,16.51V170.31z"/>
		<path fill-rule="evenodd" clip-rule="evenodd" fill="#9FAFEB" d="M56.07,173.69l-16.46,5.89c0,0-1.13,12.74,0.75,20.68
			c2.71,11.39,15.71,13.9,15.71,13.9V173.69z"/>
		<path fill-rule="evenodd" clip-rule="evenodd" fill="#788EE3" d="M56.07,173.69l16.75,6.5c0,0,0.47,12.92-1.52,20.77
			c-2.88,11.36-15.23,13.2-15.23,13.2V173.69z"/>
		
			<polygon fill-rule="evenodd" clip-rule="evenodd" fill="none" stroke="#FFFFFF" stroke-width="2" stroke-linecap="round" stroke-linejoin="round" stroke-miterlimit="10" points="
			47.67,194 55.96,200.67 67.83,190.1 64.07,187.18 55.52,194.77 50.96,191.01 		"/>
	</g>
</g>
<g>
	<polygon fill-rule="evenodd" clip-rule="evenodd" fill="#7CB6F9" points="250.96,58.99 294.55,87.63 338.17,58.99 295.45,30.41 	
		"/>
	<polygon fill-rule="evenodd" clip-rule="evenodd" fill="#5C7AF6" points="250.91,59.02 294.58,87.69 294.58,104.55 250.94,75.85 	
		"/>
	<polygon fill-rule="evenodd" clip-rule="evenodd" fill="#3E43C2" points="264.4,59.07 294.58,79.23 326.49,59.1 295.63,38.78 	"/>
	<polygon fill-rule="evenodd" clip-rule="evenodd" fill="#312AAA" points="338.25,59.02 294.58,87.69 294.58,104.55 338.22,75.85 	
		"/>
</g>
<path fill-rule="evenodd" clip-rule="evenodd" fill="#3C6CC1" d="M259.31,33.73C259.31,15.1,274.35,0,292.9,0
	c18.55,0,33.59,15.1,33.59,33.73c0,18.62-15.04,33.72-33.59,33.72C274.35,67.45,259.31,52.35,259.31,33.73z"/>
<g>
	<path fill-rule="evenodd" clip-rule="evenodd" fill="#FFFFFF" d="M268.51,15.18h7.58l9.7,28.63h24.19c1.37,0,2.39,0.86,2.39,2.25
		s-1.11,2.52-2.47,2.52h-27.42l-9.39-28.56h-4.57c-1.37,0-2.49-0.94-2.49-2.33S267.14,15.18,268.51,15.18z"/>
	<path fill-rule="evenodd" clip-rule="evenodd" fill="#FFFFFF" d="M283.29,54.93c0-2.26,1.8-4.09,4.01-4.09s4,1.83,4,4.09
		c0,2.26-1.79,4.09-4,4.09S283.29,57.19,283.29,54.93z"/>
	<ellipse fill-rule="evenodd" clip-rule="evenodd" fill="#FFFFFF" cx="304.64" cy="54.93" rx="4" ry="4.09"/>
	<path fill-rule="evenodd" clip-rule="evenodd" fill="#FFFFFF" d="M286.4,24.22h23.13c1.72,0,4.61-0.11,3.11,3.25l-2.67,9.74
		c-0.67,2.06-1.39,3.72-3.11,3.72h-16.9c-1.72,0-2.07-2.08-2.67-3.62l-4-9.84C282.33,24.06,284.68,24.22,286.4,24.22z"/>
</g>
<g>
	<path fill-rule="evenodd" clip-rule="evenodd" fill="#82A1D7" d="M82.1,70.14l28.77,13.43c0,0,7.59,3.36,8.85-4.06
		c1.61-9.56-8.32-17.22-8.32-17.22s-3.96-16.65-12.84-21.33C85.34,33.99,84.6,46,84.6,46s-7.62-1.26-8.49,2.32
		C73.75,58.07,82.1,70.14,82.1,70.14z"/>
	<path fill-rule="evenodd" clip-rule="evenodd" fill="#3C6CC1" d="M76.86,74.59l29.29,12.34c0,0,7.58,3.35,8.8-4.04
		c1.57-9.5-8.36-17.11-8.36-17.11s-4.02-16.56-12.89-21.21c-13.21-6.93-13.9,5.01-13.9,5.01s-8.85,0.47-10.02,6.4
		C67.85,65.71,76.86,74.59,76.86,74.59z"/>
</g>
<radialGradient id="SVGID_1_" cx="192.125" cy="153.4502" r="72.3676" gradientTransform="matrix(1 0 0 0.8 0 30.69)" gradientUnits="userSpaceOnUse">
	<stop  offset="0" style="stop-color:#A3C9F5"/>
	<stop  offset="1" style="stop-color:#4E9DF4"/>
</radialGradient>
<path fill-rule="evenodd" clip-rule="evenodd" fill="url(#SVGID_1_)" d="M119.9,153.45c0-40.05,32.33-72.51,72.22-72.51
	c39.89,0,72.23,32.46,72.23,72.51c0,40.05-32.34,72.51-72.23,72.51C152.23,225.96,119.9,193.5,119.9,153.45z"/>
<g opacity="0.2">
	<path fill-rule="evenodd" clip-rule="evenodd" fill="#FFFFFF" d="M185.61,213.48l-0.21,0.41h-0.82v-0.62L185.61,213.48z
		 M231.89,211.84c0.2-0.21,0.61-0.41,0.82-0.62C232.5,211.43,232.09,211.63,231.89,211.84z M229.01,216.76
		c1.23-1.23,2.26-2.67,3.49-3.9c0.41-0.61,1.44-1.02,2.06-1.43c0.41-0.42,3.7-4.11,3.7-3.08
		C238.26,209.99,231.48,215.12,229.01,216.76z M245.67,198.29c0.2-0.41,0.41-0.82,0.82-1.03
		C246.28,197.67,246.08,198.08,245.67,198.29z M140.36,204.45c-4.11-3.9-6.79-7.8-9.25-11.71L140.36,204.45z M130.9,192.33
		l-1.85-3.07L130.9,192.33z M146.12,189.46v0.62h-0.62c0-0.21-0.2-0.62,0-1.03C145.71,189.26,145.91,189.26,146.12,189.46z
		 M127.82,187.2l-0.62-1.23L127.82,187.2z M126.17,183.71c0-0.2-0.21-0.41-0.21-0.61C125.96,183.3,126.17,183.51,126.17,183.71z
		 M125.76,182.69l-1.85-4.93L125.76,182.69z M258.62,175.3c0-0.41,0.21-0.82,0.42-1.03C259.04,174.48,258.83,174.89,258.62,175.3z
		 M189.11,173.45c0,0.2,0.2,0.61,0,1.03h-0.83l0.21-1.03H189.11z M201.24,172.63h0.62h-1.44c0.82,0,1.85-0.21,2.67-0.41
		C202.48,172.83,201.86,172.42,201.24,172.63z M189.31,172.01c-0.61-0.2-1.44-0.41-2.26-0.82c0.21,0,0.41-0.2,2.47-0.2
		C189.52,171.19,189.31,171.6,189.31,172.01z M211.52,169.96c0,0.41-0.82,0.41-1.23,0.61c-0.2-0.82,0.62-1.23,1.23-1.43
		C211.73,169.14,211.52,169.34,211.52,169.96z M175.33,169.14v-0.62c0.2,0,0.41,0,0.61,0.21
		C175.74,168.93,175.53,169.14,175.33,169.14z M182.73,169.14c-0.21,0.2-0.41,0.2-0.62,0.41c0-0.41-0.61-1.23-0.61-1.64
		c0-0.62,0.61-0.62,0.82-0.62C182.52,167.91,182.52,168.52,182.73,169.14z M182.32,166.06l-0.21-1.03h0.41L182.32,166.06z
		 M262.94,163.8c0,0.62-0.2,1.23-0.2,1.64c-0.21-0.2-0.41-0.41-0.41-0.82v-1.85C262.74,163.18,262.94,163.8,262.94,163.8z
		 M120,152.1v-0.62V152.1z M222.63,148.82v0.82c-1.23-0.21-1.44,1.02-1.44,1.23c0,0.61,0.21,0.82,0.21,1.02
		c0.41,0.21,2.67,1.03,3.29,1.03c0.41,0,0.41-0.41,0.61-0.82c0.62,0.2,1.24,0.62,1.86,0.82v0.62c-0.21,0.41-0.62,0.61-1.03,0.82
		c0.41,0.2,3.29,1.23,3.29,2.46c0,0.41-0.41,1.64-0.82,2.46h-3.71c-1.23-0.82-0.82-1.84-1.44-2.46c-1.23-1.23-2.67-2.26-4.11-3.08
		c-1.23-0.61-1.23,0-1.23-1.23c0-1.03,0.2-4.31,2.26-4.31C220.78,148.2,221.81,148.61,222.63,148.82z M170.8,147.99
		c-0.2,0.41-0.82,0.62-1.23,0.83c0.2,0.2,0.41,0.41,0.61,0.41c-0.2,1.02-1.02,2.05-2.46,2.25h-0.62v-0.61
		c0.2-0.41,0.62-1.03,0.82-1.64c0.21-0.83,0.82-1.65,1.65-1.65C169.98,147.58,170.39,147.79,170.8,147.99z M184.17,148.4
		c0,0-0.41-0.2-0.62-0.41l-0.41,0.41c-0.2-0.2-0.2-0.41-0.2-0.61c0,0,0,0.2,0.2,0.41c0.41-0.21,0.82-0.82,1.03-1.03V148.4z
		 M120,148.4v-1.23V148.4z M173.68,145.53c-0.2,0.21-0.82,0.41-0.82,1.03c0,0.41,0.62,0.82,0.82,1.43c0.41,0.83,0.82,2.26,1.03,3.29
		c0.2,0.2,0.62,0.2,1.03,0.41c-0.41,0.41-1.24,0.61-1.24,1.03c0,0.61,0.21,0.41,0.41,0.61c-1.23,0.21-2.46,0.21-3.7,0.21
		c0.21,0,0.62-0.21,1.03-0.62c0-0.41-0.62-0.82-1.03-1.03c1.03-2.25,1.65-1.64,1.65-2.87c0-0.41,0.2-1.23-0.82-1.23
		c-0.21-0.21-0.21-0.41-0.21-1.03c0-0.61,0.21-1.85,1.03-2.05C173.06,145.12,173.27,145.53,173.68,145.53z M265,144.71v-0.62V144.71
		z M138.72,138.96c-1.44-0.41-1.44-2.05-2.06-3.08l3.08-0.61C138.72,136.09,138.92,137.52,138.72,138.96z M170.18,133.83v0.62
		c-1.02,0.61-2.26,1.02-3.29,1.43c-0.41-0.82-0.2-1.02-0.61-1.64c0-1.03,1.02-0.82,2.26-0.82
		C168.95,133.42,169.57,133.42,170.18,133.83z M123.29,131.57c0-0.2,0.21-0.61,0.21-0.82C123.5,130.96,123.29,131.37,123.29,131.57z
		 M130.7,125.62c0-0.41,0-0.82,0.2-1.03C130.9,125,130.9,125.41,130.7,125.62z M129.87,123.36l0.21-1.03
		C130.08,122.54,130.28,122.74,129.87,123.36z M187.05,121.72h-0.82H187.05z M185.61,122.33c0,0.41,0.82,1.03,1.03,1.44
		c-0.21-0.41-0.62-0.82-1.03-1.23c-0.41,0.62-0.62,1.44-1.03,2.05c-0.41-0.41-0.82-1.23-1.44-1.85c0.62-0.41,1.24-0.82,1.85-0.82
		c0.41,0,0,0.21,0.21,0.41c0.2-0.2,0.41-0.61,0.41-1.02C185.61,121.51,185.4,121.92,185.61,122.33z M132.75,121.1
		c0,0.41-0.62,1.03-1.03,1.64c-0.41-0.41-0.82-0.82-1.02-0.82c0.61-0.61,1.23-1.23,1.85-1.64
		C132.55,120.49,132.75,120.49,132.75,121.1z M199.18,122.54c0,0.62,0.21,1.64,0.62,2.46c0.21,0.41,1.03,0.82,1.44,1.03
		c-0.62,0-1.44-0.21-2.06-0.41c-0.41-0.82-0.82-2.67-0.82-3.08c0-1.64-0.2-1.23,1.85-2.67
		C200.01,120.69,199.18,122.13,199.18,122.54z M133.16,119.46c0,0.41-0.41,0.41-0.41,0.62c-0.2-0.62-0.41-1.44-1.03-1.44
		c-0.61,0-0.61,0.41-0.82,0.41c0-0.82,1.03-1.23,1.85-1.23C132.96,118.23,133.16,118.84,133.16,119.46z M149.62,115.15
		c-0.21,0.62-0.41,1.85-1.44,2.05c0.2-0.2,0.41-0.61,0.61-1.02c-0.61-0.62-0.2-0.41-0.82-0.41c0-0.21,0.41-0.42,0.62-0.62H149.62z
		 M166.69,115.56c0.61,0,1.85-0.62,2.26-0.62c0.62,0,0.62,0.21,0.82,0.21c0.21,0.41,0.21,0.82,0.83,1.03
		c1.02,0.41,2.67,0.41,3.7,0.61h0.82c1.44,0.82,0.41,1.85,2.26,2.05c-0.41,0.42-1.03,0.21-1.23,0.42c-1.03,0.61-1.44,1.64-1.85,2.46
		c-0.62,1.23-2.68,3.49-3.91,2.87c-0.82,0.82-0.62,1.23-0.21,2.88c0,0-0.2,0.2-0.61,0.2c0-0.41,0-1.02-0.21-1.64
		c-0.62,0.41-0.82,0.82-1.44,1.44c0.21,0.41,0.41,0.61,0.82,0.61v0.62h-3.08c0-0.21-0.21-0.41-0.82-0.41c-0.41,0-2.88,1.23-3.5,1.23
		c-0.41,0-1.03-0.41-1.64-0.41c-0.42,0-1.86,1.02-2.68,1.44c-0.82,0.82-1.85,1.64-2.88,2.25h-0.62c-0.2-0.61-0.41-1.43-0.41-1.84
		c0-1.85,1.65-3.29,3.29-5.14c0.83-1.23,2.88-1.02,3.91-2.05c1.65-1.64,4.32-5.95,4.32-6.36c0-0.62-0.82-0.82-0.82-1.23
		c0-0.62,0.41-1.24,1.03-1.24C165.25,114.94,166.28,115.56,166.69,115.56z M135.01,115.97c0,1.23-0.2,1.44-1.44,2.87
		c0.21-1.23,0.83-2.66,1.24-4.1C135.01,115.15,135.01,115.35,135.01,115.97z M158.26,113.1c-0.42,0.2-0.83,0.2-1.44,0.2
		c0,0.21-0.21,0.41-0.42,0.62c0.21,0.2,0.62,0.2,1.65,0l0.41,0.41c-0.41,0.41-1.03,1.02-1.03,1.44c0,0.61,0.41,0.2,0.41,0.61
		c0,0.62-0.82,1.64-1.23,2.46c-1.03,1.44-2.06,2.67-3.09,3.9h-0.61c0.2-0.2,0.2-0.61,0.41-1.43c0,0,0-0.21-0.41-0.21
		c-0.62,0-1.85,1.85-2.88,2.47c0-0.41,0.2-1.03,0-1.65c-0.62,0.41-0.82,1.24-1.24,1.65c0-0.21-0.2-0.21-0.2-0.62
		c0-1.23,1.85-2.87,1.85-3.49c0-0.41-0.62-0.82-0.62-1.23h0.62v1.23c0.62,0.21,1.23,0,1.85,0c0,0.21-0.2,0.62-0.2,1.03
		c0.2,0,0,0.2,0.61,0.2c0.41,0,2.47-3.08,3.5-4.72c-0.21-0.2-0.62-0.41-0.82-0.62c0-0.41-0.21-1.02-0.21-1.64
		c0-0.41,0.41-0.61,0.82-0.82L158.26,113.1z M204.74,112.69c-0.21-0.21-0.21-0.41-0.62-0.41c-0.62,0-1.64,0.82-2.47,1.23
		c-0.2-0.21-0.41-0.62-0.41-0.82c1.65,0,2.26-0.62,3.5-0.82V112.69z M169.77,113.51c-0.82,0.2-2.05,0.61-2.47,0.61
		c-0.61,0-1.23-0.41-1.85-0.41c-0.41,0-1.02,0.41-1.64,0.41h-1.85c0-0.2,0.41-0.41,0.41-0.82c0-0.61-0.41-0.61-0.41-1.02
		c0,0.2,0.2,0.82,0.82,0.82c0.41,0,0.62-0.41,0.82-0.62c-0.2,0.21-0.41,0.41,0.21,0.41c0.41,0,0.62-0.41,1.03-0.82
		c0.41,0.21,0.41,1.23,1.03,1.23c0.41,0,0.61-0.2,1.02-0.61l-0.41-0.41v-0.62C167.1,112.28,168.95,113.51,169.77,113.51z
		 M160.11,112.89l0.61,0.62v0.82h-0.61c-0.41-0.41-0.41-1.03-0.41-1.64c0-0.82-0.21-1.44,1.23-1.03
		C160.52,112.07,160.31,112.48,160.11,112.89z M158.26,111.25c-0.21,0.2-0.21,0.41-0.21,0.62c-0.41,0-0.82-0.42-1.03-0.83
		L158.26,111.25z M165.45,110.63c-0.2,0.21-0.2,0.41-0.41,0.62h-1.23c0.2-0.21,0-0.82,0.62-0.82
		C164.84,110.43,165.04,110.63,165.45,110.63z M153.52,110.84c-0.2-0.21-0.41-0.21-0.61-0.41l0.82-0.21
		C153.73,110.43,153.73,110.63,153.52,110.84z M158.05,110.22c-0.62,0-1.44,0.21-2.06,0c0-0.2,0.41-0.61,0.83-1.02
		C157.23,109.81,157.43,109.81,158.05,110.22z M159.28,103.65c-0.2,0.83-2.46,2.06-2.46,2.88c0,0.41,0.2,0.2,0.41,0.2
		c-0.21,0.21-0.62,0.21-1.03,0.62c0.2,0.2,0.62,0.2,1.03,0.41c-0.41,0.2-1.24,0-1.65,0.2c-0.62,0.21-0.82,0.83-1.23,1.03
		c-0.21-0.2-0.62-0.41-0.83-0.61c0.21-0.21,0.62-0.62,0.62-1.03c0-0.62-0.62-0.41-0.62-0.82c0-0.62,0.83-1.44,1.65-2.05
		c0,0.2-0.21,1.02,0,1.23c0.82-0.41,1.44-0.82,2.47-1.65c0-0.2-0.21-0.61-0.41-1.02c0.2-0.21,0.41-0.21,0.61-0.41
		C158.26,103.04,158.87,103.45,159.28,103.65z M210.7,102.01h-0.82v-2.05C210.29,100.57,210.5,101.4,210.7,102.01z M241.14,99.55
		l-1.23-1.23C240.32,98.73,240.94,99.14,241.14,99.55z M229.62,93.8c0.42,0,0.62-0.41,0.83-0.62c0,0,0.2,0.21,0.2,0.42
		c-0.82,0.2-2.05,0-2.88,1.23c0.41-0.41,0.83-1.03,1.03-1.65C229.01,93.39,229.01,93.8,229.62,93.8z M233.12,94.01
		c0,0,0.21,0,0.41-0.21l-0.41-0.41c1.85,1.03,3.91,2.67,5.97,4.31c-1.24-1.03-2.68-2.46-4.12-3.28c-0.62-0.41-1.64-0.41-2.06-0.62
		c-1.02-0.2-1.43-0.62-2.67-1.85C231.06,92.57,232.09,93.18,233.12,94.01z M208.44,88.87c0.41,0,0-0.41,0.62-0.41
		c0.41,0,0.61,0.41,0.82,0.41c0,0,0.21,0,0.21-0.41c0-0.61-0.21-0.82-0.62-1.23c1.23,0.41,2.67,0.62,3.91,0.82
		c0.2,0.21,0.2,0.41,0.41,0.41c1.03,0.62,2.47,1.24,2.88,1.24c0.82,0,0.82-0.62,0.82-1.24c0.62-0.2,1.23-0.2,1.85-0.2
		c0.82,0,1.85-0.41,1.85,0.82c0,0.82-0.82,1.44-1.44,1.44c-0.41,0-2.88-0.41-3.29-0.41c-0.62,0-0.82,0.2-1.23,0.61
		c0.61,0.41,1.23,0.41,1.85,0.41c0.2,2.05,2.47,1.44,3.7,1.64c1.65,3.29,5.55,5.14,8.23,5.75c0.2-0.2,0.61-0.41,0.61-0.82
		c0-0.61-1.23-1.03-1.23-1.64c0-0.41,1.44-1.23,1.85-1.23c0.82,0,5.76,2.26,5.97,2.46c0.41,0.21,0.82,1.03,1.44,1.44
		c1.02,1.02,2.67,1.84,4.31,2.87c0-0.2-0.2-0.61-0.2-0.82c0.2,0,0.62-0.21,0.41-0.41c0.41,0.82,1.23,1.64,2.06,2.46
		c-0.21-0.2-0.62-0.41-1.03-0.41c0,0.21,0,0.82,0.2,0.82c-0.2,0-0.61-0.2-0.82,0c0.41,0.62,0.82,1.24,1.44,1.85
		c-0.2,0-0.62-0.2-1.03,0l3.29,3.7c0.21-0.21,0.42,0,0.42-0.62c0-0.41-0.83-1.64-1.24-2.46c0.62,0.82,2.06,2.67,2.47,2.67
		c0.62,0,0.41-0.42,1.03-0.42c0.41,0,0.82,1.03,1.44,1.65c3.9,4.72,6.99,10.06,8.84,15.19c0,0,0.21-0.21,0.21-0.41
		c0,0.2-0.21,0-0.21,0.61c0,0.41,0.21,0.62,0.41,0.82c0,0,0.21-0.2,0.21-0.41c-0.21,1.24,0.62,2.26,1.23,3.7
		c1.24,2.46,1.85,5.54,2.47,8.21c0.21,1.03,0.41,2.67,0.82,4.11c-0.2-0.83-0.82-1.85-1.23-2.88c-0.21,0.21-0.21,0.21-0.21,0.82
		c0,0.41,0.21,1.44,0.41,2.06c-0.41-0.42-1.02-1.65-1.64-1.65c-0.41,0,0,0.41-0.62,0.41c-0.41,0-0.61-0.2-0.82-0.41
		c-0.82,0.82-0.62,3.29-0.62,4.31c0,0.62,0.41,1.44,0.62,2.47c0.41,3.9,0,9.65,0,10.06c0,0.61-0.21,0.82,0,1.23
		c0.21,0.41,0.62,1.02,0.62,1.43c0.2,1.24,0.61,3.08,0.61,3.7c0,0.41-0.41,2.26-0.41,3.69c-0.2,0-0.41,0.21-0.61,0.42
		c-0.83-2.26-4.32-4.73-5.76-6.78c-0.42-0.61-0.21-2.46-1.65-2.26c0,0.62,0.21,1.23,0.21,1.85c0,0.41-0.62,1.03-1.03,1.44
		c-0.21-0.21-0.41-0.21-0.62-0.21c0-0.2,0.21-0.61,0-1.64c-0.41,0-0.62,0.62-1.03,0.82c-1.03,0-2.47-0.2-3.49,0.21
		c-0.62,0.2-0.62,1.02-1.03,1.64c-0.62,0.61-1.44,1.44-2.26,1.64c0,0.21-0.21,0.62-0.42,1.03c-0.61,0.61-2.26,1.84-2.67,1.84
		c-0.62,0-1.23-0.61-1.85-0.61c-0.41,0-1.23,1.44-1.85,1.85c-0.62,0.2-1.65,0.61-2.26,0.61c-0.42,0-3.5-1.64-3.91-1.64
		c-0.62,0-1.85,1.23-1.85,1.85c0,0.41,0.61,0.41,0.61,0.82c0,0.61-0.41,0.41-0.41,0.61c0.41,0.21,1.03-0.41,1.65,0
		c1.03,0.62,2.47,2.67,3.08,2.67c0.41,0,0.83-0.61,1.44-1.23c0,0.41,0,1.03,0.21,1.64c0.41-0.2,0.2-0.41,1.23-0.82
		c2.47-1.23,1.44-3.28,2.27-4.72c0.41,0.21,0.41,0.82,1.02,1.23c1.24,0.21,2.47,0,3.91,0v1.03c-1.03,2.67-0.41,5.13-2.06,7.59
		c-0.2,0.41-1.02,0.83-1.44,1.65c-1.02,1.43-1.64,3.28-2.67,4.92c-0.2,0.41-4.73,5.75-5.76,5.75c-1.23,0-1.85-2.87-2.26-3.08
		c-0.82-1.02-1.85-1.44-2.88-2.05c-0.62-0.41-1.65-0.41-2.06-0.82c-0.82-0.41-1.23-1.44-1.85-2.05c-1.85-1.24-3.91-2.26-5.55-3.49
		c-0.82-0.62-1.23-1.65-1.85-2.26c-1.44,1.23-0.41,1.23-0.41,1.84c-0.83-0.61-1.65-1.02-2.68-1.43c0,0.2-0.2,0-0.2,0.61
		c0,0.41,3.29,3.29,5.14,4.93c0.82,1.03,2.26,1.85,3.29,2.67c0.41,0.41,0.62,1.44,1.03,2.05c0.82,0.62,2.06,1.03,2.88,1.64
		c0.41,0.21,0.41,1.24,1.03,1.24c1.44,0.41,3.29,0.82,4.93,1.23c0,0.2-0.41,0.41-0.61,0.61c0.2,0.21,0.41,0,1.02,0
		c0.42,0,0.42,0.41,0.62,0.62c0.21,0.2,0.41,0.2,0.82,0.2c1.65,0,7-4.92,7.41-5.95c0.2,0.41,0.41,1.03,0.41,1.44
		c0,0.61-1.85,6.36-3.29,9.44c-0.41,0.82-9.46,11.09-9.46,12.93c0,1.03,1.44,2.06,1.44,2.06c0,0.61-0.21,1.23-0.41,1.84
		c-0.42,1.03-7.61,4.93-7.61,5.55c0,0.41,0.41,0.2,0.41,0.41c-3.5,2.25-15.63,5.95-20.57,5.95c-1.44,0-6.38-1.85-6.58-2.05
		c-0.21-0.82,1.23-1.65,2.26-2.47c-1.44-1.43-0.62-1.23-1.44-1.64c-1.03-0.82-2.47-2.05-3.7-2.87c-1.03-0.62-2.47-0.82-3.29-1.44
		c-0.41-0.41,0-1.03,0-1.64c0-0.41-1.24-3.9-2.47-3.9c-0.62,0-0.21,0.2-0.41,0.2c-0.41,0-1.03,0.21-1.65,0.21
		c-0.41,0-1.03,0-1.44-0.21c-1.02-1.43-3.08-2.05-4.52-2.05c0-0.62-0.21-1.44-0.62-2.26c-0.2,0.82-0.2,1.64-0.41,2.47
		c-0.21,0-0.21-0.41-0.62-0.83c-0.2,0.21-0.41,0.62-0.41,0.83c-0.2,0-0.2-0.21-0.62-0.21c-0.61,0-0.61,0.41-1.02,0.41
		c-1.03,0.21-2.68,0.41-3.29,0.41c-0.42,0-0.21-0.41-0.42-0.61c-0.41,0.2-1.02-0.21-1.44-0.21c-1.64-0.2-3.49,0.21-4.93-0.41
		c-2.06-0.62-5.76-3.08-6.99-5.13c-0.21-0.41-0.21-1.03-0.62-1.23c-0.82-1.24-3.5-3.49-3.5-3.9c0-0.62,0.41,0.2,0.41-0.21
		c0-0.61-0.61-0.41-1.02-0.82c0.2,0,0.61,0,0.82-0.21c-0.41-0.61-1.24-1.84-1.24-2.25c0-0.62,0.83-0.82,1.03-1.24v-0.61
		c0.21-0.21,0.41-0.21,0.41-0.82c0-0.41-0.82-3.9-0.82-4.31c0-1.85,2.47-4.31,4.32-5.55c1.23-1.02,3.09-1.23,4.11-2.46
		c0.62-0.61,0.21-2.67,1.44-3.28c0.41-0.41,1.24-0.41,1.85-0.82c0.62-0.41,1.65-1.85,2.06-1.85c0.62,0,2.26,1.64,3.5,1.64
		c0.61,0,3.91-1.85,6.78-1.85c0.42,0,3.09,0.41,3.5,0.41c0.62,0,2.47-0.82,3.09-0.82c0.41,0,0.61,0.21,0.82,0.41
		c0.2,0.21,0,0.62,0,0.62c0.2,0.41,0.62,0.41,0.62,1.03c0,0.41-0.42,0.82-0.42,1.23c0,0.61,0.83,1.43,1.65,1.64
		c1.23,0.61,3.09,0.82,4.73,0.82c0.41,0.41,0.62,1.23,1.44,1.44c1.03,0.61,3.5,0.82,4.11,0.82c0.41,0,1.03-0.82,1.44-1.44
		c0.21-0.41,0-0.82,0-1.44c0-1.43,1.44-1.02,1.85-1.02c0.42,0,3.09,0.82,3.5,0.82c0.62,0,4.11-0.41,5.97-0.82
		c0.41,0,0.82-0.82,1.44-0.82c0.82-0.21,1.64-0.21,2.46-0.41c0.21,0,0.21-0.41,0.62-0.41c0.62,0,0.41,0.2,0.62,0.41
		c0.61-0.82,0.82-2.88,0.82-3.9c0-0.41-0.41-0.62-0.41-1.03c0-0.82,0-0.21,0.82-1.03c-0.62-0.61-1.44-0.2-1.44-1.23
		c0-0.61,0.41,0,0.41-0.61c0-0.41-0.61-0.83-1.23-0.83c-0.41,0-2.67,2.06-3.09,2.06c-0.61,0-1.02-0.41-1.44-0.41
		c-0.61,0-1.02,0.41-1.64,0.82c-0.21,0.2-0.82,0.41-1.24,0.41c-2.46,0-1.02-1.44-3.7-3.08c0.21-0.82,0.83-0.41,1.44-0.82
		c0.62-0.41,0.82-1.44,1.85-2.05c0.62-0.42,1.65-1.44,2.68-1.85c1.64-0.82,8.02,0.61,8.02-3.29c0-2.05-5.14-2.05-5.76-2.05
		c0-1.23-0.21-2.46-0.62-3.69c-1.03,1.02-2.26,2.25-2.88,3.28c0.41,0.41,1.03,0.62,1.44,0.62c-0.2,0.41-0.61,1.23-1.23,1.23
		c-0.82,0-0.82-0.62-1.03-1.23c-0.41-0.41-1.03-1.03-1.65-1.03c-1.85,0-2.26,4.93-2.46,6.98c0,0.2-0.21,0.41-0.41,0.61
		c0.61,0.42,1.44,0.62,2.05,0.62c-0.41,0.41-1.23,0.82-1.85,1.23c0-0.2-0.2-0.61-0.41-0.82c-0.21,0.21-0.21,0.41-0.21,0.62
		c-0.82-0.41-1.64,0.82-2.26,1.23c-0.62,0.2-1.23,0.82-1.23,1.03c0,0.61,1.85,1.84,1.85,2.46c0,0.41-0.41,1.02-0.62,1.44
		c-0.41-0.21-1.03-0.83-1.64-1.24c0.41,0,0.82-0.2,1.23-0.61c-0.82-1.64-2.06-0.41-2.88-1.23c-0.82-0.62-1.03-1.85-1.44-2.47
		c-1.03-1.64-2.06-1.43-3.5-2.26c-1.02-0.41-2.05-1.02-2.67-1.64c-0.62-0.2-1.03-1.02-1.44-1.02c-0.62,0-1.23,0.82-1.85,1.23
		c2.26,2.05,5.35,4.92,8.43,5.54h-1.85c0,0.21-0.2,0.41-0.41,0.62c0.41,0.41,0.82,0.61,0.82,1.23c0,0.41-0.41,0.61-0.61,1.02
		c0-0.41,0-1.02-0.21-1.43c-1.03-1.03-3.08-3.08-4.52-2.47c-1.03-1.23-3.3-4.1-3.71-4.1c-0.82,0-1.02,0.82-1.44,1.64h-0.61
		c-0.21-0.2-0.21-0.62-0.62-1.03c-0.21,0.21-0.21,0.62-0.21,1.03c-0.61,0-1.44-0.2-1.85-0.2c-0.61,0-1.44,0.61-2.05,1.02l0.61,0.62
		c-0.82,0.61-1.85,0.82-2.26,1.43c-1.03,0.83-2.06,2.06-1.85,3.29c-0.41,0.41-1.03,1.23-1.65,1.23c-1.23,0.21-3.29,0.41-3.7,0.41
		c-1.64,0-1.03-2.67-2.88-1.64c-0.2-0.41-0.2-0.62-0.2-1.23c0-1.23,1.03-4.52,1.85-4.93c0-0.2-0.41-0.41-0.62-0.41
		c0.21-0.62,0-1.23,0.82-1.23c0.62,0,4.73,1.44,5.15,1.44c1.64,0,1.85-3.29,1.85-3.49c0-1.24-0.62-2.88-2.27-3.29
		c0-0.2-0.2-0.41,0.42-0.41c0.41,0,0.41,0.41,1.02,0.41c0.42,0,0.83-0.82,1.65-1.03c0.41,0,0.82,0.21,1.23-0.2
		c1.65-1.64,4.94-4.72,5.35-4.72c0.62,0,0,0.41,0.41,0.41c0.62,0,2.06-1.64,2.06-2.05s-0.82-0.62-0.82-1.65v-0.41
		c0-0.41,0.61-1.02,1.02-1.43c0,0.82-0.2,1.84-0.2,2.66c0,0-0.21-0.2-0.21,0.42c0,0.41,1.03,1.23,1.65,1.23
		c0.41,0,0.82-0.62,1.23-0.62c0.62,0,1.03,0.82,1.44,0.82c0.62,0,2.06-1.43,2.47-1.43c0.62,0,0.62,0.41,1.03,0.41
		c0.62,0,1.85-1.65,1.85-2.26c0-0.41-0.41-0.41-0.41-0.82v-1.24c0.2,0,2.06,0.62,2.06-0.82c0-0.61-0.83-1.02-1.24-1.64
		c1.24-0.61,2.06,0,3.5-1.85c-0.41-0.41-0.82-0.61-1.44-0.61c-0.41,0-1.85,0.82-2.47,0.82c-1.85,0-1.65-1.64-1.65-2.05
		c0-0.41,0.62-3.08,0.62-3.49c0-0.62-0.82-1.65-1.03-2.47c-0.2,0.41-0.2,1.03-0.41,1.44c-0.61,1.85-2.47,5.13-2.47,5.54
		c0,0.62,1.65,1.85,1.65,2.26c0,0.62-1.03,1.64-1.23,2.46c-0.21,0.21-0.21,1.03-0.42,1.65c-0.41,0.61-0.82,1.43-1.44,1.43
		c-0.82,0-1.23-2.25-1.23-2.25c-0.21-0.62-0.62-1.44-1.23-2.06c-0.62,0.41-1.44,1.03-1.85,1.03c-1.65,0-1.24-2.46-1.24-2.67
		c0-2.26,0.82-1.44,2.47-3.28c2.47-2.67,2.26-7.19,6.38-9.24c0.41-0.41,1.43-0.21,2.05-0.21c0.41,0,2.26,1.23,2.88,1.23
		c0.41,0,0-0.41,0.62-0.41s3.29,0.83,3.7,1.03c-0.62,1.03-1.65,0.82-2.47,0.82h-1.23c-0.21,0.21-0.21,0-0.21,0.41
		c0,0.62,3.29,3.08,3.91,3.49c0.21-0.41,0.41-0.61,0.41-1.23c0-0.41-0.41-0.62-0.62-0.62h1.03v-0.41c0.21-1.02-0.41-1.43,0.62-2.05
		c0.21-0.2,0.41,0,0.41-0.61c0-0.42-0.62-0.83-1.03-1.24c0.21,0,0-0.2,0.41-0.2c0.62,0,0.83,0.61,1.24,1.02
		c0.41-0.82,0.82-1.84,1.44-2.87c1.23,0.41,3.08-1.85,2.67-2.46c1.03-0.21,2.06-0.41,3.09-0.41c0.2-0.21,0.2,0,0.2-0.62
		c0-1.64-3.7-0.2-3.7-2.67c0-0.61,0.21-0.41,0.21-0.61h0.41c1.44,0.82,2.88,1.23,4.32,2.25c0.61,0.42,1.03,1.44,1.64,2.06
		c0.21-0.21,0.41-0.41,0.41-0.82c0-2.26-3.7-2.88-4.73-3.49c0.21-0.21,0.62-0.21,0.62-0.82c0-0.41-0.62-1.65-0.62-2.26
		c0-0.41,0.41-0.41,0.62-0.62c-1.23-1.44-1.23-0.82-1.23-1.64c0-0.41,0.82-1.23,0.82-1.85c0-0.41-0.62-0.82-1.03-1.23
		c0.41-0.41,1.03-0.41,1.44-0.62c0.21,0,0.21-0.61,0.41-0.82c0.21-0.61,0.82-0.61,1.44-0.61c0.41,0,1.24,1.23,1.65,1.85
		c0,0,0.61,0,0.82-0.21c-0.21-0.41-0.21-0.82-0.41-1.23l1.23-0.62c-0.2-0.2-0.2-0.61-0.41-0.82c0.21-0.2,0.62-0.41,0.82-0.61
		c-0.82-2.06,1.03-2.67,2.88-3.29c-0.2-0.41-0.82-0.61-0.82-1.23c0-0.41,0.41-0.21,0.41-0.62c0-0.82-1.64-1.43-2.06-1.02v-2.06
		c0.42-0.41,1.03-0.61,1.03-1.23c0-0.41-1.23-1.84-1.23-2.26c0-0.61,0.41-0.61,0.41-1.02c0-0.62-1.23-1.03-1.44-1.44
		s0-0.82-0.41-1.23c0,0,0.2-0.21-0.21-0.21c-0.61,0-0.41,0.21-0.61,0.41c-1.24-1.64-2.27-3.48-3.5-4.92
		c-0.21-0.21-0.82-0.41-1.23-0.62v-0.61C206.79,87.44,207.82,88.87,208.44,88.87z M169.36,86c0,0,0,0.21-0.2,0.41l0.41,0.41
		c-0.83,0.62-1.85,1.03-2.88,1.85c0,0.2,0,0.41,0.2,0.61c0.62-0.41,1.44-0.82,2.06-1.02c-0.62,0.61-1.65,1.02-2.47,1.85
		c0.21,0.2,0.62,0.2,1.03,0.2c-1.23,1.03-2.47,2.67-4.11,4.11c-1.85,1.43-4.53,2.46-5.97,4.72c-0.2,0,0,0.61-0.2,1.02
		c-0.83,1.65-2.68,3.49-4.12,4.52c0,0.62-0.82,1.64-1.64,2.26c0.2,0.2,0.62,0.2,1.23,0.2v1.03c-1.03,1.03-0.61,1.03-0.61,1.64
		c0,0.41-0.62,0.82-1.03,1.23c0.61,0.21,1.44,0.83,1.85,0.83c0.61,0,1.23-0.83,1.64-0.83c0.62,0,0.83,0.21,1.03,0.21
		c-0.62,0.82-2.47,0.62-2.26,2.26c-0.62-0.21-1.23-0.21-1.85,0.82c0.41,0.2,1.23,0.61,2.47,0v1.02c-0.42,0.21-1.24,0.42-1.65,0.42
		c-2.06,0-0.62-0.21-2.06-1.65c0,0,0.21-0.41,0-0.82c-0.2,0-0.61,0.41-1.02,0.82c-1.24-0.41-0.42-1.64-1.03-1.64
		c-0.41,0-0.41,0.41-0.83,0.41c0,0-2.46-1.44-2.87-1.44c-2.68,0-4.53,6.16-4.94,6.78c-0.41,0.41-1.44,0.61-1.85,1.03
		c-0.62,0.2-0.82,1.02-1.24,1.43v0.62c0.21,0.2,0,0.41,0.62,0.41c0.41,0,1.44-0.82,2.06-0.82c0.41,0,1.23,0.82,1.85,0.82
		c0.82,0,1.44-1.44,2.47-1.64c0.82-0.41,2.46-0.62,2.88-0.62c0.61,0,0.61,0.21,0.82,0.21v0.61c-0.21,2.26-2.26,3.29-3.09,4.93
		c0.21,0.61,1.65,0.61,2.68,0.61c-1.65,1.44-3.29,3.49-4.12,4.73c-0.2,0.2-0.82,0.61-1.02,1.02c0.61,0.41,1.02,0.62,1.02,1.03
		c0,1.02-1.02,1.44-1.85,1.44c-3.9,0-2.26-5.55-6.17-5.55c-0.2,0.21-0.41,0-0.41,0.62c0,0.41,1.03,1.02,1.44,1.44
		c0.21,0.2,0.21,0.61,0.41,0.82c-1.44,0.2-2.47,1.43-2.47,2.87c0,0.41,0.21,1.03,0.62,1.64c-0.82-0.41-1.64-1.23-2.47-2.05
		c0.41,0,1.03,0.21,1.44,0.41c0.21-0.2,0.21-0.2,0.21-0.62c0-0.61,0-0.2-0.21-0.41c-0.2-0.82-0.82-0.61-0.41-1.64
		c-0.2,0-0.2,0.21-0.62,0.21c-0.61,0-0.82-0.82-1.43-1.44c-0.21,0.21-0.62,0.41-0.83,0.62c-0.61-0.83-1.23-1.85-2.05-2.47
		c-0.21,0-0.62,0.41-0.62,0.62c0-0.21,0.2-0.62,0-1.03c-0.41,0.41-0.82,1.03-1.24,1.64c-0.82-0.82-0.41-1.23-1.02-1.84
		c-0.62,0.82-1.03,1.64-1.24,2.46c4.12-14.16,17.48-31.82,27.77-36.13c0.62-0.2,1.85,0.21,2.88-0.2c2.26-0.83,4.73-2.06,7.2-3.49
		c1.44-1.03,3.9-3.08,4.32-3.08l0.2-0.21c0-0.61,1.85-0.82,2.47-1.23H169.36z"/>
</g>
</svg>
