<?xml version="1.0" encoding="utf-8"?>
<!-- Generator: Adobe Illustrator 16.0.0, SVG Export Plug-In . SVG Version: 6.00 Build 0)  -->
<!DOCTYPE svg PUBLIC "-//W3C//DTD SVG 1.1//EN" "http://www.w3.org/Graphics/SVG/1.1/DTD/svg11.dtd">
<svg version="1.1" id="层_1" xmlns="http://www.w3.org/2000/svg" xmlns:xlink="http://www.w3.org/1999/xlink" x="0px" y="0px"
	 width="375.8px" height="281px" viewBox="0 0 375.8 281" enable-background="new 0 0 375.8 281" xml:space="preserve">
<g>
	<g>
		<polygon fill-rule="evenodd" clip-rule="evenodd" fill="#DAEAFC" points="-0.08,167.38 187.78,265.11 375.92,163.65 186.54,78.31 
					"/>
		<polygon fill-rule="evenodd" clip-rule="evenodd" fill="#7DB7F7" points="0,167.33 187.02,264.86 187.05,280.81 0.22,182.49 		"/>
		<polygon fill-rule="evenodd" clip-rule="evenodd" fill="#4E9DF4" points="375.8,163.68 187.13,264.82 187.1,281 375.74,180.24 		
			"/>
	</g>
	<g>
		<polygon opacity="0.2" fill-rule="evenodd" clip-rule="evenodd" fill="#1A5FF3" points="279.99,4.71 351.13,36.65 351.13,118.57 
			279.99,86.64 		"/>
		<polygon opacity="0.4" fill-rule="evenodd" clip-rule="evenodd" fill="#81B3F8" points="231.08,1.09 302.22,33.02 302.22,114.95 
			231.08,83.02 		"/>
		<polygon opacity="0.4" fill-rule="evenodd" clip-rule="evenodd" fill="#3C6CC1" points="283.78,54.53 354.92,86.46 354.92,168.39 
			283.78,136.45 		"/>
		<polygon opacity="0.4" fill-rule="evenodd" clip-rule="evenodd" fill="#788DFA" points="190.34,0 261.49,31.93 261.49,113.86 
			190.34,81.92 		"/>
		<polygon fill-rule="evenodd" clip-rule="evenodd" fill="#788DFA" points="204.86,10.74 293.61,51.76 293.61,153.91 204.86,112.88 
					"/>
		<g>
			<polygon fill-rule="evenodd" clip-rule="evenodd" fill="#FFFFFF" points="211.68,32.57 239.83,45.05 239.83,47.74 211.68,35.27 
							"/>
			<polygon fill-rule="evenodd" clip-rule="evenodd" fill="#FFFFFF" points="243.35,46.53 263.32,55.38 263.32,58.07 243.35,49.23 
							"/>
			<polygon fill-rule="evenodd" clip-rule="evenodd" fill="#FFFFFF" points="211.5,43.84 245.41,58.77 245.41,61.46 211.5,46.54 			
				"/>
			<polygon fill-rule="evenodd" clip-rule="evenodd" fill="#FFFFFF" points="211.5,55.11 245.41,69.99 245.41,72.68 211.5,57.81 			
				"/>
			<polygon fill-rule="evenodd" clip-rule="evenodd" fill="#FFFFFF" points="211.82,66.72 254.18,85.31 254.18,88 211.82,69.43 			
				"/>
			<polygon fill-rule="evenodd" clip-rule="evenodd" fill="#FFFFFF" points="210.88,76.05 267.28,100.52 267.28,103.2 210.88,78.76 
							"/>
			<polygon fill-rule="evenodd" clip-rule="evenodd" fill="#FFFFFF" points="250.12,61.4 271.82,70.99 271.82,73.68 250.12,64.09 
							"/>
			<path fill-rule="evenodd" clip-rule="evenodd" fill="#FFFFFF" d="M214.21,92.72l28,12.2c1.14,0.5,2.07,1.84,2.07,2.99v9.74
				c0,1.16-0.93,1.69-2.07,1.19l-28-12.15c-1.15-0.5-2.08-1.84-2.08-3v-9.78C212.13,92.75,213.06,92.22,214.21,92.72z"/>
			<path fill-rule="evenodd" clip-rule="evenodd" fill="#FFFFFF" d="M252.96,109.51l27.72,12.09c1.13,0.49,2.05,1.82,2.05,2.96v9.7
				c0,1.15-0.92,1.68-2.05,1.19l-27.72-12.03c-1.14-0.5-2.06-1.83-2.06-2.99v-9.73C250.9,109.55,251.82,109.02,252.96,109.51z"/>
		</g>
		<polygon opacity="0.2" fill-rule="evenodd" clip-rule="evenodd" fill="#1A5FF3" points="95.85,6.32 24.71,38.25 24.71,120.18 
			95.85,88.25 		"/>
		<polygon opacity="0.4" fill-rule="evenodd" clip-rule="evenodd" fill="#81B3F8" points="144.76,2.7 73.62,34.63 73.62,116.55 
			144.76,84.62 		"/>
		<polygon opacity="0.4" fill-rule="evenodd" clip-rule="evenodd" fill="#8099FA" points="92.06,56.14 20.92,88.07 20.92,169.99 
			92.06,138.06 		"/>
		<polygon opacity="0.4" fill-rule="evenodd" clip-rule="evenodd" fill="#3C6CC1" points="185.5,1.61 114.36,33.54 114.36,115.46 
			185.5,83.53 		"/>
		<polygon fill-rule="evenodd" clip-rule="evenodd" fill="#3C6CC1" points="164.53,12.35 75.78,53.37 75.78,155.51 164.53,114.49 		
			"/>
		<g>
			<polygon fill-rule="evenodd" clip-rule="evenodd" fill="#FFFFFF" points="142.28,39.01 114.2,51.49 114.2,54.18 142.28,41.71 			
				"/>
			<polygon fill-rule="evenodd" clip-rule="evenodd" fill="#FFFFFF" points="107.38,54.58 87.46,63.43 87.46,66.12 107.38,57.27 			
				"/>
			<polygon fill-rule="evenodd" clip-rule="evenodd" fill="#FFFFFF" points="148.57,47.05 114.69,61.99 114.69,64.68 148.57,49.76 
							"/>
			<polygon fill-rule="evenodd" clip-rule="evenodd" fill="#FFFFFF" points="121.13,71.2 87.26,86.08 87.26,88.77 121.13,73.9 			
				"/>
			<polygon fill-rule="evenodd" clip-rule="evenodd" fill="#FFFFFF" points="129.5,81.2 87.22,99.79 87.22,102.48 129.5,83.91 			
				"/>
			<polygon fill-rule="evenodd" clip-rule="evenodd" fill="#FFFFFF" points="143.13,84.09 86.65,108.56 86.65,111.24 143.13,86.8 
							"/>
			<polygon fill-rule="evenodd" clip-rule="evenodd" fill="#FFFFFF" points="110.5,64.61 88.86,74.21 88.86,76.9 110.5,67.3 			"/>
			<path fill-rule="evenodd" clip-rule="evenodd" fill="#FFFFFF" d="M155.89,94.33l-27.93,12.2c-1.14,0.5-2.06,1.84-2.06,2.99v9.74
				c0,1.16,0.92,1.69,2.06,1.19l27.93-12.15c1.15-0.5,2.08-1.84,2.08-3v-9.78C157.97,94.36,157.04,93.83,155.89,94.33z"/>
			<path fill-rule="evenodd" clip-rule="evenodd" fill="#FFFFFF" d="M117.15,111.13l-27.66,12.08c-1.13,0.49-2.05,1.82-2.05,2.97
				v9.69c0,1.15,0.92,1.68,2.05,1.19l27.66-12.03c1.13-0.5,2.05-1.83,2.05-2.99v-9.73C119.2,111.16,118.28,110.63,117.15,111.13z"/>
		</g>
	</g>
	<g>
		<path fill-rule="evenodd" clip-rule="evenodd" fill="#2454B3" d="M116.12,170.76c0.16-17.3,28.4-31.3,63.09-31.3
			c34.68,0,62.78,14,62.76,31.3c-0.01,17.33-28.26,31.41-63.08,31.41C144.06,202.17,115.96,188.09,116.12,170.76z"/>
		<path fill-rule="evenodd" clip-rule="evenodd" fill="#45B8FF" d="M126.97,170.77c0.13-14.32,23.5-25.9,52.21-25.9
			c28.7,0,51.96,11.58,51.94,25.9c-0.01,14.34-23.39,26-52.2,26C150.1,196.77,126.84,185.11,126.97,170.77z"/>
		<path fill-rule="evenodd" clip-rule="evenodd" fill="#B8D7FA" d="M126.97,162.12c0.13-14.32,23.5-25.9,52.21-25.9
			c28.7,0,51.96,11.58,51.94,25.9c-0.01,14.34-23.39,26-52.2,26C150.1,188.12,126.84,176.46,126.97,162.12z"/>
		<g>
			
				<path fill-rule="evenodd" clip-rule="evenodd" fill="none" stroke="#FFFFFF" stroke-width="2" stroke-linecap="round" stroke-linejoin="round" stroke-miterlimit="10" d="
				M144.65,158.59c0.36-5.33,15.33-8.86,33.43-7.89c18.11,0.97,32.5,6.08,32.14,11.41c-0.36,5.32-15.33,8.85-33.44,7.88
				C158.67,169.02,144.29,163.91,144.65,158.59z"/>
			<path fill="#FFFFFF" d="M180.08,144.67c1.18-0.02,2.54-0.73,2.96-2.21c0.41-1.49-0.98-2.5-3.04-2.5
				c-4.21-0.02-6.62,3.81-8.54,7.76c-0.55,1.14-1.07,2.29-1.58,3.36c-3.9,8.23-6.57,13.81-8.81,21.65
				c-0.46,1.62-0.53,3.53-2.29,4.77c-2.23-0.5-1.21-1.63-3.41-1.62c-3.44,0.03-4.08,4.31-1.74,4.95c0.72,0.19,1.38,0.2,2.32,0.07
				c4.53-0.62,6.7-5.48,8.99-10.3c4.29-9.04,6.38-13.61,9.17-22.54l0.04-0.1c0.5-1.63,1.11-4.43,2.41-4.65
				C177.83,143.1,178.23,144.72,180.08,144.67z"/>
			<path fill="#FFFFFF" d="M196.37,143.78c-4.22-0.03-6.61,3.8-8.54,7.76c-0.55,1.14-1.07,2.28-1.58,3.36
				c-3.9,8.22-6.6,13.84-8.83,21.7c-0.45,1.61-0.52,3.53-2.29,4.76c-2.23-0.49-1.2-1.62-3.4-1.61c-3.45,0.02-4.1,4.3-1.75,4.94
				c0.73,0.2,1.39,0.21,2.32,0.08c4.54-0.63,6.7-5.48,9-10.31c4.29-9.03,6.38-13.66,9.19-22.58l0.03-0.1
				c0.5-1.63,1.11-4.44,2.41-4.65c1.27-0.21,1.67,1.41,3.52,1.36c1.18-0.03,2.54-0.74,2.96-2.22
				C199.82,144.79,198.43,143.78,196.37,143.78z"/>
		</g>
	</g>
	<g>
		
			<polyline fill-rule="evenodd" clip-rule="evenodd" fill="none" stroke="#B9D7F9" stroke-width="2" stroke-linecap="round" stroke-linejoin="round" stroke-miterlimit="10" points="
			99.61,158.97 75.65,170.94 100.2,185.43 		"/>
		
			<polyline fill-rule="evenodd" clip-rule="evenodd" fill="none" stroke="#B9D7F9" stroke-width="2" stroke-linecap="round" stroke-linejoin="round" stroke-miterlimit="10" points="
			265.06,158.98 288.82,169.94 264.47,183.95 		"/>
		
			<polyline fill-rule="evenodd" clip-rule="evenodd" fill="none" stroke="#B9D7F9" stroke-width="2" stroke-linecap="round" stroke-linejoin="round" stroke-miterlimit="10" points="
			208.43,215.8 181.69,228.73 154.81,215.35 		"/>
		
			<polyline fill-rule="evenodd" clip-rule="evenodd" fill="none" stroke="#B9D7F9" stroke-width="2" stroke-linecap="round" stroke-linejoin="round" stroke-miterlimit="10" points="
			207.54,128.1 180.07,115.38 152.96,128.7 		"/>
	</g>
	<g>
		<g>
			
				<polyline fill-rule="evenodd" clip-rule="evenodd" fill="none" stroke="#81B7F3" stroke-width="2" stroke-linecap="round" stroke-linejoin="round" stroke-miterlimit="10" points="
				99.61,148.49 75.65,160.46 100.2,174.95 			"/>
			
				<polyline fill-rule="evenodd" clip-rule="evenodd" fill="none" stroke="#81B7F3" stroke-width="2" stroke-linecap="round" stroke-linejoin="round" stroke-miterlimit="10" points="
				265.06,149.5 288.82,160.46 264.47,174.48 			"/>
			
				<polyline fill-rule="evenodd" clip-rule="evenodd" fill="none" stroke="#81B7F3" stroke-width="2" stroke-linecap="round" stroke-linejoin="round" stroke-miterlimit="10" points="
				208.43,205.32 181.69,218.25 154.81,204.88 			"/>
			
				<polyline fill-rule="evenodd" clip-rule="evenodd" fill="none" stroke="#81B7F3" stroke-width="2" stroke-linecap="round" stroke-linejoin="round" stroke-miterlimit="10" points="
				207.54,117.63 180.07,104.91 152.96,118.22 			"/>
		</g>
		<g>
			
				<polyline fill-rule="evenodd" clip-rule="evenodd" fill="none" stroke="#FFFFFF" stroke-width="2" stroke-linecap="round" stroke-linejoin="round" stroke-miterlimit="10" points="
				99.61,147.27 75.65,159.24 100.2,173.73 			"/>
			
				<polyline fill-rule="evenodd" clip-rule="evenodd" fill="none" stroke="#FFFFFF" stroke-width="2" stroke-linecap="round" stroke-linejoin="round" stroke-miterlimit="10" points="
				265.06,148.28 288.82,159.24 264.47,173.26 			"/>
			
				<polyline fill-rule="evenodd" clip-rule="evenodd" fill="none" stroke="#FFFFFF" stroke-width="2" stroke-linecap="round" stroke-linejoin="round" stroke-miterlimit="10" points="
				208.43,204.1 181.69,217.03 154.81,203.66 			"/>
			
				<polyline fill-rule="evenodd" clip-rule="evenodd" fill="none" stroke="#FFFFFF" stroke-width="2" stroke-linecap="round" stroke-linejoin="round" stroke-miterlimit="10" points="
				207.54,116.41 180.07,103.69 152.96,117 			"/>
		</g>
	</g>
</g>
</svg>
