<?xml version="1.0" encoding="utf-8"?>
<!-- Generator: Adobe Illustrator 16.0.0, SVG Export Plug-In . SVG Version: 6.00 Build 0)  -->
<!DOCTYPE svg PUBLIC "-//W3C//DTD SVG 1.1//EN" "http://www.w3.org/Graphics/SVG/1.1/DTD/svg11.dtd">
<svg version="1.1" id="层_1" xmlns="http://www.w3.org/2000/svg" xmlns:xlink="http://www.w3.org/1999/xlink" x="0px" y="0px"
	 width="455px" height="301px" viewBox="-0.045 377.5 455 301" enable-background="new -0.045 377.5 455 301" xml:space="preserve">
<g>
	<polygon fill="#B7BDE1" points="0,547.529 226.03,658.17 454.91,546.46 228.3,435.83 	"/>
	<polygon fill="#9FAFEB" points="0.09,548.721 225.88,658.46 225.99,678.5 0.1,567.42 	"/>
	<polygon fill="#788EE3" points="454.91,546.54 226.03,658.46 225.99,678.5 454.84,567.33 	"/>
	
		<line fill="none" stroke="#FFFFFF" stroke-linecap="square" stroke-miterlimit="10" x1="0.02" y1="547.51" x2="225.81" y2="657.95"/>
	
		<line fill="none" stroke="#FFFFFF" stroke-linecap="square" stroke-miterlimit="10" x1="454.91" y1="546.58" x2="225.96" y2="657.8"/>
	
		<line fill="none" stroke="#CBE1FA" stroke-width="0.75" stroke-linecap="square" stroke-miterlimit="10" x1="225.95" y1="658.46" x2="226.02" y2="678.221"/>
</g>
<g>
	
		<linearGradient id="SVGID_1_" gradientUnits="userSpaceOnUse" x1="224.7261" y1="-415.23" x2="224.726" y2="-336.23" gradientTransform="matrix(1 0 0 -1 -184.2754 106.2695)">
		<stop  offset="0" style="stop-color:#D1E6FC"/>
		<stop  offset="1" style="stop-color:#5D99F6"/>
	</linearGradient>
	<polygon fill="url(#SVGID_1_)" stroke="#5D99F6" stroke-linecap="round" stroke-linejoin="round" stroke-miterlimit="10" points="
		66.92,497.141 13.95,521.5 13.95,467.77 66.95,442.5 	"/>
</g>
<g>
	
		<linearGradient id="SVGID_2_" gradientUnits="userSpaceOnUse" x1="314.7256" y1="-373.2305" x2="314.7256" y2="-294.2305" gradientTransform="matrix(1 0 0 -1 -184.2754 106.2695)">
		<stop  offset="0" style="stop-color:#D1E6FC"/>
		<stop  offset="1" style="stop-color:#5D99F6"/>
	</linearGradient>
	<polygon fill="url(#SVGID_2_)" stroke="#5D99F6" stroke-linecap="round" stroke-linejoin="round" stroke-miterlimit="10" points="
		156.92,455.141 103.95,479.5 103.95,425.77 156.95,400.5 	"/>
</g>
<linearGradient id="SVGID_3_" gradientUnits="userSpaceOnUse" x1="413.7256" y1="-320.2305" x2="413.7256" y2="-275.2305" gradientTransform="matrix(1 0 0 -1 -184.2754 106.2695)">
	<stop  offset="0" style="stop-color:#D1E6FC"/>
	<stop  offset="1" style="stop-color:#5D99F6"/>
</linearGradient>
<polygon fill="url(#SVGID_3_)" stroke="#5D99F6" stroke-linecap="round" stroke-linejoin="round" stroke-miterlimit="10" points="
	263.88,426.46 194.95,426.5 194.95,381.5 263.95,381.5 "/>
<g>
	
		<linearGradient id="SVGID_4_" gradientUnits="userSpaceOnUse" x1="592.7256" y1="-413.2305" x2="592.7256" y2="-334.2305" gradientTransform="matrix(1 0 0 -1 -184.2754 106.2695)">
		<stop  offset="0" style="stop-color:#D1E6FC"/>
		<stop  offset="1" style="stop-color:#5D99F6"/>
	</linearGradient>
	<polygon fill="url(#SVGID_4_)" stroke="#5D99F6" stroke-linecap="round" stroke-linejoin="round" stroke-miterlimit="10" points="
		381.98,495.141 434.95,519.5 434.95,465.77 381.95,440.5 	"/>
</g>
<g>
	
		<linearGradient id="SVGID_5_" gradientUnits="userSpaceOnUse" x1="509.7256" y1="-371.2305" x2="509.7256" y2="-292.2305" gradientTransform="matrix(1 0 0 -1 -184.2754 106.2695)">
		<stop  offset="0" style="stop-color:#D1E6FC"/>
		<stop  offset="1" style="stop-color:#5D99F6"/>
	</linearGradient>
	
		<polygon fill="url(#SVGID_5_)" stroke="#5D99F6" stroke-width="2" stroke-linecap="round" stroke-linejoin="round" stroke-miterlimit="10" points="
		298.98,453.141 351.95,477.5 351.95,423.77 298.95,398.5 	"/>
</g>
<path fill="#81B7F3" d="M84.95,549.87c0.34-37.8,61.83-68.37,137.35-68.37c75.511,0,136.69,30.57,136.65,68.37
	c-0.04,37.87-61.53,68.63-137.35,68.63C145.79,618.5,84.61,587.74,84.95,549.87z"/>
<path fill="#4A69C5" d="M87.95,557.391c0.34-32,61.15-57.891,135.84-57.891c74.69,0,135.16,25.891,135.16,57.891
	c0,29.06-60.86,61.109-135.84,61.109C148.12,618.5,87.61,589.45,87.95,557.391z"/>
<g>
	<path fill="#0EE8FF" d="M224.95,505.5c0-1.1,1.34-2,3-2c1.659,0,3,0.9,3,2s-1.341,2-3,2C226.29,507.5,224.95,506.6,224.95,505.5z"
		/>
	<path fill="none" stroke="#0088CD" stroke-linecap="round" stroke-linejoin="round" stroke-miterlimit="10" d="M221.95,505.5
		c0-1.66,2.69-3,6-3c3.31,0,6,1.34,6,3s-2.69,3-6,3C224.64,508.5,221.95,507.16,221.95,505.5z"/>
	
		<linearGradient id="SVGID_6_" gradientUnits="userSpaceOnUse" x1="412.2256" y1="-399.2305" x2="412.2256" y2="-374.2305" gradientTransform="matrix(1 0 0 -1 -184.2754 106.2695)">
		<stop  offset="0" style="stop-color:#00FFFF"/>
		<stop  offset="1" style="stop-color:#509EF4"/>
	</linearGradient>
	<rect x="226.95" y="480.5" fill="url(#SVGID_6_)" width="2" height="25"/>
</g>
<g>
	<path fill="#0EE8FF" d="M285.95,516.5c0-1.1-1.341-2-3-2c-1.66,0-3,0.9-3,2s1.34,2,3,2C284.609,518.5,285.95,517.6,285.95,516.5z"
		/>
	<path fill="none" stroke="#0088CD" stroke-linecap="round" stroke-linejoin="round" stroke-miterlimit="10" d="M288.95,516.5
		c0-1.66-2.69-3-6-3s-6,1.34-6,3s2.69,3,6,3S288.95,518.16,288.95,516.5z"/>
	
		<linearGradient id="SVGID_7_" gradientUnits="userSpaceOnUse" x1="467.2256" y1="-410.2305" x2="467.2256" y2="-385.2305" gradientTransform="matrix(1 0 0 -1 -184.2754 106.2695)">
		<stop  offset="0" style="stop-color:#00FFFF"/>
		<stop  offset="1" style="stop-color:#509EF4"/>
	</linearGradient>
	<rect x="281.95" y="491.5" fill="url(#SVGID_7_)" width="2" height="25"/>
</g>
<g>
	<path fill="#0EE8FF" d="M348.95,560.5c0-1.1-1.34-2-3-2s-3,0.9-3,2s1.34,2,3,2S348.95,561.6,348.95,560.5z"/>
	<path fill="none" stroke="#0088CD" stroke-linecap="round" stroke-linejoin="round" stroke-miterlimit="10" d="M351.95,560.5
		c0-1.66-2.69-3-6-3c-3.311,0-6,1.34-6,3s2.689,3,6,3C349.26,563.5,351.95,562.16,351.95,560.5z"/>
	
		<linearGradient id="SVGID_8_" gradientUnits="userSpaceOnUse" x1="530.2256" y1="-454.2305" x2="530.2256" y2="-429.2305" gradientTransform="matrix(1 0 0 -1 -184.2754 106.2695)">
		<stop  offset="0" style="stop-color:#00FFFF"/>
		<stop  offset="1" style="stop-color:#509EF4"/>
	</linearGradient>
	<rect x="344.95" y="535.5" fill="url(#SVGID_8_)" width="2" height="25"/>
</g>
<g>
	<path fill="#FF8040" d="M182.95,557.891c0.019-2.088,0-6.984,0-6.984s22.657-13.547,41.101-13.547c17.838,0,40.9,13.67,40.9,13.67
		s0.002,4.469,0,6.861c-0.01,11.369-18.41,20.609-41.1,20.609S182.85,569.26,182.95,557.891z"/>
	<g>
		<path fill="#FCBF28" d="M223.85,570.141c-15.023,0-28.988-4.295-35.577-10.943c-2.562-2.584-3.848-5.327-3.823-8.154
			c0.091-10.322,18.226-19.043,39.6-19.043c10.704,0,20.738,2.077,28.257,5.85c7.189,3.608,11.147,8.289,11.144,13.18
			C263.441,561.389,245.307,570.141,223.85,570.141z"/>
		<path fill="#FDD679" d="M224.05,533.5c10.476,0,20.271,2.021,27.583,5.689c6.561,3.293,10.32,7.606,10.317,11.838
			c-0.003,4.244-3.791,8.578-10.39,11.89c-7.356,3.69-17.197,5.724-27.71,5.724c-14.643,0-28.19-4.121-34.511-10.498
			c-2.27-2.291-3.41-4.674-3.389-7.086C186.025,542.578,201.352,533.5,224.05,533.5 M224.05,530.5c-22.6,0-41,9.18-41.1,20.529
			c-0.1,11.371,18.21,20.611,40.9,20.611s41.089-9.24,41.1-20.611C264.96,539.68,246.65,530.5,224.05,530.5L224.05,530.5z"/>
	</g>
	<g>
		<path fill="none" stroke="#FFFFFF" stroke-width="2" stroke-linecap="round" stroke-linejoin="round" stroke-miterlimit="10" d="
			M200.95,548.95c0.24-3.56,10.05-5.921,21.93-5.271c11.87,0.65,21.3,4.061,21.07,7.62c-0.24,3.56-10.05,5.921-21.93,5.271
			C210.15,555.92,200.72,552.51,200.95,548.95z"/>
		<path fill="#FFFFFF" stroke="#FFFFFF" stroke-linecap="round" stroke-linejoin="round" stroke-miterlimit="10" d="M224.18,539.65
			c0.78-0.021,1.67-0.49,1.94-1.48c0.28-0.99-0.64-1.67-1.99-1.67c-2.76-0.01-4.34,2.55-5.59,5.189
			c-0.37,0.761-0.71,1.531-1.04,2.24c-2.56,5.5-4.31,9.23-5.78,14.471c-0.3,1.08-0.34,2.359-1.5,3.18
			c-1.46-0.33-0.79-1.08-2.23-1.08c-2.26,0.02-2.68,2.88-1.15,3.311c0.48,0.129,0.91,0.129,1.52,0.049
			c2.98-0.42,4.4-3.659,5.9-6.889c2.82-6.031,4.18-9.091,6.01-15.051l0.03-0.07c0.33-1.09,0.73-2.97,1.58-3.109
			C222.71,538.6,222.97,539.68,224.18,539.65z"/>
		<path fill="#FFFFFF" stroke="#FFFFFF" stroke-linecap="round" stroke-linejoin="round" stroke-miterlimit="10" d="M234.87,539.05
			c-2.771-0.01-4.341,2.54-5.601,5.19c-0.369,0.76-0.709,1.52-1.039,2.24c-2.561,5.49-4.32,9.25-5.791,14.5
			c-0.3,1.08-0.34,2.359-1.5,3.189c-1.46-0.33-0.79-1.09-2.23-1.08c-2.26,0.01-2.69,2.87-1.15,3.301
			c0.48,0.129,0.91,0.139,1.53,0.049c2.97-0.42,4.38-3.66,5.9-6.89c2.81-6.03,4.18-9.12,6.02-15.079l0.02-0.07
			c0.33-1.09,0.73-2.971,1.58-3.11c0.83-0.14,1.091,0.94,2.311,0.91c0.77-0.021,1.66-0.49,1.939-1.479
			C237.13,539.73,236.21,539.061,234.87,539.05z"/>
	</g>
</g>
<g opacity="0.5">
	
		<polyline fill="none" stroke="#1B3E84" stroke-width="2" stroke-linecap="round" stroke-linejoin="round" stroke-miterlimit="10" points="
		172.23,548.13 156.95,555.74 172.61,564.96 	"/>
	
		<polyline fill="none" stroke="#1B3E84" stroke-width="2" stroke-linecap="round" stroke-linejoin="round" stroke-miterlimit="10" points="
		277.79,548.77 292.95,555.74 277.41,564.66 	"/>
	
		<polyline fill="none" stroke="#1B3E84" stroke-width="2" stroke-linecap="round" stroke-linejoin="round" stroke-miterlimit="10" points="
		241.66,584.279 224.6,592.5 207.45,583.99 	"/>
	
		<polyline fill="none" stroke="#1B3E84" stroke-width="2" stroke-linecap="round" stroke-linejoin="round" stroke-miterlimit="10" points="
		241.09,528.5 223.57,520.41 206.27,528.88 	"/>
</g>
<g>
	<g>
		<polyline fill="none" stroke="#1F4698" stroke-linecap="round" stroke-linejoin="round" stroke-miterlimit="10" points="
			172.23,545.54 156.95,553.16 172.61,562.37 		"/>
		<polyline fill="none" stroke="#1F4698" stroke-linecap="round" stroke-linejoin="round" stroke-miterlimit="10" points="
			277.79,546.189 292.95,553.16 277.41,562.07 		"/>
		<polyline fill="none" stroke="#1F4698" stroke-linecap="round" stroke-linejoin="round" stroke-miterlimit="10" points="
			241.66,581.689 224.6,589.92 207.45,581.41 		"/>
		<polyline fill="none" stroke="#1F4698" stroke-linecap="round" stroke-linejoin="round" stroke-miterlimit="10" points="
			241.09,525.91 223.57,517.82 206.27,526.29 		"/>
	</g>
	<g>
		
			<polyline fill="none" stroke="#0CE9FA" stroke-width="2" stroke-linecap="round" stroke-linejoin="round" stroke-miterlimit="10" points="
			172.23,544.221 156.95,551.84 172.61,561.05 		"/>
		
			<polyline fill="none" stroke="#0CE9FA" stroke-width="2" stroke-linecap="round" stroke-linejoin="round" stroke-miterlimit="10" points="
			277.79,544.859 292.95,551.84 277.41,560.75 		"/>
		
			<polyline fill="none" stroke="#0CE9FA" stroke-width="2" stroke-linecap="round" stroke-linejoin="round" stroke-miterlimit="10" points="
			241.66,580.37 224.6,588.59 207.45,580.09 		"/>
		
			<polyline fill="none" stroke="#0CE9FA" stroke-width="2" stroke-linecap="round" stroke-linejoin="round" stroke-miterlimit="10" points="
			241.09,524.59 223.57,516.5 206.27,524.971 		"/>
	</g>
</g>
<path fill="none" stroke="#FFFFFF" stroke-width="2" stroke-linecap="round" stroke-linejoin="round" stroke-miterlimit="10" d="
	M85.95,550.37c0.34-38.07,61.83-68.87,137.35-68.87c75.51,0,136.69,30.8,136.65,68.87c-0.04,38.14-61.53,69.13-137.35,69.13
	C146.79,619.5,85.61,588.51,85.95,550.37z"/>
<g>
	
		<line fill="none" stroke="#509EF4" stroke-width="2" stroke-linecap="square" stroke-linejoin="round" stroke-miterlimit="10" x1="104.01" y1="531.98" x2="41.88" y2="509"/>
	
		<line fill="none" stroke="#509EF4" stroke-width="2" stroke-linecap="square" stroke-linejoin="round" stroke-miterlimit="10" x1="346.21" y1="535.941" x2="407.49" y2="507.49"/>
	
		<polyline fill="none" stroke="#509EF4" stroke-width="2" stroke-linecap="square" stroke-linejoin="round" stroke-miterlimit="10" points="
		282.95,490.5 282.96,483.76 321.85,463.79 	"/>
	
		<line fill="none" stroke="#509EF4" stroke-width="2" stroke-linecap="square" stroke-linejoin="round" stroke-miterlimit="10" x1="227.971" y1="481.23" x2="227.971" y2="426.55"/>
</g>
<polyline fill="none" stroke="#509EF4" stroke-width="2" stroke-linecap="square" stroke-linejoin="round" stroke-miterlimit="10" points="
	130.7,467.79 164.99,478.74 164.99,490.74 "/>
<g>
	<path fill="#0EE8FF" d="M161.95,515.5c0-1.1,1.34-2,3-2c1.66,0,3,0.9,3,2s-1.34,2-3,2C163.29,517.5,161.95,516.6,161.95,515.5z"/>
	<path fill="none" stroke="#0088CD" stroke-linecap="round" stroke-linejoin="round" stroke-miterlimit="10" d="M158.95,515.5
		c0-1.66,2.69-3,6-3c3.31,0,6,1.34,6,3s-2.69,3-6,3C161.64,518.5,158.95,517.16,158.95,515.5z"/>
	
		<linearGradient id="SVGID_9_" gradientUnits="userSpaceOnUse" x1="349.2256" y1="-409.2305" x2="349.2256" y2="-384.2305" gradientTransform="matrix(1 0 0 -1 -184.2754 106.2695)">
		<stop  offset="0" style="stop-color:#00FFFF"/>
		<stop  offset="1" style="stop-color:#509EF4"/>
	</linearGradient>
	<rect x="163.95" y="490.5" fill="url(#SVGID_9_)" width="2" height="25"/>
</g>
<g>
	<path fill="#0EE8FF" d="M100.95,556.5c0-1.1,1.34-2,3-2c1.66,0,3,0.9,3,2s-1.34,2-3,2C102.29,558.5,100.95,557.6,100.95,556.5z"/>
	<path fill="none" stroke="#0088CD" stroke-linecap="round" stroke-linejoin="round" stroke-miterlimit="10" d="M97.95,556.5
		c0-1.66,2.69-3,6-3c3.31,0,6,1.34,6,3s-2.69,3-6,3C100.64,559.5,97.95,558.16,97.95,556.5z"/>
	
		<linearGradient id="SVGID_10_" gradientUnits="userSpaceOnUse" x1="288.2256" y1="-450.2305" x2="288.2256" y2="-425.2305" gradientTransform="matrix(1 0 0 -1 -184.2754 106.2695)">
		<stop  offset="0" style="stop-color:#00FFFF"/>
		<stop  offset="1" style="stop-color:#509EF4"/>
	</linearGradient>
	<rect x="102.95" y="531.5" fill="url(#SVGID_10_)" width="2" height="25"/>
</g>
<g>
	
		<polygon fill="none" stroke="#FFFFFF" stroke-width="2" stroke-linecap="round" stroke-linejoin="round" stroke-miterlimit="10" points="
		25.18,476.93 23.33,507.67 56.95,492.5 52.95,463.5 	"/>
	<circle fill="#FFFFFF" cx="32.45" cy="479" r="1.5"/>
	<circle fill="#FFFFFF" cx="46.45" cy="473" r="1.5"/>
	<path fill="none" stroke="#FFFFFF" stroke-linecap="round" stroke-linejoin="round" stroke-miterlimit="10" d="M32.95,480.5
		c0,0,2.82,4.05,4.87,4.04c5.33-0.011,9.13-11.04,9.13-11.04"/>
</g>
<g>
	
		<polyline fill="none" stroke="#FFFFFF" stroke-width="2" stroke-linecap="round" stroke-linejoin="round" stroke-miterlimit="10" points="
		111.95,455.5 121.95,445.5 126.95,450.5 136.95,440.5 148.95,454.5 	"/>
	<path fill="none" stroke="#FFFFFF" stroke-width="2" stroke-linecap="round" stroke-linejoin="round" stroke-miterlimit="10" d="
		M140.95,451.5c0,0,2.64-3.74,3-10c0.36-6.26-6.66-15.417-6.66-15.417"/>
	<path fill="none" stroke="#FFFFFF" stroke-linecap="round" stroke-linejoin="round" stroke-miterlimit="10" d="M112.95,430.5
		c0,0,1.8-2.85,3-3c1.2-0.15,3,1,3,1s1.05-2.391,2-3c1.08-0.689,3,0,3,0"/>
	<path fill="none" stroke="#FFFFFF" stroke-linecap="round" stroke-linejoin="round" stroke-miterlimit="10" d="M131.95,439.5
		c0,0,0.065-5.361,2-7c1.637-1.387,5.046-3.254,5.046-3.254l-1.046-1.046c0,0-5.52,1.35-6.56,3.3
		C129.41,435.189,131.95,439.5,131.95,439.5z"/>
	<path fill="none" stroke="#FFFFFF" stroke-linecap="round" stroke-linejoin="round" stroke-miterlimit="10" d="M147.29,421.16
		c0,0-5.85-0.26-7,2s-1.258,4.637-1.258,4.637l-2-2c0,0,0.309-4.156,2.258-5.208C142.98,418.62,147.29,421.16,147.29,421.16z"/>
	<path fill="none" stroke="#FFFFFF" stroke-linecap="round" stroke-linejoin="round" stroke-miterlimit="10" d="M147.87,429.779
		c0,0-2.52-1.319-4.86-1.219c-2.57,0.109-3.79,0.695-3.79,0.695l0.28-2.046c0,0,2.73-1.89,5.07-1.271
		C147.43,426.71,147.87,429.779,147.87,429.779z"/>
	<path fill="none" stroke="#FFFFFF" stroke-linecap="round" stroke-linejoin="round" stroke-miterlimit="10" d="M128.22,428.779
		c0,0,2.52-1.319,4.86-1.219c2.57,0.109,5.499,0.64,5.499,0.64l-1.979-1.99c0,0-2.74-1.89-5.07-1.271
		C128.66,425.71,128.22,428.779,128.22,428.779z"/>
</g>
<g>
	
		<polygon fill="none" stroke="#FFFFFF" stroke-width="2" stroke-linecap="round" stroke-linejoin="round" stroke-miterlimit="10" points="
		228.95,420.5 243.95,399.5 238.95,391.5 216.95,391.5 211.95,400.5 	"/>
	
		<line fill="none" stroke="#FFFFFF" stroke-linecap="round" stroke-linejoin="round" stroke-miterlimit="10" x1="211.45" y1="400" x2="244.45" y2="400"/>
	<polyline fill="none" stroke="#FFFFFF" stroke-linecap="round" stroke-linejoin="round" stroke-miterlimit="10" points="
		216.95,391.5 222.95,400.5 228.95,391.5 234.95,399.5 239.95,391.5 	"/>
	<polyline fill="none" stroke="#FFFFFF" stroke-linecap="round" stroke-linejoin="round" stroke-miterlimit="10" points="
		222.95,400.5 228.95,419.5 234.95,400.5 	"/>
</g>
<g>
	
		<polygon fill="none" stroke="#FFFFFF" stroke-width="2" stroke-linecap="round" stroke-linejoin="round" stroke-miterlimit="10" points="
		305.95,426.5 305.95,445.5 315.95,449.5 315.95,429.5 	"/>
	<g>
		<path fill="#FFFFFF" d="M309.199,431.94l2.421,0.62l0.081,2.499l-2.421-0.62L309.199,431.94 M309.199,430.44
			c-0.338,0-0.67,0.114-0.938,0.33c-0.368,0.295-0.576,0.747-0.561,1.219l0.081,2.499c0.021,0.666,0.48,1.238,1.127,1.404
			l2.421,0.62c0.123,0.031,0.248,0.047,0.372,0.047c0.338,0,0.67-0.114,0.938-0.33c0.368-0.295,0.576-0.747,0.561-1.219
			l-0.081-2.499c-0.021-0.666-0.48-1.238-1.127-1.404l-2.421-0.62C309.448,430.456,309.323,430.44,309.199,430.44L309.199,430.44z"
			/>
	</g>
	<g>
		<path fill="#FFFFFF" d="M309.269,438.661l2.392,0.727l-0.028,2.5l-2.392-0.727L309.269,438.661 M309.269,437.161
			c-0.315,0-0.626,0.1-0.887,0.29c-0.381,0.279-0.607,0.721-0.613,1.193l-0.028,2.5c-0.008,0.666,0.426,1.258,1.064,1.452
			l2.392,0.727c0.143,0.043,0.289,0.064,0.436,0.064c0.315,0,0.626-0.1,0.887-0.29c0.381-0.279,0.607-0.721,0.613-1.193l0.028-2.5
			c0.008-0.666-0.426-1.258-1.064-1.452l-2.392-0.727C309.562,437.183,309.415,437.161,309.269,437.161L309.269,437.161z"/>
	</g>
	
		<polygon fill="none" stroke="#FFFFFF" stroke-width="2" stroke-linecap="round" stroke-linejoin="round" stroke-miterlimit="10" points="
		334.95,431.5 334.95,456.5 344.95,459.5 344.95,434.5 	"/>
	<g>
		<path fill="#FFFFFF" d="M338.26,436.894l2.396,0.714l-0.015,2.499l-2.396-0.714L338.26,436.894 M338.26,435.394
			c-0.317,0-0.632,0.101-0.893,0.295c-0.38,0.281-0.604,0.725-0.607,1.196l-0.015,2.499c-0.004,0.667,0.433,1.256,1.071,1.446
			l2.396,0.714c0.141,0.042,0.285,0.063,0.429,0.063c0.317,0,0.632-0.101,0.893-0.295c0.38-0.281,0.604-0.725,0.607-1.196
			l0.015-2.499c0.004-0.667-0.433-1.256-1.071-1.446l-2.396-0.714C338.548,435.414,338.403,435.394,338.26,435.394L338.26,435.394z"
			/>
	</g>
	<g>
		<path fill="#FFFFFF" d="M338.271,442.884l2.391,0.732l-0.033,2.5l-2.391-0.732L338.271,442.884 M338.271,441.384
			c-0.313,0-0.624,0.099-0.884,0.288c-0.382,0.278-0.609,0.72-0.616,1.192l-0.033,2.5c-0.009,0.666,0.423,1.259,1.061,1.454
			l2.391,0.732c0.145,0.044,0.292,0.065,0.439,0.065c0.313,0,0.624-0.099,0.884-0.288c0.382-0.278,0.609-0.72,0.616-1.192l0.033-2.5
			c0.009-0.666-0.423-1.259-1.061-1.454l-2.391-0.732C338.566,441.405,338.419,441.384,338.271,441.384L338.271,441.384z"/>
	</g>
	<g>
		<path fill="#FFFFFF" d="M338.247,448.902l2.401,0.695l0.005,2.5l-2.401-0.695L338.247,448.902 M338.247,447.402
			c-0.322,0-0.64,0.104-0.902,0.302c-0.377,0.284-0.599,0.729-0.598,1.201l0.005,2.5c0.001,0.667,0.442,1.253,1.083,1.438
			l2.401,0.695c0.137,0.04,0.277,0.06,0.417,0.06c0.322,0,0.64-0.104,0.902-0.302c0.377-0.284,0.599-0.729,0.598-1.201l-0.005-2.5
			c-0.001-0.667-0.442-1.253-1.083-1.438l-2.401-0.695C338.527,447.422,338.387,447.402,338.247,447.402L338.247,447.402z"/>
	</g>
	
		<polygon fill="none" stroke="#FFFFFF" stroke-width="2" stroke-linecap="round" stroke-linejoin="round" stroke-miterlimit="10" points="
		319.95,419.064 319.95,451.064 330.95,455.064 330.95,422.064 	"/>
	<g>
		<path fill="#FFFFFF" d="M323.274,423.882l2.39,0.736l-0.038,2.5l-2.39-0.736L323.274,423.882 M323.274,422.382
			c-0.313,0-0.622,0.098-0.882,0.286c-0.382,0.278-0.61,0.719-0.618,1.191l-0.038,2.5c-0.01,0.666,0.421,1.26,1.059,1.456
			l2.39,0.736c0.145,0.045,0.293,0.066,0.441,0.066c0.313,0,0.622-0.098,0.882-0.286c0.382-0.278,0.61-0.719,0.618-1.191l0.038-2.5
			c0.01-0.666-0.421-1.26-1.059-1.456l-2.39-0.736C323.571,422.403,323.423,422.382,323.274,422.382L323.274,422.382z"/>
	</g>
	<g>
		<path fill="#FFFFFF" d="M323.255,430.337l2.397,0.707l-0.007,2.5l-2.397-0.707L323.255,430.337 M323.255,428.837
			c-0.319,0-0.635,0.102-0.896,0.298c-0.379,0.282-0.603,0.726-0.604,1.198l-0.007,2.5c-0.002,0.666,0.437,1.254,1.076,1.442
			l2.397,0.707c0.139,0.041,0.282,0.062,0.424,0.062c0.319,0,0.635-0.102,0.896-0.298c0.379-0.282,0.603-0.726,0.604-1.198
			l0.007-2.5c0.002-0.666-0.437-1.254-1.076-1.442l-2.397-0.707C323.54,428.857,323.396,428.837,323.255,428.837L323.255,428.837z"
			/>
	</g>
	<g>
		<path fill="#FFFFFF" d="M323.268,436.888l2.393,0.726l-0.027,2.499l-2.393-0.726L323.268,436.888 M323.268,435.388
			c-0.315,0-0.627,0.1-0.887,0.29c-0.381,0.279-0.608,0.722-0.613,1.193l-0.027,2.499c-0.007,0.667,0.427,1.259,1.064,1.452
			l2.393,0.726c0.143,0.043,0.29,0.064,0.436,0.064c0.315,0,0.627-0.1,0.887-0.29c0.381-0.279,0.608-0.722,0.613-1.193l0.027-2.499
			c0.007-0.667-0.427-1.259-1.064-1.452l-2.393-0.726C323.561,435.409,323.413,435.388,323.268,435.388L323.268,435.388z"/>
	</g>
	<g>
		<path fill="#FFFFFF" d="M323.243,442.905l2.403,0.689l0.011,2.5l-2.403-0.689L323.243,442.905 M323.243,441.405
			c-0.323,0-0.642,0.104-0.905,0.304c-0.376,0.285-0.597,0.73-0.595,1.203l0.011,2.5c0.003,0.666,0.445,1.251,1.086,1.435
			l2.403,0.689c0.137,0.039,0.275,0.059,0.414,0.059c0.323,0,0.642-0.104,0.905-0.304c0.376-0.285,0.597-0.73,0.595-1.203
			l-0.011-2.5c-0.003-0.666-0.445-1.251-1.086-1.435l-2.403-0.689C323.521,441.425,323.382,441.405,323.243,441.405L323.243,441.405
			z"/>
	</g>
</g>
<g>
	
		<polyline fill="none" stroke="#FFFFFF" stroke-width="2" stroke-linecap="round" stroke-linejoin="round" stroke-miterlimit="10" points="
		386.95,454.5 396.95,467.5 399.95,490.5 421.95,500.5 428.95,486.5 	"/>
	<path fill="#FFFFFF" stroke="#FFFFFF" stroke-miterlimit="10" d="M402.95,496.5c0.55-0.55,2.12-0.33,3.5,0.5s2.05,1.95,1.5,2.5
		s-2.12,0.33-3.5-0.5S402.4,497.05,402.95,496.5z"/>
	<path fill="#FFFFFF" stroke="#FFFFFF" stroke-miterlimit="10" d="M414.95,501.5c0.55-0.55,2.12-0.33,3.5,0.5s2.05,1.95,1.5,2.5
		s-2.12,0.33-3.5-0.5S414.4,502.05,414.95,501.5z"/>
	<g>
		<path fill="#FFFFFF" d="M404.924,473.197c0.717,0,1.659,0.281,2.526,0.803c1.38,0.83,2.05,1.95,1.5,2.5
			c-0.204,0.204-0.55,0.303-0.974,0.303c-0.717,0-1.659-0.281-2.526-0.803c-1.38-0.83-2.05-1.95-1.5-2.5
			C404.154,473.296,404.5,473.197,404.924,473.197 M404.924,471.197L404.924,471.197c-1.239,0.001-1.982,0.483-2.388,0.889
			c-0.584,0.583-0.859,1.4-0.757,2.24c0.151,1.234,1.113,2.47,2.64,3.388c1.15,0.691,2.447,1.089,3.558,1.089
			c1.239,0,1.982-0.483,2.388-0.889c0.584-0.583,0.859-1.4,0.757-2.24c-0.151-1.234-1.113-2.47-2.64-3.388
			C407.331,471.595,406.034,471.197,404.924,471.197L404.924,471.197z"/>
	</g>
	<g>
		<path fill="#FFFFFF" d="M405.924,484.197c0.717,0,1.659,0.281,2.526,0.803c1.38,0.83,2.05,1.95,1.5,2.5
			c-0.204,0.204-0.55,0.303-0.974,0.303c-0.717,0-1.659-0.281-2.526-0.803c-1.38-0.83-2.05-1.95-1.5-2.5
			C405.154,484.296,405.5,484.197,405.924,484.197 M405.924,482.197L405.924,482.197c-1.239,0.001-1.982,0.483-2.388,0.889
			c-0.584,0.583-0.859,1.4-0.757,2.24c0.151,1.234,1.113,2.47,2.64,3.388c1.15,0.691,2.447,1.089,3.558,1.089
			c1.239,0,1.982-0.483,2.388-0.889c0.584-0.583,0.859-1.4,0.757-2.24c-0.151-1.234-1.113-2.47-2.64-3.388
			C408.331,482.595,407.034,482.197,405.924,482.197L405.924,482.197z"/>
	</g>
	<g>
		<path fill="#FFFFFF" d="M416.95,477.5l5,5l-3,4l-5-4L416.95,477.5 M416.95,475.5c-0.081,0-0.163,0.005-0.244,0.015
			c-0.611,0.075-1.154,0.429-1.471,0.956l-3,5c-0.516,0.858-0.316,1.966,0.466,2.591l5,4c0.356,0.285,0.798,0.438,1.249,0.438
			c0.084,0,0.168-0.005,0.252-0.016c0.537-0.068,1.023-0.352,1.348-0.784l3-4c0.598-0.797,0.519-1.91-0.186-2.614l-5-5
			C417.987,475.708,417.478,475.5,416.95,475.5L416.95,475.5z"/>
	</g>
</g>
</svg>
