<?xml version="1.0" encoding="utf-8"?>
<!-- Generator: Adobe Illustrator 16.0.0, SVG Export Plug-In . SVG Version: 6.00 Build 0)  -->
<!DOCTYPE svg PUBLIC "-//W3C//DTD SVG 1.1//EN" "http://www.w3.org/Graphics/SVG/1.1/DTD/svg11.dtd">
<svg version="1.1" id="层_1" xmlns="http://www.w3.org/2000/svg" xmlns:xlink="http://www.w3.org/1999/xlink" x="0px" y="0px"
	 width="342.002px" height="306.996px" viewBox="0 0 342.002 306.996" enable-background="new 0 0 342.002 306.996"
	 xml:space="preserve">
<g>
	<g>
		<path fill-rule="evenodd" clip-rule="evenodd" fill="#4E9DF4" d="M0.002,220.936c0.48-47.34,77.23-85.63,171.43-85.63
			c94.21,0,170.57,38.29,170.57,85.63c0,47.48-76.75,86.06-171.43,86.06C75.882,306.996-0.478,268.416,0.002,220.936z"/>
		<path fill-rule="evenodd" clip-rule="evenodd" fill="#A3C9F5" d="M0.103,202.946c0.48-47.32,77.21-85.58,171.38-85.58
			c94.18,0,170.52,38.26,170.52,85.58c0,47.45-76.73,86.01-171.39,86.01C75.962,288.956-0.377,250.396,0.103,202.946z"/>
		<path fill-rule="evenodd" clip-rule="evenodd" fill="#D1E4FA" d="M37.922,195.736c0.33-37.15,60.57-67.2,134.55-67.2
			s133.92,30.05,133.88,67.2c-0.04,37.22-60.28,67.45-134.55,67.45C97.522,263.186,37.592,232.956,37.922,195.736z"/>
	</g>
	<g>
		<path fill-rule="evenodd" clip-rule="evenodd" fill="#09ABFF" d="M34.552,112.266c0,0-13.74-46.45,23.4-72.74
			c28.01-19.82,49.44-32.76,102.56-35.36c131.35-4.33,153.27,71.63,150.41,93.79c0,25.77,0.3,111.07,0.3,111.07
			s-3.86-18.2-13.72-34.71c-6.67-11.15-19.56-19.63-25.25-23.31c-14.13-9.15-41.63-25.92-92.82-27.42
			c-56.46-1.66-99.79,19.52-113.84,28.26c-21.34,13.28-30.4,31.27-30.4,31.27L34.552,112.266z"/>
		<g>
			<g>
				<g>
					<path fill="none" stroke="#FFFFFF" stroke-width="0.5" stroke-linecap="round" stroke-miterlimit="10" d="M290.022,158.505
						c0.23-0.203,0.47-0.433,0.719-0.69"/>
					
						<path fill="none" stroke="#FFFFFF" stroke-width="0.5" stroke-linecap="round" stroke-miterlimit="10" stroke-dasharray="1.9994,1.9994" d="
						M292.053,156.311c5.775-7.224,14.115-25.115,9.079-38.905c-2.97-8.12-27.36-60.851-116.6-60.851
						c-80.641,0-126.226,47.891-134.263,57.122"/>
					<path fill="none" stroke="#FFFFFF" stroke-width="0.5" stroke-linecap="round" stroke-miterlimit="10" d="M49.616,114.438
						c-0.422,0.5-0.634,0.768-0.634,0.768"/>
				</g>
			</g>
			<path fill-rule="evenodd" clip-rule="evenodd" fill="#7F00FF" d="M180.623,45.286c0-3.09,2.65-5.6,5.93-5.6
				c3.27,0,5.92,2.51,5.92,5.6c0,3.1-5.92,12.32-5.92,12.32S180.623,48.386,180.623,45.286z"/>
			<path fill-rule="evenodd" clip-rule="evenodd" fill="#FFFFFF" d="M185.063,45.666c0-0.83,0.67-1.5,1.49-1.5
				c0.81,0,1.48,0.67,1.48,1.5c0,0.82-0.67,1.49-1.48,1.49C185.732,47.156,185.063,46.486,185.063,45.666z"/>
			<path fill-rule="evenodd" clip-rule="evenodd" fill="#FFFFFF" d="M84.083,84.306c-0.74-1.86,1.15-4.26,4.19-5.3
				c2.99-1.02,5.85-0.29,6.43,1.57c0.55,1.81-1.27,4.06-4.1,5.08C87.723,86.696,84.802,86.116,84.083,84.306z"/>
			
				<path fill-rule="evenodd" clip-rule="evenodd" fill="none" stroke="#FFFFFF" stroke-linecap="round" stroke-linejoin="round" stroke-miterlimit="10" d="
				M80.782,85.466c-1.26-2.94,1.81-6.81,6.77-8.48c4.85-1.63,9.39-0.44,10.22,2.5c0.8,2.83-2.1,6.33-6.54,7.95
				C86.683,89.105,81.973,88.295,80.782,85.466z"/>
			<path fill-rule="evenodd" clip-rule="evenodd" fill="#FFFFFF" d="M142.873,59.875c0-1.83,1.66-3.32,3.7-3.32
				c2.05,0,3.7,1.49,3.7,3.32c0,1.84-1.65,3.33-3.7,3.33C144.532,63.206,142.873,61.716,142.873,59.875z"/>
			
				<path fill-rule="evenodd" clip-rule="evenodd" fill="none" stroke="#FFFFFF" stroke-linecap="round" stroke-linejoin="round" stroke-miterlimit="10" d="
				M140.652,59.875c0-2.88,2.65-5.22,5.92-5.22s5.92,2.34,5.92,5.22c0,2.89-2.65,5.23-5.92,5.23S140.652,62.766,140.652,59.875z"/>
			<path fill-rule="evenodd" clip-rule="evenodd" fill="#FFFFFF" d="M288.393,97.406c0.71-1.05,2.5-1.02,4.06,0.04
				c1.59,1.08,2.47,2.9,1.92,4.11c-0.59,1.29-2.54,1.37-4.29,0.13C288.362,100.466,287.643,98.525,288.393,97.406z"/>
			
				<path fill-rule="evenodd" clip-rule="evenodd" fill="none" stroke="#FFFFFF" stroke-linecap="round" stroke-linejoin="round" stroke-miterlimit="10" d="
				M286.672,96.216c1.16-1.57,3.95-1.45,6.37,0.18c2.48,1.67,3.97,4.51,3.19,6.46c-0.85,2.15-4.03,2.32-6.93,0.23
				C286.482,101.056,285.393,97.926,286.672,96.216z"/>
			<path fill-rule="evenodd" clip-rule="evenodd" fill="#FFFFFF" d="M236.172,63.216c0.46-1.28,2.33-1.85,4.18-1.33
				c1.81,0.51,3.03,1.92,2.73,3.2c-0.31,1.34-2.15,2.06-4.12,1.54C236.953,66.105,235.703,64.556,236.172,63.216z"/>
			
				<path fill-rule="evenodd" clip-rule="evenodd" fill="none" stroke="#FFFFFF" stroke-linecap="round" stroke-linejoin="round" stroke-miterlimit="10" d="
				M234.022,62.636c0.78-1.99,3.79-2.81,6.68-1.97c2.83,0.81,4.76,2.97,4.37,4.96c-0.42,2.13-3.33,3.32-6.55,2.51
				C235.203,67.295,233.172,64.755,234.022,62.636z"/>
			<g>
				<path fill-rule="evenodd" clip-rule="evenodd" fill="#CA9800" d="M47.143,104.746c-0.49-2.1-0.77-4.3,0.21-5.16
					c0.31-0.27,1.36-0.12,1.78-0.16c1.74-0.18,3.68,1.92,4.32,4.68c0.65,2.76-0.04,4.78-1.62,5.41c-1.28,0.51-1.89,0.42-2.26,0.27
					C48.183,109.226,47.652,106.926,47.143,104.746z"/>
				<path fill-rule="evenodd" clip-rule="evenodd" fill="#CA9800" d="M44.342,118.456v-6.83c0,0-0.32-1.84,0.81-2.42
					c1.13-0.57,2.46,0.13,2.46,0.13l5.69,2.9c0,0,1.41,1.22,2.04,2.1c0.71,1,0.92,2.9,0.92,2.9v7.32l-1.42,0.24L44.342,118.456z"/>
				<path fill-rule="evenodd" clip-rule="evenodd" fill="#F2B600" d="M45.743,104.996c-0.65-2.76,0.24-5.15,1.99-5.33
					c1.74-0.18,3.68,1.92,4.32,4.68c0.65,2.77-0.24,5.15-1.99,5.33C48.322,109.855,46.393,107.755,45.743,104.996z"/>
				<path fill-rule="evenodd" clip-rule="evenodd" fill="#F2B600" d="M42.942,118.696v-6.83c0,0,0.2-1.62,1.33-2.19
					c1.14-0.58,1.94-0.09,1.94-0.09l5.69,2.89c0,0,1.41,1.22,2.03,2.11c0.72,0.99,0.93,2.89,0.93,2.89v7.32L42.942,118.696z"/>
			</g>
		</g>
		<path fill-rule="evenodd" clip-rule="evenodd" fill="#1486ED" d="M260.572,141.255v117.96c0,0,28.83-13.86,38.49-26.88
			c9.67-13.01,13.33-31.35,13.33-31.35V84.516c0,0-15.33,29.88-23.69,37.33C280.322,129.315,260.572,141.255,260.572,141.255z"/>
		<path fill-rule="evenodd" clip-rule="evenodd" fill="#56E4FF" d="M28.493,93.486l7.03,0.11c0,0-0.21-30.57,21.11-50.43
			c14.05-13.07,52-35.58,91.02-36.77c37.14-1.13,83.05-2.87,126.64,26.67c8.31,5.07,20.8,18.51,24.77,26.95
			c3.44,7.31,10.18,21.78,2.61,38.89c-6.33,14.42-42.47,40.91-42.47,40.91l7.5,0.01c0,0,43.57-21.36,45.65-52.18
			c1.65-13.89-5.61-35.51-26.83-53.08c-9.01-7.46-46.75-39.6-138.85-33.89c-34.44,2.13-66.36,16.59-80.6,25.76
			C23.473,53.886,28.493,93.486,28.493,93.486z"/>
		<rect x="259.092" y="139.766" fill-rule="evenodd" clip-rule="evenodd" fill="#3B92E1" width="7.4" height="119.45"/>
		<rect x="28.132" y="93.476" fill-rule="evenodd" clip-rule="evenodd" fill="#3B92E1" width="7.4" height="128.41"/>
	</g>
	<g>
		<polygon fill-rule="evenodd" clip-rule="evenodd" fill="#BDD9E9" points="85.873,151.436 113.802,170.045 155.552,143.585 
			126.632,123.415 		"/>
		<polygon fill-rule="evenodd" clip-rule="evenodd" fill="#43A8C3" points="85.873,151.436 113.802,170.045 113.802,202.835 
			85.933,182.736 		"/>
		<polygon fill-rule="evenodd" clip-rule="evenodd" fill="#2485AC" points="155.433,143.456 113.802,170.045 113.802,202.835 
			155.402,175.846 		"/>
		
			<path fill-rule="evenodd" clip-rule="evenodd" fill="none" stroke="#E4E8F6" stroke-width="2" stroke-linecap="square" stroke-linejoin="round" stroke-miterlimit="10" d="
			M113.683,201.366"/>
		
			<path fill-rule="evenodd" clip-rule="evenodd" fill="none" stroke="#E4E8F6" stroke-width="2" stroke-linecap="square" stroke-linejoin="round" stroke-miterlimit="10" d="
			M113.683,171.206"/>
		<polygon fill-rule="evenodd" clip-rule="evenodd" fill="#FFD24D" points="93.522,156.605 135.822,129.986 145.532,136.896 
			105.022,163.666 104.853,188.545 99.252,177.786 93.522,181.616 		"/>
	</g>
	<g>
		<polygon fill-rule="evenodd" clip-rule="evenodd" fill="#BDD9E9" points="119.922,178.315 147.853,196.926 189.512,170.386 
			160.583,150.216 		"/>
		<polygon fill-rule="evenodd" clip-rule="evenodd" fill="#43A8C3" points="119.922,178.315 147.853,196.926 147.853,229.706 
			119.982,209.616 		"/>
		<polygon fill-rule="evenodd" clip-rule="evenodd" fill="#2485AC" points="189.482,170.335 147.853,196.926 147.853,229.706 
			189.462,202.726 		"/>
		
			<path fill-rule="evenodd" clip-rule="evenodd" fill="none" stroke="#E4E8F6" stroke-width="2" stroke-linecap="square" stroke-linejoin="round" stroke-miterlimit="10" d="
			M147.732,228.236"/>
		
			<path fill-rule="evenodd" clip-rule="evenodd" fill="none" stroke="#E4E8F6" stroke-width="2" stroke-linecap="square" stroke-linejoin="round" stroke-miterlimit="10" d="
			M147.732,198.085"/>
		<polygon fill-rule="evenodd" clip-rule="evenodd" fill="#FFD24D" points="127.572,183.486 169.873,156.866 179.583,163.775 
			139.083,190.545 138.913,215.416 133.302,204.666 127.572,208.496 		"/>
	</g>
	<g>
		<polygon fill-rule="evenodd" clip-rule="evenodd" fill="#BDD9E9" points="155.453,203.696 183.382,222.306 225.042,195.766 
			196.123,175.596 		"/>
		<polygon fill-rule="evenodd" clip-rule="evenodd" fill="#43A8C3" points="155.453,203.696 183.382,222.306 183.382,255.096 
			155.522,234.996 		"/>
		<polygon fill-rule="evenodd" clip-rule="evenodd" fill="#2485AC" points="225.012,195.716 183.382,222.306 183.382,255.096 
			224.993,228.105 		"/>
		
			<path fill-rule="evenodd" clip-rule="evenodd" fill="none" stroke="#E4E8F6" stroke-width="2" stroke-linecap="square" stroke-linejoin="round" stroke-miterlimit="10" d="
			M183.262,253.625"/>
		
			<path fill-rule="evenodd" clip-rule="evenodd" fill="none" stroke="#E4E8F6" stroke-width="2" stroke-linecap="square" stroke-linejoin="round" stroke-miterlimit="10" d="
			M183.262,223.466"/>
		<polygon fill-rule="evenodd" clip-rule="evenodd" fill="#FFD24D" points="163.103,208.866 205.402,182.246 215.123,189.156 
			174.612,215.926 174.442,240.806 168.842,230.045 163.103,233.875 		"/>
	</g>
</g>
</svg>
