<?xml version="1.0" encoding="utf-8"?>
<!-- Generator: Adobe Illustrator 16.0.0, SVG Export Plug-In . SVG Version: 6.00 Build 0)  -->
<!DOCTYPE svg PUBLIC "-//W3C//DTD SVG 1.1//EN" "http://www.w3.org/Graphics/SVG/1.1/DTD/svg11.dtd">
<svg version="1.1" id="层_1" xmlns="http://www.w3.org/2000/svg" xmlns:xlink="http://www.w3.org/1999/xlink" x="0px" y="0px"
	 width="438.5px" height="360px" viewBox="0 0 438.5 360" enable-background="new 0 0 438.5 360" xml:space="preserve">
<g>
	<g>
		
			<polygon fill-rule="evenodd" clip-rule="evenodd" fill="#E2EEFC" stroke="#3B92E1" stroke-width="4" stroke-linecap="round" stroke-linejoin="round" stroke-miterlimit="10" points="
			4.467,217.85 220.507,360.04 439.467,219.02 220.507,77.42 		"/>
		<polygon fill-rule="evenodd" clip-rule="evenodd" fill="#D1E4FA" points="55.312,211.558 221.542,318.438 387.717,210.93 
			222.072,103.898 		"/>
		<polygon fill-rule="evenodd" clip-rule="evenodd" fill="#A3C9F5" points="55.247,211.55 221.542,318.438 221.497,328.25 
			55.257,221.39 		"/>
		<polygon fill-rule="evenodd" clip-rule="evenodd" fill="#4E9DF4" points="387.717,210.93 221.542,318.438 221.497,328.25 
			387.617,221.76 		"/>
	</g>
	<g>
		<path fill-rule="evenodd" clip-rule="evenodd" fill="#FECD78" d="M229.76,226.69c0-0.87-0.93-10.19,1.18-10.92
			c5.22-1.8,18.2-3.27,30.75-3.27c12.84,0,25.73,1.45,30.8,3.32c1.9,0.7,1.13,10.05,1.13,10.87c0,3.02-14.29,5.46-31.93,5.46
			C244.06,232.15,229.76,229.71,229.76,226.69z"/>
		<path fill-rule="evenodd" clip-rule="evenodd" fill="#EC9922" d="M229.76,213.96c0-3.01,14.3-5.45,31.93-5.45
			c17.64,0,31.93,2.44,31.93,5.45c0,3.02-14.29,5.46-31.93,5.46C244.06,219.42,229.76,216.98,229.76,213.96z"/>
		<path fill-rule="evenodd" clip-rule="evenodd" fill="#FECD78" d="M233.31,212.14c0-0.86-0.93-10.19,1.18-10.92
			c5.21-1.8,18.19-3.27,30.75-3.27c12.83,0,25.73,1.46,30.8,3.32c1.9,0.7,1.13,10.05,1.13,10.87c0,3.02-14.29,5.46-31.93,5.46
			C247.6,217.6,233.31,215.16,233.31,212.14z"/>
		<path fill-rule="evenodd" clip-rule="evenodd" fill="#EC9922" d="M233.31,199.41c0-3.01,14.29-5.45,31.93-5.45
			c17.64,0,31.93,2.44,31.93,5.45c0,3.02-14.29,5.46-31.93,5.46C247.6,204.87,233.31,202.43,233.31,199.41z"/>
		<path fill-rule="evenodd" clip-rule="evenodd" fill="#FECD78" d="M231.53,197.6c0-0.87-0.93-10.2,1.18-10.93
			c5.22-1.8,18.2-3.27,30.76-3.27c12.83,0,25.72,1.46,30.8,3.32c1.89,0.7,1.13,10.05,1.13,10.88c0,3.01-14.3,5.45-31.93,5.45
			C245.83,203.05,231.53,200.61,231.53,197.6z"/>
		<path fill-rule="evenodd" clip-rule="evenodd" fill="#EC9922" d="M231.53,184.86c0-3.01,14.3-5.45,31.94-5.45
			c17.63,0,31.93,2.44,31.93,5.45c0,3.02-14.3,5.46-31.93,5.46C245.83,190.32,231.53,187.88,231.53,184.86z"/>
		<path fill-rule="evenodd" clip-rule="evenodd" fill="#FECD78" d="M235.08,183.05c0-0.87-0.93-10.2,1.18-10.93
			c5.22-1.8,18.2-3.27,30.75-3.27c12.84,0,25.73,1.46,30.8,3.32c1.9,0.7,1.14,10.06,1.14,10.88c0,3.01-14.3,5.45-31.94,5.45
			C249.38,188.5,235.08,186.06,235.08,183.05z"/>
		<path fill-rule="evenodd" clip-rule="evenodd" fill="#EC9922" d="M235.08,170.32c0-3.02,14.3-5.46,31.93-5.46
			c17.64,0,31.94,2.44,31.94,5.46c0,3.01-14.3,5.45-31.94,5.45C249.38,175.77,235.08,173.33,235.08,170.32z"/>
	</g>
	<g>
		<path fill-rule="evenodd" clip-rule="evenodd" fill="#FECD78" d="M139.06,203.14c0-0.87-0.93-10.19,1.18-10.92
			c5.22-1.8,18.2-3.27,30.76-3.27c12.83,0,25.72,1.45,30.8,3.32c1.9,0.7,1.13,10.05,1.13,10.87c0,3.02-14.3,5.46-31.93,5.46
			C153.36,208.6,139.06,206.16,139.06,203.14z"/>
		<path fill-rule="evenodd" clip-rule="evenodd" fill="#EC9922" d="M139.06,190.41c0-3.01,14.3-5.45,31.94-5.45
			c17.63,0,31.93,2.44,31.93,5.45c0,3.02-14.3,5.46-31.93,5.46C153.36,195.87,139.06,193.43,139.06,190.41z"/>
		<path fill-rule="evenodd" clip-rule="evenodd" fill="#FECD78" d="M142.61,188.59c0-0.87-0.93-10.19,1.18-10.92
			c5.22-1.8,18.2-3.27,30.75-3.27c12.84,0,25.73,1.45,30.8,3.32c1.9,0.7,1.14,10.05,1.14,10.87c0,3.02-14.3,5.46-31.94,5.46
			C156.91,194.05,142.61,191.61,142.61,188.59z"/>
		<path fill-rule="evenodd" clip-rule="evenodd" fill="#EC9922" d="M142.61,175.86c0-3.01,14.3-5.45,31.93-5.45
			c17.64,0,31.94,2.44,31.94,5.45c0,3.02-14.3,5.46-31.94,5.46C156.91,181.32,142.61,178.88,142.61,175.86z"/>
		<path fill-rule="evenodd" clip-rule="evenodd" fill="#FECD78" d="M140.84,174.04c0-0.86-0.93-10.19,1.18-10.92
			c5.21-1.8,18.2-3.27,30.75-3.27c12.83,0,25.73,1.45,30.8,3.32c1.9,0.7,1.13,10.05,1.13,10.87c0,3.02-14.29,5.46-31.93,5.46
			C155.14,179.5,140.84,177.06,140.84,174.04z"/>
		<path fill-rule="evenodd" clip-rule="evenodd" fill="#EC9922" d="M140.84,161.31c0-3.01,14.3-5.45,31.93-5.45
			c17.64,0,31.93,2.44,31.93,5.45c0,3.02-14.29,5.46-31.93,5.46C155.14,166.77,140.84,164.33,140.84,161.31z"/>
		<path fill-rule="evenodd" clip-rule="evenodd" fill="#FECD78" d="M144.39,159.49c0-0.86-0.93-10.19,1.18-10.92
			c5.21-1.8,18.19-3.27,30.75-3.27c12.83,0,25.72,1.46,30.8,3.32c1.9,0.7,1.13,10.05,1.13,10.87c0,3.02-14.3,5.46-31.93,5.46
			C158.68,164.95,144.39,162.51,144.39,159.49z"/>
		<path fill-rule="evenodd" clip-rule="evenodd" fill="#EC9922" d="M144.39,146.76c0-3.01,14.29-5.45,31.93-5.45
			c17.63,0,31.93,2.44,31.93,5.45c0,3.02-14.3,5.46-31.93,5.46C158.68,152.22,144.39,149.78,144.39,146.76z"/>
	</g>
	<g>
		<path fill-rule="evenodd" clip-rule="evenodd" fill="#FECD78" d="M184.41,248.56c0-0.87-0.93-10.19,1.18-10.92
			c5.22-1.8,18.2-3.27,30.75-3.27c12.84,0,25.73,1.45,30.8,3.32c1.9,0.7,1.14,10.05,1.14,10.87c0,3.02-14.3,5.46-31.94,5.46
			C198.71,254.02,184.41,251.58,184.41,248.56z"/>
		<path fill-rule="evenodd" clip-rule="evenodd" fill="#EC9922" d="M184.41,235.83c0-3.01,14.3-5.45,31.93-5.45
			c17.64,0,31.94,2.44,31.94,5.45c0,3.02-14.3,5.46-31.94,5.46C198.71,241.29,184.41,238.85,184.41,235.83z"/>
		<path fill-rule="evenodd" clip-rule="evenodd" fill="#FECD78" d="M187.96,234.01c0-0.86-0.93-10.19,1.18-10.92
			c5.22-1.8,18.2-3.27,30.75-3.27c12.84,0,25.73,1.45,30.8,3.32c1.9,0.7,1.13,10.05,1.13,10.87c0,3.02-14.29,5.46-31.93,5.46
			C202.26,239.47,187.96,237.03,187.96,234.01z"/>
		<path fill-rule="evenodd" clip-rule="evenodd" fill="#EC9922" d="M187.96,221.28c0-3.01,14.3-5.45,31.93-5.45
			c17.64,0,31.93,2.44,31.93,5.45c0,3.02-14.29,5.46-31.93,5.46C202.26,226.74,187.96,224.3,187.96,221.28z"/>
		<path fill-rule="evenodd" clip-rule="evenodd" fill="#FECD78" d="M186.19,219.46c0-0.86-0.93-10.19,1.18-10.92
			c5.21-1.8,18.19-3.27,30.75-3.27c12.83,0,25.72,1.46,30.8,3.32c1.9,0.7,1.13,10.05,1.13,10.87c0,3.02-14.3,5.46-31.93,5.46
			C200.48,224.92,186.19,222.48,186.19,219.46z"/>
		<path fill-rule="evenodd" clip-rule="evenodd" fill="#EC9922" d="M186.19,206.73c0-3.01,14.29-5.45,31.93-5.45
			c17.63,0,31.93,2.44,31.93,5.45c0,3.02-14.3,5.46-31.93,5.46C200.48,212.19,186.19,209.75,186.19,206.73z"/>
		<path fill-rule="evenodd" clip-rule="evenodd" fill="#FECD78" d="M189.73,204.92c0-0.87-0.93-10.2,1.18-10.93
			c5.22-1.8,18.2-3.27,30.76-3.27c12.83,0,25.72,1.46,30.8,3.32c1.9,0.7,1.13,10.05,1.13,10.88c0,3.01-14.3,5.45-31.93,5.45
			C204.03,210.37,189.73,207.93,189.73,204.92z"/>
		<path fill-rule="evenodd" clip-rule="evenodd" fill="#EC9922" d="M189.73,192.18c0-3.01,14.3-5.45,31.94-5.45
			c17.63,0,31.93,2.44,31.93,5.45c0,3.02-14.3,5.46-31.93,5.46C204.03,197.64,189.73,195.2,189.73,192.18z"/>
	</g>
	<g>
		
			<path fill-rule="evenodd" clip-rule="evenodd" fill="#EC9922" stroke="#FECD78" stroke-width="5" stroke-linecap="round" stroke-linejoin="round" stroke-miterlimit="10" d="
			M188.25,159.81c0-17.65,14.29-31.96,31.91-31.96c17.62,0,31.91,14.31,31.91,31.96c0,17.66-14.29,31.97-31.91,31.97
			C202.54,191.78,188.25,177.47,188.25,159.81z"/>
		<g>
			<path fill="none" stroke="#FFFFFF" stroke-width="2" stroke-linecap="round" stroke-linejoin="round" stroke-miterlimit="10" d="
				M240.99,158.84c0.63,0.41,0.42,0.74-0.64,1.01c-0.39,0.11-0.41,0.23-0.4,0.43c0.01,0.51-0.05,0.74-1.25,0.94
				c-0.44,0.07-0.71,0.22-0.67,0.39c0.09,0.45-0.51,0.73-1.8,0.83c-0.48,0.04-0.83,0.17-0.9,0.33c-0.18,0.45-0.94,0.68-2.27,0.69
				c-0.5,0.01-0.92,0.11-1.09,0.27c-0.45,0.42-1.34,0.59-2.65,0.51c-0.49-0.03-0.96,0.05-1.22,0.19c-0.71,0.37-1.68,0.48-2.91,0.32
				c-0.46-0.07-0.97-0.03-1.32,0.09c-0.92,0.32-1.93,0.35-3.04,0.1c-0.41-0.09-0.93-0.09-1.34,0c-1.11,0.25-2.12,0.22-3.04-0.1
				c-0.35-0.12-0.86-0.16-1.32-0.09c-1.23,0.16-2.2,0.05-2.91-0.32c-0.26-0.14-0.73-0.22-1.22-0.19c-1.31,0.08-2.2-0.09-2.65-0.51
				c-0.17-0.16-0.59-0.26-1.09-0.27c-1.33-0.01-2.08-0.24-2.27-0.69c-0.07-0.16-0.42-0.29-0.9-0.33c-1.29-0.1-1.89-0.38-1.8-0.83
				c0.04-0.17-0.22-0.32-0.67-0.39c-1.2-0.2-1.61-0.51-1.24-0.94c0.14-0.16-0.02-0.32-0.41-0.43c-1.06-0.27-1.27-0.6-0.64-1.01
				c0.23-0.14,0.18-0.31-0.14-0.44c-0.86-0.34-0.86-0.68,0-1.03c0.32-0.13,0.37-0.3,0.14-0.44c-0.63-0.4-0.42-0.73,0.64-1.01
				c0.39-0.1,0.55-0.27,0.41-0.43c-0.37-0.43,0.04-0.74,1.24-0.94c0.45-0.07,0.71-0.22,0.67-0.39c-0.09-0.44,0.51-0.72,1.8-0.83
				c0.48-0.04,0.83-0.17,0.9-0.33c0.19-0.45,0.94-0.67,2.27-0.69c0.5-0.01,0.92-0.11,1.09-0.26c0.45-0.42,1.34-0.6,2.65-0.52
				c0.49,0.03,0.96-0.04,1.22-0.18c0.71-0.38,1.68-0.49,2.91-0.32c0.46,0.06,0.97,0.03,1.32-0.1c0.92-0.32,1.93-0.35,3.04-0.1
				c0.41,0.09,0.93,0.09,1.34,0c1.1-0.25,2.12-0.22,3.04,0.1c0.35,0.13,0.86,0.16,1.32,0.1c1.23-0.17,2.2-0.06,2.91,0.32
				c0.26,0.14,0.73,0.21,1.22,0.18c1.31-0.08,2.2,0.1,2.65,0.52c0.17,0.15,0.59,0.25,1.09,0.26c1.33,0.02,2.09,0.24,2.27,0.69
				c0.07,0.16,0.47,0.31,0.9,0.33c0.96,0.06,1.52,0.33,1.8,0.83c0.09,0.16,0.21,0.4,0.67,0.39c0.88-0.01,1.61,0.51,1.25,0.94
				c-0.15,0.16,0,0.42,0.4,0.43c0.82,0.04,1.27,0.61,0.64,1.01c-0.23,0.14-0.18,0.31,0.14,0.44c0.86,0.35,0.86,0.69,0,1.03
				C240.81,158.53,240.76,158.7,240.99,158.84z"/>
			
				<path fill="#FFFFFF" stroke="#FFFFFF" stroke-width="2" stroke-linecap="round" stroke-linejoin="round" stroke-miterlimit="10" d="
				M218.45,143.96c0.8-0.31,1.55-1.12,1.48-2.2c-0.09-1.1-1.28-1.43-2.69-0.93c-2.88,1.02-3.58,4.17-3.93,7.28
				c-0.1,0.89-0.17,1.79-0.26,2.63c-0.64,6.45-1.11,10.83-0.72,16.61c0.09,1.2,0.51,2.49-0.39,3.75c-1.65,0.21-1.22-0.8-2.72-0.25
				c-2.35,0.86-1.74,3.88,0.02,3.73c0.54-0.05,0.99-0.2,1.6-0.52c2.94-1.53,3.23-5.3,3.62-9.08c0.72-7.09,1.02-10.65,0.75-17.29
				v-0.08c-0.06-1.22-0.33-3.24,0.51-3.7C216.53,143.46,217.2,144.44,218.45,143.96z"/>
			
				<path fill="#FFFFFF" stroke="#FFFFFF" stroke-width="2" stroke-linecap="round" stroke-linejoin="round" stroke-miterlimit="10" d="
				M228.64,140.84c-2.88,1.01-3.58,4.16-3.93,7.27c-0.1,0.9-0.18,1.79-0.26,2.63c-0.65,6.45-1.11,10.86-0.72,16.65
				c0.09,1.19,0.51,2.49-0.39,3.75c-1.65,0.21-1.23-0.8-2.72-0.25c-2.35,0.86-1.75,3.88,0.01,3.73c0.55-0.04,1-0.2,1.61-0.52
				c2.94-1.53,3.22-5.3,3.62-9.09c0.72-7.07,1.01-10.68,0.75-17.32v-0.08c-0.06-1.21-0.33-3.24,0.5-3.69
				c0.82-0.45,1.48,0.53,2.74,0.04c0.8-0.31,1.55-1.12,1.47-2.2C231.24,140.67,230.04,140.34,228.64,140.84z"/>
		</g>
	</g>
	<g>
		
			<path fill-rule="evenodd" clip-rule="evenodd" fill="#F69839" stroke="#F58E26" stroke-width="2" stroke-linecap="round" stroke-linejoin="round" stroke-miterlimit="10" d="
			M286.92,207.52c6.73,16.34,4.09,32.75-5.88,36.67c-9.97,3.91-23.51-6.17-30.23-22.5c-6.73-16.34-4.1-32.75,5.88-36.66
			C266.66,181.11,280.19,191.19,286.92,207.52z"/>
		
			<path fill-rule="evenodd" clip-rule="evenodd" fill="#FFFFFF" stroke="#F58A1E" stroke-width="2" stroke-linecap="round" stroke-linejoin="round" stroke-miterlimit="10" d="
			M291.96,206.71c6.72,16.33,4.09,32.75-5.88,36.66c-9.97,3.91-23.51-6.16-30.23-22.5c-6.73-16.34-4.1-32.75,5.87-36.66
			C271.7,180.3,285.23,190.37,291.96,206.71z"/>
		<path fill-rule="evenodd" clip-rule="evenodd" fill="#FF9A45" d="M288.86,206.24c5.58,13.53,3.4,27.13-4.87,30.38
			c-8.26,3.24-19.48-5.11-25.05-18.65c-5.57-13.53-3.39-27.13,4.87-30.37C272.08,184.36,283.29,192.7,288.86,206.24z"/>
		
			<path fill-rule="evenodd" clip-rule="evenodd" fill="none" stroke="#FFFFFF" stroke-width="2" stroke-linecap="round" stroke-linejoin="round" stroke-miterlimit="10" d="
			M285.77,209.13c1.34,3.27-2.88,8-9.43,10.57c-6.56,2.57-12.96,2.01-14.3-1.26c-1.35-3.26,2.87-8,9.43-10.57
			C278.02,205.3,284.42,205.87,285.77,209.13z"/>
		
			<path fill="#FFFFFF" stroke="#FFFFFF" stroke-width="2" stroke-linecap="round" stroke-linejoin="round" stroke-miterlimit="10" d="
			M279.51,224.98c-0.3,0.42-0.39,1.25,0.02,2.16c0.42,0.9,1.14,0.95,1.67,0.25c1.09-1.43,0.35-4.22-0.56-6.92
			c-0.26-0.77-0.54-1.54-0.78-2.27c-1.92-5.57-3.21-9.36-5.42-14.17c-0.46-1-1.12-2-1.1-3.24c0.75-0.51,0.88,0.43,1.44-0.33
			c0.88-1.19-0.47-3.62-1.3-3.15c-0.26,0.15-0.43,0.37-0.62,0.75c-0.95,1.88,0.22,5.12,1.34,8.39c2.1,6.12,3.19,9.19,5.64,14.75
			l0.02,0.06c0.46,1.02,1.29,2.67,1.04,3.23C280.64,225.03,279.96,224.33,279.51,224.98z"/>
		
			<path fill="#FFFFFF" stroke="#FFFFFF" stroke-width="2" stroke-linecap="round" stroke-linejoin="round" stroke-miterlimit="10" d="
			M275.49,229.63c1.09-1.43,0.35-4.22-0.56-6.92c-0.27-0.78-0.54-1.54-0.79-2.27c-1.91-5.57-3.22-9.39-5.43-14.21
			c-0.45-0.98-1.11-2-1.1-3.24c0.75-0.5,0.89,0.43,1.45-0.32c0.87-1.19-0.48-3.62-1.31-3.15c-0.25,0.14-0.43,0.37-0.62,0.75
			c-0.94,1.88,0.22,5.11,1.35,8.39c2.1,6.12,3.2,9.22,5.64,14.78l0.03,0.06c0.45,1.01,1.29,2.67,1.03,3.22
			c-0.25,0.54-0.93-0.16-1.38,0.5c-0.3,0.42-0.4,1.25,0.02,2.16C274.24,230.28,274.96,230.32,275.49,229.63z"/>
	</g>
	<g>
		<polygon opacity="0.4" fill-rule="evenodd" clip-rule="evenodd" fill="#5194D6" points="80.79,83.11 221.02,173.84 361.15,85.44 
			219.314,0.418 		"/>
		<polygon opacity="0.6" fill-rule="evenodd" clip-rule="evenodd" fill="#5194D6" points="80.79,83.11 221.02,173.84 220.95,304.49 
			80.76,213.66 		"/>
		<polygon opacity="0.8" fill-rule="evenodd" clip-rule="evenodd" fill="#5194D6" points="361.15,85.44 221.02,173.84 
			220.95,304.49 361.06,214.07 		"/>
	</g>
</g>
</svg>
