<?xml version="1.0" encoding="utf-8"?>
<!-- Generator: Adobe Illustrator 16.0.0, SVG Export Plug-In . SVG Version: 6.00 Build 0)  -->
<!DOCTYPE svg PUBLIC "-//W3C//DTD SVG 1.1//EN" "http://www.w3.org/Graphics/SVG/1.1/DTD/svg11.dtd">
<svg version="1.1" id="层_1" xmlns="http://www.w3.org/2000/svg" xmlns:xlink="http://www.w3.org/1999/xlink" x="0px" y="0px"
	 width="453px" height="364px" viewBox="0 0 453 364" enable-background="new 0 0 453 364" xml:space="preserve">
<g>
	
		<polygon fill-rule="evenodd" clip-rule="evenodd" fill="#FFFFFF" stroke="#153EB7" stroke-width="3" stroke-linecap="round" stroke-linejoin="round" stroke-miterlimit="10" points="
		0,166.34 224.98,314.25 453,167.55 224.98,20.25 	"/>
	<polygon fill-rule="evenodd" clip-rule="evenodd" fill="#B7BDE1" points="26.66,160.7 225.92,288.64 425.03,160.31 226.57,31.82 	
		"/>
	
		<polyline fill-rule="evenodd" clip-rule="evenodd" fill="none" stroke="#D9E0F7" stroke-width="0.5" stroke-linecap="round" stroke-linejoin="round" stroke-miterlimit="10" points="
		27.76,161.08 225.92,288.48 424.37,160.59 	"/>
	<polygon fill-rule="evenodd" clip-rule="evenodd" fill="#9FAFEB" points="26.65,160.67 225.89,288.69 225.91,300.32 26.66,172.45 	
		"/>
	<polygon fill-rule="evenodd" clip-rule="evenodd" fill="#788EE3" points="425.19,159.92 225.93,288.64 225.93,300.36 
		425.07,172.88 	"/>
	
		<line fill-rule="evenodd" clip-rule="evenodd" fill="none" stroke="#D9E0F7" stroke-width="0.25" stroke-linecap="round" stroke-linejoin="round" stroke-miterlimit="10" x1="225.92" y1="288.79" x2="225.92" y2="300.36"/>
</g>
<g>
	<polygon fill-rule="evenodd" clip-rule="evenodd" fill="#7CB6F9" points="200.03,254.23 225.98,271.22 251.95,254.23 
		226.52,237.28 	"/>
	<polygon fill-rule="evenodd" clip-rule="evenodd" fill="#5C7AF6" points="200,254.25 226,271.25 226,281.25 200.02,264.23 	"/>
	<polygon fill-rule="evenodd" clip-rule="evenodd" fill="#3E43C2" points="208.03,254.28 226,266.23 245,254.3 226.63,242.25 	"/>
	<polygon fill-rule="evenodd" clip-rule="evenodd" fill="#312AAA" points="252,254.25 226,271.25 226,281.25 251.98,264.23 	"/>
</g>
<g>
	<path fill-rule="evenodd" clip-rule="evenodd" fill="#DFE0F0" d="M225.99,213.3l-11.83,4.54c0,0-0.71,9.04,0.85,14.62
		c2.24,8.05,10.98,9.79,10.98,9.79V213.3z"/>
	<path fill-rule="evenodd" clip-rule="evenodd" fill="#C6C7E5" d="M226.01,213.25l11.83,4.53c0,0,0.71,9.05-0.85,14.62
		c-2.24,8.05-10.98,9.8-10.98,9.8V213.25z"/>
	<path fill-rule="evenodd" clip-rule="evenodd" fill="#9FAFEB" d="M226,215.25l-9.8,3.5c0,0-0.67,7.55,0.45,12.26
		c1.61,6.76,9.35,8.24,9.35,8.24V215.25z"/>
	<path fill-rule="evenodd" clip-rule="evenodd" fill="#788EE3" d="M226,215.25l9.97,3.86c0,0,0.28,7.66-0.9,12.31
		c-1.72,6.74-9.07,7.83-9.07,7.83V215.25z"/>
	
		<polygon fill-rule="evenodd" clip-rule="evenodd" fill="none" stroke="#FFFFFF" stroke-linecap="round" stroke-linejoin="round" stroke-miterlimit="10" points="
		221,227.29 225.94,231.25 233,224.98 230.76,223.25 225.67,227.76 222.96,225.52 	"/>
</g>
<g>
	<linearGradient id="SVGID_1_" gradientUnits="userSpaceOnUse" x1="227.502" y1="266.23" x2="227.502" y2="203.04">
		<stop  offset="0" style="stop-color:#629EEC"/>
		<stop  offset="1" style="stop-color:#629EEC;stop-opacity:0"/>
	</linearGradient>
	<polygon fill-rule="evenodd" clip-rule="evenodd" fill="url(#SVGID_1_)" points="189.354,203.04 265.65,203.04 245,254.3 
		226,266.23 208.03,254.28 	"/>
</g>
<g>
	<polygon fill-rule="evenodd" clip-rule="evenodd" fill="#7CB6F9" points="40.03,152.23 65.98,169.22 91.95,152.23 66.52,135.28 	
		"/>
	<polygon fill-rule="evenodd" clip-rule="evenodd" fill="#5C7AF6" points="40,152.25 66,169.25 66,179.25 40.02,162.23 	"/>
	<polygon fill-rule="evenodd" clip-rule="evenodd" fill="#3E43C2" points="48.03,152.28 66,164.23 85,152.3 66.63,140.25 	"/>
	<polygon fill-rule="evenodd" clip-rule="evenodd" fill="#312AAA" points="92,152.25 66,169.25 66,179.25 91.98,162.23 	"/>
</g>
<g>
	
		<line fill-rule="evenodd" clip-rule="evenodd" fill="none" stroke="#17B599" stroke-width="2" stroke-linecap="round" stroke-linejoin="round" stroke-miterlimit="10" x1="43.4" y1="120.31" x2="66.11" y2="130.67"/>
	
		<line fill-rule="evenodd" clip-rule="evenodd" fill="none" stroke="#17B599" stroke-width="2" stroke-linecap="round" stroke-linejoin="round" stroke-miterlimit="10" x1="66.11" y1="130.67" x2="88.82" y2="119.76"/>
	
		<line fill-rule="evenodd" clip-rule="evenodd" fill="none" stroke="#17B599" stroke-width="2" stroke-linecap="round" stroke-linejoin="round" stroke-miterlimit="10" x1="43.4" y1="124.67" x2="66.11" y2="135.03"/>
	
		<line fill-rule="evenodd" clip-rule="evenodd" fill="none" stroke="#17B599" stroke-width="2" stroke-linecap="round" stroke-linejoin="round" stroke-miterlimit="10" x1="66.11" y1="135.03" x2="88.82" y2="124.12"/>
	<path fill-rule="evenodd" clip-rule="evenodd" fill="#19C5A6" d="M67.52,102.58L89,113.73c0.85,0.86,0.85,1.5,0,2.36l-21.53,10.53
		c-1.09,0.61-2,0.73-3.08,0l-21.13-10.16c-0.85-0.86-0.91-2.25-0.06-3.11l21.24-10.77C65.52,101.84,66.62,101.87,67.52,102.58z"/>
	<path fill-rule="evenodd" clip-rule="evenodd" fill="#FFFFFF" d="M73.6,109.67l-11.23,5.71H61.3l-2.67-1.96h-0.36v0.89
		c0,0,1.73,5.13,2.5,5.18c0.77,0.04,13.72-8.39,13.72-8.39L73.6,109.67z"/>
</g>
<linearGradient id="SVGID_2_" gradientUnits="userSpaceOnUse" x1="67.498" y1="164.2651" x2="67.498" y2="101.0752">
	<stop  offset="0" style="stop-color:#629EEC"/>
	<stop  offset="1" style="stop-color:#629EEC;stop-opacity:0"/>
</linearGradient>
<polygon fill-rule="evenodd" clip-rule="evenodd" fill="url(#SVGID_2_)" points="29.35,101.075 105.646,101.075 84.996,152.335 
	65.996,164.265 48.025,152.315 "/>
<polygon fill="none" points="184,80.49 242.06,116.21 300.42,97.464 310,85.575 247.44,45.98 "/>
<g>
	<path fill-rule="evenodd" clip-rule="evenodd" fill="#29B8ED" d="M134,148.21l94.42-61.53c0,0,11.98-4.94,29.3-6.52
		c17.32-1.57,28.62,5.54,28.62,5.54l68.01,44.07l-35.18,23.4l-60.99-38.89l-89.9,58.51L134,148.21z"/>
	<path fill-rule="evenodd" clip-rule="evenodd" fill="#29B8ED" d="M354.4,129.79c0,0,6.18,5.17,6,11c-0.18,5.84-5,11-5,11
		l-17.12,9.7c0,0-2.45,1.42-5.05,0.69c-2.02-0.57-14.06-9.01-14.06-9.01L354.4,129.79z"/>
	<path fill-rule="evenodd" clip-rule="evenodd" fill="#29B8ED" d="M134,148.21c0,0-6.18,5.17-6,11c0.18,5.84,5,11.01,5,11.01
		l17.12,9.69c0,0,2.45,1.42,5.05,0.69c2.02-0.57,14.34-8.37,14.34-8.37L134,148.21z"/>
</g>
<g opacity="0.5">
	<g>
		
			<line fill-rule="evenodd" clip-rule="evenodd" fill="none" stroke="#FFFFFF" stroke-linecap="round" stroke-linejoin="round" stroke-miterlimit="10" x1="135.5" y1="148.71" x2="160.32" y2="164.8"/>
		
			<line fill-rule="evenodd" clip-rule="evenodd" fill="none" stroke="#FFFFFF" stroke-linecap="round" stroke-linejoin="round" stroke-miterlimit="10" x1="145.5" y1="141.71" x2="170.32" y2="157.8"/>
		
			<line fill-rule="evenodd" clip-rule="evenodd" fill="none" stroke="#FFFFFF" stroke-linecap="round" stroke-linejoin="round" stroke-miterlimit="10" x1="155.5" y1="134.71" x2="180.32" y2="150.8"/>
		
			<line fill-rule="evenodd" clip-rule="evenodd" fill="none" stroke="#FFFFFF" stroke-linecap="round" stroke-linejoin="round" stroke-miterlimit="10" x1="165.5" y1="128.71" x2="190.32" y2="144.8"/>
		
			<line fill-rule="evenodd" clip-rule="evenodd" fill="none" stroke="#FFFFFF" stroke-linecap="round" stroke-linejoin="round" stroke-miterlimit="10" x1="175.5" y1="121.71" x2="200.32" y2="137.79"/>
		
			<line fill-rule="evenodd" clip-rule="evenodd" fill="none" stroke="#FFFFFF" stroke-linecap="round" stroke-linejoin="round" stroke-miterlimit="10" x1="185.5" y1="114.71" x2="210.32" y2="130.79"/>
		
			<line fill-rule="evenodd" clip-rule="evenodd" fill="none" stroke="#FFFFFF" stroke-linecap="round" stroke-linejoin="round" stroke-miterlimit="10" x1="199.5" y1="107.71" x2="224.32" y2="123.79"/>
		
			<line fill-rule="evenodd" clip-rule="evenodd" fill="none" stroke="#FFFFFF" stroke-linecap="round" stroke-linejoin="round" stroke-miterlimit="10" x1="209.5" y1="100.71" x2="234.32" y2="116.79"/>
		
			<line fill-rule="evenodd" clip-rule="evenodd" fill="none" stroke="#FFFFFF" stroke-linecap="round" stroke-linejoin="round" stroke-miterlimit="10" x1="219.5" y1="93.71" x2="244.32" y2="109.79"/>
		
			<line fill-rule="evenodd" clip-rule="evenodd" fill="none" stroke="#FFFFFF" stroke-linecap="round" stroke-linejoin="round" stroke-miterlimit="10" x1="230.5" y1="86.71" x2="255.32" y2="102.79"/>
		
			<line fill-rule="evenodd" clip-rule="evenodd" fill="none" stroke="#FFFFFF" stroke-linecap="round" stroke-linejoin="round" stroke-miterlimit="10" x1="246.18" y1="82.26" x2="255.8" y2="102.9"/>
		
			<line fill-rule="evenodd" clip-rule="evenodd" fill="none" stroke="#FFFFFF" stroke-linecap="round" stroke-linejoin="round" stroke-miterlimit="10" x1="348.32" y1="127.71" x2="323.5" y2="143.8"/>
		
			<line fill-rule="evenodd" clip-rule="evenodd" fill="none" stroke="#FFFFFF" stroke-linecap="round" stroke-linejoin="round" stroke-miterlimit="10" x1="338.32" y1="120.71" x2="313.5" y2="136.79"/>
		
			<line fill-rule="evenodd" clip-rule="evenodd" fill="none" stroke="#FFFFFF" stroke-linecap="round" stroke-linejoin="round" stroke-miterlimit="10" x1="328.32" y1="113.71" x2="303.5" y2="129.79"/>
		
			<line fill-rule="evenodd" clip-rule="evenodd" fill="none" stroke="#FFFFFF" stroke-linecap="round" stroke-linejoin="round" stroke-miterlimit="10" x1="317.32" y1="107.71" x2="292.5" y2="123.79"/>
		
			<line fill-rule="evenodd" clip-rule="evenodd" fill="none" stroke="#FFFFFF" stroke-linecap="round" stroke-linejoin="round" stroke-miterlimit="10" x1="307.32" y1="100.71" x2="282.5" y2="116.79"/>
		
			<line fill-rule="evenodd" clip-rule="evenodd" fill="none" stroke="#FFFFFF" stroke-linecap="round" stroke-linejoin="round" stroke-miterlimit="10" x1="297.32" y1="93.71" x2="272.5" y2="109.79"/>
		
			<line fill-rule="evenodd" clip-rule="evenodd" fill="none" stroke="#FFFFFF" stroke-linecap="round" stroke-linejoin="round" stroke-miterlimit="10" x1="286.32" y1="86.71" x2="261.5" y2="102.79"/>
		
			<line fill-rule="evenodd" clip-rule="evenodd" fill="none" stroke="#FFFFFF" stroke-linecap="round" stroke-linejoin="round" stroke-miterlimit="10" x1="267.54" y1="80.69" x2="259.15" y2="99.58"/>
	</g>
	<path fill-rule="evenodd" clip-rule="evenodd" fill="#363E8A" d="M156.45,169.19l90.28-57.82c2.13-1.36,4.73-1.19,5.81,0.39
		c1.07,1.58,0.22,3.97-1.91,5.34l-90.15,57.86c-2.2,1.41-4.89,1.27-6-0.33C153.37,173.04,154.25,170.6,156.45,169.19z"/>
	<path fill-rule="evenodd" clip-rule="evenodd" fill="#363E8A" d="M329.2,149.46l-66.93-43.09c-2.13-1.36-4.73-1.19-5.81,0.39
		c-1.07,1.58-0.22,3.97,1.91,5.34l66.8,43.13c2.2,1.41,4.87,1.22,5.99-0.38h-0.03C332.24,153.26,331.4,150.87,329.2,149.46z"/>
	
		<path fill-rule="evenodd" clip-rule="evenodd" fill="none" stroke="#FFFFFF" stroke-linecap="round" stroke-linejoin="round" stroke-miterlimit="10" d="
		M158,171.72c0-0.83,0.67-1.5,1.5-1.5s1.5,0.67,1.5,1.5c0,0.82-0.67,1.5-1.5,1.5S158,172.54,158,171.72z"/>
	
		<path fill-rule="evenodd" clip-rule="evenodd" fill="none" stroke="#FFFFFF" stroke-linecap="round" stroke-linejoin="round" stroke-miterlimit="10" d="
		M186,153.71c0-0.82,0.67-1.5,1.5-1.5s1.5,0.68,1.5,1.5c0,0.83-0.67,1.5-1.5,1.5S186,154.54,186,153.71z"/>
	
		<circle fill-rule="evenodd" clip-rule="evenodd" fill="none" stroke="#FFFFFF" stroke-linecap="round" stroke-linejoin="round" stroke-miterlimit="10" cx="210.5" cy="138.71" r="1.5"/>
	
		<circle fill-rule="evenodd" clip-rule="evenodd" fill="none" stroke="#FFFFFF" stroke-linecap="round" stroke-linejoin="round" stroke-miterlimit="10" cx="233.5" cy="123.71" r="1.5"/>
	
		<circle fill-rule="evenodd" clip-rule="evenodd" fill="none" stroke="#FFFFFF" stroke-linecap="round" stroke-linejoin="round" stroke-miterlimit="10" cx="264.5" cy="111.71" r="1.5"/>
	
		<circle fill-rule="evenodd" clip-rule="evenodd" fill="none" stroke="#FFFFFF" stroke-linecap="round" stroke-linejoin="round" stroke-miterlimit="10" cx="284.5" cy="124.71" r="1.5"/>
	
		<path fill-rule="evenodd" clip-rule="evenodd" fill="none" stroke="#FFFFFF" stroke-linecap="round" stroke-linejoin="round" stroke-miterlimit="10" d="
		M325,151.71c0-0.82,0.67-1.5,1.5-1.5s1.5,0.68,1.5,1.5c0,0.83-0.67,1.5-1.5,1.5S325,152.54,325,151.71z"/>
	
		<circle fill-rule="evenodd" clip-rule="evenodd" fill="none" stroke="#FFFFFF" stroke-linecap="round" stroke-linejoin="round" stroke-miterlimit="10" cx="305.5" cy="137.71" r="1.5"/>
</g>
<g>
	<polygon fill-rule="evenodd" clip-rule="evenodd" fill="#F77279" points="193,127.17 182.2,134.4 166,124.08 177.22,116.21 	"/>
	<polygon fill-rule="evenodd" clip-rule="evenodd" fill="#C44B51" points="166.01,124.06 182.2,134.4 182.26,147.12 166.02,136.69 	
		"/>
	<polygon fill-rule="evenodd" clip-rule="evenodd" fill="#B54147" points="193,127.17 182.2,134.4 182.26,147.12 192.98,139.38 	"/>
	<polygon fill-rule="evenodd" clip-rule="evenodd" fill="#C44B51" points="193,127.12 182.2,134.4 166,124.08 182.2,134.4 	"/>
	
		<line fill-rule="evenodd" clip-rule="evenodd" fill="none" stroke="#E4E8F6" stroke-width="0.25" stroke-linecap="round" stroke-linejoin="round" stroke-miterlimit="10" x1="182.2" y1="134.4" x2="182.259" y2="147.016"/>
	<polygon fill-rule="evenodd" clip-rule="evenodd" fill="#FFD24D" points="190,129.178 185.796,131.976 185.796,142.25 
		187.88,137.76 190,139.3 	"/>
	
		<polygon fill-rule="evenodd" clip-rule="evenodd" fill="none" stroke="#DAEAF3" stroke-width="0.25" stroke-linecap="round" stroke-linejoin="round" stroke-miterlimit="10" points="
		166,124.08 182.2,134.4 193,127.17 182.2,134.4 	"/>
</g>
<g>
	<polygon fill-rule="evenodd" clip-rule="evenodd" fill="#2E7D92" points="178,42.2 178,78.21 212,101.21 212,59.2 252,81.21 
		252,124.21 256.94,124.17 256.91,66.33 208,36.2 208,60.2 	"/>
	<polygon fill-rule="evenodd" clip-rule="evenodd" fill="#29C4EB" points="175,40.08 203.8,58.2 238,40.69 206.35,23.2 	"/>
	<polygon fill-rule="evenodd" clip-rule="evenodd" points="257,77.21 257,123.21 251.04,122.9 251,64.2 307,36.2 307,95.21 
		301,98.21 301,55.2 	"/>
	<polygon fill-rule="evenodd" clip-rule="evenodd" fill="#43A8C3" points="175,40.2 175,76.21 209,99.21 209,57.2 249,79.21 
		249,122.21 254,125.21 254,64.2 206,34.2 205,58.2 	"/>
	<polygon fill-rule="evenodd" clip-rule="evenodd" fill="#2E409D" points="260,77.21 260,123.21 254,125.21 254,64.2 310,36.2 
		310,95.21 304,98.21 304,55.2 	"/>
	<polygon fill-rule="evenodd" clip-rule="evenodd" fill="#0FD2E6" points="206,34.2 254,64.2 310,36.2 258.26,6.25 	"/>
</g>
<g>
	<g>
		<polygon fill-rule="evenodd" clip-rule="evenodd" fill="#BDD9E9" points="143.764,78.805 154.404,85.905 170.364,75.845 
			159.304,68.175 		"/>
		<polygon fill-rule="evenodd" clip-rule="evenodd" fill="#2485AC" points="170.354,75.825 154.364,85.765 154.364,97.695 
			170.314,87.817 		"/>
		<polygon fill-rule="evenodd" clip-rule="evenodd" fill="#43A8C3" points="143.744,78.775 154.364,85.765 154.364,97.695 
			143.764,90.405 		"/>
		
			<polygon fill-rule="evenodd" clip-rule="evenodd" fill="none" stroke="#DAEAF3" stroke-width="0.5" stroke-linecap="round" stroke-linejoin="round" stroke-miterlimit="10" points="
			143.86,78.865 154.404,85.905 170.364,75.845 154.404,85.905 		"/>
		
			<line fill-rule="evenodd" clip-rule="evenodd" fill="none" stroke="#E4E8F6" stroke-width="0.5" stroke-linecap="square" stroke-linejoin="round" stroke-miterlimit="10" x1="154.394" y1="85.992" x2="154.394" y2="97.148"/>
		<polygon fill-rule="evenodd" clip-rule="evenodd" fill="#FFD24D" points="146.458,80.76 150.379,83.354 150.397,92.76 
			148.578,88.61 146.458,90.04 		"/>
	</g>
	<g>
		<polygon fill-rule="evenodd" clip-rule="evenodd" fill="#BDD9E9" points="156.107,87.44 166.748,94.54 182.708,84.48 
			171.647,76.81 		"/>
		<polygon fill-rule="evenodd" clip-rule="evenodd" fill="#2485AC" points="182.698,84.46 166.708,94.4 166.708,106.33 
			182.658,96.452 		"/>
		<polygon fill-rule="evenodd" clip-rule="evenodd" fill="#43A8C3" points="156.087,87.41 166.708,94.4 166.708,106.33 
			156.107,99.04 		"/>
		
			<polygon fill-rule="evenodd" clip-rule="evenodd" fill="none" stroke="#DAEAF3" stroke-width="0.5" stroke-linecap="round" stroke-linejoin="round" stroke-miterlimit="10" points="
			156.204,87.5 166.748,94.54 182.708,84.48 166.748,94.54 		"/>
		
			<line fill-rule="evenodd" clip-rule="evenodd" fill="none" stroke="#E4E8F6" stroke-width="0.5" stroke-linecap="square" stroke-linejoin="round" stroke-miterlimit="10" x1="166.737" y1="94.627" x2="166.737" y2="105.783"/>
		<polygon fill-rule="evenodd" clip-rule="evenodd" fill="#FFD24D" points="158.801,89.395 162.723,91.989 162.741,101.395 
			160.921,97.245 158.801,98.675 		"/>
	</g>
	<g>
		<polygon fill-rule="evenodd" clip-rule="evenodd" fill="#BDD9E9" points="125.11,91.238 135.75,98.338 151.71,88.278 
			140.65,80.608 		"/>
		<polygon fill-rule="evenodd" clip-rule="evenodd" fill="#2485AC" points="151.7,88.258 135.71,98.198 135.71,110.128 
			151.66,100.25 		"/>
		<polygon fill-rule="evenodd" clip-rule="evenodd" fill="#43A8C3" points="125.09,91.208 135.71,98.198 135.71,110.128 
			125.11,102.838 		"/>
		
			<polygon fill-rule="evenodd" clip-rule="evenodd" fill="none" stroke="#DAEAF3" stroke-width="0.5" stroke-linecap="round" stroke-linejoin="round" stroke-miterlimit="10" points="
			125.207,91.298 135.75,98.338 151.71,88.278 135.75,98.338 		"/>
		
			<line fill-rule="evenodd" clip-rule="evenodd" fill="none" stroke="#E4E8F6" stroke-width="0.5" stroke-linecap="square" stroke-linejoin="round" stroke-miterlimit="10" x1="135.74" y1="98.425" x2="135.74" y2="109.582"/>
		<polygon fill-rule="evenodd" clip-rule="evenodd" fill="#FFD24D" points="127.804,93.193 131.726,95.787 131.744,105.193 
			129.924,101.043 127.804,102.473 		"/>
	</g>
	<g>
		<polygon fill-rule="evenodd" clip-rule="evenodd" fill="#BDD9E9" points="137.454,99.873 148.094,106.973 164.054,96.913 
			152.994,89.243 		"/>
		<polygon fill-rule="evenodd" clip-rule="evenodd" fill="#2485AC" points="164.044,96.893 148.054,106.833 148.054,118.763 
			164.004,108.885 		"/>
		<polygon fill-rule="evenodd" clip-rule="evenodd" fill="#43A8C3" points="137.434,99.843 148.054,106.833 148.054,118.763 
			137.454,111.473 		"/>
		
			<polygon fill-rule="evenodd" clip-rule="evenodd" fill="none" stroke="#DAEAF3" stroke-width="0.5" stroke-linecap="round" stroke-linejoin="round" stroke-miterlimit="10" points="
			137.55,99.933 148.094,106.973 164.054,96.913 148.094,106.973 		"/>
		
			<line fill-rule="evenodd" clip-rule="evenodd" fill="none" stroke="#E4E8F6" stroke-width="0.5" stroke-linecap="square" stroke-linejoin="round" stroke-miterlimit="10" x1="148.083" y1="107.06" x2="148.083" y2="118.216"/>
		<polygon fill-rule="evenodd" clip-rule="evenodd" fill="#FFD24D" points="140.147,101.828 144.069,104.422 144.087,113.828 
			142.268,109.678 140.147,111.108 		"/>
	</g>
</g>
<g>
	<polygon fill-rule="evenodd" clip-rule="evenodd" fill="#E9CAA5" points="295,188.49 312.2,199.99 338,183.68 320.13,171.25 	"/>
	<polygon fill-rule="evenodd" clip-rule="evenodd" fill="#CFB285" points="295,188.57 312.2,199.99 312.26,220.25 295.04,207.86 	
		"/>
	<polygon fill-rule="evenodd" clip-rule="evenodd" fill="#B7966B" points="337.99,183.65 312.2,199.99 312.26,220.25 337.97,203.61 
			"/>
	
		<line fill-rule="evenodd" clip-rule="evenodd" fill="none" stroke="#FFFFFF" stroke-width="0.25" stroke-linecap="round" stroke-linejoin="round" stroke-miterlimit="10" x1="312.2" y1="200.141" x2="312.26" y2="220.25"/>
	
		<polygon fill-rule="evenodd" clip-rule="evenodd" fill="none" stroke="#FFFFFF" stroke-width="0.25" stroke-linecap="round" stroke-linejoin="round" stroke-miterlimit="10" points="
		295,188.57 312.2,199.99 338,183.68 312.2,199.99 	"/>
	<polygon opacity="0.2" fill-rule="evenodd" clip-rule="evenodd" fill="#FFFFFF" points="300,192.25 325.91,175.31 332.584,179.913 
		307,196.87 306.89,212.25 303.71,205.34 300,207.71 	"/>
</g>
<g>
	<path fill-rule="evenodd" clip-rule="evenodd" fill="#4E9DF4" d="M325,322.53c0-22.48,27.53-40.71,61.5-40.71
		s61.5,18.23,61.5,40.71c0,22.49-27.53,40.72-61.5,40.72S325,345.02,325,322.53z"/>
	<path fill-rule="evenodd" clip-rule="evenodd" fill="#A3C9F5" d="M325,317.97c0-22.49,27.53-40.72,61.5-40.72
		s61.5,18.23,61.5,40.72c0,22.48-27.53,40.71-61.5,40.71S325,340.45,325,317.97z"/>
	<path fill-rule="evenodd" clip-rule="evenodd" fill="#FFFFFF" d="M338.58,314.54c0-17.65,21.62-31.96,48.3-31.96
		c26.67,0,48.29,14.31,48.29,31.96c0,17.66-21.62,31.97-48.29,31.97C360.2,346.51,338.58,332.2,338.58,314.54z"/>
</g>
<g>
	<g>
		<polygon fill-rule="evenodd" clip-rule="evenodd" fill="#E5BF93" points="363.2,273.66 390.65,286.53 414.87,275.68 
			386.51,263.25 		"/>
		<polygon fill-rule="evenodd" clip-rule="evenodd" fill="#C7A570" points="363,273.75 390.46,286.19 390.46,320.97 363,308.12 		
			"/>
		<polygon fill-rule="evenodd" clip-rule="evenodd" fill="#AD8756" points="415,275.56 390.46,286.6 390.46,321.11 415,310.07 		"/>
		<polygon fill-rule="evenodd" clip-rule="evenodd" fill="#F2D3BA" points="396.29,267.537 401.505,269.822 378.916,281.028 
			378.89,290.28 377.16,286.98 375.78,288.86 374.27,285.45 373,287.41 373,278.35 		"/>
		
			<line fill-rule="evenodd" clip-rule="evenodd" fill="none" stroke="#FAEEE4" stroke-width="0.5" stroke-linecap="square" stroke-linejoin="round" stroke-miterlimit="10" x1="363.33" y1="273.87" x2="390.59" y2="286.22"/>
		
			<line fill-rule="evenodd" clip-rule="evenodd" fill="none" stroke="#FAEEE4" stroke-width="0.5" stroke-linecap="square" stroke-linejoin="round" stroke-miterlimit="10" x1="414.87" y1="275.42" x2="390.61" y2="286.23"/>
		
			<line fill-rule="evenodd" clip-rule="evenodd" fill="none" stroke="#D9C1A4" stroke-width="0.5" stroke-linecap="round" stroke-linejoin="round" stroke-miterlimit="10" x1="390.46" y1="286.455" x2="390.46" y2="321.064"/>
	</g>
	<g>
		
			<polyline fill-rule="evenodd" clip-rule="evenodd" fill="none" stroke="#F2D3BA" stroke-width="0.25" stroke-linecap="square" stroke-linejoin="round" stroke-miterlimit="10" points="
			396.29,283.93 396.29,288.06 397.96,289.71 397.96,297.15 399.63,298.39 		"/>
		
			<polyline fill-rule="evenodd" clip-rule="evenodd" fill="none" stroke="#F2D3BA" stroke-width="0.25" stroke-linecap="square" stroke-linejoin="round" stroke-miterlimit="10" points="
			403.79,280.62 403.79,290.95 405.46,292.6 405.46,297.6 408.64,300.27 408.63,307.35 		"/>
		
			<polyline fill-rule="evenodd" clip-rule="evenodd" fill="none" stroke="#F2D3BA" stroke-width="0.25" stroke-linecap="square" stroke-linejoin="round" stroke-miterlimit="10" points="
			402.13,281.45 402.13,291.37 404.21,293.43 404.21,301.69 		"/>
		
			<polyline fill-rule="evenodd" clip-rule="evenodd" fill="none" stroke="#F2D3BA" stroke-width="0.25" stroke-linecap="square" stroke-linejoin="round" stroke-miterlimit="10" points="
			409.21,278.15 409.21,295.08 410.87,297.15 410.87,302.11 		"/>
		
			<polyline fill-rule="evenodd" clip-rule="evenodd" fill="none" stroke="#F2D3BA" stroke-width="0.25" stroke-linecap="square" stroke-linejoin="round" stroke-miterlimit="10" points="
			410.46,277.73 410.46,294.26 412.12,296.32 412.12,301.28 		"/>
		
			<polyline fill-rule="evenodd" clip-rule="evenodd" fill="none" stroke="#F2D3BA" stroke-width="0.25" stroke-linecap="square" stroke-linejoin="round" stroke-miterlimit="10" points="
			400.46,282.28 400.46,292.19 402.54,294.26 402.54,302.11 		"/>
		
			<polyline fill-rule="evenodd" clip-rule="evenodd" fill="none" stroke="#F2D3BA" stroke-width="0.25" stroke-linecap="square" stroke-linejoin="round" stroke-miterlimit="10" points="
			398.79,282.69 398.79,292.6 400.88,294.67 400.88,301.28 		"/>
		
			<line fill-rule="evenodd" clip-rule="evenodd" fill="none" stroke="#F2D3BA" stroke-width="0.25" stroke-linecap="square" stroke-linejoin="round" stroke-miterlimit="10" x1="406.92" y1="299.01" x2="406.92" y2="308.51"/>
		
			<line fill-rule="evenodd" clip-rule="evenodd" fill="none" stroke="#F2D3BA" stroke-width="0.25" stroke-linecap="square" stroke-linejoin="round" stroke-miterlimit="10" x1="405.25" y1="280.42" x2="405.25" y2="287.44"/>
		
			<line fill-rule="evenodd" clip-rule="evenodd" fill="none" stroke="#F2D3BA" stroke-width="0.25" stroke-linecap="square" stroke-linejoin="round" stroke-miterlimit="10" x1="411.91" y1="277.11" x2="411.91" y2="293.22"/>
		
			<line fill-rule="evenodd" clip-rule="evenodd" fill="none" stroke="#F2D3BA" stroke-width="0.25" stroke-linecap="square" stroke-linejoin="round" stroke-miterlimit="10" x1="406.5" y1="279.59" x2="406.5" y2="285.79"/>
		
			<line fill-rule="evenodd" clip-rule="evenodd" fill="none" stroke="#F2D3BA" stroke-width="0.25" stroke-linecap="square" stroke-linejoin="round" stroke-miterlimit="10" x1="407.75" y1="279.18" x2="407.75" y2="283.72"/>
		
			<line fill-rule="evenodd" clip-rule="evenodd" fill="none" stroke="#F2D3BA" stroke-width="0.25" stroke-linecap="square" stroke-linejoin="round" stroke-miterlimit="10" x1="390.99" y1="319.36" x2="397.09" y2="316.38"/>
		
			<line fill-rule="evenodd" clip-rule="evenodd" fill="none" stroke="#F2D3BA" stroke-width="0.25" stroke-linecap="square" stroke-linejoin="round" stroke-miterlimit="10" x1="391.01" y1="317.3" x2="398.25" y2="313.51"/>
		
			<polyline fill-rule="evenodd" clip-rule="evenodd" fill="none" stroke="#F2D3BA" stroke-width="0.25" stroke-linecap="square" stroke-linejoin="round" stroke-miterlimit="10" points="
			390.96,315.08 394.63,313.26 396.36,310.28 402.13,307.48 		"/>
		
			<polyline fill-rule="evenodd" clip-rule="evenodd" fill="none" stroke="#F2D3BA" stroke-width="0.25" stroke-linecap="square" stroke-linejoin="round" stroke-miterlimit="10" points="
			390.96,312.29 393.8,310.93 395.17,308.28 398.79,306.24 		"/>
		
			<polyline fill-rule="evenodd" clip-rule="evenodd" fill="none" stroke="#F2D3BA" stroke-width="0.25" stroke-linecap="square" stroke-linejoin="round" stroke-miterlimit="10" points="
			390.88,309.96 392.38,309.31 393.3,307.27 396.71,305.41 		"/>
		
			<line fill-rule="evenodd" clip-rule="evenodd" fill="none" stroke="#F2D3BA" stroke-width="0.25" stroke-linecap="square" stroke-linejoin="round" stroke-miterlimit="10" x1="392.195" y1="293.43" x2="391.01" y2="293.985"/>
		
			<line fill-rule="evenodd" clip-rule="evenodd" fill="none" stroke="#F2D3BA" stroke-width="0.25" stroke-linecap="square" stroke-linejoin="round" stroke-miterlimit="10" x1="394.275" y1="294.25" x2="390.96" y2="295.749"/>
		
			<line fill-rule="evenodd" clip-rule="evenodd" fill="none" stroke="#F2D3BA" stroke-width="0.25" stroke-linecap="square" stroke-linejoin="round" stroke-miterlimit="10" x1="394.275" y1="296.32" x2="391.01" y2="297.98"/>
		
			<line fill-rule="evenodd" clip-rule="evenodd" fill="none" stroke="#F2D3BA" stroke-width="0.25" stroke-linecap="square" stroke-linejoin="round" stroke-miterlimit="10" x1="394.275" y1="299.21" x2="391.01" y2="300.45"/>
	</g>
	<g>
		<path fill-rule="evenodd" clip-rule="evenodd" fill="#F2D3BA" d="M392.13,293.22c0-0.34,0.28-0.62,0.62-0.62
			c0.35,0,0.63,0.28,0.63,0.62c0,0.35-0.28,0.62-0.63,0.62C392.41,293.84,392.13,293.57,392.13,293.22z"/>
		<path fill-rule="evenodd" clip-rule="evenodd" fill="#F2D3BA" d="M394.21,294.05c0-0.34,0.28-0.62,0.63-0.62
			c0.34,0,0.62,0.28,0.62,0.62c0,0.34-0.28,0.62-0.62,0.62C394.49,294.67,394.21,294.39,394.21,294.05z"/>
		<path fill-rule="evenodd" clip-rule="evenodd" fill="#F2D3BA" d="M394.21,296.12c0-0.35,0.28-0.62,0.63-0.62
			c0.34,0,0.62,0.27,0.62,0.62c0,0.34-0.28,0.62-0.62,0.62C394.49,296.74,394.21,296.46,394.21,296.12z"/>
		<path fill-rule="evenodd" clip-rule="evenodd" fill="#F2D3BA" d="M394.21,299.01c0-0.34,0.28-0.62,0.63-0.62
			c0.34,0,0.62,0.28,0.62,0.62c0,0.34-0.28,0.62-0.62,0.62C394.49,299.63,394.21,299.35,394.21,299.01z"/>
		<path fill-rule="evenodd" clip-rule="evenodd" fill="#F2D3BA" d="M396.71,305.21c0-0.35,0.28-0.62,0.62-0.62
			c0.35,0,0.63,0.27,0.63,0.62c0,0.34-0.28,0.62-0.63,0.62C396.99,305.83,396.71,305.55,396.71,305.21z"/>
		<path fill-rule="evenodd" clip-rule="evenodd" fill="#F2D3BA" d="M398.79,306.03c0-0.34,0.28-0.62,0.63-0.62
			c0.34,0,0.62,0.28,0.62,0.62c0,0.34-0.28,0.62-0.62,0.62C399.07,306.65,398.79,306.37,398.79,306.03z"/>
		<path fill-rule="evenodd" clip-rule="evenodd" fill="#F2D3BA" d="M402.13,307.27c0-0.34,0.27-0.62,0.62-0.62s0.62,0.28,0.62,0.62
			s-0.27,0.62-0.62,0.62S402.13,307.61,402.13,307.27z"/>
		<path fill-rule="evenodd" clip-rule="evenodd" fill="#F2D3BA" d="M397.96,313.05c0-0.34,0.28-0.61,0.62-0.61
			c0.35,0,0.63,0.27,0.63,0.61c0,0.35-0.28,0.62-0.63,0.62C398.24,313.67,397.96,313.4,397.96,313.05z"/>
		<path fill-rule="evenodd" clip-rule="evenodd" fill="#F2D3BA" d="M396.71,315.95c0-0.35,0.28-0.62,0.62-0.62
			c0.35,0,0.63,0.27,0.63,0.62c0,0.34-0.28,0.62-0.63,0.62C396.99,316.57,396.71,316.29,396.71,315.95z"/>
		<path fill-rule="evenodd" clip-rule="evenodd" fill="#F2D3BA" d="M399.21,298.6c0-0.35,0.28-0.62,0.62-0.62
			c0.35,0,0.63,0.27,0.63,0.62c0,0.34-0.28,0.62-0.63,0.62C399.49,299.22,399.21,298.94,399.21,298.6z"/>
		<path fill-rule="evenodd" clip-rule="evenodd" fill="#F2D3BA" d="M400.255,301.07c0-0.34,0.28-0.62,0.62-0.62
			c0.35,0,0.63,0.28,0.63,0.62c0,0.35-0.28,0.62-0.63,0.62C400.535,301.69,400.255,301.42,400.255,301.07z"/>
		<path fill-rule="evenodd" clip-rule="evenodd" fill="#F2D3BA" d="M401.92,301.9c0-0.34,0.27-0.62,0.62-0.62s0.62,0.28,0.62,0.62
			c0,0.34-0.27,0.62-0.62,0.62S401.92,302.24,401.92,301.9z"/>
		<path fill-rule="evenodd" clip-rule="evenodd" fill="#F2D3BA" d="M403.585,302.31c0-0.35,0.28-0.62,0.63-0.62
			c0.34,0,0.62,0.27,0.62,0.62c0,0.34-0.28,0.62-0.62,0.62C403.865,302.93,403.585,302.65,403.585,302.31z"/>
		<path fill-rule="evenodd" clip-rule="evenodd" fill="#F2D3BA" d="M408.015,307.27c0-0.34,0.28-0.62,0.62-0.62
			c0.35,0,0.63,0.28,0.63,0.62s-0.28,0.62-0.63,0.62C408.295,307.89,408.015,307.61,408.015,307.27z"/>
		<path fill-rule="evenodd" clip-rule="evenodd" fill="#F2D3BA" d="M406.29,308.92c0-0.34,0.28-0.62,0.63-0.62
			c0.34,0,0.62,0.28,0.62,0.62c0,0.35-0.28,0.62-0.62,0.62C406.57,309.54,406.29,309.27,406.29,308.92z"/>
		<path fill-rule="evenodd" clip-rule="evenodd" fill="#F2D3BA" d="M410.245,302.31c0-0.34,0.28-0.62,0.62-0.62
			c0.35,0,0.63,0.28,0.63,0.62c0,0.35-0.28,0.62-0.63,0.62C410.525,302.93,410.245,302.66,410.245,302.31z"/>
		<path fill-rule="evenodd" clip-rule="evenodd" fill="#F2D3BA" d="M411.495,301.07c0-0.34,0.28-0.62,0.62-0.62
			c0.35,0,0.63,0.28,0.63,0.62c0,0.35-0.28,0.62-0.63,0.62C411.775,301.69,411.495,301.42,411.495,301.07z"/>
		<path fill-rule="evenodd" clip-rule="evenodd" fill="#F2D3BA" d="M411.29,293.22c0-0.34,0.28-0.62,0.62-0.62
			c0.35,0,0.63,0.28,0.63,0.62c0,0.35-0.28,0.62-0.63,0.62C411.57,293.84,411.29,293.57,411.29,293.22z"/>
		<path fill-rule="evenodd" clip-rule="evenodd" fill="#F2D3BA" d="M407.12,283.72c0-0.34,0.28-0.62,0.63-0.62
			c0.34,0,0.62,0.28,0.62,0.62c0,0.35-0.28,0.62-0.62,0.62C407.4,284.34,407.12,284.07,407.12,283.72z"/>
		<path fill-rule="evenodd" clip-rule="evenodd" fill="#F2D3BA" d="M405.87,286.2c0-0.34,0.28-0.62,0.63-0.62
			c0.34,0,0.62,0.28,0.62,0.62c0,0.34-0.28,0.62-0.62,0.62C406.15,286.82,405.87,286.54,405.87,286.2z"/>
		<path fill-rule="evenodd" clip-rule="evenodd" fill="#F2D3BA" d="M404.62,287.85c0-0.34,0.28-0.62,0.63-0.62
			c0.34,0,0.62,0.28,0.62,0.62c0,0.35-0.28,0.62-0.62,0.62C404.9,288.47,404.62,288.2,404.62,287.85z"/>
	</g>
</g>
<g>
	<path fill-rule="evenodd" clip-rule="evenodd" fill="#2E409D" d="M424,258.25l0.1,34.51c0,0,6.59,3.66,10.08,8.56
		c5.32,7.44,4.81,18.93,4.81,18.93s0.02-38.6-0.09-41.46c0.06-0.51-1.01-5.09-1.02-5.25C436.97,262.61,424,258.25,424,258.25z"/>
	<linearGradient id="SVGID_3_" gradientUnits="userSpaceOnUse" x1="336" y1="281.75" x2="439" y2="281.75">
		<stop  offset="0" style="stop-color:#5DE7FE"/>
		<stop  offset="1" style="stop-color:#46A8ED"/>
	</linearGradient>
	<path fill-rule="evenodd" clip-rule="evenodd" fill="url(#SVGID_3_)" d="M336,291.24c0,0,16.43,16.5,48.43,14.9
		c30.39-1.52,54.57-14.35,54.57-28.93c0-12.29-13.18-19.96-13.18-19.96s-2.26,0.66-1.82,1c2.75,2.13,13.484,7.938,13.549,18.485
		c0.067,11-21.349,26.075-53.369,27.565c-30.13,1.4-48.13-15.44-48.13-15.44L336,291.24z"/>
	<path opacity="0.8" fill-rule="evenodd" clip-rule="evenodd" fill="#363E8A" d="M336,291.3c0,0,16.44,16.53,48.44,14.93
		c30.4-1.53,54.59-14.38,54.59-28.98c0-2.15-0.06-0.75-0.06-0.75v42.31c0,0,0.03,0.46,0.03,0.61c-0.9,17.77-24.52,31.19-52.89,31.82
		c-29.03,0.63-50.11-20.9-50.11-20.9V291.3z"/>
	<g>
		<g>
			<path fill="none" stroke="#FFFFFF" stroke-width="0.25" stroke-linecap="round" stroke-linejoin="round" d="M439.003,303.35
				c0,0,0.062,0.203,0.081,0.49"/>
			
				<path fill="none" stroke="#FFFFFF" stroke-width="0.25" stroke-linecap="round" stroke-linejoin="round" stroke-dasharray="1.0019,1.0019" d="
				M438.916,304.814c-0.328,0.667-1.223,1.214-3.486,0.746c-4.54-0.93-12.45,7.48-14.17,8.35c-1.77,0.88-4.56,2.05-5.91,3.94
				s-5.16,10.35-8.67,12.21c-6.95,3.69-10.02,3.78-17.24,3.21c-12.6-1-12.31-16.15-19.49-17.52
				c-8.248-1.561-19.238,4.056-22.378,5.793"/>
			<path fill="none" stroke="#FFFFFF" stroke-width="0.25" stroke-linecap="round" stroke-linejoin="round" d="M347.129,321.791
				c-0.279,0.159-0.429,0.249-0.429,0.249"/>
		</g>
	</g>
	<path fill-rule="evenodd" clip-rule="evenodd" fill="#7F00FF" d="M404,323.38c0-1.73,1.34-3.13,3-3.13s3,1.4,3,3.13
		c0,1.72-3,6.87-3,6.87S404,325.1,404,323.38z"/>
	<path fill-rule="evenodd" clip-rule="evenodd" fill="#FFFFFF" d="M406.25,323.58c0-0.46,0.34-0.83,0.75-0.83s0.75,0.37,0.75,0.83
		s-0.34,0.84-0.75,0.84S406.25,324.04,406.25,323.58z"/>
	<path fill-rule="evenodd" clip-rule="evenodd" fill="#FFFFFF" d="M364.56,315.6c0-0.5,0.68-0.9,1.51-0.9c0.83,0,1.5,0.4,1.5,0.9
		c0,0.49-0.67,0.89-1.5,0.89C365.24,316.49,364.56,316.09,364.56,315.6z"/>
	<path fill-rule="evenodd" clip-rule="evenodd" fill="none" stroke="#FFFFFF" stroke-width="0.25" stroke-miterlimit="10" d="
		M363.66,315.6c0-0.78,1.08-1.41,2.41-1.41c1.33,0,2.4,0.63,2.4,1.41c0,0.77-1.07,1.4-2.4,1.4
		C364.74,317,363.66,316.37,363.66,315.6z"/>
	<path fill-rule="evenodd" clip-rule="evenodd" fill="#FFFFFF" d="M392.63,333.524c0-0.63,0.67-1.15,1.5-1.15s1.51,0.52,1.51,1.15
		c0,0.64-0.68,1.15-1.51,1.15S392.63,334.165,392.63,333.524z"/>
	
		<path fill-rule="evenodd" clip-rule="evenodd" fill="none" stroke="#FFFFFF" stroke-width="0.25" stroke-linecap="round" stroke-linejoin="round" stroke-miterlimit="10" d="
		M391.73,333.524c0-0.99,1.07-1.8,2.4-1.8s2.41,0.81,2.41,1.8c0,1-1.08,1.81-2.41,1.81S391.73,334.524,391.73,333.524z"/>
	<path fill-rule="evenodd" clip-rule="evenodd" fill="#FFFFFF" d="M415.58,316.8c0-0.35,0.45-0.64,1-0.64
		c0.56,0,1.01,0.29,1.01,0.64c0,0.35-0.45,0.64-1.01,0.64C416.03,317.44,415.58,317.15,415.58,316.8z"/>
	
		<path fill-rule="evenodd" clip-rule="evenodd" fill="none" stroke="#FFFFFF" stroke-width="0.25" stroke-linecap="round" stroke-linejoin="round" stroke-miterlimit="10" d="
		M414.98,316.8c0-0.55,0.72-1,1.6-1c0.89,0,1.61,0.45,1.61,1c0,0.55-0.72,1-1.61,1C415.7,317.8,414.98,317.35,414.98,316.8z"/>
	<path fill-rule="evenodd" clip-rule="evenodd" fill="#FFFFFF" d="M432.82,305.56c0-0.36,0.45-0.64,1-0.64c0.56,0,1,0.28,1,0.64
		c0,0.35-0.44,0.64-1,0.64C433.27,306.2,432.82,305.91,432.82,305.56z"/>
	
		<path fill-rule="evenodd" clip-rule="evenodd" fill="none" stroke="#FFFFFF" stroke-width="0.25" stroke-linecap="round" stroke-linejoin="round" stroke-miterlimit="10" d="
		M432.22,305.56c0-0.56,0.72-1.01,1.6-1.01c0.89,0,1.61,0.45,1.61,1.01c0,0.55-0.72,1-1.61,1
		C432.94,306.56,432.22,306.11,432.22,305.56z"/>
	<g>
		<path fill-rule="evenodd" clip-rule="evenodd" fill="#CA9800" d="M346.36,318.44c-0.13-0.57-0.21-1.16,0.06-1.39
			c0.08-0.08,0.37-0.03,0.48-0.05c0.47-0.04,0.99,0.52,1.17,1.26c0.17,0.75-0.01,1.29-0.44,1.46c-0.35,0.14-0.51,0.11-0.61,0.07
			C346.64,319.64,346.5,319.02,346.36,318.44z"/>
		<path fill-rule="evenodd" clip-rule="evenodd" fill="#CA9800" d="M345.6,322.12v-1.83c0,0-0.09-0.5,0.22-0.65
			c0.31-0.16,0.67,0.03,0.67,0.03l1.54,0.78c0,0,0.38,0.33,0.55,0.56c0.19,0.27,0.25,0.78,0.25,0.78v1.97l-0.39,0.07L345.6,322.12z"
			/>
		<path fill-rule="evenodd" clip-rule="evenodd" fill="#F2B600" d="M345.98,318.5c-0.17-0.74,0.07-1.38,0.54-1.43
			c0.47-0.05,0.99,0.52,1.17,1.26c0.17,0.74-0.07,1.38-0.54,1.43C346.68,319.81,346.16,319.25,345.98,318.5z"/>
		<path fill-rule="evenodd" clip-rule="evenodd" fill="#F2B600" d="M345.22,322.19v-1.84c0,0,0.06-0.44,0.36-0.59
			c0.31-0.15,0.53-0.02,0.53-0.02l1.54,0.77c0,0,0.38,0.33,0.55,0.57c0.19,0.27,0.25,0.78,0.25,0.78v1.97L345.22,322.19z"/>
	</g>
</g>
<linearGradient id="SVGID_4_" gradientUnits="userSpaceOnUse" x1="384.9053" y1="282.624" x2="334.0886" y2="194.607">
	<stop  offset="0" style="stop-color:#5DDBF9;stop-opacity:0"/>
	<stop  offset="1" style="stop-color:#5DDBF9"/>
</linearGradient>
<path fill-rule="evenodd" clip-rule="evenodd" fill="url(#SVGID_4_)" d="M329,198.25l107.96,54.32l-107.63,54.01L321,206.25
	c0,0-0.89-2.59,2-5S329,198.25,329,198.25z"/>
<linearGradient id="SVGID_5_" gradientUnits="userSpaceOnUse" x1="401.6733" y1="306.4253" x2="336.3977" y2="193.3646">
	<stop  offset="0" style="stop-color:#FFFFFF;stop-opacity:0"/>
	<stop  offset="1" style="stop-color:#FFFFFF"/>
</linearGradient>
<path fill-rule="evenodd" clip-rule="evenodd" fill="url(#SVGID_5_)" d="M337.63,291.38c0,0-14.09-89.83-13.36-91.01
	c0.73-1.19,102.51,59.68,102.51,59.68s33.34,21.29-17.27,40.16C365.72,316.55,337.63,291.38,337.63,291.38z"/>
<g>
	<g>
		<polygon fill-rule="evenodd" clip-rule="evenodd" fill="#BDD9E9" points="143.865,65.27 154.505,72.37 170.465,62.31 
			159.405,54.64 		"/>
		<polygon fill-rule="evenodd" clip-rule="evenodd" fill="#2485AC" points="170.456,62.29 154.465,72.229 154.465,84.16 
			170.416,74.282 		"/>
		<polygon fill-rule="evenodd" clip-rule="evenodd" fill="#43A8C3" points="143.845,65.24 154.465,72.229 154.465,84.16 
			143.865,76.87 		"/>
		
			<polygon fill-rule="evenodd" clip-rule="evenodd" fill="none" stroke="#DAEAF3" stroke-width="0.5" stroke-linecap="round" stroke-linejoin="round" stroke-miterlimit="10" points="
			143.962,65.33 154.505,72.37 170.465,62.31 154.505,72.37 		"/>
		
			<line fill-rule="evenodd" clip-rule="evenodd" fill="none" stroke="#E4E8F6" stroke-width="0.5" stroke-linecap="square" stroke-linejoin="round" stroke-miterlimit="10" x1="154.495" y1="72.457" x2="154.495" y2="83.613"/>
		<polygon fill-rule="evenodd" clip-rule="evenodd" fill="#FFD24D" points="146.559,67.225 150.481,69.818 150.499,79.225 
			148.679,75.075 146.559,76.504 		"/>
	</g>
	<g>
		<polygon fill-rule="evenodd" clip-rule="evenodd" fill="#BDD9E9" points="156.209,73.904 166.849,81.004 182.809,70.944 
			171.749,63.274 		"/>
		<polygon fill-rule="evenodd" clip-rule="evenodd" fill="#2485AC" points="182.799,70.924 166.809,80.864 166.809,92.794 
			182.759,82.917 		"/>
		<polygon fill-rule="evenodd" clip-rule="evenodd" fill="#43A8C3" points="156.189,73.875 166.809,80.864 166.809,92.794 
			156.209,85.504 		"/>
		
			<polygon fill-rule="evenodd" clip-rule="evenodd" fill="none" stroke="#DAEAF3" stroke-width="0.5" stroke-linecap="round" stroke-linejoin="round" stroke-miterlimit="10" points="
			156.306,73.964 166.849,81.004 182.809,70.944 166.849,81.004 		"/>
		
			<line fill-rule="evenodd" clip-rule="evenodd" fill="none" stroke="#E4E8F6" stroke-width="0.5" stroke-linecap="square" stroke-linejoin="round" stroke-miterlimit="10" x1="166.839" y1="81.091" x2="166.839" y2="92.248"/>
		<polygon fill-rule="evenodd" clip-rule="evenodd" fill="#FFD24D" points="158.903,75.859 162.825,78.453 162.843,87.859 
			161.023,83.709 158.903,85.139 		"/>
	</g>
	<g>
		<polygon fill-rule="evenodd" clip-rule="evenodd" fill="#BDD9E9" points="125.211,77.703 135.852,84.803 151.812,74.743 
			140.751,67.073 		"/>
		<polygon fill-rule="evenodd" clip-rule="evenodd" fill="#2485AC" points="151.802,74.723 135.812,84.663 135.812,96.593 
			151.762,86.715 		"/>
		<polygon fill-rule="evenodd" clip-rule="evenodd" fill="#43A8C3" points="125.191,77.673 135.812,84.663 135.812,96.593 
			125.211,89.303 		"/>
		
			<polygon fill-rule="evenodd" clip-rule="evenodd" fill="none" stroke="#DAEAF3" stroke-width="0.5" stroke-linecap="round" stroke-linejoin="round" stroke-miterlimit="10" points="
			125.308,77.763 135.852,84.803 151.812,74.743 135.852,84.803 		"/>
		
			<line fill-rule="evenodd" clip-rule="evenodd" fill="none" stroke="#E4E8F6" stroke-width="0.5" stroke-linecap="square" stroke-linejoin="round" stroke-miterlimit="10" x1="135.841" y1="84.89" x2="135.841" y2="96.046"/>
		<polygon fill-rule="evenodd" clip-rule="evenodd" fill="#FFD24D" points="127.905,79.658 131.827,82.251 131.845,91.658 
			130.025,87.508 127.905,88.938 		"/>
	</g>
	<g>
		<polygon fill-rule="evenodd" clip-rule="evenodd" fill="#BDD9E9" points="137.555,86.337 148.195,93.438 164.155,83.377 
			153.095,75.708 		"/>
		<polygon fill-rule="evenodd" clip-rule="evenodd" fill="#2485AC" points="164.146,83.357 148.155,93.297 148.155,105.228 
			164.105,95.35 		"/>
		<polygon fill-rule="evenodd" clip-rule="evenodd" fill="#43A8C3" points="137.535,86.308 148.155,93.297 148.155,105.228 
			137.555,97.938 		"/>
		
			<polygon fill-rule="evenodd" clip-rule="evenodd" fill="none" stroke="#DAEAF3" stroke-width="0.5" stroke-linecap="round" stroke-linejoin="round" stroke-miterlimit="10" points="
			137.652,86.397 148.195,93.438 164.155,83.377 148.195,93.438 		"/>
		
			<line fill-rule="evenodd" clip-rule="evenodd" fill="none" stroke="#E4E8F6" stroke-width="0.5" stroke-linecap="square" stroke-linejoin="round" stroke-miterlimit="10" x1="148.185" y1="93.524" x2="148.185" y2="104.681"/>
		<polygon fill-rule="evenodd" clip-rule="evenodd" fill="#FFD24D" points="140.249,88.292 144.171,90.886 144.189,100.292 
			142.369,96.143 140.249,97.572 		"/>
	</g>
</g>
<g>
	<g>
		<polygon fill-rule="evenodd" clip-rule="evenodd" fill="#BDD9E9" points="212.731,167.336 202.091,174.436 186.131,164.376 
			197.191,156.706 		"/>
		<polygon fill-rule="evenodd" clip-rule="evenodd" fill="#2485AC" points="186.141,164.356 202.131,174.296 202.131,186.226 
			186.181,176.348 		"/>
		<polygon fill-rule="evenodd" clip-rule="evenodd" fill="#43A8C3" points="212.751,167.306 202.131,174.296 202.131,186.226 
			212.731,178.936 		"/>
		
			<polygon fill-rule="evenodd" clip-rule="evenodd" fill="none" stroke="#DAEAF3" stroke-width="0.5" stroke-linecap="round" stroke-linejoin="round" stroke-miterlimit="10" points="
			212.635,167.396 202.091,174.436 186.131,164.376 202.091,174.436 		"/>
		
			<line fill-rule="evenodd" clip-rule="evenodd" fill="none" stroke="#E4E8F6" stroke-width="0.5" stroke-linecap="square" stroke-linejoin="round" stroke-miterlimit="10" x1="202.102" y1="174.523" x2="202.102" y2="185.679"/>
		<polygon fill-rule="evenodd" clip-rule="evenodd" fill="#FFD24D" points="210.038,169.291 206.116,171.885 206.098,181.291 
			207.917,177.141 210.038,178.571 		"/>
	</g>
	<g>
		<polygon fill-rule="evenodd" clip-rule="evenodd" fill="#BDD9E9" points="200.388,175.971 189.748,183.071 173.788,173.011 
			184.848,165.341 		"/>
		<polygon fill-rule="evenodd" clip-rule="evenodd" fill="#2485AC" points="173.797,172.991 189.788,182.931 189.788,194.861 
			173.837,184.983 		"/>
		<polygon fill-rule="evenodd" clip-rule="evenodd" fill="#43A8C3" points="200.408,175.941 189.788,182.931 189.788,194.861 
			200.388,187.571 		"/>
		
			<polygon fill-rule="evenodd" clip-rule="evenodd" fill="none" stroke="#DAEAF3" stroke-width="0.5" stroke-linecap="round" stroke-linejoin="round" stroke-miterlimit="10" points="
			200.291,176.031 189.748,183.071 173.788,173.011 189.748,183.071 		"/>
		
			<line fill-rule="evenodd" clip-rule="evenodd" fill="none" stroke="#E4E8F6" stroke-width="0.5" stroke-linecap="square" stroke-linejoin="round" stroke-miterlimit="10" x1="189.758" y1="183.158" x2="189.758" y2="194.314"/>
		<polygon fill-rule="evenodd" clip-rule="evenodd" fill="#FFD24D" points="197.694,177.926 193.772,180.52 193.754,189.926 
			195.574,185.776 197.694,187.206 		"/>
	</g>
	<g>
		<polygon fill-rule="evenodd" clip-rule="evenodd" fill="#BDD9E9" points="231.385,179.769 220.745,186.869 204.785,176.809 
			215.845,169.139 		"/>
		<polygon fill-rule="evenodd" clip-rule="evenodd" fill="#2485AC" points="204.795,176.789 220.785,186.729 220.785,198.659 
			204.835,188.781 		"/>
		<polygon fill-rule="evenodd" clip-rule="evenodd" fill="#43A8C3" points="231.405,179.739 220.785,186.729 220.785,198.659 
			231.385,191.369 		"/>
		
			<polygon fill-rule="evenodd" clip-rule="evenodd" fill="none" stroke="#DAEAF3" stroke-width="0.5" stroke-linecap="round" stroke-linejoin="round" stroke-miterlimit="10" points="
			231.289,179.829 220.745,186.869 204.785,176.809 220.745,186.869 		"/>
		
			<line fill-rule="evenodd" clip-rule="evenodd" fill="none" stroke="#E4E8F6" stroke-width="0.5" stroke-linecap="square" stroke-linejoin="round" stroke-miterlimit="10" x1="220.755" y1="186.956" x2="220.755" y2="198.112"/>
		<polygon fill-rule="evenodd" clip-rule="evenodd" fill="#FFD24D" points="228.691,181.724 224.77,184.318 224.751,193.724 
			226.571,189.574 228.691,191.004 		"/>
	</g>
	<g>
		<polygon fill-rule="evenodd" clip-rule="evenodd" fill="#BDD9E9" points="219.042,188.404 208.401,195.504 192.441,185.444 
			203.501,177.774 		"/>
		<polygon fill-rule="evenodd" clip-rule="evenodd" fill="#2485AC" points="192.451,185.424 208.441,195.364 208.441,207.294 
			192.491,197.416 		"/>
		<polygon fill-rule="evenodd" clip-rule="evenodd" fill="#43A8C3" points="219.062,188.374 208.441,195.364 208.441,207.294 
			219.042,200.004 		"/>
		
			<polygon fill-rule="evenodd" clip-rule="evenodd" fill="none" stroke="#DAEAF3" stroke-width="0.5" stroke-linecap="round" stroke-linejoin="round" stroke-miterlimit="10" points="
			218.945,188.464 208.401,195.504 192.441,185.444 208.401,195.504 		"/>
		
			<line fill-rule="evenodd" clip-rule="evenodd" fill="none" stroke="#E4E8F6" stroke-width="0.5" stroke-linecap="square" stroke-linejoin="round" stroke-miterlimit="10" x1="208.412" y1="195.591" x2="208.412" y2="206.747"/>
		<polygon fill-rule="evenodd" clip-rule="evenodd" fill="#FFD24D" points="216.348,190.359 212.426,192.953 212.408,202.359 
			214.228,198.209 216.348,199.639 		"/>
	</g>
</g>
<g>
	<polygon fill-rule="evenodd" clip-rule="evenodd" fill="#BDD9E9" points="282.25,102.93 292.89,110.03 308.85,99.97 297.79,92.3 	
		"/>
	<polygon fill-rule="evenodd" clip-rule="evenodd" fill="#2485AC" points="308.84,99.95 292.85,109.89 292.85,121.82 308.8,111.942 
			"/>
	<polygon fill-rule="evenodd" clip-rule="evenodd" fill="#43A8C3" points="282.23,102.9 292.85,109.89 292.85,121.82 282.25,114.53 
			"/>
	
		<polygon fill-rule="evenodd" clip-rule="evenodd" fill="none" stroke="#DAEAF3" stroke-width="0.5" stroke-linecap="round" stroke-linejoin="round" stroke-miterlimit="10" points="
		282.347,102.99 292.89,110.03 308.85,99.97 292.89,110.03 	"/>
	
		<line fill-rule="evenodd" clip-rule="evenodd" fill="none" stroke="#E4E8F6" stroke-width="0.5" stroke-linecap="square" stroke-linejoin="round" stroke-miterlimit="10" x1="292.88" y1="110.117" x2="292.88" y2="121.273"/>
	<polygon fill-rule="evenodd" clip-rule="evenodd" fill="#FFD24D" points="284.944,104.885 288.866,107.479 288.884,116.885 
		287.064,112.735 284.944,114.165 	"/>
</g>
<g>
	<polygon fill-rule="evenodd" clip-rule="evenodd" fill="#BDD9E9" points="298.71,112.755 309.35,119.855 325.31,109.795 
		314.25,102.125 	"/>
	<polygon fill-rule="evenodd" clip-rule="evenodd" fill="#2485AC" points="325.3,109.775 309.31,119.715 309.31,131.646 
		325.26,121.768 	"/>
	<polygon fill-rule="evenodd" clip-rule="evenodd" fill="#43A8C3" points="298.69,112.726 309.31,119.715 309.31,131.646 
		298.71,124.355 	"/>
	
		<polygon fill-rule="evenodd" clip-rule="evenodd" fill="none" stroke="#DAEAF3" stroke-width="0.5" stroke-linecap="round" stroke-linejoin="round" stroke-miterlimit="10" points="
		298.807,112.815 309.35,119.855 325.31,109.795 309.35,119.855 	"/>
	
		<line fill-rule="evenodd" clip-rule="evenodd" fill="none" stroke="#E4E8F6" stroke-width="0.5" stroke-linecap="square" stroke-linejoin="round" stroke-miterlimit="10" x1="309.34" y1="119.942" x2="309.34" y2="131.099"/>
	<polygon fill-rule="evenodd" clip-rule="evenodd" fill="#FFD24D" points="301.404,114.71 305.326,117.304 305.344,126.71 
		303.524,122.561 301.404,123.99 	"/>
</g>
</svg>
