<?xml version="1.0" encoding="utf-8"?>
<!-- Generator: Adobe Illustrator 16.0.0, SVG Export Plug-In . SVG Version: 6.00 Build 0)  -->
<!DOCTYPE svg PUBLIC "-//W3C//DTD SVG 1.1//EN" "http://www.w3.org/Graphics/SVG/1.1/DTD/svg11.dtd">
<svg version="1.1" id="层_1" xmlns="http://www.w3.org/2000/svg" xmlns:xlink="http://www.w3.org/1999/xlink" x="0px" y="0px"
	 width="375.292px" height="260.725px" viewBox="0 0 375.292 260.725" enable-background="new 0 0 375.292 260.725"
	 xml:space="preserve">
<g>
	<g>
		<path fill-rule="evenodd" clip-rule="evenodd" fill="#4E9DF4" d="M0.002,199.295c0.53-33.8,84.75-61.13,188.12-61.13
			s187.17,27.33,187.17,61.13c0,33.89-84.23,61.43-188.12,61.43C83.272,260.725-0.518,233.185,0.002,199.295z"/>
		<path fill-rule="evenodd" clip-rule="evenodd" fill="#A3C9F5" d="M0.112,186.445c0.52-33.77,84.72-61.08,188.06-61.08
			s187.12,27.31,187.12,61.08c0,33.88-84.2,61.4-188.07,61.4C83.353,247.845-0.417,220.325,0.112,186.445z"/>
		<path fill-rule="evenodd" clip-rule="evenodd" fill="#D1E4FA" d="M41.612,181.295c0.37-26.51,66.47-47.96,147.65-47.96
			c81.18,0,146.95,21.45,146.9,47.96c-0.04,26.58-66.14,48.16-147.64,48.16C107.012,229.455,41.243,207.875,41.612,181.295z"/>
	</g>
	<g>
		<path fill-rule="evenodd" clip-rule="evenodd" fill="#92BFFF" d="M56.322,30.975l172.58-30.73c8.4-1.5,15.2,4.04,15.2,12.35v120.5
			c0,8.32-6.8,16.31-15.2,17.83l-172.58,31.43c-8.48,1.54-15.35-3.99-15.35-12.35V48.855C40.973,40.495,47.842,32.485,56.322,30.975
			z"/>
		<path fill-rule="evenodd" clip-rule="evenodd" fill="#C8DFFF" d="M61.223,37.765l172.53-30.76c8.4-1.5,15.2,4.03,15.2,12.35
			v120.49c0,8.31-6.8,16.3-15.2,17.83l-172.53,31.44c-8.48,1.55-15.35-3.98-15.35-12.34V55.645
			C45.873,47.285,52.743,39.275,61.223,37.765z"/>
		<path fill-rule="evenodd" clip-rule="evenodd" fill="#FFFFFF" d="M69.802,45.775l157.4-28.54c7.66-1.39,13.87,3.68,13.87,11.32
			v110.69c0,7.64-6.21,14.99-13.87,16.4l-157.4,29.11c-7.73,1.43-14-3.63-14-11.31V62.215
			C55.802,54.535,62.072,47.175,69.802,45.775z"/>
		
			<path fill-rule="evenodd" clip-rule="evenodd" fill="none" stroke="#92BFFF" stroke-width="2" stroke-linecap="round" stroke-linejoin="round" stroke-miterlimit="10" d="
			M79.973,56.105l161.44-28.14c7.86-1.37,14.23,3.79,14.23,11.54v112.16c0,7.74-6.37,15.15-14.23,16.55l-161.44,28.75
			c-7.93,1.41-14.36-3.76-14.36-11.54V72.705C65.612,64.925,72.042,57.495,79.973,56.105z"/>
		<g>
			<linearGradient id="SVGID_1_" gradientUnits="userSpaceOnUse" x1="175.1924" y1="183.2646" x2="175.1924" y2="37.3857">
				<stop  offset="0" style="stop-color:#FF9A44"/>
				<stop  offset="1" style="stop-color:#FFB45B"/>
			</linearGradient>
			<path fill-rule="evenodd" clip-rule="evenodd" fill="url(#SVGID_1_)" d="M99.143,62.145l152.1-24.5
				c10.49-1.69,18.99,5.06,18.99,15.07v84.6c0,10.02-8.5,19.5-18.99,21.19l-152.1,24.5c-10.49,1.69-18.99-5.05-18.99-15.07v-84.6
				C80.152,73.325,88.652,63.835,99.143,62.145z"/>
			<polygon fill-rule="evenodd" clip-rule="evenodd" fill="#FFFFFF" points="193.422,84.245 242.893,76.275 242.893,83.995 
				193.422,91.965 			"/>
			<polygon fill-rule="evenodd" clip-rule="evenodd" fill="#FFFFFF" points="193.422,103.535 242.893,95.565 242.893,103.275 
				193.422,111.245 			"/>
			<polygon fill-rule="evenodd" clip-rule="evenodd" fill="#FFFFFF" points="193.422,124.105 242.893,116.135 242.893,123.855 
				193.422,131.825 			"/>
			<polygon fill-rule="evenodd" clip-rule="evenodd" fill="#FFFFFF" points="106.192,86.725 171.292,76.245 171.292,148.245 
				106.192,158.725 			"/>
			<path fill-rule="evenodd" clip-rule="evenodd" fill="#040404" d="M125.382,117.445c0-6.68,5.55-12.98,12.4-14.08
				c6.85-1.11,12.4,3.41,12.4,10.08c0,6.68-5.55,12.98-12.4,14.09C130.933,128.635,125.382,124.115,125.382,117.445z"/>
			<path fill-rule="evenodd" clip-rule="evenodd" fill="#040404" d="M117.752,155.955c-0.13-1.11-0.03-5.35-0.03-6.6
				c0-9.09,12.3-22.37,21.11-23.79s20.46,7.94,20.46,17.03c0,1.4,0.1,5.34,0.03,6.6L117.752,155.955z"/>
		</g>
	</g>
	<g>
		<path fill-rule="evenodd" clip-rule="evenodd" fill="#F6D16A" d="M294.563,128.635l72.13,43.91c7.89,4.81,9.59,12.31,3.78,16.77
			l-31.53,24.21c-5.81,4.45-16.91,4.17-24.81-0.64l-72.12-43.91c-7.89-4.81-9.59-12.32-3.78-16.77l31.53-24.21
			C275.563,123.535,286.672,123.825,294.563,128.635z"/>
		<polygon fill-rule="evenodd" clip-rule="evenodd" points="250.192,143.085 240.471,150.486 343.542,209.925 352.272,201.415 		"/>
		<polygon fill-rule="evenodd" clip-rule="evenodd" fill="#FFFFFF" points="286.172,149.535 281.063,152.435 326.313,178.535 
			331.422,175.635 		"/>
		<polygon fill-rule="evenodd" clip-rule="evenodd" fill="#FFFFFF" points="350.163,167.805 341.603,173.445 362.052,184.985 
			370.612,179.345 		"/>
	</g>
	<g>
		<path fill-rule="evenodd" clip-rule="evenodd" fill="#FDC029" d="M217.703,222.045c0-0.77-0.85-9.03,1.08-9.68
			c4.78-1.59,16.66-2.89,28.16-2.89c11.75,0,23.56,1.29,28.21,2.94c1.74,0.62,1.03,8.91,1.03,9.63c0,2.67-13.09,4.84-29.24,4.84
			S217.703,224.715,217.703,222.045z"/>
		<ellipse fill-rule="evenodd" clip-rule="evenodd" fill="#F9E0A7" cx="246.943" cy="213.765" rx="29.24" ry="4.83"/>
		<path fill-rule="evenodd" clip-rule="evenodd" fill="#FDC029" d="M220.953,209.155c0-0.77-0.86-9.03,1.08-9.68
			c4.77-1.59,16.66-2.89,28.16-2.89c11.75,0,23.56,1.29,28.21,2.94c1.74,0.62,1.03,8.91,1.03,9.63c0,2.67-13.09,4.84-29.24,4.84
			S220.953,211.825,220.953,209.155z"/>
		<ellipse fill-rule="evenodd" clip-rule="evenodd" fill="#F9E0A7" cx="250.193" cy="200.875" rx="29.24" ry="4.83"/>
		<path fill-rule="evenodd" clip-rule="evenodd" fill="#FDC029" d="M219.322,196.265c0-0.77-0.85-9.03,1.08-9.68
			c4.78-1.59,16.67-2.89,28.17-2.89c11.75,0,23.56,1.28,28.2,2.94c1.74,0.62,1.04,8.9,1.04,9.63c0,2.67-13.09,4.84-29.24,4.84
			C232.413,201.105,219.322,198.935,219.322,196.265z"/>
		<path fill-rule="evenodd" clip-rule="evenodd" fill="#F9E0A7" d="M219.322,187.985c0-2.67,13.09-4.83,29.25-4.83
			c16.15,0,29.24,2.16,29.24,4.83c0,2.67-13.09,4.83-29.24,4.83C232.413,192.815,219.322,190.655,219.322,187.985z"/>
		<path fill-rule="evenodd" clip-rule="evenodd" fill="#FDC029" d="M222.572,183.375c0-0.77-0.85-9.04,1.08-9.68
			c4.78-1.6,16.67-2.9,28.16-2.9c11.76,0,23.56,1.29,28.21,2.94c1.74,0.62,1.04,8.91,1.04,9.64c0,2.67-13.09,4.83-29.25,4.83
			C235.663,188.205,222.572,186.045,222.572,183.375z"/>
		<path fill-rule="evenodd" clip-rule="evenodd" fill="#F9E0A7" d="M222.572,175.095c0-2.67,13.011-4.84,29.063-4.84
			c16.062,0,29.072,2.17,29.072,4.84s-13.01,4.83-29.072,4.83C235.583,179.925,222.572,177.765,222.572,175.095z"/>
	</g>
</g>
</svg>
