<?xml version="1.0" encoding="utf-8"?>
<!-- Generator: Adobe Illustrator 16.0.0, SVG Export Plug-In . SVG Version: 6.00 Build 0)  -->
<!DOCTYPE svg PUBLIC "-//W3C//DTD SVG 1.1//EN" "http://www.w3.org/Graphics/SVG/1.1/DTD/svg11.dtd">
<svg version="1.1" id="层_1" xmlns="http://www.w3.org/2000/svg" xmlns:xlink="http://www.w3.org/1999/xlink" x="0px" y="0px"
	 width="355.873px" height="269.393px" viewBox="0 0 355.873 269.393" enable-background="new 0 0 355.873 269.393"
	 xml:space="preserve">
<g>
	<g>
		<path fill-rule="evenodd" clip-rule="evenodd" fill="#4E9DF4" d="M0.002,210.292c0.5-32.52,80.36-58.8,178.38-58.8
			c98.03,0,177.49,26.28,177.49,58.8c0,32.6-79.87,59.1-178.39,59.1S-0.498,242.893,0.002,210.292z"/>
		<path fill-rule="evenodd" clip-rule="evenodd" fill="#A3C9F5" d="M0.103,197.933c0.5-32.49,80.34-58.77,178.34-58.77
			c97.99,0,177.43,26.28,177.43,58.77c0,32.59-79.84,59.07-178.34,59.07C79.042,257.002-0.397,230.522,0.103,197.933z"/>
		<path fill-rule="evenodd" clip-rule="evenodd" fill="#D1E4FA" d="M39.453,192.982c0.35-25.51,63.04-46.14,140.02-46.14
			c76.97,0,139.34,20.63,139.3,46.14c-0.04,25.56-62.72,46.32-140.01,46.32S39.113,218.542,39.453,192.982z"/>
	</g>
	<g>
		<path fill-rule="evenodd" clip-rule="evenodd" fill="#92BFFF" d="M300.053,29.802l-163.63-29.57
			c-7.96-1.43-14.41,3.89-14.41,11.89v115.92c0,8.01,6.45,15.68,14.41,17.16l163.63,30.22c8.03,1.49,14.55-3.83,14.55-11.88V47.002
			C314.603,38.953,308.083,31.252,300.053,29.802z"/>
		<path fill-rule="evenodd" clip-rule="evenodd" fill="#C8DFFF" d="M295.402,36.333l-163.58-29.59
			c-7.96-1.44-14.41,3.88-14.41,11.88v115.91c0,8,6.45,15.68,14.41,17.15l163.58,30.25c8.04,1.49,14.55-3.83,14.55-11.87V53.532
			C309.953,45.482,303.442,37.782,295.402,36.333z"/>
		<path fill-rule="evenodd" clip-rule="evenodd" fill="#FFFFFF" d="M287.103,44.042l-149.25-27.45
			c-7.26-1.34-13.15,3.54-13.15,10.89v106.48c0,7.35,5.89,14.41,13.15,15.78l149.25,28c7.33,1.38,13.27-3.5,13.27-10.88v-107
			C300.373,52.473,294.433,45.393,287.103,44.042z"/>
		
			<path fill-rule="evenodd" clip-rule="evenodd" fill="none" stroke="#92BFFF" stroke-width="2" stroke-linecap="round" stroke-linejoin="round" stroke-miterlimit="10" d="
			M277.442,53.993l-153.08-27.08c-7.46-1.32-13.49,3.65-13.49,11.1v107.9c0,7.45,6.03,14.58,13.49,15.93l153.08,27.65
			c7.52,1.36,13.61-3.61,13.61-11.1V69.953C291.053,62.473,284.962,55.322,277.442,53.993z"/>
		<path opacity="0.5" fill-rule="evenodd" clip-rule="evenodd" fill="#68A5FF" d="M259.522,66.782l-153.13-27.08
			c-7.46-1.32-13.5,3.64-13.5,11.07v107.71c0,7.44,6.04,14.55,13.5,15.9l153.13,27.66c7.52,1.35,13.62-3.6,13.62-11.07V82.723
			C273.143,75.252,267.042,68.112,259.522,66.782z"/>
		<path opacity="0.5" fill-rule="evenodd" clip-rule="evenodd" fill="#68A5FF" d="M248.132,75.813l-142.67-25.28
			c-6.94-1.23-12.57,3.4-12.57,10.34v100.52c0,6.94,5.63,13.59,12.57,14.84l142.67,25.82c7,1.26,12.69-3.36,12.69-10.34V90.683
			C260.823,83.712,255.132,77.052,248.132,75.813z"/>
		<path opacity="0.5" fill-rule="evenodd" clip-rule="evenodd" fill="#68A5FF" d="M229.623,91.292l-125.66-22.18
			c-6.11-1.08-11.07,2.98-11.07,9.07v88.22c0,6.09,4.96,11.92,11.07,13.02l125.66,22.65c6.17,1.11,11.17-2.95,11.17-9.07v-88.65
			C240.792,98.223,235.792,92.382,229.623,91.292z"/>
		<polygon opacity="0.5" fill-rule="evenodd" clip-rule="evenodd" fill="#FFFFFF" points="94.073,91.252 187.902,107.183 
			187.902,127.333 94.002,109.612 		"/>
		<polygon opacity="0.5" fill-rule="evenodd" clip-rule="evenodd" fill="#FFFFFF" points="101.772,119.163 187.752,134.262 
			187.752,154.413 101.703,137.522 		"/>
	</g>
	<g>
		<path fill-rule="evenodd" clip-rule="evenodd" fill="#0282F0" d="M186.413,210.342l-5.06,1.41l-97.49-62.31v-14.42
			c0,0,29.93-11.68,35.24-9.55c13.43,5.41,16.03,28.69,27.08,35.82c6.93,4.47,13.43-5.15,20.14-1.12
			c8.89,5.33,10.96,20.14,13.87,26.19c3.21,6.65,5.97,14.44,5.97,14.44L186.413,210.342z"/>
		<path fill-rule="evenodd" clip-rule="evenodd" fill="#10B9F9" d="M180.002,211.942l-102.55-60.9v-20.19c0,0,31.64-2.81,36.95-0.68
			c13.43,5.41,14.32,26.02,25.06,33.58c6.05,4.25,15.22-3.58,21.94,0.45c8.89,5.33,11.05,20.33,13.87,26.63
			c3.81,8.51,4.84,11.5,4.84,11.5L180.002,211.942z"/>
		<path fill-rule="evenodd" clip-rule="evenodd" fill="#F8456F" d="M179.873,216.623h-4.18l-98.24-60.77v-14.42
			c0,0,12.32-18.17,17.62-16.03c13.43,5.41,11.8,37.89,23.58,43.72c22.93,11.35,23.95-3.58,30.66,0.45
			c8.89,5.33,13.03,21.36,18.35,25.74c5.7,4.69,12.41,11.61,12.41,11.61L179.873,216.623z"/>
		<path fill-rule="evenodd" clip-rule="evenodd" fill="#FD7497" d="M175.063,216.143l-104.2-17.89l0.18-55.22
			c0,0,12.32-18.17,17.62-16.03c13.43,5.41,13.86,39.05,25.64,44.88c22.93,11.34,24.39-3.43,30.93,0.69
			c8.77,5.52,13.42,22.17,18.74,26.55c5.71,4.7,11.15,9.63,11.15,9.63L175.063,216.143z"/>
	</g>
	<g>
		<g>
			<polygon fill-rule="evenodd" clip-rule="evenodd" fill="#7EF7EE" points="101.223,173.313 96.373,177.953 87.333,174.842 
				92.743,170.282 			"/>
			<polygon fill-rule="evenodd" clip-rule="evenodd" fill="#42D0C9" points="101.672,173.272 97.053,177.893 97.063,219.782 
				101.672,215.592 			"/>
			<polygon fill-rule="evenodd" clip-rule="evenodd" fill="#37BAE3" points="87.813,174.822 96.993,177.953 97.053,219.782 
				87.813,217.342 			"/>
		</g>
		<g>
			<polygon fill-rule="evenodd" clip-rule="evenodd" fill="#7EF7EE" points="122.792,146.962 117.942,151.603 108.902,148.493 
				114.313,143.922 			"/>
			<polygon fill-rule="evenodd" clip-rule="evenodd" fill="#42D0C9" points="123.243,146.913 118.623,151.532 118.632,222.882 
				123.243,218.692 			"/>
			<polygon fill-rule="evenodd" clip-rule="evenodd" fill="#37BAE3" points="109.382,148.473 118.563,151.603 118.623,222.882 
				109.382,220.442 			"/>
		</g>
		<g>
			<polygon fill-rule="evenodd" clip-rule="evenodd" fill="#7EF7EE" points="81.192,129.902 76.353,134.542 67.303,131.442 
				72.723,126.873 			"/>
			<polygon fill-rule="evenodd" clip-rule="evenodd" fill="#42D0C9" points="81.652,129.862 77.033,134.482 77.033,215.132 
				81.643,210.933 			"/>
			<polygon fill-rule="evenodd" clip-rule="evenodd" fill="#37BAE3" points="67.783,131.413 76.962,134.542 77.033,215.132 
				67.792,212.692 			"/>
		</g>
	</g>
	<g>
		<path fill-rule="evenodd" clip-rule="evenodd" fill="#E58623" d="M150.163,167.913c0,0,7.934-61.719,25.44-61.3
			c32.109,0.769,19.3,106.85,36.22,107.07c12.62,0.16,15.083-66.84,32.1-64.9c17.47,1.992,19.52,33.65,19.52,33.65l-4.78,3.5
			c0,0-6.57-29.5-18.21-29.5c-11.65,0-11.5,63.15-31.89,62.93c-14.22-0.2-14.71-35.63-18.43-66.43
			c-2.66-21.96-9.26-40.07-17.57-39.98c-8.89,0.22-17.13,51.78-17.13,51.78L150.163,167.913z"/>
		<path fill-rule="evenodd" clip-rule="evenodd" fill="#FFDF1E" d="M146.353,167.913c0,0,9.91-59.7,25.41-58.88
			c28.78,1.51,18.58,108.36,35.5,108.58c12.63,0.17,15.34-67.51,30.57-65.06c17.36,2.79,20.62,33.6,20.62,33.6l-2.83-0.32
			c0,0-6.14-29.44-17.79-29.44s-13.19,65.18-30.35,64.94c-14.22-0.2-14.71-37.38-18.44-68.18c-2.65-21.96-8.17-40.29-16.48-40.2
			c-15.95,0.17-22.4,54.96-22.4,54.96H146.353z"/>
	</g>
</g>
</svg>
