<?xml version="1.0" encoding="utf-8"?>
<!-- Generator: Adobe Illustrator 16.0.0, SVG Export Plug-In . SVG Version: 6.00 Build 0)  -->
<!DOCTYPE svg PUBLIC "-//W3C//DTD SVG 1.1//EN" "http://www.w3.org/Graphics/SVG/1.1/DTD/svg11.dtd">
<svg version="1.1" id="层_1" xmlns="http://www.w3.org/2000/svg" xmlns:xlink="http://www.w3.org/1999/xlink" x="0px" y="0px"
	 width="435px" height="368px" viewBox="0 0 435 368" enable-background="new 0 0 435 368" xml:space="preserve">
<g>
	
		<polyline fill-rule="evenodd" clip-rule="evenodd" fill="none" stroke="#153EB7" stroke-width="3" stroke-linecap="round" stroke-linejoin="round" stroke-miterlimit="10" points="
		150.06,255.274 222.86,207.554 281.06,246.274 359.06,192.274 	"/>
	
		<line fill-rule="evenodd" clip-rule="evenodd" fill="none" stroke="#153EB7" stroke-width="3" stroke-linecap="round" stroke-linejoin="round" stroke-miterlimit="10" x1="98.82" y1="125.124" x2="198.7" y2="190.764"/>
	<g>
		<path fill-rule="evenodd" clip-rule="evenodd" fill="#964930" d="M212.25,182.444l37.87,26.18c2.54,1.76,2.47,4.51-0.15,6.14
			l-21.81,13.59c-2.54,1.58-6.65,1.49-9.2-0.21l-37.87-25.21c-2.68-1.78-2.81-4.59-0.26-6.27l21.81-14.44
			C205.26,180.494,209.57,180.584,212.25,182.444z"/>
		<g>
			<linearGradient id="SVGID_1_" gradientUnits="userSpaceOnUse" x1="206.606" y1="218.5459" x2="224.7396" y2="187.1376">
				<stop  offset="0" style="stop-color:#FF9A44"/>
				<stop  offset="1" style="stop-color:#FFB45B"/>
			</linearGradient>
			<path fill-rule="evenodd" clip-rule="evenodd" fill="url(#SVGID_1_)" d="M212.25,179.954l37.87,26.18
				c2.54,1.76,2.47,4.51-0.15,6.14l-21.81,13.59c-2.54,1.58-6.65,1.49-9.2-0.2l-37.87-25.21c-2.68-1.79-2.81-4.6-0.26-6.28
				l21.81-14.44C205.26,178.004,209.57,178.094,212.25,179.954z"/>
			<polygon fill-rule="evenodd" clip-rule="evenodd" fill="#FFFFFF" points="226.04,202.104 238.23,210.434 236.14,211.754 
				223.95,203.444 			"/>
			<polygon fill-rule="evenodd" clip-rule="evenodd" fill="#FFFFFF" points="220.83,205.444 233.02,213.724 230.94,215.024 
				218.75,206.764 			"/>
			<polygon fill-rule="evenodd" clip-rule="evenodd" fill="#FFFFFF" points="215.64,208.754 227.83,216.974 225.77,218.274 
				213.58,210.064 			"/>
			<polygon fill-rule="evenodd" clip-rule="evenodd" fill="#FFFFFF" points="207.06,184.004 223.72,195.474 205.03,207.474 
				188.37,196.264 			"/>
			<path fill-rule="evenodd" clip-rule="evenodd" fill="#040404" d="M203.72,194.244c1.72-1.13,4.52-1.09,6.25,0.09
				c1.72,1.18,1.72,3.03-0.01,4.15c-1.72,1.11-4.5,1.07-6.23-0.1C202.01,197.214,202,195.364,203.72,194.244z"/>
			<path fill-rule="evenodd" clip-rule="evenodd" fill="#040404" d="M192.34,198.904c0.27-0.21,1.43-0.94,1.76-1.16
				c2.44-1.59,8.57-1.49,10.78,0c2.2,1.49,2.07,5.41-0.37,6.98c-0.38,0.25-1.42,0.95-1.77,1.15L192.34,198.904z"/>
		</g>
	</g>
	<g>
		<g>
			<polygon fill-rule="evenodd" clip-rule="evenodd" fill="#197EE8" points="0.5,278.524 129.67,361.034 257.1,278.174 
				129.67,194.614 			"/>
			<polygon fill-rule="evenodd" clip-rule="evenodd" fill="#0C46C3" points="0.33,277.154 129.08,360.704 129.08,367.724 
				0.41,284.974 			"/>
			<polygon fill-rule="evenodd" clip-rule="evenodd" fill="#00148F" points="257.1,278.174 129.05,360.704 129.05,367.724 
				257.1,285.946 			"/>
			<polygon fill-rule="evenodd" clip-rule="evenodd" fill="#02EAFF" points="41.67,277.284 128.59,334.214 216.69,277.754 
				128.59,221.054 			"/>
			
				<polygon fill-rule="evenodd" clip-rule="evenodd" fill="none" stroke="#4DFFFF" stroke-linecap="round" stroke-linejoin="round" stroke-miterlimit="10" points="
				29.06,276.874 128.89,342.274 230.06,277.404 128.89,212.274 			"/>
		</g>
		<g>
			<path fill-rule="evenodd" clip-rule="evenodd" fill="#02EAFF" d="M125.06,206.274c0-1.66,2.24-3,5-3s5,1.34,5,3s-2.24,3-5,3
				S125.06,207.934,125.06,206.274z"/>
			<path fill-rule="evenodd" clip-rule="evenodd" fill="#02EAFF" d="M13.06,278.274c0-1.66,2.24-3,5-3s5,1.34,5,3s-2.24,3-5,3
				S13.06,279.934,13.06,278.274z"/>
			<path fill-rule="evenodd" clip-rule="evenodd" fill="#02EAFF" d="M125.06,348.274c0-1.66,2.24-3,5-3s5,1.34,5,3s-2.24,3-5,3
				S125.06,349.934,125.06,348.274z"/>
			<path fill-rule="evenodd" clip-rule="evenodd" fill="#02EAFF" d="M233.06,276.274c0-1.66,2.24-3,5-3s5,1.34,5,3s-2.24,3-5,3
				S233.06,277.934,233.06,276.274z"/>
		</g>
		<g>
			<polygon fill-rule="evenodd" clip-rule="evenodd" fill="#197EE8" points="80.13,273.234 130.22,305.644 179.64,273.094 
				130.22,240.274 			"/>
			<polygon fill-rule="evenodd" clip-rule="evenodd" fill="#0C46C3" points="80.06,272.694 129.99,305.514 129.99,311.274 
				80.09,278.764 			"/>
			<polygon fill-rule="evenodd" clip-rule="evenodd" fill="#00148F" points="180.06,272.694 129.98,305.514 129.98,311.274 
				180.03,278.764 			"/>
			
				<polygon fill-rule="evenodd" clip-rule="evenodd" fill="none" stroke="#77B3EE" stroke-linecap="round" stroke-linejoin="round" stroke-miterlimit="10" points="
				91.2,272.584 129.92,298.274 169.15,272.794 129.92,247.214 			"/>
		</g>
		<g>
			
				<line fill-rule="evenodd" clip-rule="evenodd" fill="none" stroke="#000000" stroke-linecap="square" stroke-linejoin="round" stroke-miterlimit="10" x1="174.56" y1="280.774" x2="177.56" y2="285.774"/>
			
				<line fill-rule="evenodd" clip-rule="evenodd" fill="none" stroke="#000000" stroke-linecap="square" stroke-linejoin="round" stroke-miterlimit="10" x1="168.56" y1="283.774" x2="171.56" y2="288.774"/>
			
				<line fill-rule="evenodd" clip-rule="evenodd" fill="none" stroke="#000000" stroke-linecap="square" stroke-linejoin="round" stroke-miterlimit="10" x1="164.56" y1="286.774" x2="167.56" y2="291.774"/>
			
				<line fill-rule="evenodd" clip-rule="evenodd" fill="none" stroke="#000000" stroke-linecap="square" stroke-linejoin="round" stroke-miterlimit="10" x1="158.56" y1="289.774" x2="161.56" y2="294.774"/>
			
				<line fill-rule="evenodd" clip-rule="evenodd" fill="none" stroke="#000000" stroke-linecap="square" stroke-linejoin="round" stroke-miterlimit="10" x1="153.56" y1="293.774" x2="156.56" y2="298.774"/>
			
				<line fill-rule="evenodd" clip-rule="evenodd" fill="none" stroke="#000000" stroke-linecap="square" stroke-linejoin="round" stroke-miterlimit="10" x1="147.56" y1="296.774" x2="150.56" y2="301.774"/>
			
				<line fill-rule="evenodd" clip-rule="evenodd" fill="none" stroke="#000000" stroke-linecap="square" stroke-linejoin="round" stroke-miterlimit="10" x1="143.56" y1="299.774" x2="146.56" y2="304.774"/>
			
				<line fill-rule="evenodd" clip-rule="evenodd" fill="none" stroke="#000000" stroke-linecap="square" stroke-linejoin="round" stroke-miterlimit="10" x1="137.56" y1="302.774" x2="140.56" y2="307.774"/>
		</g>
		<g>
			
				<line fill-rule="evenodd" clip-rule="evenodd" fill="none" stroke="#000000" stroke-linecap="square" stroke-linejoin="round" stroke-miterlimit="10" x1="85.56" y1="280.774" x2="82.56" y2="285.774"/>
			
				<line fill-rule="evenodd" clip-rule="evenodd" fill="none" stroke="#000000" stroke-linecap="square" stroke-linejoin="round" stroke-miterlimit="10" x1="91.56" y1="283.774" x2="88.56" y2="288.774"/>
			
				<line fill-rule="evenodd" clip-rule="evenodd" fill="none" stroke="#000000" stroke-linecap="square" stroke-linejoin="round" stroke-miterlimit="10" x1="95.56" y1="286.774" x2="92.56" y2="291.774"/>
			
				<line fill-rule="evenodd" clip-rule="evenodd" fill="none" stroke="#000000" stroke-linecap="square" stroke-linejoin="round" stroke-miterlimit="10" x1="101.56" y1="289.774" x2="98.56" y2="294.774"/>
			
				<line fill-rule="evenodd" clip-rule="evenodd" fill="none" stroke="#000000" stroke-linecap="square" stroke-linejoin="round" stroke-miterlimit="10" x1="106.56" y1="293.774" x2="103.56" y2="298.774"/>
			
				<line fill-rule="evenodd" clip-rule="evenodd" fill="none" stroke="#000000" stroke-linecap="square" stroke-linejoin="round" stroke-miterlimit="10" x1="112.56" y1="296.774" x2="109.56" y2="301.774"/>
			
				<line fill-rule="evenodd" clip-rule="evenodd" fill="none" stroke="#000000" stroke-linecap="square" stroke-linejoin="round" stroke-miterlimit="10" x1="116.56" y1="299.774" x2="113.56" y2="304.774"/>
			
				<line fill-rule="evenodd" clip-rule="evenodd" fill="none" stroke="#000000" stroke-linecap="square" stroke-linejoin="round" stroke-miterlimit="10" x1="122.56" y1="302.774" x2="119.56" y2="307.774"/>
		</g>
		<g>
			
				<path fill-rule="evenodd" clip-rule="evenodd" fill="none" stroke="#69ABED" stroke-width="2" stroke-linecap="round" stroke-linejoin="round" stroke-miterlimit="10" d="
				M116.43,262.704c3.2-2.27,12.44,0.21,20.65,5.53s12.28,11.48,9.08,13.75c-3.19,2.27-12.44-0.21-20.65-5.53
				C117.3,271.134,113.24,264.984,116.43,262.704z"/>
			<path fill="#68AAED" stroke="#69ABED" stroke-linecap="round" stroke-linejoin="round" stroke-miterlimit="10" d="
				M141.09,263.804c0.8,0.17,1.98,0.03,2.84-0.65c0.85-0.68,0.31-1.4-1.06-1.72c-2.8-0.66-5.88,0.88-8.69,2.55
				c-0.81,0.49-1.6,0.99-2.36,1.44c-5.78,3.52-9.73,5.89-14.26,9.47c-0.93,0.74-1.72,1.69-3.37,2.03c-1.3-0.59-0.18-1-1.64-1.34
				c-2.31-0.52-4.39,1.52-3.08,2.21c0.4,0.21,0.84,0.32,1.51,0.4c3.27,0.39,6.59-1.7,9.99-3.76c6.36-3.86,9.52-5.82,14.84-9.86
				l0.06-0.04c0.97-0.75,2.46-2.05,3.41-1.96C140.21,262.664,139.85,263.544,141.09,263.804z"/>
			<path fill="#68AAED" stroke="#69ABED" stroke-linecap="round" stroke-linejoin="round" stroke-miterlimit="10" d="M150.6,266.444
				c-2.8-0.67-5.88,0.88-8.7,2.56c-0.81,0.48-1.6,0.97-2.35,1.44c-5.79,3.5-9.76,5.9-14.3,9.49c-0.92,0.73-1.71,1.68-3.37,2.03
				c-1.29-0.6-0.17-1.01-1.64-1.34c-2.3-0.52-4.39,1.52-3.08,2.2c0.41,0.22,0.84,0.32,1.52,0.4c3.27,0.39,6.58-1.7,9.99-3.76
				c6.35-3.85,9.54-5.85,14.87-9.88l0.06-0.04c0.96-0.74,2.46-2.05,3.41-1.96c0.92,0.1,0.56,0.97,1.81,1.23
				c0.8,0.17,1.98,0.03,2.83-0.65C152.5,267.494,151.96,266.764,150.6,266.444z"/>
		</g>
	</g>
	<path fill-rule="evenodd" clip-rule="evenodd" fill="#6864FF" d="M306.16,47.874l120.59,70.08c4.37,2.54,7.92,9.18,7.92,14.83
		v115.92c0,5.64-3.55,8.16-7.92,5.62l-120.59-70.08c-4.38-2.54-7.92-9.19-7.92-14.83V53.494
		C298.24,47.844,301.78,45.334,306.16,47.874z"/>
	<path fill-rule="evenodd" clip-rule="evenodd" fill="#B3B8FE" d="M304.59,49.444l120.59,70.08c4.37,2.54,7.92,9.18,7.92,14.83
		v115.91c0,5.65-3.55,8.17-7.92,5.63l-120.59-70.09c-4.37-2.54-7.92-9.18-7.92-14.83V55.064
		C296.67,49.414,300.22,46.894,304.59,49.444z"/>
	<path fill-rule="evenodd" clip-rule="evenodd" fill="#1E46BA" d="M146.56,19.954l-99,48.08c-3.59,1.75-6.5,6.3-6.5,10.18v79.52
		c0,3.88,2.91,5.61,6.5,3.86l99-48.08c3.59-1.74,6.5-6.3,6.5-10.18v-79.52C153.06,19.934,150.15,18.214,146.56,19.954z"/>
	<path fill-rule="evenodd" clip-rule="evenodd" fill="#C7E2F7" d="M146.85,24.924l-94.58,45.72c-3.43,1.66-6.21,6-6.21,9.68v75.64
		c0,3.68,2.78,5.32,6.21,3.66l94.58-45.72c3.43-1.66,6.21-5.99,6.21-9.68v-75.63C153.06,24.904,150.28,23.264,146.85,24.924z"/>
	<g>
		<polygon fill-rule="evenodd" clip-rule="evenodd" fill="#2C60A6" points="94.23,65.574 71.06,89.504 71.06,95.274 119.06,68.044 
			119.06,62.274 		"/>
		<polygon fill-rule="evenodd" clip-rule="evenodd" fill="#6CB3EB" points="73.25,93.714 83.81,87.904 83.83,92.544 73.25,97.844 		
			"/>
		<polygon fill-rule="evenodd" clip-rule="evenodd" fill="#8EC5EF" points="109.06,76.934 116.06,73.274 115.95,100.934 
			109.06,103.274 		"/>
		<polygon fill-rule="evenodd" clip-rule="evenodd" fill="#6CB3EB" points="108.08,74.084 118.06,68.274 118.04,73.024 
			108.06,78.274 		"/>
		<polygon fill-rule="evenodd" clip-rule="evenodd" fill="#8EC5EF" points="75.12,96.304 82.06,93.274 81.89,118.954 75.06,123.274 
					"/>
		<polygon fill-rule="evenodd" clip-rule="evenodd" fill="#2C60A6" points="72.06,124.204 118.06,97.274 117.96,102.104 
			72.06,128.274 		"/>
	</g>
	<g>
		<path fill-rule="evenodd" clip-rule="evenodd" fill="#A95502" d="M126.93,17.224c11.15-15.54,27.22-21.44,35.9-13.28
			c8.66,8.14,6.77,27.25-4.26,42.77c-11.08,15.59-27.2,21.71-35.99,13.59C113.76,52.154,115.72,32.824,126.93,17.224z"/>
		<g>
			<path fill-rule="evenodd" clip-rule="evenodd" fill="#DD7D13" d="M136.951,64.772c-3.379,0-6.257-1.077-8.552-3.2
				c-8.275-7.647-6.238-26.081,4.54-41.094c7.232-10.071,16.827-16.328,25.039-16.328c3.419,0,6.321,1.099,8.625,3.265
				c8.113,7.617,6.114,25.923-4.456,40.809C154.894,58.432,145.238,64.772,136.951,64.772z"/>
			<path fill="#FFC17D" d="M157.977,5.651L157.977,5.651c3.024,0,5.581,0.961,7.6,2.859c7.458,7.002,5.327,24.791-4.652,38.845
				c-6.872,9.669-16.282,15.917-23.974,15.917c-2.99,0-5.524-0.942-7.535-2.802c-7.607-7.029-5.436-24.942,4.741-39.117
				C141.007,11.815,150.357,5.651,157.977,5.651 M157.977,2.651c-8.372,0-18.499,6.149-26.257,16.953
				c-11.2,15.6-13.16,34.92-4.34,43.07c2.641,2.442,5.942,3.599,9.571,3.599c8.449,0,18.668-6.272,26.419-17.179
				c11.02-15.52,12.92-34.64,4.26-42.77C164.981,3.833,161.648,2.651,157.977,2.651L157.977,2.651z"/>
		</g>
		<g>
			
				<path fill-rule="evenodd" clip-rule="evenodd" fill="none" stroke="#FFFFFF" stroke-linecap="round" stroke-linejoin="round" stroke-miterlimit="10" d="
				M134.35,42.684c-2.23-2.7,1.53-8.87,8.52-13.82c7.09-5.02,14.67-6.78,16.81-3.9c2.12,2.85-1.93,9.11-8.93,13.95
				C143.85,43.684,136.56,45.364,134.35,42.684z"/>
			
				<path fill="#FFFFFF" stroke="#FFFFFF" stroke-width="0.75" stroke-linecap="round" stroke-linejoin="round" stroke-miterlimit="10" d="
				M145.87,22.154c0.52-0.3,1.01-1.06,0.95-2.08c-0.07-1.02-0.85-1.32-1.77-0.84c-1.87,0.98-2.31,3.93-2.51,6.84
				c-0.05,0.84-0.09,1.68-0.14,2.47c-0.37,6.04-0.63,10.15-0.33,15.56c0.07,1.12,0.36,2.32-0.22,3.51
				c-1.08,0.21-0.81-0.73-1.79-0.21c-1.52,0.83-1.1,3.64,0.05,3.49c0.35-0.05,0.65-0.2,1.04-0.5c1.92-1.45,2.07-4.99,2.29-8.53
				c0.41-6.64,0.58-9.98,0.34-16.2v-0.07c-0.05-1.14-0.24-3.03,0.3-3.47C144.61,21.704,145.06,22.614,145.87,22.154z"/>
			<path fill="#FFFFFF" stroke="#FFFFFF" stroke-linecap="round" stroke-linejoin="round" stroke-miterlimit="10" d="M152.51,17.144
				c-1.87,0.97-2.31,3.92-2.5,6.84c-0.06,0.84-0.1,1.67-0.15,2.46c-0.37,6.04-0.64,10.18-0.32,15.6c0.06,1.11,0.35,2.32-0.23,3.51
				c-1.08,0.21-0.81-0.73-1.78-0.21c-1.53,0.83-1.11,3.65,0.04,3.5c0.36-0.05,0.65-0.2,1.05-0.5c1.91-1.47,2.06-4.99,2.28-8.55
				c0.41-6.63,0.58-10,0.34-16.22v-0.07c-0.05-1.14-0.24-3.03,0.3-3.47c0.53-0.43,0.98,0.49,1.79,0.02
				c0.52-0.29,1.01-1.06,0.95-2.08C154.22,16.964,153.43,16.664,152.51,17.144z"/>
		</g>
	</g>
	<g>
		<polygon opacity="0.2" fill-rule="evenodd" clip-rule="evenodd" fill="#788DFA" points="339.06,78.274 419.06,128.014 
			419.06,222.274 339.06,172.534 		"/>
		<polygon opacity="0.3" fill-rule="evenodd" clip-rule="evenodd" fill="#788DFA" points="328.06,80.274 408.06,130.014 
			408.06,224.274 328.06,174.534 		"/>
		<polygon opacity="0.5" fill-rule="evenodd" clip-rule="evenodd" fill="#788DFA" points="318.06,81.274 398.06,131.014 
			398.06,225.274 318.06,175.534 		"/>
		<polygon fill-rule="evenodd" clip-rule="evenodd" fill="#788DFA" points="306.06,82.274 388.06,132.014 388.06,226.274 
			306.06,176.534 		"/>
		<g>
			<polygon fill-rule="evenodd" clip-rule="evenodd" fill="#FFFFFF" points="311.92,98.744 338.61,115.184 338.61,117.724 
				311.92,101.284 			"/>
			<polygon fill-rule="evenodd" clip-rule="evenodd" fill="#FFFFFF" points="342,117.274 361.07,129.014 361.07,131.564 
				342,119.814 			"/>
			<polygon fill-rule="evenodd" clip-rule="evenodd" fill="#FFFFFF" points="311.92,109.754 344.12,129.594 344.12,132.134 
				311.92,112.294 			"/>
			<polygon fill-rule="evenodd" clip-rule="evenodd" fill="#FFFFFF" points="311.92,120.344 344.12,140.184 344.12,142.724 
				311.92,122.894 			"/>
			<polygon fill-rule="evenodd" clip-rule="evenodd" fill="#FFFFFF" points="311.92,130.514 352.17,155.314 352.17,157.854 
				311.92,133.054 			"/>
			<polygon fill-rule="evenodd" clip-rule="evenodd" fill="#FFFFFF" points="311.92,141.534 365.73,174.684 365.73,177.224 
				311.92,144.074 			"/>
			<polygon fill-rule="evenodd" clip-rule="evenodd" fill="#FFFFFF" points="348.36,132.204 369.12,144.994 369.12,147.534 
				348.36,134.744 			"/>
			<path fill-rule="evenodd" clip-rule="evenodd" fill="#FFFFFF" d="M314.31,155.714l26.57,16.37c1.09,0.67,1.97,2.09,1.97,3.18
				v9.19c0,1.09-0.88,1.43-1.97,0.76l-26.57-16.37c-1.09-0.67-1.97-2.09-1.97-3.18v-9.19
				C312.34,155.384,313.22,155.044,314.31,155.714z"/>
			<path fill-rule="evenodd" clip-rule="evenodd" fill="#FFFFFF" d="M351.17,178.424l26.57,16.36c1.09,0.67,1.97,2.1,1.97,3.19v9.19
				c0,1.09-0.88,1.43-1.97,0.76l-26.57-16.37c-1.08-0.67-1.97-2.09-1.97-3.18v-9.19C349.2,178.094,350.09,177.754,351.17,178.424z"
				/>
		</g>
	</g>
	<g>
		<path fill-rule="evenodd" clip-rule="evenodd" fill="#333333" d="M65.46,90.874l-54.8,32.98c-1.99,1.2-3.6,3.77-3.6,5.75v40.65
			c0,1.98,1.61,2.61,3.6,1.42l54.8-32.98c1.99-1.2,3.6-3.77,3.6-5.75v-40.65C69.06,90.314,67.45,89.684,65.46,90.874z"/>
		<polygon fill-rule="evenodd" clip-rule="evenodd" fill="#D2D2D2" points="7.06,135.604 7.06,144.254 69.06,106.944 69.06,98.294 
					"/>
		<polygon fill-rule="evenodd" clip-rule="evenodd" fill="#D2D2D2" points="11.12,150.354 11.12,152.224 20.01,147.174 
			20.02,145.364 		"/>
		<polygon fill-rule="evenodd" clip-rule="evenodd" fill="#D2D2D2" points="22.12,144.354 22.12,146.224 31.01,141.174 
			31.02,139.364 		"/>
		<polygon fill-rule="evenodd" clip-rule="evenodd" fill="#D2D2D2" points="33.12,138.354 33.12,140.224 42.01,135.174 
			42.02,133.364 		"/>
		<polygon fill-rule="evenodd" clip-rule="evenodd" fill="#D2D2D2" points="11.12,155.354 11.12,157.224 25.99,148.994 26,147.184 
					"/>
		<polygon fill-rule="evenodd" clip-rule="evenodd" fill="#D2D2D2" points="28.12,146.354 28.12,148.224 37.01,143.174 
			37.02,141.364 		"/>
		<polygon fill-rule="evenodd" clip-rule="evenodd" fill="#D2D2D2" points="44.12,132.354 44.12,134.224 53.01,129.174 
			53.02,127.364 		"/>
		<polygon fill-rule="evenodd" clip-rule="evenodd" fill="#D2D2D2" points="39.12,141.354 39.12,143.224 48.01,138.174 
			48.02,136.364 		"/>
	</g>
</g>
</svg>
