<?xml version="1.0" encoding="utf-8"?>
<!-- Generator: Adobe Illustrator 16.0.0, SVG Export Plug-In . SVG Version: 6.00 Build 0)  -->
<!DOCTYPE svg PUBLIC "-//W3C//DTD SVG 1.1//EN" "http://www.w3.org/Graphics/SVG/1.1/DTD/svg11.dtd">
<svg version="1.1" id="层_1" xmlns="http://www.w3.org/2000/svg" xmlns:xlink="http://www.w3.org/1999/xlink" x="0px" y="0px"
	 width="363.002px" height="287.458px" viewBox="0 0 363.002 287.458" enable-background="new 0 0 363.002 287.458"
	 xml:space="preserve">
<g>
	<g>
		<path fill-rule="evenodd" clip-rule="evenodd" fill="#4E9DF4" d="M0.002,197.089c0.51-49.71,81.97-89.9,181.96-89.9
			c99.99,0,181.04,40.19,181.04,89.9c0,49.85-81.47,90.37-181.96,90.37C80.542,287.458-0.507,246.939,0.002,197.089z"/>
		<path fill-rule="evenodd" clip-rule="evenodd" fill="#A3C9F5" d="M0.112,178.199c0.5-49.68,81.94-89.85,181.9-89.85
			c99.96,0,180.99,40.17,180.99,89.85c0,49.83-81.44,90.31-181.91,90.31C80.623,268.509-0.397,228.029,0.112,178.199z"/>
		<path fill-rule="evenodd" clip-rule="evenodd" fill="#D1E4FA" d="M40.252,170.629c0.35-39,64.29-70.55,142.81-70.55
			s142.14,31.55,142.1,70.55c-0.04,39.08-63.98,70.83-142.82,70.83C103.512,241.458,39.893,209.708,40.252,170.629z"/>
	</g>
	<path fill-rule="evenodd" clip-rule="evenodd" fill="#2459BD" d="M124.692,7.799l53.9-7.68c6.38-0.91,11.55,3.51,11.55,9.87v135.3
		c0,6.37-5.17,12.26-11.55,13.17l-53.9,7.69c-6.38,0.9-11.55-3.52-11.55-9.88v-135.3C113.143,14.599,118.313,8.708,124.692,7.799z"
		/>
	<path fill-rule="evenodd" clip-rule="evenodd" fill="#689BFF" d="M129.413,12.499l53.9-7.68c6.38-0.91,11.55,3.51,11.55,9.88v135.3
		c0,6.36-5.17,12.26-11.55,13.17l-53.9,7.68c-6.38,0.91-11.55-3.51-11.55-9.88v-135.3C117.862,19.309,123.032,13.409,129.413,12.499
		z"/>
	<path fill-rule="evenodd" clip-rule="evenodd" fill="#2459BD" d="M132.782,61.649l69.16-11.32c4.76-0.78,8.63,2.34,8.63,6.97v39.09
		c0,4.63-3.87,9.01-8.63,9.79l-69.16,11.33c-4.77,0.78-8.64-2.34-8.64-6.97v-39.09C124.143,66.819,128.012,62.429,132.782,61.649z"
		/>
	<path fill-rule="evenodd" clip-rule="evenodd" fill="#A3C9F5" d="M135.922,64.789l69.16-11.32c4.77-0.78,8.63,2.33,8.63,6.96v39.1
		c0,4.63-3.86,9.01-8.63,9.79l-69.16,11.32c-4.77,0.78-8.63-2.33-8.63-6.96v-39.1C127.292,69.949,131.152,65.569,135.922,64.789z"/>
	<path fill-rule="evenodd" clip-rule="evenodd" fill="#2459BD" d="M156.353,76.309l22.01-3.73c3.04-0.51,5.5,1.54,5.5,4.59v11.04
		c0,3.05-2.46,5.94-5.5,6.45l-22.01,3.73c-3.03,0.52-5.49-1.54-5.49-4.58v-11.05C150.862,79.719,153.322,76.829,156.353,76.309z"/>
	<path fill-rule="evenodd" clip-rule="evenodd" fill="#689BFF" d="M159.493,77.879l22.02-3.73c3.03-0.52,5.49,1.54,5.49,4.59v11.04
		c0,3.05-2.46,5.94-5.49,6.45l-22.02,3.73c-3.03,0.52-5.49-1.54-5.49-4.59v-11.04C154.002,81.279,156.462,78.389,159.493,77.879z"/>
	<linearGradient id="SVGID_1_" gradientUnits="userSpaceOnUse" x1="164.9912" y1="79.8564" x2="239.8032" y2="209.4347">
		<stop  offset="0" style="stop-color:#FFFFFF"/>
		<stop  offset="1" style="stop-color:#FFFFFF;stop-opacity:0"/>
	</linearGradient>
	<path fill-rule="evenodd" clip-rule="evenodd" fill="url(#SVGID_1_)" d="M171.925,77.752l119.227,72.286l-115.58,96.48
		l-16.86-156.61c0,0-0.71-4.284,3.15-7.83C166.212,78.083,171.925,77.752,171.925,77.752z"/>
	<g>
		<linearGradient id="SVGID_2_" gradientUnits="userSpaceOnUse" x1="233.3623" y1="235.2148" x2="233.3623" y2="158.3921">
			<stop  offset="0" style="stop-color:#FF9A44"/>
			<stop  offset="1" style="stop-color:#FFB45B"/>
		</linearGradient>
		<path fill-rule="evenodd" clip-rule="evenodd" fill="url(#SVGID_2_)" d="M193.752,171.429l79.22-12.9
			c5.46-0.89,9.89,2.66,9.89,7.93v44.56c0,5.27-4.43,10.27-9.89,11.16l-79.22,12.9c-5.46,0.89-9.89-2.67-9.89-7.94v-44.55
			C183.862,177.319,188.292,172.319,193.752,171.429z"/>
		<polygon fill-rule="evenodd" clip-rule="evenodd" fill="#FFFFFF" points="242.853,183.069 268.623,178.869 268.623,182.929 
			242.853,187.129 		"/>
		<polygon fill-rule="evenodd" clip-rule="evenodd" fill="#FFFFFF" points="242.853,193.229 268.623,189.029 268.623,193.089 
			242.853,197.289 		"/>
		<polygon fill-rule="evenodd" clip-rule="evenodd" fill="#FFFFFF" points="242.853,204.059 268.623,199.859 268.623,203.919 
			242.853,208.119 		"/>
		<polygon fill-rule="evenodd" clip-rule="evenodd" fill="#FFFFFF" points="197.422,184.369 231.322,178.849 231.322,216.769 
			197.422,222.289 		"/>
		<path fill-rule="evenodd" clip-rule="evenodd" fill="#040404" d="M206.853,200.479c0-3.51,2.89-6.83,6.46-7.41
			c3.57-0.59,6.46,1.79,6.46,5.31s-2.89,6.83-6.46,7.42C209.743,206.379,206.853,203.999,206.853,200.479z"/>
		<path fill-rule="evenodd" clip-rule="evenodd" fill="#040404" d="M202.882,220.769c-0.07-0.59-0.02-2.82-0.02-3.48
			c0-4.79,6.41-11.78,11-12.53c4.59-0.75,10.66,4.18,10.66,8.97c0,0.73,0.04,2.81,0.01,3.47L202.882,220.769z"/>
	</g>
	
		<polyline fill-rule="evenodd" clip-rule="evenodd" fill="none" stroke="#FFFFFF" stroke-width="2" stroke-linecap="round" stroke-linejoin="round" stroke-miterlimit="10" points="
		176.002,231.019 176.002,245.129 191.542,242.869 	"/>
	
		<polyline fill-rule="evenodd" clip-rule="evenodd" fill="none" stroke="#FFFFFF" stroke-width="2" stroke-linecap="round" stroke-linejoin="round" stroke-miterlimit="10" points="
		289.143,163.599 289.143,149.489 273.433,151.749 	"/>
	
		<polyline fill-rule="evenodd" clip-rule="evenodd" fill="none" stroke="#FFFFFF" stroke-width="2" stroke-linecap="round" stroke-linejoin="round" stroke-miterlimit="10" points="
		176.002,182.409 176.002,168.299 190.732,163.339 	"/>
	
		<polyline fill-rule="evenodd" clip-rule="evenodd" fill="none" stroke="#FFFFFF" stroke-width="2" stroke-linecap="round" stroke-linejoin="round" stroke-miterlimit="10" points="
		289.143,210.639 289.143,224.159 270.292,227.879 	"/>
</g>
</svg>
