<?xml version="1.0" encoding="utf-8"?>
<!-- Generator: Adobe Illustrator 16.0.0, SVG Export Plug-In . SVG Version: 6.00 Build 0)  -->
<!DOCTYPE svg PUBLIC "-//W3C//DTD SVG 1.1//EN" "http://www.w3.org/Graphics/SVG/1.1/DTD/svg11.dtd">
<svg version="1.1" id="层_1" xmlns="http://www.w3.org/2000/svg" xmlns:xlink="http://www.w3.org/1999/xlink" x="0px" y="0px"
	 width="351.52px" height="295.94px" viewBox="0 0 351.52 295.94" enable-background="new 0 0 351.52 295.94" xml:space="preserve">
<g>
	<g>
		<polygon fill-rule="evenodd" clip-rule="evenodd" fill="#D1E4FA" points="122.46,128.04 212.88,211.75 300.24,128.04 		"/>
		<polygon fill-rule="evenodd" clip-rule="evenodd" fill="#94C1F3" points="168.49,137.54 212.94,211.99 212.94,137.54 		"/>
		<polygon fill-rule="evenodd" clip-rule="evenodd" fill="#83B7F1" points="260.56,137.54 212.94,211.99 212.94,137.54 		"/>
		<polygon fill-rule="evenodd" clip-rule="evenodd" fill="#94C1F3" points="122.46,128.04 168.385,78.93 260.455,78.93 
			300.24,128.04 260.56,137.54 168.49,137.54 		"/>
		<rect x="168.385" y="78.93" fill-rule="evenodd" clip-rule="evenodd" fill="#4E9DF4" width="92.07" height="58.61"/>
		<polygon opacity="0.2" fill-rule="evenodd" clip-rule="evenodd" fill="#EFEFEF" points="168.49,78.93 260.35,78.93 212.94,137.54 
					"/>
		<polygon opacity="0.2" fill-rule="evenodd" clip-rule="evenodd" fill="#EFEFEF" points="168.72,137.54 260.56,137.54 
			214.53,78.93 		"/>
	</g>
	<g>
		<path fill-rule="evenodd" clip-rule="evenodd" fill="#4E9DF4" d="M5.5,183.39l76.99,0.15c0,0,0.12-0.95,4.76,4.74
			c4.65,5.7,3.17,9.5,3.17,9.5v72.82c0,0-0.48,1.94-3.17,4.75s-4.76,4.75-4.76,4.75H5.3L5.5,183.39z"/>
		<path fill-rule="evenodd" clip-rule="evenodd" fill="#D1A646" d="M173.26,250h61.9c0,0,5.46-2.55,6.35-7.92
			c0.89-5.36,0-4.75,0-4.75l-61.91,4.75L173.26,250z"/>
		<path fill-rule="evenodd" clip-rule="evenodd" fill="#F3D083" d="M90.71,202.48h68.26c0,0,12.79,1.5,15.87,4.76
			c3.09,3.26,9.53,9.5,9.53,9.5h49.2c0,0,10.31,3.8,9.53,14.26c-0.78,10.46-9.53,11.08-9.53,11.08h-52.38l-6.35,6.34h61.91
			l6.35-6.34l50.79-17.42c0,0,4.41-3.17,11.11-3.17c6.71,0,12.36,4.7,12.7,9.51c0.35,4.8,0,7.92,0,7.92s-98.31,57.02-115.87,57.02
			S90.71,264.26,90.71,264.26V202.48z"/>
	</g>
	<g>
		<path fill-rule="evenodd" clip-rule="evenodd" fill="#90A8CE" d="M72.77,115.63h12.7c2.63,0,4.76,2.13,4.76,4.75
			c0,2.63-2.13,4.76-4.76,4.76h-12.7c-2.63,0-4.76-2.13-4.76-4.76C68.01,117.76,70.14,115.63,72.77,115.63z"/>
		<path fill-rule="evenodd" clip-rule="evenodd" fill="#90A8CE" d="M206.11,17.42V4.75c0-2.62,2.13-4.75,4.76-4.75
			s4.76,2.13,4.76,4.75v12.67c0,2.63-2.13,4.76-4.76,4.76S206.11,20.05,206.11,17.42z"/>
		<path fill-rule="evenodd" clip-rule="evenodd" fill="#90A8CE" d="M84.79,167.11l10.89-6.33c2.25-1.32,5.14-0.25,6.46,2.37
			c1.31,2.63,0.55,5.82-1.7,7.13l-10.89,6.34c-2.25,1.31-5.14,0.25-6.46-2.38C81.78,171.62,82.54,168.43,84.79,167.11z"/>
		<path fill-rule="evenodd" clip-rule="evenodd" fill="#90A8CE" d="M84.79,75.24l10.89,6.34c2.25,1.31,5.14,0.24,6.46-2.38
			c1.31-2.62,0.55-5.82-1.7-7.13l-10.89-6.33c-2.25-1.32-5.14-0.25-6.46,2.37C81.78,70.74,82.54,73.93,84.79,75.24z"/>
		<path fill-rule="evenodd" clip-rule="evenodd" fill="#90A8CE" d="M126.27,25.35l6.39,11.47c1.41,2.54,4.48,3.18,6.84,1.37
			c2.37-1.82,3.03-5.36,1.51-7.84l-6.88-11.22c-1.34-2.18-4.13-2.53-6.26-0.83C125.75,19.99,125.03,23.12,126.27,25.35z"/>
		<path fill-rule="evenodd" clip-rule="evenodd" fill="#90A8CE" d="M346.76,114.05h-12.7c-2.63,0-4.77,2.13-4.77,4.75
			c0,2.63,2.14,4.75,4.77,4.75h12.7c2.63,0,4.76-2.12,4.76-4.75C351.52,116.18,349.39,114.05,346.76,114.05z"/>
		<path fill-rule="evenodd" clip-rule="evenodd" fill="#90A8CE" d="M334.74,165.53l-10.89-6.34c-2.25-1.31-5.14-0.25-6.46,2.38
			c-1.31,2.62-0.55,5.81,1.7,7.13l10.89,6.33c2.25,1.32,5.14,0.25,6.46-2.37C337.75,170.03,336.99,166.84,334.74,165.53z"/>
		<path fill-rule="evenodd" clip-rule="evenodd" fill="#90A8CE" d="M334.74,73.66l-10.89,6.33c-2.25,1.31-5.14,0.25-6.46-2.37
			c-1.31-2.63-0.55-5.82,1.7-7.13l10.89-6.34c2.25-1.31,5.14-0.25,6.46,2.38C337.75,69.15,336.99,72.34,334.74,73.66z"/>
		<path fill-rule="evenodd" clip-rule="evenodd" fill="#90A8CE" d="M292.95,20.6l-6.41,11.47c-1.42,2.54-4.49,3.18-6.85,1.37
			c-2.37-1.82-3.04-5.36-1.51-7.84l6.9-11.22c1.34-2.18,4.14-2.53,6.27-0.83C293.47,15.24,294.2,18.37,292.95,20.6z"/>
	</g>
</g>
</svg>
