<?xml version="1.0" encoding="utf-8"?>
<!-- Generator: Adobe Illustrator 16.0.0, SVG Export Plug-In . SVG Version: 6.00 Build 0)  -->
<!DOCTYPE svg PUBLIC "-//W3C//DTD SVG 1.1//EN" "http://www.w3.org/Graphics/SVG/1.1/DTD/svg11.dtd">
<svg version="1.1" id="层_1" xmlns="http://www.w3.org/2000/svg" xmlns:xlink="http://www.w3.org/1999/xlink" x="0px" y="0px"
	 width="505px" height="352px" viewBox="0 0 505 352" enable-background="new 0 0 505 352" xml:space="preserve">
<polygon fill-rule="evenodd" clip-rule="evenodd" fill="none" stroke="#153EB7" stroke-width="2" stroke-linecap="round" stroke-linejoin="round" stroke-miterlimit="10" points="
	0.015,153.915 167.475,263.815 381.015,126.145 210.715,16.815 "/>
<polyline fill-rule="evenodd" clip-rule="evenodd" fill="none" stroke="#1741B8" stroke-width="2" stroke-linecap="round" stroke-linejoin="round" stroke-miterlimit="10" points="
	269.725,291.695 245.015,275.815 324.604,223.735 305.335,211.755 "/>
<polyline fill-rule="evenodd" clip-rule="evenodd" fill="none" stroke="#1741B8" stroke-width="2" stroke-linecap="round" stroke-linejoin="round" stroke-miterlimit="10" points="
	430.255,181.415 407.445,167.815 322.995,223.845 346.255,239.415 "/>
<g>
	<path fill-rule="evenodd" clip-rule="evenodd" fill="#964930" d="M76.215,183.335l37.87,26.17c2.55,1.76,2.47,4.51-0.15,6.14
		l-21.81,13.59c-2.54,1.59-6.65,1.5-9.2-0.2l-37.87-25.2c-2.68-1.78-2.8-4.59-0.26-6.27l21.81-14.44
		C69.225,181.385,73.535,181.485,76.215,183.335z"/>
	<g>
		<linearGradient id="SVGID_1_" gradientUnits="userSpaceOnUse" x1="92.4438" y1="226.5654" x2="66.0901" y2="180.9194">
			<stop  offset="0" style="stop-color:#FFB45B"/>
			<stop  offset="1" style="stop-color:#FF9A44"/>
		</linearGradient>
		<path fill-rule="evenodd" clip-rule="evenodd" fill="url(#SVGID_1_)" d="M76.215,180.845l37.87,26.17
			c2.55,1.76,2.47,4.51-0.15,6.14l-21.81,13.59c-2.54,1.59-6.65,1.5-9.2-0.2l-37.87-25.2c-2.68-1.78-2.8-4.59-0.26-6.27l21.81-14.44
			C69.225,178.905,73.535,178.995,76.215,180.845z"/>
		<polygon fill-rule="evenodd" clip-rule="evenodd" fill="#FFFFFF" points="90.005,203.015 102.195,211.335 100.105,212.655 
			87.915,204.345 		"/>
		<polygon fill-rule="evenodd" clip-rule="evenodd" fill="#FFFFFF" points="84.795,206.345 96.985,214.625 94.905,215.925 
			82.715,207.675 		"/>
		<polygon fill-rule="evenodd" clip-rule="evenodd" fill="#FFFFFF" points="79.605,209.655 91.795,217.875 89.735,219.175 
			77.545,210.975 		"/>
		<polygon fill-rule="evenodd" clip-rule="evenodd" fill="#FFFFFF" points="71.075,184.185 87.735,195.675 69.045,207.685 
			52.385,196.445 		"/>
		<path fill-rule="evenodd" clip-rule="evenodd" fill="#040404" d="M67.675,195.785c1.72-1.13,4.52-1.09,6.25,0.09
			c1.72,1.18,1.72,3.03-0.01,4.15c-1.72,1.11-4.5,1.07-6.23-0.1C65.965,198.755,65.955,196.905,67.675,195.785z"/>
		<path fill-rule="evenodd" clip-rule="evenodd" fill="#040404" d="M56.295,200.445c0.27-0.21,1.43-0.94,1.76-1.16
			c2.44-1.59,8.57-1.49,10.78,0c2.2,1.49,2.07,5.41-0.37,6.98c-0.38,0.25-1.42,0.95-1.77,1.15L56.295,200.445z"/>
	</g>
</g>
<g>
	<g>
		<polygon fill-rule="evenodd" clip-rule="evenodd" fill="#7CB6F9" points="350.045,117.795 375.995,134.785 401.965,117.795 
			376.535,100.845 		"/>
		<polygon fill-rule="evenodd" clip-rule="evenodd" fill="#5C7AF6" points="350.015,117.815 376.015,134.815 376.015,144.815 
			350.035,127.795 		"/>
		<polygon fill-rule="evenodd" clip-rule="evenodd" fill="#3E43C2" points="358.045,117.845 376.015,129.795 395.015,117.865 
			376.645,105.815 		"/>
		<polygon fill-rule="evenodd" clip-rule="evenodd" fill="#312AAA" points="402.015,117.815 376.015,134.815 376.015,144.815 
			401.995,127.795 		"/>
	</g>
	<g>
		<path fill-rule="evenodd" clip-rule="evenodd" fill="#DFE0F0" d="M376.005,89.865l-11.83,4.54c0,0-0.71,9.04,0.85,14.62
			c2.24,8.05,10.98,9.79,10.98,9.79V89.865z"/>
		<path fill-rule="evenodd" clip-rule="evenodd" fill="#C6C7E5" d="M376.024,89.815l11.83,4.53c0,0,0.71,9.05-0.85,14.62
			c-2.24,8.05-10.98,9.8-10.98,9.8V89.815z"/>
		<path fill-rule="evenodd" clip-rule="evenodd" fill="#9FAFEB" d="M376.015,91.815l-9.8,3.5c0,0-0.67,7.55,0.45,12.26
			c1.609,6.76,9.35,8.24,9.35,8.24V91.815z"/>
		<path fill-rule="evenodd" clip-rule="evenodd" fill="#788EE3" d="M376.015,91.815l9.971,3.86c0,0,0.279,7.66-0.9,12.31
			c-1.72,6.74-9.07,7.83-9.07,7.83V91.815z"/>
		
			<polygon fill-rule="evenodd" clip-rule="evenodd" fill="none" stroke="#FFFFFF" stroke-linecap="round" stroke-linejoin="round" stroke-miterlimit="10" points="
			371.015,103.855 375.955,107.815 383.015,101.545 380.774,99.815 375.685,104.325 372.975,102.085 		"/>
	</g>
</g>
<g>
	<path fill-rule="evenodd" clip-rule="evenodd" fill="#75B2F3" d="M204.405,24.185c0,0,41.85-13.68,78.43,6.57
		c41.46,22.94,6.18,51.12,6.18,51.12l-120.16,69.93c0,0-48.54,22.87-93.1-4.25c-36.79-22.39-1.86-50.79-1.86-50.79
		s-25.64-15.79-10.75-38.12c19.24-28.88,73.88-23.83,73.88-23.83s8.64-13.55,29.25-16.08
		C189.015,15.945,204.405,24.185,204.405,24.185z"/>
	<path fill-rule="evenodd" clip-rule="evenodd" fill="#D9EAFA" d="M203.925,14.565c0,0,41.85-13.67,78.429,6.57
		c41.46,22.94,6.181,51.13,6.181,51.13l-120.16,69.92c0,0-48.54,22.87-93.1-4.25c-36.79-22.39-1.86-50.78-1.86-50.78
		s-25.64-15.79-10.75-38.13c19.24-28.88,73.88-23.82,73.88-23.82s8.64-13.56,29.25-16.09
		C188.535,6.325,203.925,14.565,203.925,14.565z"/>
	<path fill-rule="evenodd" clip-rule="evenodd" fill="#9EC8F7" d="M199.015,25.995c0,0,35.1-11.46,65.78,5.51
		c34.77,19.22,5.18,42.83,5.18,42.83l-100.77,58.59c0,0-40.71,19.15-78.08-3.57c-30.85-18.76-1.56-42.55-1.56-42.55
		s-21.51-13.23-9.02-31.94c16.14-24.19,61.97-19.96,61.97-19.96s7.24-11.35,24.52-13.47
		C186.115,19.085,199.015,25.995,199.015,25.995z"/>
	<path fill-rule="evenodd" clip-rule="evenodd" fill="#F5FAFF" d="M198.615,17.935c0,0,35.1-11.45,65.78,5.51
		c34.77,19.22,5.18,42.83,5.18,42.83l-100.77,58.59c0,0-40.71,19.16-78.08-3.57c-30.86-18.75-1.56-42.54-1.56-42.54
		s-21.51-13.23-9.02-31.95c16.14-24.19,61.96-19.96,61.96-19.96s7.24-11.35,24.53-13.47
		C185.705,11.035,198.615,17.935,198.615,17.935z"/>
</g>
<g>
	<g>
		<path fill-rule="evenodd" clip-rule="evenodd" fill="#A7C693" d="M196.015,8.815c0,0,0.48-2.57,7-3
			c12.2-0.8,17.7,15.26,18.33,16.1c0.62,0.85-13.33,9.9-13.33,9.9L196.015,8.815z"/>
		<path fill-rule="evenodd" clip-rule="evenodd" fill="#C4D8B6" d="M203.015,6.815c-0.43,0.71,1.83,2.04,2,3s0.16,1.93,1,2
			s-0.14-1.94,1-2s2.03,2.45,2,5s0.59,6.29,2,6s1.62-2.04,3-2s1.83,1.97,3,3s4,0,4,0s-6.78-10.2-9-12
			C208.155,6.685,203.445,6.105,203.015,6.815z"/>
	</g>
	<g>
		<path fill-rule="evenodd" clip-rule="evenodd" fill="#82B564" d="M194.015,49.815c0,0,16.89-32.02,32-32s9.04,11.04,13,15
			s8.9,10.33,14,11s13.8,1.44,14,5s-13.36,2.73-13.36,2.73s-5.45,0.78-5.94,2.88c-0.49,2.09,7.06,6.31,6.32,8.08
			c-0.75,1.76-9.42,0.85-15.02-0.69s-12.8-6.19-19-6s-19,4-19,4L194.015,49.815z"/>
		<path fill-rule="evenodd" clip-rule="evenodd" fill="#A0C787" d="M228.015,19.815c0,0,3.9,3.35,4,5s-2.85-1.7-3-1
			s10.63,10.02,9,12s-5.17-1.24-6,0s4.24,3.19,7,5s4.6,4.15,6,6s4.74,2.29,4,1s-5.86-4.44-4-5s3,0,3,0s-6.6-3.23-8-7
			s-6.52-12.52-8-14S228.015,19.815,228.015,19.815z"/>
		<path fill-rule="evenodd" clip-rule="evenodd" fill="#679947" d="M214.015,25.815c0,0,1.14-2.15,4-4s6.07-3.36,6-2s-2.63,1.62-2,2
			s3,0.93,2,2s-3.98-0.65-5,1s1.4,1.56,2,3s0,5.12-1,5s0.34-2.76-2-2s-1.53,2.12-5,2s-4.9-1.79-4-3s4.73-1.02,5-2
			S214.015,25.815,214.015,25.815z"/>
	</g>
	<g>
		<path fill-rule="evenodd" clip-rule="evenodd" fill="#5CAA33" d="M127.015,44.815c-2.44-1.54,1.5-7.68,5.36-9.34
			c3.85-1.66,12.31-6.55,14.11-7.8c1.81-1.25,17.46-27.58,33.81-27.49c18.11,0.1,26.56,28.68,28.72,30.63s9.87,4.52,13.07,4.94
			c3.19,0.42,11.41,6.47,13.19,6.78c2.13,0.37,8.75,1.09,8.74,3.28c-0.01,3.31-2.2,6.67-13.29,6.47c-11.1-0.2-18.86-1.21-19.71,0.53
			c-1.16,2.35,6.09,9.9,3,12c-5.21,3.54-19.13-4.16-24.43-4.08c-5.31,0.09-13.95,1.84-22.2,2.04c-8.25,0.21-22.27-0.49-24.05-4.92
			c-1.79-4.43,3.82-8.28,2.5-11.88c-1.31-3.61-7.78-2.83-9.47-2.51C134.675,43.785,129.035,46.085,127.015,44.815z"/>
		<path fill-rule="evenodd" clip-rule="evenodd" fill="#4E9327" d="M170.825,19.415c-1.07-0.66-2.78,1.93-5.11,4.45
			c-1.8,1.95-5.02,3.53-5.11,4.83c-0.09,1.3,1.27,0.89,3.34,2.79c2.07,1.89,1.86,5.57,4.65,5.11c1.78-0.3-0.86-7.97-0.84-9.85
			C167.775,24.865,172.705,20.575,170.825,19.415z"/>
		<path fill-rule="evenodd" clip-rule="evenodd" fill="#4E9327" d="M130.015,40.815c-1.08-0.97,5.7-5.5,9-7s11.56-7.03,13-9
			s7.97-10.61,10-12s6.54-6.47,8-5s-10.93,13.03-11.55,19.49c-0.61,6.46,3.39,9.65,2.7,12.63s-8.25,13.86-12.35,14.76
			c-4.11,0.91,3.76-10.58,3.15-12.25c-0.6-1.68-7.39-1.35-8.63-2.05c-1.24-0.69,0.61-2.74-1.12-3.62
			C140.495,35.905,131.095,41.785,130.015,40.815z"/>
		<path fill-rule="evenodd" clip-rule="evenodd" fill="#70BC44" d="M181.035,2.605c-0.46,1.92,7.49,5.57,9.38,10.03
			c1.89,4.45,4.29,20.78,8.6,24.18s18.05,3.58,23,5c2.17,0.62,1.88-4.35-1.7-4.76c-3.57-0.41-8.77-1.57-13.3-7.24
			s-9.8-19.59-15.3-22.76C186.215,3.885,181.505,0.675,181.035,2.605z"/>
	</g>
	<g>
		<rect x="161.015" y="46.815" fill-rule="evenodd" clip-rule="evenodd" fill="#6A822A" width="2" height="5"/>
		<rect x="171.015" y="52.815" fill-rule="evenodd" clip-rule="evenodd" fill="#6A822A" width="2" height="3"/>
		<rect x="195.015" y="53.815" fill-rule="evenodd" clip-rule="evenodd" fill="#6A822A" width="1" height="4"/>
		<rect x="196.015" y="40.815" fill-rule="evenodd" clip-rule="evenodd" fill="#6A822A" width="1" height="3"/>
		<rect x="178.015" y="41.815" fill-rule="evenodd" clip-rule="evenodd" fill="#6A822A" width="1" height="4"/>
		<rect x="153.015" y="39.815" fill-rule="evenodd" clip-rule="evenodd" fill="#6A822A" width="2" height="3"/>
		<rect x="149.015" y="28.815" fill-rule="evenodd" clip-rule="evenodd" fill="#6A822A" width="2" height="3"/>
		<rect x="206.015" y="35.815" fill-rule="evenodd" clip-rule="evenodd" fill="#6A822A" width="1" height="3"/>
		<rect x="213.015" y="42.815" fill-rule="evenodd" clip-rule="evenodd" fill="#6A822A" width="1" height="4"/>
		<rect x="225.015" y="43.815" fill-rule="evenodd" clip-rule="evenodd" fill="#6A822A" width="2" height="4"/>
		<rect x="233.015" y="37.815" fill-rule="evenodd" clip-rule="evenodd" fill="#6A822A" width="1" height="2"/>
		<rect x="251.015" y="41.815" fill-rule="evenodd" clip-rule="evenodd" fill="#6A822A" width="2" height="5"/>
	</g>
	<g>
		<path fill-rule="evenodd" clip-rule="evenodd" fill="#235005" d="M148.015,27.315c0-0.83,0.9-1.5,2-1.5s2,0.67,2,1.5
			s-0.9,1.5-2,1.5S148.015,28.145,148.015,27.315z"/>
		<path fill-rule="evenodd" clip-rule="evenodd" fill="#235005" d="M152.015,38.315c0-0.83,0.9-1.5,2-1.5s2,0.67,2,1.5
			s-0.9,1.5-2,1.5S152.015,39.145,152.015,38.315z"/>
		<path fill-rule="evenodd" clip-rule="evenodd" fill="#235005" d="M170.015,51.315c0-0.83,0.9-1.5,2-1.5s2,0.67,2,1.5
			s-0.9,1.5-2,1.5S170.015,52.145,170.015,51.315z"/>
		<circle fill-rule="evenodd" clip-rule="evenodd" fill="#235005" cx="233.515" cy="36.315" r="1.5"/>
		<path fill-rule="evenodd" clip-rule="evenodd" fill="#235005" d="M159.015,44.815c0-1.1,1.34-2,3-2s3,0.9,3,2s-1.34,2-3,2
			S159.015,45.915,159.015,44.815z"/>
		<path fill-rule="evenodd" clip-rule="evenodd" fill="#235005" d="M175.015,39.315c0-1.38,1.57-2.5,3.5-2.5s3.5,1.12,3.5,2.5
			s-1.57,2.5-3.5,2.5S175.015,40.695,175.015,39.315z"/>
		<path fill-rule="evenodd" clip-rule="evenodd" fill="#235005" d="M192.015,51.315c0-1.38,1.57-2.5,3.5-2.5s3.5,1.12,3.5,2.5
			s-1.57,2.5-3.5,2.5S192.015,52.695,192.015,51.315z"/>
		<path fill-rule="evenodd" clip-rule="evenodd" fill="#235005" d="M210.015,40.315c0-1.38,1.57-2.5,3.5-2.5s3.5,1.12,3.5,2.5
			s-1.57,2.5-3.5,2.5S210.015,41.695,210.015,40.315z"/>
		<path fill-rule="evenodd" clip-rule="evenodd" fill="#235005" d="M223.015,41.815c0-1.1,1.34-2,3-2s3,0.9,3,2s-1.34,2-3,2
			S223.015,42.915,223.015,41.815z"/>
		<path fill-rule="evenodd" clip-rule="evenodd" fill="#235005" d="M249.015,39.815c0-1.1,1.34-2,3-2s3,0.9,3,2s-1.34,2-3,2
			S249.015,40.915,249.015,39.815z"/>
		<circle fill-rule="evenodd" clip-rule="evenodd" fill="#235005" cx="196.515" cy="39.315" r="1.5"/>
		<circle fill-rule="evenodd" clip-rule="evenodd" fill="#235005" cx="206.515" cy="34.315" r="1.5"/>
	</g>
</g>
<g>
	<polygon fill-rule="evenodd" clip-rule="evenodd" fill="#F1D3A3" points="152.885,90.445 199.705,61.405 199.705,87.267 
		152.965,117.195 	"/>
	<path fill-rule="evenodd" clip-rule="evenodd" fill="#FFEFBF" d="M141.065,43.435l-12.68,33.62c0,0,0.38-0.69,0.98-0.19
		c0.61,0.51,1.25,0.62,1.25,0.62l20.45,13.86c0,0,0.06,0.58,1.11,1.13c1.05,0.54,0.74-0.62,0.74-0.62L141.065,43.435z"/>
	<polygon fill-rule="evenodd" clip-rule="evenodd" fill="#932F32" points="186.265,33.915 186.265,26.785 141.065,43.435 
		142.655,49.785 	"/>
	<polygon fill-rule="evenodd" clip-rule="evenodd" fill="#CF4113" points="142.655,49.785 152.885,90.445 199.705,61.405 
		186.265,33.915 	"/>
	<polygon fill-rule="evenodd" clip-rule="evenodd" fill="#F6E8C1" points="129.175,79.315 152.965,94.195 152.965,117.195 
		129.175,102.155 	"/>
	<polygon fill-rule="evenodd" clip-rule="evenodd" fill="#343331" points="129.175,76.745 152.965,91.625 152.965,94.195 
		129.175,79.315 	"/>
	<polygon fill-rule="evenodd" clip-rule="evenodd" fill="#555F69" points="166.635,94.995 177.745,87.855 177.745,101.335 
		166.635,108.475 	"/>
	<polygon fill-rule="evenodd" clip-rule="evenodd" fill="#555F69" points="182.495,84.865 193.595,77.535 193.595,91.065 
		182.495,98.395 	"/>
	<path fill-rule="evenodd" clip-rule="evenodd" fill="#7C030C" d="M141.045,43.435l-12.66,33.62c0,0,0.39,0.76,1.01,1.27
		c0.63,0.51,1.29,0.63,1.29,0.63l10.36-28.02l10.75,41.97c0,0,0.07,0.59,1.15,1.14c1.08,0.55,0.77-0.62,0.77-0.62L141.045,43.435z"
		/>
</g>
<g>
	<polygon fill-rule="evenodd" clip-rule="evenodd" fill="#723604" points="139.735,108.255 141.335,109.275 141.335,117.305 
		139.735,116.285 	"/>
	<path fill-rule="evenodd" clip-rule="evenodd" fill="#036630" d="M141.265,86.335c0,0-6.51,1.19-6.34,10.26
		c0.18,9.06,5.59,12.26,5.59,12.26s6.78,3.47,6.62-4.39C146.955,96.465,141.265,86.335,141.265,86.335z"/>
	<path fill-rule="evenodd" clip-rule="evenodd" fill="#036630" d="M155.225,95.215c0,0-6.52,1.2-6.34,10.26
		c0.17,9.07,5.58,12.26,5.58,12.26s6.79,3.47,6.62-4.38C160.915,105.345,155.225,95.215,155.225,95.215z"/>
	<polygon fill-rule="evenodd" clip-rule="evenodd" fill="#723604" points="154.145,117.435 155.755,118.455 155.755,126.485 
		154.145,125.465 	"/>
</g>
<g>
	<polygon fill-rule="evenodd" clip-rule="evenodd" fill="#723604" points="111.975,92.395 113.585,93.415 113.585,101.445 
		111.975,100.425 	"/>
	<path fill-rule="evenodd" clip-rule="evenodd" fill="#036630" d="M113.515,70.475c0,0-6.51,1.19-6.34,10.26
		c0.18,9.06,5.59,12.25,5.59,12.25s6.78,3.48,6.61-4.38C119.205,80.595,113.515,70.475,113.515,70.475z"/>
	<path fill-rule="evenodd" clip-rule="evenodd" fill="#036630" d="M127.475,79.355c0,0-6.52,1.19-6.34,10.26
		c0.17,9.07,5.58,12.26,5.58,12.26s6.79,3.47,6.62-4.39C133.165,89.485,127.475,79.355,127.475,79.355z"/>
	<polygon fill-rule="evenodd" clip-rule="evenodd" fill="#723604" points="126.395,101.575 128.005,102.595 128.005,110.625 
		126.395,109.605 	"/>
</g>
<g>
	<polygon fill-rule="evenodd" clip-rule="evenodd" fill="#BFDAF7" points="240.075,301.915 292.035,335.905 344.985,301.845 
		292.685,267.815 	"/>
	<polygon fill-rule="evenodd" clip-rule="evenodd" fill="#A3C9F5" points="240.035,301.87 292.075,335.81 292.075,351.81 
		240.045,317.77 	"/>
	<polygon fill-rule="evenodd" clip-rule="evenodd" fill="#4E9DF4" points="344.995,301.865 292.075,335.815 292.075,351.815 
		344.965,317.785 	"/>
	<g>
		<path fill="#DAE1F7" d="M292.525,268.48l51.536,33.333l-51.984,33.277l-51.015-33.205L292.525,268.48 M292.524,267.885l-52.38,34
			l51.93,33.8l52.91-33.87L292.524,267.885L292.524,267.885z"/>
	</g>
	
		<line fill-rule="evenodd" clip-rule="evenodd" fill="none" stroke="#D9E0F7" stroke-width="0.75" stroke-linecap="round" stroke-linejoin="round" stroke-miterlimit="10" x1="292.015" y1="335.815" x2="292.015" y2="351.815"/>
</g>
<g>
	<polygon fill-rule="evenodd" clip-rule="evenodd" fill="#BFDAF7" points="322.075,245.915 374.035,279.905 426.985,245.845 
		374.685,211.815 	"/>
	<polygon fill-rule="evenodd" clip-rule="evenodd" fill="#A3C9F5" points="322.035,245.87 374.075,279.81 374.075,295.81 
		322.045,261.77 	"/>
	<polygon fill-rule="evenodd" clip-rule="evenodd" fill="#4E9DF4" points="426.995,245.865 374.075,279.815 374.075,295.815 
		426.965,261.785 	"/>
	<g>
		<path fill="#DAE1F7" d="M374.525,212.48l51.536,33.333l-51.984,33.277l-51.015-33.205L374.525,212.48 M374.524,211.885l-52.38,34
			l51.931,33.8l52.91-33.87L374.524,211.885L374.524,211.885z"/>
	</g>
	
		<line fill-rule="evenodd" clip-rule="evenodd" fill="none" stroke="#D9E0F7" stroke-width="0.5" stroke-linecap="round" stroke-linejoin="round" stroke-miterlimit="10" x1="374.015" y1="279.815" x2="374.015" y2="295.815"/>
</g>
<g>
	<polygon fill-rule="evenodd" clip-rule="evenodd" fill="#BFDAF7" points="400.075,189.915 452.035,223.905 504.985,189.845 
		452.685,155.815 	"/>
	<polygon fill-rule="evenodd" clip-rule="evenodd" fill="#A3C9F5" points="400.035,189.87 452.075,223.81 452.075,239.81 
		400.045,205.77 	"/>
	<polygon fill-rule="evenodd" clip-rule="evenodd" fill="#4E9DF4" points="504.995,189.865 452.075,223.815 452.075,239.815 
		504.965,205.785 	"/>
	<g>
		<path fill="#DAE1F7" d="M452.525,156.48l51.536,33.333l-51.984,33.277l-51.015-33.205L452.525,156.48 M452.524,155.885l-52.38,34
			l51.931,33.8l52.91-33.87L452.524,155.885L452.524,155.885z"/>
	</g>
	
		<line fill-rule="evenodd" clip-rule="evenodd" fill="none" stroke="#D9E0F7" stroke-width="0.5" stroke-linecap="round" stroke-linejoin="round" stroke-miterlimit="10" x1="452.015" y1="223.815" x2="452.015" y2="239.815"/>
</g>
<g>
	<path fill-rule="evenodd" clip-rule="evenodd" fill="#0282F0" d="M434.435,188.235c0,0-1.027-3.195,0.849-4.818
		c2.885-2.497,10.144-3.81,19.142-3.822c11.636-0.016,19.589,7.292,19.589,7.292s0.068,4.393-0.148,5.129
		c-2.98,10.15-22.153,9.722-22.153,9.722l1.693-12.448L434.435,188.235z"/>
	<path fill-rule="evenodd" clip-rule="evenodd" fill="#00B9F7" d="M434.435,184.455c0,0,5.141-8.62,19.99-8.64
		s20.62,8.41,19.44,12.42c-2.98,10.15-21.66,9.72-21.66,9.72l1.67-12.42L434.435,184.455z"/>
	<path fill-rule="evenodd" clip-rule="evenodd" fill="#FD7497" d="M434.193,185.838l19.212,0.026l-13.971,11.01
		c0,0-4.069-1.22-5-4.86C433.495,188.375,434.193,185.838,434.193,185.838z"/>
	<path fill-rule="evenodd" clip-rule="evenodd" fill="#3DDBE1" d="M439.985,197.415v3.24c0,0,2.76,1.27,4.909,1.59
		c2.16,0.32,6.2,0.57,6.2,0.57v-3.24c0,0-3.28,0.24-5.859-0.33C442.655,198.675,439.985,197.415,439.985,197.415z"/>
	<path fill-rule="evenodd" clip-rule="evenodd" fill="#74F3B5" d="M440.075,197.465l13.086-10.85l-2.196,13.14
		c0,0-4.04-0.03-6.22-0.44C441.215,198.655,440.075,197.465,440.075,197.465z"/>
</g>
<g>
	<path fill-rule="evenodd" clip-rule="evenodd" fill="#0282F0" d="M354.015,246.405c0,0-0.149-5.24,6-8.51
		c6.16-3.26,11.78-4.06,14.51-3.85c2.74,0.21,14.271,1.76,17.841,7.01c3.569,5.25,0.92,11.2-3.811,13.62
		c-4.819,2.47-9.109,3.14-9.109,3.14l-1.341-2.74c0,0,4.851-1.32,7.4-2.74c2.51-1.39,3.77-2.91,3.76-6.85
		c-0.02-4.8-6.729-8.49-14.279-8.67c-7.551-0.19-12.221,2.67-13.83,4.11c-1.61,1.43-2.681,5.48-2.681,5.48H354.015z"/>
	<path fill-rule="evenodd" clip-rule="evenodd" fill="#00B9F7" d="M354.015,243.205c0,0-0.149-5.23,6-8.5
		c6.16-3.27,11.78-4.07,14.51-3.86c2.74,0.21,14.271,1.76,17.841,7.02c3.569,5.25,0.92,11.19-3.811,13.61
		c-4.819,2.47-9.109,3.14-9.109,3.14l-1.341-2.74c0,0,4.851-1.31,7.4-2.74c2.51-1.39,3.77-2.91,3.76-6.84
		c-0.02-4.81-6.729-8.49-14.279-8.68c-7.551-0.18-12.221,2.68-13.83,4.11c-1.61,1.43-2.681,5.48-2.681,5.48H354.015z"/>
	<path fill-rule="evenodd" clip-rule="evenodd" fill="#3DDBE1" d="M359.314,245.625l3.69-0.61c0,0-1.38-8.37,10.82-8.64
		c8.319-0.18,10.939,4.32,10.939,4.32l4.021-0.73l0.02,3.24l-4.17,0.88c0,0-2.49-2.44-3.79-3.03c-1.31-0.6-4.149-1.48-6.58-1.48
		c-2.85,0-6.6,0.94-8.26,2.17c-1.67,1.23-2.55,3.41-2.55,3.41v3.47l-4.13,0.41L359.314,245.625z"/>
	<path fill-rule="evenodd" clip-rule="evenodd" fill="#74F3B5" d="M359.314,245.625l3.69-0.61c0,0-1.38-8.37,10.82-8.64
		c8.319-0.18,10.939,4.32,10.939,4.32l3.681-0.71c0,0-1.931-5.27-13.851-5.98S356.575,241.625,359.314,245.625z"/>
</g>
<g>
	<path fill-rule="evenodd" clip-rule="evenodd" fill="#0282F0" d="M267.015,317.325l2.19,0.61l42.25-26.73v-6.18
		c0,0-12.97-5.01-15.271-4.1c-5.819,2.32-6.949,12.31-11.739,15.36c-3,1.92-5.81-2.2-8.72-0.48c-3.86,2.29-4.76,8.64-6.02,11.24
		c-1.39,2.85-2.58,6.19-2.58,6.19L267.015,317.325z"/>
	<path fill-rule="evenodd" clip-rule="evenodd" fill="#10B9F9" d="M269.795,318.015l44.441-26.12v-8.66c0,0-13.711-1.21-16.011-0.29
		c-5.819,2.32-6.21,11.16-10.87,14.4c-2.609,1.82-6.59-1.54-9.5,0.19c-3.85,2.29-4.79,8.72-6.01,11.43c-1.65,3.65-2.1,4.93-2.1,4.93
		L269.795,318.015z"/>
	<path fill-rule="evenodd" clip-rule="evenodd" fill="#F8456F" d="M269.865,320.085l2.01,0.63l42.361-26.76v-6.18
		c0,0-5.341-7.8-7.641-6.88c-5.82,2.32-5.109,16.25-10.22,18.75c-9.93,4.87-10.37-1.53-13.28,0.2c-3.86,2.28-5.65,9.16-7.96,11.04
		c-2.47,2.01-5.27,5.06-5.27,5.06V320.085z"/>
	<path fill-rule="evenodd" clip-rule="evenodd" fill="#FD7497" d="M271.935,320.815l45.08-26.17v-6.19c0,0-5.34-7.79-7.64-6.87
		c-5.82,2.32-6.01,16.75-11.11,19.25c-9.939,4.86-10.569-1.48-13.399,0.29c-3.81,2.37-5.821,9.51-8.13,11.39
		c-2.47,2.02-4.83,4.13-4.83,4.13L271.935,320.815z"/>
</g>
<polygon fill-rule="evenodd" clip-rule="evenodd" fill="#FFFFFF" stroke="#153FB7" stroke-width="2" stroke-linecap="round" stroke-linejoin="round" stroke-miterlimit="10" points="
	218.015,191.575 276.125,229.815 335.015,191.895 276.125,153.815 "/>
<g>
	<polygon fill-rule="evenodd" clip-rule="evenodd" fill="#B7BDE1" points="236.035,155.445 275.995,181.425 315.985,155.455 
		276.335,128.815 	"/>
	<polygon fill-rule="evenodd" clip-rule="evenodd" fill="#9FAFEB" points="236.015,155.445 275.995,181.425 276.005,217.795 
		236.035,191.785 	"/>
	<polygon fill-rule="evenodd" clip-rule="evenodd" fill="#788EE3" points="315.975,155.465 276.005,181.435 276.005,217.805 
		315.985,191.795 	"/>
	
		<polygon fill-rule="evenodd" clip-rule="evenodd" fill="none" stroke="#CFD7F5" stroke-width="0.5" stroke-linecap="round" stroke-linejoin="round" stroke-miterlimit="10" points="
		236.095,155.475 276.015,181.625 316.015,155.505 276.025,181.605 	"/>
	<g>
		
			<line fill-rule="evenodd" clip-rule="evenodd" fill="none" stroke="#CFD7F5" stroke-width="0.5" stroke-linecap="round" stroke-linejoin="round" stroke-miterlimit="10" x1="236.335" y1="168.755" x2="275.685" y2="194.095"/>
		
			<line fill-rule="evenodd" clip-rule="evenodd" fill="none" stroke="#8397E5" stroke-width="0.5" stroke-linecap="round" stroke-linejoin="round" stroke-miterlimit="10" x1="236.335" y1="168.105" x2="275.685" y2="193.445"/>
		
			<line fill-rule="evenodd" clip-rule="evenodd" fill="none" stroke="#CFD7F5" stroke-width="0.5" stroke-linecap="round" stroke-linejoin="round" stroke-miterlimit="10" x1="236.335" y1="181.755" x2="275.685" y2="207.095"/>
		
			<line fill-rule="evenodd" clip-rule="evenodd" fill="none" stroke="#8397E5" stroke-width="0.5" stroke-linecap="round" stroke-linejoin="round" stroke-miterlimit="10" x1="236.335" y1="181.105" x2="275.685" y2="206.445"/>
		
			<line fill-rule="evenodd" clip-rule="evenodd" fill="none" stroke="#BBC6F1" stroke-width="0.5" stroke-linecap="round" stroke-linejoin="round" stroke-miterlimit="10" x1="315.665" y1="168.755" x2="276.325" y2="194.095"/>
		
			<line fill-rule="evenodd" clip-rule="evenodd" fill="none" stroke="#617ADE" stroke-width="0.5" stroke-linecap="round" stroke-linejoin="round" stroke-miterlimit="10" x1="315.665" y1="168.105" x2="276.325" y2="193.445"/>
		
			<line fill-rule="evenodd" clip-rule="evenodd" fill="none" stroke="#BBC6F1" stroke-width="0.5" stroke-linecap="round" stroke-linejoin="round" stroke-miterlimit="10" x1="315.665" y1="181.755" x2="276.325" y2="207.095"/>
		
			<line fill-rule="evenodd" clip-rule="evenodd" fill="none" stroke="#617ADE" stroke-width="0.5" stroke-linecap="round" stroke-linejoin="round" stroke-miterlimit="10" x1="315.665" y1="181.105" x2="276.325" y2="206.445"/>
	</g>
	
		<line fill-rule="evenodd" clip-rule="evenodd" fill="none" stroke="#FFFFFF" stroke-width="0.5" stroke-linecap="round" stroke-linejoin="round" stroke-miterlimit="10" x1="276.005" y1="182.075" x2="276.005" y2="217.815"/>
</g>
<g>
	<polygon fill-rule="evenodd" clip-rule="evenodd" fill="#29A2FB" points="250.045,151.795 275.995,168.785 301.965,151.795 
		276.535,134.845 	"/>
	<polygon fill-rule="evenodd" clip-rule="evenodd" fill="#1B72E3" points="250.015,151.815 276.015,168.815 276.015,173.815 
		250.035,156.795 	"/>
	<polygon fill-rule="evenodd" clip-rule="evenodd" fill="#00FFFF" points="258.045,151.845 276.015,163.795 295.015,151.865 
		276.645,139.815 	"/>
	<polygon fill-rule="evenodd" clip-rule="evenodd" fill="#001D8F" points="302.015,151.815 276.015,168.815 276.015,173.815 
		301.995,156.795 	"/>
</g>
<path fill-rule="evenodd" clip-rule="evenodd" fill="#197EE8" d="M255.015,126.315c0-11.87,9.63-21.5,21.5-21.5
	c11.87,0,21.5,9.63,21.5,21.5s-9.63,21.5-21.5,21.5C264.645,147.815,255.015,138.185,255.015,126.315z"/>
<g>
	<rect x="268.015" y="116.815" fill-rule="evenodd" clip-rule="evenodd" fill="#FFFFFF" width="17" height="2"/>
	<path fill-rule="evenodd" clip-rule="evenodd" fill="#FFFFFF" d="M267.825,119.815h17.199l1.99,5.27c0,0-0.359,2.73-2.35,2.73
		s-2.9-2.73-2.9-2.73s-0.31,2.53-2.53,2.53c-2.23,0-2.72-2.53-2.72-2.53s-0.45,2.73-2.53,2.73c-2.09,0-2.72-2.73-2.72-2.73
		s-0.45,2.73-2.53,2.73c-2.09,0-2.72-2.93-2.72-2.93L267.825,119.815z"/>
	<path fill-rule="evenodd" clip-rule="evenodd" fill="#FFFFFF" d="M268.795,128.815c-0.43,0-0.78,0.36-0.78,0.8v6.4
		c0,0.44,0.35,0.8,0.78,0.8h15.441c0.43,0,0.779-0.36,0.779-0.8v-6.4c0-0.44-0.35-0.8-0.779-0.8h-1.16v5.01h-13.12v-5.01H268.795z"
		/>
</g>
<g>
	<linearGradient id="SVGID_2_" gradientUnits="userSpaceOnUse" x1="276.7" y1="152.125" x2="276.7" y2="73.8149">
		<stop  offset="0" style="stop-color:#61F0FF;stop-opacity:0"/>
		<stop  offset="0.5" style="stop-color:#61F0FF;stop-opacity:0.4"/>
		<stop  offset="1" style="stop-color:#61F0FF;stop-opacity:0"/>
	</linearGradient>
	<rect x="265.065" y="73.815" fill-rule="evenodd" clip-rule="evenodd" fill="url(#SVGID_2_)" width="23.27" height="78.31"/>
	<linearGradient id="SVGID_3_" gradientUnits="userSpaceOnUse" x1="276.0149" y1="152.8149" x2="276.0149" y2="74.5049">
		<stop  offset="0" style="stop-color:#61F0FF;stop-opacity:0"/>
		<stop  offset="0.5" style="stop-color:#61F0FF;stop-opacity:0.4"/>
		<stop  offset="1" style="stop-color:#61F0FF;stop-opacity:0"/>
	</linearGradient>
	<rect x="250.015" y="74.505" fill-rule="evenodd" clip-rule="evenodd" fill="url(#SVGID_3_)" width="52" height="78.31"/>
</g>
</svg>
