<?xml version="1.0" encoding="utf-8"?>
<!-- Generator: Adobe Illustrator 16.0.0, SVG Export Plug-In . SVG Version: 6.00 Build 0)  -->
<!DOCTYPE svg PUBLIC "-//W3C//DTD SVG 1.1//EN" "http://www.w3.org/Graphics/SVG/1.1/DTD/svg11.dtd">
<svg version="1.1" id="层_1" xmlns="http://www.w3.org/2000/svg" xmlns:xlink="http://www.w3.org/1999/xlink" x="0px" y="0px"
	 width="317.002px" height="323px" viewBox="0 0 317.002 323" enable-background="new 0 0 317.002 323" xml:space="preserve">
<g>
	<g>
		<path fill-rule="evenodd" clip-rule="evenodd" fill="#4E9DF4" d="M0.002,269.92c-0.126-3.377-0.435-7.168,0.101-10.128
			c7.443-41.069,77.358-42.671,158.799-42.671c81.045,0,149.158,6.837,158.1,43.605c0.723,2.971,0,5.806,0,9.195
			c0,29.28-71.14,53.08-158.9,53.08C70.342,323,1.092,299.183,0.002,269.92z"/>
		<path fill-rule="evenodd" clip-rule="evenodd" fill="#A3C9F5" d="M0.092,258.83c0.45-29.18,71.57-52.78,158.86-52.78
			s158.05,23.6,158.05,52.78c0,29.26-71.12,53.04-158.86,53.04C70.412,311.87-0.348,288.09,0.092,258.83z"/>
		<path fill-rule="evenodd" clip-rule="evenodd" fill="#D1E4FA" d="M35.152,254.38c0.31-22.91,56.14-41.44,124.71-41.44
			c68.58,0,124.13,18.53,124.1,41.44c-0.04,22.96-55.88,41.6-124.72,41.6C90.392,295.98,34.842,277.34,35.152,254.38z"/>
	</g>
	<g>
		<g>
			
				<line fill-rule="evenodd" clip-rule="evenodd" fill="none" stroke="#788EE3" stroke-width="2" stroke-linecap="square" stroke-miterlimit="10" x1="103.612" y1="100.94" x2="128.312" y2="128.78"/>
			
				<line fill-rule="evenodd" clip-rule="evenodd" fill="none" stroke="#788EE3" stroke-width="2" stroke-linecap="square" stroke-miterlimit="10" x1="70.672" y1="100.24" x2="30.882" y2="146.88"/>
			
				<line fill-rule="evenodd" clip-rule="evenodd" fill="none" stroke="#788EE3" stroke-width="2" stroke-linecap="square" stroke-miterlimit="10" x1="94.002" y1="213.01" x2="63.812" y2="222.76"/>
			
				<line fill-rule="evenodd" clip-rule="evenodd" fill="none" stroke="#788EE3" stroke-width="2" stroke-linecap="square" stroke-miterlimit="10" x1="116.852" y1="68.13" x2="164.922" y2="46.41"/>
			
				<line fill-rule="evenodd" clip-rule="evenodd" fill="none" stroke="#788EE3" stroke-width="2" stroke-linecap="square" stroke-miterlimit="10" x1="177.032" y1="121.12" x2="183.892" y2="61.95"/>
			
				<line fill-rule="evenodd" clip-rule="evenodd" fill="none" stroke="#788EE3" stroke-width="2" stroke-linecap="square" stroke-miterlimit="10" x1="254.562" y1="100.24" x2="212.712" y2="54.3"/>
			
				<line fill-rule="evenodd" clip-rule="evenodd" fill="none" stroke="#788EE3" stroke-width="2" stroke-linecap="square" stroke-miterlimit="10" x1="251.132" y1="135.74" x2="216.582" y2="166.754"/>
			
				<line fill-rule="evenodd" clip-rule="evenodd" fill="none" stroke="#788EE3" stroke-width="2" stroke-linecap="square" stroke-miterlimit="10" x1="276.522" y1="103.72" x2="304.392" y2="85.06"/>
			<path fill-rule="evenodd" clip-rule="evenodd" fill="#7E93E4" d="M27.452,147.58c0-1.54,1.22-2.79,2.74-2.79s2.75,1.25,2.75,2.79
				s-1.23,2.78-2.75,2.78S27.452,149.12,27.452,147.58z"/>
			<path fill-rule="evenodd" clip-rule="evenodd" fill="#7E93E4" d="M303.282,83.53c0-1.53,1.23-2.78,2.74-2.78
				c1.52,0,2.75,1.25,2.75,2.78c0,1.54-1.23,2.79-2.75,2.79C304.512,86.32,303.282,85.07,303.282,83.53z"/>
		</g>
		<path fill-rule="evenodd" clip-rule="evenodd" fill="#FF9D33" d="M54.892,74.49c0-17.31,13.83-31.33,30.88-31.33
			s30.88,14.02,30.88,31.33c0,17.3-13.83,31.32-30.88,31.32S54.892,91.79,54.892,74.49z"/>
		<path fill-rule="evenodd" clip-rule="evenodd" fill="#789FEA" d="M161.932,31.33c0-17.31,13.82-31.33,30.88-31.33
			c17.05,0,30.87,14.02,30.87,31.33c0,17.3-13.82,31.32-30.87,31.32C175.752,62.65,161.932,48.63,161.932,31.33z"/>
		<path fill-rule="evenodd" clip-rule="evenodd" fill="#FF9798" d="M242.902,119.04c0-11.92,9.52-21.58,21.27-21.58
			c11.74,0,21.27,9.66,21.27,21.58c0,11.91-9.53,21.58-21.27,21.58C252.422,140.62,242.902,130.95,242.902,119.04z"/>
		<g>
			<path fill-rule="evenodd" clip-rule="evenodd" fill="#DFE0F0" d="M151.302,112.39l-64.31,25.02c0,0-3.88,49.94,4.58,80.71
				c12.21,44.44,59.73,54.05,59.73,54.05V112.39z"/>
			<path fill-rule="evenodd" clip-rule="evenodd" fill="#C6C7E5" d="M151.302,112.39l64.4,25.12c0,0,3.88,49.93-4.58,80.71
				c-12.22,44.43-59.82,53.95-59.82,53.95V112.39z"/>
			<path fill-rule="evenodd" clip-rule="evenodd" fill="#9FAFEB" d="M151.302,124.891l-51.24,19.569c0,0-3.51,42.47,2.34,68.91
				c8.42,37.99,48.94,46.47,48.94,46.47L151.302,124.891z"/>
			<path fill-rule="evenodd" clip-rule="evenodd" fill="#788EE3" d="M151.302,124.891l51.82,21.75c0,0,1.46,43.06-4.69,69.2
				c-8.91,37.88-47.09,44-47.09,44L151.302,124.891z"/>
			
				<polygon fill-rule="evenodd" clip-rule="evenodd" fill="none" stroke="#FFFFFF" stroke-width="2" stroke-linecap="round" stroke-linejoin="round" stroke-miterlimit="10" points="
				130.052,188.54 150.962,205.75 180.872,178.48 171.402,170.95 149.852,190.55 138.342,180.83 			"/>
		</g>
		<g>
			<path fill-rule="evenodd" clip-rule="evenodd" fill="#FDC029" d="M183.892,265.92c0-0.67-0.869-7.223,0.761-7.783
				c4.04-1.37,14.229-3.087,23.938-3.087c9.93,0,20.169,1.776,24.089,3.196c1.47,0.54,0.611,7.044,0.611,7.674
				c0,2.31-11.06,4.17-24.7,4.17C194.952,270.09,183.892,268.23,183.892,265.92z"/>
			<path fill-rule="evenodd" clip-rule="evenodd" fill="#F9E0A7" d="M183.892,259.17c0-2.31,11.06-4.17,24.7-4.17
				c13.64,0,24.7,1.86,24.7,4.17s-11.06,4.18-24.7,4.18C194.952,263.35,183.892,261.48,183.892,259.17z"/>
			<path fill-rule="evenodd" clip-rule="evenodd" fill="#FDC029" d="M186.632,254.78c0-0.67-0.967-7.158,0.663-7.708
				c4.04-1.38,14.328-3.151,24.038-3.151c9.93,0,20.426,1.988,24.356,3.418c1.47,0.53,0.344,6.812,0.344,7.441
				c0,2.31-11.05,4.18-24.7,4.18C197.692,258.96,186.632,257.09,186.632,254.78z"/>
			<path fill-rule="evenodd" clip-rule="evenodd" fill="#F9E0A7" d="M186.632,248.03c0-2.3,11.06-4.17,24.7-4.17
				c13.65,0,24.7,1.87,24.7,4.17c0,2.31-11.05,4.18-24.7,4.18C197.693,252.21,186.632,250.34,186.632,248.03z"/>
			<path fill-rule="evenodd" clip-rule="evenodd" fill="#FDC029" d="M185.262,243.64c0-0.66-0.904-7.188,0.726-7.749
				c4.04-1.38,14.264-3.112,23.974-3.112c9.93,0,20.025,1.669,23.956,3.099c1.47,0.53,0.745,7.131,0.745,7.762
				c0,2.31-11.06,4.18-24.7,4.18S185.262,245.95,185.262,243.64z"/>
			<path fill-rule="evenodd" clip-rule="evenodd" fill="#F9E0A7" d="M185.262,236.9c0-2.31,11.06-4.18,24.7-4.18
				s24.7,1.87,24.7,4.18c0,2.3-11.06,4.17-24.7,4.17S185.262,239.2,185.262,236.9z"/>
			<path fill-rule="evenodd" clip-rule="evenodd" fill="#FDC029" d="M188.002,232.5c0-0.66-1.014-7.118,0.626-7.678
				c4.03-1.38,14.364-3.182,24.084-3.182c9.92,0,20.336,1.9,24.256,3.33c1.47,0.53,0.444,6.91,0.444,7.53
				c0,2.31-11.06,4.18-24.7,4.18C199.062,236.68,188.002,234.81,188.002,232.5z"/>
			<path fill-rule="evenodd" clip-rule="evenodd" fill="#F9E0A7" d="M188.002,225.76c0-2.31,11.06-4.18,24.71-4.18
				c13.64,0,24.7,1.87,24.7,4.18c0,2.31-11.06,4.18-24.7,4.18C199.062,229.94,188.002,228.07,188.002,225.76z"/>
		</g>
		<g>
			<path fill-rule="evenodd" clip-rule="evenodd" fill="#FFFFFF" d="M259.362,113.47c0-2.69,2.15-4.88,4.81-4.88
				c2.65,0,4.8,2.19,4.8,4.88c0,2.69-2.15,4.87-4.8,4.87C261.512,118.34,259.362,116.16,259.362,113.47z"/>
			<path fill-rule="evenodd" clip-rule="evenodd" fill="#FFFFFF" d="M256.622,126c0-4.23,3.38-7.66,7.55-7.66s7.54,3.43,7.54,7.66
				S256.622,130.23,256.622,126z"/>
		</g>
		<g>
			<path fill-rule="evenodd" clip-rule="evenodd" fill="#FFFFFF" d="M183.892,23.67c0-5.38,3.99-9.75,8.92-9.75
				c4.92,0,8.92,4.37,8.92,9.75s-4,9.74-8.92,9.74C187.882,33.41,183.892,29.05,183.892,23.67z"/>
			<path fill-rule="evenodd" clip-rule="evenodd" fill="#FFFFFF" d="M193.492,34.81v13.92h-13.72v-9.75c0,0,3.17-4.56,5.49-5.57
				C187.572,32.41,193.492,34.81,193.492,34.81z"/>
			<path fill-rule="evenodd" clip-rule="evenodd" fill="#FFFFFF" d="M193.492,34.81v13.92h12.35v-9.75c0,0-3.17-4.56-5.49-5.57
				C198.042,32.41,193.492,34.81,193.492,34.81z"/>
			<path fill-rule="evenodd" clip-rule="evenodd" fill="#789FEA" d="M190.752,38.29c0-1.16,0.92-2.09,2.06-2.09
				c1.13,0,2.06,0.93,2.06,2.09c0,1.15-0.93,2.08-2.06,2.08C191.672,40.37,190.752,39.44,190.752,38.29z"/>
			<path fill-rule="evenodd" clip-rule="evenodd" fill="#789FEA" d="M190.752,45.25c0-1.16,0.92-2.09,2.06-2.09
				c1.13,0,2.06,0.93,2.06,2.09c0,1.15-0.93,2.09-2.06,2.09C191.672,47.34,190.752,46.4,190.752,45.25z"/>
		</g>
		<g>
			<path fill-rule="evenodd" clip-rule="evenodd" fill="#3EC658" d="M23.332,227.63c0-11.92,9.52-21.58,21.27-21.58
				s21.27,9.66,21.27,21.58s-9.52,21.58-21.27,21.58S23.332,239.55,23.332,227.63z"/>
			<g>
				<polygon fill-rule="evenodd" clip-rule="evenodd" fill="#EFEFEF" points="53.522,225.54 53.522,235.36 57.672,235.32 
					50.782,241 43.882,235.32 48.032,235.36 48.032,231.11 48.032,225.54 				"/>
			</g>
			<g>
				<polygon fill-rule="evenodd" clip-rule="evenodd" fill="#EFEFEF" points="42.542,232.5 42.542,222.73 46.772,222.75 
					39.802,216.12 32.822,222.75 37.052,222.73 37.052,226.94 37.052,232.5 				"/>
			</g>
		</g>
		<g>
			<path fill-rule="evenodd" clip-rule="evenodd" fill="#FFFFFF" d="M75.482,68.22c0-5.38,3.99-9.75,8.92-9.75
				c4.92,0,8.92,4.37,8.92,9.75c0,5.38-4,9.75-8.92,9.75C79.472,77.97,75.482,73.6,75.482,68.22z"/>
			
				<line fill-rule="evenodd" clip-rule="evenodd" fill="none" stroke="#FFA43C" stroke-width="2" stroke-linecap="round" stroke-linejoin="round" stroke-miterlimit="10" x1="76.162" y1="67.52" x2="94.002" y2="67.52"/>
			
				<path fill-rule="evenodd" clip-rule="evenodd" fill="#FFFFFF" stroke="#FFA43C" stroke-width="2" stroke-linecap="round" stroke-linejoin="round" stroke-miterlimit="10" d="
				M86.452,67.52c0-1.15,0.93-2.08,2.06-2.08c1.14,0,2.06,0.93,2.06,2.08c0,1.16-0.92,2.09-2.06,2.09
				C87.382,69.61,86.452,68.68,86.452,67.52z"/>
			<path fill-rule="evenodd" clip-rule="evenodd" fill="#FFFFFF" d="M83.712,79.36V90.5h-12.35v-6.97c0,0,3.17-4.56,5.49-5.56
				C79.162,76.96,83.712,79.36,83.712,79.36z"/>
			<path fill-rule="evenodd" clip-rule="evenodd" fill="#FFFFFF" d="M85.082,79.36V90.5h12.35v-6.97c0,0-3.17-4.56-5.49-5.56
				C89.632,76.96,85.082,79.36,85.082,79.36z"/>
			
				<path fill-rule="evenodd" clip-rule="evenodd" fill="#FFFFFF" stroke="#FFA43C" stroke-width="2" stroke-linecap="round" stroke-linejoin="round" stroke-miterlimit="10" d="
				M78.222,67.52c0-1.15,0.92-2.08,2.06-2.08c1.14,0,2.06,0.93,2.06,2.08c0,1.16-0.92,2.09-2.06,2.09
				C79.142,69.61,78.222,68.68,78.222,67.52z"/>
		</g>
	</g>
</g>
</svg>
