<?xml version="1.0" encoding="utf-8"?>
<!-- Generator: Adobe Illustrator 16.0.0, SVG Export Plug-In . SVG Version: 6.00 Build 0)  -->
<!DOCTYPE svg PUBLIC "-//W3C//DTD SVG 1.1//EN" "http://www.w3.org/Graphics/SVG/1.1/DTD/svg11.dtd">
<svg version="1.1" id="层_1" xmlns="http://www.w3.org/2000/svg" xmlns:xlink="http://www.w3.org/1999/xlink" x="0px" y="0px"
	 width="307.582px" height="261.833px" viewBox="0 0 307.582 261.833" enable-background="new 0 0 307.582 261.833"
	 xml:space="preserve">
<g>
	<g>
		<path fill-rule="evenodd" clip-rule="evenodd" fill="#4E9DF4" d="M0.002,213.423c0.41-26.63,66.17-48.16,146.88-48.16
			s146.14,21.53,146.14,48.16c0,26.71-65.76,48.41-146.88,48.41C65.022,261.833-0.408,240.133,0.002,213.423z"/>
		<path fill-rule="evenodd" clip-rule="evenodd" fill="#A3C9F5" d="M0.092,203.304c0.41-26.61,66.14-48.13,146.83-48.13
			s146.1,21.52,146.1,48.13c0,26.69-65.74,48.38-146.84,48.38C65.082,251.684-0.328,229.994,0.092,203.304z"/>
		<path fill-rule="evenodd" clip-rule="evenodd" fill="#D1E4FA" d="M32.492,199.253c0.29-20.9,51.9-37.8,115.28-37.8
			s114.74,16.9,114.7,37.8c-0.03,20.93-51.64,37.94-115.28,37.94S32.202,220.184,32.492,199.253z"/>
	</g>
	<g opacity="0.6">
		<path fill-rule="evenodd" clip-rule="evenodd" fill="#1057D5" d="M33.742,94.403l200.71-45.16c2.43-0.55,4.41,0.99,4.41,3.43
			v79.75c0,2.44-1.98,4.87-4.41,5.42l-200.71,45.16c-2.43,0.55-4.41-0.99-4.41-3.44v-79.74
			C29.332,97.374,31.312,94.954,33.742,94.403z"/>
		<path fill-rule="evenodd" clip-rule="evenodd" fill="#FFFFFF" d="M37.132,96.074l202.31-45.16c2.46-0.55,4.45,0.99,4.45,3.44
			v79.74c0,2.45-1.99,4.87-4.45,5.42l-202.31,45.17c-2.46,0.54-4.44-1-4.44-3.44v-79.74C32.692,99.054,34.672,96.624,37.132,96.074z
			"/>
		<path fill-rule="evenodd" clip-rule="evenodd" fill="#85A6E9" d="M135.802,90.264l52.27-11.22c1.33-0.28,2.41,0.51,2.41,1.78
			v10.73c0,1.27-1.08,2.53-2.41,2.82l-52.27,11.22c-1.33,0.28-2.41-0.51-2.41-1.78v-10.73
			C133.392,91.813,134.472,90.554,135.802,90.264z"/>
		<path fill-rule="evenodd" clip-rule="evenodd" fill="#B3C9F3" d="M135.942,119.003l91.85-19.57c1.48-0.31,2.69,0.6,2.69,2.05v5.22
			c0,1.45-1.21,2.87-2.69,3.19l-91.85,19.57c-1.48,0.31-2.68-0.6-2.68-2.05v-5.22C133.262,120.744,134.462,119.324,135.942,119.003z
			"/>
		<path fill-rule="evenodd" clip-rule="evenodd" fill="#B3C9F3" d="M135.952,135.753l91.84-19.57c1.48-0.31,2.69,0.6,2.69,2.04v5.23
			c0,1.45-1.21,2.87-2.69,3.19l-91.84,19.56c-1.49,0.32-2.69-0.59-2.69-2.04v-5.23C133.262,137.494,134.462,136.063,135.952,135.753
			z"/>
		<g>
			<path fill-rule="evenodd" clip-rule="evenodd" fill="#ABC9F4" d="M63.792,114.144c9.97-15.55,27.25-21.19,38.56-12.58
				c11.27,8.59,12.29,28.09,2.32,43.52c-9.94,15.4-27.09,21.01-38.37,12.54C55.002,149.124,53.852,129.673,63.792,114.144z"/>
		</g>
		<path fill-rule="evenodd" clip-rule="evenodd" fill="#222222" d="M88.102,111.704c0.67,0,8.7-0.68,9.15-0.68
			c3.79,0,2.68-0.46,7.14,1.37c1.11,0.45,2.67,2.05,3.57,3.42c1.34,2.06,4.01,4.11,4.24,6.16c0.22,1.37,0.67,3.43,0.67,3.89
			c0,0.68-0.9,1.36-0.9,2.05c0,0.46,0.45,0.68,0.45,1.37c0,0.46-0.45,3.42-1.12,5.25c-0.22,0.91-0.89,2.28-0.89,2.97
			c0,0.45,0.67,1.82,1.12,2.74c0.44,0.91,2.45,2.05,2.45,3.19s-2.01,5.48-2.9,5.71s-2.45,0.46-3.12,0.46
			c-1.12,0-2.46,0.22-2.46-0.92c0-0.68,1.12-1.59,2.01-2.28c-0.45-1.83-2.68-0.91-4.02-2.74c-0.44,0.23-0.66,0.46-0.89,1.14
			c-0.22,0.23,0.23,1.14,0.23,1.6s0,1.6-0.67,1.6c-1.79,0.23-5.14,0.68-5.8,0.68c-1.57,0-3.57,0-4.91-0.68
			c0.22-2.74,3.34-2.06,4.91-3.2c-0.9-1.6-2.01-2.28-3.13-2.96c0-0.23-0.22-0.92-0.44-1.37c0-0.23-0.23-0.23-0.45-0.46
			c0-0.91-0.22-2.06-0.45-2.97c-1.34-0.91-3.12-1.37-4.91-2.05c-1.56,2.28-1.56,5.25-2.45,7.3c-0.45,0.91-1.34,1.83-1.56,2.97
			c-0.45,0.68-0.22,2.05-0.45,3.19c0,0.23-0.22,0.46-0.44,0.46h-2.68c0,0,0,0.46-0.67,0.46h-4.91c-0.44-0.23-1.11-1.14-1.56-1.14
			c-1.56-0.46-3.12,0-4.69-0.23v-0.69c0.67-2.28,4.91-1.14,4.91-2.96c0-0.46-1.34-2.06-1.34-3.2c-0.22-0.68,0.23-2.05,0.23-2.74
			c0-0.46-0.23-3.65-0.23-4.34c0-1.37-1.11-1.59-2.23-2.28c0-0.91-0.67-3.2-2.23-3.65c-1.56-0.46-3.35,0-4.68-0.46
			c-1.34-0.46-2.68-1.37-3.35-1.37c-0.45,0-1.34,0.46-2.01,0.46c-0.44,0-0.67-0.23-0.89-0.23c-2.01-2.05-3.57-1.37-4.91-1.83
			c-0.22,0,0-0.45,0-0.91c0-0.68-0.89-0.68-1.34-0.91v-0.69c-0.22-0.45-0.67-0.91-0.89-1.37v-0.45c1.34-0.23,2.9-1.15,4.24-2.06
			c0.44-0.23,0.44-1.37,1.11-1.82c0.67-0.46,2.01-1.15,3.13-1.83c0.67-0.69,1.34-2.51,2.01-2.51c0.44,0,3.34,0.68,4.01,0.68
			c0.45,0,5.36-0.45,8.03-0.91c1.12,0,2.24-1.37,3.8-2.05c0.89-0.46,2.9-0.46,3.57-0.46
			C82.972,109.423,81.632,111.704,88.102,111.704z"/>
	</g>
	<g opacity="0.6">
		<path fill-rule="evenodd" clip-rule="evenodd" fill="#1057D5" d="M62.232,126.224l200.72-45.16c2.43-0.55,4.4,0.99,4.4,3.44v79.74
			c0,2.44-1.97,4.87-4.4,5.42l-200.72,45.16c-2.43,0.55-4.4-0.99-4.4-3.44v-79.74C57.832,129.204,59.802,126.773,62.232,126.224z"/>
		<path fill-rule="evenodd" clip-rule="evenodd" fill="#FFFFFF" d="M65.622,127.903l202.32-45.17c2.45-0.55,4.44,0.99,4.44,3.44
			v79.74c0,2.45-1.99,4.88-4.44,5.42l-202.32,45.17c-2.45,0.55-4.44-0.99-4.44-3.44v-79.74
			C61.182,130.874,63.172,128.443,65.622,127.903z"/>
		<path fill-rule="evenodd" clip-rule="evenodd" fill="#85A6E9" d="M164.212,122.003l52.26-11.22c1.33-0.28,2.41,0.52,2.41,1.79
			v10.73c0,1.27-1.08,2.53-2.41,2.81l-52.26,11.22c-1.33,0.29-2.41-0.51-2.41-1.78v-10.73
			C161.802,123.554,162.882,122.293,164.212,122.003z"/>
		<path fill-rule="evenodd" clip-rule="evenodd" fill="#B3C9F3" d="M164.442,150.824l91.84-19.56c1.49-0.32,2.69,0.59,2.69,2.04
			v5.23c0,1.44-1.2,2.87-2.69,3.18l-91.84,19.57c-1.48,0.31-2.69-0.6-2.69-2.04v-5.23
			C161.752,152.563,162.962,151.144,164.442,150.824z"/>
		<path fill-rule="evenodd" clip-rule="evenodd" fill="#B3C9F3" d="M164.442,167.574l91.84-19.57c1.49-0.31,2.69,0.6,2.69,2.05v5.22
			c0,1.45-1.2,2.87-2.69,3.19l-91.84,19.57c-1.48,0.31-2.69-0.6-2.69-2.05v-5.22C161.752,169.313,162.962,167.894,164.442,167.574z"
			/>
		<g>
			<path fill-rule="evenodd" clip-rule="evenodd" fill="#ABC9F4" d="M92.192,145.894c9.97-15.56,27.26-21.2,38.56-12.58
				c11.28,8.59,12.29,28.08,2.33,43.52c-9.95,15.39-27.1,21-38.37,12.53C83.402,180.863,82.252,161.414,92.192,145.894z"/>
		</g>
		<path fill-rule="evenodd" clip-rule="evenodd" fill="#333333" d="M140.372,153.363c0.23,1.37,0.23,2.98,0.7,4.58
			c0,0.46,1.17,1.6,1.17,2.29c0,0.45-0.7,0.91-0.7,1.6c0,0.46,0.7,2.06,0.94,3.89c-0.47,0-1.18,0-1.64-0.23
			c-0.47,1.14-0.71,2.29-1.18,3.43c-0.47,0.92-1.87,1.83-1.87,2.29c0,0.69,0.94,3.43,0.94,3.89c0,2.06-0.94,2.06-3.29,4.58
			c0.47,0.69-0.47,2.97-0.93,3.43c-5.63,0-6.33-0.23-7.04-0.23c0-0.45,0.24-1.6,0.71-2.06c1.17-1.6,3.04-1.83,3.04-3.2
			c0-0.69-0.47-2.75-1.17-3.89c-0.23-0.92-1.64-1.15-2.34-2.06c-0.71-0.46-1.41-1.37-1.88-2.06c-1.41,2.06-8.2,3.66-10.55,3.66
			c-0.47,0-2.58-0.23-3.51-0.69c-0.71-0.22-1.41-0.68-1.88-0.68c-0.94,0-0.7,2.29-0.7,2.29c0,0.45,0.47,3.43,0.7,5.72
			c-1.17,0-2.81,0-3.99,1.37c-0.93,0.23-3.28,0.69-3.75,0.69c-0.93,0-2.57-0.23-2.57-1.37c0-1.15,3.04-2.52,3.04-3.44
			c0-0.46-0.23-2.06-0.7-2.74c-0.94-1.61-2.58-3.21-4.22-4.81c-0.47,0.46-0.47,1.14-0.47,1.83c-0.94-0.23-2.34-0.46-2.81-0.46
			c-0.71,0-1.17,1.15-1.64,1.6c-0.71,0.69-1.18,1.38-1.88,2.29c-1.64,1.83-4.69,4.58-6.56,4.58c-1.41,0-3.28-1.14-4.69-2.06
			c-0.24-1.14-0.47-2.52-0.7-3.89c-3.05-2.29-3.52-4.12-3.52-6.41c0-0.68,0-1.37,0.23-2.06c0.24,1.15,3.52,5.49,5.4,5.49
			c2.1,0,2.57-5.03,2.57-5.26c0-2.75-0.93-0.91-3.51-4.8c1.4,0.45,3.51,1.14,4.22,1.14c1.87,0,0-4.12,2.34-4.12
			c0.7,0,0.94,0.46,1.41,0.92c1.17-1.15,2.11-2.75,3.05-3.9c0.93-1.37,2.57-1.6,3.28-2.51c0.47-0.69,0.47-1.61,0.94-2.06
			c0.23-0.23,5.62-2.98,6.79-2.98c0.47,0,9.15,0.69,9.62,0.69c0.7,0,8.2-0.69,9.84-1.15c0.94-0.22,3.05-0.22,3.75-0.22
			C130.992,146.273,134.512,148.784,140.372,153.363z"/>
	</g>
	<g opacity="0.6">
		<path fill-rule="evenodd" clip-rule="evenodd" fill="#1057D5" d="M99.122,155.014l201.3-45.26c2.44-0.55,4.41,1,4.41,3.45v79.9
			c0,2.45-1.97,4.88-4.41,5.43l-201.3,45.25c-2.44,0.55-4.42-0.99-4.42-3.44v-79.9C94.702,157.994,96.682,155.554,99.122,155.014z"
			/>
		<path fill-rule="evenodd" clip-rule="evenodd" fill="#FFFFFF" d="M102.462,158.043l200.72-45.16c2.43-0.55,4.4,0.99,4.4,3.44
			v79.74c0,2.45-1.97,4.87-4.4,5.42l-200.72,45.17c-2.43,0.54-4.4-1-4.4-3.44v-79.74
			C98.062,161.023,100.032,158.593,102.462,158.043z"/>
		<g>
			<path fill-rule="evenodd" clip-rule="evenodd" fill="#ABC9F4" d="M126.582,175.093c9.96-15.55,27.25-21.2,38.56-12.58
				c11.27,8.59,12.29,28.08,2.32,43.52c-9.94,15.4-27.1,21-38.37,12.54C117.792,210.074,116.642,190.624,126.582,175.093z"/>
		</g>
		<path fill-rule="evenodd" clip-rule="evenodd" fill="#85A6E9" d="M197.682,150.903l52.18-11.28c1.33-0.28,2.41,0.52,2.41,1.79
			v10.79c0,1.28-1.08,2.54-2.41,2.83l-52.18,11.27c-1.33,0.29-2.4-0.51-2.4-1.79v-10.78
			C195.282,152.454,196.352,151.193,197.682,150.903z"/>
		<path fill-rule="evenodd" clip-rule="evenodd" fill="#B3C9F3" d="M197.922,179.293l90.26-19.56c1.46-0.32,2.64,0.59,2.64,2.04
			v5.23c0,1.44-1.18,2.87-2.64,3.18l-90.26,19.57c-1.46,0.31-2.64-0.6-2.64-2.04v-5.23
			C195.282,181.034,196.462,179.613,197.922,179.293z"/>
		<path fill-rule="evenodd" clip-rule="evenodd" fill="#B3C9F3" d="M197.922,196.043l90.26-19.57c1.46-0.31,2.64,0.6,2.64,2.05v5.22
			c0,1.45-1.18,2.88-2.64,3.19l-90.26,19.57c-1.46,0.31-2.64-0.6-2.64-2.04v-5.23C195.282,197.784,196.462,196.363,197.922,196.043z
			"/>
		<path fill-rule="evenodd" clip-rule="evenodd" fill="#333333" d="M124.702,177.554c0.29,0.5,0.28,1.62,1.91,1.36
			c4.73-0.69,10.39,3.65,13.82,5.71c1,0.55,3.18,0.85,4.47,0.78c3.53-0.02,9.79,1.95,13.83,2.06c1.21,0.19,2.98-0.17,4.76,0.59
			c2.82,1.05,6.39,5.93,9.96,3.82c1.14-0.67,2.44-3.24,2.93-5.33c1.1,1.83-1.17,4.97-2.3,5.64c-3.41,2.01-7.2-0.27-9.3-1.96
			c-0.66-0.74-1.88-0.93-2.93-1.21c-0.52,0.98,0.73,1.6,1.07,2.53c0.66,1.86,0.94,4.19,1.54,6.32c0.04,0.44,0.54,1.27,0.74,1.61
			c0.3,0.51,1.85,1.63,2.15,2.14c0.2,0.33,1.65,4.26,2.26,6.42c0.21,0.33-0.19,0.8-0.51,0.99c-0.5,0.3-2.01,0.75-3.2,1
			c-0.1-4.3,1.26-3.5-0.14-5.87c-1.5-2.53-3.95-4.04-6.6-5.88c-0.42,1.16,0.08,2,0.58,2.84c0.3,0.51,2.02,1.54,2.22,1.88
			c0.3,0.5,0.43,1.11,0.73,1.61c0.2,0.34-0.06,0.27-0.13,0.54c1.17,1.59,0.72,4.61-0.93,5.6c-0.99,0.59-1.19,0.25-1.49-0.26
			c-0.8-1.36,1.81-3.37,1-4.73c-1-1.69-5.7-3.23-7.3-5.94c-0.19-0.33-0.59-1.01-0.56-1.71c-1.82-0.06-3.61,0.31-5.17,0.31
			c-2.76,0.26-6.09-0.07-9.19-0.76c-1.23-0.18-2.59-0.98-3.9-0.9c-1.3,0.08-2.28,1.1-3.32,1.25c-1.38,0.35-5.48,0.68-7,1.56
			c-1.7,0.99-0.99,2.62-2.18,3.31s-2.9,0.09-3.5-0.94c-0.98-1.7,0.63-2.86,1.99-3.64c2.35-1.81,3.15-1.6,3.49-1.79l0.14-0.54
			c-1.7-0.6-3.45-0.49-4.47,0.09c-3,1.5-3.24,1.87-3.48,2.23c-0.74-0.48-1.77-1.48-1.96-1.82c-0.79-1.36-0.25-1.21,0.6-1.7
			c4.09-2.34,10.6-2.02,12.12-2.9c0.5-0.29,1.5-2.44,2.31-3.35c0.24-0.36,0.28-1.06-0.01-1.56c-0.2-0.34-1-0.55-1.53-0.7
			c-0.58,0.56-0.35,1.32-0.22,1.93c-0.54-0.15-1.24-0.2-1.74,0.09c-0.34,0.2-1.13,1.55-1.64,1.84c-0.84,0.48-3.82-2.31-3.92-2.48
			c-0.29-0.5-0.12-0.6-0.22-0.77c0.7-1.52,0.76-3.34,1.21-4.49c-0.03-0.43,0.75-0.65,1.06-1.27c0.47-0.72,0.73-2.2,1.11-3.08
			L124.702,177.554z"/>
	</g>
</g>
</svg>
