<?xml version="1.0" encoding="utf-8"?>
<!-- Generator: Adobe Illustrator 16.0.0, SVG Export Plug-In . SVG Version: 6.00 Build 0)  -->
<!DOCTYPE svg PUBLIC "-//W3C//DTD SVG 1.1//EN" "http://www.w3.org/Graphics/SVG/1.1/DTD/svg11.dtd">
<svg version="1.1" id="层_1" xmlns="http://www.w3.org/2000/svg" xmlns:xlink="http://www.w3.org/1999/xlink" x="0px" y="0px"
	 width="478px" height="270px" viewBox="0 0 478 270" enable-background="new 0 0 478 270" xml:space="preserve">
<g>
	
		<ellipse fill-rule="evenodd" clip-rule="evenodd" fill="none" stroke="#1057D5" stroke-width="2" stroke-linecap="round" stroke-linejoin="round" stroke-miterlimit="10" cx="240.5" cy="141.5" rx="202.5" ry="111.5"/>
	<g>
		<polygon fill-rule="evenodd" clip-rule="evenodd" fill="#BFDAF7" points="0.03,132.61 43.1,160.12 86.99,132.55 43.64,105 		"/>
		<polygon fill-rule="evenodd" clip-rule="evenodd" fill="#A3C9F5" points="0,132.57 43.13,160.04 43.13,172.99 0.01,145.44 		"/>
		<polygon fill-rule="evenodd" clip-rule="evenodd" fill="#4E9DF4" points="87,132.56 43.13,160.05 43.13,173 86.97,145.45 		"/>
		<g>
			<path fill="#DAE1F7" d="M43.51,105.652l42.54,26.866l-42.918,26.831L1.023,132.581L43.51,105.652 M43.51,105.06L0.09,132.58
				l43.04,27.36l43.86-27.42L43.51,105.06L43.51,105.06z"/>
		</g>
		<polygon fill-rule="evenodd" clip-rule="evenodd" fill="#3E43C2" points="17.42,132.54 43.89,149.54 70.41,132.52 44.33,115.52 		
			"/>
		
			<line fill-rule="evenodd" clip-rule="evenodd" fill="none" stroke="#D9E0F7" stroke-width="0.5" stroke-linecap="round" stroke-linejoin="round" stroke-miterlimit="10" x1="43.08" y1="160.05" x2="43.08" y2="173"/>
	</g>
	<g>
		<polygon fill-rule="evenodd" clip-rule="evenodd" fill="#BFDAF7" points="397.03,132.8 437.13,159.5 477.99,132.74 437.63,106 		
			"/>
		<polygon fill-rule="evenodd" clip-rule="evenodd" fill="#A3C9F5" points="397,132.76 437.16,159.42 437.16,171.99 397.01,145.25 
					"/>
		<polygon fill-rule="evenodd" clip-rule="evenodd" fill="#4E9DF4" points="478,132.75 437.16,159.43 437.16,172 477.98,145.26 		
			"/>
		<g>
			<path fill="#DAE1F7" d="M437.51,106.649l39.568,26.059l-39.916,26.024l-39.177-25.961L437.51,106.649 M437.51,106.05
				l-40.43,26.72l40.08,26.56l40.83-26.62L437.51,106.05L437.51,106.05z"/>
		</g>
		<polygon fill-rule="evenodd" clip-rule="evenodd" fill="#3E43C2" points="413.21,132.73 437.86,149.23 462.55,132.71 
			438.27,116.21 		"/>
		
			<line fill-rule="evenodd" clip-rule="evenodd" fill="none" stroke="#D9E0F7" stroke-width="0.5" stroke-linecap="round" stroke-linejoin="round" stroke-miterlimit="10" x1="437.11" y1="159.43" x2="437.11" y2="172"/>
	</g>
	<g>
		<ellipse fill-rule="evenodd" clip-rule="evenodd" fill="#060352" cx="238.5" cy="129.87" rx="93.5" ry="60.13"/>
		<ellipse fill-rule="evenodd" clip-rule="evenodd" fill="#1057D5" cx="238.5" cy="123.13" rx="93.5" ry="60.13"/>
		<ellipse fill-rule="evenodd" clip-rule="evenodd" fill="#061B98" cx="238.5" cy="123.87" rx="72.23" ry="46.86"/>
		<ellipse fill-rule="evenodd" clip-rule="evenodd" fill="#1A71E5" cx="238.5" cy="118.62" rx="72.23" ry="46.86"/>
		<path fill-rule="evenodd" clip-rule="evenodd" fill="#00EBFF" d="M182.22,114.68c0-20.32,25.4-36.79,56.72-36.79
			c31.33,0,56.72,16.47,56.72,36.79c0,20.31-25.39,36.78-56.72,36.78C207.62,151.46,182.22,134.99,182.22,114.68z"/>
	</g>
	<g>
		<g>
			<polygon fill-rule="evenodd" clip-rule="evenodd" fill="#4A69C5" points="199.01,106.48 240.49,133.23 282,106.5 240.33,80 			
				"/>
			<polygon fill-rule="evenodd" clip-rule="evenodd" fill="#153EB7" points="199,106.48 240.5,133.3 240.5,138 199.03,111.44 			"/>
			<polygon fill-rule="evenodd" clip-rule="evenodd" fill="#093097" points="282,106.48 240.5,133.3 240.5,138 281.97,111.44 			"/>
			
				<polygon fill-rule="evenodd" clip-rule="evenodd" fill="none" stroke="#B1D2F8" stroke-linecap="round" stroke-linejoin="round" stroke-miterlimit="10" points="
				208.35,106.21 240.08,127.04 272.24,106.38 240.08,85.63 			"/>
		</g>
		<g>
			
				<line fill-rule="evenodd" clip-rule="evenodd" fill="none" stroke="#222222" stroke-width="2" stroke-linecap="square" stroke-linejoin="round" stroke-miterlimit="10" x1="276.67" y1="112.85" x2="279.13" y2="116.9"/>
			
				<line fill-rule="evenodd" clip-rule="evenodd" fill="none" stroke="#222222" stroke-width="2" stroke-linecap="square" stroke-linejoin="round" stroke-miterlimit="10" x1="272.72" y1="115.76" x2="275.18" y2="119.81"/>
			
				<line fill-rule="evenodd" clip-rule="evenodd" fill="none" stroke="#222222" stroke-width="2" stroke-linecap="square" stroke-linejoin="round" stroke-miterlimit="10" x1="268.47" y1="118.19" x2="270.93" y2="122.25"/>
			
				<line fill-rule="evenodd" clip-rule="evenodd" fill="none" stroke="#222222" stroke-width="2" stroke-linecap="square" stroke-linejoin="round" stroke-miterlimit="10" x1="264.04" y1="121.1" x2="266.5" y2="125.16"/>
			
				<line fill-rule="evenodd" clip-rule="evenodd" fill="none" stroke="#222222" stroke-width="2" stroke-linecap="square" stroke-linejoin="round" stroke-miterlimit="10" x1="259.94" y1="123.87" x2="262.4" y2="127.92"/>
			
				<line fill-rule="evenodd" clip-rule="evenodd" fill="none" stroke="#222222" stroke-width="2" stroke-linecap="square" stroke-linejoin="round" stroke-miterlimit="10" x1="255.51" y1="126.78" x2="257.96" y2="130.83"/>
			
				<line fill-rule="evenodd" clip-rule="evenodd" fill="none" stroke="#222222" stroke-width="2" stroke-linecap="square" stroke-linejoin="round" stroke-miterlimit="10" x1="251.26" y1="129.21" x2="253.72" y2="133.27"/>
			
				<line fill-rule="evenodd" clip-rule="evenodd" fill="none" stroke="#222222" stroke-width="2" stroke-linecap="square" stroke-linejoin="round" stroke-miterlimit="10" x1="246.83" y1="132.12" x2="249.28" y2="136.18"/>
		</g>
		<g>
			
				<line fill-rule="evenodd" clip-rule="evenodd" fill="none" stroke="#222222" stroke-width="2" stroke-linecap="square" stroke-linejoin="round" stroke-miterlimit="10" x1="203.72" y1="111.89" x2="201.26" y2="115.95"/>
			
				<line fill-rule="evenodd" clip-rule="evenodd" fill="none" stroke="#222222" stroke-width="2" stroke-linecap="square" stroke-linejoin="round" stroke-miterlimit="10" x1="207.67" y1="115.28" x2="205.21" y2="119.34"/>
			
				<line fill-rule="evenodd" clip-rule="evenodd" fill="none" stroke="#222222" stroke-width="2" stroke-linecap="square" stroke-linejoin="round" stroke-miterlimit="10" x1="212.4" y1="118.19" x2="209.94" y2="122.25"/>
			
				<line fill-rule="evenodd" clip-rule="evenodd" fill="none" stroke="#222222" stroke-width="2" stroke-linecap="square" stroke-linejoin="round" stroke-miterlimit="10" x1="217.32" y1="121.1" x2="214.86" y2="125.16"/>
			
				<line fill-rule="evenodd" clip-rule="evenodd" fill="none" stroke="#222222" stroke-width="2" stroke-linecap="square" stroke-linejoin="round" stroke-miterlimit="10" x1="221.9" y1="124.35" x2="219.44" y2="128.4"/>
			
				<line fill-rule="evenodd" clip-rule="evenodd" fill="none" stroke="#222222" stroke-width="2" stroke-linecap="square" stroke-linejoin="round" stroke-miterlimit="10" x1="226.33" y1="127.26" x2="223.87" y2="131.31"/>
			
				<line fill-rule="evenodd" clip-rule="evenodd" fill="none" stroke="#222222" stroke-width="2" stroke-linecap="square" stroke-linejoin="round" stroke-miterlimit="10" x1="231.06" y1="130.17" x2="228.6" y2="134.22"/>
			
				<line fill-rule="evenodd" clip-rule="evenodd" fill="none" stroke="#222222" stroke-width="2" stroke-linecap="square" stroke-linejoin="round" stroke-miterlimit="10" x1="235.98" y1="133.56" x2="233.52" y2="137.61"/>
		</g>
		<g>
			
				<path fill-rule="evenodd" clip-rule="evenodd" fill="none" stroke="#B1D2F8" stroke-width="2" stroke-linecap="round" stroke-linejoin="round" stroke-miterlimit="10" d="
				M229.03,98.2c2.62-1.85,10.19,0.16,16.92,4.48c6.73,4.31,10.06,9.3,7.45,11.15c-2.62,1.84-10.2-0.17-16.93-4.48
				C229.74,105.03,226.41,100.04,229.03,98.2z"/>
			<path fill="#B1D2F8" stroke="#B1D2F8" stroke-linecap="round" stroke-linejoin="round" stroke-miterlimit="10" d="M249.24,99.08
				c0.65,0.14,1.62,0.03,2.32-0.52c0.7-0.55,0.26-1.14-0.86-1.4c-2.3-0.54-4.83,0.71-7.13,2.07c-0.66,0.4-1.31,0.8-1.93,1.17
				c-4.74,2.85-7.98,4.78-11.69,7.68c-0.77,0.6-1.41,1.37-2.76,1.65c-1.06-0.48-0.15-0.82-1.35-1.09c-1.89-0.42-3.6,1.23-2.53,1.79
				c0.34,0.17,0.7,0.26,1.25,0.32c2.67,0.32,5.4-1.38,8.18-3.05c5.22-3.12,7.8-4.72,12.17-7.99l0.05-0.04
				c0.79-0.6,2.02-1.66,2.8-1.58C248.51,98.16,248.22,98.87,249.24,99.08z"/>
			<path fill="#B1D2F8" stroke="#B1D2F8" stroke-linecap="round" stroke-linejoin="round" stroke-miterlimit="10" d="M257.03,101.23
				c-2.3-0.54-4.82,0.71-7.13,2.07c-0.66,0.39-1.31,0.79-1.93,1.17c-4.74,2.84-8,4.79-11.71,7.7c-0.76,0.59-1.41,1.36-2.77,1.64
				c-1.06-0.48-0.14-0.81-1.34-1.09c-1.89-0.42-3.61,1.24-2.53,1.79c0.34,0.18,0.69,0.26,1.24,0.33c2.68,0.31,5.4-1.38,8.19-3.06
				c5.21-3.12,7.83-4.74,12.19-8.01l0.05-0.03c0.79-0.6,2.02-1.67,2.8-1.59c0.75,0.08,0.46,0.79,1.48,1
				c0.66,0.14,1.63,0.02,2.33-0.53C258.59,102.07,258.15,101.49,257.03,101.23z"/>
		</g>
	</g>
	<g>
		<g>
			<g>
				<path fill-rule="evenodd" clip-rule="evenodd" fill="#336290" d="M264.64,29.27c-1.31-5.23-2.07-10.71,0.56-12.85
					c0.83-0.67,3.63-0.29,4.75-0.39c4.66-0.45,9.83,4.76,11.56,11.63c1.72,6.87-0.13,11.88-4.35,13.45
					c-3.42,1.28-5.05,1.04-6.04,0.67C267.42,40.39,266,34.68,264.64,29.27z"/>
				<path fill-rule="evenodd" clip-rule="evenodd" fill="#336290" d="M257.15,63.33V46.35c0,0-0.86-4.58,2.16-6
					c3.03-1.43,6.58,0.32,6.58,0.32l15.21,7.2c0,0,3.76,3.03,5.43,5.22c1.91,2.49,2.47,7.21,2.47,7.21v18.19l-3.79,0.6L257.15,63.33
					z"/>
				<path fill-rule="evenodd" clip-rule="evenodd" fill="#5F82A5" d="M260.89,29.87c-1.72-6.87,0.66-12.79,5.31-13.24
					c4.66-0.44,9.83,4.77,11.56,11.64c1.72,6.86-0.65,12.79-5.31,13.24C267.79,41.95,262.62,36.74,260.89,29.87z"/>
				<path fill-rule="evenodd" clip-rule="evenodd" fill="#577A9D" d="M253.4,63.94V46.96c0,0,0.54-4.03,3.57-5.46
					c3.03-1.43,5.17-0.22,5.17-0.22l15.21,7.2c0,0,3.76,3.03,5.44,5.22c1.9,2.48,2.11,7.29,2.11,7.29v18.19L253.4,63.94z"/>
			</g>
			<g>
				<path fill-rule="evenodd" clip-rule="evenodd" fill="#CA9800" d="M238.93,35.18c-1.31-5.22-2.07-10.7,0.56-12.84
					c0.83-0.68,3.63-0.29,4.75-0.4c4.66-0.44,9.83,4.77,11.55,11.64c1.73,6.87-0.12,11.88-4.34,13.45
					c-3.42,1.27-5.05,1.04-6.04,0.66C241.71,46.3,240.29,40.6,238.93,35.18z"/>
				<path fill-rule="evenodd" clip-rule="evenodd" fill="#CA9800" d="M231.44,69.25V52.27c0,0-0.87-4.58,2.16-6.01
					c3.03-1.43,6.58,0.32,6.58,0.32l15.21,7.21c0,0,3.76,3.03,5.43,5.22c1.9,2.48,2.47,7.21,2.47,7.21v18.19L259.5,85L231.44,69.25z
					"/>
				<path fill-rule="evenodd" clip-rule="evenodd" fill="#F2B600" d="M235.18,35.79c-1.72-6.87,0.66-12.8,5.31-13.24
					c4.66-0.45,9.83,4.76,11.56,11.63c1.72,6.87-0.66,12.8-5.31,13.24C242.08,47.87,236.91,42.66,235.18,35.79z"/>
				<path fill-rule="evenodd" clip-rule="evenodd" fill="#F2B600" d="M227.69,69.85V52.87c0,0,0.54-4.03,3.57-5.46
					c3.03-1.43,5.17-0.22,5.17-0.22l15.21,7.2c0,0,3.76,3.03,5.44,5.23c1.9,2.48,2.14,7.11,2.14,7.11v18.2L227.69,69.85z"/>
			</g>
			<g>
				<path fill-rule="evenodd" clip-rule="evenodd" fill="#5D5FCE" d="M211.24,29.27c-1.31-5.23-2.07-10.71,0.56-12.85
					c0.83-0.67,3.63-0.29,4.75-0.39c4.66-0.45,9.83,4.76,11.56,11.63c1.72,6.87-0.13,11.88-4.35,13.45
					c-3.42,1.28-5.05,1.04-6.04,0.67C214.02,40.39,212.6,34.68,211.24,29.27z"/>
				<path fill-rule="evenodd" clip-rule="evenodd" fill="#5D5FCE" d="M203.75,63.33V46.35c0,0-0.86-4.58,2.16-6
					c3.03-1.43,6.58,0.32,6.58,0.32l15.21,7.2c0,0,3.76,3.03,5.43,5.22c1.91,2.49,2.47,7.21,2.47,7.21v18.19l-3.79,0.6L203.75,63.33
					z"/>
				<path fill-rule="evenodd" clip-rule="evenodd" fill="#BABDEA" d="M207.49,29.87c-1.72-6.87,0.66-12.79,5.31-13.24
					c4.66-0.44,9.83,4.77,11.56,11.64c1.72,6.86-0.65,12.79-5.31,13.24C214.39,41.95,209.22,36.74,207.49,29.87z"/>
				<path fill-rule="evenodd" clip-rule="evenodd" fill="#BABDEA" d="M200,63.94V46.96c0,0,0.54-4.03,3.57-5.46
					c3.03-1.43,5.17-0.22,5.17-0.22l15.21,7.2c0,0,3.76,3.03,5.44,5.22c1.9,2.48,2.23,7.05,2.23,7.05v18.19L200,63.94z"/>
			</g>
		</g>
		
			<polygon fill-rule="evenodd" clip-rule="evenodd" fill="#FFFFFF" stroke="#FFFFFF" stroke-linecap="round" stroke-linejoin="round" stroke-miterlimit="10" points="
			236.7,66.24 242.72,71.11 251.34,63.39 248.61,61.26 242.4,66.81 239.08,64.06 		"/>
		
			<polygon fill-rule="evenodd" clip-rule="evenodd" fill="#FFFFFF" stroke="#FFFFFF" stroke-linecap="round" stroke-linejoin="round" stroke-miterlimit="10" points="
			208.22,61.12 214.24,65.99 222.86,58.27 220.13,56.13 213.92,61.68 210.6,58.93 		"/>
		
			<polygon fill-rule="evenodd" clip-rule="evenodd" fill="#FFFFFF" stroke="#FFFFFF" stroke-linecap="round" stroke-linejoin="round" stroke-miterlimit="10" points="
			261.22,58.75 267.25,63.62 275.87,55.9 273.14,53.77 266.93,59.32 263.61,56.57 		"/>
	</g>
	<g>
		<linearGradient id="SVGID_1_" gradientUnits="userSpaceOnUse" x1="242.5002" y1="151.3447" x2="242.5002" y2="18">
			<stop  offset="0" style="stop-color:#BFFFFF"/>
			<stop  offset="1" style="stop-color:#BFFFFF;stop-opacity:0"/>
		</linearGradient>
		<path fill-rule="evenodd" clip-rule="evenodd" fill="url(#SVGID_1_)" d="M150,18h185l-38.44,100.7c0,0-8.16,33.69-54.7,32.62
			C184.75,150,181.5,118,181.5,118L150,18z"/>
	</g>
	<g>
		<g>
			<rect x="423.92" y="81" opacity="0.2" fill-rule="evenodd" clip-rule="evenodd" fill="#788DFA" width="40.08" height="46.17"/>
			
				<rect x="421.83" y="83.07" opacity="0.3" fill-rule="evenodd" clip-rule="evenodd" fill="#788DFA" width="40.07" height="46.17"/>
			
				<rect x="419.73" y="85.14" opacity="0.5" fill-rule="evenodd" clip-rule="evenodd" fill="#788DFA" width="40.07" height="46.17"/>
			<rect x="417" y="87.83" fill-rule="evenodd" clip-rule="evenodd" fill="#788DFA" width="40.08" height="46.17"/>
			<g>
				<rect x="419.53" y="94.37" fill-rule="evenodd" clip-rule="evenodd" fill="#FFFFFF" width="13.17" height="1.49"/>
				<rect x="434.37" y="94.37" fill-rule="evenodd" clip-rule="evenodd" fill="#FFFFFF" width="9.41" height="1.49"/>
				<rect x="419.53" y="99.82" fill-rule="evenodd" clip-rule="evenodd" fill="#FFFFFF" width="15.16" height="1.49"/>
				<rect x="419.53" y="104.77" fill-rule="evenodd" clip-rule="evenodd" fill="#FFFFFF" width="15.16" height="1.49"/>
				<rect x="419.53" y="109.73" fill-rule="evenodd" clip-rule="evenodd" fill="#FFFFFF" width="19.71" height="1.48"/>
				<rect x="419.53" y="115.18" fill-rule="evenodd" clip-rule="evenodd" fill="#FFFFFF" width="26.28" height="1.48"/>
				<rect x="437.72" y="99.82" fill-rule="evenodd" clip-rule="evenodd" fill="#FFFFFF" width="10.11" height="1.49"/>
				<path fill-rule="evenodd" clip-rule="evenodd" fill="#FFFFFF" d="M421.05,121.47h13.15c0.54,0,0.98,0.44,0.98,0.97v4.52
					c0,0.54-0.44,0.97-0.98,0.97h-13.15c-0.55,0-0.99-0.43-0.99-0.97v-4.52C420.06,121.91,420.5,121.47,421.05,121.47z"/>
				<path fill-rule="evenodd" clip-rule="evenodd" fill="#FFFFFF" d="M439.45,121.47h13.15c0.55,0,0.99,0.44,0.99,0.97v4.52
					c0,0.54-0.44,0.97-0.99,0.97h-13.15c-0.54,0-0.98-0.43-0.98-0.97v-4.52C438.47,121.91,438.91,121.47,439.45,121.47z"/>
			</g>
		</g>
		
			<path fill-rule="evenodd" clip-rule="evenodd" fill="none" stroke="#8BAAEA" stroke-width="2" stroke-linejoin="round" stroke-miterlimit="10" d="
			M464.211,104.085c4.59,1.43,9.789,3.585,9.789,5.595c0,4.59-14.77,8.32-33,8.32s-33-3.73-33-8.32c0-2.2,3.16-4.456,8.669-5.946"/>
	</g>
	<g>
		<path fill-rule="evenodd" clip-rule="evenodd" fill="#DFE0F0" d="M41.3,82.99l-22.26,8.6c0,0-1.37,17.19,1.62,27.79
			c4.32,15.3,20.63,18.61,20.63,18.61L41.3,82.99z"/>
		<path fill-rule="evenodd" clip-rule="evenodd" fill="#C6C7E5" d="M41.27,83l22.65,8.96c0,0,1.36,17.16-1.6,27.74
			c-4.28,15.27-21.03,18.29-21.03,18.29L41.27,83z"/>
		<path fill-rule="evenodd" clip-rule="evenodd" fill="#9FAFEB" d="M41.3,87.36l-17.85,6.65c0,0-1.23,14.59,0.82,23.68
			c2.94,13.05,16.99,15.97,16.99,15.97L41.3,87.36z"/>
		<path fill-rule="evenodd" clip-rule="evenodd" fill="#788EE3" d="M41.3,87.36l18.22,7.74c0,0,0.51,14.8-1.64,23.78
			c-3.12,13.02-16.62,14.75-16.62,14.75L41.3,87.36z"/>
		
			<path fill-rule="evenodd" clip-rule="evenodd" fill="none" stroke="#FFFFFF" stroke-linecap="round" stroke-linejoin="round" stroke-miterlimit="10" d="
			M36.46,105.47c0,0-0.26-4.72,4.68-4.77c4.94-0.05,4.92,4.29,4.92,4.29s4.49,1.23,4.33,4.3c-0.17,3.08-3.85,3.83-3.85,3.83H35.98
			c0,0-4.33-0.6-4.33-4.3C31.65,105.12,36.46,105.47,36.46,105.47z"/>
		
			<path fill-rule="evenodd" clip-rule="evenodd" fill="none" stroke="#8085E6" stroke-width="2" stroke-linecap="round" stroke-linejoin="round" stroke-miterlimit="10" d="
			M64.84,102.99c4.24,1.42,7.16,3.25,7.16,5.23c0,4.56-13.66,8.25-30.5,8.25S11,112.78,11,108.22c0-2.17,1.551-4.15,6.641-5.62"/>
	</g>
	<g>
		<g>
			<polygon fill-rule="evenodd" clip-rule="evenodd" fill="#7CB6F9" points="213.03,242.98 238.98,259.97 264.95,242.98 
				239.52,226.03 			"/>
			<polygon fill-rule="evenodd" clip-rule="evenodd" fill="#5C7AF6" points="213,243 239,260 239,270 213.02,252.98 			"/>
			<polygon fill-rule="evenodd" clip-rule="evenodd" fill="#3E43C2" points="221.03,243.03 239,254.98 258,243.05 239.63,231 			"/>
			<polygon fill-rule="evenodd" clip-rule="evenodd" fill="#312AAA" points="265,243 239,260 239,270 264.98,252.98 			"/>
		</g>
		<polygon fill-rule="evenodd" clip-rule="evenodd" fill="#FFFFFF" points="217,232 217,223 240.16,232 263,222 263,232 240,242 		
			"/>
		<g>
			
				<line fill-rule="evenodd" clip-rule="evenodd" fill="none" stroke="#17B599" stroke-width="2" stroke-linecap="round" stroke-linejoin="round" stroke-miterlimit="10" x1="217.4" y1="227.06" x2="240.11" y2="237.42"/>
			
				<line fill-rule="evenodd" clip-rule="evenodd" fill="none" stroke="#17B599" stroke-width="2" stroke-linecap="round" stroke-linejoin="round" stroke-miterlimit="10" x1="240.11" y1="237.42" x2="262.82" y2="226.51"/>
			<path fill-rule="evenodd" clip-rule="evenodd" fill="#19C5A6" d="M241.52,208.33L263,219.48c0.85,0.86,0.85,1.5,0,2.36
				l-21.53,10.53c-1.09,0.61-2,0.73-3.08,0l-21.13-10.16c-0.85-0.86-0.91-2.25-0.06-3.11l21.24-10.77
				C239.52,207.59,240.62,207.62,241.52,208.33z"/>
			<path fill-rule="evenodd" clip-rule="evenodd" fill="#FFFFFF" d="M247.6,215.42l-11.23,5.71h-1.07l-2.67-1.96h-0.36v0.89
				c0,0,1.73,5.13,2.5,5.18c0.77,0.04,13.72-8.39,13.72-8.39L247.6,215.42z"/>
		</g>
		
			<path fill-rule="evenodd" clip-rule="evenodd" fill="#FFFFFF" stroke="#17B599" stroke-width="2" stroke-linecap="round" stroke-linejoin="round" stroke-miterlimit="10" d="
			M217.4,232.42l22.71,10.36L217.4,232.42z M240.11,242.78l22.71-10.91L240.11,242.78z"/>
	</g>
</g>
</svg>
