<?xml version="1.0" encoding="utf-8"?>
<!-- Generator: Adobe Illustrator 16.0.0, SVG Export Plug-In . SVG Version: 6.00 Build 0)  -->
<!DOCTYPE svg PUBLIC "-//W3C//DTD SVG 1.1//EN" "http://www.w3.org/Graphics/SVG/1.1/DTD/svg11.dtd">
<svg version="1.1" id="层_1" xmlns="http://www.w3.org/2000/svg" xmlns:xlink="http://www.w3.org/1999/xlink" x="0px" y="0px"
	 width="200px" height="112.54px" viewBox="0 0 200 112.54" enable-background="new 0 0 200 112.54" xml:space="preserve">
<g>
	<path fill="#EFEFEF" d="M0,87.54c0-13.81,44.77-25,100-25c55.23,0,100,11.19,100,25c0,13.811-44.77,25-100,25
		C44.77,112.54,0,101.35,0,87.54z"/>
	<g>
		<rect x="57" y="42.54" fill="#C7A570" width="90" height="60"/>
		<polygon fill="#F9EBDF" points="114,41.54 114,81.35 107.641,74.04 102.92,79.879 98.17,73.99 92,81.54 92,41.54 		"/>
		<g>
			
				<polygon fill="none" stroke="#5E7191" stroke-width="2" stroke-linecap="round" stroke-linejoin="round" stroke-miterlimit="10" points="
				58,21.5 51.03,28.56 58.03,35.53 65.03,28.39 			"/>
			
				<path fill="#8CB4DF" stroke="#8CB4DF" stroke-width="2" stroke-linecap="round" stroke-linejoin="round" stroke-miterlimit="10" d="
				M100.971,20.54c0,0-7.971-9.69-7.971-12.12s1.91-6.88,7.54-6.88c5.62,0,7.46,4.76,7.46,6.88S100.971,20.54,100.971,20.54z"/>
			<path fill="none" stroke="#436D5F" stroke-width="2" stroke-linecap="round" stroke-linejoin="round" stroke-miterlimit="10" d="
				M137,29.54c0-3.31,2.689-6,6-6s6,2.69,6,6s-2.689,6-6,6S137,32.85,137,29.54z"/>
			<path fill="#8FADFF" d="M68,22.54c0-1.1,0.9-2,2-2s2,0.9,2,2s-0.9,2-2,2S68,23.64,68,22.54z"/>
			<path fill="#8FADFF" d="M76,19.54c0-1.1,0.9-2,2-2s2,0.9,2,2s-0.9,2-2,2S76,20.64,76,19.54z"/>
			<path fill="#8FADFF" d="M84,16.54c0-1.1,0.9-2,2-2s2,0.9,2,2s-0.9,2-2,2S84,17.64,84,16.54z"/>
			<path fill="#8FADFF" d="M134,22.54c0-1.1-0.9-2-2-2s-2,0.9-2,2s0.9,2,2,2S134,23.64,134,22.54z"/>
			<path fill="#8FADFF" d="M126,19.54c0-1.1-0.9-2-2-2s-2,0.9-2,2s0.9,2,2,2S126,20.64,126,19.54z"/>
			<path fill="#8FADFF" d="M118,16.54c0-1.1-0.9-2-2-2s-2,0.9-2,2s0.9,2,2,2S118,17.64,118,16.54z"/>
			<path fill="#FFFFFF" d="M96.95,9.03c0-2.02,1.63-3.65,3.64-3.65s3.641,1.63,3.641,3.65c0,2.02-1.631,3.66-3.641,3.66
				C98.58,12.689,96.95,11.049,96.95,9.03z"/>
		</g>
	</g>
</g>
</svg>
