<?xml version="1.0" encoding="utf-8"?>
<!-- Generator: Adobe Illustrator 16.0.0, SVG Export Plug-In . SVG Version: 6.00 Build 0)  -->
<!DOCTYPE svg PUBLIC "-//W3C//DTD SVG 1.1//EN" "http://www.w3.org/Graphics/SVG/1.1/DTD/svg11.dtd">
<svg version="1.1" id="层_1" xmlns="http://www.w3.org/2000/svg" xmlns:xlink="http://www.w3.org/1999/xlink" x="0px" y="0px"
	 width="200px" height="112.54px" viewBox="0 0 200 112.54" enable-background="new 0 0 200 112.54" xml:space="preserve">
<g>
	<path fill="#EFEFEF" d="M0,87.54c0-13.81,44.77-25,100-25c55.23,0,100,11.19,100,25c0,13.811-44.77,25-100,25
		C44.77,112.54,0,101.35,0,87.54z"/>
	<g>
		<rect x="82" y="7.54" opacity="0.2" fill="#8CB4DF" enable-background="new    " width="58" height="78"/>
		<rect x="70" y="15.54" opacity="0.4" fill="#8CB4DF" enable-background="new    " width="58" height="78"/>
		<rect x="58" y="22.54" opacity="0.6" fill="#8CB4DF" enable-background="new    " width="58" height="78"/>
		<g>
			<rect x="46" y="27.54" fill="#8CB4DF" width="58" height="78"/>
			<rect x="53" y="37.54" fill="#FFFFFF" width="23" height="3"/>
			<rect x="79" y="37.54" fill="#FFFFFF" width="10" height="3"/>
			<rect x="53" y="47.54" fill="#FFFFFF" width="30" height="3"/>
			<rect x="53" y="57.54" fill="#FFFFFF" width="30" height="3"/>
			<rect x="53" y="67.54" fill="#FFFFFF" width="36" height="3"/>
			<rect x="53" y="77.54" fill="#FFFFFF" width="43" height="3"/>
			<rect x="85.09" y="47.209" fill="#FFFFFF" width="13.25" height="3.33"/>
			<path fill="#FFFFFF" d="M54.99,88.54h16.02c1.1,0,1.99,0.9,1.99,2v6c0,1.11-0.89,2-1.99,2H54.99c-1.1,0-1.99-0.89-1.99-2v-6
				C53,89.439,53.89,88.54,54.99,88.54z"/>
			<path fill="#FFFFFF" d="M80.99,88.54h16.02c1.1,0,1.99,0.9,1.99,2v6c0,1.11-0.89,2-1.99,2H80.99c-1.1,0-1.99-0.89-1.99-2v-6
				C79,89.439,79.89,88.54,80.99,88.54z"/>
		</g>
		<g>
			<path fill="#FECD78" d="M111.721,104.299c0-0.521-0.561-6.061,0.699-6.5c3.1-1.07,10.83-1.94,18.311-1.94
				c7.64,0,15.319,0.86,18.34,1.97c1.13,0.42,0.67,5.98,0.67,6.471c0,1.789-8.51,3.24-19.01,3.24S111.721,106.088,111.721,104.299z"
				/>
			<ellipse fill="#EC9922" cx="130.73" cy="96.729" rx="19.01" ry="3.24"/>
			<path fill="#FECD78" d="M113.83,95.649c0-0.52-0.561-6.061,0.699-6.5c3.111-1.07,10.83-1.939,18.311-1.939
				c7.641,0,15.32,0.869,18.34,1.97c1.131,0.42,0.67,5.979,0.67,6.47c0,1.79-8.51,3.24-19.01,3.24S113.83,97.439,113.83,95.649z"/>
			<ellipse fill="#EC9922" cx="132.84" cy="88.08" rx="19.01" ry="3.24"/>
			<path fill="#FECD78" d="M112.77,87c0-0.521-0.549-6.061,0.701-6.49c3.109-1.07,10.84-1.95,18.309-1.95
				c7.65,0,15.32,0.87,18.341,1.979c1.13,0.41,0.68,5.971,0.68,6.461c0,1.789-8.521,3.239-19.021,3.239S112.77,88.79,112.77,87z"/>
			<path fill="#EC9922" d="M112.77,79.43c0-1.79,8.51-3.24,19.01-3.24s19.021,1.45,19.021,3.24s-8.521,3.25-19.021,3.25
				S112.77,81.22,112.77,79.43z"/>
			<path fill="#FECD78" d="M114.88,78.35c0-0.52-0.55-6.061,0.71-6.49c3.1-1.07,10.83-1.949,18.311-1.949
				c7.64,0,15.31,0.869,18.33,1.979c1.14,0.409,0.68,5.97,0.68,6.46c0,1.79-8.51,3.24-19.01,3.24S114.88,80.14,114.88,78.35z"/>
			<path fill="#EC9922" d="M114.88,70.78c0-1.79,8.521-3.24,19.021-3.24s19.01,1.45,19.01,3.24s-8.51,3.25-19.01,3.25
				S114.88,72.569,114.88,70.78z"/>
		</g>
		
			<path fill="#EC9922" stroke="#FECD78" stroke-width="3" stroke-linecap="round" stroke-linejoin="round" stroke-miterlimit="10" d="
			M117,54.54c0-8.84,7.16-16,16-16s16,7.16,16,16c0,8.839-7.16,16-16,16S117,63.379,117,54.54z"/>
		<polygon fill="#FFFFFF" points="127.75,53.31 125,56.18 130.09,61.54 141,51.959 136.811,47.54 129.8,56.109 		"/>
	</g>
</g>
</svg>
