<?xml version="1.0" encoding="utf-8"?>
<!-- Generator: Adobe Illustrator 16.0.0, SVG Export Plug-In . SVG Version: 6.00 Build 0)  -->
<!DOCTYPE svg PUBLIC "-//W3C//DTD SVG 1.1//EN" "http://www.w3.org/Graphics/SVG/1.1/DTD/svg11.dtd">
<svg version="1.1" id="层_1" xmlns="http://www.w3.org/2000/svg" xmlns:xlink="http://www.w3.org/1999/xlink" x="0px" y="0px"
	 width="200px" height="112.54px" viewBox="0 0 200 112.54" enable-background="new 0 0 200 112.54" xml:space="preserve">
<g>
	<path fill="#EFEFEF" d="M0,87.54c0-13.81,44.77-25,100-25c55.23,0,100,11.19,100,25c0,13.811-44.77,25-100,25
		C44.77,112.54,0,101.35,0,87.54z"/>
	<rect x="67" y="57.54" fill="#FFFFFF" width="59" height="22"/>
	<g>
		<g>
			<rect x="60" y="8.54" fill="#686DA7" width="76" height="9"/>
			<path fill="#686DA7" d="M58.28,18.54H136.9l9.1,22.39c0,0-1.65,11.61-10.76,11.61c-9.1,0-13.24-11.61-13.24-11.61
				s-1.42,10.78-11.59,10.78C100.25,51.709,98,40.93,98,40.93s-2.05,11.61-11.59,11.61C76.88,52.54,74,40.93,74,40.93
				s-2.06,11.61-11.59,11.61C52.88,52.54,50,40.1,50,40.1L58.28,18.54z"/>
			<path fill="#9C9FC5" d="M60.62,56.58c-2,0-3.62,1.74-3.62,3.78v29.49c0,2.04,1.62,3.689,3.61,3.689h71.781
				c1.989,0,3.609-1.649,3.609-3.689V60.36c0-2.04-1.62-3.69-3.609-3.69l-6.291,0.02l-0.02,22.9l-59.21,0.039v-23L60.62,56.58z"/>
		</g>
		<g>
			<polygon fill="#040404" points="116.01,65.6 123.83,65.54 131.721,89.64 151,89.588 150.99,92.479 129.9,92.54 121.37,68.479 
				116,68.479 			"/>
			<path fill="#040404" d="M131,98.04c0-1.93,1.57-3.5,3.5-3.5s3.5,1.57,3.5,3.5c0,1.931-1.57,3.5-3.5,3.5S131,99.97,131,98.04z"/>
			<path fill="#040404" d="M142,98.04c0-1.93,1.57-3.5,3.5-3.5s3.5,1.57,3.5,3.5c0,1.931-1.57,3.5-3.5,3.5S142,99.97,142,98.04z"/>
			<path fill="#040404" d="M131.91,74.549h18.3c1.36,0,3.64-0.101,2.46,2.66l-2.109,7.979c-0.531,1.681-1.221,3.351-2.59,3.351
				H136.37c-1.36,0-2.47-2.121-2.95-3.391l-3.17-8.061C129.5,74.299,130.55,74.549,131.91,74.549z"/>
		</g>
		<g>
			
				<linearGradient id="SVGID_1_" gradientUnits="userSpaceOnUse" x1="251.7754" y1="-184.73" x2="251.7754" y2="-151.73" gradientTransform="matrix(1 0 0 -1 -184.2754 -82.1904)">
				<stop  offset="0" style="stop-color:#FF9A44"/>
				<stop  offset="1" style="stop-color:#FFB45B"/>
			</linearGradient>
			<path fill="url(#SVGID_1_)" d="M47.12,69.54h40.76c2.83,0,5.12,2.221,5.12,4.95V97.59c0,2.729-2.29,4.949-5.12,4.949H47.12
				c-2.83,0-5.12-2.22-5.12-4.949V74.49C42,71.76,44.29,69.54,47.12,69.54z"/>
			<rect x="70.83" y="77.37" fill="#FFFFFF" width="13.3" height="2.801"/>
			<rect x="70.83" y="82.959" fill="#FFFFFF" width="13.3" height="2.8"/>
			<rect x="70.83" y="89.12" fill="#FFFFFF" width="13.3" height="2.791"/>
			<rect x="47.54" y="76.81" fill="#FFFFFF" width="18.3" height="19.58"/>
			<path fill="#040404" d="M54.2,86.04c0-1.699,1.36-3.08,3.04-3.08c1.69,0,3.05,1.381,3.05,3.08c0,1.7-1.36,3.08-3.05,3.08
				C55.56,89.12,54.2,87.74,54.2,86.04z"/>
			<path fill="#040404" d="M51.44,96.39c-0.03-0.31-0.01-1.45-0.01-1.78c0-2.449,3.28-5.49,5.62-5.49c2.35,0,5.45,3.021,5.45,5.471
				c0,0.38,0.02,1.439,0,1.779L51.44,96.39z"/>
		</g>
	</g>
</g>
</svg>
