<?xml version="1.0" encoding="utf-8"?>
<!-- Generator: Adobe Illustrator 16.0.0, SVG Export Plug-In . SVG Version: 6.00 Build 0)  -->
<!DOCTYPE svg PUBLIC "-//W3C//DTD SVG 1.1//EN" "http://www.w3.org/Graphics/SVG/1.1/DTD/svg11.dtd">
<svg version="1.1" id="层_1" xmlns="http://www.w3.org/2000/svg" xmlns:xlink="http://www.w3.org/1999/xlink" x="0px" y="0px"
	 width="200px" height="112.54px" viewBox="0 0 200 112.54" enable-background="new 0 0 200 112.54" xml:space="preserve">
<g>
	<path fill="#EFEFEF" d="M0,87.54c0-13.81,44.77-25,100-25c55.23,0,100,11.19,100,25c0,13.811-44.77,25-100,25
		C44.77,112.54,0,101.35,0,87.54z"/>
	<g>
		<g>
			<path fill="#647898" d="M64.31,20.54h69.379c5.69,0,10.311,4.57,10.311,10.2V78.34c0,5.63-4.62,10.199-10.311,10.199H64.31
				C58.62,88.54,54,83.97,54,78.34V30.74C54,25.109,58.62,20.54,64.31,20.54z"/>
			<path fill="#FFFFFF" d="M119.66,37.54h26.68c8.1,0,14.66,6.49,14.66,14.5c0,8.009-6.561,14.5-14.66,14.5h-26.68
				c-8.1,0-14.66-6.49-14.66-14.5C105,44.03,111.561,37.54,119.66,37.54z"/>
			<path fill="#647898" d="M119.12,40.54h23.76c6.14,0,11.12,4.92,11.12,11c0,6.08-4.98,11-11.12,11h-23.76
				c-6.14,0-11.12-4.92-11.12-11C108,45.46,112.98,40.54,119.12,40.54z"/>
		</g>
		<g>
			
				<path fill="#EC9922" stroke="#FECD78" stroke-width="3" stroke-linecap="round" stroke-linejoin="round" stroke-miterlimit="10" d="
				M44,72.54c0-10.49,8.51-19,19-19s19,8.509,19,19s-8.51,19-19,19S44,83.03,44,72.54z"/>
			<g>
				<path fill="none" stroke="#FFFFFF" stroke-linecap="round" stroke-linejoin="round" stroke-miterlimit="10" d="M75.4,72.959
					c0.38,0.239,0.25,0.439-0.38,0.6c-0.23,0.061-0.24,0.14-0.24,0.26c0.01,0.301-0.03,0.44-0.74,0.561
					c-0.27,0.039-0.42,0.129-0.4,0.229c0.05,0.261-0.3,0.431-1.07,0.49c-0.29,0.03-0.5,0.1-0.54,0.2
					c-0.11,0.27-0.56,0.399-1.35,0.41c-0.29,0-0.54,0.06-0.65,0.16c-0.27,0.25-0.79,0.35-1.57,0.299c-0.3-0.02-0.58,0.03-0.73,0.11
					c-0.43,0.23-1,0.29-1.74,0.19c-0.27-0.04-0.57-0.01-0.78,0.06c-0.55,0.19-1.15,0.21-1.81,0.06c-0.24-0.06-0.56-0.06-0.8,0
					c-0.66,0.15-1.26,0.131-1.81-0.06c-0.21-0.069-0.51-0.1-0.78-0.06c-0.74,0.1-1.31,0.04-1.74-0.19
					c-0.15-0.08-0.43-0.13-0.73-0.11c-0.78,0.051-1.3-0.049-1.57-0.299c-0.1-0.101-0.36-0.16-0.65-0.16
					c-0.79-0.011-1.24-0.141-1.35-0.41c-0.04-0.101-0.25-0.17-0.54-0.2c-0.77-0.06-1.12-0.229-1.07-0.49
					c0.02-0.1-0.13-0.19-0.4-0.229c-0.71-0.121-0.96-0.311-0.74-0.561c0.08-0.09-0.01-0.199-0.24-0.26
					c-0.63-0.16-0.76-0.36-0.38-0.6c0.14-0.08,0.1-0.181-0.09-0.261c-0.51-0.2-0.51-0.409,0-0.61c0.19-0.08,0.23-0.18,0.09-0.26
					c-0.38-0.24-0.25-0.439,0.38-0.6c0.23-0.07,0.32-0.16,0.24-0.26c-0.22-0.25,0.03-0.44,0.74-0.561
					c0.27-0.039,0.42-0.13,0.4-0.229c-0.05-0.261,0.3-0.431,1.07-0.49c0.29-0.03,0.5-0.101,0.54-0.2c0.11-0.27,0.56-0.4,1.35-0.41
					c0.29,0,0.55-0.06,0.65-0.16c0.27-0.25,0.79-0.35,1.57-0.299c0.3,0.02,0.58-0.031,0.73-0.111c0.42-0.229,1-0.289,1.74-0.189
					c0.27,0.04,0.57,0.01,0.78-0.061c0.55-0.189,1.15-0.209,1.81-0.06c0.24,0.06,0.55,0.06,0.8,0c0.66-0.149,1.26-0.13,1.81,0.06
					c0.21,0.07,0.51,0.101,0.78,0.061c0.74-0.1,1.31-0.04,1.74,0.189c0.15,0.08,0.43,0.131,0.73,0.111
					c0.78-0.051,1.3,0.049,1.57,0.299c0.11,0.101,0.36,0.16,0.65,0.16c0.79,0.01,1.24,0.141,1.35,0.41c0.04,0.1,0.28,0.18,0.54,0.2
					c0.57,0.03,0.9,0.19,1.07,0.49c0.05,0.09,0.13,0.239,0.4,0.229c0.52-0.01,0.96,0.311,0.74,0.561c-0.08,0.1,0,0.25,0.24,0.26
					c0.49,0.02,0.76,0.359,0.38,0.6c-0.14,0.08-0.1,0.18,0.09,0.26c0.51,0.201,0.51,0.41,0,0.61
					C75.3,72.78,75.26,72.879,75.4,72.959z"/>
				<path fill="#FFFFFF" stroke="#FFFFFF" stroke-linecap="round" stroke-linejoin="round" stroke-miterlimit="10" d="M61.98,64.12
					c0.48-0.189,0.93-0.67,0.88-1.31c-0.05-0.649-0.76-0.851-1.6-0.55c-1.71,0.6-2.13,2.47-2.34,4.32
					c-0.06,0.529-0.1,1.069-0.15,1.56c-0.39,3.84-0.66,6.44-0.43,9.88c0.05,0.71,0.3,1.48-0.24,2.23
					c-0.97,0.119-0.72-0.471-1.62-0.15c-1.39,0.51-1.03,2.311,0.02,2.22c0.32-0.03,0.59-0.12,0.95-0.31
					c1.75-0.91,1.93-3.15,2.15-5.4c0.43-4.21,0.61-6.33,0.45-10.279V66.29c-0.03-0.729-0.19-1.93,0.3-2.199
					C60.84,63.819,61.24,64.399,61.98,64.12z"/>
				<path fill="#FFFFFF" stroke="#FFFFFF" stroke-linecap="round" stroke-linejoin="round" stroke-miterlimit="10" d="M68.05,62.26
					c-1.72,0.6-2.14,2.47-2.34,4.32c-0.06,0.539-0.11,1.069-0.15,1.569c-0.39,3.83-0.67,6.45-0.43,9.899
					c0.05,0.701,0.3,1.471-0.24,2.221c-0.98,0.13-0.73-0.471-1.62-0.141c-1.39,0.511-1.04,2.301,0.01,2.211
					c0.33-0.021,0.59-0.12,0.96-0.301c1.75-0.92,1.92-3.16,2.15-5.41c0.43-4.209,0.61-6.35,0.45-10.299V66.29
					c-0.04-0.72-0.2-1.93,0.3-2.199c0.48-0.271,0.88,0.32,1.63,0.029c0.47-0.189,0.92-0.67,0.88-1.31
					C69.6,62.161,68.88,61.959,68.05,62.26z"/>
			</g>
		</g>
	</g>
</g>
</svg>
