<?xml version="1.0" encoding="utf-8"?>
<!-- Generator: Adobe Illustrator 16.0.0, SVG Export Plug-In . SVG Version: 6.00 Build 0)  -->
<!DOCTYPE svg PUBLIC "-//W3C//DTD SVG 1.1//EN" "http://www.w3.org/Graphics/SVG/1.1/DTD/svg11.dtd">
<svg version="1.1" id="层_1" xmlns="http://www.w3.org/2000/svg" xmlns:xlink="http://www.w3.org/1999/xlink" x="0px" y="0px"
	 width="200px" height="112.54px" viewBox="0 0 200 112.54" enable-background="new 0 0 200 112.54" xml:space="preserve">
<g>
	<path fill="#EFEFEF" d="M0,87.54c0-13.81,44.77-25,100-25c55.23,0,100,11.19,100,25c0,13.811-44.77,25-100,25
		C44.77,112.54,0,101.35,0,87.54z"/>
	<g>
		<path fill="#647898" d="M67.92,29.54h65.391c0,0,13.34,10.85,14.469,33.509c1.08,21.531-1.559,35.361-14.899,36.281
			c-13.34,0.92-20.69-29.82-20.69-29.82H86.06c0,0-5.96,31.5-21,29.979c-15.05-1.53-11.44-27.01-12.01-38.88
			C52.2,43.229,67.92,29.54,67.92,29.54z"/>
		<g>
			<path fill="#485876" d="M56,48.54c0-11.05,8.95-20,20-20s20,8.95,20,20s-8.95,20-20,20S56,59.588,56,48.54z"/>
			<path fill="#FFCC33" d="M62.96,44.54h5.17c1.08,0,3.87,3.27,3.87,4.12s-2.79,3.88-3.87,3.88h-5.17c-1.08,0-1.96-0.91-1.96-2.04
				v-3.92C61,45.45,61.88,44.54,62.96,44.54z"/>
			<path fill="#FFCC33" d="M89.04,44.54h-5.17c-1.08,0-3.87,3.27-3.87,4.12s2.79,3.88,3.87,3.88h5.17c1.08,0,1.96-0.91,1.96-2.04
				v-3.92C91,45.45,90.12,44.54,89.04,44.54z"/>
			<path fill="#FFCC33" d="M72,61.581v-5.17c0-1.08,3.27-3.87,4.12-3.87S80,55.33,80,56.41v5.17c0,1.08-0.91,1.959-2.04,1.959h-3.92
				C72.91,63.54,72,62.661,72,61.581z"/>
			<path fill="#FFCC33" d="M72,35.5v5.17c0,1.08,3.27,3.87,4.12,3.87S80,41.75,80,40.669V35.5c0-1.08-0.91-1.96-2.04-1.96h-3.92
				C72.91,33.54,72,34.419,72,35.5z"/>
		</g>
		<g>
			<path fill="#485876" d="M105,48.54c0-11.05,8.95-20,20-20s20,8.95,20,20s-8.95,20-20,20S105,59.588,105,48.54z"/>
			<circle fill="#FF8000" cx="125" cy="39.54" r="4"/>
			<circle fill="#FF8000" cx="115" cy="48.54" r="4"/>
			<circle fill="#FF8000" cx="135" cy="48.54" r="4"/>
			<circle fill="#FF8000" cx="125" cy="58.54" r="4"/>
		</g>
	</g>
</g>
</svg>
