<?xml version="1.0" encoding="utf-8"?>
<!-- Generator: Adobe Illustrator 16.0.0, SVG Export Plug-In . SVG Version: 6.00 Build 0)  -->
<!DOCTYPE svg PUBLIC "-//W3C//DTD SVG 1.1//EN" "http://www.w3.org/Graphics/SVG/1.1/DTD/svg11.dtd">
<svg version="1.1" id="层_1" xmlns="http://www.w3.org/2000/svg" xmlns:xlink="http://www.w3.org/1999/xlink" x="0px" y="0px"
	 width="200px" height="112.54px" viewBox="0 0 200 112.54" enable-background="new 0 0 200 112.54" xml:space="preserve">
<g>
	<path fill="#EFEFEF" d="M0,87.54c0-13.81,44.77-25,100-25c55.23,0,100,11.19,100,25c0,13.811-44.77,25-100,25
		C44.77,112.54,0,101.35,0,87.54z"/>
	<g>
		<g>
			<path fill="#EB9A9A" d="M94.21,56.819c0,0,2.88-7.78,10.53-7.64c7.66,0.13,13.279,6.86,12.76,11.399
				c-0.51,4.541-4.1,10.49-4.1,10.49s9.8-3.189,13.68-3.189c0.52,0,1.09,0.05,1.66,0.149c3.66,0.66,7.91,3.53,7.91,10.341
				c0,7.879-10.94,14.199-18.23,14.59c-9.439,0.51-29.99-4.53-34.64-5.011c-5.55-0.59-17.78,3.64-17.78,3.64s10.58-3.289,18.96-0.5
				c7.93,2.65,12.66,4.591,17.39,6.531c4.621,1.889,16.15,6.629,24.73,5.829c5.17-0.479,24.02-4.59,23.92-22.399
				c-0.1-16.69-23.29-14.09-23.29-14.09s4.12-12.311-1.55-18.23s-11.7-6.94-18.68-5.48C96.02,45.64,94.21,56.819,94.21,56.819z"/>
		</g>
		<path fill="#EC1B24" d="M140.971,40.189c0,0,3.1-2.25,5.859-1.45c2.77,0.8,4.141,5.17,3.46,7.42c-0.681,2.24-6.479,7.99-9.34,9.43
			c-2.851,1.44-7.69,3.84-7.69,3.84s0.051-4.57-0.859-7.11s-3.121-9.83-2.121-13.14c1.011-3.31,4.591-4.59,6.771-3.83
			C139.221,36.109,140.971,40.189,140.971,40.189z"/>
		<g>
			
				<line fill="none" stroke="#647898" stroke-width="2" stroke-linecap="round" stroke-linejoin="round" stroke-miterlimit="10" x1="42.09" y1="67.899" x2="72.5" y2="81.72"/>
			
				<line fill="none" stroke="#647898" stroke-width="2" stroke-linecap="round" stroke-linejoin="round" stroke-miterlimit="10" x1="72.5" y1="81.72" x2="102.91" y2="67.18"/>
			
				<line fill="none" stroke="#647898" stroke-width="2" stroke-linecap="round" stroke-linejoin="round" stroke-miterlimit="10" x1="42.09" y1="73.72" x2="72.5" y2="87.54"/>
			
				<line fill="none" stroke="#647898" stroke-width="2" stroke-linecap="round" stroke-linejoin="round" stroke-miterlimit="10" x1="72.5" y1="87.54" x2="102.91" y2="72.99"/>
			<path fill="#647898" d="M74.39,44.26l28.76,14.88c1.129,1.149,1.129,1.989,0,3.14L74.32,76.331c-1.47,0.81-2.69,0.959-4.12,0
				L41.9,62.78c-1.14-1.15-1.23-3-0.09-4.15L70.26,44.26C71.71,43.28,73.18,43.319,74.39,44.26z"/>
		</g>
		<path fill="#FFFFFF" d="M63.81,59.229c-2.94-1.75-3.71-4.05-1.67-5.13c2.08-1.1,6.24-0.52,9.25,1.3
			c2.99,1.811,3.63,4.12,1.48,5.16C70.76,61.569,66.73,60.97,63.81,59.229z"/>
		<path fill="#FFFFFF" d="M75.73,67.54c-0.38-0.199-1.68-0.99-2.06-1.229c-2.86-1.7-2.67-4.61-0.56-5.62
			c2.15-1.029,7.82-0.83,10.76,0.96c0.45,0.271,1.75,1.04,2.13,1.29L75.73,67.54z"/>
	</g>
</g>
</svg>
