<?xml version="1.0" encoding="utf-8"?>
<!-- Generator: Adobe Illustrator 16.0.0, SVG Export Plug-In . SVG Version: 6.00 Build 0)  -->
<!DOCTYPE svg PUBLIC "-//W3C//DTD SVG 1.1//EN" "http://www.w3.org/Graphics/SVG/1.1/DTD/svg11.dtd">
<svg version="1.1" id="层_1" xmlns="http://www.w3.org/2000/svg" xmlns:xlink="http://www.w3.org/1999/xlink" x="0px" y="0px"
	 width="200px" height="112.54px" viewBox="0 0 200 112.54" enable-background="new 0 0 200 112.54" xml:space="preserve">
<g>
	<path fill="#EFEFEF" d="M0,87.54c0-13.81,44.77-25,100-25c55.23,0,100,11.19,100,25c0,13.811-44.77,25-100,25
		C44.77,112.54,0,101.35,0,87.54z"/>
	<g>
		<g>
			<polygon fill="#DBB780" points="122.221,89.54 92.67,89.54 97.33,49.649 117.561,49.649 			"/>
			<path fill="#654C48" d="M105.109,89.54H116V73.11c0,0-0.311-5.47-5.439-5.47c-5.141,0-5.451,5.47-5.451,5.47V89.54z"/>
			<path fill="#746565" d="M97.33,50.43h21l-0.77-16.42c0,0-3.871-4.7-10.121-4.7c-6.239,0-9.33,5.48-9.33,5.48L97.33,50.43z"/>
			<g>
				<polygon fill="#482B2B" points="85.24,10.819 108.57,35.069 104.68,39.75 80.57,15.5 				"/>
				<polygon fill="#482B2B" points="113.23,38.97 136.561,63.22 132.67,67.899 108.561,43.649 				"/>
				<polygon fill="#482B2B" points="131.891,10.04 108.57,34.28 112.45,38.97 136.55,14.72 				"/>
				<polygon fill="#482B2B" points="104.68,39.75 81.36,64 85.24,68.68 109.34,44.43 				"/>
			</g>
		</g>
		<g>
			<rect x="43" y="75.54" fill="#F1D3A3" width="60" height="30"/>
			<rect x="47" y="84.54" fill="#555F69" width="25" height="21"/>
			<rect x="75" y="84.54" fill="#555F69" width="25" height="21"/>
			<polygon fill="#CF4113" points="39,75.54 107,75.54 104,66.54 42,66.54 			"/>
		</g>
		<g>
			<path fill="#036630" d="M116,90.79c0-3.729,2.24-11.25,5-11.25s5,7.521,5,11.25c0,3.73-2.24,6.75-5,6.75S116,94.52,116,90.79z"/>
			<rect x="120" y="97.54" fill="#956842" width="2" height="8"/>
			<path fill="#036630" d="M127,90.79c0-3.729,2.24-11.25,5-11.25s5,7.521,5,11.25c0,3.73-2.24,6.75-5,6.75S127,94.52,127,90.79z"/>
			<rect x="131" y="97.54" fill="#956842" width="2" height="8"/>
			<path fill="#036630" d="M138,90.79c0-3.729,2.24-11.25,5-11.25s5,7.521,5,11.25c0,3.73-2.24,6.75-5,6.75S138,94.52,138,90.79z"/>
			<rect x="142" y="97.54" fill="#956842" width="2" height="8"/>
		</g>
	</g>
</g>
</svg>
